{
  "header": {
    "PPQ": 1024,
    "bpm": 126.99998518333506,
    "timeSignature": [
      6,
      8
    ],
    "name": "Spear Of Justice"
  },
  "tempo": [
    {
      "absoluteTime": 0,
      "seconds": 0,
      "bpm": 126.99998518333506
    }
  ],
  "timeSignature": [
    {
      "absoluteTime": 0,
      "seconds": 0,
      "numerator": 6,
      "denominator": 3,
      "click": 24,
      "notesQ": 8
    }
  ],
  "startTime": 0,
  "duration": 117.63780900000006,
  "tracks": [
    {
      "startTime": 0,
      "duration": 0,
      "length": 0,
      "notes": [],
      "controlChanges": {},
      "id": 0,
      "name": "Spear Of Justice"
    },
    {
      "startTime": 0.004613681640625,
      "duration": 117.63734763183618,
      "length": 687,
      "notes": [
        {
          "name": "G5",
          "midi": 79,
          "time": 0.004613681640625,
          "velocity": 0.3937007874015748,
          "duration": 0.361712640625
        },
        {
          "name": "G4",
          "midi": 67,
          "time": 0.004613681640625,
          "velocity": 0.3937007874015748,
          "duration": 0.361712640625
        },
        {
          "name": "D5",
          "midi": 74,
          "time": 0.3667876904296875,
          "velocity": 0.3937007874015748,
          "duration": 0.09042816015624999
        },
        {
          "name": "D4",
          "midi": 62,
          "time": 0.3667876904296875,
          "velocity": 0.3937007874015748,
          "duration": 0.09042816015624999
        },
        {
          "name": "F5",
          "midi": 77,
          "time": 0.5993172451171875,
          "velocity": 0.3937007874015748,
          "duration": 0.11949435449218748
        },
        {
          "name": "F4",
          "midi": 65,
          "time": 0.5993172451171875,
          "velocity": 0.3937007874015748,
          "duration": 0.13333539941406247
        },
        {
          "name": "E5",
          "midi": 76,
          "time": 0.7192729677734375,
          "velocity": 0.3937007874015748,
          "duration": 0.09319636914062501
        },
        {
          "name": "E4",
          "midi": 64,
          "time": 0.7192729677734375,
          "velocity": 0.3937007874015748,
          "duration": 0.13333539941406247
        },
        {
          "name": "C5",
          "midi": 72,
          "time": 0.9545707314453125,
          "velocity": 0.3937007874015748,
          "duration": 0.08489174218749995
        },
        {
          "name": "C4",
          "midi": 60,
          "time": 0.9545707314453125,
          "velocity": 0.3937007874015748,
          "duration": 0.08489174218749995
        },
        {
          "name": "D5",
          "midi": 74,
          "time": 1.1815638681640623,
          "velocity": 0.3937007874015748,
          "duration": 0.23529776367187494
        },
        {
          "name": "D4",
          "midi": 62,
          "time": 1.1815638681640623,
          "velocity": 0.3937007874015748,
          "duration": 0.2634412216796873
        },
        {
          "name": "G5",
          "midi": 79,
          "time": 1.4173229999999997,
          "velocity": 0.3937007874015748,
          "duration": 0.366326322265625
        },
        {
          "name": "G4",
          "midi": 67,
          "time": 1.4173229999999997,
          "velocity": 0.3937007874015748,
          "duration": 0.34464201855468746
        },
        {
          "name": "D5",
          "midi": 74,
          "time": 1.784110690429687,
          "velocity": 0.3937007874015748,
          "duration": 0.09042816015624999
        },
        {
          "name": "D4",
          "midi": 62,
          "time": 1.784110690429687,
          "velocity": 0.3937007874015748,
          "duration": 0.09042816015624999
        },
        {
          "name": "F5",
          "midi": 77,
          "time": 2.016640245117187,
          "velocity": 0.3937007874015748,
          "duration": 0.1194943544921876
        },
        {
          "name": "F4",
          "midi": 65,
          "time": 2.016640245117187,
          "velocity": 0.3937007874015748,
          "duration": 0.13333539941406247
        },
        {
          "name": "E5",
          "midi": 76,
          "time": 2.136595967773437,
          "velocity": 0.3937007874015748,
          "duration": 0.09319636914062501
        },
        {
          "name": "E4",
          "midi": 64,
          "time": 2.136595967773437,
          "velocity": 0.3937007874015748,
          "duration": 0.13333539941406247
        },
        {
          "name": "C5",
          "midi": 72,
          "time": 2.3718937314453123,
          "velocity": 0.3937007874015748,
          "duration": 0.08489174218750017
        },
        {
          "name": "C4",
          "midi": 60,
          "time": 2.3718937314453123,
          "velocity": 0.3937007874015748,
          "duration": 0.08489174218750017
        },
        {
          "name": "D5",
          "midi": 74,
          "time": 2.5988868681640627,
          "velocity": 0.3937007874015748,
          "duration": 0.23529776367187516
        },
        {
          "name": "D4",
          "midi": 62,
          "time": 2.5988868681640627,
          "velocity": 0.3937007874015748,
          "duration": 0.26344122167968775
        },
        {
          "name": "G5",
          "midi": 79,
          "time": 2.834646,
          "velocity": 0.3937007874015748,
          "duration": 0.3663263222656252
        },
        {
          "name": "G4",
          "midi": 67,
          "time": 2.834646,
          "velocity": 0.3937007874015748,
          "duration": 0.3446420185546879
        },
        {
          "name": "D5",
          "midi": 74,
          "time": 3.201433690429688,
          "velocity": 0.3937007874015748,
          "duration": 0.09042816015625021
        },
        {
          "name": "D4",
          "midi": 62,
          "time": 3.201433690429688,
          "velocity": 0.3937007874015748,
          "duration": 0.09042816015625021
        },
        {
          "name": "F5",
          "midi": 77,
          "time": 3.433963245117188,
          "velocity": 0.3937007874015748,
          "duration": 0.1194943544921876
        },
        {
          "name": "F4",
          "midi": 65,
          "time": 3.433963245117188,
          "velocity": 0.3937007874015748,
          "duration": 0.13333539941406247
        },
        {
          "name": "E5",
          "midi": 76,
          "time": 3.553918967773438,
          "velocity": 0.3937007874015748,
          "duration": 0.09319636914062501
        },
        {
          "name": "E4",
          "midi": 64,
          "time": 3.553918967773438,
          "velocity": 0.3937007874015748,
          "duration": 0.13333539941406247
        },
        {
          "name": "D5",
          "midi": 74,
          "time": 3.7892167314453133,
          "velocity": 0.3937007874015748,
          "duration": 0.08489174218750017
        },
        {
          "name": "D4",
          "midi": 62,
          "time": 3.7892167314453133,
          "velocity": 0.3937007874015748,
          "duration": 0.08489174218750017
        },
        {
          "name": "C5",
          "midi": 72,
          "time": 4.016209868164063,
          "velocity": 0.3937007874015748,
          "duration": 0.23529776367187516
        },
        {
          "name": "C4",
          "midi": 60,
          "time": 4.016209868164063,
          "velocity": 0.3937007874015748,
          "duration": 0.2634412216796873
        },
        {
          "name": "D5",
          "midi": 74,
          "time": 4.251969000000001,
          "velocity": 0.3937007874015748,
          "duration": 0.2500615449218744
        },
        {
          "name": "A#4",
          "midi": 70,
          "time": 4.251969000000001,
          "velocity": 0.3937007874015748,
          "duration": 0.27820500292968653
        },
        {
          "name": "C5",
          "midi": 72,
          "time": 4.5024919130859375,
          "velocity": 0.3937007874015748,
          "duration": 0.23160681835937513
        },
        {
          "name": "A4",
          "midi": 69,
          "time": 4.5024919130859375,
          "velocity": 0.3937007874015748,
          "duration": 0.2597502763671873
        },
        {
          "name": "A#4",
          "midi": 70,
          "time": 4.734560099609375,
          "velocity": 0.3937007874015748,
          "duration": 0.23622049999999994
        },
        {
          "name": "G4",
          "midi": 67,
          "time": 4.734560099609375,
          "velocity": 0.3937007874015748,
          "duration": 0.2643639580078121
        },
        {
          "name": "A4",
          "midi": 69,
          "time": 4.971241967773437,
          "velocity": 0.3937007874015748,
          "duration": 0.23483639550781188
        },
        {
          "name": "F4",
          "midi": 65,
          "time": 4.971241967773437,
          "velocity": 0.3937007874015748,
          "duration": 0.26297985351562403
        },
        {
          "name": "D5",
          "midi": 74,
          "time": 5.206539731445312,
          "velocity": 0.3937007874015748,
          "duration": 0.22653176855468704
        },
        {
          "name": "G4",
          "midi": 67,
          "time": 5.206539731445312,
          "velocity": 0.3937007874015748,
          "duration": 0.2546752265624992
        },
        {
          "name": "F5",
          "midi": 77,
          "time": 5.433532868164061,
          "velocity": 0.3937007874015748,
          "duration": 0.23529776367187427
        },
        {
          "name": "A4",
          "midi": 69,
          "time": 5.433532868164061,
          "velocity": 0.3937007874015748,
          "duration": 0.19977241503906207
        },
        {
          "name": "G5",
          "midi": 79,
          "time": 5.673905681640623,
          "velocity": 0.3937007874015748,
          "duration": 0.36171264062499997
        },
        {
          "name": "G4",
          "midi": 67,
          "time": 5.673905681640623,
          "velocity": 0.3937007874015748,
          "duration": 0.36171264062499997
        },
        {
          "name": "D5",
          "midi": 74,
          "time": 6.036079690429685,
          "velocity": 0.3937007874015748,
          "duration": 0.09042816015625021
        },
        {
          "name": "D4",
          "midi": 62,
          "time": 6.036079690429685,
          "velocity": 0.3937007874015748,
          "duration": 0.09042816015625021
        },
        {
          "name": "F5",
          "midi": 77,
          "time": 6.268609245117185,
          "velocity": 0.3937007874015748,
          "duration": 0.11949435449218715
        },
        {
          "name": "F4",
          "midi": 65,
          "time": 6.268609245117185,
          "velocity": 0.3937007874015748,
          "duration": 0.13333539941406247
        },
        {
          "name": "E5",
          "midi": 76,
          "time": 6.388564967773434,
          "velocity": 0.3937007874015748,
          "duration": 0.09319636914062546
        },
        {
          "name": "E4",
          "midi": 64,
          "time": 6.388564967773434,
          "velocity": 0.3937007874015748,
          "duration": 0.13333539941406336
        },
        {
          "name": "C5",
          "midi": 72,
          "time": 6.6238627314453105,
          "velocity": 0.3937007874015748,
          "duration": 0.08489174218749973
        },
        {
          "name": "C4",
          "midi": 60,
          "time": 6.6238627314453105,
          "velocity": 0.3937007874015748,
          "duration": 0.08489174218749973
        },
        {
          "name": "D5",
          "midi": 74,
          "time": 6.85085586816406,
          "velocity": 0.3937007874015748,
          "duration": 0.23529776367187516
        },
        {
          "name": "D4",
          "midi": 62,
          "time": 6.85085586816406,
          "velocity": 0.3937007874015748,
          "duration": 0.2634412216796873
        },
        {
          "name": "G5",
          "midi": 79,
          "time": 7.086614999999997,
          "velocity": 0.3937007874015748,
          "duration": 0.3663263222656248
        },
        {
          "name": "G4",
          "midi": 67,
          "time": 7.086614999999997,
          "velocity": 0.3937007874015748,
          "duration": 0.344642018554687
        },
        {
          "name": "D5",
          "midi": 74,
          "time": 7.453402690429685,
          "velocity": 0.3937007874015748,
          "duration": 0.09042816015625021
        },
        {
          "name": "D4",
          "midi": 62,
          "time": 7.453402690429685,
          "velocity": 0.3937007874015748,
          "duration": 0.09042816015625021
        },
        {
          "name": "F5",
          "midi": 77,
          "time": 7.6859322451171845,
          "velocity": 0.3937007874015748,
          "duration": 0.11949435449218715
        },
        {
          "name": "F4",
          "midi": 65,
          "time": 7.6859322451171845,
          "velocity": 0.3937007874015748,
          "duration": 0.13333539941406247
        },
        {
          "name": "E5",
          "midi": 76,
          "time": 7.805887967773434,
          "velocity": 0.3937007874015748,
          "duration": 0.09319636914062546
        },
        {
          "name": "E4",
          "midi": 64,
          "time": 7.805887967773434,
          "velocity": 0.3937007874015748,
          "duration": 0.13333539941406336
        },
        {
          "name": "C5",
          "midi": 72,
          "time": 8.04118573144531,
          "velocity": 0.3937007874015748,
          "duration": 0.08489174218749973
        },
        {
          "name": "C4",
          "midi": 60,
          "time": 8.04118573144531,
          "velocity": 0.3937007874015748,
          "duration": 0.08489174218749973
        },
        {
          "name": "D5",
          "midi": 74,
          "time": 8.26817886816406,
          "velocity": 0.3937007874015748,
          "duration": 0.23529776367187516
        },
        {
          "name": "D4",
          "midi": 62,
          "time": 8.26817886816406,
          "velocity": 0.3937007874015748,
          "duration": 0.2634412216796882
        },
        {
          "name": "G5",
          "midi": 79,
          "time": 8.503937999999998,
          "velocity": 0.3937007874015748,
          "duration": 0.36632632226562656
        },
        {
          "name": "G4",
          "midi": 67,
          "time": 8.503937999999998,
          "velocity": 0.3937007874015748,
          "duration": 0.3446420185546888
        },
        {
          "name": "D5",
          "midi": 74,
          "time": 8.870725690429687,
          "velocity": 0.3937007874015748,
          "duration": 0.09042816015625021
        },
        {
          "name": "D4",
          "midi": 62,
          "time": 8.870725690429687,
          "velocity": 0.3937007874015748,
          "duration": 0.09042816015625021
        },
        {
          "name": "F5",
          "midi": 77,
          "time": 9.103255245117188,
          "velocity": 0.3937007874015748,
          "duration": 0.11949435449218804
        },
        {
          "name": "F4",
          "midi": 65,
          "time": 9.103255245117188,
          "velocity": 0.3937007874015748,
          "duration": 0.13333539941406336
        },
        {
          "name": "E5",
          "midi": 76,
          "time": 9.223210967773438,
          "velocity": 0.3937007874015748,
          "duration": 0.09319636914062457
        },
        {
          "name": "E4",
          "midi": 64,
          "time": 9.223210967773438,
          "velocity": 0.3937007874015748,
          "duration": 0.13333539941406158
        },
        {
          "name": "D5",
          "midi": 74,
          "time": 9.458508731445312,
          "velocity": 0.3937007874015748,
          "duration": 0.08489174218749973
        },
        {
          "name": "D4",
          "midi": 62,
          "time": 9.458508731445312,
          "velocity": 0.3937007874015748,
          "duration": 0.08489174218749973
        },
        {
          "name": "C5",
          "midi": 72,
          "time": 9.685501868164062,
          "velocity": 0.3937007874015748,
          "duration": 0.23529776367187516
        },
        {
          "name": "C4",
          "midi": 60,
          "time": 9.685501868164062,
          "velocity": 0.3937007874015748,
          "duration": 0.2634412216796882
        },
        {
          "name": "D5",
          "midi": 74,
          "time": 9.921261,
          "velocity": 0.3937007874015748,
          "duration": 0.25006154492187527
        },
        {
          "name": "A#4",
          "midi": 70,
          "time": 9.921261,
          "velocity": 0.3937007874015748,
          "duration": 0.2782050029296883
        },
        {
          "name": "C5",
          "midi": 72,
          "time": 10.171783913085937,
          "velocity": 0.3937007874015748,
          "duration": 0.23160681835937602
        },
        {
          "name": "A4",
          "midi": 69,
          "time": 10.171783913085937,
          "velocity": 0.3937007874015748,
          "duration": 0.25975027636718906
        },
        {
          "name": "A#4",
          "midi": 70,
          "time": 10.403852099609376,
          "velocity": 0.3937007874015748,
          "duration": 0.23622049999999994
        },
        {
          "name": "G4",
          "midi": 67,
          "time": 10.403852099609376,
          "velocity": 0.3937007874015748,
          "duration": 0.264363958007813
        },
        {
          "name": "A4",
          "midi": 69,
          "time": 10.640533967773438,
          "velocity": 0.3937007874015748,
          "duration": 0.23483639550781277
        },
        {
          "name": "F4",
          "midi": 65,
          "time": 10.640533967773438,
          "velocity": 0.3937007874015748,
          "duration": 0.2629798535156258
        },
        {
          "name": "D5",
          "midi": 74,
          "time": 10.875831731445313,
          "velocity": 0.3937007874015748,
          "duration": 0.22653176855468793
        },
        {
          "name": "G4",
          "midi": 67,
          "time": 10.875831731445313,
          "velocity": 0.3937007874015748,
          "duration": 0.25467522656250097
        },
        {
          "name": "F5",
          "midi": 77,
          "time": 11.102824868164063,
          "velocity": 0.3937007874015748,
          "duration": 0.23529776367187694
        },
        {
          "name": "A4",
          "midi": 69,
          "time": 11.102824868164063,
          "velocity": 0.3937007874015748,
          "duration": 0.19977241503906384
        },
        {
          "name": "G5",
          "midi": 79,
          "time": 11.338584000000003,
          "velocity": 0.3937007874015748,
          "duration": 0.3663263222656248
        },
        {
          "name": "G4",
          "midi": 67,
          "time": 11.338584000000003,
          "velocity": 0.3937007874015748,
          "duration": 0.3663263222656248
        },
        {
          "name": "A#4",
          "midi": 70,
          "time": 11.338584000000003,
          "velocity": 0.3937007874015748,
          "duration": 0.3663263222656248
        },
        {
          "name": "D4",
          "midi": 62,
          "time": 11.70537169042969,
          "velocity": 0.3937007874015748,
          "duration": 0.09042816015625021
        },
        {
          "name": "D5",
          "midi": 74,
          "time": 11.70537169042969,
          "velocity": 0.3937007874015748,
          "duration": 0.09042816015625021
        },
        {
          "name": "A#4",
          "midi": 70,
          "time": 11.70537169042969,
          "velocity": 0.3937007874015748,
          "duration": 0.09042816015625021
        },
        {
          "name": "F4",
          "midi": 65,
          "time": 11.93790124511719,
          "velocity": 0.3937007874015748,
          "duration": 0.13333539941406336
        },
        {
          "name": "F5",
          "midi": 77,
          "time": 11.93790124511719,
          "velocity": 0.3937007874015748,
          "duration": 0.11949435449218804
        },
        {
          "name": "G4",
          "midi": 67,
          "time": 11.93790124511719,
          "velocity": 0.3937007874015748,
          "duration": 0.11949435449218804
        },
        {
          "name": "E4",
          "midi": 64,
          "time": 12.057856967773441,
          "velocity": 0.3937007874015748,
          "duration": 0.13333539941406158
        },
        {
          "name": "E5",
          "midi": 76,
          "time": 12.057856967773441,
          "velocity": 0.3937007874015748,
          "duration": 0.09319636914062457
        },
        {
          "name": "A#4",
          "midi": 70,
          "time": 12.057856967773441,
          "velocity": 0.3937007874015748,
          "duration": 0.09319636914062457
        },
        {
          "name": "C4",
          "midi": 60,
          "time": 12.293154731445314,
          "velocity": 0.3937007874015748,
          "duration": 0.08489174218749973
        },
        {
          "name": "C5",
          "midi": 72,
          "time": 12.293154731445314,
          "velocity": 0.3937007874015748,
          "duration": 0.08489174218749973
        },
        {
          "name": "G4",
          "midi": 67,
          "time": 12.293154731445314,
          "velocity": 0.3937007874015748,
          "duration": 0.08489174218749973
        },
        {
          "name": "D4",
          "midi": 62,
          "time": 12.520147868164065,
          "velocity": 0.3937007874015748,
          "duration": 0.2634412216796882
        },
        {
          "name": "D5",
          "midi": 74,
          "time": 12.520147868164065,
          "velocity": 0.3937007874015748,
          "duration": 0.23529776367187516
        },
        {
          "name": "A#4",
          "midi": 70,
          "time": 12.520147868164065,
          "velocity": 0.3937007874015748,
          "duration": 0.23529776367187516
        },
        {
          "name": "G4",
          "midi": 67,
          "time": 12.755907000000002,
          "velocity": 0.3937007874015748,
          "duration": 0.3446420185546888
        },
        {
          "name": "G5",
          "midi": 79,
          "time": 12.755907000000002,
          "velocity": 0.3937007874015748,
          "duration": 0.36632632226562656
        },
        {
          "name": "A#4",
          "midi": 70,
          "time": 12.755907000000002,
          "velocity": 0.3937007874015748,
          "duration": 0.36632632226562656
        },
        {
          "name": "D4",
          "midi": 62,
          "time": 13.122694690429691,
          "velocity": 0.3937007874015748,
          "duration": 0.09042816015625021
        },
        {
          "name": "D5",
          "midi": 74,
          "time": 13.122694690429691,
          "velocity": 0.3937007874015748,
          "duration": 0.09042816015625021
        },
        {
          "name": "A#4",
          "midi": 70,
          "time": 13.122694690429691,
          "velocity": 0.3937007874015748,
          "duration": 0.09042816015625021
        },
        {
          "name": "F4",
          "midi": 65,
          "time": 13.355224245117192,
          "velocity": 0.3937007874015748,
          "duration": 0.13333539941406336
        },
        {
          "name": "F5",
          "midi": 77,
          "time": 13.355224245117192,
          "velocity": 0.3937007874015748,
          "duration": 0.11949435449218804
        },
        {
          "name": "G4",
          "midi": 67,
          "time": 13.355224245117192,
          "velocity": 0.3937007874015748,
          "duration": 0.11949435449218804
        },
        {
          "name": "E4",
          "midi": 64,
          "time": 13.475179967773443,
          "velocity": 0.3937007874015748,
          "duration": 0.13333539941406158
        },
        {
          "name": "E5",
          "midi": 76,
          "time": 13.475179967773443,
          "velocity": 0.3937007874015748,
          "duration": 0.09319636914062457
        },
        {
          "name": "C5",
          "midi": 72,
          "time": 13.475179967773443,
          "velocity": 0.3937007874015748,
          "duration": 0.09319636914062457
        },
        {
          "name": "C4",
          "midi": 60,
          "time": 13.710477731445316,
          "velocity": 0.3937007874015748,
          "duration": 0.08489174218749973
        },
        {
          "name": "C5",
          "midi": 72,
          "time": 13.710477731445316,
          "velocity": 0.3937007874015748,
          "duration": 0.08489174218749973
        },
        {
          "name": "G4",
          "midi": 67,
          "time": 13.710477731445316,
          "velocity": 0.3937007874015748,
          "duration": 0.08489174218749973
        },
        {
          "name": "D4",
          "midi": 62,
          "time": 13.937470868164066,
          "velocity": 0.3937007874015748,
          "duration": 0.2634412216796882
        },
        {
          "name": "D5",
          "midi": 74,
          "time": 13.937470868164066,
          "velocity": 0.3937007874015748,
          "duration": 0.23529776367187516
        },
        {
          "name": "A#4",
          "midi": 70,
          "time": 13.937470868164066,
          "velocity": 0.3937007874015748,
          "duration": 0.23529776367187516
        },
        {
          "name": "G4",
          "midi": 67,
          "time": 14.173230000000004,
          "velocity": 0.3937007874015748,
          "duration": 0.3446420185546888
        },
        {
          "name": "G5",
          "midi": 79,
          "time": 14.173230000000004,
          "velocity": 0.3937007874015748,
          "duration": 0.36632632226562656
        },
        {
          "name": "A#4",
          "midi": 70,
          "time": 14.173230000000004,
          "velocity": 0.3937007874015748,
          "duration": 0.36632632226562656
        },
        {
          "name": "D4",
          "midi": 62,
          "time": 14.540017690429693,
          "velocity": 0.3937007874015748,
          "duration": 0.09042816015625021
        },
        {
          "name": "D5",
          "midi": 74,
          "time": 14.540017690429693,
          "velocity": 0.3937007874015748,
          "duration": 0.09042816015625021
        },
        {
          "name": "A#4",
          "midi": 70,
          "time": 14.540017690429693,
          "velocity": 0.3937007874015748,
          "duration": 0.09042816015625021
        },
        {
          "name": "F4",
          "midi": 65,
          "time": 14.772547245117194,
          "velocity": 0.3937007874015748,
          "duration": 0.13333539941406336
        },
        {
          "name": "F5",
          "midi": 77,
          "time": 14.772547245117194,
          "velocity": 0.3937007874015748,
          "duration": 0.11949435449218804
        },
        {
          "name": "G4",
          "midi": 67,
          "time": 14.772547245117194,
          "velocity": 0.3937007874015748,
          "duration": 0.11949435449218804
        },
        {
          "name": "E4",
          "midi": 64,
          "time": 14.892502967773444,
          "velocity": 0.3937007874015748,
          "duration": 0.13333539941406158
        },
        {
          "name": "E5",
          "midi": 76,
          "time": 14.892502967773444,
          "velocity": 0.3937007874015748,
          "duration": 0.09319636914062457
        },
        {
          "name": "D5",
          "midi": 74,
          "time": 14.892502967773444,
          "velocity": 0.3937007874015748,
          "duration": 0.09319636914062457
        },
        {
          "name": "D4",
          "midi": 62,
          "time": 15.127800731445317,
          "velocity": 0.3937007874015748,
          "duration": 0.08489174218749973
        },
        {
          "name": "D5",
          "midi": 74,
          "time": 15.127800731445317,
          "velocity": 0.3937007874015748,
          "duration": 0.08489174218749973
        },
        {
          "name": "G4",
          "midi": 67,
          "time": 15.127800731445317,
          "velocity": 0.3937007874015748,
          "duration": 0.08489174218749973
        },
        {
          "name": "C4",
          "midi": 60,
          "time": 15.354793868164068,
          "velocity": 0.3937007874015748,
          "duration": 0.2634412216796882
        },
        {
          "name": "C5",
          "midi": 72,
          "time": 15.354793868164068,
          "velocity": 0.3937007874015748,
          "duration": 0.23529776367187516
        },
        {
          "name": "A4",
          "midi": 69,
          "time": 15.354793868164068,
          "velocity": 0.3937007874015748,
          "duration": 0.23529776367187516
        },
        {
          "name": "A#4",
          "midi": 70,
          "time": 15.590553000000005,
          "velocity": 0.3937007874015748,
          "duration": 0.2782050029296883
        },
        {
          "name": "D5",
          "midi": 74,
          "time": 15.590553000000005,
          "velocity": 0.3937007874015748,
          "duration": 0.25006154492187527
        },
        {
          "name": "A4",
          "midi": 69,
          "time": 15.841075913085943,
          "velocity": 0.3937007874015748,
          "duration": 0.25975027636719084
        },
        {
          "name": "C5",
          "midi": 72,
          "time": 15.841075913085943,
          "velocity": 0.3937007874015748,
          "duration": 0.23160681835937602
        },
        {
          "name": "G4",
          "midi": 67,
          "time": 16.073144099609383,
          "velocity": 0.3937007874015748,
          "duration": 0.26436395800781654
        },
        {
          "name": "A#4",
          "midi": 70,
          "time": 16.073144099609383,
          "velocity": 0.3937007874015748,
          "duration": 0.23622050000000172
        },
        {
          "name": "F4",
          "midi": 65,
          "time": 16.30982596777345,
          "velocity": 0.3937007874015748,
          "duration": 0.2629798535156276
        },
        {
          "name": "A4",
          "midi": 69,
          "time": 16.30982596777345,
          "velocity": 0.3937007874015748,
          "duration": 0.23483639550781277
        },
        {
          "name": "G4",
          "midi": 67,
          "time": 16.545123731445326,
          "velocity": 0.3937007874015748,
          "duration": 0.2546752265625045
        },
        {
          "name": "D5",
          "midi": 74,
          "time": 16.545123731445326,
          "velocity": 0.3937007874015748,
          "duration": 0.2265317685546897
        },
        {
          "name": "A4",
          "midi": 69,
          "time": 16.77211686816408,
          "velocity": 0.3937007874015748,
          "duration": 0.26344122167969175
        },
        {
          "name": "F5",
          "midi": 77,
          "time": 16.77211686816408,
          "velocity": 0.3937007874015748,
          "duration": 0.23529776367187694
        },
        {
          "name": "G5",
          "midi": 79,
          "time": 17.00787600000002,
          "velocity": 0.3937007874015748,
          "duration": 0.3663263222656248
        },
        {
          "name": "G4",
          "midi": 67,
          "time": 17.00787600000002,
          "velocity": 0.3937007874015748,
          "duration": 0.3663263222656248
        },
        {
          "name": "A#4",
          "midi": 70,
          "time": 17.00787600000002,
          "velocity": 0.3937007874015748,
          "duration": 0.3663263222656248
        },
        {
          "name": "D4",
          "midi": 62,
          "time": 17.37466369042971,
          "velocity": 0.3937007874015748,
          "duration": 0.09042816015625021
        },
        {
          "name": "D5",
          "midi": 74,
          "time": 17.37466369042971,
          "velocity": 0.3937007874015748,
          "duration": 0.09042816015625021
        },
        {
          "name": "A#4",
          "midi": 70,
          "time": 17.37466369042971,
          "velocity": 0.3937007874015748,
          "duration": 0.09042816015625021
        },
        {
          "name": "F4",
          "midi": 65,
          "time": 17.60719324511721,
          "velocity": 0.3937007874015748,
          "duration": 0.13333539941406158
        },
        {
          "name": "F5",
          "midi": 77,
          "time": 17.60719324511721,
          "velocity": 0.3937007874015748,
          "duration": 0.11949435449218626
        },
        {
          "name": "G4",
          "midi": 67,
          "time": 17.60719324511721,
          "velocity": 0.3937007874015748,
          "duration": 0.11949435449218626
        },
        {
          "name": "E4",
          "midi": 64,
          "time": 17.72714896777346,
          "velocity": 0.3937007874015748,
          "duration": 0.13333539941406158
        },
        {
          "name": "E5",
          "midi": 76,
          "time": 17.72714896777346,
          "velocity": 0.3937007874015748,
          "duration": 0.09319636914062457
        },
        {
          "name": "A#4",
          "midi": 70,
          "time": 17.72714896777346,
          "velocity": 0.3937007874015748,
          "duration": 0.09319636914062457
        },
        {
          "name": "C4",
          "midi": 60,
          "time": 17.962446731445333,
          "velocity": 0.3937007874015748,
          "duration": 0.0848917421875015
        },
        {
          "name": "C5",
          "midi": 72,
          "time": 17.962446731445333,
          "velocity": 0.3937007874015748,
          "duration": 0.0848917421875015
        },
        {
          "name": "G4",
          "midi": 67,
          "time": 17.962446731445333,
          "velocity": 0.3937007874015748,
          "duration": 0.0848917421875015
        },
        {
          "name": "D4",
          "midi": 62,
          "time": 18.189439868164083,
          "velocity": 0.3937007874015748,
          "duration": 0.2634412216796882
        },
        {
          "name": "D5",
          "midi": 74,
          "time": 18.189439868164083,
          "velocity": 0.3937007874015748,
          "duration": 0.23529776367187338
        },
        {
          "name": "A#4",
          "midi": 70,
          "time": 18.189439868164083,
          "velocity": 0.3937007874015748,
          "duration": 0.23529776367187338
        },
        {
          "name": "G4",
          "midi": 67,
          "time": 18.42519900000002,
          "velocity": 0.3937007874015748,
          "duration": 0.344642018554687
        },
        {
          "name": "G5",
          "midi": 79,
          "time": 18.42519900000002,
          "velocity": 0.3937007874015748,
          "duration": 0.3663263222656248
        },
        {
          "name": "A#4",
          "midi": 70,
          "time": 18.42519900000002,
          "velocity": 0.3937007874015748,
          "duration": 0.3663263222656248
        },
        {
          "name": "D4",
          "midi": 62,
          "time": 18.79198669042971,
          "velocity": 0.3937007874015748,
          "duration": 0.09042816015625021
        },
        {
          "name": "D5",
          "midi": 74,
          "time": 18.79198669042971,
          "velocity": 0.3937007874015748,
          "duration": 0.09042816015625021
        },
        {
          "name": "A#4",
          "midi": 70,
          "time": 18.79198669042971,
          "velocity": 0.3937007874015748,
          "duration": 0.09042816015625021
        },
        {
          "name": "F4",
          "midi": 65,
          "time": 19.02451624511721,
          "velocity": 0.3937007874015748,
          "duration": 0.13333539941406158
        },
        {
          "name": "F5",
          "midi": 77,
          "time": 19.02451624511721,
          "velocity": 0.3937007874015748,
          "duration": 0.11949435449218626
        },
        {
          "name": "G4",
          "midi": 67,
          "time": 19.02451624511721,
          "velocity": 0.3937007874015748,
          "duration": 0.11949435449218626
        },
        {
          "name": "E4",
          "midi": 64,
          "time": 19.14447196777346,
          "velocity": 0.3937007874015748,
          "duration": 0.13333539941406158
        },
        {
          "name": "E5",
          "midi": 76,
          "time": 19.14447196777346,
          "velocity": 0.3937007874015748,
          "duration": 0.09319636914062457
        },
        {
          "name": "C5",
          "midi": 72,
          "time": 19.14447196777346,
          "velocity": 0.3937007874015748,
          "duration": 0.09319636914062457
        },
        {
          "name": "C4",
          "midi": 60,
          "time": 19.379769731445332,
          "velocity": 0.3937007874015748,
          "duration": 0.0848917421875015
        },
        {
          "name": "C5",
          "midi": 72,
          "time": 19.379769731445332,
          "velocity": 0.3937007874015748,
          "duration": 0.0848917421875015
        },
        {
          "name": "G4",
          "midi": 67,
          "time": 19.379769731445332,
          "velocity": 0.3937007874015748,
          "duration": 0.0848917421875015
        },
        {
          "name": "D4",
          "midi": 62,
          "time": 19.606762868164083,
          "velocity": 0.3937007874015748,
          "duration": 0.2634412216796882
        },
        {
          "name": "D5",
          "midi": 74,
          "time": 19.606762868164083,
          "velocity": 0.3937007874015748,
          "duration": 0.23529776367187338
        },
        {
          "name": "A#4",
          "midi": 70,
          "time": 19.606762868164083,
          "velocity": 0.3937007874015748,
          "duration": 0.23529776367187338
        },
        {
          "name": "G4",
          "midi": 67,
          "time": 19.84252200000002,
          "velocity": 0.3937007874015748,
          "duration": 0.344642018554687
        },
        {
          "name": "G5",
          "midi": 79,
          "time": 19.84252200000002,
          "velocity": 0.3937007874015748,
          "duration": 0.3663263222656248
        },
        {
          "name": "A#4",
          "midi": 70,
          "time": 19.84252200000002,
          "velocity": 0.3937007874015748,
          "duration": 0.3663263222656248
        },
        {
          "name": "D4",
          "midi": 62,
          "time": 20.20930969042971,
          "velocity": 0.3937007874015748,
          "duration": 0.09042816015625021
        },
        {
          "name": "D5",
          "midi": 74,
          "time": 20.20930969042971,
          "velocity": 0.3937007874015748,
          "duration": 0.09042816015625021
        },
        {
          "name": "A#4",
          "midi": 70,
          "time": 20.20930969042971,
          "velocity": 0.3937007874015748,
          "duration": 0.09042816015625021
        },
        {
          "name": "F4",
          "midi": 65,
          "time": 20.441839245117208,
          "velocity": 0.3937007874015748,
          "duration": 0.13333539941406158
        },
        {
          "name": "F5",
          "midi": 77,
          "time": 20.441839245117208,
          "velocity": 0.3937007874015748,
          "duration": 0.11949435449218626
        },
        {
          "name": "G4",
          "midi": 67,
          "time": 20.441839245117208,
          "velocity": 0.3937007874015748,
          "duration": 0.11949435449218626
        },
        {
          "name": "E4",
          "midi": 64,
          "time": 20.56179496777346,
          "velocity": 0.3937007874015748,
          "duration": 0.13333539941406158
        },
        {
          "name": "E5",
          "midi": 76,
          "time": 20.56179496777346,
          "velocity": 0.3937007874015748,
          "duration": 0.09319636914062457
        },
        {
          "name": "D5",
          "midi": 74,
          "time": 20.56179496777346,
          "velocity": 0.3937007874015748,
          "duration": 0.09319636914062457
        },
        {
          "name": "D4",
          "midi": 62,
          "time": 20.797092731445332,
          "velocity": 0.3937007874015748,
          "duration": 0.0848917421875015
        },
        {
          "name": "D5",
          "midi": 74,
          "time": 20.797092731445332,
          "velocity": 0.3937007874015748,
          "duration": 0.0848917421875015
        },
        {
          "name": "G4",
          "midi": 67,
          "time": 20.797092731445332,
          "velocity": 0.3937007874015748,
          "duration": 0.0848917421875015
        },
        {
          "name": "C4",
          "midi": 60,
          "time": 21.024085868164082,
          "velocity": 0.3937007874015748,
          "duration": 0.2634412216796882
        },
        {
          "name": "C5",
          "midi": 72,
          "time": 21.024085868164082,
          "velocity": 0.3937007874015748,
          "duration": 0.23529776367187338
        },
        {
          "name": "A4",
          "midi": 69,
          "time": 21.024085868164082,
          "velocity": 0.3937007874015748,
          "duration": 0.23529776367187338
        },
        {
          "name": "A#4",
          "midi": 70,
          "time": 21.25984500000002,
          "velocity": 0.3937007874015748,
          "duration": 0.27820500292969186
        },
        {
          "name": "D5",
          "midi": 74,
          "time": 21.25984500000002,
          "velocity": 0.3937007874015748,
          "duration": 0.25006154492187704
        },
        {
          "name": "A4",
          "midi": 69,
          "time": 21.51036791308596,
          "velocity": 0.3937007874015748,
          "duration": 0.25975027636718906
        },
        {
          "name": "C5",
          "midi": 72,
          "time": 21.51036791308596,
          "velocity": 0.3937007874015748,
          "duration": 0.23160681835937424
        },
        {
          "name": "G4",
          "midi": 67,
          "time": 21.7424360996094,
          "velocity": 0.3937007874015748,
          "duration": 0.26436395800781654
        },
        {
          "name": "A#4",
          "midi": 70,
          "time": 21.7424360996094,
          "velocity": 0.3937007874015748,
          "duration": 0.23622050000000172
        },
        {
          "name": "F4",
          "midi": 65,
          "time": 21.979117967773465,
          "velocity": 0.3937007874015748,
          "duration": 0.2629798535156276
        },
        {
          "name": "A4",
          "midi": 69,
          "time": 21.979117967773465,
          "velocity": 0.3937007874015748,
          "duration": 0.23483639550781277
        },
        {
          "name": "G4",
          "midi": 67,
          "time": 22.214415731445342,
          "velocity": 0.3937007874015748,
          "duration": 0.2546752265625045
        },
        {
          "name": "D5",
          "midi": 74,
          "time": 22.214415731445342,
          "velocity": 0.3937007874015748,
          "duration": 0.2265317685546897
        },
        {
          "name": "A4",
          "midi": 69,
          "time": 22.441408868164096,
          "velocity": 0.3937007874015748,
          "duration": 0.26344122167969175
        },
        {
          "name": "F5",
          "midi": 77,
          "time": 22.441408868164096,
          "velocity": 0.3937007874015748,
          "duration": 0.23529776367187694
        },
        {
          "name": "G#4",
          "midi": 68,
          "time": 22.677168000000037,
          "velocity": 0.3937007874015748,
          "duration": 0.3663263222656248
        },
        {
          "name": "B4",
          "midi": 71,
          "time": 22.677168000000037,
          "velocity": 0.3937007874015748,
          "duration": 0.3663263222656248
        },
        {
          "name": "G#5",
          "midi": 80,
          "time": 22.677168000000037,
          "velocity": 0.3937007874015748,
          "duration": 0.3663263222656248
        },
        {
          "name": "D#5",
          "midi": 75,
          "time": 23.043955690429726,
          "velocity": 0.3937007874015748,
          "duration": 0.09042816015625021
        },
        {
          "name": "B4",
          "midi": 71,
          "time": 23.043955690429726,
          "velocity": 0.3937007874015748,
          "duration": 0.09042816015625021
        },
        {
          "name": "D#4",
          "midi": 63,
          "time": 23.043955690429726,
          "velocity": 0.3937007874015748,
          "duration": 0.09042816015625021
        },
        {
          "name": "F#5",
          "midi": 78,
          "time": 23.276485245117225,
          "velocity": 0.3937007874015748,
          "duration": 0.11949435449218626
        },
        {
          "name": "G#4",
          "midi": 68,
          "time": 23.276485245117225,
          "velocity": 0.3937007874015748,
          "duration": 0.11949435449218626
        },
        {
          "name": "F#4",
          "midi": 66,
          "time": 23.276485245117225,
          "velocity": 0.3937007874015748,
          "duration": 0.13333539941406158
        },
        {
          "name": "F5",
          "midi": 77,
          "time": 23.396440967773476,
          "velocity": 0.3937007874015748,
          "duration": 0.09319636914062457
        },
        {
          "name": "B4",
          "midi": 71,
          "time": 23.396440967773476,
          "velocity": 0.3937007874015748,
          "duration": 0.09319636914062457
        },
        {
          "name": "F4",
          "midi": 65,
          "time": 23.396440967773476,
          "velocity": 0.3937007874015748,
          "duration": 0.13333539941406158
        },
        {
          "name": "C#5",
          "midi": 73,
          "time": 23.63173873144535,
          "velocity": 0.3937007874015748,
          "duration": 0.0848917421875015
        },
        {
          "name": "G#4",
          "midi": 68,
          "time": 23.63173873144535,
          "velocity": 0.3937007874015748,
          "duration": 0.0848917421875015
        },
        {
          "name": "C#4",
          "midi": 61,
          "time": 23.63173873144535,
          "velocity": 0.3937007874015748,
          "duration": 0.0848917421875015
        },
        {
          "name": "D#5",
          "midi": 75,
          "time": 23.8587318681641,
          "velocity": 0.3937007874015748,
          "duration": 0.23529776367187338
        },
        {
          "name": "B4",
          "midi": 71,
          "time": 23.8587318681641,
          "velocity": 0.3937007874015748,
          "duration": 0.23529776367187338
        },
        {
          "name": "D#4",
          "midi": 63,
          "time": 23.8587318681641,
          "velocity": 0.3937007874015748,
          "duration": 0.2634412216796882
        },
        {
          "name": "G#5",
          "midi": 80,
          "time": 24.094491000000037,
          "velocity": 0.3937007874015748,
          "duration": 0.3663263222656248
        },
        {
          "name": "B4",
          "midi": 71,
          "time": 24.094491000000037,
          "velocity": 0.3937007874015748,
          "duration": 0.3663263222656248
        },
        {
          "name": "G#4",
          "midi": 68,
          "time": 24.094491000000037,
          "velocity": 0.3937007874015748,
          "duration": 0.344642018554687
        },
        {
          "name": "D#5",
          "midi": 75,
          "time": 24.461278690429726,
          "velocity": 0.3937007874015748,
          "duration": 0.09042816015625021
        },
        {
          "name": "B4",
          "midi": 71,
          "time": 24.461278690429726,
          "velocity": 0.3937007874015748,
          "duration": 0.09042816015625021
        },
        {
          "name": "D#4",
          "midi": 63,
          "time": 24.461278690429726,
          "velocity": 0.3937007874015748,
          "duration": 0.09042816015625021
        },
        {
          "name": "F#5",
          "midi": 78,
          "time": 24.693808245117225,
          "velocity": 0.3937007874015748,
          "duration": 0.11949435449218626
        },
        {
          "name": "G#4",
          "midi": 68,
          "time": 24.693808245117225,
          "velocity": 0.3937007874015748,
          "duration": 0.11949435449218626
        },
        {
          "name": "F#4",
          "midi": 66,
          "time": 24.693808245117225,
          "velocity": 0.3937007874015748,
          "duration": 0.13333539941406158
        },
        {
          "name": "F5",
          "midi": 77,
          "time": 24.813763967773475,
          "velocity": 0.3937007874015748,
          "duration": 0.09319636914062457
        },
        {
          "name": "C#5",
          "midi": 73,
          "time": 24.813763967773475,
          "velocity": 0.3937007874015748,
          "duration": 0.09319636914062457
        },
        {
          "name": "F4",
          "midi": 65,
          "time": 24.813763967773475,
          "velocity": 0.3937007874015748,
          "duration": 0.13333539941406158
        },
        {
          "name": "C#5",
          "midi": 73,
          "time": 25.04906173144535,
          "velocity": 0.3937007874015748,
          "duration": 0.0848917421875015
        },
        {
          "name": "G#4",
          "midi": 68,
          "time": 25.04906173144535,
          "velocity": 0.3937007874015748,
          "duration": 0.0848917421875015
        },
        {
          "name": "C#4",
          "midi": 61,
          "time": 25.04906173144535,
          "velocity": 0.3937007874015748,
          "duration": 0.0848917421875015
        },
        {
          "name": "D#5",
          "midi": 75,
          "time": 25.2760548681641,
          "velocity": 0.3937007874015748,
          "duration": 0.23529776367187338
        },
        {
          "name": "B4",
          "midi": 71,
          "time": 25.2760548681641,
          "velocity": 0.3937007874015748,
          "duration": 0.23529776367187338
        },
        {
          "name": "D#4",
          "midi": 63,
          "time": 25.2760548681641,
          "velocity": 0.3937007874015748,
          "duration": 0.2634412216796882
        },
        {
          "name": "G#5",
          "midi": 80,
          "time": 25.511814000000037,
          "velocity": 0.3937007874015748,
          "duration": 0.3663263222656248
        },
        {
          "name": "B4",
          "midi": 71,
          "time": 25.511814000000037,
          "velocity": 0.3937007874015748,
          "duration": 0.3663263222656248
        },
        {
          "name": "G#4",
          "midi": 68,
          "time": 25.511814000000037,
          "velocity": 0.3937007874015748,
          "duration": 0.344642018554687
        },
        {
          "name": "D#5",
          "midi": 75,
          "time": 25.878601690429726,
          "velocity": 0.3937007874015748,
          "duration": 0.09042816015625021
        },
        {
          "name": "B4",
          "midi": 71,
          "time": 25.878601690429726,
          "velocity": 0.3937007874015748,
          "duration": 0.09042816015625021
        },
        {
          "name": "D#4",
          "midi": 63,
          "time": 25.878601690429726,
          "velocity": 0.3937007874015748,
          "duration": 0.09042816015625021
        },
        {
          "name": "F#5",
          "midi": 78,
          "time": 26.111131245117225,
          "velocity": 0.3937007874015748,
          "duration": 0.11949435449218626
        },
        {
          "name": "G#4",
          "midi": 68,
          "time": 26.111131245117225,
          "velocity": 0.3937007874015748,
          "duration": 0.11949435449218626
        },
        {
          "name": "F#4",
          "midi": 66,
          "time": 26.111131245117225,
          "velocity": 0.3937007874015748,
          "duration": 0.13333539941406158
        },
        {
          "name": "F5",
          "midi": 77,
          "time": 26.231086967773475,
          "velocity": 0.3937007874015748,
          "duration": 0.09319636914062457
        },
        {
          "name": "D#5",
          "midi": 75,
          "time": 26.231086967773475,
          "velocity": 0.3937007874015748,
          "duration": 0.09319636914062457
        },
        {
          "name": "F4",
          "midi": 65,
          "time": 26.231086967773475,
          "velocity": 0.3937007874015748,
          "duration": 0.13333539941406158
        },
        {
          "name": "D#5",
          "midi": 75,
          "time": 26.46638473144535,
          "velocity": 0.3937007874015748,
          "duration": 0.0848917421875015
        },
        {
          "name": "G#4",
          "midi": 68,
          "time": 26.46638473144535,
          "velocity": 0.3937007874015748,
          "duration": 0.0848917421875015
        },
        {
          "name": "D#4",
          "midi": 63,
          "time": 26.46638473144535,
          "velocity": 0.3937007874015748,
          "duration": 0.0848917421875015
        },
        {
          "name": "C#5",
          "midi": 73,
          "time": 26.6933778681641,
          "velocity": 0.3937007874015748,
          "duration": 0.23529776367187338
        },
        {
          "name": "B4",
          "midi": 71,
          "time": 26.6933778681641,
          "velocity": 0.3937007874015748,
          "duration": 0.23529776367187338
        },
        {
          "name": "C#4",
          "midi": 61,
          "time": 26.6933778681641,
          "velocity": 0.3937007874015748,
          "duration": 0.2634412216796882
        },
        {
          "name": "D#5",
          "midi": 75,
          "time": 26.929137000000036,
          "velocity": 0.3937007874015748,
          "duration": 0.25006154492187704
        },
        {
          "name": "B4",
          "midi": 71,
          "time": 26.929137000000036,
          "velocity": 0.3937007874015748,
          "duration": 0.27820500292969186
        },
        {
          "name": "C#5",
          "midi": 73,
          "time": 27.179659913085978,
          "velocity": 0.3937007874015748,
          "duration": 0.23160681835937424
        },
        {
          "name": "A#4",
          "midi": 70,
          "time": 27.179659913085978,
          "velocity": 0.3937007874015748,
          "duration": 0.25975027636718906
        },
        {
          "name": "B4",
          "midi": 71,
          "time": 27.411728099609416,
          "velocity": 0.3937007874015748,
          "duration": 0.23622050000000172
        },
        {
          "name": "G#4",
          "midi": 68,
          "time": 27.411728099609416,
          "velocity": 0.3937007874015748,
          "duration": 0.26436395800781654
        },
        {
          "name": "A#4",
          "midi": 70,
          "time": 27.648409967773482,
          "velocity": 0.3937007874015748,
          "duration": 0.23483639550781277
        },
        {
          "name": "F#4",
          "midi": 66,
          "time": 27.648409967773482,
          "velocity": 0.3937007874015748,
          "duration": 0.2629798535156276
        },
        {
          "name": "D#5",
          "midi": 75,
          "time": 27.88370773144536,
          "velocity": 0.3937007874015748,
          "duration": 0.2265317685546897
        },
        {
          "name": "G#4",
          "midi": 68,
          "time": 27.88370773144536,
          "velocity": 0.3937007874015748,
          "duration": 0.2546752265625045
        },
        {
          "name": "F#5",
          "midi": 78,
          "time": 28.110700868164113,
          "velocity": 0.3937007874015748,
          "duration": 0.23529776367187694
        },
        {
          "name": "A#4",
          "midi": 70,
          "time": 28.110700868164113,
          "velocity": 0.3937007874015748,
          "duration": 0.26344122167969175
        },
        {
          "name": "G#4",
          "midi": 68,
          "time": 28.346460000000054,
          "velocity": 0.3937007874015748,
          "duration": 0.3663263222656248
        },
        {
          "name": "B4",
          "midi": 71,
          "time": 28.346460000000054,
          "velocity": 0.3937007874015748,
          "duration": 0.3663263222656248
        },
        {
          "name": "G#5",
          "midi": 80,
          "time": 28.346460000000054,
          "velocity": 0.3937007874015748,
          "duration": 0.3663263222656248
        },
        {
          "name": "D#5",
          "midi": 75,
          "time": 28.713247690429743,
          "velocity": 0.3937007874015748,
          "duration": 0.09042816015625021
        },
        {
          "name": "B4",
          "midi": 71,
          "time": 28.713247690429743,
          "velocity": 0.3937007874015748,
          "duration": 0.09042816015625021
        },
        {
          "name": "D#4",
          "midi": 63,
          "time": 28.713247690429743,
          "velocity": 0.3937007874015748,
          "duration": 0.09042816015625021
        },
        {
          "name": "F#5",
          "midi": 78,
          "time": 28.94577724511724,
          "velocity": 0.3937007874015748,
          "duration": 0.11949435449218626
        },
        {
          "name": "G#4",
          "midi": 68,
          "time": 28.94577724511724,
          "velocity": 0.3937007874015748,
          "duration": 0.11949435449218626
        },
        {
          "name": "F#4",
          "midi": 66,
          "time": 28.94577724511724,
          "velocity": 0.3937007874015748,
          "duration": 0.13333539941406158
        },
        {
          "name": "F5",
          "midi": 77,
          "time": 29.065732967773492,
          "velocity": 0.3937007874015748,
          "duration": 0.09319636914062457
        },
        {
          "name": "B4",
          "midi": 71,
          "time": 29.065732967773492,
          "velocity": 0.3937007874015748,
          "duration": 0.09319636914062457
        },
        {
          "name": "F4",
          "midi": 65,
          "time": 29.065732967773492,
          "velocity": 0.3937007874015748,
          "duration": 0.13333539941406158
        },
        {
          "name": "C#5",
          "midi": 73,
          "time": 29.301030731445366,
          "velocity": 0.3937007874015748,
          "duration": 0.0848917421875015
        },
        {
          "name": "G#4",
          "midi": 68,
          "time": 29.301030731445366,
          "velocity": 0.3937007874015748,
          "duration": 0.0848917421875015
        },
        {
          "name": "C#4",
          "midi": 61,
          "time": 29.301030731445366,
          "velocity": 0.3937007874015748,
          "duration": 0.0848917421875015
        },
        {
          "name": "D#5",
          "midi": 75,
          "time": 29.528023868164116,
          "velocity": 0.3937007874015748,
          "duration": 0.23529776367187338
        },
        {
          "name": "B4",
          "midi": 71,
          "time": 29.528023868164116,
          "velocity": 0.3937007874015748,
          "duration": 0.23529776367187338
        },
        {
          "name": "D#4",
          "midi": 63,
          "time": 29.528023868164116,
          "velocity": 0.3937007874015748,
          "duration": 0.2634412216796882
        },
        {
          "name": "G#5",
          "midi": 80,
          "time": 29.763783000000053,
          "velocity": 0.3937007874015748,
          "duration": 0.3663263222656248
        },
        {
          "name": "B4",
          "midi": 71,
          "time": 29.763783000000053,
          "velocity": 0.3937007874015748,
          "duration": 0.3663263222656248
        },
        {
          "name": "G#4",
          "midi": 68,
          "time": 29.763783000000053,
          "velocity": 0.3937007874015748,
          "duration": 0.344642018554687
        },
        {
          "name": "D#5",
          "midi": 75,
          "time": 30.130570690429742,
          "velocity": 0.3937007874015748,
          "duration": 0.09042816015625021
        },
        {
          "name": "B4",
          "midi": 71,
          "time": 30.130570690429742,
          "velocity": 0.3937007874015748,
          "duration": 0.09042816015625021
        },
        {
          "name": "D#4",
          "midi": 63,
          "time": 30.130570690429742,
          "velocity": 0.3937007874015748,
          "duration": 0.09042816015625021
        },
        {
          "name": "F#5",
          "midi": 78,
          "time": 30.36310024511724,
          "velocity": 0.3937007874015748,
          "duration": 0.11949435449218626
        },
        {
          "name": "G#4",
          "midi": 68,
          "time": 30.36310024511724,
          "velocity": 0.3937007874015748,
          "duration": 0.11949435449218626
        },
        {
          "name": "F#4",
          "midi": 66,
          "time": 30.36310024511724,
          "velocity": 0.3937007874015748,
          "duration": 0.13333539941406158
        },
        {
          "name": "F5",
          "midi": 77,
          "time": 30.483055967773492,
          "velocity": 0.3937007874015748,
          "duration": 0.09319636914062457
        },
        {
          "name": "C#5",
          "midi": 73,
          "time": 30.483055967773492,
          "velocity": 0.3937007874015748,
          "duration": 0.09319636914062457
        },
        {
          "name": "F4",
          "midi": 65,
          "time": 30.483055967773492,
          "velocity": 0.3937007874015748,
          "duration": 0.13333539941406158
        },
        {
          "name": "C#5",
          "midi": 73,
          "time": 30.718353731445365,
          "velocity": 0.3937007874015748,
          "duration": 0.0848917421875015
        },
        {
          "name": "G#4",
          "midi": 68,
          "time": 30.718353731445365,
          "velocity": 0.3937007874015748,
          "duration": 0.0848917421875015
        },
        {
          "name": "C#4",
          "midi": 61,
          "time": 30.718353731445365,
          "velocity": 0.3937007874015748,
          "duration": 0.0848917421875015
        },
        {
          "name": "D#5",
          "midi": 75,
          "time": 30.945346868164116,
          "velocity": 0.3937007874015748,
          "duration": 0.23529776367187338
        },
        {
          "name": "B4",
          "midi": 71,
          "time": 30.945346868164116,
          "velocity": 0.3937007874015748,
          "duration": 0.23529776367187338
        },
        {
          "name": "D#4",
          "midi": 63,
          "time": 30.945346868164116,
          "velocity": 0.3937007874015748,
          "duration": 0.2634412216796882
        },
        {
          "name": "G#5",
          "midi": 80,
          "time": 31.181106000000053,
          "velocity": 0.3937007874015748,
          "duration": 0.3663263222656248
        },
        {
          "name": "B4",
          "midi": 71,
          "time": 31.181106000000053,
          "velocity": 0.3937007874015748,
          "duration": 0.3663263222656248
        },
        {
          "name": "G#4",
          "midi": 68,
          "time": 31.181106000000053,
          "velocity": 0.3937007874015748,
          "duration": 0.344642018554687
        },
        {
          "name": "D#5",
          "midi": 75,
          "time": 31.547893690429742,
          "velocity": 0.3937007874015748,
          "duration": 0.09042816015625021
        },
        {
          "name": "B4",
          "midi": 71,
          "time": 31.547893690429742,
          "velocity": 0.3937007874015748,
          "duration": 0.09042816015625021
        },
        {
          "name": "D#4",
          "midi": 63,
          "time": 31.547893690429742,
          "velocity": 0.3937007874015748,
          "duration": 0.09042816015625021
        },
        {
          "name": "F#5",
          "midi": 78,
          "time": 31.78042324511724,
          "velocity": 0.3937007874015748,
          "duration": 0.11949435449218626
        },
        {
          "name": "G#4",
          "midi": 68,
          "time": 31.78042324511724,
          "velocity": 0.3937007874015748,
          "duration": 0.11949435449218626
        },
        {
          "name": "F#4",
          "midi": 66,
          "time": 31.78042324511724,
          "velocity": 0.3937007874015748,
          "duration": 0.13333539941406158
        },
        {
          "name": "F5",
          "midi": 77,
          "time": 31.90037896777349,
          "velocity": 0.3937007874015748,
          "duration": 0.09319636914062457
        },
        {
          "name": "D#5",
          "midi": 75,
          "time": 31.90037896777349,
          "velocity": 0.3937007874015748,
          "duration": 0.09319636914062457
        },
        {
          "name": "F4",
          "midi": 65,
          "time": 31.90037896777349,
          "velocity": 0.3937007874015748,
          "duration": 0.13333539941406514
        },
        {
          "name": "D#5",
          "midi": 75,
          "time": 32.13567673144537,
          "velocity": 0.3937007874015748,
          "duration": 0.0848917421875015
        },
        {
          "name": "G#4",
          "midi": 68,
          "time": 32.13567673144537,
          "velocity": 0.3937007874015748,
          "duration": 0.0848917421875015
        },
        {
          "name": "D#4",
          "midi": 63,
          "time": 32.13567673144537,
          "velocity": 0.3937007874015748,
          "duration": 0.0848917421875015
        },
        {
          "name": "C#5",
          "midi": 73,
          "time": 32.362669868164126,
          "velocity": 0.3937007874015748,
          "duration": 0.23529776367187338
        },
        {
          "name": "B4",
          "midi": 71,
          "time": 32.362669868164126,
          "velocity": 0.3937007874015748,
          "duration": 0.23529776367187338
        },
        {
          "name": "C#4",
          "midi": 61,
          "time": 32.362669868164126,
          "velocity": 0.3937007874015748,
          "duration": 0.26344122167968465
        },
        {
          "name": "D#5",
          "midi": 75,
          "time": 32.59842900000006,
          "velocity": 0.3937007874015748,
          "duration": 0.25006154492187704
        },
        {
          "name": "B4",
          "midi": 71,
          "time": 32.59842900000006,
          "velocity": 0.3937007874015748,
          "duration": 0.2782050029296883
        },
        {
          "name": "C#5",
          "midi": 73,
          "time": 32.848951913086,
          "velocity": 0.3937007874015748,
          "duration": 0.23160681835937424
        },
        {
          "name": "A#4",
          "midi": 70,
          "time": 32.848951913086,
          "velocity": 0.3937007874015748,
          "duration": 0.2597502763671855
        },
        {
          "name": "B4",
          "midi": 71,
          "time": 33.08102009960943,
          "velocity": 0.3937007874015748,
          "duration": 0.23622050000000172
        },
        {
          "name": "G#4",
          "midi": 68,
          "time": 33.08102009960943,
          "velocity": 0.3937007874015748,
          "duration": 0.264363958007813
        },
        {
          "name": "A#4",
          "midi": 70,
          "time": 33.317701967773495,
          "velocity": 0.3937007874015748,
          "duration": 0.23483639550781277
        },
        {
          "name": "F#4",
          "midi": 66,
          "time": 33.317701967773495,
          "velocity": 0.3937007874015748,
          "duration": 0.26297985351562403
        },
        {
          "name": "D#5",
          "midi": 75,
          "time": 33.55299973144537,
          "velocity": 0.3937007874015748,
          "duration": 0.22653176855468615
        },
        {
          "name": "G#4",
          "midi": 68,
          "time": 33.55299973144537,
          "velocity": 0.3937007874015748,
          "duration": 0.2546752265624974
        },
        {
          "name": "F#5",
          "midi": 78,
          "time": 33.779992868164115,
          "velocity": 0.3937007874015748,
          "duration": 0.23529776367187338
        },
        {
          "name": "A#4",
          "midi": 70,
          "time": 33.779992868164115,
          "velocity": 0.3937007874015748,
          "duration": 0.26344122167968465
        },
        {
          "name": "G#5",
          "midi": 80,
          "time": 34.01575200000005,
          "velocity": 0.3937007874015748,
          "duration": 0.22330219140624763
        },
        {
          "name": "E5",
          "midi": 76,
          "time": 34.01575200000005,
          "velocity": 0.3937007874015748,
          "duration": 0.22330219140624763
        },
        {
          "name": "E5",
          "midi": 76,
          "time": 34.25197250000004,
          "velocity": 0.3937007874015748,
          "duration": 0.22330219140624763
        },
        {
          "name": "C#5",
          "midi": 73,
          "time": 34.25197250000004,
          "velocity": 0.3937007874015748,
          "duration": 0.22330219140624763
        },
        {
          "name": "C#5",
          "midi": 73,
          "time": 34.48819300000004,
          "velocity": 0.3937007874015748,
          "duration": 0.22330219140624763
        },
        {
          "name": "A#4",
          "midi": 70,
          "time": 34.48819300000004,
          "velocity": 0.3937007874015748,
          "duration": 0.22330219140624763
        },
        {
          "name": "D#5",
          "midi": 75,
          "time": 34.72441350000003,
          "velocity": 0.3937007874015748,
          "duration": 0.22330219140624763
        },
        {
          "name": "G4",
          "midi": 67,
          "time": 34.72441350000003,
          "velocity": 0.3937007874015748,
          "duration": 0.22330219140624763
        },
        {
          "name": "G5",
          "midi": 79,
          "time": 34.96063400000003,
          "velocity": 0.3937007874015748,
          "duration": 0.22330219140624763
        },
        {
          "name": "A#4",
          "midi": 70,
          "time": 34.96063400000003,
          "velocity": 0.3937007874015748,
          "duration": 0.22330219140624763
        },
        {
          "name": "A#5",
          "midi": 82,
          "time": 35.19685450000002,
          "velocity": 0.3937007874015748,
          "duration": 0.22330219140624763
        },
        {
          "name": "D#5",
          "midi": 75,
          "time": 35.19685450000002,
          "velocity": 0.3937007874015748,
          "duration": 0.22330219140624763
        },
        {
          "name": "G#5",
          "midi": 80,
          "time": 35.43307500000002,
          "velocity": 0.3937007874015748,
          "duration": 0.22330219140624763
        },
        {
          "name": "E5",
          "midi": 76,
          "time": 35.43307500000002,
          "velocity": 0.3937007874015748,
          "duration": 0.22330219140624763
        },
        {
          "name": "E5",
          "midi": 76,
          "time": 35.66929550000001,
          "velocity": 0.3937007874015748,
          "duration": 0.22330219140624763
        },
        {
          "name": "C#5",
          "midi": 73,
          "time": 35.66929550000001,
          "velocity": 0.3937007874015748,
          "duration": 0.22330219140624763
        },
        {
          "name": "C#5",
          "midi": 73,
          "time": 35.905516000000006,
          "velocity": 0.3937007874015748,
          "duration": 0.22330219140624763
        },
        {
          "name": "A#4",
          "midi": 70,
          "time": 35.905516000000006,
          "velocity": 0.3937007874015748,
          "duration": 0.22330219140624763
        },
        {
          "name": "A#4",
          "midi": 70,
          "time": 36.1417365,
          "velocity": 0.3937007874015748,
          "duration": 0.22330219140624763
        },
        {
          "name": "G4",
          "midi": 67,
          "time": 36.1417365,
          "velocity": 0.3937007874015748,
          "duration": 0.22330219140624763
        },
        {
          "name": "D#5",
          "midi": 75,
          "time": 36.377956999999995,
          "velocity": 0.3937007874015748,
          "duration": 0.22330219140624763
        },
        {
          "name": "A#4",
          "midi": 70,
          "time": 36.377956999999995,
          "velocity": 0.3937007874015748,
          "duration": 0.22330219140624763
        },
        {
          "name": "G5",
          "midi": 79,
          "time": 36.61417749999999,
          "velocity": 0.3937007874015748,
          "duration": 0.22330219140624763
        },
        {
          "name": "D#5",
          "midi": 75,
          "time": 36.61417749999999,
          "velocity": 0.3937007874015748,
          "duration": 0.22330219140624763
        },
        {
          "name": "G#5",
          "midi": 80,
          "time": 36.850397999999984,
          "velocity": 0.3937007874015748,
          "duration": 0.11672614550781191
        },
        {
          "name": "E5",
          "midi": 76,
          "time": 36.850397999999984,
          "velocity": 0.3937007874015748,
          "duration": 0.11672614550781191
        },
        {
          "name": "E5",
          "midi": 76,
          "time": 37.086618499999986,
          "velocity": 0.3937007874015748,
          "duration": 0.11672614550781191
        },
        {
          "name": "C#5",
          "midi": 73,
          "time": 37.086618499999986,
          "velocity": 0.3937007874015748,
          "duration": 0.11672614550781191
        },
        {
          "name": "C#5",
          "midi": 73,
          "time": 37.32283899999999,
          "velocity": 0.3937007874015748,
          "duration": 0.11672614550781191
        },
        {
          "name": "G#4",
          "midi": 68,
          "time": 37.32283899999999,
          "velocity": 0.3937007874015748,
          "duration": 0.11672614550781191
        },
        {
          "name": "D#5",
          "midi": 75,
          "time": 37.55905949999999,
          "velocity": 0.3937007874015748,
          "duration": 0.17578127050781234
        },
        {
          "name": "G4",
          "midi": 67,
          "time": 37.55905949999999,
          "velocity": 0.3937007874015748,
          "duration": 0.17578127050781234
        },
        {
          "name": "D#4",
          "midi": 63,
          "time": 83.62205699999998,
          "velocity": 0.3937007874015748,
          "duration": 0.24821607226562037
        },
        {
          "name": "G#4",
          "midi": 68,
          "time": 83.98884469042967,
          "velocity": 0.3937007874015748,
          "duration": 0.10011689160155868
        },
        {
          "name": "B4",
          "midi": 71,
          "time": 84.22137424511718,
          "velocity": 0.3937007874015748,
          "duration": 0.11257383203124505
        },
        {
          "name": "G#4",
          "midi": 68,
          "time": 84.34132996777342,
          "velocity": 0.3937007874015748,
          "duration": 0.10288510058593658
        },
        {
          "name": "A#4",
          "midi": 70,
          "time": 84.5766277314453,
          "velocity": 0.3937007874015748,
          "duration": 0.106114677734368
        },
        {
          "name": "B4",
          "midi": 71,
          "time": 84.69012429980467,
          "velocity": 0.3937007874015748,
          "duration": 0.106114677734368
        },
        {
          "name": "C#5",
          "midi": 73,
          "time": 84.80362086816403,
          "velocity": 0.3937007874015748,
          "duration": 0.1084215185546924
        },
        {
          "name": "A#4",
          "midi": 70,
          "time": 84.91942427734372,
          "velocity": 0.3937007874015748,
          "duration": 0.11257383203124505
        },
        {
          "name": "B4",
          "midi": 71,
          "time": 85.03937999999997,
          "velocity": 0.3937007874015748,
          "duration": 0.24821607226562037
        },
        {
          "name": "A#4",
          "midi": 70,
          "time": 85.40616769042965,
          "velocity": 0.3937007874015748,
          "duration": 0.10011689160155868
        },
        {
          "name": "G#4",
          "midi": 68,
          "time": 85.63869724511716,
          "velocity": 0.3937007874015748,
          "duration": 0.05490281152343357
        },
        {
          "name": "F#4",
          "midi": 66,
          "time": 85.69729100195309,
          "velocity": 0.3937007874015748,
          "duration": 0.05767102050781148
        },
        {
          "name": "E4",
          "midi": 64,
          "time": 85.7586529677734,
          "velocity": 0.3937007874015748,
          "duration": 0.10288510058593658
        },
        {
          "name": "A#4",
          "midi": 70,
          "time": 85.99395073144528,
          "velocity": 0.3937007874015748,
          "duration": 0.106114677734368
        },
        {
          "name": "B4",
          "midi": 71,
          "time": 86.10744729980465,
          "velocity": 0.3937007874015748,
          "duration": 0.106114677734368
        },
        {
          "name": "C#5",
          "midi": 73,
          "time": 86.22094386816401,
          "velocity": 0.3937007874015748,
          "duration": 0.1084215185546924
        },
        {
          "name": "D#5",
          "midi": 75,
          "time": 86.3367472773437,
          "velocity": 0.3937007874015748,
          "duration": 0.11257383203124505
        },
        {
          "name": "B4",
          "midi": 71,
          "time": 86.45670299999995,
          "velocity": 0.3937007874015748,
          "duration": 0.24821607226562037
        },
        {
          "name": "A#4",
          "midi": 70,
          "time": 86.82349069042964,
          "velocity": 0.3937007874015748,
          "duration": 0.10011689160155868
        },
        {
          "name": "D#4",
          "midi": 63,
          "time": 87.05602024511714,
          "velocity": 0.3937007874015748,
          "duration": 0.11257383203124505
        },
        {
          "name": "G#4",
          "midi": 68,
          "time": 87.17597596777338,
          "velocity": 0.3937007874015748,
          "duration": 0.10288510058593658
        },
        {
          "name": "F#4",
          "midi": 66,
          "time": 87.41127373144526,
          "velocity": 0.3937007874015748,
          "duration": 0.09458047363281707
        },
        {
          "name": "E4",
          "midi": 64,
          "time": 87.63826686816402,
          "velocity": 0.3937007874015748,
          "duration": 0.1033464687500043
        },
        {
          "name": "F#4",
          "midi": 66,
          "time": 87.87402599999997,
          "velocity": 0.3937007874015748,
          "duration": 0.12641487695312037
        },
        {
          "name": "E4",
          "midi": 64,
          "time": 88.00782276757809,
          "velocity": 0.3937007874015748,
          "duration": 0.10934425488281363
        },
        {
          "name": "D#4",
          "midi": 63,
          "time": 88.1245489130859,
          "velocity": 0.3937007874015748,
          "duration": 0.10888288671874591
        },
        {
          "name": "C#4",
          "midi": 61,
          "time": 88.24081369042965,
          "velocity": 0.3937007874015748,
          "duration": 0.21822714160155954
        },
        {
          "name": "G#4",
          "midi": 68,
          "time": 88.47334324511715,
          "velocity": 0.3937007874015748,
          "duration": 0.11257383203124505
        },
        {
          "name": "D#4",
          "midi": 63,
          "time": 88.59329896777339,
          "velocity": 0.3937007874015748,
          "duration": 0.34833296386719326
        },
        {
          "name": "F#3",
          "midi": 54,
          "time": 88.94209329980465,
          "velocity": 0.3937007874015748,
          "duration": 0.106114677734368
        },
        {
          "name": "C#4",
          "midi": 61,
          "time": 89.05558986816402,
          "velocity": 0.3937007874015748,
          "duration": 0.1084215185546924
        },
        {
          "name": "E4",
          "midi": 64,
          "time": 89.17139327734371,
          "velocity": 0.3937007874015748,
          "duration": 0.11257383203124505
        },
        {
          "name": "D#4",
          "midi": 63,
          "time": 89.29134899999995,
          "velocity": 0.3937007874015748,
          "duration": 0.24821607226562037
        },
        {
          "name": "G#4",
          "midi": 68,
          "time": 89.65813669042964,
          "velocity": 0.3937007874015748,
          "duration": 0.10011689160155868
        },
        {
          "name": "B4",
          "midi": 71,
          "time": 89.89066624511715,
          "velocity": 0.3937007874015748,
          "duration": 0.11257383203124505
        },
        {
          "name": "G#4",
          "midi": 68,
          "time": 90.01062196777339,
          "velocity": 0.3937007874015748,
          "duration": 0.10288510058593658
        },
        {
          "name": "A#4",
          "midi": 70,
          "time": 90.24591973144527,
          "velocity": 0.3937007874015748,
          "duration": 0.106114677734368
        },
        {
          "name": "B4",
          "midi": 71,
          "time": 90.35941629980464,
          "velocity": 0.3937007874015748,
          "duration": 0.106114677734368
        },
        {
          "name": "C#5",
          "midi": 73,
          "time": 90.472912868164,
          "velocity": 0.3937007874015748,
          "duration": 0.1084215185546924
        },
        {
          "name": "A#4",
          "midi": 70,
          "time": 90.58871627734369,
          "velocity": 0.3937007874015748,
          "duration": 0.11257383203124505
        },
        {
          "name": "B4",
          "midi": 71,
          "time": 90.70867199999994,
          "velocity": 0.3937007874015748,
          "duration": 0.24821607226562037
        },
        {
          "name": "A#4",
          "midi": 70,
          "time": 91.07545969042962,
          "velocity": 0.3937007874015748,
          "duration": 0.10011689160155868
        },
        {
          "name": "G#4",
          "midi": 68,
          "time": 91.30798924511713,
          "velocity": 0.3937007874015748,
          "duration": 0.05490281152343357
        },
        {
          "name": "F#4",
          "midi": 66,
          "time": 91.36658300195306,
          "velocity": 0.3937007874015748,
          "duration": 0.05767102050781148
        },
        {
          "name": "E4",
          "midi": 64,
          "time": 91.42794496777337,
          "velocity": 0.3937007874015748,
          "duration": 0.10288510058593658
        },
        {
          "name": "A#4",
          "midi": 70,
          "time": 91.66324273144525,
          "velocity": 0.3937007874015748,
          "duration": 0.106114677734368
        },
        {
          "name": "B4",
          "midi": 71,
          "time": 91.77673929980462,
          "velocity": 0.3937007874015748,
          "duration": 0.106114677734368
        },
        {
          "name": "C#5",
          "midi": 73,
          "time": 91.89023586816398,
          "velocity": 0.3937007874015748,
          "duration": 0.1084215185546924
        },
        {
          "name": "D#5",
          "midi": 75,
          "time": 92.00603927734367,
          "velocity": 0.3937007874015748,
          "duration": 0.11257383203124505
        },
        {
          "name": "F#5",
          "midi": 78,
          "time": 92.12599499999992,
          "velocity": 0.3937007874015748,
          "duration": 0.24821607226562037
        },
        {
          "name": "D#5",
          "midi": 75,
          "time": 92.4927826904296,
          "velocity": 0.3937007874015748,
          "duration": 0.10011689160155868
        },
        {
          "name": "B4",
          "midi": 71,
          "time": 92.72531224511711,
          "velocity": 0.3937007874015748,
          "duration": 0.11257383203124505
        },
        {
          "name": "C#5",
          "midi": 73,
          "time": 92.84526796777335,
          "velocity": 0.3937007874015748,
          "duration": 0.22099535058593744
        },
        {
          "name": "B4",
          "midi": 71,
          "time": 93.08056573144523,
          "velocity": 0.3937007874015748,
          "duration": 0.21269072363281794
        },
        {
          "name": "A#4",
          "midi": 70,
          "time": 93.307558868164,
          "velocity": 0.3937007874015748,
          "duration": 0.22145671875000517
        },
        {
          "name": "B4",
          "midi": 71,
          "time": 93.54331799999994,
          "velocity": 0.3937007874015748,
          "duration": 0.12641487695312037
        },
        {
          "name": "A#4",
          "midi": 70,
          "time": 93.67711476757806,
          "velocity": 0.3937007874015748,
          "duration": 0.10934425488281363
        },
        {
          "name": "G#4",
          "midi": 68,
          "time": 93.79384091308587,
          "velocity": 0.3937007874015748,
          "duration": 0.10888288671874591
        },
        {
          "name": "F#4",
          "midi": 66,
          "time": 93.91010569042962,
          "velocity": 0.3937007874015748,
          "duration": 0.10011689160155868
        },
        {
          "name": "A#4",
          "midi": 70,
          "time": 94.14263524511712,
          "velocity": 0.3937007874015748,
          "duration": 0.11257383203124505
        },
        {
          "name": "G#4",
          "midi": 68,
          "time": 94.26259096777336,
          "velocity": 0.3937007874015748,
          "duration": 0.5794784140625069
        },
        {
          "name": "D4",
          "midi": 62,
          "time": 94.96064099999994,
          "velocity": 0.7874015748031497,
          "duration": 0.24821607226562037
        },
        {
          "name": "A#3",
          "midi": 58,
          "time": 94.96064099999994,
          "velocity": 0.7086614173228346,
          "duration": 0.24821607226562037
        },
        {
          "name": "G4",
          "midi": 67,
          "time": 95.32742869042963,
          "velocity": 0.7874015748031497,
          "duration": 0.09042816015625021
        },
        {
          "name": "D4",
          "midi": 62,
          "time": 95.32742869042963,
          "velocity": 0.7086614173228346,
          "duration": 0.09042816015625021
        },
        {
          "name": "A#4",
          "midi": 70,
          "time": 95.55995824511713,
          "velocity": 0.7874015748031497,
          "duration": 0.11949435449218981
        },
        {
          "name": "G4",
          "midi": 67,
          "time": 95.55995824511713,
          "velocity": 0.7086614173228346,
          "duration": 0.11949435449218981
        },
        {
          "name": "G4",
          "midi": 67,
          "time": 95.67991396777339,
          "velocity": 0.7874015748031497,
          "duration": 0.09319636914062812
        },
        {
          "name": "D4",
          "midi": 62,
          "time": 95.67991396777339,
          "velocity": 0.7086614173228346,
          "duration": 0.09319636914062812
        },
        {
          "name": "A4",
          "midi": 69,
          "time": 95.91521173144527,
          "velocity": 0.7874015748031497,
          "duration": 0.11303520019531277
        },
        {
          "name": "F4",
          "midi": 65,
          "time": 95.91521173144527,
          "velocity": 0.7086614173228346,
          "duration": 0.1268762451171881
        },
        {
          "name": "A#4",
          "midi": 70,
          "time": 96.02870829980465,
          "velocity": 0.7874015748031497,
          "duration": 0.11303520019531277
        },
        {
          "name": "G4",
          "midi": 67,
          "time": 96.02870829980465,
          "velocity": 0.7086614173228346,
          "duration": 0.1268762451171881
        },
        {
          "name": "C5",
          "midi": 72,
          "time": 96.14220486816403,
          "velocity": 0.7874015748031497,
          "duration": 0.11534204101562295
        },
        {
          "name": "A4",
          "midi": 69,
          "time": 96.14220486816403,
          "velocity": 0.7086614173228346,
          "duration": 0.11534204101562295
        },
        {
          "name": "A4",
          "midi": 69,
          "time": 96.25800827734372,
          "velocity": 0.7874015748031497,
          "duration": 0.11949435449218981
        },
        {
          "name": "F4",
          "midi": 65,
          "time": 96.25800827734372,
          "velocity": 0.7086614173228346,
          "duration": 0.13333539941406514
        },
        {
          "name": "A#4",
          "midi": 70,
          "time": 96.37796399999998,
          "velocity": 0.7874015748031497,
          "duration": 0.36632632226562123
        },
        {
          "name": "G4",
          "midi": 67,
          "time": 96.37796399999998,
          "velocity": 0.7086614173228346,
          "duration": 0.38016736718749655
        },
        {
          "name": "A4",
          "midi": 69,
          "time": 96.74475169042967,
          "velocity": 0.7874015748031497,
          "duration": 0.23206818652343486
        },
        {
          "name": "F4",
          "midi": 65,
          "time": 96.74475169042967,
          "velocity": 0.7086614173228346,
          "duration": 0.26021164453125323
        },
        {
          "name": "G4",
          "midi": 67,
          "time": 96.97728124511717,
          "velocity": 0.6929133858267716,
          "duration": 0.06505291113280975
        },
        {
          "name": "F4",
          "midi": 65,
          "time": 97.0358750019531,
          "velocity": 0.6929133858267716,
          "duration": 0.06782112011718766
        },
        {
          "name": "D#4",
          "midi": 63,
          "time": 97.09723696777341,
          "velocity": 0.7007874015748031,
          "duration": 0.09319636914062812
        },
        {
          "name": "C4",
          "midi": 60,
          "time": 97.09723696777341,
          "velocity": 0.7086614173228346,
          "duration": 0.13333539941406514
        },
        {
          "name": "A4",
          "midi": 69,
          "time": 97.33253473144529,
          "velocity": 0.7874015748031497,
          "duration": 0.11303520019531277
        },
        {
          "name": "F4",
          "midi": 65,
          "time": 97.33253473144529,
          "velocity": 0.7086614173228346,
          "duration": 0.1268762451171881
        },
        {
          "name": "A#4",
          "midi": 70,
          "time": 97.44603129980467,
          "velocity": 0.7874015748031497,
          "duration": 0.11303520019531277
        },
        {
          "name": "G4",
          "midi": 67,
          "time": 97.44603129980467,
          "velocity": 0.7086614173228346,
          "duration": 0.1268762451171881
        },
        {
          "name": "C5",
          "midi": 72,
          "time": 97.55952786816405,
          "velocity": 0.7874015748031497,
          "duration": 0.11534204101562295
        },
        {
          "name": "A4",
          "midi": 69,
          "time": 97.55952786816405,
          "velocity": 0.7086614173228346,
          "duration": 0.12918308593749828
        },
        {
          "name": "D5",
          "midi": 74,
          "time": 97.67533127734374,
          "velocity": 0.7874015748031497,
          "duration": 0.1194943544921756
        },
        {
          "name": "A#4",
          "midi": 70,
          "time": 97.67533127734374,
          "velocity": 0.7086614173228346,
          "duration": 0.1194943544921756
        },
        {
          "name": "A#4",
          "midi": 70,
          "time": 97.79528699999999,
          "velocity": 0.7874015748031497,
          "duration": 0.36632632226562123
        },
        {
          "name": "F4",
          "midi": 65,
          "time": 97.79528699999999,
          "velocity": 0.7086614173228346,
          "duration": 0.38016736718749655
        },
        {
          "name": "A4",
          "midi": 69,
          "time": 98.16207469042968,
          "velocity": 0.7874015748031497,
          "duration": 0.23206818652343486
        },
        {
          "name": "D4",
          "midi": 62,
          "time": 98.16207469042968,
          "velocity": 0.7086614173228346,
          "duration": 0.26021164453125323
        },
        {
          "name": "D#4",
          "midi": 63,
          "time": 98.39460424511718,
          "velocity": 0.7874015748031497,
          "duration": 0.11949435449218981
        },
        {
          "name": "A#3",
          "midi": 58,
          "time": 98.39460424511718,
          "velocity": 0.7086614173228346,
          "duration": 0.13333539941406514
        },
        {
          "name": "G4",
          "midi": 67,
          "time": 98.51455996777344,
          "velocity": 0.7007874015748031,
          "duration": 0.09319636914061391
        },
        {
          "name": "D4",
          "midi": 62,
          "time": 98.51455996777344,
          "velocity": 0.7086614173228346,
          "duration": 0.13333539941405093
        },
        {
          "name": "F4",
          "midi": 65,
          "time": 98.7498577314453,
          "velocity": 0.7874015748031497,
          "duration": 0.0848917421874944
        },
        {
          "name": "C4",
          "midi": 60,
          "time": 98.7498577314453,
          "velocity": 0.7086614173228346,
          "duration": 0.0848917421874944
        },
        {
          "name": "D#4",
          "midi": 63,
          "time": 98.97685086816405,
          "velocity": 0.7874015748031497,
          "duration": 0.09365773730468163
        },
        {
          "name": "A#3",
          "midi": 58,
          "time": 98.97685086816405,
          "velocity": 0.7086614173228346,
          "duration": 0.09365773730468163
        },
        {
          "name": "F4",
          "midi": 65,
          "time": 99.21260999999998,
          "velocity": 0.7874015748031497,
          "duration": 0.13333539941406514
        },
        {
          "name": "C4",
          "midi": 60,
          "time": 99.21260999999998,
          "velocity": 0.7086614173228346,
          "duration": 0.13333539941406514
        },
        {
          "name": "D#4",
          "midi": 63,
          "time": 99.34640676757812,
          "velocity": 0.7874015748031497,
          "duration": 0.11626477734374419
        },
        {
          "name": "C4",
          "midi": 60,
          "time": 99.34640676757812,
          "velocity": 0.7086614173228346,
          "duration": 0.1301058222656195
        },
        {
          "name": "D4",
          "midi": 62,
          "time": 99.46313291308593,
          "velocity": 0.7874015748031497,
          "duration": 0.11580340917967646
        },
        {
          "name": "A#3",
          "midi": 58,
          "time": 99.46313291308593,
          "velocity": 0.7086614173228346,
          "duration": 0.1296444541015518
        },
        {
          "name": "C4",
          "midi": 60,
          "time": 99.57939769042967,
          "velocity": 0.7874015748031497,
          "duration": 0.23206818652343486
        },
        {
          "name": "A3",
          "midi": 57,
          "time": 99.57939769042967,
          "velocity": 0.7086614173228346,
          "duration": 0.26021164453125323
        },
        {
          "name": "G4",
          "midi": 67,
          "time": 99.81192724511718,
          "velocity": 0.7874015748031497,
          "duration": 0.11949435449218981
        },
        {
          "name": "D4",
          "midi": 62,
          "time": 99.81192724511718,
          "velocity": 0.7086614173228346,
          "duration": 0.11949435449218981
        },
        {
          "name": "D4",
          "midi": 62,
          "time": 99.93188296777343,
          "velocity": 0.7007874015748031,
          "duration": 0.34833296386719326
        },
        {
          "name": "A3",
          "midi": 57,
          "time": 99.93188296777343,
          "velocity": 0.7086614173228346,
          "duration": 0.32664866015625194
        },
        {
          "name": "F3",
          "midi": 53,
          "time": 100.2806772998047,
          "velocity": 0.6929133858267716,
          "duration": 0.1268762451171881
        },
        {
          "name": "C4",
          "midi": 60,
          "time": 100.39417386816407,
          "velocity": 0.7874015748031497,
          "duration": 0.11534204101562295
        },
        {
          "name": "A3",
          "midi": 57,
          "time": 100.39417386816407,
          "velocity": 0.7086614173228346,
          "duration": 0.12918308593749828
        },
        {
          "name": "D#4",
          "midi": 63,
          "time": 100.50997727734376,
          "velocity": 0.7874015748031497,
          "duration": 0.1194943544921756
        },
        {
          "name": "A#3",
          "midi": 58,
          "time": 100.50997727734376,
          "velocity": 0.47244094488188976,
          "duration": 0.1194943544921756
        },
        {
          "name": "D4",
          "midi": 62,
          "time": 100.62993300000001,
          "velocity": 0.7874015748031497,
          "duration": 0.24821607226562037
        },
        {
          "name": "A#3",
          "midi": 58,
          "time": 100.62993300000001,
          "velocity": 0.7086614173228346,
          "duration": 0.2620571171874957
        },
        {
          "name": "G4",
          "midi": 67,
          "time": 100.9967206904297,
          "velocity": 0.7007874015748031,
          "duration": 0.09042816015625021
        },
        {
          "name": "D4",
          "midi": 62,
          "time": 100.9967206904297,
          "velocity": 0.7086614173228346,
          "duration": 0.13056719042968723
        },
        {
          "name": "A#4",
          "midi": 70,
          "time": 101.2292502451172,
          "velocity": 0.7874015748031497,
          "duration": 0.11949435449218981
        },
        {
          "name": "G4",
          "midi": 67,
          "time": 101.2292502451172,
          "velocity": 0.7086614173228346,
          "duration": 0.11949435449218981
        },
        {
          "name": "G4",
          "midi": 67,
          "time": 101.34920596777346,
          "velocity": 0.7874015748031497,
          "duration": 0.09319636914062812
        },
        {
          "name": "D4",
          "midi": 62,
          "time": 101.34920596777346,
          "velocity": 0.7086614173228346,
          "duration": 0.09319636914062812
        },
        {
          "name": "A4",
          "midi": 69,
          "time": 101.58450373144534,
          "velocity": 0.7874015748031497,
          "duration": 0.11303520019531277
        },
        {
          "name": "F4",
          "midi": 65,
          "time": 101.58450373144534,
          "velocity": 0.7086614173228346,
          "duration": 0.1268762451171881
        },
        {
          "name": "A#4",
          "midi": 70,
          "time": 101.69800029980472,
          "velocity": 0.7874015748031497,
          "duration": 0.11303520019531277
        },
        {
          "name": "G4",
          "midi": 67,
          "time": 101.69800029980472,
          "velocity": 0.7086614173228346,
          "duration": 0.1268762451171881
        },
        {
          "name": "C5",
          "midi": 72,
          "time": 101.8114968681641,
          "velocity": 0.7874015748031497,
          "duration": 0.11534204101562295
        },
        {
          "name": "A4",
          "midi": 69,
          "time": 101.8114968681641,
          "velocity": 0.7086614173228346,
          "duration": 0.11534204101562295
        },
        {
          "name": "A4",
          "midi": 69,
          "time": 101.92730027734379,
          "velocity": 0.7874015748031497,
          "duration": 0.11949435449218981
        },
        {
          "name": "F4",
          "midi": 65,
          "time": 101.92730027734379,
          "velocity": 0.7086614173228346,
          "duration": 0.13333539941406514
        },
        {
          "name": "A#4",
          "midi": 70,
          "time": 102.04725600000005,
          "velocity": 0.7874015748031497,
          "duration": 0.36632632226562123
        },
        {
          "name": "G4",
          "midi": 67,
          "time": 102.04725600000005,
          "velocity": 0.7086614173228346,
          "duration": 0.38016736718749655
        },
        {
          "name": "A4",
          "midi": 69,
          "time": 102.41404369042974,
          "velocity": 0.7874015748031497,
          "duration": 0.23206818652343486
        },
        {
          "name": "F4",
          "midi": 65,
          "time": 102.41404369042974,
          "velocity": 0.7086614173228346,
          "duration": 0.26021164453125323
        },
        {
          "name": "G4",
          "midi": 67,
          "time": 102.64657324511724,
          "velocity": 0.6929133858267716,
          "duration": 0.06505291113280975
        },
        {
          "name": "F4",
          "midi": 65,
          "time": 102.70516700195317,
          "velocity": 0.6929133858267716,
          "duration": 0.06782112011718766
        },
        {
          "name": "D#4",
          "midi": 63,
          "time": 102.76652896777348,
          "velocity": 0.7007874015748031,
          "duration": 0.09319636914062812
        },
        {
          "name": "C4",
          "midi": 60,
          "time": 102.76652896777348,
          "velocity": 0.7086614173228346,
          "duration": 0.13333539941406514
        },
        {
          "name": "A4",
          "midi": 69,
          "time": 103.00182673144536,
          "velocity": 0.7874015748031497,
          "duration": 0.11303520019531277
        },
        {
          "name": "F4",
          "midi": 65,
          "time": 103.00182673144536,
          "velocity": 0.7086614173228346,
          "duration": 0.1268762451171881
        },
        {
          "name": "A#4",
          "midi": 70,
          "time": 103.11532329980474,
          "velocity": 0.7874015748031497,
          "duration": 0.11303520019531277
        },
        {
          "name": "G4",
          "midi": 67,
          "time": 103.11532329980474,
          "velocity": 0.7086614173228346,
          "duration": 0.1268762451171881
        },
        {
          "name": "C5",
          "midi": 72,
          "time": 103.22881986816412,
          "velocity": 0.7874015748031497,
          "duration": 0.11534204101562295
        },
        {
          "name": "A4",
          "midi": 69,
          "time": 103.22881986816412,
          "velocity": 0.7086614173228346,
          "duration": 0.12918308593749828
        },
        {
          "name": "D5",
          "midi": 74,
          "time": 103.34462327734381,
          "velocity": 0.7874015748031497,
          "duration": 0.1194943544921756
        },
        {
          "name": "A#4",
          "midi": 70,
          "time": 103.34462327734381,
          "velocity": 0.7086614173228346,
          "duration": 0.13333539941405093
        },
        {
          "name": "F5",
          "midi": 77,
          "time": 103.46457900000006,
          "velocity": 0.7874015748031497,
          "duration": 0.36632632226562123
        },
        {
          "name": "D5",
          "midi": 74,
          "time": 103.46457900000006,
          "velocity": 0.7086614173228346,
          "duration": 0.36632632226562123
        },
        {
          "name": "D5",
          "midi": 74,
          "time": 103.83136669042975,
          "velocity": 0.7874015748031497,
          "duration": 0.23206818652343486
        },
        {
          "name": "A#4",
          "midi": 70,
          "time": 103.83136669042975,
          "velocity": 0.7086614173228346,
          "duration": 0.23206818652343486
        },
        {
          "name": "A#4",
          "midi": 70,
          "time": 104.06389624511725,
          "velocity": 0.7874015748031497,
          "duration": 0.11949435449218981
        },
        {
          "name": "G4",
          "midi": 67,
          "time": 104.06389624511725,
          "velocity": 0.7086614173228346,
          "duration": 0.13333539941406514
        },
        {
          "name": "C5",
          "midi": 72,
          "time": 104.1838519677735,
          "velocity": 0.7874015748031497,
          "duration": 0.23483639550781277
        },
        {
          "name": "A4",
          "midi": 69,
          "time": 104.1838519677735,
          "velocity": 0.7086614173228346,
          "duration": 0.26297985351563113
        },
        {
          "name": "A#4",
          "midi": 70,
          "time": 104.41914973144539,
          "velocity": 0.7874015748031497,
          "duration": 0.22653176855469326
        },
        {
          "name": "G4",
          "midi": 67,
          "time": 104.41914973144539,
          "velocity": 0.7086614173228346,
          "duration": 0.2546752265625116
        },
        {
          "name": "A4",
          "midi": 69,
          "time": 104.64614286816415,
          "velocity": 0.7874015748031497,
          "duration": 0.2352977636718805
        },
        {
          "name": "F4",
          "midi": 65,
          "time": 104.64614286816415,
          "velocity": 0.7086614173228346,
          "duration": 0.26344122167969886
        },
        {
          "name": "A#4",
          "midi": 70,
          "time": 104.8819020000001,
          "velocity": 0.7874015748031497,
          "duration": 0.13333539941406514
        },
        {
          "name": "G4",
          "midi": 67,
          "time": 104.8819020000001,
          "velocity": 0.7086614173228346,
          "duration": 0.14717644433594046
        },
        {
          "name": "A4",
          "midi": 69,
          "time": 105.01569876757823,
          "velocity": 0.7874015748031497,
          "duration": 0.11626477734374419
        },
        {
          "name": "F4",
          "midi": 65,
          "time": 105.01569876757823,
          "velocity": 0.7086614173228346,
          "duration": 0.1301058222656195
        },
        {
          "name": "G4",
          "midi": 67,
          "time": 105.13242491308604,
          "velocity": 0.7874015748031497,
          "duration": 0.11580340917967646
        },
        {
          "name": "D#4",
          "midi": 63,
          "time": 105.13242491308604,
          "velocity": 0.7086614173228346,
          "duration": 0.1296444541015518
        },
        {
          "name": "F4",
          "midi": 65,
          "time": 105.24868969042979,
          "velocity": 0.7007874015748031,
          "duration": 0.09042816015625021
        },
        {
          "name": "D4",
          "midi": 62,
          "time": 105.24868969042979,
          "velocity": 0.7086614173228346,
          "duration": 0.13056719042968723
        },
        {
          "name": "A4",
          "midi": 69,
          "time": 105.48121924511729,
          "velocity": 0.7874015748031497,
          "duration": 0.1194943544921756
        },
        {
          "name": "F4",
          "midi": 65,
          "time": 105.48121924511729,
          "velocity": 0.7086614173228346,
          "duration": 0.11257383203124505
        },
        {
          "name": "G4",
          "midi": 67,
          "time": 105.60117496777353,
          "velocity": 0.7874015748031497,
          "duration": 0.6975886640624935
        },
        {
          "name": "A#3",
          "midi": 58,
          "time": 105.60117496777353,
          "velocity": 0.7086614173228346,
          "duration": 0.6975886640624935
        },
        {
          "name": "D4",
          "midi": 62,
          "time": 106.29922500000009,
          "velocity": 0.7874015748031497,
          "duration": 0.24821607226562037
        },
        {
          "name": "A#3",
          "midi": 58,
          "time": 106.29922500000009,
          "velocity": 0.7086614173228346,
          "duration": 0.24821607226562037
        },
        {
          "name": "G4",
          "midi": 67,
          "time": 106.66601269042978,
          "velocity": 0.7874015748031497,
          "duration": 0.09042816015625021
        },
        {
          "name": "D4",
          "midi": 62,
          "time": 106.66601269042978,
          "velocity": 0.7086614173228346,
          "duration": 0.09042816015625021
        },
        {
          "name": "A#4",
          "midi": 70,
          "time": 106.89854224511728,
          "velocity": 0.7874015748031497,
          "duration": 0.11949435449218981
        },
        {
          "name": "G4",
          "midi": 67,
          "time": 106.89854224511728,
          "velocity": 0.7086614173228346,
          "duration": 0.11949435449218981
        },
        {
          "name": "G4",
          "midi": 67,
          "time": 107.01849796777354,
          "velocity": 0.7874015748031497,
          "duration": 0.09319636914062812
        },
        {
          "name": "D4",
          "midi": 62,
          "time": 107.01849796777354,
          "velocity": 0.7086614173228346,
          "duration": 0.09319636914062812
        },
        {
          "name": "A4",
          "midi": 69,
          "time": 107.25379573144542,
          "velocity": 0.7874015748031497,
          "duration": 0.11303520019531277
        },
        {
          "name": "F4",
          "midi": 65,
          "time": 107.25379573144542,
          "velocity": 0.7086614173228346,
          "duration": 0.1268762451171881
        },
        {
          "name": "A#4",
          "midi": 70,
          "time": 107.3672922998048,
          "velocity": 0.7874015748031497,
          "duration": 0.11303520019531277
        },
        {
          "name": "G4",
          "midi": 67,
          "time": 107.3672922998048,
          "velocity": 0.7086614173228346,
          "duration": 0.1268762451171881
        },
        {
          "name": "C5",
          "midi": 72,
          "time": 107.48078886816418,
          "velocity": 0.7874015748031497,
          "duration": 0.11534204101562295
        },
        {
          "name": "A4",
          "midi": 69,
          "time": 107.48078886816418,
          "velocity": 0.7086614173228346,
          "duration": 0.11534204101562295
        },
        {
          "name": "A4",
          "midi": 69,
          "time": 107.59659227734387,
          "velocity": 0.7874015748031497,
          "duration": 0.11949435449218981
        },
        {
          "name": "F4",
          "midi": 65,
          "time": 107.59659227734387,
          "velocity": 0.7086614173228346,
          "duration": 0.13333539941406514
        },
        {
          "name": "A#4",
          "midi": 70,
          "time": 107.71654800000013,
          "velocity": 0.7874015748031497,
          "duration": 0.36632632226562123
        },
        {
          "name": "G4",
          "midi": 67,
          "time": 107.71654800000013,
          "velocity": 0.7086614173228346,
          "duration": 0.38016736718749655
        },
        {
          "name": "A4",
          "midi": 69,
          "time": 108.08333569042982,
          "velocity": 0.7874015748031497,
          "duration": 0.23206818652343486
        },
        {
          "name": "F4",
          "midi": 65,
          "time": 108.08333569042982,
          "velocity": 0.7086614173228346,
          "duration": 0.26021164453125323
        },
        {
          "name": "G4",
          "midi": 67,
          "time": 108.31586524511732,
          "velocity": 0.6929133858267716,
          "duration": 0.06505291113280975
        },
        {
          "name": "F4",
          "midi": 65,
          "time": 108.37445900195326,
          "velocity": 0.6929133858267716,
          "duration": 0.06782112011718766
        },
        {
          "name": "D#4",
          "midi": 63,
          "time": 108.43582096777357,
          "velocity": 0.7007874015748031,
          "duration": 0.09319636914062812
        },
        {
          "name": "C4",
          "midi": 60,
          "time": 108.43582096777357,
          "velocity": 0.7086614173228346,
          "duration": 0.13333539941406514
        },
        {
          "name": "A4",
          "midi": 69,
          "time": 108.67111873144545,
          "velocity": 0.7874015748031497,
          "duration": 0.11303520019531277
        },
        {
          "name": "F4",
          "midi": 65,
          "time": 108.67111873144545,
          "velocity": 0.7086614173228346,
          "duration": 0.1268762451171881
        },
        {
          "name": "A#4",
          "midi": 70,
          "time": 108.78461529980483,
          "velocity": 0.7874015748031497,
          "duration": 0.11303520019531277
        },
        {
          "name": "G4",
          "midi": 67,
          "time": 108.78461529980483,
          "velocity": 0.7086614173228346,
          "duration": 0.1268762451171881
        },
        {
          "name": "C5",
          "midi": 72,
          "time": 108.89811186816421,
          "velocity": 0.7874015748031497,
          "duration": 0.11534204101562295
        },
        {
          "name": "A4",
          "midi": 69,
          "time": 108.89811186816421,
          "velocity": 0.7086614173228346,
          "duration": 0.12918308593749828
        },
        {
          "name": "D5",
          "midi": 74,
          "time": 109.0139152773439,
          "velocity": 0.7874015748031497,
          "duration": 0.1194943544921756
        },
        {
          "name": "A#4",
          "midi": 70,
          "time": 109.0139152773439,
          "velocity": 0.7086614173228346,
          "duration": 0.1194943544921756
        },
        {
          "name": "A#4",
          "midi": 70,
          "time": 109.13387100000014,
          "velocity": 0.7874015748031497,
          "duration": 0.36632632226562123
        },
        {
          "name": "F4",
          "midi": 65,
          "time": 109.13387100000014,
          "velocity": 0.7086614173228346,
          "duration": 0.38016736718749655
        },
        {
          "name": "A4",
          "midi": 69,
          "time": 109.50065869042983,
          "velocity": 0.7874015748031497,
          "duration": 0.23206818652343486
        },
        {
          "name": "D4",
          "midi": 62,
          "time": 109.50065869042983,
          "velocity": 0.7086614173228346,
          "duration": 0.26021164453125323
        },
        {
          "name": "D#4",
          "midi": 63,
          "time": 109.73318824511733,
          "velocity": 0.7874015748031497,
          "duration": 0.11949435449218981
        },
        {
          "name": "A#3",
          "midi": 58,
          "time": 109.73318824511733,
          "velocity": 0.7086614173228346,
          "duration": 0.13333539941406514
        },
        {
          "name": "G4",
          "midi": 67,
          "time": 109.85314396777359,
          "velocity": 0.7007874015748031,
          "duration": 0.09319636914061391
        },
        {
          "name": "D4",
          "midi": 62,
          "time": 109.85314396777359,
          "velocity": 0.7086614173228346,
          "duration": 0.13333539941405093
        },
        {
          "name": "F4",
          "midi": 65,
          "time": 110.08844173144546,
          "velocity": 0.7874015748031497,
          "duration": 0.0848917421874944
        },
        {
          "name": "C4",
          "midi": 60,
          "time": 110.08844173144546,
          "velocity": 0.7086614173228346,
          "duration": 0.0848917421874944
        },
        {
          "name": "D#4",
          "midi": 63,
          "time": 110.3154348681642,
          "velocity": 0.7874015748031497,
          "duration": 0.09365773730468163
        },
        {
          "name": "A#3",
          "midi": 58,
          "time": 110.3154348681642,
          "velocity": 0.7086614173228346,
          "duration": 0.09365773730468163
        },
        {
          "name": "F4",
          "midi": 65,
          "time": 110.55119400000014,
          "velocity": 0.7874015748031497,
          "duration": 0.13333539941406514
        },
        {
          "name": "C4",
          "midi": 60,
          "time": 110.55119400000014,
          "velocity": 0.7086614173228346,
          "duration": 0.13333539941406514
        },
        {
          "name": "D#4",
          "midi": 63,
          "time": 110.68499076757827,
          "velocity": 0.7874015748031497,
          "duration": 0.11626477734374419
        },
        {
          "name": "C4",
          "midi": 60,
          "time": 110.68499076757827,
          "velocity": 0.7086614173228346,
          "duration": 0.1301058222656195
        },
        {
          "name": "D4",
          "midi": 62,
          "time": 110.80171691308608,
          "velocity": 0.7874015748031497,
          "duration": 0.11580340917967646
        },
        {
          "name": "A#3",
          "midi": 58,
          "time": 110.80171691308608,
          "velocity": 0.7086614173228346,
          "duration": 0.1296444541015518
        },
        {
          "name": "C4",
          "midi": 60,
          "time": 110.91798169042983,
          "velocity": 0.7874015748031497,
          "duration": 0.23206818652343486
        },
        {
          "name": "A3",
          "midi": 57,
          "time": 110.91798169042983,
          "velocity": 0.7086614173228346,
          "duration": 0.26021164453125323
        },
        {
          "name": "G4",
          "midi": 67,
          "time": 111.15051124511733,
          "velocity": 0.7874015748031497,
          "duration": 0.11949435449218981
        },
        {
          "name": "D4",
          "midi": 62,
          "time": 111.15051124511733,
          "velocity": 0.7086614173228346,
          "duration": 0.11949435449218981
        },
        {
          "name": "D4",
          "midi": 62,
          "time": 111.27046696777359,
          "velocity": 0.7007874015748031,
          "duration": 0.34833296386719326
        },
        {
          "name": "A3",
          "midi": 57,
          "time": 111.27046696777359,
          "velocity": 0.7086614173228346,
          "duration": 0.32664866015625194
        },
        {
          "name": "F3",
          "midi": 53,
          "time": 111.61926129980485,
          "velocity": 0.6929133858267716,
          "duration": 0.1268762451171881
        },
        {
          "name": "C4",
          "midi": 60,
          "time": 111.73275786816423,
          "velocity": 0.7874015748031497,
          "duration": 0.11534204101562295
        },
        {
          "name": "A3",
          "midi": 57,
          "time": 111.73275786816423,
          "velocity": 0.7086614173228346,
          "duration": 0.12918308593749828
        },
        {
          "name": "D#4",
          "midi": 63,
          "time": 111.84856127734392,
          "velocity": 0.7874015748031497,
          "duration": 0.1194943544921756
        },
        {
          "name": "A#3",
          "midi": 58,
          "time": 111.84856127734392,
          "velocity": 0.47244094488188976,
          "duration": 0.1194943544921756
        },
        {
          "name": "D4",
          "midi": 62,
          "time": 111.96851700000016,
          "velocity": 0.7874015748031497,
          "duration": 0.24821607226562037
        },
        {
          "name": "A#3",
          "midi": 58,
          "time": 111.96851700000016,
          "velocity": 0.7086614173228346,
          "duration": 0.2620571171874957
        },
        {
          "name": "G4",
          "midi": 67,
          "time": 112.33530469042985,
          "velocity": 0.7007874015748031,
          "duration": 0.09042816015625021
        },
        {
          "name": "D4",
          "midi": 62,
          "time": 112.33530469042985,
          "velocity": 0.7086614173228346,
          "duration": 0.13056719042968723
        },
        {
          "name": "A#4",
          "midi": 70,
          "time": 112.56783424511735,
          "velocity": 0.7874015748031497,
          "duration": 0.11949435449218981
        },
        {
          "name": "G4",
          "midi": 67,
          "time": 112.56783424511735,
          "velocity": 0.7086614173228346,
          "duration": 0.11949435449218981
        },
        {
          "name": "G4",
          "midi": 67,
          "time": 112.68778996777361,
          "velocity": 0.7874015748031497,
          "duration": 0.09319636914062812
        },
        {
          "name": "D4",
          "midi": 62,
          "time": 112.68778996777361,
          "velocity": 0.7086614173228346,
          "duration": 0.09319636914062812
        },
        {
          "name": "A4",
          "midi": 69,
          "time": 112.92308773144549,
          "velocity": 0.7874015748031497,
          "duration": 0.11303520019531277
        },
        {
          "name": "F4",
          "midi": 65,
          "time": 112.92308773144549,
          "velocity": 0.7086614173228346,
          "duration": 0.1268762451171881
        },
        {
          "name": "A#4",
          "midi": 70,
          "time": 113.03658429980487,
          "velocity": 0.7874015748031497,
          "duration": 0.11303520019531277
        },
        {
          "name": "G4",
          "midi": 67,
          "time": 113.03658429980487,
          "velocity": 0.7086614173228346,
          "duration": 0.1268762451171881
        },
        {
          "name": "C5",
          "midi": 72,
          "time": 113.15008086816425,
          "velocity": 0.7874015748031497,
          "duration": 0.11534204101562295
        },
        {
          "name": "A4",
          "midi": 69,
          "time": 113.15008086816425,
          "velocity": 0.7086614173228346,
          "duration": 0.11534204101562295
        },
        {
          "name": "A4",
          "midi": 69,
          "time": 113.26588427734394,
          "velocity": 0.7874015748031497,
          "duration": 0.11949435449218981
        },
        {
          "name": "F4",
          "midi": 65,
          "time": 113.26588427734394,
          "velocity": 0.7086614173228346,
          "duration": 0.13333539941406514
        },
        {
          "name": "A#4",
          "midi": 70,
          "time": 113.3858400000002,
          "velocity": 0.7874015748031497,
          "duration": 0.36632632226562123
        },
        {
          "name": "G4",
          "midi": 67,
          "time": 113.3858400000002,
          "velocity": 0.7086614173228346,
          "duration": 0.38016736718749655
        },
        {
          "name": "A4",
          "midi": 69,
          "time": 113.75262769042989,
          "velocity": 0.7874015748031497,
          "duration": 0.23206818652343486
        },
        {
          "name": "F4",
          "midi": 65,
          "time": 113.75262769042989,
          "velocity": 0.7086614173228346,
          "duration": 0.26021164453125323
        },
        {
          "name": "G4",
          "midi": 67,
          "time": 113.98515724511739,
          "velocity": 0.6929133858267716,
          "duration": 0.06505291113280975
        },
        {
          "name": "F4",
          "midi": 65,
          "time": 114.04375100195332,
          "velocity": 0.6929133858267716,
          "duration": 0.06782112011718766
        },
        {
          "name": "D#4",
          "midi": 63,
          "time": 114.10511296777364,
          "velocity": 0.7007874015748031,
          "duration": 0.09319636914062812
        },
        {
          "name": "C4",
          "midi": 60,
          "time": 114.10511296777364,
          "velocity": 0.7086614173228346,
          "duration": 0.13333539941406514
        },
        {
          "name": "A4",
          "midi": 69,
          "time": 114.34041073144552,
          "velocity": 0.7874015748031497,
          "duration": 0.11303520019531277
        },
        {
          "name": "F4",
          "midi": 65,
          "time": 114.34041073144552,
          "velocity": 0.7086614173228346,
          "duration": 0.1268762451171881
        },
        {
          "name": "A#4",
          "midi": 70,
          "time": 114.4539072998049,
          "velocity": 0.7874015748031497,
          "duration": 0.11303520019531277
        },
        {
          "name": "G4",
          "midi": 67,
          "time": 114.4539072998049,
          "velocity": 0.7086614173228346,
          "duration": 0.1268762451171881
        },
        {
          "name": "C5",
          "midi": 72,
          "time": 114.56740386816428,
          "velocity": 0.7874015748031497,
          "duration": 0.11534204101562295
        },
        {
          "name": "A4",
          "midi": 69,
          "time": 114.56740386816428,
          "velocity": 0.7086614173228346,
          "duration": 0.12918308593749828
        },
        {
          "name": "D5",
          "midi": 74,
          "time": 114.68320727734397,
          "velocity": 0.7874015748031497,
          "duration": 0.1194943544921756
        },
        {
          "name": "A#4",
          "midi": 70,
          "time": 114.68320727734397,
          "velocity": 0.7086614173228346,
          "duration": 0.13333539941405093
        },
        {
          "name": "F5",
          "midi": 77,
          "time": 114.80316300000021,
          "velocity": 0.7874015748031497,
          "duration": 0.36632632226562123
        },
        {
          "name": "D5",
          "midi": 74,
          "time": 114.80316300000021,
          "velocity": 0.7086614173228346,
          "duration": 0.36632632226562123
        },
        {
          "name": "D5",
          "midi": 74,
          "time": 115.1699506904299,
          "velocity": 0.7874015748031497,
          "duration": 0.23206818652343486
        },
        {
          "name": "A#4",
          "midi": 70,
          "time": 115.1699506904299,
          "velocity": 0.7086614173228346,
          "duration": 0.23206818652343486
        },
        {
          "name": "A#4",
          "midi": 70,
          "time": 115.4024802451174,
          "velocity": 0.7874015748031497,
          "duration": 0.11949435449218981
        },
        {
          "name": "G4",
          "midi": 67,
          "time": 115.4024802451174,
          "velocity": 0.7086614173228346,
          "duration": 0.13333539941406514
        },
        {
          "name": "C5",
          "midi": 72,
          "time": 115.52243596777366,
          "velocity": 0.7874015748031497,
          "duration": 0.23483639550781277
        },
        {
          "name": "A4",
          "midi": 69,
          "time": 115.52243596777366,
          "velocity": 0.7086614173228346,
          "duration": 0.26297985351563113
        },
        {
          "name": "A#4",
          "midi": 70,
          "time": 115.75773373144554,
          "velocity": 0.7874015748031497,
          "duration": 0.22653176855469326
        },
        {
          "name": "G4",
          "midi": 67,
          "time": 115.75773373144554,
          "velocity": 0.7086614173228346,
          "duration": 0.2546752265625116
        },
        {
          "name": "A4",
          "midi": 69,
          "time": 115.9847268681643,
          "velocity": 0.7874015748031497,
          "duration": 0.2352977636718805
        },
        {
          "name": "F4",
          "midi": 65,
          "time": 115.9847268681643,
          "velocity": 0.7086614173228346,
          "duration": 0.26344122167969886
        },
        {
          "name": "A#4",
          "midi": 70,
          "time": 116.22048600000025,
          "velocity": 0.7874015748031497,
          "duration": 0.13333539941406514
        },
        {
          "name": "G4",
          "midi": 67,
          "time": 116.22048600000025,
          "velocity": 0.7086614173228346,
          "duration": 0.14717644433594046
        },
        {
          "name": "A4",
          "midi": 69,
          "time": 116.35428276757838,
          "velocity": 0.7874015748031497,
          "duration": 0.11626477734374419
        },
        {
          "name": "F4",
          "midi": 65,
          "time": 116.35428276757838,
          "velocity": 0.7086614173228346,
          "duration": 0.1301058222656195
        },
        {
          "name": "G4",
          "midi": 67,
          "time": 116.4710089130862,
          "velocity": 0.7874015748031497,
          "duration": 0.11580340917967646
        },
        {
          "name": "D#4",
          "midi": 63,
          "time": 116.4710089130862,
          "velocity": 0.7086614173228346,
          "duration": 0.1296444541015518
        },
        {
          "name": "F4",
          "midi": 65,
          "time": 116.58727369042994,
          "velocity": 0.7007874015748031,
          "duration": 0.09042816015625021
        },
        {
          "name": "D4",
          "midi": 62,
          "time": 116.58727369042994,
          "velocity": 0.7086614173228346,
          "duration": 0.13056719042968723
        },
        {
          "name": "A4",
          "midi": 69,
          "time": 116.81980324511744,
          "velocity": 0.7874015748031497,
          "duration": 0.1194943544921756
        },
        {
          "name": "F4",
          "midi": 65,
          "time": 116.81980324511744,
          "velocity": 0.7086614173228346,
          "duration": 0.11257383203124505
        },
        {
          "name": "G4",
          "midi": 67,
          "time": 116.93975896777368,
          "velocity": 0.7874015748031497,
          "duration": 0.6975886640624935
        },
        {
          "name": "A#3",
          "midi": 58,
          "time": 116.93975896777368,
          "velocity": 0.7086614173228346,
          "duration": 0.6975886640624935
        }
      ],
      "controlChanges": {
        "7": [
          {
            "number": 7,
            "time": 0,
            "value": 1
          },
          {
            "number": 7,
            "time": 0,
            "value": 1
          },
          {
            "number": 7,
            "time": 0,
            "value": 0.8661417322834646
          }
        ],
        "10": [
          {
            "number": 10,
            "time": 0,
            "value": 0.7007874015748031
          }
        ],
        "32": [
          {
            "number": 32,
            "time": 0,
            "value": 0
          },
          {
            "number": 32,
            "time": 0,
            "value": 0
          },
          {
            "number": 32,
            "time": 0,
            "value": 0
          },
          {
            "number": 32,
            "time": 0,
            "value": 0
          }
        ]
      },
      "id": 1,
      "name": "Piano",
      "instrumentNumber": 1,
      "instrument": "bright acoustic piano",
      "instrumentFamily": "piano",
      "channelNumber": 0,
      "isPercussion": false
    },
    {
      "startTime": 0,
      "duration": 117.63734763183618,
      "length": 890,
      "notes": [
        {
          "name": "G5",
          "midi": 79,
          "time": 0,
          "velocity": 0.7874015748031497,
          "duration": 0.243602390625
        },
        {
          "name": "D5",
          "midi": 74,
          "time": 0.3621740087890625,
          "velocity": 0.7401574803149606,
          "duration": 0.09042816015624999
        },
        {
          "name": "F5",
          "midi": 77,
          "time": 0.5947035634765625,
          "velocity": 0.7401574803149606,
          "duration": 0.11949435449218748
        },
        {
          "name": "E5",
          "midi": 76,
          "time": 0.7146592861328125,
          "velocity": 0.7007874015748031,
          "duration": 0.09319636914062501
        },
        {
          "name": "C5",
          "midi": 72,
          "time": 0.9499570498046875,
          "velocity": 0.7401574803149606,
          "duration": 0.08489174218750006
        },
        {
          "name": "D5",
          "midi": 74,
          "time": 1.1769501865234375,
          "velocity": 0.7401574803149606,
          "duration": 0.23529776367187494
        },
        {
          "name": "G5",
          "midi": 79,
          "time": 1.4127093183593749,
          "velocity": 0.7874015748031497,
          "duration": 0.24821607226562503
        },
        {
          "name": "D5",
          "midi": 74,
          "time": 1.7794970087890625,
          "velocity": 0.7401574803149606,
          "duration": 0.09042816015624999
        },
        {
          "name": "F5",
          "midi": 77,
          "time": 2.0120265634765624,
          "velocity": 0.7401574803149606,
          "duration": 0.1194943544921876
        },
        {
          "name": "E5",
          "midi": 76,
          "time": 2.1319822861328124,
          "velocity": 0.7007874015748031,
          "duration": 0.09319636914062501
        },
        {
          "name": "C5",
          "midi": 72,
          "time": 2.3672800498046875,
          "velocity": 0.7401574803149606,
          "duration": 0.08489174218750017
        },
        {
          "name": "D5",
          "midi": 74,
          "time": 2.594273186523438,
          "velocity": 0.7401574803149606,
          "duration": 0.23529776367187516
        },
        {
          "name": "G5",
          "midi": 79,
          "time": 2.8300323183593754,
          "velocity": 0.7874015748031497,
          "duration": 0.2482160722656248
        },
        {
          "name": "D5",
          "midi": 74,
          "time": 3.1968200087890626,
          "velocity": 0.7401574803149606,
          "duration": 0.09042816015625021
        },
        {
          "name": "F5",
          "midi": 77,
          "time": 3.429349563476563,
          "velocity": 0.7401574803149606,
          "duration": 0.1194943544921876
        },
        {
          "name": "E5",
          "midi": 76,
          "time": 3.549305286132813,
          "velocity": 0.7007874015748031,
          "duration": 0.09319636914062501
        },
        {
          "name": "D5",
          "midi": 74,
          "time": 3.784603049804688,
          "velocity": 0.7401574803149606,
          "duration": 0.08489174218750017
        },
        {
          "name": "C5",
          "midi": 72,
          "time": 4.011596186523438,
          "velocity": 0.7401574803149606,
          "duration": 0.23529776367187516
        },
        {
          "name": "D5",
          "midi": 74,
          "time": 4.247355318359376,
          "velocity": 0.7401574803149606,
          "duration": 0.2500615449218744
        },
        {
          "name": "A#4",
          "midi": 70,
          "time": 4.251969000000001,
          "velocity": 0.47244094488188976,
          "duration": 0.27820500292968653
        },
        {
          "name": "C5",
          "midi": 72,
          "time": 4.497878231445313,
          "velocity": 0.7401574803149606,
          "duration": 0.23160681835937424
        },
        {
          "name": "A4",
          "midi": 69,
          "time": 4.5024919130859375,
          "velocity": 0.47244094488188976,
          "duration": 0.2597502763671864
        },
        {
          "name": "A#4",
          "midi": 70,
          "time": 4.729946417968749,
          "velocity": 0.7401574803149606,
          "duration": 0.23622049999999994
        },
        {
          "name": "G4",
          "midi": 67,
          "time": 4.734560099609374,
          "velocity": 0.47244094488188976,
          "duration": 0.2643639580078121
        },
        {
          "name": "A4",
          "midi": 69,
          "time": 4.966628286132812,
          "velocity": 0.7401574803149606,
          "duration": 0.23483639550781188
        },
        {
          "name": "F4",
          "midi": 65,
          "time": 4.9712419677734365,
          "velocity": 0.47244094488188976,
          "duration": 0.26297985351562403
        },
        {
          "name": "D5",
          "midi": 74,
          "time": 5.201926049804686,
          "velocity": 0.7401574803149606,
          "duration": 0.22653176855468704
        },
        {
          "name": "G4",
          "midi": 67,
          "time": 5.206539731445311,
          "velocity": 0.47244094488188976,
          "duration": 0.2546752265624992
        },
        {
          "name": "F5",
          "midi": 77,
          "time": 5.428919186523435,
          "velocity": 0.7007874015748031,
          "duration": 0.23529776367187427
        },
        {
          "name": "A4",
          "midi": 69,
          "time": 5.43353286816406,
          "velocity": 0.47244094488188976,
          "duration": 0.19977241503906207
        },
        {
          "name": "G5",
          "midi": 79,
          "time": 5.669291999999997,
          "velocity": 0.7874015748031497,
          "duration": 0.243602390625
        },
        {
          "name": "D5",
          "midi": 74,
          "time": 6.031466008789059,
          "velocity": 0.7401574803149606,
          "duration": 0.09042816015625021
        },
        {
          "name": "F5",
          "midi": 77,
          "time": 6.263995563476559,
          "velocity": 0.7401574803149606,
          "duration": 0.11949435449218715
        },
        {
          "name": "E5",
          "midi": 76,
          "time": 6.383951286132809,
          "velocity": 0.7007874015748031,
          "duration": 0.09319636914062457
        },
        {
          "name": "C5",
          "midi": 72,
          "time": 6.619249049804683,
          "velocity": 0.7401574803149606,
          "duration": 0.08489174218749973
        },
        {
          "name": "D5",
          "midi": 74,
          "time": 6.846242186523432,
          "velocity": 0.7401574803149606,
          "duration": 0.23529776367187516
        },
        {
          "name": "G5",
          "midi": 79,
          "time": 7.08200131835937,
          "velocity": 0.7874015748031497,
          "duration": 0.2482160722656248
        },
        {
          "name": "D5",
          "midi": 74,
          "time": 7.448789008789057,
          "velocity": 0.7401574803149606,
          "duration": 0.09042816015625021
        },
        {
          "name": "F5",
          "midi": 77,
          "time": 7.681318563476557,
          "velocity": 0.7401574803149606,
          "duration": 0.11949435449218715
        },
        {
          "name": "E5",
          "midi": 76,
          "time": 7.801274286132807,
          "velocity": 0.7007874015748031,
          "duration": 0.09319636914062457
        },
        {
          "name": "C5",
          "midi": 72,
          "time": 8.03657204980468,
          "velocity": 0.7401574803149606,
          "duration": 0.08489174218749973
        },
        {
          "name": "D5",
          "midi": 74,
          "time": 8.263565186523431,
          "velocity": 0.7401574803149606,
          "duration": 0.23529776367187516
        },
        {
          "name": "G5",
          "midi": 79,
          "time": 8.499324318359369,
          "velocity": 0.7874015748031497,
          "duration": 0.2482160722656257
        },
        {
          "name": "D5",
          "midi": 74,
          "time": 8.866112008789058,
          "velocity": 0.7401574803149606,
          "duration": 0.09042816015625021
        },
        {
          "name": "F5",
          "midi": 77,
          "time": 9.098641563476559,
          "velocity": 0.7401574803149606,
          "duration": 0.11949435449218804
        },
        {
          "name": "E5",
          "midi": 76,
          "time": 9.218597286132809,
          "velocity": 0.7007874015748031,
          "duration": 0.09319636914062457
        },
        {
          "name": "D5",
          "midi": 74,
          "time": 9.453895049804684,
          "velocity": 0.7401574803149606,
          "duration": 0.08489174218749973
        },
        {
          "name": "C5",
          "midi": 72,
          "time": 9.680888186523434,
          "velocity": 0.7401574803149606,
          "duration": 0.23529776367187516
        },
        {
          "name": "D5",
          "midi": 74,
          "time": 9.916647318359372,
          "velocity": 0.7401574803149606,
          "duration": 0.25006154492187527
        },
        {
          "name": "A#4",
          "midi": 70,
          "time": 9.921260999999998,
          "velocity": 0.47244094488188976,
          "duration": 0.2782050029296883
        },
        {
          "name": "C5",
          "midi": 72,
          "time": 10.16717023144531,
          "velocity": 0.7401574803149606,
          "duration": 0.23160681835937602
        },
        {
          "name": "A4",
          "midi": 69,
          "time": 10.171783913085935,
          "velocity": 0.47244094488188976,
          "duration": 0.25975027636718906
        },
        {
          "name": "A#4",
          "midi": 70,
          "time": 10.399238417968748,
          "velocity": 0.7401574803149606,
          "duration": 0.23622050000000172
        },
        {
          "name": "G4",
          "midi": 67,
          "time": 10.403852099609374,
          "velocity": 0.47244094488188976,
          "duration": 0.26436395800781476
        },
        {
          "name": "A4",
          "midi": 69,
          "time": 10.635920286132812,
          "velocity": 0.7401574803149606,
          "duration": 0.23483639550781454
        },
        {
          "name": "F4",
          "midi": 65,
          "time": 10.640533967773438,
          "velocity": 0.47244094488188976,
          "duration": 0.2629798535156276
        },
        {
          "name": "D5",
          "midi": 74,
          "time": 10.871218049804689,
          "velocity": 0.7401574803149606,
          "duration": 0.2265317685546897
        },
        {
          "name": "G4",
          "midi": 67,
          "time": 10.875831731445315,
          "velocity": 0.47244094488188976,
          "duration": 0.25467522656250274
        },
        {
          "name": "F5",
          "midi": 77,
          "time": 11.098211186523441,
          "velocity": 0.7007874015748031,
          "duration": 0.23529776367187694
        },
        {
          "name": "A4",
          "midi": 69,
          "time": 11.102824868164067,
          "velocity": 0.47244094488188976,
          "duration": 0.19977241503906384
        },
        {
          "name": "A#4",
          "midi": 70,
          "time": 11.338584000000006,
          "velocity": 0.5511811023622047,
          "duration": 0.2482160722656257
        },
        {
          "name": "G5",
          "midi": 79,
          "time": 11.338584000000006,
          "velocity": 0.7874015748031497,
          "duration": 0.243602390625
        },
        {
          "name": "G4",
          "midi": 67,
          "time": 11.574804500000006,
          "velocity": 0.3937007874015748,
          "duration": 0.0848917421875015
        },
        {
          "name": "D5",
          "midi": 74,
          "time": 11.70075800878907,
          "velocity": 0.7401574803149606,
          "duration": 0.09042816015625021
        },
        {
          "name": "A#4",
          "midi": 70,
          "time": 11.705371690429695,
          "velocity": 0.5511811023622047,
          "duration": 0.09042816015625021
        },
        {
          "name": "F5",
          "midi": 77,
          "time": 11.93328756347657,
          "velocity": 0.7401574803149606,
          "duration": 0.11949435449218804
        },
        {
          "name": "G4",
          "midi": 67,
          "time": 11.937901245117196,
          "velocity": 0.5511811023622047,
          "duration": 0.11949435449218804
        },
        {
          "name": "E5",
          "midi": 76,
          "time": 12.05324328613282,
          "velocity": 0.7007874015748031,
          "duration": 0.09319636914062635
        },
        {
          "name": "A#4",
          "midi": 70,
          "time": 12.057856967773446,
          "velocity": 0.5511811023622047,
          "duration": 0.09319636914062635
        },
        {
          "name": "C5",
          "midi": 72,
          "time": 12.288541049804698,
          "velocity": 0.7401574803149606,
          "duration": 0.0848917421875015
        },
        {
          "name": "G4",
          "midi": 67,
          "time": 12.293154731445323,
          "velocity": 0.5511811023622047,
          "duration": 0.0848917421875015
        },
        {
          "name": "D5",
          "midi": 74,
          "time": 12.51553418652345,
          "velocity": 0.7401574803149606,
          "duration": 0.23529776367187516
        },
        {
          "name": "A#4",
          "midi": 70,
          "time": 12.520147868164075,
          "velocity": 0.5511811023622047,
          "duration": 0.23529776367187516
        },
        {
          "name": "G5",
          "midi": 79,
          "time": 12.751293318359387,
          "velocity": 0.7874015748031497,
          "duration": 0.2482160722656257
        },
        {
          "name": "A#4",
          "midi": 70,
          "time": 12.755907000000013,
          "velocity": 0.5511811023622047,
          "duration": 0.2482160722656257
        },
        {
          "name": "G4",
          "midi": 67,
          "time": 12.992127500000013,
          "velocity": 0.3937007874015748,
          "duration": 0.0848917421875015
        },
        {
          "name": "D5",
          "midi": 74,
          "time": 13.118081008789076,
          "velocity": 0.7401574803149606,
          "duration": 0.09042816015625021
        },
        {
          "name": "A#4",
          "midi": 70,
          "time": 13.122694690429702,
          "velocity": 0.5511811023622047,
          "duration": 0.09042816015625021
        },
        {
          "name": "F5",
          "midi": 77,
          "time": 13.350610563476577,
          "velocity": 0.7401574803149606,
          "duration": 0.11949435449218804
        },
        {
          "name": "G4",
          "midi": 67,
          "time": 13.355224245117203,
          "velocity": 0.5511811023622047,
          "duration": 0.11949435449218804
        },
        {
          "name": "E5",
          "midi": 76,
          "time": 13.470566286132827,
          "velocity": 0.7007874015748031,
          "duration": 0.09319636914062635
        },
        {
          "name": "C5",
          "midi": 72,
          "time": 13.475179967773453,
          "velocity": 0.5511811023622047,
          "duration": 0.09319636914062635
        },
        {
          "name": "C5",
          "midi": 72,
          "time": 13.705864049804704,
          "velocity": 0.7401574803149606,
          "duration": 0.0848917421875015
        },
        {
          "name": "G4",
          "midi": 67,
          "time": 13.71047773144533,
          "velocity": 0.5511811023622047,
          "duration": 0.0848917421875015
        },
        {
          "name": "D5",
          "midi": 74,
          "time": 13.932857186523457,
          "velocity": 0.7401574803149606,
          "duration": 0.23529776367187516
        },
        {
          "name": "A#4",
          "midi": 70,
          "time": 13.937470868164082,
          "velocity": 0.5511811023622047,
          "duration": 0.23529776367187516
        },
        {
          "name": "G5",
          "midi": 79,
          "time": 14.168616318359394,
          "velocity": 0.7874015748031497,
          "duration": 0.2482160722656257
        },
        {
          "name": "A#4",
          "midi": 70,
          "time": 14.17323000000002,
          "velocity": 0.5511811023622047,
          "duration": 0.2482160722656257
        },
        {
          "name": "G4",
          "midi": 67,
          "time": 14.40945050000002,
          "velocity": 0.3937007874015748,
          "duration": 0.0848917421875015
        },
        {
          "name": "D5",
          "midi": 74,
          "time": 14.535404008789083,
          "velocity": 0.7401574803149606,
          "duration": 0.09042816015625021
        },
        {
          "name": "A#4",
          "midi": 70,
          "time": 14.540017690429709,
          "velocity": 0.5511811023622047,
          "duration": 0.09042816015625021
        },
        {
          "name": "F5",
          "midi": 77,
          "time": 14.767933563476584,
          "velocity": 0.7401574803149606,
          "duration": 0.11949435449218804
        },
        {
          "name": "G4",
          "midi": 67,
          "time": 14.77254724511721,
          "velocity": 0.5511811023622047,
          "duration": 0.11949435449218804
        },
        {
          "name": "E5",
          "midi": 76,
          "time": 14.887889286132834,
          "velocity": 0.7007874015748031,
          "duration": 0.09319636914062635
        },
        {
          "name": "D5",
          "midi": 74,
          "time": 14.89250296777346,
          "velocity": 0.5511811023622047,
          "duration": 0.09319636914062635
        },
        {
          "name": "D5",
          "midi": 74,
          "time": 15.123187049804711,
          "velocity": 0.7401574803149606,
          "duration": 0.0848917421875015
        },
        {
          "name": "G4",
          "midi": 67,
          "time": 15.127800731445337,
          "velocity": 0.5511811023622047,
          "duration": 0.0848917421875015
        },
        {
          "name": "C5",
          "midi": 72,
          "time": 15.350180186523463,
          "velocity": 0.7401574803149606,
          "duration": 0.23529776367187516
        },
        {
          "name": "A4",
          "midi": 69,
          "time": 15.354793868164089,
          "velocity": 0.5511811023622047,
          "duration": 0.23529776367187516
        },
        {
          "name": "D5",
          "midi": 74,
          "time": 15.5859393183594,
          "velocity": 0.7401574803149606,
          "duration": 0.25006154492187527
        },
        {
          "name": "A#4",
          "midi": 70,
          "time": 15.590553000000027,
          "velocity": 0.47244094488188976,
          "duration": 0.2782050029296883
        },
        {
          "name": "C5",
          "midi": 72,
          "time": 15.836462231445338,
          "velocity": 0.7401574803149606,
          "duration": 0.2316068183593778
        },
        {
          "name": "A4",
          "midi": 69,
          "time": 15.841075913085964,
          "velocity": 0.47244094488188976,
          "duration": 0.25975027636719084
        },
        {
          "name": "A#4",
          "midi": 70,
          "time": 16.06853041796878,
          "velocity": 0.7401574803149606,
          "duration": 0.23622049999999817
        },
        {
          "name": "G4",
          "midi": 67,
          "time": 16.073144099609404,
          "velocity": 0.47244094488188976,
          "duration": 0.264363958007813
        },
        {
          "name": "A4",
          "midi": 69,
          "time": 16.305212286132843,
          "velocity": 0.7401574803149606,
          "duration": 0.23483639550781277
        },
        {
          "name": "F4",
          "midi": 65,
          "time": 16.309825967773467,
          "velocity": 0.47244094488188976,
          "duration": 0.2629798535156276
        },
        {
          "name": "D5",
          "midi": 74,
          "time": 16.54051004980472,
          "velocity": 0.7401574803149606,
          "duration": 0.22653176855468615
        },
        {
          "name": "G4",
          "midi": 67,
          "time": 16.545123731445344,
          "velocity": 0.47244094488188976,
          "duration": 0.25467522656250097
        },
        {
          "name": "F5",
          "midi": 77,
          "time": 16.76750318652347,
          "velocity": 0.7007874015748031,
          "duration": 0.23529776367187694
        },
        {
          "name": "A4",
          "midi": 69,
          "time": 16.772116868164094,
          "velocity": 0.47244094488188976,
          "duration": 0.19977241503906384
        },
        {
          "name": "G5",
          "midi": 79,
          "time": 17.007876000000035,
          "velocity": 0.7874015748031497,
          "duration": 0.243602390625
        },
        {
          "name": "A#4",
          "midi": 70,
          "time": 17.007876000000035,
          "velocity": 0.5511811023622047,
          "duration": 0.24821607226562392
        },
        {
          "name": "G4",
          "midi": 67,
          "time": 17.244096500000037,
          "velocity": 0.3937007874015748,
          "duration": 0.08489174218749795
        },
        {
          "name": "D5",
          "midi": 74,
          "time": 17.370050008789097,
          "velocity": 0.7401574803149606,
          "duration": 0.09042816015625021
        },
        {
          "name": "A#4",
          "midi": 70,
          "time": 17.37466369042972,
          "velocity": 0.5511811023622047,
          "duration": 0.09042816015625021
        },
        {
          "name": "F5",
          "midi": 77,
          "time": 17.602579563476596,
          "velocity": 0.7401574803149606,
          "duration": 0.11949435449218626
        },
        {
          "name": "G4",
          "midi": 67,
          "time": 17.60719324511722,
          "velocity": 0.5511811023622047,
          "duration": 0.11949435449218981
        },
        {
          "name": "E5",
          "midi": 76,
          "time": 17.722535286132846,
          "velocity": 0.7007874015748031,
          "duration": 0.09319636914062812
        },
        {
          "name": "A#4",
          "midi": 70,
          "time": 17.727148967773473,
          "velocity": 0.5511811023622047,
          "duration": 0.09319636914062457
        },
        {
          "name": "C5",
          "midi": 72,
          "time": 17.957833049804723,
          "velocity": 0.7401574803149606,
          "duration": 0.08489174218749795
        },
        {
          "name": "G4",
          "midi": 67,
          "time": 17.962446731445347,
          "velocity": 0.5511811023622047,
          "duration": 0.08489174218749795
        },
        {
          "name": "D5",
          "midi": 74,
          "time": 18.18482618652347,
          "velocity": 0.7401574803149606,
          "duration": 0.23529776367187338
        },
        {
          "name": "A#4",
          "midi": 70,
          "time": 18.189439868164094,
          "velocity": 0.5511811023622047,
          "duration": 0.23529776367187694
        },
        {
          "name": "G5",
          "midi": 79,
          "time": 18.420585318359407,
          "velocity": 0.7874015748031497,
          "duration": 0.24821607226562747
        },
        {
          "name": "A#4",
          "midi": 70,
          "time": 18.425199000000035,
          "velocity": 0.5511811023622047,
          "duration": 0.24821607226562392
        },
        {
          "name": "G4",
          "midi": 67,
          "time": 18.661419500000036,
          "velocity": 0.3937007874015748,
          "duration": 0.08489174218749795
        },
        {
          "name": "D5",
          "midi": 74,
          "time": 18.787373008789096,
          "velocity": 0.7401574803149606,
          "duration": 0.09042816015625021
        },
        {
          "name": "A#4",
          "midi": 70,
          "time": 18.79198669042972,
          "velocity": 0.5511811023622047,
          "duration": 0.09042816015625021
        },
        {
          "name": "F5",
          "midi": 77,
          "time": 19.019902563476595,
          "velocity": 0.7401574803149606,
          "duration": 0.11949435449218626
        },
        {
          "name": "G4",
          "midi": 67,
          "time": 19.02451624511722,
          "velocity": 0.5511811023622047,
          "duration": 0.11949435449218981
        },
        {
          "name": "E5",
          "midi": 76,
          "time": 19.139858286132846,
          "velocity": 0.7007874015748031,
          "duration": 0.09319636914062812
        },
        {
          "name": "C5",
          "midi": 72,
          "time": 19.144471967773473,
          "velocity": 0.5511811023622047,
          "duration": 0.09319636914062457
        },
        {
          "name": "C5",
          "midi": 72,
          "time": 19.375156049804723,
          "velocity": 0.7401574803149606,
          "duration": 0.08489174218749795
        },
        {
          "name": "G4",
          "midi": 67,
          "time": 19.379769731445347,
          "velocity": 0.5511811023622047,
          "duration": 0.08489174218749795
        },
        {
          "name": "D5",
          "midi": 74,
          "time": 19.60214918652347,
          "velocity": 0.7401574803149606,
          "duration": 0.23529776367187338
        },
        {
          "name": "A#4",
          "midi": 70,
          "time": 19.606762868164093,
          "velocity": 0.5511811023622047,
          "duration": 0.23529776367187694
        },
        {
          "name": "G5",
          "midi": 79,
          "time": 19.837908318359407,
          "velocity": 0.7874015748031497,
          "duration": 0.24821607226562747
        },
        {
          "name": "A#4",
          "midi": 70,
          "time": 19.842522000000034,
          "velocity": 0.5511811023622047,
          "duration": 0.24821607226562392
        },
        {
          "name": "G4",
          "midi": 67,
          "time": 20.078742500000036,
          "velocity": 0.3937007874015748,
          "duration": 0.08489174218749795
        },
        {
          "name": "D5",
          "midi": 74,
          "time": 20.204696008789096,
          "velocity": 0.7401574803149606,
          "duration": 0.09042816015625021
        },
        {
          "name": "A#4",
          "midi": 70,
          "time": 20.20930969042972,
          "velocity": 0.5511811023622047,
          "duration": 0.09042816015625021
        },
        {
          "name": "F5",
          "midi": 77,
          "time": 20.437225563476595,
          "velocity": 0.7401574803149606,
          "duration": 0.11949435449218626
        },
        {
          "name": "G4",
          "midi": 67,
          "time": 20.44183924511722,
          "velocity": 0.5511811023622047,
          "duration": 0.11949435449218981
        },
        {
          "name": "E5",
          "midi": 76,
          "time": 20.557181286132845,
          "velocity": 0.7007874015748031,
          "duration": 0.09319636914062812
        },
        {
          "name": "D5",
          "midi": 74,
          "time": 20.561794967773473,
          "velocity": 0.5511811023622047,
          "duration": 0.09319636914062457
        },
        {
          "name": "D5",
          "midi": 74,
          "time": 20.792479049804722,
          "velocity": 0.7401574803149606,
          "duration": 0.08489174218749795
        },
        {
          "name": "G4",
          "midi": 67,
          "time": 20.797092731445346,
          "velocity": 0.5511811023622047,
          "duration": 0.08489174218749795
        },
        {
          "name": "C5",
          "midi": 72,
          "time": 21.01947218652347,
          "velocity": 0.7401574803149606,
          "duration": 0.23529776367187338
        },
        {
          "name": "A4",
          "midi": 69,
          "time": 21.024085868164093,
          "velocity": 0.5511811023622047,
          "duration": 0.23529776367187694
        },
        {
          "name": "D5",
          "midi": 74,
          "time": 21.255231318359407,
          "velocity": 0.7401574803149606,
          "duration": 0.25006154492187704
        },
        {
          "name": "A#4",
          "midi": 70,
          "time": 21.259845000000034,
          "velocity": 0.47244094488188976,
          "duration": 0.2782050029296883
        },
        {
          "name": "C5",
          "midi": 72,
          "time": 21.505754231445348,
          "velocity": 0.7401574803149606,
          "duration": 0.23160681835937424
        },
        {
          "name": "A4",
          "midi": 69,
          "time": 21.51036791308597,
          "velocity": 0.47244094488188976,
          "duration": 0.25975027636718906
        },
        {
          "name": "A#4",
          "midi": 70,
          "time": 21.737822417968786,
          "velocity": 0.7401574803149606,
          "duration": 0.23622049999999817
        },
        {
          "name": "G4",
          "midi": 67,
          "time": 21.74243609960941,
          "velocity": 0.47244094488188976,
          "duration": 0.264363958007813
        },
        {
          "name": "A4",
          "midi": 69,
          "time": 21.97450428613285,
          "velocity": 0.7401574803149606,
          "duration": 0.23483639550781277
        },
        {
          "name": "F4",
          "midi": 65,
          "time": 21.979117967773472,
          "velocity": 0.47244094488188976,
          "duration": 0.2629798535156276
        },
        {
          "name": "D5",
          "midi": 74,
          "time": 22.209802049804725,
          "velocity": 0.7401574803149606,
          "duration": 0.22653176855468615
        },
        {
          "name": "G4",
          "midi": 67,
          "time": 22.21441573144535,
          "velocity": 0.47244094488188976,
          "duration": 0.25467522656250097
        },
        {
          "name": "F5",
          "midi": 77,
          "time": 22.436795186523476,
          "velocity": 0.7007874015748031,
          "duration": 0.23529776367187694
        },
        {
          "name": "A4",
          "midi": 69,
          "time": 22.4414088681641,
          "velocity": 0.47244094488188976,
          "duration": 0.19977241503906384
        },
        {
          "name": "G#5",
          "midi": 80,
          "time": 22.67716800000004,
          "velocity": 0.7874015748031497,
          "duration": 0.243602390625
        },
        {
          "name": "B4",
          "midi": 71,
          "time": 22.67716800000004,
          "velocity": 0.47244094488188976,
          "duration": 0.24821607226562392
        },
        {
          "name": "D#5",
          "midi": 75,
          "time": 23.039342008789102,
          "velocity": 0.7401574803149606,
          "duration": 0.09042816015625021
        },
        {
          "name": "B4",
          "midi": 71,
          "time": 23.043955690429726,
          "velocity": 0.47244094488188976,
          "duration": 0.09042816015625021
        },
        {
          "name": "F#5",
          "midi": 78,
          "time": 23.2718715634766,
          "velocity": 0.7401574803149606,
          "duration": 0.11949435449218626
        },
        {
          "name": "G#4",
          "midi": 68,
          "time": 23.276485245117225,
          "velocity": 0.47244094488188976,
          "duration": 0.11949435449218981
        },
        {
          "name": "F5",
          "midi": 77,
          "time": 23.391827286132852,
          "velocity": 0.7007874015748031,
          "duration": 0.09319636914062812
        },
        {
          "name": "B4",
          "midi": 71,
          "time": 23.39644096777348,
          "velocity": 0.47244094488188976,
          "duration": 0.09319636914062457
        },
        {
          "name": "C#5",
          "midi": 73,
          "time": 23.62712504980473,
          "velocity": 0.7401574803149606,
          "duration": 0.08489174218749795
        },
        {
          "name": "G#4",
          "midi": 68,
          "time": 23.631738731445353,
          "velocity": 0.47244094488188976,
          "duration": 0.08489174218749795
        },
        {
          "name": "D#5",
          "midi": 75,
          "time": 23.854118186523475,
          "velocity": 0.7401574803149606,
          "duration": 0.23529776367187338
        },
        {
          "name": "B4",
          "midi": 71,
          "time": 23.8587318681641,
          "velocity": 0.47244094488188976,
          "duration": 0.23529776367187694
        },
        {
          "name": "G#5",
          "midi": 80,
          "time": 24.089877318359413,
          "velocity": 0.7874015748031497,
          "duration": 0.24821607226562747
        },
        {
          "name": "B4",
          "midi": 71,
          "time": 24.09449100000004,
          "velocity": 0.47244094488188976,
          "duration": 0.24821607226562392
        },
        {
          "name": "D#5",
          "midi": 75,
          "time": 24.456665008789102,
          "velocity": 0.7401574803149606,
          "duration": 0.09042816015625021
        },
        {
          "name": "B4",
          "midi": 71,
          "time": 24.461278690429726,
          "velocity": 0.47244094488188976,
          "duration": 0.09042816015625021
        },
        {
          "name": "F#5",
          "midi": 78,
          "time": 24.6891945634766,
          "velocity": 0.7401574803149606,
          "duration": 0.11949435449218626
        },
        {
          "name": "G#4",
          "midi": 68,
          "time": 24.693808245117225,
          "velocity": 0.47244094488188976,
          "duration": 0.11949435449218981
        },
        {
          "name": "F5",
          "midi": 77,
          "time": 24.80915028613285,
          "velocity": 0.7007874015748031,
          "duration": 0.09319636914062812
        },
        {
          "name": "C#5",
          "midi": 73,
          "time": 24.81376396777348,
          "velocity": 0.47244094488188976,
          "duration": 0.09319636914062457
        },
        {
          "name": "C#5",
          "midi": 73,
          "time": 25.04444804980473,
          "velocity": 0.7401574803149606,
          "duration": 0.08489174218749795
        },
        {
          "name": "G#4",
          "midi": 68,
          "time": 25.049061731445352,
          "velocity": 0.47244094488188976,
          "duration": 0.08489174218749795
        },
        {
          "name": "D#5",
          "midi": 75,
          "time": 25.271441186523475,
          "velocity": 0.7401574803149606,
          "duration": 0.23529776367187338
        },
        {
          "name": "B4",
          "midi": 71,
          "time": 25.2760548681641,
          "velocity": 0.47244094488188976,
          "duration": 0.23529776367187694
        },
        {
          "name": "G#5",
          "midi": 80,
          "time": 25.507200318359413,
          "velocity": 0.7874015748031497,
          "duration": 0.24821607226562747
        },
        {
          "name": "B4",
          "midi": 71,
          "time": 25.51181400000004,
          "velocity": 0.47244094488188976,
          "duration": 0.24821607226562392
        },
        {
          "name": "D#5",
          "midi": 75,
          "time": 25.8739880087891,
          "velocity": 0.7401574803149606,
          "duration": 0.09042816015625021
        },
        {
          "name": "B4",
          "midi": 71,
          "time": 25.878601690429726,
          "velocity": 0.47244094488188976,
          "duration": 0.09042816015625021
        },
        {
          "name": "F#5",
          "midi": 78,
          "time": 26.1065175634766,
          "velocity": 0.7401574803149606,
          "duration": 0.11949435449218626
        },
        {
          "name": "G#4",
          "midi": 68,
          "time": 26.111131245117225,
          "velocity": 0.47244094488188976,
          "duration": 0.11949435449218981
        },
        {
          "name": "F5",
          "midi": 77,
          "time": 26.22647328613285,
          "velocity": 0.7007874015748031,
          "duration": 0.09319636914062812
        },
        {
          "name": "D#5",
          "midi": 75,
          "time": 26.23108696777348,
          "velocity": 0.47244094488188976,
          "duration": 0.09319636914062457
        },
        {
          "name": "D#5",
          "midi": 75,
          "time": 26.461771049804728,
          "velocity": 0.7401574803149606,
          "duration": 0.08489174218749795
        },
        {
          "name": "G#4",
          "midi": 68,
          "time": 26.466384731445352,
          "velocity": 0.47244094488188976,
          "duration": 0.08489174218749795
        },
        {
          "name": "C#5",
          "midi": 73,
          "time": 26.688764186523475,
          "velocity": 0.7401574803149606,
          "duration": 0.23529776367187338
        },
        {
          "name": "A#4",
          "midi": 70,
          "time": 26.6933778681641,
          "velocity": 0.47244094488188976,
          "duration": 0.23529776367187694
        },
        {
          "name": "D#5",
          "midi": 75,
          "time": 26.924523318359412,
          "velocity": 0.7401574803149606,
          "duration": 0.25006154492187704
        },
        {
          "name": "B4",
          "midi": 71,
          "time": 26.92913700000004,
          "velocity": 0.47244094488188976,
          "duration": 0.2782050029296883
        },
        {
          "name": "C#5",
          "midi": 73,
          "time": 27.175046231445354,
          "velocity": 0.7401574803149606,
          "duration": 0.23160681835937424
        },
        {
          "name": "A#4",
          "midi": 70,
          "time": 27.179659913085978,
          "velocity": 0.47244094488188976,
          "duration": 0.25975027636718906
        },
        {
          "name": "B4",
          "midi": 71,
          "time": 27.407114417968792,
          "velocity": 0.7401574803149606,
          "duration": 0.23622049999999817
        },
        {
          "name": "G#4",
          "midi": 68,
          "time": 27.411728099609416,
          "velocity": 0.47244094488188976,
          "duration": 0.264363958007813
        },
        {
          "name": "A#4",
          "midi": 70,
          "time": 27.643796286132854,
          "velocity": 0.7401574803149606,
          "duration": 0.23483639550781277
        },
        {
          "name": "F#4",
          "midi": 66,
          "time": 27.64840996777348,
          "velocity": 0.47244094488188976,
          "duration": 0.2629798535156276
        },
        {
          "name": "D#5",
          "midi": 75,
          "time": 27.87909404980473,
          "velocity": 0.7401574803149606,
          "duration": 0.22653176855468615
        },
        {
          "name": "G#4",
          "midi": 68,
          "time": 27.883707731445355,
          "velocity": 0.47244094488188976,
          "duration": 0.25467522656250097
        },
        {
          "name": "F#5",
          "midi": 78,
          "time": 28.10608718652348,
          "velocity": 0.7007874015748031,
          "duration": 0.23529776367187694
        },
        {
          "name": "A#4",
          "midi": 70,
          "time": 28.110700868164106,
          "velocity": 0.47244094488188976,
          "duration": 0.19977241503906384
        },
        {
          "name": "B4",
          "midi": 71,
          "time": 28.346460000000047,
          "velocity": 0.47244094488188976,
          "duration": 0.24821607226562392
        },
        {
          "name": "G#5",
          "midi": 80,
          "time": 28.346460000000047,
          "velocity": 0.7874015748031497,
          "duration": 0.243602390625
        },
        {
          "name": "D#5",
          "midi": 75,
          "time": 28.708634008789108,
          "velocity": 0.7401574803149606,
          "duration": 0.09042816015625021
        },
        {
          "name": "B4",
          "midi": 71,
          "time": 28.713247690429732,
          "velocity": 0.47244094488188976,
          "duration": 0.09042816015625021
        },
        {
          "name": "F#5",
          "midi": 78,
          "time": 28.941163563476607,
          "velocity": 0.7401574803149606,
          "duration": 0.11949435449218626
        },
        {
          "name": "G#4",
          "midi": 68,
          "time": 28.94577724511723,
          "velocity": 0.47244094488188976,
          "duration": 0.11949435449218981
        },
        {
          "name": "F5",
          "midi": 77,
          "time": 29.061119286132858,
          "velocity": 0.7007874015748031,
          "duration": 0.09319636914062812
        },
        {
          "name": "B4",
          "midi": 71,
          "time": 29.065732967773485,
          "velocity": 0.47244094488188976,
          "duration": 0.09319636914062457
        },
        {
          "name": "C#5",
          "midi": 73,
          "time": 29.296417049804734,
          "velocity": 0.7401574803149606,
          "duration": 0.08489174218749795
        },
        {
          "name": "G#4",
          "midi": 68,
          "time": 29.30103073144536,
          "velocity": 0.47244094488188976,
          "duration": 0.08489174218749795
        },
        {
          "name": "D#5",
          "midi": 75,
          "time": 29.52341018652348,
          "velocity": 0.7401574803149606,
          "duration": 0.23529776367187338
        },
        {
          "name": "B4",
          "midi": 71,
          "time": 29.528023868164105,
          "velocity": 0.47244094488188976,
          "duration": 0.23529776367187338
        },
        {
          "name": "B4",
          "midi": 71,
          "time": 29.763783000000043,
          "velocity": 0.47244094488188976,
          "duration": 0.24821607226562747
        },
        {
          "name": "G#5",
          "midi": 80,
          "time": 29.77393309960942,
          "velocity": 0.7874015748031497,
          "duration": 0.24821607226562747
        },
        {
          "name": "D#5",
          "midi": 75,
          "time": 30.125957008789108,
          "velocity": 0.7401574803149606,
          "duration": 0.09042816015625021
        },
        {
          "name": "B4",
          "midi": 71,
          "time": 30.13057069042973,
          "velocity": 0.47244094488188976,
          "duration": 0.09042816015625021
        },
        {
          "name": "F#5",
          "midi": 78,
          "time": 30.358486563476607,
          "velocity": 0.7401574803149606,
          "duration": 0.11949435449218626
        },
        {
          "name": "G#4",
          "midi": 68,
          "time": 30.36310024511723,
          "velocity": 0.47244094488188976,
          "duration": 0.11949435449218981
        },
        {
          "name": "F5",
          "midi": 77,
          "time": 30.478442286132857,
          "velocity": 0.7007874015748031,
          "duration": 0.09319636914062812
        },
        {
          "name": "C#5",
          "midi": 73,
          "time": 30.483055967773485,
          "velocity": 0.47244094488188976,
          "duration": 0.09319636914062457
        },
        {
          "name": "C#5",
          "midi": 73,
          "time": 30.713740049804734,
          "velocity": 0.7401574803149606,
          "duration": 0.08489174218749795
        },
        {
          "name": "G#4",
          "midi": 68,
          "time": 30.718353731445358,
          "velocity": 0.47244094488188976,
          "duration": 0.08489174218749795
        },
        {
          "name": "D#5",
          "midi": 75,
          "time": 30.94073318652348,
          "velocity": 0.7401574803149606,
          "duration": 0.23529776367187338
        },
        {
          "name": "B4",
          "midi": 71,
          "time": 30.945346868164105,
          "velocity": 0.47244094488188976,
          "duration": 0.23529776367187338
        },
        {
          "name": "B4",
          "midi": 71,
          "time": 31.181106000000042,
          "velocity": 0.47244094488188976,
          "duration": 0.24821607226562747
        },
        {
          "name": "G#5",
          "midi": 80,
          "time": 31.19125609960942,
          "velocity": 0.7874015748031497,
          "duration": 0.24821607226562747
        },
        {
          "name": "D#5",
          "midi": 75,
          "time": 31.543280008789107,
          "velocity": 0.7401574803149606,
          "duration": 0.09042816015625021
        },
        {
          "name": "B4",
          "midi": 71,
          "time": 31.54789369042973,
          "velocity": 0.47244094488188976,
          "duration": 0.09042816015625021
        },
        {
          "name": "F#5",
          "midi": 78,
          "time": 31.775809563476606,
          "velocity": 0.7401574803149606,
          "duration": 0.11949435449218626
        },
        {
          "name": "G#4",
          "midi": 68,
          "time": 31.78042324511723,
          "velocity": 0.47244094488188976,
          "duration": 0.11949435449218981
        },
        {
          "name": "F5",
          "midi": 77,
          "time": 31.895765286132857,
          "velocity": 0.7007874015748031,
          "duration": 0.09319636914062812
        },
        {
          "name": "D#5",
          "midi": 75,
          "time": 31.900378967773484,
          "velocity": 0.47244094488188976,
          "duration": 0.09319636914062457
        },
        {
          "name": "D#5",
          "midi": 75,
          "time": 32.13106304980474,
          "velocity": 0.7401574803149606,
          "duration": 0.0848917421875015
        },
        {
          "name": "G#4",
          "midi": 68,
          "time": 32.135676731445365,
          "velocity": 0.47244094488188976,
          "duration": 0.0848917421875015
        },
        {
          "name": "C#5",
          "midi": 73,
          "time": 32.35805618652349,
          "velocity": 0.7401574803149606,
          "duration": 0.2352977636718805
        },
        {
          "name": "A#4",
          "midi": 70,
          "time": 32.36266986816412,
          "velocity": 0.47244094488188976,
          "duration": 0.23529776367187338
        },
        {
          "name": "D#5",
          "midi": 75,
          "time": 32.59381531835943,
          "velocity": 0.7401574803149606,
          "duration": 0.25006154492186994
        },
        {
          "name": "B4",
          "midi": 71,
          "time": 32.59842900000005,
          "velocity": 0.47244094488188976,
          "duration": 0.2782050029296883
        },
        {
          "name": "C#5",
          "midi": 73,
          "time": 32.84433823144536,
          "velocity": 0.7401574803149606,
          "duration": 0.23160681835938135
        },
        {
          "name": "A#4",
          "midi": 70,
          "time": 32.84895191308599,
          "velocity": 0.47244094488188976,
          "duration": 0.2597502763671926
        },
        {
          "name": "B4",
          "midi": 71,
          "time": 33.076406417968805,
          "velocity": 0.7401574803149606,
          "duration": 0.23622050000000172
        },
        {
          "name": "G#4",
          "midi": 68,
          "time": 33.08102009960943,
          "velocity": 0.47244094488188976,
          "duration": 0.264363958007813
        },
        {
          "name": "A#4",
          "midi": 70,
          "time": 33.31308828613287,
          "velocity": 0.7401574803149606,
          "duration": 0.23483639550781277
        },
        {
          "name": "F#4",
          "midi": 66,
          "time": 33.317701967773495,
          "velocity": 0.47244094488188976,
          "duration": 0.26297985351562403
        },
        {
          "name": "D#5",
          "midi": 75,
          "time": 33.54838604980474,
          "velocity": 0.7401574803149606,
          "duration": 0.22653176855469326
        },
        {
          "name": "G#4",
          "midi": 68,
          "time": 33.55299973144537,
          "velocity": 0.47244094488188976,
          "duration": 0.2546752265625045
        },
        {
          "name": "F#5",
          "midi": 78,
          "time": 33.775379186523494,
          "velocity": 0.7007874015748031,
          "duration": 0.2352977636718805
        },
        {
          "name": "A#4",
          "midi": 70,
          "time": 33.77999286816412,
          "velocity": 0.47244094488188976,
          "duration": 0.19977241503906384
        },
        {
          "name": "G#5",
          "midi": 80,
          "time": 34.01575200000006,
          "velocity": 0.7559055118110236,
          "duration": 0.22330219140624763
        },
        {
          "name": "E5",
          "midi": 76,
          "time": 34.01575200000006,
          "velocity": 0.47244094488188976,
          "duration": 0.22330219140624763
        },
        {
          "name": "E5",
          "midi": 76,
          "time": 34.25197250000006,
          "velocity": 0.7559055118110236,
          "duration": 0.22330219140624763
        },
        {
          "name": "C#5",
          "midi": 73,
          "time": 34.25197250000006,
          "velocity": 0.47244094488188976,
          "duration": 0.22330219140624763
        },
        {
          "name": "C#5",
          "midi": 73,
          "time": 34.48819300000005,
          "velocity": 0.7559055118110236,
          "duration": 0.22330219140624763
        },
        {
          "name": "A#4",
          "midi": 70,
          "time": 34.48819300000005,
          "velocity": 0.47244094488188976,
          "duration": 0.22330219140624763
        },
        {
          "name": "D#5",
          "midi": 75,
          "time": 34.72441350000005,
          "velocity": 0.7559055118110236,
          "duration": 0.22330219140624763
        },
        {
          "name": "G4",
          "midi": 67,
          "time": 34.72441350000005,
          "velocity": 0.47244094488188976,
          "duration": 0.22330219140624763
        },
        {
          "name": "G5",
          "midi": 79,
          "time": 34.96063400000004,
          "velocity": 0.7559055118110236,
          "duration": 0.22330219140624763
        },
        {
          "name": "A#4",
          "midi": 70,
          "time": 34.96063400000004,
          "velocity": 0.47244094488188976,
          "duration": 0.22330219140624763
        },
        {
          "name": "A#5",
          "midi": 82,
          "time": 35.196854500000036,
          "velocity": 0.7559055118110236,
          "duration": 0.22330219140624763
        },
        {
          "name": "D#5",
          "midi": 75,
          "time": 35.196854500000036,
          "velocity": 0.47244094488188976,
          "duration": 0.22330219140624763
        },
        {
          "name": "G#5",
          "midi": 80,
          "time": 35.43307500000003,
          "velocity": 0.7559055118110236,
          "duration": 0.22330219140624763
        },
        {
          "name": "E5",
          "midi": 76,
          "time": 35.43307500000003,
          "velocity": 0.47244094488188976,
          "duration": 0.22330219140624763
        },
        {
          "name": "E5",
          "midi": 76,
          "time": 35.669295500000025,
          "velocity": 0.7559055118110236,
          "duration": 0.22330219140624763
        },
        {
          "name": "C#5",
          "midi": 73,
          "time": 35.669295500000025,
          "velocity": 0.47244094488188976,
          "duration": 0.22330219140624763
        },
        {
          "name": "C#5",
          "midi": 73,
          "time": 35.90551600000002,
          "velocity": 0.7559055118110236,
          "duration": 0.22330219140624763
        },
        {
          "name": "A#4",
          "midi": 70,
          "time": 35.90551600000002,
          "velocity": 0.47244094488188976,
          "duration": 0.22330219140624763
        },
        {
          "name": "A#4",
          "midi": 70,
          "time": 36.141736500000015,
          "velocity": 0.7559055118110236,
          "duration": 0.22330219140624763
        },
        {
          "name": "G4",
          "midi": 67,
          "time": 36.141736500000015,
          "velocity": 0.47244094488188976,
          "duration": 0.22330219140624763
        },
        {
          "name": "D#5",
          "midi": 75,
          "time": 36.37795700000001,
          "velocity": 0.7559055118110236,
          "duration": 0.22330219140624763
        },
        {
          "name": "A#4",
          "midi": 70,
          "time": 36.37795700000001,
          "velocity": 0.47244094488188976,
          "duration": 0.22330219140624763
        },
        {
          "name": "G5",
          "midi": 79,
          "time": 36.614177500000004,
          "velocity": 0.7559055118110236,
          "duration": 0.22330219140624763
        },
        {
          "name": "D#5",
          "midi": 75,
          "time": 36.614177500000004,
          "velocity": 0.47244094488188976,
          "duration": 0.22330219140624763
        },
        {
          "name": "G#5",
          "midi": 80,
          "time": 36.850398,
          "velocity": 0.7559055118110236,
          "duration": 0.11672614550781191
        },
        {
          "name": "E5",
          "midi": 76,
          "time": 36.850398,
          "velocity": 0.47244094488188976,
          "duration": 0.11672614550781191
        },
        {
          "name": "E5",
          "midi": 76,
          "time": 37.0866185,
          "velocity": 0.6377952755905512,
          "duration": 0.11672614550781191
        },
        {
          "name": "C#5",
          "midi": 73,
          "time": 37.0866185,
          "velocity": 0.4015748031496063,
          "duration": 0.11672614550781191
        },
        {
          "name": "C#5",
          "midi": 73,
          "time": 37.322839,
          "velocity": 0.5118110236220472,
          "duration": 0.11672614550781191
        },
        {
          "name": "G#4",
          "midi": 68,
          "time": 37.322839,
          "velocity": 0.2755905511811024,
          "duration": 0.11672614550781191
        },
        {
          "name": "D#5",
          "midi": 75,
          "time": 37.559059500000004,
          "velocity": 0.3858267716535433,
          "duration": 0.17578127050781234
        },
        {
          "name": "G4",
          "midi": 67,
          "time": 37.559059500000004,
          "velocity": 0.14960629921259844,
          "duration": 0.17578127050781234
        },
        {
          "name": "A#3",
          "midi": 58,
          "time": 37.913390250000006,
          "velocity": 0.4094488188976378,
          "duration": 0.1111897275390632
        },
        {
          "name": "G3",
          "midi": 55,
          "time": 37.913390250000006,
          "velocity": 0.4094488188976378,
          "duration": 0.1111897275390632
        },
        {
          "name": "C#4",
          "midi": 61,
          "time": 38.03150050000001,
          "velocity": 0.47244094488188976,
          "duration": 0.1111897275390632
        },
        {
          "name": "A#3",
          "midi": 58,
          "time": 38.03150050000001,
          "velocity": 0.47244094488188976,
          "duration": 0.1111897275390632
        },
        {
          "name": "E4",
          "midi": 64,
          "time": 38.14961075000001,
          "velocity": 0.5511811023622047,
          "duration": 0.1111897275390632
        },
        {
          "name": "C#4",
          "midi": 61,
          "time": 38.14961075000001,
          "velocity": 0.5511811023622047,
          "duration": 0.1111897275390632
        },
        {
          "name": "G#3",
          "midi": 56,
          "time": 38.26772100000001,
          "velocity": 0.6299212598425197,
          "duration": 0.33541465527343917
        },
        {
          "name": "D#4",
          "midi": 63,
          "time": 38.26772100000001,
          "velocity": 0.6299212598425197,
          "duration": 0.33541465527343917
        },
        {
          "name": "B3",
          "midi": 59,
          "time": 38.26772100000001,
          "velocity": 0.23622047244094488,
          "duration": 0.24821607226562747
        },
        {
          "name": "D#4",
          "midi": 63,
          "time": 38.62205175000001,
          "velocity": 0.6299212598425197,
          "duration": 0.22330219140624763
        },
        {
          "name": "G#4",
          "midi": 68,
          "time": 38.62205175000001,
          "velocity": 0.6299212598425197,
          "duration": 0.22330219140624763
        },
        {
          "name": "G#4",
          "midi": 68,
          "time": 38.858272250000006,
          "velocity": 0.6299212598425197,
          "duration": 0.1111897275390632
        },
        {
          "name": "B4",
          "midi": 71,
          "time": 38.858272250000006,
          "velocity": 0.6299212598425197,
          "duration": 0.1111897275390632
        },
        {
          "name": "G#4",
          "midi": 68,
          "time": 38.97638250000001,
          "velocity": 0.6299212598425197,
          "duration": 0.11672614550781191
        },
        {
          "name": "E4",
          "midi": 64,
          "time": 38.97638250000001,
          "velocity": 0.6299212598425197,
          "duration": 0.11672614550781191
        },
        {
          "name": "D#4",
          "midi": 63,
          "time": 38.986993967773444,
          "velocity": 0.23622047244094488,
          "duration": 0.09319636914062812
        },
        {
          "name": "A#4",
          "midi": 70,
          "time": 39.21260300000001,
          "velocity": 0.6299212598425197,
          "duration": 0.1111897275390632
        },
        {
          "name": "G4",
          "midi": 67,
          "time": 39.21260300000001,
          "velocity": 0.6299212598425197,
          "duration": 0.22330219140625474
        },
        {
          "name": "F#4",
          "midi": 66,
          "time": 39.222291731445324,
          "velocity": 0.23622047244094488,
          "duration": 0.1268762451171881
        },
        {
          "name": "B4",
          "midi": 71,
          "time": 39.33071325000001,
          "velocity": 0.6299212598425197,
          "duration": 0.1111897275390632
        },
        {
          "name": "G#4",
          "midi": 68,
          "time": 39.3357882998047,
          "velocity": 0.23622047244094488,
          "duration": 0.1268762451171881
        },
        {
          "name": "C#5",
          "midi": 73,
          "time": 39.44882350000001,
          "velocity": 0.6299212598425197,
          "duration": 0.1111897275390632
        },
        {
          "name": "G4",
          "midi": 67,
          "time": 39.44882350000001,
          "velocity": 0.6299212598425197,
          "duration": 0.22330219140624763
        },
        {
          "name": "A#4",
          "midi": 70,
          "time": 39.44928486816407,
          "velocity": 0.23622047244094488,
          "duration": 0.11534204101563006
        },
        {
          "name": "F#4",
          "midi": 66,
          "time": 39.56508827734376,
          "velocity": 0.23622047244094488,
          "duration": 0.13333539941405803
        },
        {
          "name": "A#4",
          "midi": 70,
          "time": 39.56693375000001,
          "velocity": 0.6299212598425197,
          "duration": 0.1111897275390561
        },
        {
          "name": "G#4",
          "midi": 68,
          "time": 39.685044000000005,
          "velocity": 0.6299212598425197,
          "duration": 0.33541465527343917
        },
        {
          "name": "B4",
          "midi": 71,
          "time": 39.685044000000005,
          "velocity": 0.6299212598425197,
          "duration": 0.33541465527343917
        },
        {
          "name": "E4",
          "midi": 64,
          "time": 40.03937475000001,
          "velocity": 0.6299212598425197,
          "duration": 0.33541465527344627
        },
        {
          "name": "A#4",
          "midi": 70,
          "time": 40.03937475000001,
          "velocity": 0.6299212598425197,
          "duration": 0.28235731640625517
        },
        {
          "name": "F#4",
          "midi": 66,
          "time": 40.051831690429694,
          "velocity": 0.23622047244094488,
          "duration": 0.26021164453125323
        },
        {
          "name": "G#4",
          "midi": 68,
          "time": 40.27559525000001,
          "velocity": 0.6299212598425197,
          "duration": 0.05767102050781858
        },
        {
          "name": "F#4",
          "midi": 66,
          "time": 40.33465037500002,
          "velocity": 0.6299212598425197,
          "duration": 0.05767102050781148
        },
        {
          "name": "C#4",
          "midi": 61,
          "time": 40.39370550000002,
          "velocity": 0.6299212598425197,
          "duration": 0.11672614550781191
        },
        {
          "name": "E4",
          "midi": 64,
          "time": 40.39370550000002,
          "velocity": 0.6299212598425197,
          "duration": 0.11672614550781191
        },
        {
          "name": "G4",
          "midi": 67,
          "time": 40.62992600000002,
          "velocity": 0.6299212598425197,
          "duration": 0.1111897275390632
        },
        {
          "name": "A#4",
          "midi": 70,
          "time": 40.62992600000002,
          "velocity": 0.6299212598425197,
          "duration": 0.1111897275390632
        },
        {
          "name": "F#4",
          "midi": 66,
          "time": 40.639614731445334,
          "velocity": 0.23622047244094488,
          "duration": 0.1268762451171881
        },
        {
          "name": "G#4",
          "midi": 68,
          "time": 40.74803625000002,
          "velocity": 0.6299212598425197,
          "duration": 0.1111897275390632
        },
        {
          "name": "B4",
          "midi": 71,
          "time": 40.74803625000002,
          "velocity": 0.6299212598425197,
          "duration": 0.1111897275390632
        },
        {
          "name": "A#4",
          "midi": 70,
          "time": 40.86614650000002,
          "velocity": 0.6299212598425197,
          "duration": 0.1111897275390632
        },
        {
          "name": "C#5",
          "midi": 73,
          "time": 40.86614650000002,
          "velocity": 0.6299212598425197,
          "duration": 0.1111897275390632
        },
        {
          "name": "B4",
          "midi": 71,
          "time": 40.98425675000002,
          "velocity": 0.6299212598425197,
          "duration": 0.1111897275390632
        },
        {
          "name": "D#5",
          "midi": 75,
          "time": 40.98425675000002,
          "velocity": 0.6299212598425197,
          "duration": 0.1111897275390632
        },
        {
          "name": "G#4",
          "midi": 68,
          "time": 41.10236700000002,
          "velocity": 0.6299212598425197,
          "duration": 0.33541465527343917
        },
        {
          "name": "B4",
          "midi": 71,
          "time": 41.10236700000002,
          "velocity": 0.6299212598425197,
          "duration": 0.33541465527343917
        },
        {
          "name": "F#4",
          "midi": 66,
          "time": 41.10236700000002,
          "velocity": 0.23622047244094488,
          "duration": 0.38016736718750366
        },
        {
          "name": "D#4",
          "midi": 63,
          "time": 41.456697750000025,
          "velocity": 0.6299212598425197,
          "duration": 0.22330219140624763
        },
        {
          "name": "A#4",
          "midi": 70,
          "time": 41.456697750000025,
          "velocity": 0.6299212598425197,
          "duration": 0.22330219140624763
        },
        {
          "name": "D#4",
          "midi": 63,
          "time": 41.69291825000002,
          "velocity": 0.6299212598425197,
          "duration": 0.1111897275390632
        },
        {
          "name": "B3",
          "midi": 59,
          "time": 41.70168424511721,
          "velocity": 0.23622047244094488,
          "duration": 0.13333539941406514
        },
        {
          "name": "C#4",
          "midi": 61,
          "time": 41.81102850000002,
          "velocity": 0.6299212598425197,
          "duration": 0.22330219140625474
        },
        {
          "name": "G#4",
          "midi": 68,
          "time": 41.81102850000002,
          "velocity": 0.6299212598425197,
          "duration": 0.22330219140625474
        },
        {
          "name": "D#4",
          "midi": 63,
          "time": 41.82163996777346,
          "velocity": 0.23622047244094488,
          "duration": 0.13333539941406514
        },
        {
          "name": "B3",
          "midi": 59,
          "time": 42.04724900000002,
          "velocity": 0.6299212598425197,
          "duration": 0.22330219140625474
        },
        {
          "name": "F#4",
          "midi": 66,
          "time": 42.04724900000002,
          "velocity": 0.6299212598425197,
          "duration": 0.22330219140625474
        },
        {
          "name": "C#4",
          "midi": 61,
          "time": 42.05693773144534,
          "velocity": 0.23622047244094488,
          "duration": 0.0848917421875015
        },
        {
          "name": "C#4",
          "midi": 61,
          "time": 42.283469500000024,
          "velocity": 0.6299212598425197,
          "duration": 0.22330219140624763
        },
        {
          "name": "E4",
          "midi": 64,
          "time": 42.283469500000024,
          "velocity": 0.6299212598425197,
          "duration": 0.22330219140624763
        },
        {
          "name": "B3",
          "midi": 59,
          "time": 42.283930868164084,
          "velocity": 0.23622047244094488,
          "duration": 0.09365773730468874
        },
        {
          "name": "F#4",
          "midi": 66,
          "time": 42.51969000000002,
          "velocity": 0.6299212598425197,
          "duration": 0.1111897275390632
        },
        {
          "name": "A#3",
          "midi": 58,
          "time": 42.51969000000002,
          "velocity": 0.6299212598425197,
          "duration": 0.33541465527343917
        },
        {
          "name": "C#4",
          "midi": 61,
          "time": 42.51969000000002,
          "velocity": 0.23622047244094488,
          "duration": 0.13333539941406514
        },
        {
          "name": "E4",
          "midi": 64,
          "time": 42.63780025000002,
          "velocity": 0.6299212598425197,
          "duration": 0.1111897275390632
        },
        {
          "name": "C#4",
          "midi": 61,
          "time": 42.653486767578144,
          "velocity": 0.23622047244094488,
          "duration": 0.13010582226562661
        },
        {
          "name": "D#4",
          "midi": 63,
          "time": 42.75591050000002,
          "velocity": 0.6299212598425197,
          "duration": 0.1111897275390632
        },
        {
          "name": "B3",
          "midi": 59,
          "time": 42.770212913085956,
          "velocity": 0.23622047244094488,
          "duration": 0.129644454101566
        },
        {
          "name": "C#4",
          "midi": 61,
          "time": 42.87402075000002,
          "velocity": 0.6299212598425197,
          "duration": 0.22330219140625474
        },
        {
          "name": "G#3",
          "midi": 56,
          "time": 42.87402075000002,
          "velocity": 0.6299212598425197,
          "duration": 0.22330219140625474
        },
        {
          "name": "A#3",
          "midi": 58,
          "time": 42.88647769042971,
          "velocity": 0.23622047244094488,
          "duration": 0.2011565195312528
        },
        {
          "name": "G#4",
          "midi": 68,
          "time": 43.11024125000002,
          "velocity": 0.6299212598425197,
          "duration": 0.1111897275390632
        },
        {
          "name": "A#3",
          "midi": 58,
          "time": 43.11024125000002,
          "velocity": 0.6299212598425197,
          "duration": 0.1111897275390632
        },
        {
          "name": "D#4",
          "midi": 63,
          "time": 43.11900724511721,
          "velocity": 0.23622047244094488,
          "duration": 0.10473057324218615
        },
        {
          "name": "B3",
          "midi": 59,
          "time": 43.228351500000024,
          "velocity": 0.6299212598425197,
          "duration": 0.33541465527343917
        },
        {
          "name": "D#4",
          "midi": 63,
          "time": 43.228351500000024,
          "velocity": 0.6299212598425197,
          "duration": 0.33541465527343917
        },
        {
          "name": "A#3",
          "midi": 58,
          "time": 43.23896296777346,
          "velocity": 0.23622047244094488,
          "duration": 0.32664866015625194
        },
        {
          "name": "E3",
          "midi": 52,
          "time": 43.582682250000026,
          "velocity": 0.6299212598425197,
          "duration": 0.1111897275390632
        },
        {
          "name": "A#3",
          "midi": 58,
          "time": 43.582682250000026,
          "velocity": 0.6299212598425197,
          "duration": 0.1111897275390632
        },
        {
          "name": "A#3",
          "midi": 58,
          "time": 43.70079250000003,
          "velocity": 0.6299212598425197,
          "duration": 0.1111897275390632
        },
        {
          "name": "C#4",
          "midi": 61,
          "time": 43.70079250000003,
          "velocity": 0.6299212598425197,
          "duration": 0.1111897275390632
        },
        {
          "name": "B3",
          "midi": 59,
          "time": 43.81705727734378,
          "velocity": 0.23622047244094488,
          "duration": 0.11949435449218981
        },
        {
          "name": "G3",
          "midi": 55,
          "time": 43.81890275000003,
          "velocity": 0.6299212598425197,
          "duration": 0.1111897275390632
        },
        {
          "name": "E4",
          "midi": 64,
          "time": 43.81890275000003,
          "velocity": 0.6299212598425197,
          "duration": 0.1111897275390632
        },
        {
          "name": "G#3",
          "midi": 56,
          "time": 43.93701300000003,
          "velocity": 0.6299212598425197,
          "duration": 0.33541465527343917
        },
        {
          "name": "D#4",
          "midi": 63,
          "time": 43.93701300000003,
          "velocity": 0.6299212598425197,
          "duration": 0.33541465527343917
        },
        {
          "name": "B3",
          "midi": 59,
          "time": 43.93701300000003,
          "velocity": 0.23622047244094488,
          "duration": 0.2620571171875028
        },
        {
          "name": "D#4",
          "midi": 63,
          "time": 44.29134375000003,
          "velocity": 0.6299212598425197,
          "duration": 0.22330219140624763
        },
        {
          "name": "G#4",
          "midi": 68,
          "time": 44.29134375000003,
          "velocity": 0.6299212598425197,
          "duration": 0.22330219140624763
        },
        {
          "name": "G#4",
          "midi": 68,
          "time": 44.527564250000026,
          "velocity": 0.6299212598425197,
          "duration": 0.1111897275390632
        },
        {
          "name": "B4",
          "midi": 71,
          "time": 44.527564250000026,
          "velocity": 0.6299212598425197,
          "duration": 0.1111897275390632
        },
        {
          "name": "G#4",
          "midi": 68,
          "time": 44.64567450000003,
          "velocity": 0.6299212598425197,
          "duration": 0.11672614550781191
        },
        {
          "name": "E4",
          "midi": 64,
          "time": 44.64567450000003,
          "velocity": 0.6299212598425197,
          "duration": 0.11672614550781191
        },
        {
          "name": "D#4",
          "midi": 63,
          "time": 44.656285967773464,
          "velocity": 0.23622047244094488,
          "duration": 0.09319636914062812
        },
        {
          "name": "A#4",
          "midi": 70,
          "time": 44.88189500000003,
          "velocity": 0.6299212598425197,
          "duration": 0.1111897275390632
        },
        {
          "name": "G4",
          "midi": 67,
          "time": 44.88189500000003,
          "velocity": 0.6299212598425197,
          "duration": 0.22330219140625474
        },
        {
          "name": "F#4",
          "midi": 66,
          "time": 44.891583731445344,
          "velocity": 0.23622047244094488,
          "duration": 0.1268762451171881
        },
        {
          "name": "B4",
          "midi": 71,
          "time": 45.00000525000003,
          "velocity": 0.6299212598425197,
          "duration": 0.1111897275390632
        },
        {
          "name": "G#4",
          "midi": 68,
          "time": 45.00508029980472,
          "velocity": 0.23622047244094488,
          "duration": 0.1268762451171881
        },
        {
          "name": "C#5",
          "midi": 73,
          "time": 45.11811550000003,
          "velocity": 0.6299212598425197,
          "duration": 0.1111897275390632
        },
        {
          "name": "G4",
          "midi": 67,
          "time": 45.11811550000003,
          "velocity": 0.6299212598425197,
          "duration": 0.22330219140624763
        },
        {
          "name": "A#4",
          "midi": 70,
          "time": 45.11857686816409,
          "velocity": 0.23622047244094488,
          "duration": 0.11534204101563006
        },
        {
          "name": "F#4",
          "midi": 66,
          "time": 45.23438027734378,
          "velocity": 0.23622047244094488,
          "duration": 0.13333539941405803
        },
        {
          "name": "A#4",
          "midi": 70,
          "time": 45.23622575000003,
          "velocity": 0.6299212598425197,
          "duration": 0.1111897275390561
        },
        {
          "name": "G#4",
          "midi": 68,
          "time": 45.354336000000025,
          "velocity": 0.6299212598425197,
          "duration": 0.33541465527343917
        },
        {
          "name": "B4",
          "midi": 71,
          "time": 45.354336000000025,
          "velocity": 0.6299212598425197,
          "duration": 0.33541465527343917
        },
        {
          "name": "E4",
          "midi": 64,
          "time": 45.70866675000003,
          "velocity": 0.6299212598425197,
          "duration": 0.33541465527344627
        },
        {
          "name": "A#4",
          "midi": 70,
          "time": 45.70866675000003,
          "velocity": 0.6299212598425197,
          "duration": 0.28235731640625517
        },
        {
          "name": "F#4",
          "midi": 66,
          "time": 45.721123690429714,
          "velocity": 0.23622047244094488,
          "duration": 0.26021164453125323
        },
        {
          "name": "G#4",
          "midi": 68,
          "time": 45.94488725000003,
          "velocity": 0.6299212598425197,
          "duration": 0.05767102050781858
        },
        {
          "name": "F#4",
          "midi": 66,
          "time": 46.00394237500004,
          "velocity": 0.6299212598425197,
          "duration": 0.05767102050781148
        },
        {
          "name": "C#4",
          "midi": 61,
          "time": 46.06299750000004,
          "velocity": 0.6299212598425197,
          "duration": 0.11672614550781191
        },
        {
          "name": "E4",
          "midi": 64,
          "time": 46.06299750000004,
          "velocity": 0.6299212598425197,
          "duration": 0.11672614550781191
        },
        {
          "name": "G4",
          "midi": 67,
          "time": 46.29921800000004,
          "velocity": 0.6299212598425197,
          "duration": 0.1111897275390632
        },
        {
          "name": "A#4",
          "midi": 70,
          "time": 46.29921800000004,
          "velocity": 0.6299212598425197,
          "duration": 0.1111897275390632
        },
        {
          "name": "F#4",
          "midi": 66,
          "time": 46.308906731445354,
          "velocity": 0.23622047244094488,
          "duration": 0.1268762451171881
        },
        {
          "name": "G#4",
          "midi": 68,
          "time": 46.41732825000004,
          "velocity": 0.6299212598425197,
          "duration": 0.1111897275390632
        },
        {
          "name": "B4",
          "midi": 71,
          "time": 46.41732825000004,
          "velocity": 0.6299212598425197,
          "duration": 0.1111897275390632
        },
        {
          "name": "A#4",
          "midi": 70,
          "time": 46.53543850000004,
          "velocity": 0.6299212598425197,
          "duration": 0.1111897275390632
        },
        {
          "name": "C#5",
          "midi": 73,
          "time": 46.53543850000004,
          "velocity": 0.6299212598425197,
          "duration": 0.1111897275390632
        },
        {
          "name": "B4",
          "midi": 71,
          "time": 46.65354875000004,
          "velocity": 0.6299212598425197,
          "duration": 0.1111897275390632
        },
        {
          "name": "D#5",
          "midi": 75,
          "time": 46.65354875000004,
          "velocity": 0.6299212598425197,
          "duration": 0.1111897275390632
        },
        {
          "name": "F#4",
          "midi": 66,
          "time": 46.77165900000004,
          "velocity": 0.23622047244094488,
          "duration": 0.38016736718750366
        },
        {
          "name": "B4",
          "midi": 71,
          "time": 46.77165900000004,
          "velocity": 0.6299212598425197,
          "duration": 0.33541465527343917
        },
        {
          "name": "G#4",
          "midi": 68,
          "time": 46.77165900000004,
          "velocity": 0.6299212598425197,
          "duration": 0.33541465527343917
        },
        {
          "name": "D#4",
          "midi": 63,
          "time": 47.125989750000045,
          "velocity": 0.6299212598425197,
          "duration": 0.22330219140624763
        },
        {
          "name": "A#4",
          "midi": 70,
          "time": 47.125989750000045,
          "velocity": 0.6299212598425197,
          "duration": 0.22330219140624763
        },
        {
          "name": "D#4",
          "midi": 63,
          "time": 47.36221025000004,
          "velocity": 0.6299212598425197,
          "duration": 0.1111897275390632
        },
        {
          "name": "B3",
          "midi": 59,
          "time": 47.37097624511723,
          "velocity": 0.23622047244094488,
          "duration": 0.13333539941406514
        },
        {
          "name": "C#4",
          "midi": 61,
          "time": 47.48032050000004,
          "velocity": 0.6299212598425197,
          "duration": 0.22330219140625474
        },
        {
          "name": "G#4",
          "midi": 68,
          "time": 47.48032050000004,
          "velocity": 0.6299212598425197,
          "duration": 0.22330219140625474
        },
        {
          "name": "D#4",
          "midi": 63,
          "time": 47.49093196777348,
          "velocity": 0.23622047244094488,
          "duration": 0.13333539941406514
        },
        {
          "name": "B3",
          "midi": 59,
          "time": 47.71654100000004,
          "velocity": 0.6299212598425197,
          "duration": 0.22330219140625474
        },
        {
          "name": "F#4",
          "midi": 66,
          "time": 47.71654100000004,
          "velocity": 0.6299212598425197,
          "duration": 0.22330219140625474
        },
        {
          "name": "C#4",
          "midi": 61,
          "time": 47.72622973144536,
          "velocity": 0.23622047244094488,
          "duration": 0.0848917421875015
        },
        {
          "name": "C#4",
          "midi": 61,
          "time": 47.952761500000044,
          "velocity": 0.6299212598425197,
          "duration": 0.22330219140624763
        },
        {
          "name": "E4",
          "midi": 64,
          "time": 47.952761500000044,
          "velocity": 0.6299212598425197,
          "duration": 0.22330219140624763
        },
        {
          "name": "B3",
          "midi": 59,
          "time": 47.953222868164104,
          "velocity": 0.23622047244094488,
          "duration": 0.09365773730468874
        },
        {
          "name": "C#4",
          "midi": 61,
          "time": 48.18898200000004,
          "velocity": 0.23622047244094488,
          "duration": 0.13333539941406514
        },
        {
          "name": "A#3",
          "midi": 58,
          "time": 48.18898200000004,
          "velocity": 0.6299212598425197,
          "duration": 0.33541465527343917
        },
        {
          "name": "F#4",
          "midi": 66,
          "time": 48.18898200000004,
          "velocity": 0.6299212598425197,
          "duration": 0.1111897275390632
        },
        {
          "name": "E4",
          "midi": 64,
          "time": 48.30709225000004,
          "velocity": 0.6299212598425197,
          "duration": 0.1111897275390632
        },
        {
          "name": "C#4",
          "midi": 61,
          "time": 48.322778767578164,
          "velocity": 0.23622047244094488,
          "duration": 0.13010582226562661
        },
        {
          "name": "D#4",
          "midi": 63,
          "time": 48.42520250000004,
          "velocity": 0.6299212598425197,
          "duration": 0.1111897275390632
        },
        {
          "name": "B3",
          "midi": 59,
          "time": 48.439504913085976,
          "velocity": 0.23622047244094488,
          "duration": 0.129644454101566
        },
        {
          "name": "C#4",
          "midi": 61,
          "time": 48.54331275000004,
          "velocity": 0.6299212598425197,
          "duration": 0.22330219140625474
        },
        {
          "name": "G#3",
          "midi": 56,
          "time": 48.54331275000004,
          "velocity": 0.6299212598425197,
          "duration": 0.22330219140625474
        },
        {
          "name": "A#3",
          "midi": 58,
          "time": 48.55576969042973,
          "velocity": 0.23622047244094488,
          "duration": 0.2011565195312528
        },
        {
          "name": "G#4",
          "midi": 68,
          "time": 48.77953325000004,
          "velocity": 0.6299212598425197,
          "duration": 0.1111897275390632
        },
        {
          "name": "A#3",
          "midi": 58,
          "time": 48.77953325000004,
          "velocity": 0.6299212598425197,
          "duration": 0.1111897275390632
        },
        {
          "name": "D#4",
          "midi": 63,
          "time": 48.78829924511723,
          "velocity": 0.23622047244094488,
          "duration": 0.10473057324218615
        },
        {
          "name": "B3",
          "midi": 59,
          "time": 48.897643500000044,
          "velocity": 0.6299212598425197,
          "duration": 0.33541465527343917
        },
        {
          "name": "D#4",
          "midi": 63,
          "time": 48.897643500000044,
          "velocity": 0.6299212598425197,
          "duration": 0.33541465527343917
        },
        {
          "name": "A#3",
          "midi": 58,
          "time": 48.90825496777348,
          "velocity": 0.23622047244094488,
          "duration": 0.32664866015625194
        },
        {
          "name": "A#4",
          "midi": 70,
          "time": 50.55118700000004,
          "velocity": 0.3937007874015748,
          "duration": 0.11811025000000086
        },
        {
          "name": "B4",
          "midi": 71,
          "time": 50.66929725000004,
          "velocity": 0.3937007874015748,
          "duration": 0.11811025000000086
        },
        {
          "name": "A#4",
          "midi": 70,
          "time": 50.78740750000004,
          "velocity": 0.3937007874015748,
          "duration": 0.11811025000000086
        },
        {
          "name": "B4",
          "midi": 71,
          "time": 50.905517750000044,
          "velocity": 0.3937007874015748,
          "duration": 0.11811025000000086
        },
        {
          "name": "A#4",
          "midi": 70,
          "time": 51.023628000000045,
          "velocity": 0.3937007874015748,
          "duration": 0.3543307500000026
        },
        {
          "name": "C#5",
          "midi": 73,
          "time": 51.37795875000005,
          "velocity": 0.3937007874015748,
          "duration": 0.3543307500000026
        },
        {
          "name": "G#4",
          "midi": 68,
          "time": 51.73228950000005,
          "velocity": 0.3937007874015748,
          "duration": 0.47244100000000344
        },
        {
          "name": "A#4",
          "midi": 70,
          "time": 53.385833000000055,
          "velocity": 0.3937007874015748,
          "duration": 0.11811025000000086
        },
        {
          "name": "B4",
          "midi": 71,
          "time": 53.503943250000056,
          "velocity": 0.3937007874015748,
          "duration": 0.11811025000000086
        },
        {
          "name": "A#4",
          "midi": 70,
          "time": 53.62205350000006,
          "velocity": 0.3937007874015748,
          "duration": 0.11811025000000086
        },
        {
          "name": "C#5",
          "midi": 73,
          "time": 53.74016375000006,
          "velocity": 0.3937007874015748,
          "duration": 0.11811025000000086
        },
        {
          "name": "G#4",
          "midi": 68,
          "time": 53.85827400000006,
          "velocity": 0.3937007874015748,
          "duration": 0.3543307500000026
        },
        {
          "name": "D#5",
          "midi": 75,
          "time": 54.21260475000006,
          "velocity": 0.3937007874015748,
          "duration": 0.3543307500000026
        },
        {
          "name": "C#5",
          "midi": 73,
          "time": 54.56693550000006,
          "velocity": 0.3937007874015748,
          "duration": 0.3543307500000026
        },
        {
          "name": "A#4",
          "midi": 70,
          "time": 54.921266250000066,
          "velocity": 0.3937007874015748,
          "duration": 0.3543307500000026
        },
        {
          "name": "B4",
          "midi": 71,
          "time": 55.27559700000007,
          "velocity": 0.3937007874015748,
          "duration": 0.7086614999999981
        },
        {
          "name": "A#4",
          "midi": 70,
          "time": 56.22047900000007,
          "velocity": 0.3937007874015748,
          "duration": 0.11811025000000086
        },
        {
          "name": "B4",
          "midi": 71,
          "time": 56.33858925000007,
          "velocity": 0.3937007874015748,
          "duration": 0.11811025000000086
        },
        {
          "name": "A#4",
          "midi": 70,
          "time": 56.45669950000007,
          "velocity": 0.3937007874015748,
          "duration": 0.11811025000000086
        },
        {
          "name": "B4",
          "midi": 71,
          "time": 56.57480975000007,
          "velocity": 0.3937007874015748,
          "duration": 0.11811025000000086
        },
        {
          "name": "A#4",
          "midi": 70,
          "time": 56.69292000000007,
          "velocity": 0.3937007874015748,
          "duration": 0.3543307500000026
        },
        {
          "name": "C#5",
          "midi": 73,
          "time": 57.047250750000075,
          "velocity": 0.3937007874015748,
          "duration": 0.3543307500000026
        },
        {
          "name": "G#4",
          "midi": 68,
          "time": 57.40158150000008,
          "velocity": 0.3937007874015748,
          "duration": 0.47244100000000344
        },
        {
          "name": "A#4",
          "midi": 70,
          "time": 59.05512500000008,
          "velocity": 0.3937007874015748,
          "duration": 0.11811025000000086
        },
        {
          "name": "B4",
          "midi": 71,
          "time": 59.17323525000008,
          "velocity": 0.3937007874015748,
          "duration": 0.11811025000000086
        },
        {
          "name": "A#4",
          "midi": 70,
          "time": 59.291345500000084,
          "velocity": 0.3937007874015748,
          "duration": 0.11811025000000086
        },
        {
          "name": "C#5",
          "midi": 73,
          "time": 59.409455750000085,
          "velocity": 0.3937007874015748,
          "duration": 0.11811025000000086
        },
        {
          "name": "G#4",
          "midi": 68,
          "time": 59.527566000000085,
          "velocity": 0.3937007874015748,
          "duration": 0.3543307500000026
        },
        {
          "name": "D#5",
          "midi": 75,
          "time": 59.88189675000009,
          "velocity": 0.3937007874015748,
          "duration": 0.3543307500000026
        },
        {
          "name": "C#5",
          "midi": 73,
          "time": 60.23622750000009,
          "velocity": 0.3937007874015748,
          "duration": 0.5905512500000043
        },
        {
          "name": "G3",
          "midi": 55,
          "time": 60.59055825000009,
          "velocity": 0.47244094488188976,
          "duration": 0.1111897275390632
        },
        {
          "name": "A#3",
          "midi": 58,
          "time": 60.59055825000009,
          "velocity": 0.47244094488188976,
          "duration": 0.1111897275390632
        },
        {
          "name": "A#3",
          "midi": 58,
          "time": 60.708668500000094,
          "velocity": 0.47244094488188976,
          "duration": 0.1111897275390632
        },
        {
          "name": "C#4",
          "midi": 61,
          "time": 60.708668500000094,
          "velocity": 0.5511811023622047,
          "duration": 0.1111897275390632
        },
        {
          "name": "C#4",
          "midi": 61,
          "time": 60.826778750000095,
          "velocity": 0.6299212598425197,
          "duration": 0.1111897275390632
        },
        {
          "name": "E4",
          "midi": 64,
          "time": 60.826778750000095,
          "velocity": 0.6299212598425197,
          "duration": 0.1111897275390632
        },
        {
          "name": "D#4",
          "midi": 63,
          "time": 60.944889000000096,
          "velocity": 0.6299212598425197,
          "duration": 0.33541465527343917
        },
        {
          "name": "G#3",
          "midi": 56,
          "time": 60.944889000000096,
          "velocity": 0.6299212598425197,
          "duration": 0.33541465527343917
        },
        {
          "name": "B3",
          "midi": 59,
          "time": 60.944889000000096,
          "velocity": 0.23622047244094488,
          "duration": 0.24821607226562747
        },
        {
          "name": "G#4",
          "midi": 68,
          "time": 61.2992197500001,
          "velocity": 0.6299212598425197,
          "duration": 0.22330219140624763
        },
        {
          "name": "D#4",
          "midi": 63,
          "time": 61.2992197500001,
          "velocity": 0.6299212598425197,
          "duration": 0.22330219140624763
        },
        {
          "name": "B4",
          "midi": 71,
          "time": 61.53544025000009,
          "velocity": 0.6299212598425197,
          "duration": 0.1111897275390632
        },
        {
          "name": "G#4",
          "midi": 68,
          "time": 61.53544025000009,
          "velocity": 0.6299212598425197,
          "duration": 0.1111897275390632
        },
        {
          "name": "E4",
          "midi": 64,
          "time": 61.653550500000094,
          "velocity": 0.6299212598425197,
          "duration": 0.11672614550781191
        },
        {
          "name": "G#4",
          "midi": 68,
          "time": 61.653550500000094,
          "velocity": 0.6299212598425197,
          "duration": 0.11672614550781191
        },
        {
          "name": "D#4",
          "midi": 63,
          "time": 61.66416196777353,
          "velocity": 0.23622047244094488,
          "duration": 0.09319636914062812
        },
        {
          "name": "G4",
          "midi": 67,
          "time": 61.889771000000096,
          "velocity": 0.6299212598425197,
          "duration": 0.22330219140625474
        },
        {
          "name": "A#4",
          "midi": 70,
          "time": 61.889771000000096,
          "velocity": 0.6299212598425197,
          "duration": 0.1111897275390632
        },
        {
          "name": "F#4",
          "midi": 66,
          "time": 61.89945973144541,
          "velocity": 0.23622047244094488,
          "duration": 0.1268762451171881
        },
        {
          "name": "B4",
          "midi": 71,
          "time": 62.007881250000096,
          "velocity": 0.6299212598425197,
          "duration": 0.1111897275390632
        },
        {
          "name": "G#4",
          "midi": 68,
          "time": 62.012956299804785,
          "velocity": 0.23622047244094488,
          "duration": 0.1268762451171881
        },
        {
          "name": "G4",
          "midi": 67,
          "time": 62.1259915000001,
          "velocity": 0.6299212598425197,
          "duration": 0.22330219140624763
        },
        {
          "name": "C#5",
          "midi": 73,
          "time": 62.1259915000001,
          "velocity": 0.6299212598425197,
          "duration": 0.1111897275390632
        },
        {
          "name": "A#4",
          "midi": 70,
          "time": 62.12645286816416,
          "velocity": 0.23622047244094488,
          "duration": 0.11534204101563006
        },
        {
          "name": "F#4",
          "midi": 66,
          "time": 62.24225627734385,
          "velocity": 0.23622047244094488,
          "duration": 0.13333539941405803
        },
        {
          "name": "A#4",
          "midi": 70,
          "time": 62.2441017500001,
          "velocity": 0.6299212598425197,
          "duration": 0.1111897275390561
        },
        {
          "name": "B4",
          "midi": 71,
          "time": 62.36221200000009,
          "velocity": 0.6299212598425197,
          "duration": 0.33541465527343917
        },
        {
          "name": "G#4",
          "midi": 68,
          "time": 62.36221200000009,
          "velocity": 0.6299212598425197,
          "duration": 0.33541465527343917
        },
        {
          "name": "A#4",
          "midi": 70,
          "time": 62.716542750000094,
          "velocity": 0.6299212598425197,
          "duration": 0.28235731640625517
        },
        {
          "name": "E4",
          "midi": 64,
          "time": 62.716542750000094,
          "velocity": 0.6299212598425197,
          "duration": 0.33541465527344627
        },
        {
          "name": "F#4",
          "midi": 66,
          "time": 62.72899969042978,
          "velocity": 0.23622047244094488,
          "duration": 0.26021164453125323
        },
        {
          "name": "G#4",
          "midi": 68,
          "time": 62.952763250000096,
          "velocity": 0.6299212598425197,
          "duration": 0.05767102050781858
        },
        {
          "name": "F#4",
          "midi": 66,
          "time": 63.011818375000104,
          "velocity": 0.6299212598425197,
          "duration": 0.05767102050781148
        },
        {
          "name": "E4",
          "midi": 64,
          "time": 63.070873500000104,
          "velocity": 0.6299212598425197,
          "duration": 0.11672614550781191
        },
        {
          "name": "C#4",
          "midi": 61,
          "time": 63.070873500000104,
          "velocity": 0.6299212598425197,
          "duration": 0.11672614550781191
        },
        {
          "name": "A#4",
          "midi": 70,
          "time": 63.307094000000106,
          "velocity": 0.6299212598425197,
          "duration": 0.1111897275390632
        },
        {
          "name": "G4",
          "midi": 67,
          "time": 63.307094000000106,
          "velocity": 0.6299212598425197,
          "duration": 0.1111897275390632
        },
        {
          "name": "F#4",
          "midi": 66,
          "time": 63.31678273144542,
          "velocity": 0.23622047244094488,
          "duration": 0.1268762451171881
        },
        {
          "name": "B4",
          "midi": 71,
          "time": 63.42520425000011,
          "velocity": 0.6299212598425197,
          "duration": 0.1111897275390632
        },
        {
          "name": "G#4",
          "midi": 68,
          "time": 63.42520425000011,
          "velocity": 0.6299212598425197,
          "duration": 0.1111897275390632
        },
        {
          "name": "C#5",
          "midi": 73,
          "time": 63.54331450000011,
          "velocity": 0.6299212598425197,
          "duration": 0.1111897275390632
        },
        {
          "name": "A#4",
          "midi": 70,
          "time": 63.54331450000011,
          "velocity": 0.6299212598425197,
          "duration": 0.1111897275390632
        },
        {
          "name": "D#5",
          "midi": 75,
          "time": 63.66142475000011,
          "velocity": 0.6299212598425197,
          "duration": 0.1111897275390632
        },
        {
          "name": "B4",
          "midi": 71,
          "time": 63.66142475000011,
          "velocity": 0.6299212598425197,
          "duration": 0.1111897275390632
        },
        {
          "name": "B4",
          "midi": 71,
          "time": 63.77953500000011,
          "velocity": 0.6299212598425197,
          "duration": 0.33541465527343917
        },
        {
          "name": "G#4",
          "midi": 68,
          "time": 63.77953500000011,
          "velocity": 0.6299212598425197,
          "duration": 0.33541465527343917
        },
        {
          "name": "F#4",
          "midi": 66,
          "time": 63.77953500000011,
          "velocity": 0.23622047244094488,
          "duration": 0.38016736718749655
        },
        {
          "name": "A#4",
          "midi": 70,
          "time": 64.13386575000011,
          "velocity": 0.6299212598425197,
          "duration": 0.22330219140624763
        },
        {
          "name": "D#4",
          "midi": 63,
          "time": 64.13386575000011,
          "velocity": 0.6299212598425197,
          "duration": 0.22330219140624763
        },
        {
          "name": "D#4",
          "midi": 63,
          "time": 64.37008625000011,
          "velocity": 0.6299212598425197,
          "duration": 0.1111897275390561
        },
        {
          "name": "B3",
          "midi": 59,
          "time": 64.3788522451173,
          "velocity": 0.23622047244094488,
          "duration": 0.13333539941405093
        },
        {
          "name": "G#4",
          "midi": 68,
          "time": 64.4881965000001,
          "velocity": 0.6299212598425197,
          "duration": 0.22330219140624763
        },
        {
          "name": "C#4",
          "midi": 61,
          "time": 64.4881965000001,
          "velocity": 0.6299212598425197,
          "duration": 0.22330219140624763
        },
        {
          "name": "D#4",
          "midi": 63,
          "time": 64.49880796777354,
          "velocity": 0.23622047244094488,
          "duration": 0.13333539941405093
        },
        {
          "name": "F#4",
          "midi": 66,
          "time": 64.7244170000001,
          "velocity": 0.6299212598425197,
          "duration": 0.22330219140623342
        },
        {
          "name": "B3",
          "midi": 59,
          "time": 64.7244170000001,
          "velocity": 0.6299212598425197,
          "duration": 0.22330219140623342
        },
        {
          "name": "C#4",
          "midi": 61,
          "time": 64.73410573144541,
          "velocity": 0.23622047244094488,
          "duration": 0.0848917421874944
        },
        {
          "name": "E4",
          "midi": 64,
          "time": 64.96063750000009,
          "velocity": 0.6299212598425197,
          "duration": 0.22330219140624763
        },
        {
          "name": "C#4",
          "midi": 61,
          "time": 64.96063750000009,
          "velocity": 0.6299212598425197,
          "duration": 0.22330219140624763
        },
        {
          "name": "B3",
          "midi": 59,
          "time": 64.96109886816416,
          "velocity": 0.23622047244094488,
          "duration": 0.09365773730468163
        },
        {
          "name": "A#3",
          "midi": 58,
          "time": 65.19685800000009,
          "velocity": 0.6299212598425197,
          "duration": 0.33541465527342496
        },
        {
          "name": "F#4",
          "midi": 66,
          "time": 65.19685800000009,
          "velocity": 0.6299212598425197,
          "duration": 0.1111897275390561
        },
        {
          "name": "C#4",
          "midi": 61,
          "time": 65.19685800000009,
          "velocity": 0.23622047244094488,
          "duration": 0.13333539941405093
        },
        {
          "name": "E4",
          "midi": 64,
          "time": 65.31496825000008,
          "velocity": 0.6299212598425197,
          "duration": 0.1111897275390703
        },
        {
          "name": "C#4",
          "midi": 61,
          "time": 65.33065476757821,
          "velocity": 0.23622047244094488,
          "duration": 0.1301058222656195
        },
        {
          "name": "D#4",
          "midi": 63,
          "time": 65.43307850000008,
          "velocity": 0.6299212598425197,
          "duration": 0.1111897275390561
        },
        {
          "name": "B3",
          "midi": 59,
          "time": 65.44738091308602,
          "velocity": 0.23622047244094488,
          "duration": 0.12964445410153758
        },
        {
          "name": "G#3",
          "midi": 56,
          "time": 65.55118875000007,
          "velocity": 0.6299212598425197,
          "duration": 0.22330219140623342
        },
        {
          "name": "C#4",
          "midi": 61,
          "time": 65.55118875000007,
          "velocity": 0.6299212598425197,
          "duration": 0.22330219140623342
        },
        {
          "name": "A#3",
          "midi": 58,
          "time": 65.56364569042975,
          "velocity": 0.23622047244094488,
          "duration": 0.2011565195312386
        },
        {
          "name": "A#3",
          "midi": 58,
          "time": 65.78740925000005,
          "velocity": 0.6299212598425197,
          "duration": 0.1111897275390561
        },
        {
          "name": "G#4",
          "midi": 68,
          "time": 65.78740925000005,
          "velocity": 0.6299212598425197,
          "duration": 0.1111897275390561
        },
        {
          "name": "D#4",
          "midi": 63,
          "time": 65.79617524511724,
          "velocity": 0.23622047244094488,
          "duration": 0.10473057324217905
        },
        {
          "name": "D#4",
          "midi": 63,
          "time": 65.90551950000004,
          "velocity": 0.6299212598425197,
          "duration": 0.33541465527343917
        },
        {
          "name": "B3",
          "midi": 59,
          "time": 65.90551950000004,
          "velocity": 0.6299212598425197,
          "duration": 0.33541465527343917
        },
        {
          "name": "A#3",
          "midi": 58,
          "time": 65.91613096777348,
          "velocity": 0.23622047244094488,
          "duration": 0.32664866015625194
        },
        {
          "name": "A#3",
          "midi": 58,
          "time": 66.25985025000004,
          "velocity": 0.6299212598425197,
          "duration": 0.1111897275390561
        },
        {
          "name": "E3",
          "midi": 52,
          "time": 66.25985025000004,
          "velocity": 0.6299212598425197,
          "duration": 0.1111897275390561
        },
        {
          "name": "C#4",
          "midi": 61,
          "time": 66.37796050000003,
          "velocity": 0.6299212598425197,
          "duration": 0.1111897275390561
        },
        {
          "name": "A#3",
          "midi": 58,
          "time": 66.37796050000003,
          "velocity": 0.6299212598425197,
          "duration": 0.1111897275390561
        },
        {
          "name": "B3",
          "midi": 59,
          "time": 66.49422527734377,
          "velocity": 0.23622047244094488,
          "duration": 0.11949435449218981
        },
        {
          "name": "E4",
          "midi": 64,
          "time": 66.49607075000003,
          "velocity": 0.6299212598425197,
          "duration": 0.1111897275390561
        },
        {
          "name": "G3",
          "midi": 55,
          "time": 66.49607075000003,
          "velocity": 0.6299212598425197,
          "duration": 0.1111897275390561
        },
        {
          "name": "D#4",
          "midi": 63,
          "time": 66.61418100000003,
          "velocity": 0.6299212598425197,
          "duration": 0.33541465527343917
        },
        {
          "name": "G#3",
          "midi": 56,
          "time": 66.61418100000003,
          "velocity": 0.6299212598425197,
          "duration": 0.33541465527343917
        },
        {
          "name": "B3",
          "midi": 59,
          "time": 66.61418100000003,
          "velocity": 0.23622047244094488,
          "duration": 0.2620571171874957
        },
        {
          "name": "G#4",
          "midi": 68,
          "time": 66.96851175000003,
          "velocity": 0.6299212598425197,
          "duration": 0.22330219140624763
        },
        {
          "name": "D#4",
          "midi": 63,
          "time": 66.96851175000003,
          "velocity": 0.6299212598425197,
          "duration": 0.22330219140624763
        },
        {
          "name": "B4",
          "midi": 71,
          "time": 67.20473225000003,
          "velocity": 0.6299212598425197,
          "duration": 0.1111897275390561
        },
        {
          "name": "G#4",
          "midi": 68,
          "time": 67.20473225000003,
          "velocity": 0.6299212598425197,
          "duration": 0.1111897275390561
        },
        {
          "name": "E4",
          "midi": 64,
          "time": 67.32284250000002,
          "velocity": 0.6299212598425197,
          "duration": 0.11672614550782612
        },
        {
          "name": "G#4",
          "midi": 68,
          "time": 67.32284250000002,
          "velocity": 0.6299212598425197,
          "duration": 0.11672614550782612
        },
        {
          "name": "D#4",
          "midi": 63,
          "time": 67.33345396777347,
          "velocity": 0.23622047244094488,
          "duration": 0.09319636914062812
        },
        {
          "name": "G4",
          "midi": 67,
          "time": 67.55906300000004,
          "velocity": 0.6299212598425197,
          "duration": 0.22330219140623342
        },
        {
          "name": "A#4",
          "midi": 70,
          "time": 67.55906300000004,
          "velocity": 0.6299212598425197,
          "duration": 0.1111897275390561
        },
        {
          "name": "F#4",
          "midi": 66,
          "time": 67.56875173144535,
          "velocity": 0.23622047244094488,
          "duration": 0.12687624511717388
        },
        {
          "name": "B4",
          "midi": 71,
          "time": 67.67717325000002,
          "velocity": 0.6299212598425197,
          "duration": 0.1111897275390561
        },
        {
          "name": "G#4",
          "midi": 68,
          "time": 67.68224829980471,
          "velocity": 0.23622047244094488,
          "duration": 0.12687624511717388
        },
        {
          "name": "G4",
          "midi": 67,
          "time": 67.79528350000001,
          "velocity": 0.6299212598425197,
          "duration": 0.22330219140624763
        },
        {
          "name": "C#5",
          "midi": 73,
          "time": 67.79528350000001,
          "velocity": 0.6299212598425197,
          "duration": 0.1111897275390561
        },
        {
          "name": "A#4",
          "midi": 70,
          "time": 67.79574486816408,
          "velocity": 0.23622047244094488,
          "duration": 0.11534204101560874
        },
        {
          "name": "F#4",
          "midi": 66,
          "time": 67.91154827734375,
          "velocity": 0.23622047244094488,
          "duration": 0.13333539941405093
        },
        {
          "name": "A#4",
          "midi": 70,
          "time": 67.91339375000001,
          "velocity": 0.6299212598425197,
          "duration": 0.1111897275390561
        },
        {
          "name": "B4",
          "midi": 71,
          "time": 68.031504,
          "velocity": 0.6299212598425197,
          "duration": 0.33541465527343917
        },
        {
          "name": "G#4",
          "midi": 68,
          "time": 68.031504,
          "velocity": 0.6299212598425197,
          "duration": 0.33541465527343917
        },
        {
          "name": "A#4",
          "midi": 70,
          "time": 68.38583475,
          "velocity": 0.6299212598425197,
          "duration": 0.28235731640624806
        },
        {
          "name": "E4",
          "midi": 64,
          "time": 68.38583475,
          "velocity": 0.6299212598425197,
          "duration": 0.33541465527343917
        },
        {
          "name": "F#4",
          "midi": 66,
          "time": 68.39829169042969,
          "velocity": 0.23622047244094488,
          "duration": 0.26021164453125323
        },
        {
          "name": "G#4",
          "midi": 68,
          "time": 68.62205525,
          "velocity": 0.6299212598425197,
          "duration": 0.05767102050781148
        },
        {
          "name": "F#4",
          "midi": 66,
          "time": 68.681110375,
          "velocity": 0.6299212598425197,
          "duration": 0.05767102050781148
        },
        {
          "name": "E4",
          "midi": 64,
          "time": 68.7401655,
          "velocity": 0.6299212598425197,
          "duration": 0.11672614550781191
        },
        {
          "name": "C#4",
          "midi": 61,
          "time": 68.7401655,
          "velocity": 0.6299212598425197,
          "duration": 0.11672614550781191
        },
        {
          "name": "A#4",
          "midi": 70,
          "time": 68.976386,
          "velocity": 0.6299212598425197,
          "duration": 0.1111897275390561
        },
        {
          "name": "G4",
          "midi": 67,
          "time": 68.976386,
          "velocity": 0.6299212598425197,
          "duration": 0.1111897275390561
        },
        {
          "name": "F#4",
          "midi": 66,
          "time": 68.98607473144531,
          "velocity": 0.23622047244094488,
          "duration": 0.12687624511717388
        },
        {
          "name": "B4",
          "midi": 71,
          "time": 69.09449624999999,
          "velocity": 0.6299212598425197,
          "duration": 0.1111897275390561
        },
        {
          "name": "G#4",
          "midi": 68,
          "time": 69.09449624999999,
          "velocity": 0.6299212598425197,
          "duration": 0.1111897275390561
        },
        {
          "name": "C#5",
          "midi": 73,
          "time": 69.21260649999998,
          "velocity": 0.6299212598425197,
          "duration": 0.1111897275390561
        },
        {
          "name": "A#4",
          "midi": 70,
          "time": 69.21260649999998,
          "velocity": 0.6299212598425197,
          "duration": 0.1111897275390561
        },
        {
          "name": "D#5",
          "midi": 75,
          "time": 69.33071674999997,
          "velocity": 0.6299212598425197,
          "duration": 0.1111897275390561
        },
        {
          "name": "B4",
          "midi": 71,
          "time": 69.33071674999997,
          "velocity": 0.6299212598425197,
          "duration": 0.1111897275390561
        },
        {
          "name": "B4",
          "midi": 71,
          "time": 69.44882699999995,
          "velocity": 0.6299212598425197,
          "duration": 0.33541465527343917
        },
        {
          "name": "G#4",
          "midi": 68,
          "time": 69.44882699999995,
          "velocity": 0.6299212598425197,
          "duration": 0.33541465527343917
        },
        {
          "name": "F#4",
          "midi": 66,
          "time": 69.44882699999995,
          "velocity": 0.23622047244094488,
          "duration": 0.38016736718749655
        },
        {
          "name": "A#4",
          "midi": 70,
          "time": 69.80315774999995,
          "velocity": 0.6299212598425197,
          "duration": 0.22330219140624763
        },
        {
          "name": "D#4",
          "midi": 63,
          "time": 69.80315774999995,
          "velocity": 0.6299212598425197,
          "duration": 0.22330219140624763
        },
        {
          "name": "D#4",
          "midi": 63,
          "time": 70.03937824999996,
          "velocity": 0.6299212598425197,
          "duration": 0.1111897275390561
        },
        {
          "name": "B3",
          "midi": 59,
          "time": 70.04814424511714,
          "velocity": 0.23622047244094488,
          "duration": 0.13333539941405093
        },
        {
          "name": "G#4",
          "midi": 68,
          "time": 70.15748849999994,
          "velocity": 0.6299212598425197,
          "duration": 0.22330219140624763
        },
        {
          "name": "C#4",
          "midi": 61,
          "time": 70.15748849999994,
          "velocity": 0.6299212598425197,
          "duration": 0.22330219140624763
        },
        {
          "name": "D#4",
          "midi": 63,
          "time": 70.16809996777339,
          "velocity": 0.23622047244094488,
          "duration": 0.13333539941405093
        },
        {
          "name": "F#4",
          "midi": 66,
          "time": 70.39370899999994,
          "velocity": 0.6299212598425197,
          "duration": 0.22330219140623342
        },
        {
          "name": "B3",
          "midi": 59,
          "time": 70.39370899999994,
          "velocity": 0.6299212598425197,
          "duration": 0.22330219140623342
        },
        {
          "name": "C#4",
          "midi": 61,
          "time": 70.40339773144525,
          "velocity": 0.23622047244094488,
          "duration": 0.0848917421874944
        },
        {
          "name": "E4",
          "midi": 64,
          "time": 70.62992949999993,
          "velocity": 0.6299212598425197,
          "duration": 0.22330219140624763
        },
        {
          "name": "C#4",
          "midi": 61,
          "time": 70.62992949999993,
          "velocity": 0.6299212598425197,
          "duration": 0.22330219140624763
        },
        {
          "name": "B3",
          "midi": 59,
          "time": 70.630390868164,
          "velocity": 0.23622047244094488,
          "duration": 0.09365773730468163
        },
        {
          "name": "A#3",
          "midi": 58,
          "time": 70.86614999999993,
          "velocity": 0.6299212598425197,
          "duration": 0.33541465527342496
        },
        {
          "name": "F#4",
          "midi": 66,
          "time": 70.86614999999993,
          "velocity": 0.6299212598425197,
          "duration": 0.1111897275390561
        },
        {
          "name": "C#4",
          "midi": 61,
          "time": 70.86614999999993,
          "velocity": 0.23622047244094488,
          "duration": 0.13333539941405093
        },
        {
          "name": "E4",
          "midi": 64,
          "time": 70.98426024999992,
          "velocity": 0.6299212598425197,
          "duration": 0.1111897275390703
        },
        {
          "name": "C#4",
          "midi": 61,
          "time": 70.99994676757805,
          "velocity": 0.23622047244094488,
          "duration": 0.1301058222656195
        },
        {
          "name": "D#4",
          "midi": 63,
          "time": 71.10237049999992,
          "velocity": 0.6299212598425197,
          "duration": 0.1111897275390561
        },
        {
          "name": "B3",
          "midi": 59,
          "time": 71.11667291308586,
          "velocity": 0.23622047244094488,
          "duration": 0.12964445410153758
        },
        {
          "name": "G#3",
          "midi": 56,
          "time": 71.22048074999991,
          "velocity": 0.6299212598425197,
          "duration": 0.22330219140623342
        },
        {
          "name": "C#4",
          "midi": 61,
          "time": 71.22048074999991,
          "velocity": 0.6299212598425197,
          "duration": 0.22330219140623342
        },
        {
          "name": "A#3",
          "midi": 58,
          "time": 71.2329376904296,
          "velocity": 0.23622047244094488,
          "duration": 0.2011565195312386
        },
        {
          "name": "A#3",
          "midi": 58,
          "time": 71.4567012499999,
          "velocity": 0.6299212598425197,
          "duration": 0.1111897275390561
        },
        {
          "name": "G#4",
          "midi": 68,
          "time": 71.4567012499999,
          "velocity": 0.6299212598425197,
          "duration": 0.1111897275390561
        },
        {
          "name": "D#4",
          "midi": 63,
          "time": 71.46546724511708,
          "velocity": 0.23622047244094488,
          "duration": 0.10473057324217905
        },
        {
          "name": "D#4",
          "midi": 63,
          "time": 71.57481149999988,
          "velocity": 0.6299212598425197,
          "duration": 0.33541465527343917
        },
        {
          "name": "B3",
          "midi": 59,
          "time": 71.57481149999988,
          "velocity": 0.6299212598425197,
          "duration": 0.33541465527343917
        },
        {
          "name": "A#3",
          "midi": 58,
          "time": 71.58542296777333,
          "velocity": 0.23622047244094488,
          "duration": 0.32664866015625194
        },
        {
          "name": "A#4",
          "midi": 70,
          "time": 73.2283549999999,
          "velocity": 0.3937007874015748,
          "duration": 0.11811025000000086
        },
        {
          "name": "B4",
          "midi": 71,
          "time": 73.3464652499999,
          "velocity": 0.3937007874015748,
          "duration": 0.11811025000000086
        },
        {
          "name": "A#4",
          "midi": 70,
          "time": 73.4645754999999,
          "velocity": 0.3937007874015748,
          "duration": 0.11811025000000086
        },
        {
          "name": "B4",
          "midi": 71,
          "time": 73.5826857499999,
          "velocity": 0.3937007874015748,
          "duration": 0.11811025000000086
        },
        {
          "name": "A#4",
          "midi": 70,
          "time": 73.7007959999999,
          "velocity": 0.3937007874015748,
          "duration": 0.3543307500000026
        },
        {
          "name": "C#5",
          "midi": 73,
          "time": 74.0551267499999,
          "velocity": 0.3937007874015748,
          "duration": 0.3543307500000026
        },
        {
          "name": "G#4",
          "midi": 68,
          "time": 74.4094574999999,
          "velocity": 0.3937007874015748,
          "duration": 0.47244100000000344
        },
        {
          "name": "A#4",
          "midi": 70,
          "time": 76.0630009999999,
          "velocity": 0.3937007874015748,
          "duration": 0.11811025000000086
        },
        {
          "name": "B4",
          "midi": 71,
          "time": 76.1811112499999,
          "velocity": 0.3937007874015748,
          "duration": 0.11811025000000086
        },
        {
          "name": "A#4",
          "midi": 70,
          "time": 76.2992214999999,
          "velocity": 0.3937007874015748,
          "duration": 0.11811025000000086
        },
        {
          "name": "C#5",
          "midi": 73,
          "time": 76.4173317499999,
          "velocity": 0.3937007874015748,
          "duration": 0.11811025000000086
        },
        {
          "name": "G#4",
          "midi": 68,
          "time": 76.5354419999999,
          "velocity": 0.3937007874015748,
          "duration": 0.3543307500000026
        },
        {
          "name": "D#5",
          "midi": 75,
          "time": 76.8897727499999,
          "velocity": 0.3937007874015748,
          "duration": 0.3543307500000026
        },
        {
          "name": "C#5",
          "midi": 73,
          "time": 77.24410349999991,
          "velocity": 0.3937007874015748,
          "duration": 0.3543307500000026
        },
        {
          "name": "A#4",
          "midi": 70,
          "time": 77.59843424999991,
          "velocity": 0.3937007874015748,
          "duration": 0.3543307500000026
        },
        {
          "name": "B4",
          "midi": 71,
          "time": 77.95276499999991,
          "velocity": 0.3937007874015748,
          "duration": 0.7086615000000052
        },
        {
          "name": "A#4",
          "midi": 70,
          "time": 78.89764699999992,
          "velocity": 0.3937007874015748,
          "duration": 0.11811025000000086
        },
        {
          "name": "B4",
          "midi": 71,
          "time": 79.01575724999992,
          "velocity": 0.3937007874015748,
          "duration": 0.11811025000000086
        },
        {
          "name": "A#4",
          "midi": 70,
          "time": 79.13386749999992,
          "velocity": 0.3937007874015748,
          "duration": 0.11811025000000086
        },
        {
          "name": "B4",
          "midi": 71,
          "time": 79.25197774999992,
          "velocity": 0.3937007874015748,
          "duration": 0.11811025000000086
        },
        {
          "name": "A#4",
          "midi": 70,
          "time": 79.37008799999992,
          "velocity": 0.3937007874015748,
          "duration": 0.3543307500000026
        },
        {
          "name": "C#5",
          "midi": 73,
          "time": 79.72441874999993,
          "velocity": 0.3937007874015748,
          "duration": 0.3543307500000026
        },
        {
          "name": "G#4",
          "midi": 68,
          "time": 80.07874949999993,
          "velocity": 0.3937007874015748,
          "duration": 0.47244100000000344
        },
        {
          "name": "A#4",
          "midi": 70,
          "time": 81.73229299999993,
          "velocity": 0.3937007874015748,
          "duration": 0.11811025000000086
        },
        {
          "name": "B4",
          "midi": 71,
          "time": 81.85040324999993,
          "velocity": 0.3937007874015748,
          "duration": 0.11811025000000086
        },
        {
          "name": "A#4",
          "midi": 70,
          "time": 81.96851349999993,
          "velocity": 0.3937007874015748,
          "duration": 0.11811025000000086
        },
        {
          "name": "C#5",
          "midi": 73,
          "time": 82.08662374999993,
          "velocity": 0.3937007874015748,
          "duration": 0.11811025000000086
        },
        {
          "name": "G#4",
          "midi": 68,
          "time": 82.20473399999993,
          "velocity": 0.3937007874015748,
          "duration": 0.3543307500000026
        },
        {
          "name": "D#5",
          "midi": 75,
          "time": 82.55906474999993,
          "velocity": 0.3937007874015748,
          "duration": 0.3543307500000026
        },
        {
          "name": "C#5",
          "midi": 73,
          "time": 82.91339549999994,
          "velocity": 0.3937007874015748,
          "duration": 0.5905512500000043
        },
        {
          "name": "A#3",
          "midi": 58,
          "time": 94.96064099999994,
          "velocity": 0.6692913385826772,
          "duration": 0.24821607226562037
        },
        {
          "name": "D4",
          "midi": 62,
          "time": 94.96064099999994,
          "velocity": 0.7795275590551181,
          "duration": 0.24821607226562037
        },
        {
          "name": "D4",
          "midi": 62,
          "time": 95.32742869042963,
          "velocity": 0.6299212598425197,
          "duration": 0.09042816015625021
        },
        {
          "name": "G4",
          "midi": 67,
          "time": 95.32742869042963,
          "velocity": 0.7401574803149606,
          "duration": 0.09042816015625021
        },
        {
          "name": "G4",
          "midi": 67,
          "time": 95.55995824511713,
          "velocity": 0.6299212598425197,
          "duration": 0.11949435449218981
        },
        {
          "name": "A#4",
          "midi": 70,
          "time": 95.55995824511713,
          "velocity": 0.7401574803149606,
          "duration": 0.11949435449218981
        },
        {
          "name": "D4",
          "midi": 62,
          "time": 95.67991396777339,
          "velocity": 0.6299212598425197,
          "duration": 0.09319636914062812
        },
        {
          "name": "G4",
          "midi": 67,
          "time": 95.67991396777339,
          "velocity": 0.7401574803149606,
          "duration": 0.09319636914062812
        },
        {
          "name": "F4",
          "midi": 65,
          "time": 95.91521173144527,
          "velocity": 0.6299212598425197,
          "duration": 0.1268762451171881
        },
        {
          "name": "A4",
          "midi": 69,
          "time": 95.91521173144527,
          "velocity": 0.7401574803149606,
          "duration": 0.11303520019531277
        },
        {
          "name": "G4",
          "midi": 67,
          "time": 96.02870829980465,
          "velocity": 0.6299212598425197,
          "duration": 0.1268762451171881
        },
        {
          "name": "A#4",
          "midi": 70,
          "time": 96.02870829980465,
          "velocity": 0.7401574803149606,
          "duration": 0.11303520019531277
        },
        {
          "name": "A4",
          "midi": 69,
          "time": 96.14220486816403,
          "velocity": 0.6299212598425197,
          "duration": 0.11534204101562295
        },
        {
          "name": "C5",
          "midi": 72,
          "time": 96.14220486816403,
          "velocity": 0.7401574803149606,
          "duration": 0.11534204101562295
        },
        {
          "name": "F4",
          "midi": 65,
          "time": 96.25800827734372,
          "velocity": 0.6299212598425197,
          "duration": 0.13333539941406514
        },
        {
          "name": "A4",
          "midi": 69,
          "time": 96.25800827734372,
          "velocity": 0.7401574803149606,
          "duration": 0.11949435449218981
        },
        {
          "name": "G4",
          "midi": 67,
          "time": 96.37796399999998,
          "velocity": 0.6299212598425197,
          "duration": 0.38016736718749655
        },
        {
          "name": "A#4",
          "midi": 70,
          "time": 96.37796399999998,
          "velocity": 0.7401574803149606,
          "duration": 0.36632632226562123
        },
        {
          "name": "F4",
          "midi": 65,
          "time": 96.74475169042967,
          "velocity": 0.6299212598425197,
          "duration": 0.26021164453125323
        },
        {
          "name": "A4",
          "midi": 69,
          "time": 96.74475169042967,
          "velocity": 0.7401574803149606,
          "duration": 0.23206818652343486
        },
        {
          "name": "G4",
          "midi": 67,
          "time": 96.97728124511717,
          "velocity": 0.6929133858267716,
          "duration": 0.06505291113280975
        },
        {
          "name": "F4",
          "midi": 65,
          "time": 97.0358750019531,
          "velocity": 0.6929133858267716,
          "duration": 0.06782112011718766
        },
        {
          "name": "C4",
          "midi": 60,
          "time": 97.09723696777341,
          "velocity": 0.5905511811023622,
          "duration": 0.13333539941406514
        },
        {
          "name": "D#4",
          "midi": 63,
          "time": 97.09723696777341,
          "velocity": 0.7007874015748031,
          "duration": 0.09319636914062812
        },
        {
          "name": "F4",
          "midi": 65,
          "time": 97.33253473144529,
          "velocity": 0.6299212598425197,
          "duration": 0.1268762451171881
        },
        {
          "name": "A4",
          "midi": 69,
          "time": 97.33253473144529,
          "velocity": 0.7401574803149606,
          "duration": 0.11303520019531277
        },
        {
          "name": "G4",
          "midi": 67,
          "time": 97.44603129980467,
          "velocity": 0.6299212598425197,
          "duration": 0.1268762451171881
        },
        {
          "name": "A#4",
          "midi": 70,
          "time": 97.44603129980467,
          "velocity": 0.7401574803149606,
          "duration": 0.11303520019531277
        },
        {
          "name": "A4",
          "midi": 69,
          "time": 97.55952786816405,
          "velocity": 0.6299212598425197,
          "duration": 0.12918308593749828
        },
        {
          "name": "C5",
          "midi": 72,
          "time": 97.55952786816405,
          "velocity": 0.7401574803149606,
          "duration": 0.11534204101562295
        },
        {
          "name": "A#4",
          "midi": 70,
          "time": 97.67533127734374,
          "velocity": 0.6299212598425197,
          "duration": 0.1194943544921756
        },
        {
          "name": "D5",
          "midi": 74,
          "time": 97.67533127734374,
          "velocity": 0.7401574803149606,
          "duration": 0.1194943544921756
        },
        {
          "name": "F4",
          "midi": 65,
          "time": 97.79528699999999,
          "velocity": 0.6299212598425197,
          "duration": 0.38016736718749655
        },
        {
          "name": "A#4",
          "midi": 70,
          "time": 97.79528699999999,
          "velocity": 0.7401574803149606,
          "duration": 0.36632632226562123
        },
        {
          "name": "D4",
          "midi": 62,
          "time": 98.16207469042968,
          "velocity": 0.6299212598425197,
          "duration": 0.26021164453125323
        },
        {
          "name": "A4",
          "midi": 69,
          "time": 98.16207469042968,
          "velocity": 0.7401574803149606,
          "duration": 0.23206818652343486
        },
        {
          "name": "A#3",
          "midi": 58,
          "time": 98.39460424511718,
          "velocity": 0.6299212598425197,
          "duration": 0.13333539941406514
        },
        {
          "name": "D#4",
          "midi": 63,
          "time": 98.39460424511718,
          "velocity": 0.7401574803149606,
          "duration": 0.11949435449218981
        },
        {
          "name": "D4",
          "midi": 62,
          "time": 98.51455996777344,
          "velocity": 0.5905511811023622,
          "duration": 0.13333539941405093
        },
        {
          "name": "G4",
          "midi": 67,
          "time": 98.51455996777344,
          "velocity": 0.7007874015748031,
          "duration": 0.09319636914061391
        },
        {
          "name": "C4",
          "midi": 60,
          "time": 98.7498577314453,
          "velocity": 0.6299212598425197,
          "duration": 0.0848917421874944
        },
        {
          "name": "F4",
          "midi": 65,
          "time": 98.7498577314453,
          "velocity": 0.7401574803149606,
          "duration": 0.0848917421874944
        },
        {
          "name": "A#3",
          "midi": 58,
          "time": 98.97685086816405,
          "velocity": 0.6299212598425197,
          "duration": 0.09365773730468163
        },
        {
          "name": "D#4",
          "midi": 63,
          "time": 98.97685086816405,
          "velocity": 0.7401574803149606,
          "duration": 0.09365773730468163
        },
        {
          "name": "C4",
          "midi": 60,
          "time": 99.21260999999998,
          "velocity": 0.6299212598425197,
          "duration": 0.13333539941406514
        },
        {
          "name": "F4",
          "midi": 65,
          "time": 99.21260999999998,
          "velocity": 0.7401574803149606,
          "duration": 0.13333539941406514
        },
        {
          "name": "C4",
          "midi": 60,
          "time": 99.34640676757812,
          "velocity": 0.6299212598425197,
          "duration": 0.1301058222656195
        },
        {
          "name": "D#4",
          "midi": 63,
          "time": 99.34640676757812,
          "velocity": 0.7401574803149606,
          "duration": 0.11626477734374419
        },
        {
          "name": "A#3",
          "midi": 58,
          "time": 99.46313291308593,
          "velocity": 0.6299212598425197,
          "duration": 0.1296444541015518
        },
        {
          "name": "D4",
          "midi": 62,
          "time": 99.46313291308593,
          "velocity": 0.7401574803149606,
          "duration": 0.11580340917967646
        },
        {
          "name": "A3",
          "midi": 57,
          "time": 99.57939769042967,
          "velocity": 0.6299212598425197,
          "duration": 0.26021164453125323
        },
        {
          "name": "C4",
          "midi": 60,
          "time": 99.57939769042967,
          "velocity": 0.7401574803149606,
          "duration": 0.23206818652343486
        },
        {
          "name": "D4",
          "midi": 62,
          "time": 99.81192724511718,
          "velocity": 0.6299212598425197,
          "duration": 0.11949435449218981
        },
        {
          "name": "G4",
          "midi": 67,
          "time": 99.81192724511718,
          "velocity": 0.7401574803149606,
          "duration": 0.11949435449218981
        },
        {
          "name": "A3",
          "midi": 57,
          "time": 99.93188296777343,
          "velocity": 0.5905511811023622,
          "duration": 0.32664866015625194
        },
        {
          "name": "D4",
          "midi": 62,
          "time": 99.93188296777343,
          "velocity": 0.7007874015748031,
          "duration": 0.34833296386719326
        },
        {
          "name": "F3",
          "midi": 53,
          "time": 100.2806772998047,
          "velocity": 0.6929133858267716,
          "duration": 0.1268762451171881
        },
        {
          "name": "A3",
          "midi": 57,
          "time": 100.39417386816407,
          "velocity": 0.6299212598425197,
          "duration": 0.12918308593749828
        },
        {
          "name": "C4",
          "midi": 60,
          "time": 100.39417386816407,
          "velocity": 0.7401574803149606,
          "duration": 0.11534204101562295
        },
        {
          "name": "A#3",
          "midi": 58,
          "time": 100.50997727734376,
          "velocity": 0.47244094488188976,
          "duration": 0.1194943544921756
        },
        {
          "name": "D#4",
          "midi": 63,
          "time": 100.50997727734376,
          "velocity": 0.7401574803149606,
          "duration": 0.1194943544921756
        },
        {
          "name": "A#3",
          "midi": 58,
          "time": 100.62993300000001,
          "velocity": 0.6299212598425197,
          "duration": 0.2620571171874957
        },
        {
          "name": "D4",
          "midi": 62,
          "time": 100.62993300000001,
          "velocity": 0.7401574803149606,
          "duration": 0.24821607226562037
        },
        {
          "name": "D4",
          "midi": 62,
          "time": 100.9967206904297,
          "velocity": 0.5905511811023622,
          "duration": 0.13056719042968723
        },
        {
          "name": "G4",
          "midi": 67,
          "time": 100.9967206904297,
          "velocity": 0.7007874015748031,
          "duration": 0.09042816015625021
        },
        {
          "name": "G4",
          "midi": 67,
          "time": 101.2292502451172,
          "velocity": 0.6299212598425197,
          "duration": 0.11949435449218981
        },
        {
          "name": "A#4",
          "midi": 70,
          "time": 101.2292502451172,
          "velocity": 0.7401574803149606,
          "duration": 0.11949435449218981
        },
        {
          "name": "D4",
          "midi": 62,
          "time": 101.34920596777346,
          "velocity": 0.6299212598425197,
          "duration": 0.09319636914062812
        },
        {
          "name": "G4",
          "midi": 67,
          "time": 101.34920596777346,
          "velocity": 0.7401574803149606,
          "duration": 0.09319636914062812
        },
        {
          "name": "F4",
          "midi": 65,
          "time": 101.58450373144534,
          "velocity": 0.6299212598425197,
          "duration": 0.1268762451171881
        },
        {
          "name": "A4",
          "midi": 69,
          "time": 101.58450373144534,
          "velocity": 0.7401574803149606,
          "duration": 0.11303520019531277
        },
        {
          "name": "G4",
          "midi": 67,
          "time": 101.69800029980472,
          "velocity": 0.6299212598425197,
          "duration": 0.1268762451171881
        },
        {
          "name": "A#4",
          "midi": 70,
          "time": 101.69800029980472,
          "velocity": 0.7401574803149606,
          "duration": 0.11303520019531277
        },
        {
          "name": "A4",
          "midi": 69,
          "time": 101.8114968681641,
          "velocity": 0.6299212598425197,
          "duration": 0.11534204101562295
        },
        {
          "name": "C5",
          "midi": 72,
          "time": 101.8114968681641,
          "velocity": 0.7401574803149606,
          "duration": 0.11534204101562295
        },
        {
          "name": "F4",
          "midi": 65,
          "time": 101.92730027734379,
          "velocity": 0.6299212598425197,
          "duration": 0.13333539941406514
        },
        {
          "name": "A4",
          "midi": 69,
          "time": 101.92730027734379,
          "velocity": 0.7401574803149606,
          "duration": 0.11949435449218981
        },
        {
          "name": "G4",
          "midi": 67,
          "time": 102.04725600000005,
          "velocity": 0.6299212598425197,
          "duration": 0.38016736718749655
        },
        {
          "name": "A#4",
          "midi": 70,
          "time": 102.04725600000005,
          "velocity": 0.7401574803149606,
          "duration": 0.36632632226562123
        },
        {
          "name": "F4",
          "midi": 65,
          "time": 102.41404369042974,
          "velocity": 0.6299212598425197,
          "duration": 0.26021164453125323
        },
        {
          "name": "A4",
          "midi": 69,
          "time": 102.41404369042974,
          "velocity": 0.7401574803149606,
          "duration": 0.23206818652343486
        },
        {
          "name": "G4",
          "midi": 67,
          "time": 102.64657324511724,
          "velocity": 0.6929133858267716,
          "duration": 0.06505291113280975
        },
        {
          "name": "F4",
          "midi": 65,
          "time": 102.70516700195317,
          "velocity": 0.6929133858267716,
          "duration": 0.06782112011718766
        },
        {
          "name": "C4",
          "midi": 60,
          "time": 102.76652896777348,
          "velocity": 0.5905511811023622,
          "duration": 0.13333539941406514
        },
        {
          "name": "D#4",
          "midi": 63,
          "time": 102.76652896777348,
          "velocity": 0.7007874015748031,
          "duration": 0.09319636914062812
        },
        {
          "name": "F4",
          "midi": 65,
          "time": 103.00182673144536,
          "velocity": 0.6299212598425197,
          "duration": 0.1268762451171881
        },
        {
          "name": "A4",
          "midi": 69,
          "time": 103.00182673144536,
          "velocity": 0.7401574803149606,
          "duration": 0.11303520019531277
        },
        {
          "name": "G4",
          "midi": 67,
          "time": 103.11532329980474,
          "velocity": 0.6299212598425197,
          "duration": 0.1268762451171881
        },
        {
          "name": "A#4",
          "midi": 70,
          "time": 103.11532329980474,
          "velocity": 0.7401574803149606,
          "duration": 0.11303520019531277
        },
        {
          "name": "A4",
          "midi": 69,
          "time": 103.22881986816412,
          "velocity": 0.6299212598425197,
          "duration": 0.12918308593749828
        },
        {
          "name": "C5",
          "midi": 72,
          "time": 103.22881986816412,
          "velocity": 0.7401574803149606,
          "duration": 0.11534204101562295
        },
        {
          "name": "A#4",
          "midi": 70,
          "time": 103.34462327734381,
          "velocity": 0.6299212598425197,
          "duration": 0.13333539941405093
        },
        {
          "name": "D5",
          "midi": 74,
          "time": 103.34462327734381,
          "velocity": 0.7401574803149606,
          "duration": 0.1194943544921756
        },
        {
          "name": "D5",
          "midi": 74,
          "time": 103.46457900000006,
          "velocity": 0.6299212598425197,
          "duration": 0.36632632226562123
        },
        {
          "name": "F5",
          "midi": 77,
          "time": 103.46457900000006,
          "velocity": 0.7401574803149606,
          "duration": 0.36632632226562123
        },
        {
          "name": "A#4",
          "midi": 70,
          "time": 103.83136669042975,
          "velocity": 0.6299212598425197,
          "duration": 0.23206818652343486
        },
        {
          "name": "D5",
          "midi": 74,
          "time": 103.83136669042975,
          "velocity": 0.7401574803149606,
          "duration": 0.23206818652343486
        },
        {
          "name": "G4",
          "midi": 67,
          "time": 104.06389624511725,
          "velocity": 0.6299212598425197,
          "duration": 0.13333539941406514
        },
        {
          "name": "A#4",
          "midi": 70,
          "time": 104.06389624511725,
          "velocity": 0.7401574803149606,
          "duration": 0.11949435449218981
        },
        {
          "name": "A4",
          "midi": 69,
          "time": 104.1838519677735,
          "velocity": 0.6299212598425197,
          "duration": 0.26297985351563113
        },
        {
          "name": "C5",
          "midi": 72,
          "time": 104.1838519677735,
          "velocity": 0.7401574803149606,
          "duration": 0.23483639550781277
        },
        {
          "name": "G4",
          "midi": 67,
          "time": 104.41914973144539,
          "velocity": 0.6299212598425197,
          "duration": 0.2546752265625116
        },
        {
          "name": "A#4",
          "midi": 70,
          "time": 104.41914973144539,
          "velocity": 0.7401574803149606,
          "duration": 0.22653176855469326
        },
        {
          "name": "F4",
          "midi": 65,
          "time": 104.64614286816415,
          "velocity": 0.6299212598425197,
          "duration": 0.26344122167969886
        },
        {
          "name": "A4",
          "midi": 69,
          "time": 104.64614286816415,
          "velocity": 0.7401574803149606,
          "duration": 0.2352977636718805
        },
        {
          "name": "G4",
          "midi": 67,
          "time": 104.8819020000001,
          "velocity": 0.6299212598425197,
          "duration": 0.14717644433594046
        },
        {
          "name": "A#4",
          "midi": 70,
          "time": 104.8819020000001,
          "velocity": 0.7401574803149606,
          "duration": 0.13333539941406514
        },
        {
          "name": "F4",
          "midi": 65,
          "time": 105.01569876757823,
          "velocity": 0.6299212598425197,
          "duration": 0.1301058222656195
        },
        {
          "name": "A4",
          "midi": 69,
          "time": 105.01569876757823,
          "velocity": 0.7401574803149606,
          "duration": 0.11626477734374419
        },
        {
          "name": "D#4",
          "midi": 63,
          "time": 105.13242491308604,
          "velocity": 0.6299212598425197,
          "duration": 0.1296444541015518
        },
        {
          "name": "G4",
          "midi": 67,
          "time": 105.13242491308604,
          "velocity": 0.7401574803149606,
          "duration": 0.11580340917967646
        },
        {
          "name": "D4",
          "midi": 62,
          "time": 105.24868969042979,
          "velocity": 0.5905511811023622,
          "duration": 0.13056719042968723
        },
        {
          "name": "F4",
          "midi": 65,
          "time": 105.24868969042979,
          "velocity": 0.7007874015748031,
          "duration": 0.09042816015625021
        },
        {
          "name": "F4",
          "midi": 65,
          "time": 105.48121924511729,
          "velocity": 0.6299212598425197,
          "duration": 0.11257383203124505
        },
        {
          "name": "A4",
          "midi": 69,
          "time": 105.48121924511729,
          "velocity": 0.7401574803149606,
          "duration": 0.1194943544921756
        },
        {
          "name": "A#3",
          "midi": 58,
          "time": 105.60117496777353,
          "velocity": 0.6299212598425197,
          "duration": 0.6975886640624935
        },
        {
          "name": "G4",
          "midi": 67,
          "time": 105.60117496777353,
          "velocity": 0.7401574803149606,
          "duration": 0.6975886640624935
        },
        {
          "name": "A#3",
          "midi": 58,
          "time": 106.29922500000009,
          "velocity": 0.6692913385826772,
          "duration": 0.24821607226562037
        },
        {
          "name": "D4",
          "midi": 62,
          "time": 106.29922500000009,
          "velocity": 0.7795275590551181,
          "duration": 0.24821607226562037
        },
        {
          "name": "D4",
          "midi": 62,
          "time": 106.66601269042978,
          "velocity": 0.6299212598425197,
          "duration": 0.09042816015625021
        },
        {
          "name": "G4",
          "midi": 67,
          "time": 106.66601269042978,
          "velocity": 0.7401574803149606,
          "duration": 0.09042816015625021
        },
        {
          "name": "G4",
          "midi": 67,
          "time": 106.89854224511728,
          "velocity": 0.6299212598425197,
          "duration": 0.11949435449218981
        },
        {
          "name": "A#4",
          "midi": 70,
          "time": 106.89854224511728,
          "velocity": 0.7401574803149606,
          "duration": 0.11949435449218981
        },
        {
          "name": "D4",
          "midi": 62,
          "time": 107.01849796777354,
          "velocity": 0.6299212598425197,
          "duration": 0.09319636914062812
        },
        {
          "name": "G4",
          "midi": 67,
          "time": 107.01849796777354,
          "velocity": 0.7401574803149606,
          "duration": 0.09319636914062812
        },
        {
          "name": "F4",
          "midi": 65,
          "time": 107.25379573144542,
          "velocity": 0.6299212598425197,
          "duration": 0.1268762451171881
        },
        {
          "name": "A4",
          "midi": 69,
          "time": 107.25379573144542,
          "velocity": 0.7401574803149606,
          "duration": 0.11303520019531277
        },
        {
          "name": "G4",
          "midi": 67,
          "time": 107.3672922998048,
          "velocity": 0.6299212598425197,
          "duration": 0.1268762451171881
        },
        {
          "name": "A#4",
          "midi": 70,
          "time": 107.3672922998048,
          "velocity": 0.7401574803149606,
          "duration": 0.11303520019531277
        },
        {
          "name": "A4",
          "midi": 69,
          "time": 107.48078886816418,
          "velocity": 0.6299212598425197,
          "duration": 0.11534204101562295
        },
        {
          "name": "C5",
          "midi": 72,
          "time": 107.48078886816418,
          "velocity": 0.7401574803149606,
          "duration": 0.11534204101562295
        },
        {
          "name": "F4",
          "midi": 65,
          "time": 107.59659227734387,
          "velocity": 0.6299212598425197,
          "duration": 0.13333539941406514
        },
        {
          "name": "A4",
          "midi": 69,
          "time": 107.59659227734387,
          "velocity": 0.7401574803149606,
          "duration": 0.11949435449218981
        },
        {
          "name": "G4",
          "midi": 67,
          "time": 107.71654800000013,
          "velocity": 0.6299212598425197,
          "duration": 0.38016736718749655
        },
        {
          "name": "A#4",
          "midi": 70,
          "time": 107.71654800000013,
          "velocity": 0.7401574803149606,
          "duration": 0.36632632226562123
        },
        {
          "name": "F4",
          "midi": 65,
          "time": 108.08333569042982,
          "velocity": 0.6299212598425197,
          "duration": 0.26021164453125323
        },
        {
          "name": "A4",
          "midi": 69,
          "time": 108.08333569042982,
          "velocity": 0.7401574803149606,
          "duration": 0.23206818652343486
        },
        {
          "name": "G4",
          "midi": 67,
          "time": 108.31586524511732,
          "velocity": 0.6929133858267716,
          "duration": 0.06505291113280975
        },
        {
          "name": "F4",
          "midi": 65,
          "time": 108.37445900195326,
          "velocity": 0.6929133858267716,
          "duration": 0.06782112011718766
        },
        {
          "name": "C4",
          "midi": 60,
          "time": 108.43582096777357,
          "velocity": 0.5905511811023622,
          "duration": 0.13333539941406514
        },
        {
          "name": "D#4",
          "midi": 63,
          "time": 108.43582096777357,
          "velocity": 0.7007874015748031,
          "duration": 0.09319636914062812
        },
        {
          "name": "F4",
          "midi": 65,
          "time": 108.67111873144545,
          "velocity": 0.6299212598425197,
          "duration": 0.1268762451171881
        },
        {
          "name": "A4",
          "midi": 69,
          "time": 108.67111873144545,
          "velocity": 0.7401574803149606,
          "duration": 0.11303520019531277
        },
        {
          "name": "G4",
          "midi": 67,
          "time": 108.78461529980483,
          "velocity": 0.6299212598425197,
          "duration": 0.1268762451171881
        },
        {
          "name": "A#4",
          "midi": 70,
          "time": 108.78461529980483,
          "velocity": 0.7401574803149606,
          "duration": 0.11303520019531277
        },
        {
          "name": "A4",
          "midi": 69,
          "time": 108.89811186816421,
          "velocity": 0.6299212598425197,
          "duration": 0.12918308593749828
        },
        {
          "name": "C5",
          "midi": 72,
          "time": 108.89811186816421,
          "velocity": 0.7401574803149606,
          "duration": 0.11534204101562295
        },
        {
          "name": "A#4",
          "midi": 70,
          "time": 109.0139152773439,
          "velocity": 0.6299212598425197,
          "duration": 0.1194943544921756
        },
        {
          "name": "D5",
          "midi": 74,
          "time": 109.0139152773439,
          "velocity": 0.7401574803149606,
          "duration": 0.1194943544921756
        },
        {
          "name": "F4",
          "midi": 65,
          "time": 109.13387100000014,
          "velocity": 0.6299212598425197,
          "duration": 0.38016736718749655
        },
        {
          "name": "A#4",
          "midi": 70,
          "time": 109.13387100000014,
          "velocity": 0.7401574803149606,
          "duration": 0.36632632226562123
        },
        {
          "name": "D4",
          "midi": 62,
          "time": 109.50065869042983,
          "velocity": 0.6299212598425197,
          "duration": 0.26021164453125323
        },
        {
          "name": "A4",
          "midi": 69,
          "time": 109.50065869042983,
          "velocity": 0.7401574803149606,
          "duration": 0.23206818652343486
        },
        {
          "name": "A#3",
          "midi": 58,
          "time": 109.73318824511733,
          "velocity": 0.6299212598425197,
          "duration": 0.13333539941406514
        },
        {
          "name": "D#4",
          "midi": 63,
          "time": 109.73318824511733,
          "velocity": 0.7401574803149606,
          "duration": 0.11949435449218981
        },
        {
          "name": "D4",
          "midi": 62,
          "time": 109.85314396777359,
          "velocity": 0.5905511811023622,
          "duration": 0.13333539941405093
        },
        {
          "name": "G4",
          "midi": 67,
          "time": 109.85314396777359,
          "velocity": 0.7007874015748031,
          "duration": 0.09319636914061391
        },
        {
          "name": "C4",
          "midi": 60,
          "time": 110.08844173144546,
          "velocity": 0.6299212598425197,
          "duration": 0.0848917421874944
        },
        {
          "name": "F4",
          "midi": 65,
          "time": 110.08844173144546,
          "velocity": 0.7401574803149606,
          "duration": 0.0848917421874944
        },
        {
          "name": "A#3",
          "midi": 58,
          "time": 110.3154348681642,
          "velocity": 0.6299212598425197,
          "duration": 0.09365773730468163
        },
        {
          "name": "D#4",
          "midi": 63,
          "time": 110.3154348681642,
          "velocity": 0.7401574803149606,
          "duration": 0.09365773730468163
        },
        {
          "name": "C4",
          "midi": 60,
          "time": 110.55119400000014,
          "velocity": 0.6299212598425197,
          "duration": 0.13333539941406514
        },
        {
          "name": "F4",
          "midi": 65,
          "time": 110.55119400000014,
          "velocity": 0.7401574803149606,
          "duration": 0.13333539941406514
        },
        {
          "name": "C4",
          "midi": 60,
          "time": 110.68499076757827,
          "velocity": 0.6299212598425197,
          "duration": 0.1301058222656195
        },
        {
          "name": "D#4",
          "midi": 63,
          "time": 110.68499076757827,
          "velocity": 0.7401574803149606,
          "duration": 0.11626477734374419
        },
        {
          "name": "A#3",
          "midi": 58,
          "time": 110.80171691308608,
          "velocity": 0.6299212598425197,
          "duration": 0.1296444541015518
        },
        {
          "name": "D4",
          "midi": 62,
          "time": 110.80171691308608,
          "velocity": 0.7401574803149606,
          "duration": 0.11580340917967646
        },
        {
          "name": "A3",
          "midi": 57,
          "time": 110.91798169042983,
          "velocity": 0.6299212598425197,
          "duration": 0.26021164453125323
        },
        {
          "name": "C4",
          "midi": 60,
          "time": 110.91798169042983,
          "velocity": 0.7401574803149606,
          "duration": 0.23206818652343486
        },
        {
          "name": "D4",
          "midi": 62,
          "time": 111.15051124511733,
          "velocity": 0.6299212598425197,
          "duration": 0.11949435449218981
        },
        {
          "name": "G4",
          "midi": 67,
          "time": 111.15051124511733,
          "velocity": 0.7401574803149606,
          "duration": 0.11949435449218981
        },
        {
          "name": "A3",
          "midi": 57,
          "time": 111.27046696777359,
          "velocity": 0.5905511811023622,
          "duration": 0.32664866015625194
        },
        {
          "name": "D4",
          "midi": 62,
          "time": 111.27046696777359,
          "velocity": 0.7007874015748031,
          "duration": 0.34833296386719326
        },
        {
          "name": "F3",
          "midi": 53,
          "time": 111.61926129980485,
          "velocity": 0.6929133858267716,
          "duration": 0.1268762451171881
        },
        {
          "name": "A3",
          "midi": 57,
          "time": 111.73275786816423,
          "velocity": 0.6299212598425197,
          "duration": 0.12918308593749828
        },
        {
          "name": "C4",
          "midi": 60,
          "time": 111.73275786816423,
          "velocity": 0.7401574803149606,
          "duration": 0.11534204101562295
        },
        {
          "name": "A#3",
          "midi": 58,
          "time": 111.84856127734392,
          "velocity": 0.47244094488188976,
          "duration": 0.1194943544921756
        },
        {
          "name": "D#4",
          "midi": 63,
          "time": 111.84856127734392,
          "velocity": 0.7401574803149606,
          "duration": 0.1194943544921756
        },
        {
          "name": "A#3",
          "midi": 58,
          "time": 111.96851700000016,
          "velocity": 0.6299212598425197,
          "duration": 0.2620571171874957
        },
        {
          "name": "D4",
          "midi": 62,
          "time": 111.96851700000016,
          "velocity": 0.7401574803149606,
          "duration": 0.24821607226562037
        },
        {
          "name": "D4",
          "midi": 62,
          "time": 112.33530469042985,
          "velocity": 0.5905511811023622,
          "duration": 0.13056719042968723
        },
        {
          "name": "G4",
          "midi": 67,
          "time": 112.33530469042985,
          "velocity": 0.7007874015748031,
          "duration": 0.09042816015625021
        },
        {
          "name": "G4",
          "midi": 67,
          "time": 112.56783424511735,
          "velocity": 0.6299212598425197,
          "duration": 0.11949435449218981
        },
        {
          "name": "A#4",
          "midi": 70,
          "time": 112.56783424511735,
          "velocity": 0.7401574803149606,
          "duration": 0.11949435449218981
        },
        {
          "name": "D4",
          "midi": 62,
          "time": 112.68778996777361,
          "velocity": 0.6299212598425197,
          "duration": 0.09319636914062812
        },
        {
          "name": "G4",
          "midi": 67,
          "time": 112.68778996777361,
          "velocity": 0.7401574803149606,
          "duration": 0.09319636914062812
        },
        {
          "name": "F4",
          "midi": 65,
          "time": 112.92308773144549,
          "velocity": 0.6299212598425197,
          "duration": 0.1268762451171881
        },
        {
          "name": "A4",
          "midi": 69,
          "time": 112.92308773144549,
          "velocity": 0.7401574803149606,
          "duration": 0.11303520019531277
        },
        {
          "name": "G4",
          "midi": 67,
          "time": 113.03658429980487,
          "velocity": 0.6299212598425197,
          "duration": 0.1268762451171881
        },
        {
          "name": "A#4",
          "midi": 70,
          "time": 113.03658429980487,
          "velocity": 0.7401574803149606,
          "duration": 0.11303520019531277
        },
        {
          "name": "A4",
          "midi": 69,
          "time": 113.15008086816425,
          "velocity": 0.6299212598425197,
          "duration": 0.11534204101562295
        },
        {
          "name": "C5",
          "midi": 72,
          "time": 113.15008086816425,
          "velocity": 0.7401574803149606,
          "duration": 0.11534204101562295
        },
        {
          "name": "F4",
          "midi": 65,
          "time": 113.26588427734394,
          "velocity": 0.6299212598425197,
          "duration": 0.13333539941406514
        },
        {
          "name": "A4",
          "midi": 69,
          "time": 113.26588427734394,
          "velocity": 0.7401574803149606,
          "duration": 0.11949435449218981
        },
        {
          "name": "G4",
          "midi": 67,
          "time": 113.3858400000002,
          "velocity": 0.6299212598425197,
          "duration": 0.38016736718749655
        },
        {
          "name": "A#4",
          "midi": 70,
          "time": 113.3858400000002,
          "velocity": 0.7401574803149606,
          "duration": 0.36632632226562123
        },
        {
          "name": "F4",
          "midi": 65,
          "time": 113.75262769042989,
          "velocity": 0.6299212598425197,
          "duration": 0.26021164453125323
        },
        {
          "name": "A4",
          "midi": 69,
          "time": 113.75262769042989,
          "velocity": 0.7401574803149606,
          "duration": 0.23206818652343486
        },
        {
          "name": "G4",
          "midi": 67,
          "time": 113.98515724511739,
          "velocity": 0.6929133858267716,
          "duration": 0.06505291113280975
        },
        {
          "name": "F4",
          "midi": 65,
          "time": 114.04375100195332,
          "velocity": 0.6929133858267716,
          "duration": 0.06782112011718766
        },
        {
          "name": "C4",
          "midi": 60,
          "time": 114.10511296777364,
          "velocity": 0.5905511811023622,
          "duration": 0.13333539941406514
        },
        {
          "name": "D#4",
          "midi": 63,
          "time": 114.10511296777364,
          "velocity": 0.7007874015748031,
          "duration": 0.09319636914062812
        },
        {
          "name": "F4",
          "midi": 65,
          "time": 114.34041073144552,
          "velocity": 0.6299212598425197,
          "duration": 0.1268762451171881
        },
        {
          "name": "A4",
          "midi": 69,
          "time": 114.34041073144552,
          "velocity": 0.7401574803149606,
          "duration": 0.11303520019531277
        },
        {
          "name": "G4",
          "midi": 67,
          "time": 114.4539072998049,
          "velocity": 0.6299212598425197,
          "duration": 0.1268762451171881
        },
        {
          "name": "A#4",
          "midi": 70,
          "time": 114.4539072998049,
          "velocity": 0.7401574803149606,
          "duration": 0.11303520019531277
        },
        {
          "name": "A4",
          "midi": 69,
          "time": 114.56740386816428,
          "velocity": 0.6299212598425197,
          "duration": 0.12918308593749828
        },
        {
          "name": "C5",
          "midi": 72,
          "time": 114.56740386816428,
          "velocity": 0.7401574803149606,
          "duration": 0.11534204101562295
        },
        {
          "name": "A#4",
          "midi": 70,
          "time": 114.68320727734397,
          "velocity": 0.6299212598425197,
          "duration": 0.13333539941405093
        },
        {
          "name": "D5",
          "midi": 74,
          "time": 114.68320727734397,
          "velocity": 0.7401574803149606,
          "duration": 0.1194943544921756
        },
        {
          "name": "D5",
          "midi": 74,
          "time": 114.80316300000021,
          "velocity": 0.6299212598425197,
          "duration": 0.36632632226562123
        },
        {
          "name": "F5",
          "midi": 77,
          "time": 114.80316300000021,
          "velocity": 0.7401574803149606,
          "duration": 0.36632632226562123
        },
        {
          "name": "A#4",
          "midi": 70,
          "time": 115.1699506904299,
          "velocity": 0.6299212598425197,
          "duration": 0.23206818652343486
        },
        {
          "name": "D5",
          "midi": 74,
          "time": 115.1699506904299,
          "velocity": 0.7401574803149606,
          "duration": 0.23206818652343486
        },
        {
          "name": "G4",
          "midi": 67,
          "time": 115.4024802451174,
          "velocity": 0.6299212598425197,
          "duration": 0.13333539941406514
        },
        {
          "name": "A#4",
          "midi": 70,
          "time": 115.4024802451174,
          "velocity": 0.7401574803149606,
          "duration": 0.11949435449218981
        },
        {
          "name": "A4",
          "midi": 69,
          "time": 115.52243596777366,
          "velocity": 0.6299212598425197,
          "duration": 0.26297985351563113
        },
        {
          "name": "C5",
          "midi": 72,
          "time": 115.52243596777366,
          "velocity": 0.7401574803149606,
          "duration": 0.23483639550781277
        },
        {
          "name": "G4",
          "midi": 67,
          "time": 115.75773373144554,
          "velocity": 0.6299212598425197,
          "duration": 0.2546752265625116
        },
        {
          "name": "A#4",
          "midi": 70,
          "time": 115.75773373144554,
          "velocity": 0.7401574803149606,
          "duration": 0.22653176855469326
        },
        {
          "name": "F4",
          "midi": 65,
          "time": 115.9847268681643,
          "velocity": 0.6299212598425197,
          "duration": 0.26344122167969886
        },
        {
          "name": "A4",
          "midi": 69,
          "time": 115.9847268681643,
          "velocity": 0.7401574803149606,
          "duration": 0.2352977636718805
        },
        {
          "name": "G4",
          "midi": 67,
          "time": 116.22048600000025,
          "velocity": 0.6299212598425197,
          "duration": 0.14717644433594046
        },
        {
          "name": "A#4",
          "midi": 70,
          "time": 116.22048600000025,
          "velocity": 0.7401574803149606,
          "duration": 0.13333539941406514
        },
        {
          "name": "F4",
          "midi": 65,
          "time": 116.35428276757838,
          "velocity": 0.6299212598425197,
          "duration": 0.1301058222656195
        },
        {
          "name": "A4",
          "midi": 69,
          "time": 116.35428276757838,
          "velocity": 0.7401574803149606,
          "duration": 0.11626477734374419
        },
        {
          "name": "D#4",
          "midi": 63,
          "time": 116.4710089130862,
          "velocity": 0.6299212598425197,
          "duration": 0.1296444541015518
        },
        {
          "name": "G4",
          "midi": 67,
          "time": 116.4710089130862,
          "velocity": 0.7401574803149606,
          "duration": 0.11580340917967646
        },
        {
          "name": "D4",
          "midi": 62,
          "time": 116.58727369042994,
          "velocity": 0.5905511811023622,
          "duration": 0.13056719042968723
        },
        {
          "name": "F4",
          "midi": 65,
          "time": 116.58727369042994,
          "velocity": 0.7007874015748031,
          "duration": 0.09042816015625021
        },
        {
          "name": "F4",
          "midi": 65,
          "time": 116.81980324511744,
          "velocity": 0.6299212598425197,
          "duration": 0.11257383203124505
        },
        {
          "name": "A4",
          "midi": 69,
          "time": 116.81980324511744,
          "velocity": 0.7401574803149606,
          "duration": 0.1194943544921756
        },
        {
          "name": "A#3",
          "midi": 58,
          "time": 116.93975896777368,
          "velocity": 0.6299212598425197,
          "duration": 0.6975886640624935
        },
        {
          "name": "G4",
          "midi": 67,
          "time": 116.93975896777368,
          "velocity": 0.7401574803149606,
          "duration": 0.6975886640624935
        }
      ],
      "controlChanges": {
        "7": [
          {
            "number": 7,
            "time": 0,
            "value": 1
          },
          {
            "number": 7,
            "time": 0,
            "value": 1
          },
          {
            "number": 7,
            "time": 0,
            "value": 0.7874015748031497
          },
          {
            "number": 7,
            "time": 0,
            "value": 1
          },
          {
            "number": 7,
            "time": 0,
            "value": 1
          }
        ],
        "32": [
          {
            "number": 32,
            "time": 0,
            "value": 0
          },
          {
            "number": 32,
            "time": 0,
            "value": 0
          },
          {
            "number": 32,
            "time": 0,
            "value": 0
          },
          {
            "number": 32,
            "time": 0,
            "value": 0
          }
        ]
      },
      "id": 2,
      "name": "Untitled",
      "instrumentNumber": 110,
      "instrument": "fiddle",
      "instrumentFamily": "ethnic",
      "channelNumber": 1,
      "isPercussion": false
    },
    {
      "startTime": 50.551187,
      "duration": 83.5039467500001,
      "length": 60,
      "notes": [
        {
          "name": "A#4",
          "midi": 70,
          "time": 50.551187,
          "velocity": 0.8661417322834646,
          "duration": 0.11811025000000086
        },
        {
          "name": "B4",
          "midi": 71,
          "time": 50.66929725,
          "velocity": 0.8661417322834646,
          "duration": 0.11811025000000086
        },
        {
          "name": "A#4",
          "midi": 70,
          "time": 50.7874075,
          "velocity": 0.8661417322834646,
          "duration": 0.11811025000000086
        },
        {
          "name": "B4",
          "midi": 71,
          "time": 50.90551775,
          "velocity": 0.8661417322834646,
          "duration": 0.11811025000000086
        },
        {
          "name": "A#4",
          "midi": 70,
          "time": 51.023628,
          "velocity": 0.8661417322834646,
          "duration": 0.3543307500000026
        },
        {
          "name": "C#5",
          "midi": 73,
          "time": 51.377958750000005,
          "velocity": 0.8661417322834646,
          "duration": 0.3543307500000026
        },
        {
          "name": "G#4",
          "midi": 68,
          "time": 51.73228950000001,
          "velocity": 0.8661417322834646,
          "duration": 0.47244100000000344
        },
        {
          "name": "A#4",
          "midi": 70,
          "time": 53.38583300000001,
          "velocity": 0.8661417322834646,
          "duration": 0.11811025000000086
        },
        {
          "name": "B4",
          "midi": 71,
          "time": 53.50394325000001,
          "velocity": 0.8661417322834646,
          "duration": 0.11811025000000086
        },
        {
          "name": "A#4",
          "midi": 70,
          "time": 53.622053500000014,
          "velocity": 0.8661417322834646,
          "duration": 0.11811025000000086
        },
        {
          "name": "C#5",
          "midi": 73,
          "time": 53.740163750000015,
          "velocity": 0.8661417322834646,
          "duration": 0.11811025000000086
        },
        {
          "name": "G#4",
          "midi": 68,
          "time": 53.858274000000016,
          "velocity": 0.8661417322834646,
          "duration": 0.3543307500000026
        },
        {
          "name": "D#5",
          "midi": 75,
          "time": 54.21260475000002,
          "velocity": 0.8661417322834646,
          "duration": 0.3543307500000026
        },
        {
          "name": "C#5",
          "midi": 73,
          "time": 54.56693550000002,
          "velocity": 0.8661417322834646,
          "duration": 0.3543307500000026
        },
        {
          "name": "A#4",
          "midi": 70,
          "time": 54.92126625000002,
          "velocity": 0.8661417322834646,
          "duration": 0.3543307500000026
        },
        {
          "name": "B4",
          "midi": 71,
          "time": 55.275597000000026,
          "velocity": 0.7874015748031497,
          "duration": 0.7086614999999981
        },
        {
          "name": "A#4",
          "midi": 70,
          "time": 56.220479000000026,
          "velocity": 0.8661417322834646,
          "duration": 0.11811025000000086
        },
        {
          "name": "B4",
          "midi": 71,
          "time": 56.33858925000003,
          "velocity": 0.8661417322834646,
          "duration": 0.11811025000000086
        },
        {
          "name": "A#4",
          "midi": 70,
          "time": 56.45669950000003,
          "velocity": 0.8661417322834646,
          "duration": 0.11811025000000086
        },
        {
          "name": "B4",
          "midi": 71,
          "time": 56.57480975000003,
          "velocity": 0.8661417322834646,
          "duration": 0.11811025000000086
        },
        {
          "name": "A#4",
          "midi": 70,
          "time": 56.69292000000003,
          "velocity": 0.8661417322834646,
          "duration": 0.3543307500000026
        },
        {
          "name": "C#5",
          "midi": 73,
          "time": 57.04725075000003,
          "velocity": 0.8661417322834646,
          "duration": 0.3543307500000026
        },
        {
          "name": "G#4",
          "midi": 68,
          "time": 57.401581500000034,
          "velocity": 0.8661417322834646,
          "duration": 0.47244100000000344
        },
        {
          "name": "A#4",
          "midi": 70,
          "time": 59.05512500000004,
          "velocity": 0.8661417322834646,
          "duration": 0.11811025000000086
        },
        {
          "name": "B4",
          "midi": 71,
          "time": 59.17323525000004,
          "velocity": 0.8661417322834646,
          "duration": 0.11811025000000086
        },
        {
          "name": "A#4",
          "midi": 70,
          "time": 59.29134550000004,
          "velocity": 0.8661417322834646,
          "duration": 0.11811025000000086
        },
        {
          "name": "C#5",
          "midi": 73,
          "time": 59.40945575000004,
          "velocity": 0.8661417322834646,
          "duration": 0.11811025000000086
        },
        {
          "name": "G#4",
          "midi": 68,
          "time": 59.52756600000004,
          "velocity": 0.8661417322834646,
          "duration": 0.3543307500000026
        },
        {
          "name": "D#5",
          "midi": 75,
          "time": 59.881896750000045,
          "velocity": 0.8661417322834646,
          "duration": 0.3543307500000026
        },
        {
          "name": "C#5",
          "midi": 73,
          "time": 60.23622750000005,
          "velocity": 0.8661417322834646,
          "duration": 0.5905512499999972
        },
        {
          "name": "A#4",
          "midi": 70,
          "time": 73.22835500000005,
          "velocity": 0.8661417322834646,
          "duration": 0.11811025000000086
        },
        {
          "name": "B4",
          "midi": 71,
          "time": 73.34646525000005,
          "velocity": 0.8661417322834646,
          "duration": 0.11811025000000086
        },
        {
          "name": "A#4",
          "midi": 70,
          "time": 73.46457550000005,
          "velocity": 0.8661417322834646,
          "duration": 0.11811025000000086
        },
        {
          "name": "B4",
          "midi": 71,
          "time": 73.58268575000005,
          "velocity": 0.8661417322834646,
          "duration": 0.11811025000000086
        },
        {
          "name": "A#4",
          "midi": 70,
          "time": 73.70079600000005,
          "velocity": 0.8661417322834646,
          "duration": 0.3543307500000026
        },
        {
          "name": "C#5",
          "midi": 73,
          "time": 74.05512675000006,
          "velocity": 0.8661417322834646,
          "duration": 0.3543307500000026
        },
        {
          "name": "G#4",
          "midi": 68,
          "time": 74.40945750000006,
          "velocity": 0.8661417322834646,
          "duration": 0.47244100000000344
        },
        {
          "name": "A#4",
          "midi": 70,
          "time": 76.06300100000006,
          "velocity": 0.8661417322834646,
          "duration": 0.11811025000000086
        },
        {
          "name": "B4",
          "midi": 71,
          "time": 76.18111125000006,
          "velocity": 0.8661417322834646,
          "duration": 0.11811025000000086
        },
        {
          "name": "A#4",
          "midi": 70,
          "time": 76.29922150000006,
          "velocity": 0.8661417322834646,
          "duration": 0.11811025000000086
        },
        {
          "name": "C#5",
          "midi": 73,
          "time": 76.41733175000006,
          "velocity": 0.8661417322834646,
          "duration": 0.11811025000000086
        },
        {
          "name": "G#4",
          "midi": 68,
          "time": 76.53544200000006,
          "velocity": 0.8661417322834646,
          "duration": 0.3543307500000026
        },
        {
          "name": "D#5",
          "midi": 75,
          "time": 76.88977275000006,
          "velocity": 0.8661417322834646,
          "duration": 0.3543307500000026
        },
        {
          "name": "C#5",
          "midi": 73,
          "time": 77.24410350000007,
          "velocity": 0.8661417322834646,
          "duration": 0.3543307500000026
        },
        {
          "name": "A#4",
          "midi": 70,
          "time": 77.59843425000007,
          "velocity": 0.8661417322834646,
          "duration": 0.3543307500000026
        },
        {
          "name": "B4",
          "midi": 71,
          "time": 77.95276500000007,
          "velocity": 0.7874015748031497,
          "duration": 0.7086615000000052
        },
        {
          "name": "A#4",
          "midi": 70,
          "time": 78.89764700000008,
          "velocity": 0.8661417322834646,
          "duration": 0.11811025000000086
        },
        {
          "name": "B4",
          "midi": 71,
          "time": 79.01575725000008,
          "velocity": 0.8661417322834646,
          "duration": 0.11811025000000086
        },
        {
          "name": "A#4",
          "midi": 70,
          "time": 79.13386750000008,
          "velocity": 0.8661417322834646,
          "duration": 0.11811025000000086
        },
        {
          "name": "B4",
          "midi": 71,
          "time": 79.25197775000008,
          "velocity": 0.8661417322834646,
          "duration": 0.11811025000000086
        },
        {
          "name": "A#4",
          "midi": 70,
          "time": 79.37008800000008,
          "velocity": 0.8661417322834646,
          "duration": 0.3543307500000026
        },
        {
          "name": "C#5",
          "midi": 73,
          "time": 79.72441875000008,
          "velocity": 0.8661417322834646,
          "duration": 0.3543307500000026
        },
        {
          "name": "G#4",
          "midi": 68,
          "time": 80.07874950000009,
          "velocity": 0.8661417322834646,
          "duration": 0.47244100000000344
        },
        {
          "name": "A#4",
          "midi": 70,
          "time": 81.73229300000008,
          "velocity": 0.8661417322834646,
          "duration": 0.11811025000000086
        },
        {
          "name": "B4",
          "midi": 71,
          "time": 81.85040325000008,
          "velocity": 0.8661417322834646,
          "duration": 0.11811025000000086
        },
        {
          "name": "A#4",
          "midi": 70,
          "time": 81.96851350000009,
          "velocity": 0.8661417322834646,
          "duration": 0.11811025000000086
        },
        {
          "name": "C#5",
          "midi": 73,
          "time": 82.08662375000009,
          "velocity": 0.8661417322834646,
          "duration": 0.11811025000000086
        },
        {
          "name": "G#4",
          "midi": 68,
          "time": 82.20473400000009,
          "velocity": 0.8661417322834646,
          "duration": 0.3543307500000026
        },
        {
          "name": "D#5",
          "midi": 75,
          "time": 82.55906475000009,
          "velocity": 0.8661417322834646,
          "duration": 0.3543307500000026
        },
        {
          "name": "C#5",
          "midi": 73,
          "time": 82.91339550000009,
          "velocity": 0.8661417322834646,
          "duration": 0.5905512500000043
        }
      ],
      "controlChanges": {
        "7": [
          {
            "number": 7,
            "time": 0,
            "value": 1
          }
        ],
        "32": [
          {
            "number": 32,
            "time": 0,
            "value": 0
          }
        ]
      },
      "id": 3,
      "name": "Untitled",
      "instrumentNumber": 56,
      "instrument": "trumpet",
      "instrumentFamily": "brass",
      "channelNumber": 2,
      "isPercussion": false
    },
    {
      "startTime": 0,
      "duration": 81.61279864550754,
      "length": 514,
      "notes": [
        {
          "name": "D4",
          "midi": 62,
          "time": 0,
          "velocity": 0.6299212598425197,
          "duration": 0.243602390625
        },
        {
          "name": "G4",
          "midi": 67,
          "time": 0,
          "velocity": 0.7874015748031497,
          "duration": 0.243602390625
        },
        {
          "name": "D4",
          "midi": 62,
          "time": 0.3621740087890625,
          "velocity": 0.7401574803149606,
          "duration": 0.09042816015624999
        },
        {
          "name": "F4",
          "midi": 65,
          "time": 0.5947035634765625,
          "velocity": 0.7401574803149606,
          "duration": 0.13333539941406247
        },
        {
          "name": "E4",
          "midi": 64,
          "time": 0.7146592861328125,
          "velocity": 0.7401574803149606,
          "duration": 0.13333539941406247
        },
        {
          "name": "C4",
          "midi": 60,
          "time": 0.9499570498046874,
          "velocity": 0.7401574803149606,
          "duration": 0.08489174218749995
        },
        {
          "name": "D4",
          "midi": 62,
          "time": 1.1769501865234373,
          "velocity": 0.7401574803149606,
          "duration": 0.20438609667968755
        },
        {
          "name": "C4",
          "midi": 60,
          "time": 1.4127093183593749,
          "velocity": 0.6299212598425197,
          "duration": 0.22653176855468748
        },
        {
          "name": "G4",
          "midi": 67,
          "time": 1.4127093183593749,
          "velocity": 0.7874015748031497,
          "duration": 0.22653176855468748
        },
        {
          "name": "D4",
          "midi": 62,
          "time": 1.7794970087890623,
          "velocity": 0.7401574803149606,
          "duration": 0.09042816015624999
        },
        {
          "name": "F4",
          "midi": 65,
          "time": 2.0120265634765624,
          "velocity": 0.7401574803149606,
          "duration": 0.13333539941406247
        },
        {
          "name": "E4",
          "midi": 64,
          "time": 2.1319822861328124,
          "velocity": 0.7401574803149606,
          "duration": 0.13333539941406247
        },
        {
          "name": "C4",
          "midi": 60,
          "time": 2.3672800498046875,
          "velocity": 0.7401574803149606,
          "duration": 0.08489174218750017
        },
        {
          "name": "D4",
          "midi": 62,
          "time": 2.594273186523438,
          "velocity": 0.7401574803149606,
          "duration": 0.20438609667968732
        },
        {
          "name": "D4",
          "midi": 62,
          "time": 2.830032318359375,
          "velocity": 0.6299212598425197,
          "duration": 0.22653176855468748
        },
        {
          "name": "G4",
          "midi": 67,
          "time": 2.830032318359375,
          "velocity": 0.7874015748031497,
          "duration": 0.22653176855468748
        },
        {
          "name": "D4",
          "midi": 62,
          "time": 3.1968200087890626,
          "velocity": 0.7401574803149606,
          "duration": 0.09042816015625021
        },
        {
          "name": "F4",
          "midi": 65,
          "time": 3.429349563476563,
          "velocity": 0.7401574803149606,
          "duration": 0.13333539941406247
        },
        {
          "name": "E4",
          "midi": 64,
          "time": 3.549305286132813,
          "velocity": 0.7401574803149606,
          "duration": 0.13333539941406247
        },
        {
          "name": "D4",
          "midi": 62,
          "time": 3.784603049804688,
          "velocity": 0.7401574803149606,
          "duration": 0.08489174218750017
        },
        {
          "name": "C4",
          "midi": 60,
          "time": 4.011596186523438,
          "velocity": 0.7401574803149606,
          "duration": 0.2634412216796873
        },
        {
          "name": "A#3",
          "midi": 58,
          "time": 4.247355318359376,
          "velocity": 0.7401574803149606,
          "duration": 0.27820500292968653
        },
        {
          "name": "D4",
          "midi": 62,
          "time": 4.247355318359376,
          "velocity": 0.7401574803149606,
          "duration": 0.2500615449218744
        },
        {
          "name": "A3",
          "midi": 57,
          "time": 4.497878231445313,
          "velocity": 0.7401574803149606,
          "duration": 0.2597502763671873
        },
        {
          "name": "C4",
          "midi": 60,
          "time": 4.497878231445313,
          "velocity": 0.7401574803149606,
          "duration": 0.23160681835937513
        },
        {
          "name": "G3",
          "midi": 55,
          "time": 4.72994641796875,
          "velocity": 0.7401574803149606,
          "duration": 0.2643639580078121
        },
        {
          "name": "A#3",
          "midi": 58,
          "time": 4.72994641796875,
          "velocity": 0.7401574803149606,
          "duration": 0.23622049999999994
        },
        {
          "name": "F3",
          "midi": 53,
          "time": 4.966628286132813,
          "velocity": 0.7401574803149606,
          "duration": 0.26297985351562403
        },
        {
          "name": "A3",
          "midi": 57,
          "time": 4.966628286132813,
          "velocity": 0.7401574803149606,
          "duration": 0.23022271386718707
        },
        {
          "name": "A3",
          "midi": 57,
          "time": 5.196851,
          "velocity": 0.6299212598425197,
          "duration": 0.22607040039062465
        },
        {
          "name": "G3",
          "midi": 55,
          "time": 5.201926049804687,
          "velocity": 0.7401574803149606,
          "duration": 0.2546752265624992
        },
        {
          "name": "D4",
          "midi": 62,
          "time": 5.201926049804687,
          "velocity": 0.7401574803149606,
          "duration": 0.22653176855468704
        },
        {
          "name": "A3",
          "midi": 57,
          "time": 5.428919186523436,
          "velocity": 0.7401574803149606,
          "duration": 0.19977241503906207
        },
        {
          "name": "F4",
          "midi": 65,
          "time": 5.428919186523436,
          "velocity": 0.7401574803149606,
          "duration": 0.23529776367187427
        },
        {
          "name": "C4",
          "midi": 60,
          "time": 5.433071499999999,
          "velocity": 0.6299212598425197,
          "duration": 0.23622049999999906
        },
        {
          "name": "D4",
          "midi": 62,
          "time": 5.669291999999998,
          "velocity": 0.6299212598425197,
          "duration": 0.243602390625
        },
        {
          "name": "G4",
          "midi": 67,
          "time": 5.669291999999998,
          "velocity": 0.7874015748031497,
          "duration": 0.243602390625
        },
        {
          "name": "D4",
          "midi": 62,
          "time": 6.03146600878906,
          "velocity": 0.7401574803149606,
          "duration": 0.09042816015625021
        },
        {
          "name": "F4",
          "midi": 65,
          "time": 6.26399556347656,
          "velocity": 0.7401574803149606,
          "duration": 0.13333539941406336
        },
        {
          "name": "E4",
          "midi": 64,
          "time": 6.3839512861328105,
          "velocity": 0.7401574803149606,
          "duration": 0.13333539941406336
        },
        {
          "name": "C4",
          "midi": 60,
          "time": 6.6192490498046865,
          "velocity": 0.7401574803149606,
          "duration": 0.08489174218749973
        },
        {
          "name": "D4",
          "midi": 62,
          "time": 6.846242186523436,
          "velocity": 0.7401574803149606,
          "duration": 0.20438609667968777
        },
        {
          "name": "C4",
          "midi": 60,
          "time": 7.0820013183593735,
          "velocity": 0.6299212598425197,
          "duration": 0.22653176855468793
        },
        {
          "name": "G4",
          "midi": 67,
          "time": 7.0820013183593735,
          "velocity": 0.7874015748031497,
          "duration": 0.22653176855468793
        },
        {
          "name": "D4",
          "midi": 62,
          "time": 7.448789008789062,
          "velocity": 0.7401574803149606,
          "duration": 0.09042816015625021
        },
        {
          "name": "F4",
          "midi": 65,
          "time": 7.6813185634765615,
          "velocity": 0.7401574803149606,
          "duration": 0.13333539941406336
        },
        {
          "name": "E4",
          "midi": 64,
          "time": 7.801274286132812,
          "velocity": 0.7401574803149606,
          "duration": 0.13333539941406336
        },
        {
          "name": "C4",
          "midi": 60,
          "time": 8.036572049804688,
          "velocity": 0.7401574803149606,
          "duration": 0.08489174218749973
        },
        {
          "name": "D4",
          "midi": 62,
          "time": 8.263565186523438,
          "velocity": 0.7401574803149606,
          "duration": 0.20438609667968777
        },
        {
          "name": "D4",
          "midi": 62,
          "time": 8.499324318359376,
          "velocity": 0.6299212598425197,
          "duration": 0.22653176855468793
        },
        {
          "name": "G4",
          "midi": 67,
          "time": 8.499324318359376,
          "velocity": 0.7874015748031497,
          "duration": 0.22653176855468793
        },
        {
          "name": "D4",
          "midi": 62,
          "time": 8.866112008789063,
          "velocity": 0.7401574803149606,
          "duration": 0.09042816015625021
        },
        {
          "name": "F4",
          "midi": 65,
          "time": 9.098641563476564,
          "velocity": 0.7401574803149606,
          "duration": 0.13333539941406336
        },
        {
          "name": "E4",
          "midi": 64,
          "time": 9.218597286132814,
          "velocity": 0.7401574803149606,
          "duration": 0.13333539941406336
        },
        {
          "name": "D4",
          "midi": 62,
          "time": 9.45389504980469,
          "velocity": 0.7401574803149606,
          "duration": 0.08489174218749973
        },
        {
          "name": "C4",
          "midi": 60,
          "time": 9.68088818652344,
          "velocity": 0.7401574803149606,
          "duration": 0.2634412216796882
        },
        {
          "name": "A#3",
          "midi": 58,
          "time": 9.916647318359377,
          "velocity": 0.7401574803149606,
          "duration": 0.2782050029296883
        },
        {
          "name": "D4",
          "midi": 62,
          "time": 9.916647318359377,
          "velocity": 0.7401574803149606,
          "duration": 0.25006154492187527
        },
        {
          "name": "A3",
          "midi": 57,
          "time": 10.167170231445315,
          "velocity": 0.7401574803149606,
          "duration": 0.25975027636718906
        },
        {
          "name": "C4",
          "midi": 60,
          "time": 10.167170231445315,
          "velocity": 0.7401574803149606,
          "duration": 0.23160681835937602
        },
        {
          "name": "G3",
          "midi": 55,
          "time": 10.399238417968753,
          "velocity": 0.7401574803149606,
          "duration": 0.264363958007813
        },
        {
          "name": "A#3",
          "midi": 58,
          "time": 10.399238417968753,
          "velocity": 0.7401574803149606,
          "duration": 0.23622049999999994
        },
        {
          "name": "F3",
          "midi": 53,
          "time": 10.635920286132816,
          "velocity": 0.7401574803149606,
          "duration": 0.2629798535156276
        },
        {
          "name": "A3",
          "midi": 57,
          "time": 10.635920286132816,
          "velocity": 0.7401574803149606,
          "duration": 0.23022271386718884
        },
        {
          "name": "A3",
          "midi": 57,
          "time": 10.866143000000005,
          "velocity": 0.6299212598425197,
          "duration": 0.22607040039062554
        },
        {
          "name": "G3",
          "midi": 55,
          "time": 10.871218049804693,
          "velocity": 0.7401574803149606,
          "duration": 0.25467522656250097
        },
        {
          "name": "D4",
          "midi": 62,
          "time": 10.871218049804693,
          "velocity": 0.7401574803149606,
          "duration": 0.22653176855468793
        },
        {
          "name": "A3",
          "midi": 57,
          "time": 11.098211186523443,
          "velocity": 0.7401574803149606,
          "duration": 0.19977241503906384
        },
        {
          "name": "F4",
          "midi": 65,
          "time": 11.098211186523443,
          "velocity": 0.7401574803149606,
          "duration": 0.23529776367187694
        },
        {
          "name": "C4",
          "midi": 60,
          "time": 11.102363500000006,
          "velocity": 0.6299212598425197,
          "duration": 0.23622050000000172
        },
        {
          "name": "G4",
          "midi": 67,
          "time": 11.338584000000008,
          "velocity": 0.7874015748031497,
          "duration": 0.243602390625
        },
        {
          "name": "D4",
          "midi": 62,
          "time": 11.338584000000008,
          "velocity": 0.6299212598425197,
          "duration": 0.243602390625
        },
        {
          "name": "D4",
          "midi": 62,
          "time": 11.700758008789071,
          "velocity": 0.7401574803149606,
          "duration": 0.09042816015625021
        },
        {
          "name": "F4",
          "midi": 65,
          "time": 11.933287563476572,
          "velocity": 0.7401574803149606,
          "duration": 0.13333539941406336
        },
        {
          "name": "E4",
          "midi": 64,
          "time": 12.053243286132822,
          "velocity": 0.7401574803149606,
          "duration": 0.13333539941406336
        },
        {
          "name": "C4",
          "midi": 60,
          "time": 12.288541049804698,
          "velocity": 0.7401574803149606,
          "duration": 0.08489174218749973
        },
        {
          "name": "D4",
          "midi": 62,
          "time": 12.515534186523448,
          "velocity": 0.7401574803149606,
          "duration": 0.20438609667968777
        },
        {
          "name": "G4",
          "midi": 67,
          "time": 12.751293318359386,
          "velocity": 0.7874015748031497,
          "duration": 0.22653176855468793
        },
        {
          "name": "C4",
          "midi": 60,
          "time": 12.751293318359386,
          "velocity": 0.6299212598425197,
          "duration": 0.22653176855468793
        },
        {
          "name": "D4",
          "midi": 62,
          "time": 13.118081008789073,
          "velocity": 0.7401574803149606,
          "duration": 0.09042816015625021
        },
        {
          "name": "F4",
          "midi": 65,
          "time": 13.350610563476573,
          "velocity": 0.7401574803149606,
          "duration": 0.13333539941406336
        },
        {
          "name": "E4",
          "midi": 64,
          "time": 13.470566286132824,
          "velocity": 0.7401574803149606,
          "duration": 0.13333539941406336
        },
        {
          "name": "C4",
          "midi": 60,
          "time": 13.705864049804699,
          "velocity": 0.7401574803149606,
          "duration": 0.08489174218749973
        },
        {
          "name": "D4",
          "midi": 62,
          "time": 13.93285718652345,
          "velocity": 0.7401574803149606,
          "duration": 0.20438609667968777
        },
        {
          "name": "G4",
          "midi": 67,
          "time": 14.168616318359387,
          "velocity": 0.7874015748031497,
          "duration": 0.22653176855468793
        },
        {
          "name": "D4",
          "midi": 62,
          "time": 14.168616318359387,
          "velocity": 0.6299212598425197,
          "duration": 0.22653176855468793
        },
        {
          "name": "D4",
          "midi": 62,
          "time": 14.535404008789074,
          "velocity": 0.7401574803149606,
          "duration": 0.09042816015625021
        },
        {
          "name": "F4",
          "midi": 65,
          "time": 14.767933563476575,
          "velocity": 0.7401574803149606,
          "duration": 0.13333539941406336
        },
        {
          "name": "E4",
          "midi": 64,
          "time": 14.887889286132825,
          "velocity": 0.7401574803149606,
          "duration": 0.13333539941406336
        },
        {
          "name": "D4",
          "midi": 62,
          "time": 15.1231870498047,
          "velocity": 0.7401574803149606,
          "duration": 0.08489174218749973
        },
        {
          "name": "C4",
          "midi": 60,
          "time": 15.35018018652345,
          "velocity": 0.7401574803149606,
          "duration": 0.2634412216796882
        },
        {
          "name": "D4",
          "midi": 62,
          "time": 15.585939318359388,
          "velocity": 0.7401574803149606,
          "duration": 0.25006154492187527
        },
        {
          "name": "A#3",
          "midi": 58,
          "time": 15.585939318359388,
          "velocity": 0.7401574803149606,
          "duration": 0.2782050029296883
        },
        {
          "name": "C4",
          "midi": 60,
          "time": 15.836462231445326,
          "velocity": 0.7401574803149606,
          "duration": 0.23160681835937602
        },
        {
          "name": "A3",
          "midi": 57,
          "time": 15.836462231445326,
          "velocity": 0.7401574803149606,
          "duration": 0.25975027636719084
        },
        {
          "name": "A#3",
          "midi": 58,
          "time": 16.068530417968766,
          "velocity": 0.7401574803149606,
          "duration": 0.23622050000000172
        },
        {
          "name": "G3",
          "midi": 55,
          "time": 16.068530417968766,
          "velocity": 0.7401574803149606,
          "duration": 0.26436395800781654
        },
        {
          "name": "A3",
          "midi": 57,
          "time": 16.305212286132832,
          "velocity": 0.7401574803149606,
          "duration": 0.23022271386718884
        },
        {
          "name": "F3",
          "midi": 53,
          "time": 16.305212286132832,
          "velocity": 0.7401574803149606,
          "duration": 0.2629798535156276
        },
        {
          "name": "A3",
          "midi": 57,
          "time": 16.53543500000002,
          "velocity": 0.6299212598425197,
          "duration": 0.22607040039062554
        },
        {
          "name": "D4",
          "midi": 62,
          "time": 16.54051004980471,
          "velocity": 0.7401574803149606,
          "duration": 0.22653176855468615
        },
        {
          "name": "G3",
          "midi": 55,
          "time": 16.54051004980471,
          "velocity": 0.7401574803149606,
          "duration": 0.25467522656250097
        },
        {
          "name": "F4",
          "midi": 65,
          "time": 16.76750318652346,
          "velocity": 0.7401574803149606,
          "duration": 0.23529776367187694
        },
        {
          "name": "A3",
          "midi": 57,
          "time": 16.76750318652346,
          "velocity": 0.7401574803149606,
          "duration": 0.19977241503906384
        },
        {
          "name": "C4",
          "midi": 60,
          "time": 16.771655500000023,
          "velocity": 0.6299212598425197,
          "duration": 0.23622050000000172
        },
        {
          "name": "D4",
          "midi": 62,
          "time": 17.007876000000024,
          "velocity": 0.6299212598425197,
          "duration": 0.243602390625
        },
        {
          "name": "G4",
          "midi": 67,
          "time": 17.007876000000024,
          "velocity": 0.7874015748031497,
          "duration": 0.243602390625
        },
        {
          "name": "D4",
          "midi": 62,
          "time": 17.370050008789086,
          "velocity": 0.7401574803149606,
          "duration": 0.09042816015625021
        },
        {
          "name": "F4",
          "midi": 65,
          "time": 17.602579563476585,
          "velocity": 0.7401574803149606,
          "duration": 0.13333539941406158
        },
        {
          "name": "E4",
          "midi": 64,
          "time": 17.722535286132835,
          "velocity": 0.7401574803149606,
          "duration": 0.13333539941406158
        },
        {
          "name": "C4",
          "midi": 60,
          "time": 17.95783304980471,
          "velocity": 0.7401574803149606,
          "duration": 0.0848917421875015
        },
        {
          "name": "D4",
          "midi": 62,
          "time": 18.18482618652346,
          "velocity": 0.7401574803149606,
          "duration": 0.20438609667968777
        },
        {
          "name": "C4",
          "midi": 60,
          "time": 18.420585318359397,
          "velocity": 0.6299212598425197,
          "duration": 0.22653176855468615
        },
        {
          "name": "G4",
          "midi": 67,
          "time": 18.420585318359397,
          "velocity": 0.7874015748031497,
          "duration": 0.22653176855468615
        },
        {
          "name": "D4",
          "midi": 62,
          "time": 18.787373008789082,
          "velocity": 0.7401574803149606,
          "duration": 0.09042816015625021
        },
        {
          "name": "F4",
          "midi": 65,
          "time": 19.01990256347658,
          "velocity": 0.7401574803149606,
          "duration": 0.13333539941406158
        },
        {
          "name": "E4",
          "midi": 64,
          "time": 19.13985828613283,
          "velocity": 0.7401574803149606,
          "duration": 0.13333539941406158
        },
        {
          "name": "C4",
          "midi": 60,
          "time": 19.375156049804705,
          "velocity": 0.7401574803149606,
          "duration": 0.0848917421875015
        },
        {
          "name": "D4",
          "midi": 62,
          "time": 19.602149186523455,
          "velocity": 0.7401574803149606,
          "duration": 0.20438609667968777
        },
        {
          "name": "D4",
          "midi": 62,
          "time": 19.837908318359393,
          "velocity": 0.6299212598425197,
          "duration": 0.22653176855468615
        },
        {
          "name": "G4",
          "midi": 67,
          "time": 19.837908318359393,
          "velocity": 0.7874015748031497,
          "duration": 0.22653176855468615
        },
        {
          "name": "D4",
          "midi": 62,
          "time": 20.204696008789078,
          "velocity": 0.7401574803149606,
          "duration": 0.09042816015625021
        },
        {
          "name": "F4",
          "midi": 65,
          "time": 20.437225563476577,
          "velocity": 0.7401574803149606,
          "duration": 0.13333539941406158
        },
        {
          "name": "E4",
          "midi": 64,
          "time": 20.557181286132828,
          "velocity": 0.7401574803149606,
          "duration": 0.13333539941406158
        },
        {
          "name": "D4",
          "midi": 62,
          "time": 20.7924790498047,
          "velocity": 0.7401574803149606,
          "duration": 0.0848917421875015
        },
        {
          "name": "C4",
          "midi": 60,
          "time": 21.01947218652345,
          "velocity": 0.7401574803149606,
          "duration": 0.2634412216796882
        },
        {
          "name": "A#3",
          "midi": 58,
          "time": 21.25523131835939,
          "velocity": 0.7401574803149606,
          "duration": 0.27820500292969186
        },
        {
          "name": "D4",
          "midi": 62,
          "time": 21.25523131835939,
          "velocity": 0.7401574803149606,
          "duration": 0.25006154492187704
        },
        {
          "name": "A3",
          "midi": 57,
          "time": 21.50575423144533,
          "velocity": 0.7401574803149606,
          "duration": 0.25975027636718906
        },
        {
          "name": "C4",
          "midi": 60,
          "time": 21.50575423144533,
          "velocity": 0.7401574803149606,
          "duration": 0.23160681835937424
        },
        {
          "name": "G3",
          "midi": 55,
          "time": 21.73782241796877,
          "velocity": 0.7401574803149606,
          "duration": 0.26436395800781654
        },
        {
          "name": "A#3",
          "midi": 58,
          "time": 21.73782241796877,
          "velocity": 0.7401574803149606,
          "duration": 0.23622050000000172
        },
        {
          "name": "F3",
          "midi": 53,
          "time": 21.974504286132834,
          "velocity": 0.7401574803149606,
          "duration": 0.2629798535156276
        },
        {
          "name": "A3",
          "midi": 57,
          "time": 21.974504286132834,
          "velocity": 0.7401574803149606,
          "duration": 0.23022271386718884
        },
        {
          "name": "A3",
          "midi": 57,
          "time": 22.204727000000023,
          "velocity": 0.6299212598425197,
          "duration": 0.22607040039062554
        },
        {
          "name": "G3",
          "midi": 55,
          "time": 22.20980204980471,
          "velocity": 0.7401574803149606,
          "duration": 0.25467522656250097
        },
        {
          "name": "D4",
          "midi": 62,
          "time": 22.20980204980471,
          "velocity": 0.7401574803149606,
          "duration": 0.22653176855468615
        },
        {
          "name": "A3",
          "midi": 57,
          "time": 22.43679518652346,
          "velocity": 0.7401574803149606,
          "duration": 0.19977241503906384
        },
        {
          "name": "F4",
          "midi": 65,
          "time": 22.43679518652346,
          "velocity": 0.7401574803149606,
          "duration": 0.23529776367187694
        },
        {
          "name": "C4",
          "midi": 60,
          "time": 22.440947500000025,
          "velocity": 0.6299212598425197,
          "duration": 0.23622050000000172
        },
        {
          "name": "D#4",
          "midi": 63,
          "time": 22.677168000000027,
          "velocity": 0.6299212598425197,
          "duration": 0.243602390625
        },
        {
          "name": "G#4",
          "midi": 68,
          "time": 22.677168000000027,
          "velocity": 0.7874015748031497,
          "duration": 0.243602390625
        },
        {
          "name": "D#4",
          "midi": 63,
          "time": 23.039342008789088,
          "velocity": 0.7401574803149606,
          "duration": 0.09042816015625021
        },
        {
          "name": "F#4",
          "midi": 66,
          "time": 23.271871563476587,
          "velocity": 0.7401574803149606,
          "duration": 0.13333539941406158
        },
        {
          "name": "F4",
          "midi": 65,
          "time": 23.391827286132838,
          "velocity": 0.7401574803149606,
          "duration": 0.13333539941406158
        },
        {
          "name": "C#4",
          "midi": 61,
          "time": 23.62712504980471,
          "velocity": 0.7401574803149606,
          "duration": 0.0848917421875015
        },
        {
          "name": "D#4",
          "midi": 63,
          "time": 23.85411818652346,
          "velocity": 0.7401574803149606,
          "duration": 0.20438609667968777
        },
        {
          "name": "C#4",
          "midi": 61,
          "time": 24.0898773183594,
          "velocity": 0.6299212598425197,
          "duration": 0.22653176855468615
        },
        {
          "name": "G#4",
          "midi": 68,
          "time": 24.0898773183594,
          "velocity": 0.7874015748031497,
          "duration": 0.22653176855468615
        },
        {
          "name": "D#4",
          "midi": 63,
          "time": 24.456665008789084,
          "velocity": 0.7401574803149606,
          "duration": 0.09042816015625021
        },
        {
          "name": "F#4",
          "midi": 66,
          "time": 24.689194563476583,
          "velocity": 0.7401574803149606,
          "duration": 0.13333539941406158
        },
        {
          "name": "F4",
          "midi": 65,
          "time": 24.809150286132834,
          "velocity": 0.7401574803149606,
          "duration": 0.13333539941406158
        },
        {
          "name": "C#4",
          "midi": 61,
          "time": 25.044448049804707,
          "velocity": 0.7401574803149606,
          "duration": 0.0848917421875015
        },
        {
          "name": "D#4",
          "midi": 63,
          "time": 25.271441186523457,
          "velocity": 0.7401574803149606,
          "duration": 0.20438609667968777
        },
        {
          "name": "D#4",
          "midi": 63,
          "time": 25.507200318359395,
          "velocity": 0.6299212598425197,
          "duration": 0.22653176855468615
        },
        {
          "name": "G#4",
          "midi": 68,
          "time": 25.507200318359395,
          "velocity": 0.7874015748031497,
          "duration": 0.22653176855468615
        },
        {
          "name": "D#4",
          "midi": 63,
          "time": 25.87398800878908,
          "velocity": 0.7401574803149606,
          "duration": 0.09042816015625021
        },
        {
          "name": "F#4",
          "midi": 66,
          "time": 26.10651756347658,
          "velocity": 0.7401574803149606,
          "duration": 0.13333539941406158
        },
        {
          "name": "F4",
          "midi": 65,
          "time": 26.22647328613283,
          "velocity": 0.7401574803149606,
          "duration": 0.13333539941406158
        },
        {
          "name": "D#4",
          "midi": 63,
          "time": 26.461771049804703,
          "velocity": 0.7401574803149606,
          "duration": 0.0848917421875015
        },
        {
          "name": "C#4",
          "midi": 61,
          "time": 26.688764186523454,
          "velocity": 0.7401574803149606,
          "duration": 0.2634412216796882
        },
        {
          "name": "B3",
          "midi": 59,
          "time": 26.92452331835939,
          "velocity": 0.7401574803149606,
          "duration": 0.27820500292969186
        },
        {
          "name": "D#4",
          "midi": 63,
          "time": 26.92452331835939,
          "velocity": 0.7401574803149606,
          "duration": 0.25006154492187704
        },
        {
          "name": "A#3",
          "midi": 58,
          "time": 27.175046231445332,
          "velocity": 0.7401574803149606,
          "duration": 0.25975027636718906
        },
        {
          "name": "C#4",
          "midi": 61,
          "time": 27.175046231445332,
          "velocity": 0.7401574803149606,
          "duration": 0.23160681835937424
        },
        {
          "name": "G#3",
          "midi": 56,
          "time": 27.40711441796877,
          "velocity": 0.7401574803149606,
          "duration": 0.26436395800781654
        },
        {
          "name": "B3",
          "midi": 59,
          "time": 27.40711441796877,
          "velocity": 0.7401574803149606,
          "duration": 0.23622050000000172
        },
        {
          "name": "F#3",
          "midi": 54,
          "time": 27.643796286132837,
          "velocity": 0.7401574803149606,
          "duration": 0.2629798535156276
        },
        {
          "name": "A#3",
          "midi": 58,
          "time": 27.643796286132837,
          "velocity": 0.7401574803149606,
          "duration": 0.23022271386718884
        },
        {
          "name": "A#3",
          "midi": 58,
          "time": 27.874019000000025,
          "velocity": 0.6299212598425197,
          "duration": 0.22607040039062554
        },
        {
          "name": "G#3",
          "midi": 56,
          "time": 27.879094049804714,
          "velocity": 0.7401574803149606,
          "duration": 0.25467522656250097
        },
        {
          "name": "D#4",
          "midi": 63,
          "time": 27.879094049804714,
          "velocity": 0.7401574803149606,
          "duration": 0.22653176855468615
        },
        {
          "name": "A#3",
          "midi": 58,
          "time": 28.106087186523464,
          "velocity": 0.7401574803149606,
          "duration": 0.19977241503906384
        },
        {
          "name": "F#4",
          "midi": 66,
          "time": 28.106087186523464,
          "velocity": 0.7401574803149606,
          "duration": 0.23529776367187694
        },
        {
          "name": "C#4",
          "midi": 61,
          "time": 28.110239500000027,
          "velocity": 0.6299212598425197,
          "duration": 0.23622050000000172
        },
        {
          "name": "G#4",
          "midi": 68,
          "time": 28.34646000000003,
          "velocity": 0.7874015748031497,
          "duration": 0.243602390625
        },
        {
          "name": "D#4",
          "midi": 63,
          "time": 28.34646000000003,
          "velocity": 0.6299212598425197,
          "duration": 0.243602390625
        },
        {
          "name": "D#4",
          "midi": 63,
          "time": 28.70863400878909,
          "velocity": 0.7401574803149606,
          "duration": 0.09042816015625021
        },
        {
          "name": "F#4",
          "midi": 66,
          "time": 28.94116356347659,
          "velocity": 0.7401574803149606,
          "duration": 0.13333539941406158
        },
        {
          "name": "F4",
          "midi": 65,
          "time": 29.06111928613284,
          "velocity": 0.7401574803149606,
          "duration": 0.13333539941406158
        },
        {
          "name": "C#4",
          "midi": 61,
          "time": 29.296417049804713,
          "velocity": 0.7401574803149606,
          "duration": 0.0848917421875015
        },
        {
          "name": "D#4",
          "midi": 63,
          "time": 29.523410186523463,
          "velocity": 0.7401574803149606,
          "duration": 0.20438609667968777
        },
        {
          "name": "G#4",
          "midi": 68,
          "time": 29.7739330996094,
          "velocity": 0.7874015748031497,
          "duration": 0.22653176855468615
        },
        {
          "name": "C#4",
          "midi": 61,
          "time": 29.7739330996094,
          "velocity": 0.6299212598425197,
          "duration": 0.22653176855468615
        },
        {
          "name": "D#4",
          "midi": 63,
          "time": 30.125957008789086,
          "velocity": 0.7401574803149606,
          "duration": 0.09042816015625021
        },
        {
          "name": "F#4",
          "midi": 66,
          "time": 30.358486563476585,
          "velocity": 0.7401574803149606,
          "duration": 0.13333539941406158
        },
        {
          "name": "F4",
          "midi": 65,
          "time": 30.478442286132836,
          "velocity": 0.7401574803149606,
          "duration": 0.13333539941406158
        },
        {
          "name": "C#4",
          "midi": 61,
          "time": 30.71374004980471,
          "velocity": 0.7401574803149606,
          "duration": 0.0848917421875015
        },
        {
          "name": "D#4",
          "midi": 63,
          "time": 30.94073318652346,
          "velocity": 0.7401574803149606,
          "duration": 0.20438609667968777
        },
        {
          "name": "G#4",
          "midi": 68,
          "time": 31.191256099609397,
          "velocity": 0.7874015748031497,
          "duration": 0.22653176855468615
        },
        {
          "name": "D#4",
          "midi": 63,
          "time": 31.191256099609397,
          "velocity": 0.6299212598425197,
          "duration": 0.22653176855468615
        },
        {
          "name": "D#4",
          "midi": 63,
          "time": 31.543280008789083,
          "velocity": 0.7401574803149606,
          "duration": 0.09042816015625021
        },
        {
          "name": "F#4",
          "midi": 66,
          "time": 31.77580956347658,
          "velocity": 0.7401574803149606,
          "duration": 0.13333539941406158
        },
        {
          "name": "F4",
          "midi": 65,
          "time": 31.895765286132832,
          "velocity": 0.7401574803149606,
          "duration": 0.13333539941406158
        },
        {
          "name": "D#4",
          "midi": 63,
          "time": 32.13106304980471,
          "velocity": 0.7401574803149606,
          "duration": 0.0848917421875015
        },
        {
          "name": "C#4",
          "midi": 61,
          "time": 32.35805618652346,
          "velocity": 0.7401574803149606,
          "duration": 0.26344122167968465
        },
        {
          "name": "D#4",
          "midi": 63,
          "time": 32.5938153183594,
          "velocity": 0.7401574803149606,
          "duration": 0.25006154492187704
        },
        {
          "name": "B3",
          "midi": 59,
          "time": 32.5938153183594,
          "velocity": 0.7401574803149606,
          "duration": 0.2782050029296883
        },
        {
          "name": "C#4",
          "midi": 61,
          "time": 32.844338231445334,
          "velocity": 0.7401574803149606,
          "duration": 0.23160681835937424
        },
        {
          "name": "A#3",
          "midi": 58,
          "time": 32.844338231445334,
          "velocity": 0.7401574803149606,
          "duration": 0.2597502763671855
        },
        {
          "name": "B3",
          "midi": 59,
          "time": 33.07640641796877,
          "velocity": 0.7401574803149606,
          "duration": 0.23622050000000172
        },
        {
          "name": "G#3",
          "midi": 56,
          "time": 33.07640641796877,
          "velocity": 0.7401574803149606,
          "duration": 0.264363958007813
        },
        {
          "name": "A#3",
          "midi": 58,
          "time": 33.31308828613283,
          "velocity": 0.7401574803149606,
          "duration": 0.2302227138671853
        },
        {
          "name": "F#3",
          "midi": 54,
          "time": 33.31308828613283,
          "velocity": 0.7401574803149606,
          "duration": 0.26297985351562403
        },
        {
          "name": "A#3",
          "midi": 58,
          "time": 33.54331100000002,
          "velocity": 0.6299212598425197,
          "duration": 0.22607040039062554
        },
        {
          "name": "D#4",
          "midi": 63,
          "time": 33.548386049804705,
          "velocity": 0.7401574803149606,
          "duration": 0.22653176855468615
        },
        {
          "name": "G#3",
          "midi": 56,
          "time": 33.548386049804705,
          "velocity": 0.7401574803149606,
          "duration": 0.2546752265624974
        },
        {
          "name": "F#4",
          "midi": 66,
          "time": 33.77537918652345,
          "velocity": 0.7401574803149606,
          "duration": 0.23529776367187338
        },
        {
          "name": "A#3",
          "midi": 58,
          "time": 33.77537918652345,
          "velocity": 0.7401574803149606,
          "duration": 0.19977241503906384
        },
        {
          "name": "C#4",
          "midi": 61,
          "time": 33.77953150000001,
          "velocity": 0.6299212598425197,
          "duration": 0.23622050000000172
        },
        {
          "name": "G#4",
          "midi": 68,
          "time": 34.01575200000001,
          "velocity": 0.7559055118110236,
          "duration": 0.22330219140624763
        },
        {
          "name": "E4",
          "midi": 64,
          "time": 34.01575200000001,
          "velocity": 0.7559055118110236,
          "duration": 0.22330219140624763
        },
        {
          "name": "E4",
          "midi": 64,
          "time": 34.25197250000001,
          "velocity": 0.7559055118110236,
          "duration": 0.22330219140624763
        },
        {
          "name": "C#4",
          "midi": 61,
          "time": 34.25197250000001,
          "velocity": 0.7559055118110236,
          "duration": 0.22330219140624763
        },
        {
          "name": "C#4",
          "midi": 61,
          "time": 34.488193,
          "velocity": 0.7559055118110236,
          "duration": 0.22330219140624763
        },
        {
          "name": "A#3",
          "midi": 58,
          "time": 34.488193,
          "velocity": 0.7559055118110236,
          "duration": 0.22330219140624763
        },
        {
          "name": "D#4",
          "midi": 63,
          "time": 34.7244135,
          "velocity": 0.7559055118110236,
          "duration": 0.22330219140624763
        },
        {
          "name": "G3",
          "midi": 55,
          "time": 34.7244135,
          "velocity": 0.7559055118110236,
          "duration": 0.22330219140624763
        },
        {
          "name": "G4",
          "midi": 67,
          "time": 34.96063399999999,
          "velocity": 0.7559055118110236,
          "duration": 0.22330219140624763
        },
        {
          "name": "A#3",
          "midi": 58,
          "time": 34.96063399999999,
          "velocity": 0.7559055118110236,
          "duration": 0.22330219140624763
        },
        {
          "name": "A#4",
          "midi": 70,
          "time": 35.196854499999986,
          "velocity": 0.7559055118110236,
          "duration": 0.22330219140624763
        },
        {
          "name": "D#4",
          "midi": 63,
          "time": 35.196854499999986,
          "velocity": 0.7559055118110236,
          "duration": 0.22330219140624763
        },
        {
          "name": "G#4",
          "midi": 68,
          "time": 35.43307499999998,
          "velocity": 0.7559055118110236,
          "duration": 0.22330219140624763
        },
        {
          "name": "E4",
          "midi": 64,
          "time": 35.43307499999998,
          "velocity": 0.7559055118110236,
          "duration": 0.22330219140624763
        },
        {
          "name": "E4",
          "midi": 64,
          "time": 35.669295499999976,
          "velocity": 0.7559055118110236,
          "duration": 0.22330219140624763
        },
        {
          "name": "C#4",
          "midi": 61,
          "time": 35.669295499999976,
          "velocity": 0.7559055118110236,
          "duration": 0.22330219140624763
        },
        {
          "name": "C#4",
          "midi": 61,
          "time": 35.90551599999997,
          "velocity": 0.7559055118110236,
          "duration": 0.22330219140624763
        },
        {
          "name": "A#3",
          "midi": 58,
          "time": 35.90551599999997,
          "velocity": 0.7559055118110236,
          "duration": 0.22330219140624763
        },
        {
          "name": "A#3",
          "midi": 58,
          "time": 36.141736499999965,
          "velocity": 0.7559055118110236,
          "duration": 0.22330219140624763
        },
        {
          "name": "G3",
          "midi": 55,
          "time": 36.141736499999965,
          "velocity": 0.7559055118110236,
          "duration": 0.22330219140624763
        },
        {
          "name": "D#4",
          "midi": 63,
          "time": 36.37795699999996,
          "velocity": 0.7559055118110236,
          "duration": 0.22330219140624763
        },
        {
          "name": "A#3",
          "midi": 58,
          "time": 36.37795699999996,
          "velocity": 0.7559055118110236,
          "duration": 0.22330219140624763
        },
        {
          "name": "G4",
          "midi": 67,
          "time": 36.614177499999954,
          "velocity": 0.7559055118110236,
          "duration": 0.22330219140624763
        },
        {
          "name": "D#4",
          "midi": 63,
          "time": 36.614177499999954,
          "velocity": 0.7559055118110236,
          "duration": 0.22330219140624763
        },
        {
          "name": "G#4",
          "midi": 68,
          "time": 36.85039799999995,
          "velocity": 0.7559055118110236,
          "duration": 0.11672614550781191
        },
        {
          "name": "E4",
          "midi": 64,
          "time": 36.85039799999995,
          "velocity": 0.7559055118110236,
          "duration": 0.11672614550781191
        },
        {
          "name": "E4",
          "midi": 64,
          "time": 37.08661849999995,
          "velocity": 0.6377952755905512,
          "duration": 0.11672614550781191
        },
        {
          "name": "C#4",
          "midi": 61,
          "time": 37.08661849999995,
          "velocity": 0.6377952755905512,
          "duration": 0.11672614550781191
        },
        {
          "name": "C#4",
          "midi": 61,
          "time": 37.32283899999995,
          "velocity": 0.5118110236220472,
          "duration": 0.11672614550781191
        },
        {
          "name": "G#3",
          "midi": 56,
          "time": 37.32283899999995,
          "velocity": 0.5118110236220472,
          "duration": 0.11672614550781191
        },
        {
          "name": "D#4",
          "midi": 63,
          "time": 37.559059499999954,
          "velocity": 0.3858267716535433,
          "duration": 0.17578127050781234
        },
        {
          "name": "G3",
          "midi": 55,
          "time": 37.559059499999954,
          "velocity": 0.3858267716535433,
          "duration": 0.17578127050781234
        },
        {
          "name": "E4",
          "midi": 64,
          "time": 49.251974249999954,
          "velocity": 0.3937007874015748,
          "duration": 0.1111897275390632
        },
        {
          "name": "A#3",
          "midi": 58,
          "time": 49.251974249999954,
          "velocity": 0.3937007874015748,
          "duration": 0.1111897275390632
        },
        {
          "name": "E3",
          "midi": 52,
          "time": 49.25566519531245,
          "velocity": 0.6299212598425197,
          "duration": 0.1111897275390632
        },
        {
          "name": "A#2",
          "midi": 46,
          "time": 49.25566519531245,
          "velocity": 0.6299212598425197,
          "duration": 0.1111897275390632
        },
        {
          "name": "B4",
          "midi": 71,
          "time": 49.370084499999955,
          "velocity": 0.3937007874015748,
          "duration": 0.1111897275390632
        },
        {
          "name": "D#4",
          "midi": 63,
          "time": 49.370084499999955,
          "velocity": 0.3937007874015748,
          "duration": 0.1111897275390632
        },
        {
          "name": "B3",
          "midi": 59,
          "time": 49.373775445312454,
          "velocity": 0.6692913385826772,
          "duration": 0.1111897275390632
        },
        {
          "name": "G#3",
          "midi": 56,
          "time": 49.373775445312454,
          "velocity": 0.6692913385826772,
          "duration": 0.1111897275390632
        },
        {
          "name": "A#4",
          "midi": 70,
          "time": 49.488194749999955,
          "velocity": 0.3937007874015748,
          "duration": 0.1111897275390632
        },
        {
          "name": "C#4",
          "midi": 61,
          "time": 49.488194749999955,
          "velocity": 0.3937007874015748,
          "duration": 0.1111897275390632
        },
        {
          "name": "A#3",
          "midi": 58,
          "time": 49.491885695312455,
          "velocity": 0.7086614173228346,
          "duration": 0.1111897275390632
        },
        {
          "name": "G3",
          "midi": 55,
          "time": 49.491885695312455,
          "velocity": 0.7086614173228346,
          "duration": 0.1111897275390632
        },
        {
          "name": "B4",
          "midi": 71,
          "time": 49.606304999999956,
          "velocity": 0.3937007874015748,
          "duration": 0.11672614550781191
        },
        {
          "name": "D#4",
          "midi": 63,
          "time": 49.606304999999956,
          "velocity": 0.3937007874015748,
          "duration": 0.11672614550781191
        },
        {
          "name": "B3",
          "midi": 59,
          "time": 49.609995945312455,
          "velocity": 0.7874015748031497,
          "duration": 0.11672614550781191
        },
        {
          "name": "G#3",
          "midi": 56,
          "time": 49.609995945312455,
          "velocity": 0.7874015748031497,
          "duration": 0.11672614550781191
        },
        {
          "name": "B4",
          "midi": 71,
          "time": 49.84252549999996,
          "velocity": 0.3937007874015748,
          "duration": 0.1111897275390632
        },
        {
          "name": "D#4",
          "midi": 63,
          "time": 49.84252549999996,
          "velocity": 0.3937007874015748,
          "duration": 0.1111897275390632
        },
        {
          "name": "B3",
          "midi": 59,
          "time": 49.84621644531246,
          "velocity": 0.7086614173228346,
          "duration": 0.1111897275390632
        },
        {
          "name": "G#3",
          "midi": 56,
          "time": 49.84621644531246,
          "velocity": 0.7086614173228346,
          "duration": 0.1111897275390632
        },
        {
          "name": "B4",
          "midi": 71,
          "time": 49.96063574999996,
          "velocity": 0.3937007874015748,
          "duration": 0.11672614550781191
        },
        {
          "name": "D#4",
          "midi": 63,
          "time": 49.96063574999996,
          "velocity": 0.3937007874015748,
          "duration": 0.11672614550781191
        },
        {
          "name": "B3",
          "midi": 59,
          "time": 49.96432669531246,
          "velocity": 0.7874015748031497,
          "duration": 0.11672614550781191
        },
        {
          "name": "G#3",
          "midi": 56,
          "time": 49.96432669531246,
          "velocity": 0.7874015748031497,
          "duration": 0.11672614550781191
        },
        {
          "name": "B4",
          "midi": 71,
          "time": 50.19685624999996,
          "velocity": 0.3937007874015748,
          "duration": 0.1111897275390632
        },
        {
          "name": "D#4",
          "midi": 63,
          "time": 50.19685624999996,
          "velocity": 0.3937007874015748,
          "duration": 0.1111897275390632
        },
        {
          "name": "B3",
          "midi": 59,
          "time": 50.20054719531246,
          "velocity": 0.7086614173228346,
          "duration": 0.1111897275390632
        },
        {
          "name": "G#3",
          "midi": 56,
          "time": 50.20054719531246,
          "velocity": 0.7086614173228346,
          "duration": 0.1111897275390632
        },
        {
          "name": "D#4",
          "midi": 63,
          "time": 50.31865744531246,
          "velocity": 0.3937007874015748,
          "duration": 0.11672614550781191
        },
        {
          "name": "G4",
          "midi": 67,
          "time": 50.31865744531246,
          "velocity": 0.3937007874015748,
          "duration": 0.11672614550781191
        },
        {
          "name": "A#4",
          "midi": 70,
          "time": 50.31865744531246,
          "velocity": 0.3937007874015748,
          "duration": 0.11672614550781191
        },
        {
          "name": "D#3",
          "midi": 51,
          "time": 50.32234839062496,
          "velocity": 0.7086614173228346,
          "duration": 0.11672614550781191
        },
        {
          "name": "G3",
          "midi": 55,
          "time": 50.32234839062496,
          "velocity": 0.7874015748031497,
          "duration": 0.11672614550781191
        },
        {
          "name": "A#3",
          "midi": 58,
          "time": 50.32234839062496,
          "velocity": 0.7874015748031497,
          "duration": 0.11672614550781191
        },
        {
          "name": "E4",
          "midi": 64,
          "time": 52.08292930468746,
          "velocity": 0.3937007874015748,
          "duration": 0.1111897275390632
        },
        {
          "name": "A#3",
          "midi": 58,
          "time": 52.08292930468746,
          "velocity": 0.3937007874015748,
          "duration": 0.1111897275390632
        },
        {
          "name": "E3",
          "midi": 52,
          "time": 52.08662024999996,
          "velocity": 0.6299212598425197,
          "duration": 0.1111897275390632
        },
        {
          "name": "A#2",
          "midi": 46,
          "time": 52.08662024999996,
          "velocity": 0.6299212598425197,
          "duration": 0.1111897275390632
        },
        {
          "name": "B4",
          "midi": 71,
          "time": 52.20103955468746,
          "velocity": 0.3937007874015748,
          "duration": 0.1111897275390632
        },
        {
          "name": "D#4",
          "midi": 63,
          "time": 52.20103955468746,
          "velocity": 0.3937007874015748,
          "duration": 0.1111897275390632
        },
        {
          "name": "B3",
          "midi": 59,
          "time": 52.20473049999996,
          "velocity": 0.7874015748031497,
          "duration": 0.1111897275390632
        },
        {
          "name": "G#3",
          "midi": 56,
          "time": 52.20473049999996,
          "velocity": 0.7874015748031497,
          "duration": 0.1111897275390632
        },
        {
          "name": "A#4",
          "midi": 70,
          "time": 52.31914980468746,
          "velocity": 0.3937007874015748,
          "duration": 0.1111897275390632
        },
        {
          "name": "C#4",
          "midi": 61,
          "time": 52.31914980468746,
          "velocity": 0.3937007874015748,
          "duration": 0.1111897275390632
        },
        {
          "name": "A#3",
          "midi": 58,
          "time": 52.32284074999996,
          "velocity": 0.7874015748031497,
          "duration": 0.1111897275390632
        },
        {
          "name": "G3",
          "midi": 55,
          "time": 52.32284074999996,
          "velocity": 0.7874015748031497,
          "duration": 0.1111897275390632
        },
        {
          "name": "B4",
          "midi": 71,
          "time": 52.437260054687464,
          "velocity": 0.3937007874015748,
          "duration": 0.11672614550781191
        },
        {
          "name": "D#4",
          "midi": 63,
          "time": 52.437260054687464,
          "velocity": 0.3937007874015748,
          "duration": 0.11672614550781191
        },
        {
          "name": "B3",
          "midi": 59,
          "time": 52.44095099999996,
          "velocity": 0.7874015748031497,
          "duration": 0.11672614550781191
        },
        {
          "name": "G#3",
          "midi": 56,
          "time": 52.44095099999996,
          "velocity": 0.7874015748031497,
          "duration": 0.11672614550781191
        },
        {
          "name": "B4",
          "midi": 71,
          "time": 52.673480554687465,
          "velocity": 0.3937007874015748,
          "duration": 0.1111897275390632
        },
        {
          "name": "D#4",
          "midi": 63,
          "time": 52.673480554687465,
          "velocity": 0.3937007874015748,
          "duration": 0.1111897275390632
        },
        {
          "name": "B3",
          "midi": 59,
          "time": 52.677171499999965,
          "velocity": 0.7086614173228346,
          "duration": 0.1111897275390632
        },
        {
          "name": "G#3",
          "midi": 56,
          "time": 52.677171499999965,
          "velocity": 0.7086614173228346,
          "duration": 0.1111897275390632
        },
        {
          "name": "B4",
          "midi": 71,
          "time": 52.791590804687466,
          "velocity": 0.3937007874015748,
          "duration": 0.11672614550781191
        },
        {
          "name": "D#4",
          "midi": 63,
          "time": 52.791590804687466,
          "velocity": 0.3937007874015748,
          "duration": 0.11672614550781191
        },
        {
          "name": "B3",
          "midi": 59,
          "time": 52.795281749999965,
          "velocity": 0.7874015748031497,
          "duration": 0.11672614550781191
        },
        {
          "name": "G#3",
          "midi": 56,
          "time": 52.795281749999965,
          "velocity": 0.7874015748031497,
          "duration": 0.11672614550781191
        },
        {
          "name": "B4",
          "midi": 71,
          "time": 53.02781130468747,
          "velocity": 0.3937007874015748,
          "duration": 0.1111897275390632
        },
        {
          "name": "D#4",
          "midi": 63,
          "time": 53.02781130468747,
          "velocity": 0.3937007874015748,
          "duration": 0.1111897275390632
        },
        {
          "name": "B3",
          "midi": 59,
          "time": 53.03150224999997,
          "velocity": 0.7086614173228346,
          "duration": 0.1111897275390632
        },
        {
          "name": "G#3",
          "midi": 56,
          "time": 53.03150224999997,
          "velocity": 0.7086614173228346,
          "duration": 0.1111897275390632
        },
        {
          "name": "D#4",
          "midi": 63,
          "time": 53.14961249999997,
          "velocity": 0.3937007874015748,
          "duration": 0.11672614550781191
        },
        {
          "name": "G4",
          "midi": 67,
          "time": 53.14961249999997,
          "velocity": 0.3937007874015748,
          "duration": 0.11672614550781191
        },
        {
          "name": "A#4",
          "midi": 70,
          "time": 53.14961249999997,
          "velocity": 0.3937007874015748,
          "duration": 0.11672614550781191
        },
        {
          "name": "D#3",
          "midi": 51,
          "time": 53.15330344531247,
          "velocity": 0.7086614173228346,
          "duration": 0.11672614550781191
        },
        {
          "name": "G3",
          "midi": 55,
          "time": 53.15330344531247,
          "velocity": 0.7874015748031497,
          "duration": 0.11672614550781191
        },
        {
          "name": "A#3",
          "midi": 58,
          "time": 53.15330344531247,
          "velocity": 0.7874015748031497,
          "duration": 0.11672614550781191
        },
        {
          "name": "E4",
          "midi": 64,
          "time": 54.91757530468747,
          "velocity": 0.3937007874015748,
          "duration": 0.1111897275390632
        },
        {
          "name": "A#3",
          "midi": 58,
          "time": 54.91757530468747,
          "velocity": 0.3937007874015748,
          "duration": 0.1111897275390632
        },
        {
          "name": "E3",
          "midi": 52,
          "time": 54.92126624999997,
          "velocity": 0.6299212598425197,
          "duration": 0.1111897275390632
        },
        {
          "name": "A#2",
          "midi": 46,
          "time": 54.92126624999997,
          "velocity": 0.6299212598425197,
          "duration": 0.1111897275390632
        },
        {
          "name": "B4",
          "midi": 71,
          "time": 55.03568555468747,
          "velocity": 0.3937007874015748,
          "duration": 0.1111897275390632
        },
        {
          "name": "D#4",
          "midi": 63,
          "time": 55.03568555468747,
          "velocity": 0.3937007874015748,
          "duration": 0.1111897275390632
        },
        {
          "name": "B3",
          "midi": 59,
          "time": 55.03937649999997,
          "velocity": 0.7874015748031497,
          "duration": 0.1111897275390632
        },
        {
          "name": "G#3",
          "midi": 56,
          "time": 55.03937649999997,
          "velocity": 0.7874015748031497,
          "duration": 0.1111897275390632
        },
        {
          "name": "A#4",
          "midi": 70,
          "time": 55.15379580468747,
          "velocity": 0.3937007874015748,
          "duration": 0.1111897275390632
        },
        {
          "name": "C#4",
          "midi": 61,
          "time": 55.15379580468747,
          "velocity": 0.3937007874015748,
          "duration": 0.1111897275390632
        },
        {
          "name": "A#3",
          "midi": 58,
          "time": 55.15748674999997,
          "velocity": 0.7874015748031497,
          "duration": 0.1111897275390632
        },
        {
          "name": "G3",
          "midi": 55,
          "time": 55.15748674999997,
          "velocity": 0.7874015748031497,
          "duration": 0.1111897275390632
        },
        {
          "name": "B4",
          "midi": 71,
          "time": 55.27190605468747,
          "velocity": 0.3937007874015748,
          "duration": 0.11672614550781191
        },
        {
          "name": "D#4",
          "midi": 63,
          "time": 55.27190605468747,
          "velocity": 0.3937007874015748,
          "duration": 0.11672614550781191
        },
        {
          "name": "B3",
          "midi": 59,
          "time": 55.27559699999997,
          "velocity": 0.7874015748031497,
          "duration": 0.11672614550781191
        },
        {
          "name": "G#3",
          "midi": 56,
          "time": 55.27559699999997,
          "velocity": 0.7874015748031497,
          "duration": 0.11672614550781191
        },
        {
          "name": "B4",
          "midi": 71,
          "time": 55.50812655468747,
          "velocity": 0.3937007874015748,
          "duration": 0.1111897275390632
        },
        {
          "name": "D#4",
          "midi": 63,
          "time": 55.50812655468747,
          "velocity": 0.3937007874015748,
          "duration": 0.1111897275390632
        },
        {
          "name": "B3",
          "midi": 59,
          "time": 55.51181749999997,
          "velocity": 0.7086614173228346,
          "duration": 0.1111897275390632
        },
        {
          "name": "G#3",
          "midi": 56,
          "time": 55.51181749999997,
          "velocity": 0.7086614173228346,
          "duration": 0.1111897275390632
        },
        {
          "name": "B4",
          "midi": 71,
          "time": 55.62623680468747,
          "velocity": 0.3937007874015748,
          "duration": 0.11672614550781191
        },
        {
          "name": "D#4",
          "midi": 63,
          "time": 55.62623680468747,
          "velocity": 0.3937007874015748,
          "duration": 0.11672614550781191
        },
        {
          "name": "B3",
          "midi": 59,
          "time": 55.62992774999997,
          "velocity": 0.7874015748031497,
          "duration": 0.11672614550781191
        },
        {
          "name": "G#3",
          "midi": 56,
          "time": 55.62992774999997,
          "velocity": 0.7874015748031497,
          "duration": 0.11672614550781191
        },
        {
          "name": "B4",
          "midi": 71,
          "time": 55.862457304687474,
          "velocity": 0.3937007874015748,
          "duration": 0.1111897275390632
        },
        {
          "name": "D#4",
          "midi": 63,
          "time": 55.862457304687474,
          "velocity": 0.3937007874015748,
          "duration": 0.1111897275390632
        },
        {
          "name": "B3",
          "midi": 59,
          "time": 55.86614824999997,
          "velocity": 0.7086614173228346,
          "duration": 0.1111897275390632
        },
        {
          "name": "G#3",
          "midi": 56,
          "time": 55.86614824999997,
          "velocity": 0.7086614173228346,
          "duration": 0.1111897275390632
        },
        {
          "name": "D#4",
          "midi": 63,
          "time": 55.984258499999974,
          "velocity": 0.3937007874015748,
          "duration": 0.11672614550781191
        },
        {
          "name": "G4",
          "midi": 67,
          "time": 55.984258499999974,
          "velocity": 0.3937007874015748,
          "duration": 0.11672614550781191
        },
        {
          "name": "A#4",
          "midi": 70,
          "time": 55.984258499999974,
          "velocity": 0.3937007874015748,
          "duration": 0.11672614550781191
        },
        {
          "name": "D#3",
          "midi": 51,
          "time": 55.98794944531247,
          "velocity": 0.7086614173228346,
          "duration": 0.11672614550781191
        },
        {
          "name": "G3",
          "midi": 55,
          "time": 55.98794944531247,
          "velocity": 0.7874015748031497,
          "duration": 0.11672614550781191
        },
        {
          "name": "A#3",
          "midi": 58,
          "time": 55.98794944531247,
          "velocity": 0.7874015748031497,
          "duration": 0.11672614550781191
        },
        {
          "name": "E4",
          "midi": 64,
          "time": 57.748530359374975,
          "velocity": 0.3937007874015748,
          "duration": 0.1111897275390632
        },
        {
          "name": "A#3",
          "midi": 58,
          "time": 57.748530359374975,
          "velocity": 0.3937007874015748,
          "duration": 0.1111897275390632
        },
        {
          "name": "E3",
          "midi": 52,
          "time": 57.752221304687474,
          "velocity": 0.6299212598425197,
          "duration": 0.1111897275390632
        },
        {
          "name": "A#2",
          "midi": 46,
          "time": 57.752221304687474,
          "velocity": 0.6299212598425197,
          "duration": 0.1111897275390632
        },
        {
          "name": "B4",
          "midi": 71,
          "time": 57.866640609374976,
          "velocity": 0.3937007874015748,
          "duration": 0.1111897275390632
        },
        {
          "name": "D#4",
          "midi": 63,
          "time": 57.866640609374976,
          "velocity": 0.3937007874015748,
          "duration": 0.1111897275390632
        },
        {
          "name": "B3",
          "midi": 59,
          "time": 57.870331554687475,
          "velocity": 0.7874015748031497,
          "duration": 0.1111897275390632
        },
        {
          "name": "G#3",
          "midi": 56,
          "time": 57.870331554687475,
          "velocity": 0.7874015748031497,
          "duration": 0.1111897275390632
        },
        {
          "name": "A#4",
          "midi": 70,
          "time": 57.98475085937498,
          "velocity": 0.3937007874015748,
          "duration": 0.1111897275390632
        },
        {
          "name": "C#4",
          "midi": 61,
          "time": 57.98475085937498,
          "velocity": 0.3937007874015748,
          "duration": 0.1111897275390632
        },
        {
          "name": "A#3",
          "midi": 58,
          "time": 57.988441804687476,
          "velocity": 0.7874015748031497,
          "duration": 0.1111897275390632
        },
        {
          "name": "G3",
          "midi": 55,
          "time": 57.988441804687476,
          "velocity": 0.7874015748031497,
          "duration": 0.1111897275390632
        },
        {
          "name": "B4",
          "midi": 71,
          "time": 58.10286110937498,
          "velocity": 0.3937007874015748,
          "duration": 0.11672614550781191
        },
        {
          "name": "D#4",
          "midi": 63,
          "time": 58.10286110937498,
          "velocity": 0.3937007874015748,
          "duration": 0.11672614550781191
        },
        {
          "name": "B3",
          "midi": 59,
          "time": 58.10655205468748,
          "velocity": 0.7874015748031497,
          "duration": 0.11672614550781191
        },
        {
          "name": "G#3",
          "midi": 56,
          "time": 58.10655205468748,
          "velocity": 0.7874015748031497,
          "duration": 0.11672614550781191
        },
        {
          "name": "B4",
          "midi": 71,
          "time": 58.33908160937498,
          "velocity": 0.3937007874015748,
          "duration": 0.1111897275390632
        },
        {
          "name": "D#4",
          "midi": 63,
          "time": 58.33908160937498,
          "velocity": 0.3937007874015748,
          "duration": 0.1111897275390632
        },
        {
          "name": "B3",
          "midi": 59,
          "time": 58.34277255468748,
          "velocity": 0.7086614173228346,
          "duration": 0.1111897275390632
        },
        {
          "name": "G#3",
          "midi": 56,
          "time": 58.34277255468748,
          "velocity": 0.7086614173228346,
          "duration": 0.1111897275390632
        },
        {
          "name": "B4",
          "midi": 71,
          "time": 58.45719185937498,
          "velocity": 0.3937007874015748,
          "duration": 0.11672614550781191
        },
        {
          "name": "D#4",
          "midi": 63,
          "time": 58.45719185937498,
          "velocity": 0.3937007874015748,
          "duration": 0.11672614550781191
        },
        {
          "name": "B3",
          "midi": 59,
          "time": 58.46088280468748,
          "velocity": 0.7874015748031497,
          "duration": 0.11672614550781191
        },
        {
          "name": "G#3",
          "midi": 56,
          "time": 58.46088280468748,
          "velocity": 0.7874015748031497,
          "duration": 0.11672614550781191
        },
        {
          "name": "B4",
          "midi": 71,
          "time": 58.69341235937498,
          "velocity": 0.3937007874015748,
          "duration": 0.1111897275390632
        },
        {
          "name": "D#4",
          "midi": 63,
          "time": 58.69341235937498,
          "velocity": 0.3937007874015748,
          "duration": 0.1111897275390632
        },
        {
          "name": "B3",
          "midi": 59,
          "time": 58.69710330468748,
          "velocity": 0.7086614173228346,
          "duration": 0.1111897275390632
        },
        {
          "name": "G#3",
          "midi": 56,
          "time": 58.69710330468748,
          "velocity": 0.7086614173228346,
          "duration": 0.1111897275390632
        },
        {
          "name": "D#4",
          "midi": 63,
          "time": 58.81521355468748,
          "velocity": 0.3937007874015748,
          "duration": 0.11672614550781191
        },
        {
          "name": "G4",
          "midi": 67,
          "time": 58.81521355468748,
          "velocity": 0.3937007874015748,
          "duration": 0.11672614550781191
        },
        {
          "name": "A#4",
          "midi": 70,
          "time": 58.81521355468748,
          "velocity": 0.3937007874015748,
          "duration": 0.11672614550781191
        },
        {
          "name": "D#3",
          "midi": 51,
          "time": 58.81890449999998,
          "velocity": 0.7086614173228346,
          "duration": 0.11672614550781191
        },
        {
          "name": "G3",
          "midi": 55,
          "time": 58.81890449999998,
          "velocity": 0.7874015748031497,
          "duration": 0.11672614550781191
        },
        {
          "name": "A#3",
          "midi": 58,
          "time": 58.81890449999998,
          "velocity": 0.7874015748031497,
          "duration": 0.11672614550781191
        },
        {
          "name": "A#3",
          "midi": 58,
          "time": 71.92914224999998,
          "velocity": 0.3937007874015748,
          "duration": 0.1111897275390561
        },
        {
          "name": "E4",
          "midi": 64,
          "time": 71.92914224999998,
          "velocity": 0.3937007874015748,
          "duration": 0.1111897275390561
        },
        {
          "name": "A#2",
          "midi": 46,
          "time": 71.93283319531248,
          "velocity": 0.6299212598425197,
          "duration": 0.1111897275390561
        },
        {
          "name": "E3",
          "midi": 52,
          "time": 71.93283319531248,
          "velocity": 0.6299212598425197,
          "duration": 0.1111897275390561
        },
        {
          "name": "D#4",
          "midi": 63,
          "time": 72.04725249999997,
          "velocity": 0.3937007874015748,
          "duration": 0.1111897275390561
        },
        {
          "name": "B4",
          "midi": 71,
          "time": 72.04725249999997,
          "velocity": 0.3937007874015748,
          "duration": 0.1111897275390561
        },
        {
          "name": "G#3",
          "midi": 56,
          "time": 72.05094344531247,
          "velocity": 0.6692913385826772,
          "duration": 0.1111897275390561
        },
        {
          "name": "B3",
          "midi": 59,
          "time": 72.05094344531247,
          "velocity": 0.6692913385826772,
          "duration": 0.1111897275390561
        },
        {
          "name": "C#4",
          "midi": 61,
          "time": 72.16536274999996,
          "velocity": 0.3937007874015748,
          "duration": 0.1111897275390561
        },
        {
          "name": "A#4",
          "midi": 70,
          "time": 72.16536274999996,
          "velocity": 0.3937007874015748,
          "duration": 0.1111897275390561
        },
        {
          "name": "G3",
          "midi": 55,
          "time": 72.16905369531246,
          "velocity": 0.7086614173228346,
          "duration": 0.1111897275390561
        },
        {
          "name": "A#3",
          "midi": 58,
          "time": 72.16905369531246,
          "velocity": 0.7086614173228346,
          "duration": 0.1111897275390561
        },
        {
          "name": "D#4",
          "midi": 63,
          "time": 72.28347299999994,
          "velocity": 0.3937007874015748,
          "duration": 0.11672614550781191
        },
        {
          "name": "B4",
          "midi": 71,
          "time": 72.28347299999994,
          "velocity": 0.3937007874015748,
          "duration": 0.11672614550781191
        },
        {
          "name": "G#3",
          "midi": 56,
          "time": 72.28716394531244,
          "velocity": 0.7874015748031497,
          "duration": 0.11672614550781191
        },
        {
          "name": "B3",
          "midi": 59,
          "time": 72.28716394531244,
          "velocity": 0.7874015748031497,
          "duration": 0.11672614550781191
        },
        {
          "name": "D#4",
          "midi": 63,
          "time": 72.51969349999995,
          "velocity": 0.3937007874015748,
          "duration": 0.1111897275390561
        },
        {
          "name": "B4",
          "midi": 71,
          "time": 72.51969349999995,
          "velocity": 0.3937007874015748,
          "duration": 0.1111897275390561
        },
        {
          "name": "G#3",
          "midi": 56,
          "time": 72.52338444531244,
          "velocity": 0.7086614173228346,
          "duration": 0.1111897275390561
        },
        {
          "name": "B3",
          "midi": 59,
          "time": 72.52338444531244,
          "velocity": 0.7086614173228346,
          "duration": 0.1111897275390561
        },
        {
          "name": "D#4",
          "midi": 63,
          "time": 72.63780374999993,
          "velocity": 0.3937007874015748,
          "duration": 0.11672614550781191
        },
        {
          "name": "B4",
          "midi": 71,
          "time": 72.63780374999993,
          "velocity": 0.3937007874015748,
          "duration": 0.11672614550781191
        },
        {
          "name": "G#3",
          "midi": 56,
          "time": 72.64149469531243,
          "velocity": 0.7874015748031497,
          "duration": 0.11672614550781191
        },
        {
          "name": "B3",
          "midi": 59,
          "time": 72.64149469531243,
          "velocity": 0.7874015748031497,
          "duration": 0.11672614550781191
        },
        {
          "name": "D#4",
          "midi": 63,
          "time": 72.87402424999993,
          "velocity": 0.3937007874015748,
          "duration": 0.1111897275390561
        },
        {
          "name": "B4",
          "midi": 71,
          "time": 72.87402424999993,
          "velocity": 0.3937007874015748,
          "duration": 0.1111897275390561
        },
        {
          "name": "G#3",
          "midi": 56,
          "time": 72.87771519531243,
          "velocity": 0.7086614173228346,
          "duration": 0.1111897275390561
        },
        {
          "name": "B3",
          "midi": 59,
          "time": 72.87771519531243,
          "velocity": 0.7086614173228346,
          "duration": 0.1111897275390561
        },
        {
          "name": "G4",
          "midi": 67,
          "time": 72.99582544531242,
          "velocity": 0.3937007874015748,
          "duration": 0.11672614550781191
        },
        {
          "name": "A#4",
          "midi": 70,
          "time": 72.99582544531242,
          "velocity": 0.3937007874015748,
          "duration": 0.11672614550781191
        },
        {
          "name": "D#4",
          "midi": 63,
          "time": 72.99582544531242,
          "velocity": 0.3937007874015748,
          "duration": 0.11672614550781191
        },
        {
          "name": "G3",
          "midi": 55,
          "time": 72.99951639062492,
          "velocity": 0.7874015748031497,
          "duration": 0.11672614550781191
        },
        {
          "name": "A#3",
          "midi": 58,
          "time": 72.99951639062492,
          "velocity": 0.7874015748031497,
          "duration": 0.11672614550781191
        },
        {
          "name": "D#3",
          "midi": 51,
          "time": 72.99951639062492,
          "velocity": 0.7086614173228346,
          "duration": 0.11672614550781191
        },
        {
          "name": "A#3",
          "midi": 58,
          "time": 74.76009730468742,
          "velocity": 0.3937007874015748,
          "duration": 0.1111897275390561
        },
        {
          "name": "E4",
          "midi": 64,
          "time": 74.76009730468742,
          "velocity": 0.3937007874015748,
          "duration": 0.1111897275390561
        },
        {
          "name": "A#2",
          "midi": 46,
          "time": 74.76378824999992,
          "velocity": 0.6299212598425197,
          "duration": 0.1111897275390561
        },
        {
          "name": "E3",
          "midi": 52,
          "time": 74.76378824999992,
          "velocity": 0.6299212598425197,
          "duration": 0.1111897275390561
        },
        {
          "name": "D#4",
          "midi": 63,
          "time": 74.8782075546874,
          "velocity": 0.3937007874015748,
          "duration": 0.1111897275390561
        },
        {
          "name": "B4",
          "midi": 71,
          "time": 74.8782075546874,
          "velocity": 0.3937007874015748,
          "duration": 0.1111897275390561
        },
        {
          "name": "G#3",
          "midi": 56,
          "time": 74.8818984999999,
          "velocity": 0.7874015748031497,
          "duration": 0.1111897275390561
        },
        {
          "name": "B3",
          "midi": 59,
          "time": 74.8818984999999,
          "velocity": 0.7874015748031497,
          "duration": 0.1111897275390561
        },
        {
          "name": "C#4",
          "midi": 61,
          "time": 74.9963178046874,
          "velocity": 0.3937007874015748,
          "duration": 0.1111897275390561
        },
        {
          "name": "A#4",
          "midi": 70,
          "time": 74.9963178046874,
          "velocity": 0.3937007874015748,
          "duration": 0.1111897275390561
        },
        {
          "name": "G3",
          "midi": 55,
          "time": 75.00000874999989,
          "velocity": 0.7874015748031497,
          "duration": 0.1111897275390561
        },
        {
          "name": "A#3",
          "midi": 58,
          "time": 75.00000874999989,
          "velocity": 0.7874015748031497,
          "duration": 0.1111897275390561
        },
        {
          "name": "D#4",
          "midi": 63,
          "time": 75.11442805468738,
          "velocity": 0.3937007874015748,
          "duration": 0.11672614550781191
        },
        {
          "name": "B4",
          "midi": 71,
          "time": 75.11442805468738,
          "velocity": 0.3937007874015748,
          "duration": 0.11672614550781191
        },
        {
          "name": "G#3",
          "midi": 56,
          "time": 75.11811899999988,
          "velocity": 0.7874015748031497,
          "duration": 0.11672614550781191
        },
        {
          "name": "B3",
          "midi": 59,
          "time": 75.11811899999988,
          "velocity": 0.7874015748031497,
          "duration": 0.11672614550781191
        },
        {
          "name": "D#4",
          "midi": 63,
          "time": 75.35064855468738,
          "velocity": 0.3937007874015748,
          "duration": 0.1111897275390561
        },
        {
          "name": "B4",
          "midi": 71,
          "time": 75.35064855468738,
          "velocity": 0.3937007874015748,
          "duration": 0.1111897275390561
        },
        {
          "name": "G#3",
          "midi": 56,
          "time": 75.35433949999988,
          "velocity": 0.7086614173228346,
          "duration": 0.1111897275390561
        },
        {
          "name": "B3",
          "midi": 59,
          "time": 75.35433949999988,
          "velocity": 0.7086614173228346,
          "duration": 0.1111897275390561
        },
        {
          "name": "D#4",
          "midi": 63,
          "time": 75.46875880468737,
          "velocity": 0.3937007874015748,
          "duration": 0.11672614550781191
        },
        {
          "name": "B4",
          "midi": 71,
          "time": 75.46875880468737,
          "velocity": 0.3937007874015748,
          "duration": 0.11672614550781191
        },
        {
          "name": "G#3",
          "midi": 56,
          "time": 75.47244974999987,
          "velocity": 0.7874015748031497,
          "duration": 0.11672614550781191
        },
        {
          "name": "B3",
          "midi": 59,
          "time": 75.47244974999987,
          "velocity": 0.7874015748031497,
          "duration": 0.11672614550781191
        },
        {
          "name": "D#4",
          "midi": 63,
          "time": 75.70497930468737,
          "velocity": 0.3937007874015748,
          "duration": 0.1111897275390561
        },
        {
          "name": "B4",
          "midi": 71,
          "time": 75.70497930468737,
          "velocity": 0.3937007874015748,
          "duration": 0.1111897275390561
        },
        {
          "name": "G#3",
          "midi": 56,
          "time": 75.70867024999987,
          "velocity": 0.7086614173228346,
          "duration": 0.1111897275390561
        },
        {
          "name": "B3",
          "midi": 59,
          "time": 75.70867024999987,
          "velocity": 0.7086614173228346,
          "duration": 0.1111897275390561
        },
        {
          "name": "G4",
          "midi": 67,
          "time": 75.82678049999986,
          "velocity": 0.3937007874015748,
          "duration": 0.11672614550781191
        },
        {
          "name": "A#4",
          "midi": 70,
          "time": 75.82678049999986,
          "velocity": 0.3937007874015748,
          "duration": 0.11672614550781191
        },
        {
          "name": "D#4",
          "midi": 63,
          "time": 75.82678049999986,
          "velocity": 0.3937007874015748,
          "duration": 0.11672614550781191
        },
        {
          "name": "G3",
          "midi": 55,
          "time": 75.83047144531236,
          "velocity": 0.7874015748031497,
          "duration": 0.11672614550781191
        },
        {
          "name": "A#3",
          "midi": 58,
          "time": 75.83047144531236,
          "velocity": 0.7874015748031497,
          "duration": 0.11672614550781191
        },
        {
          "name": "D#3",
          "midi": 51,
          "time": 75.83047144531236,
          "velocity": 0.7086614173228346,
          "duration": 0.11672614550781191
        },
        {
          "name": "A#3",
          "midi": 58,
          "time": 77.59474330468736,
          "velocity": 0.3937007874015748,
          "duration": 0.1111897275390561
        },
        {
          "name": "E4",
          "midi": 64,
          "time": 77.59474330468736,
          "velocity": 0.3937007874015748,
          "duration": 0.1111897275390561
        },
        {
          "name": "A#2",
          "midi": 46,
          "time": 77.59843424999985,
          "velocity": 0.6299212598425197,
          "duration": 0.1111897275390561
        },
        {
          "name": "E3",
          "midi": 52,
          "time": 77.59843424999985,
          "velocity": 0.6299212598425197,
          "duration": 0.1111897275390561
        },
        {
          "name": "D#4",
          "midi": 63,
          "time": 77.71285355468734,
          "velocity": 0.3937007874015748,
          "duration": 0.1111897275390561
        },
        {
          "name": "B4",
          "midi": 71,
          "time": 77.71285355468734,
          "velocity": 0.3937007874015748,
          "duration": 0.1111897275390561
        },
        {
          "name": "G#3",
          "midi": 56,
          "time": 77.71654449999984,
          "velocity": 0.7874015748031497,
          "duration": 0.1111897275390561
        },
        {
          "name": "B3",
          "midi": 59,
          "time": 77.71654449999984,
          "velocity": 0.7874015748031497,
          "duration": 0.1111897275390561
        },
        {
          "name": "C#4",
          "midi": 61,
          "time": 77.83096380468733,
          "velocity": 0.3937007874015748,
          "duration": 0.1111897275390561
        },
        {
          "name": "A#4",
          "midi": 70,
          "time": 77.83096380468733,
          "velocity": 0.3937007874015748,
          "duration": 0.1111897275390561
        },
        {
          "name": "G3",
          "midi": 55,
          "time": 77.83465474999983,
          "velocity": 0.7874015748031497,
          "duration": 0.1111897275390561
        },
        {
          "name": "A#3",
          "midi": 58,
          "time": 77.83465474999983,
          "velocity": 0.7874015748031497,
          "duration": 0.1111897275390561
        },
        {
          "name": "D#4",
          "midi": 63,
          "time": 77.94907405468732,
          "velocity": 0.3937007874015748,
          "duration": 0.11672614550781191
        },
        {
          "name": "B4",
          "midi": 71,
          "time": 77.94907405468732,
          "velocity": 0.3937007874015748,
          "duration": 0.11672614550781191
        },
        {
          "name": "G#3",
          "midi": 56,
          "time": 77.95276499999981,
          "velocity": 0.7874015748031497,
          "duration": 0.11672614550781191
        },
        {
          "name": "B3",
          "midi": 59,
          "time": 77.95276499999981,
          "velocity": 0.7874015748031497,
          "duration": 0.11672614550781191
        },
        {
          "name": "D#4",
          "midi": 63,
          "time": 78.18529455468732,
          "velocity": 0.3937007874015748,
          "duration": 0.1111897275390561
        },
        {
          "name": "B4",
          "midi": 71,
          "time": 78.18529455468732,
          "velocity": 0.3937007874015748,
          "duration": 0.1111897275390561
        },
        {
          "name": "G#3",
          "midi": 56,
          "time": 78.18898549999982,
          "velocity": 0.7086614173228346,
          "duration": 0.1111897275390561
        },
        {
          "name": "B3",
          "midi": 59,
          "time": 78.18898549999982,
          "velocity": 0.7086614173228346,
          "duration": 0.1111897275390561
        },
        {
          "name": "D#4",
          "midi": 63,
          "time": 78.3034048046873,
          "velocity": 0.3937007874015748,
          "duration": 0.11672614550781191
        },
        {
          "name": "B4",
          "midi": 71,
          "time": 78.3034048046873,
          "velocity": 0.3937007874015748,
          "duration": 0.11672614550781191
        },
        {
          "name": "G#3",
          "midi": 56,
          "time": 78.3070957499998,
          "velocity": 0.7874015748031497,
          "duration": 0.11672614550781191
        },
        {
          "name": "B3",
          "midi": 59,
          "time": 78.3070957499998,
          "velocity": 0.7874015748031497,
          "duration": 0.11672614550781191
        },
        {
          "name": "D#4",
          "midi": 63,
          "time": 78.5396253046873,
          "velocity": 0.3937007874015748,
          "duration": 0.1111897275390561
        },
        {
          "name": "B4",
          "midi": 71,
          "time": 78.5396253046873,
          "velocity": 0.3937007874015748,
          "duration": 0.1111897275390561
        },
        {
          "name": "G#3",
          "midi": 56,
          "time": 78.5433162499998,
          "velocity": 0.7086614173228346,
          "duration": 0.1111897275390561
        },
        {
          "name": "B3",
          "midi": 59,
          "time": 78.5433162499998,
          "velocity": 0.7086614173228346,
          "duration": 0.1111897275390561
        },
        {
          "name": "G4",
          "midi": 67,
          "time": 78.66142649999979,
          "velocity": 0.3937007874015748,
          "duration": 0.11672614550781191
        },
        {
          "name": "A#4",
          "midi": 70,
          "time": 78.66142649999979,
          "velocity": 0.3937007874015748,
          "duration": 0.11672614550781191
        },
        {
          "name": "D#4",
          "midi": 63,
          "time": 78.66142649999979,
          "velocity": 0.3937007874015748,
          "duration": 0.11672614550781191
        },
        {
          "name": "G3",
          "midi": 55,
          "time": 78.66511744531229,
          "velocity": 0.7874015748031497,
          "duration": 0.11672614550781191
        },
        {
          "name": "A#3",
          "midi": 58,
          "time": 78.66511744531229,
          "velocity": 0.7874015748031497,
          "duration": 0.11672614550781191
        },
        {
          "name": "D#3",
          "midi": 51,
          "time": 78.66511744531229,
          "velocity": 0.7086614173228346,
          "duration": 0.11672614550781191
        },
        {
          "name": "A#3",
          "midi": 58,
          "time": 80.42569835937479,
          "velocity": 0.3937007874015748,
          "duration": 0.1111897275390561
        },
        {
          "name": "E4",
          "midi": 64,
          "time": 80.42569835937479,
          "velocity": 0.3937007874015748,
          "duration": 0.1111897275390561
        },
        {
          "name": "A#2",
          "midi": 46,
          "time": 80.42938930468729,
          "velocity": 0.6299212598425197,
          "duration": 0.1111897275390561
        },
        {
          "name": "E3",
          "midi": 52,
          "time": 80.42938930468729,
          "velocity": 0.6299212598425197,
          "duration": 0.1111897275390561
        },
        {
          "name": "D#4",
          "midi": 63,
          "time": 80.54380860937478,
          "velocity": 0.3937007874015748,
          "duration": 0.1111897275390561
        },
        {
          "name": "B4",
          "midi": 71,
          "time": 80.54380860937478,
          "velocity": 0.3937007874015748,
          "duration": 0.1111897275390561
        },
        {
          "name": "G#3",
          "midi": 56,
          "time": 80.54749955468728,
          "velocity": 0.7874015748031497,
          "duration": 0.1111897275390561
        },
        {
          "name": "B3",
          "midi": 59,
          "time": 80.54749955468728,
          "velocity": 0.7874015748031497,
          "duration": 0.1111897275390561
        },
        {
          "name": "C#4",
          "midi": 61,
          "time": 80.66191885937477,
          "velocity": 0.3937007874015748,
          "duration": 0.1111897275390561
        },
        {
          "name": "A#4",
          "midi": 70,
          "time": 80.66191885937477,
          "velocity": 0.3937007874015748,
          "duration": 0.1111897275390561
        },
        {
          "name": "G3",
          "midi": 55,
          "time": 80.66560980468726,
          "velocity": 0.7874015748031497,
          "duration": 0.1111897275390561
        },
        {
          "name": "A#3",
          "midi": 58,
          "time": 80.66560980468726,
          "velocity": 0.7874015748031497,
          "duration": 0.1111897275390561
        },
        {
          "name": "D#4",
          "midi": 63,
          "time": 80.78002910937475,
          "velocity": 0.3937007874015748,
          "duration": 0.11672614550781191
        },
        {
          "name": "B4",
          "midi": 71,
          "time": 80.78002910937475,
          "velocity": 0.3937007874015748,
          "duration": 0.11672614550781191
        },
        {
          "name": "G#3",
          "midi": 56,
          "time": 80.78372005468725,
          "velocity": 0.7874015748031497,
          "duration": 0.11672614550781191
        },
        {
          "name": "B3",
          "midi": 59,
          "time": 80.78372005468725,
          "velocity": 0.7874015748031497,
          "duration": 0.11672614550781191
        },
        {
          "name": "D#4",
          "midi": 63,
          "time": 81.01624960937475,
          "velocity": 0.3937007874015748,
          "duration": 0.1111897275390561
        },
        {
          "name": "B4",
          "midi": 71,
          "time": 81.01624960937475,
          "velocity": 0.3937007874015748,
          "duration": 0.1111897275390561
        },
        {
          "name": "G#3",
          "midi": 56,
          "time": 81.01994055468725,
          "velocity": 0.7086614173228346,
          "duration": 0.1111897275390561
        },
        {
          "name": "B3",
          "midi": 59,
          "time": 81.01994055468725,
          "velocity": 0.7086614173228346,
          "duration": 0.1111897275390561
        },
        {
          "name": "D#4",
          "midi": 63,
          "time": 81.13435985937474,
          "velocity": 0.3937007874015748,
          "duration": 0.11672614550781191
        },
        {
          "name": "B4",
          "midi": 71,
          "time": 81.13435985937474,
          "velocity": 0.3937007874015748,
          "duration": 0.11672614550781191
        },
        {
          "name": "G#3",
          "midi": 56,
          "time": 81.13805080468724,
          "velocity": 0.7874015748031497,
          "duration": 0.11672614550781191
        },
        {
          "name": "B3",
          "midi": 59,
          "time": 81.13805080468724,
          "velocity": 0.7874015748031497,
          "duration": 0.11672614550781191
        },
        {
          "name": "D#4",
          "midi": 63,
          "time": 81.37058035937474,
          "velocity": 0.3937007874015748,
          "duration": 0.1111897275390561
        },
        {
          "name": "B4",
          "midi": 71,
          "time": 81.37058035937474,
          "velocity": 0.3937007874015748,
          "duration": 0.1111897275390561
        },
        {
          "name": "G#3",
          "midi": 56,
          "time": 81.37427130468724,
          "velocity": 0.7086614173228346,
          "duration": 0.1111897275390561
        },
        {
          "name": "B3",
          "midi": 59,
          "time": 81.37427130468724,
          "velocity": 0.7086614173228346,
          "duration": 0.1111897275390561
        },
        {
          "name": "G4",
          "midi": 67,
          "time": 81.49238155468723,
          "velocity": 0.3937007874015748,
          "duration": 0.11672614550781191
        },
        {
          "name": "A#4",
          "midi": 70,
          "time": 81.49238155468723,
          "velocity": 0.3937007874015748,
          "duration": 0.11672614550781191
        },
        {
          "name": "D#4",
          "midi": 63,
          "time": 81.49238155468723,
          "velocity": 0.3937007874015748,
          "duration": 0.11672614550781191
        },
        {
          "name": "G3",
          "midi": 55,
          "time": 81.49607249999973,
          "velocity": 0.7874015748031497,
          "duration": 0.11672614550781191
        },
        {
          "name": "A#3",
          "midi": 58,
          "time": 81.49607249999973,
          "velocity": 0.7874015748031497,
          "duration": 0.11672614550781191
        },
        {
          "name": "D#3",
          "midi": 51,
          "time": 81.49607249999973,
          "velocity": 0.7086614173228346,
          "duration": 0.11672614550781191
        }
      ],
      "controlChanges": {
        "7": [
          {
            "number": 7,
            "time": 0,
            "value": 1
          },
          {
            "number": 7,
            "time": 0,
            "value": 1
          },
          {
            "number": 7,
            "time": 0,
            "value": 0.7874015748031497
          },
          {
            "number": 7,
            "time": 0,
            "value": 1
          },
          {
            "number": 7,
            "time": 0,
            "value": 1
          },
          {
            "number": 7,
            "time": 49.251974249999954,
            "value": 0.8661417322834646
          },
          {
            "number": 7,
            "time": 71.92914224999998,
            "value": 0.8661417322834646
          }
        ],
        "32": [
          {
            "number": 32,
            "time": 0,
            "value": 0
          },
          {
            "number": 32,
            "time": 0,
            "value": 0
          },
          {
            "number": 32,
            "time": 0,
            "value": 0
          },
          {
            "number": 32,
            "time": 0,
            "value": 0
          }
        ]
      },
      "id": 4,
      "name": "Untitled",
      "instrumentNumber": 65,
      "instrument": "alto sax",
      "instrumentFamily": "reed",
      "channelNumber": 3,
      "isPercussion": false
    },
    {
      "startTime": 0.004613681640625,
      "duration": 117.49570760546779,
      "length": 994,
      "notes": [
        {
          "name": "G2",
          "midi": 43,
          "time": 0.004613681640625,
          "velocity": 0.7952755905511811,
          "duration": 0.231606818359375
        },
        {
          "name": "G1",
          "midi": 31,
          "time": 0.004613681640625,
          "velocity": 0.8661417322834646,
          "duration": 0.231606818359375
        },
        {
          "name": "C3",
          "midi": 48,
          "time": 1.4173229999999999,
          "velocity": 0.7874015748031497,
          "duration": 0.23622049999999994
        },
        {
          "name": "C2",
          "midi": 36,
          "time": 1.4173229999999999,
          "velocity": 0.8661417322834646,
          "duration": 0.23622049999999994
        },
        {
          "name": "G2",
          "midi": 43,
          "time": 2.8346459999999998,
          "velocity": 0.7952755905511811,
          "duration": 0.23622049999999994
        },
        {
          "name": "G1",
          "midi": 31,
          "time": 2.8346459999999998,
          "velocity": 0.8661417322834646,
          "duration": 0.23622049999999994
        },
        {
          "name": "D#2",
          "midi": 39,
          "time": 4.251969,
          "velocity": 0.8661417322834646,
          "duration": 0.23622049999999994
        },
        {
          "name": "D#3",
          "midi": 51,
          "time": 4.251969,
          "velocity": 0.7874015748031497,
          "duration": 0.23622049999999994
        },
        {
          "name": "D3",
          "midi": 50,
          "time": 4.971241967773437,
          "velocity": 0.7480314960629921,
          "duration": 0.22099535058593744
        },
        {
          "name": "D2",
          "midi": 38,
          "time": 4.971241967773437,
          "velocity": 0.8661417322834646,
          "duration": 0.22099535058593744
        },
        {
          "name": "G2",
          "midi": 43,
          "time": 5.673905681640625,
          "velocity": 0.7952755905511811,
          "duration": 0.23160681835937513
        },
        {
          "name": "G1",
          "midi": 31,
          "time": 5.673905681640625,
          "velocity": 0.8661417322834646,
          "duration": 0.23160681835937513
        },
        {
          "name": "C3",
          "midi": 48,
          "time": 7.086615,
          "velocity": 0.7874015748031497,
          "duration": 0.23622049999999994
        },
        {
          "name": "C2",
          "midi": 36,
          "time": 7.086615,
          "velocity": 0.8661417322834646,
          "duration": 0.23622049999999994
        },
        {
          "name": "G2",
          "midi": 43,
          "time": 8.503938,
          "velocity": 0.7952755905511811,
          "duration": 0.23622049999999994
        },
        {
          "name": "G1",
          "midi": 31,
          "time": 8.503938,
          "velocity": 0.8661417322834646,
          "duration": 0.23622049999999994
        },
        {
          "name": "D#3",
          "midi": 51,
          "time": 9.921261,
          "velocity": 0.7874015748031497,
          "duration": 0.23622049999999994
        },
        {
          "name": "D#2",
          "midi": 39,
          "time": 9.921261,
          "velocity": 0.8661417322834646,
          "duration": 0.23622049999999994
        },
        {
          "name": "D3",
          "midi": 50,
          "time": 10.640533967773436,
          "velocity": 0.7480314960629921,
          "duration": 0.22099535058593744
        },
        {
          "name": "D2",
          "midi": 38,
          "time": 10.640533967773436,
          "velocity": 0.8661417322834646,
          "duration": 0.22099535058593744
        },
        {
          "name": "G2",
          "midi": 43,
          "time": 11.338583999999999,
          "velocity": 0.5511811023622047,
          "duration": 0.13333539941406336
        },
        {
          "name": "G1",
          "midi": 31,
          "time": 11.338583999999999,
          "velocity": 0.8661417322834646,
          "duration": 0.11811025000000086
        },
        {
          "name": "G1",
          "midi": 31,
          "time": 11.472380767578125,
          "velocity": 0.41732283464566927,
          "duration": 0.09458047363281352
        },
        {
          "name": "G2",
          "midi": 43,
          "time": 11.472380767578125,
          "velocity": 0.3937007874015748,
          "duration": 0.08765995117187586
        },
        {
          "name": "G1",
          "midi": 31,
          "time": 11.5748045,
          "velocity": 0.8661417322834646,
          "duration": 0.23622049999999994
        },
        {
          "name": "G2",
          "midi": 43,
          "time": 11.5748045,
          "velocity": 0.47244094488188976,
          "duration": 0.1171875136718743
        },
        {
          "name": "G2",
          "midi": 43,
          "time": 11.69291475,
          "velocity": 0.8661417322834646,
          "duration": 0.23622050000000172
        },
        {
          "name": "G1",
          "midi": 31,
          "time": 11.929135250000002,
          "velocity": 0.8661417322834646,
          "duration": 0.11811024999999908
        },
        {
          "name": "G2",
          "midi": 43,
          "time": 11.937901245117189,
          "velocity": 0.5196850393700787,
          "duration": 0.11949435449218626
        },
        {
          "name": "G1",
          "midi": 31,
          "time": 12.0472455,
          "velocity": 0.8661417322834646,
          "duration": 0.23622049999999817
        },
        {
          "name": "G2",
          "midi": 43,
          "time": 12.057856967773438,
          "velocity": 0.5196850393700787,
          "duration": 0.222840823242187
        },
        {
          "name": "G2",
          "midi": 43,
          "time": 12.283465999999999,
          "velocity": 0.8661417322834646,
          "duration": 0.23622049999999994
        },
        {
          "name": "G1",
          "midi": 31,
          "time": 12.293154731445311,
          "velocity": 0.41732283464566927,
          "duration": 0.22653176855468793
        },
        {
          "name": "G1",
          "midi": 31,
          "time": 12.519686499999999,
          "velocity": 0.8661417322834646,
          "duration": 0.23622049999999994
        },
        {
          "name": "G2",
          "midi": 43,
          "time": 12.520147868164061,
          "velocity": 0.5511811023622047,
          "duration": 0.23529776367187516
        },
        {
          "name": "C2",
          "midi": 36,
          "time": 12.755906999999999,
          "velocity": 0.5511811023622047,
          "duration": 0.13333539941406336
        },
        {
          "name": "C1",
          "midi": 24,
          "time": 12.755906999999999,
          "velocity": 0.8661417322834646,
          "duration": 0.11811025000000086
        },
        {
          "name": "C1",
          "midi": 24,
          "time": 12.889703767578125,
          "velocity": 0.41732283464566927,
          "duration": 0.09458047363281352
        },
        {
          "name": "C2",
          "midi": 36,
          "time": 12.889703767578125,
          "velocity": 0.3937007874015748,
          "duration": 0.08765995117187586
        },
        {
          "name": "C1",
          "midi": 24,
          "time": 12.9921275,
          "velocity": 0.8661417322834646,
          "duration": 0.23622049999999994
        },
        {
          "name": "C2",
          "midi": 36,
          "time": 12.9921275,
          "velocity": 0.47244094488188976,
          "duration": 0.1171875136718743
        },
        {
          "name": "C2",
          "midi": 36,
          "time": 13.11023775,
          "velocity": 0.8661417322834646,
          "duration": 0.23622050000000172
        },
        {
          "name": "C1",
          "midi": 24,
          "time": 13.346458250000001,
          "velocity": 0.8661417322834646,
          "duration": 0.11811024999999908
        },
        {
          "name": "C2",
          "midi": 36,
          "time": 13.355224245117189,
          "velocity": 0.5196850393700787,
          "duration": 0.11949435449218626
        },
        {
          "name": "C1",
          "midi": 24,
          "time": 13.4645685,
          "velocity": 0.8661417322834646,
          "duration": 0.23622049999999817
        },
        {
          "name": "C2",
          "midi": 36,
          "time": 13.475179967773437,
          "velocity": 0.5196850393700787,
          "duration": 0.222840823242187
        },
        {
          "name": "C2",
          "midi": 36,
          "time": 13.700788999999999,
          "velocity": 0.8661417322834646,
          "duration": 0.23622049999999994
        },
        {
          "name": "C1",
          "midi": 24,
          "time": 13.71047773144531,
          "velocity": 0.41732283464566927,
          "duration": 0.22653176855468793
        },
        {
          "name": "C1",
          "midi": 24,
          "time": 13.937009499999998,
          "velocity": 0.8661417322834646,
          "duration": 0.23622049999999994
        },
        {
          "name": "C2",
          "midi": 36,
          "time": 13.937470868164061,
          "velocity": 0.5511811023622047,
          "duration": 0.23529776367187516
        },
        {
          "name": "G2",
          "midi": 43,
          "time": 14.173229999999998,
          "velocity": 0.5511811023622047,
          "duration": 0.13333539941406336
        },
        {
          "name": "G1",
          "midi": 31,
          "time": 14.173229999999998,
          "velocity": 0.8661417322834646,
          "duration": 0.11811025000000086
        },
        {
          "name": "G1",
          "midi": 31,
          "time": 14.307026767578124,
          "velocity": 0.41732283464566927,
          "duration": 0.09458047363281352
        },
        {
          "name": "G2",
          "midi": 43,
          "time": 14.307026767578124,
          "velocity": 0.3937007874015748,
          "duration": 0.08765995117187586
        },
        {
          "name": "G1",
          "midi": 31,
          "time": 14.4094505,
          "velocity": 0.8661417322834646,
          "duration": 0.23622049999999994
        },
        {
          "name": "G2",
          "midi": 43,
          "time": 14.4094505,
          "velocity": 0.47244094488188976,
          "duration": 0.1171875136718743
        },
        {
          "name": "G2",
          "midi": 43,
          "time": 14.52756075,
          "velocity": 0.8661417322834646,
          "duration": 0.23622050000000172
        },
        {
          "name": "G1",
          "midi": 31,
          "time": 14.763781250000001,
          "velocity": 0.8661417322834646,
          "duration": 0.11811024999999908
        },
        {
          "name": "G2",
          "midi": 43,
          "time": 14.772547245117188,
          "velocity": 0.5196850393700787,
          "duration": 0.11949435449218626
        },
        {
          "name": "G1",
          "midi": 31,
          "time": 14.8818915,
          "velocity": 0.8661417322834646,
          "duration": 0.23622049999999817
        },
        {
          "name": "G2",
          "midi": 43,
          "time": 14.892502967773437,
          "velocity": 0.5196850393700787,
          "duration": 0.222840823242187
        },
        {
          "name": "G2",
          "midi": 43,
          "time": 15.118111999999998,
          "velocity": 0.8661417322834646,
          "duration": 0.23622049999999994
        },
        {
          "name": "G1",
          "midi": 31,
          "time": 15.12780073144531,
          "velocity": 0.41732283464566927,
          "duration": 0.22653176855468793
        },
        {
          "name": "G1",
          "midi": 31,
          "time": 15.354332499999998,
          "velocity": 0.8661417322834646,
          "duration": 0.23622049999999994
        },
        {
          "name": "G2",
          "midi": 43,
          "time": 15.35479386816406,
          "velocity": 0.5511811023622047,
          "duration": 0.23529776367187516
        },
        {
          "name": "A#1",
          "midi": 34,
          "time": 15.590552999999998,
          "velocity": 0.4645669291338583,
          "duration": 0.13333539941406336
        },
        {
          "name": "C2",
          "midi": 36,
          "time": 15.590552999999998,
          "velocity": 0.8661417322834646,
          "duration": 0.23622049999999994
        },
        {
          "name": "A#2",
          "midi": 46,
          "time": 15.590552999999998,
          "velocity": 0.5905511811023622,
          "duration": 0.13333539941406336
        },
        {
          "name": "D#2",
          "midi": 39,
          "time": 15.590552999999998,
          "velocity": 0.5196850393700787,
          "duration": 0.13333539941406336
        },
        {
          "name": "A#1",
          "midi": 34,
          "time": 15.724349767578124,
          "velocity": 0.4251968503937008,
          "duration": 0.09458047363281175
        },
        {
          "name": "A#2",
          "midi": 46,
          "time": 15.724349767578124,
          "velocity": 0.5196850393700787,
          "duration": 0.11626477734374951
        },
        {
          "name": "D#2",
          "midi": 39,
          "time": 15.724349767578124,
          "velocity": 0.5196850393700787,
          "duration": 0.11626477734374951
        },
        {
          "name": "A#1",
          "midi": 34,
          "time": 15.826773499999998,
          "velocity": 0.8661417322834646,
          "duration": 0.23622049999999817
        },
        {
          "name": "D#2",
          "midi": 39,
          "time": 15.957340690429685,
          "velocity": 0.5196850393700787,
          "duration": 0.23206818652343486
        },
        {
          "name": "A#2",
          "midi": 46,
          "time": 15.957340690429685,
          "velocity": 0.5196850393700787,
          "duration": 0.23206818652343486
        },
        {
          "name": "C2",
          "midi": 36,
          "time": 16.062993999999996,
          "velocity": 0.8661417322834646,
          "duration": 0.23622050000000172
        },
        {
          "name": "A#1",
          "midi": 34,
          "time": 16.189870245117184,
          "velocity": 0.4251968503937008,
          "duration": 0.11257383203125215
        },
        {
          "name": "A#2",
          "midi": 46,
          "time": 16.189870245117184,
          "velocity": 0.5511811023622047,
          "duration": 0.11949435449218981
        },
        {
          "name": "D#2",
          "midi": 39,
          "time": 16.189870245117184,
          "velocity": 0.5196850393700787,
          "duration": 0.11949435449218981
        },
        {
          "name": "D2",
          "midi": 38,
          "time": 16.299214499999998,
          "velocity": 0.8661417322834646,
          "duration": 0.2214567187500016
        },
        {
          "name": "A1",
          "midi": 33,
          "time": 16.30982596777344,
          "velocity": 0.4251968503937008,
          "duration": 0.1125738320312486
        },
        {
          "name": "A2",
          "midi": 45,
          "time": 16.30982596777344,
          "velocity": 0.5511811023622047,
          "duration": 0.11949435449218626
        },
        {
          "name": "D2",
          "midi": 38,
          "time": 16.534512263671875,
          "velocity": 0.5196850393700787,
          "duration": 0.22653176855468615
        },
        {
          "name": "A1",
          "midi": 33,
          "time": 16.535435,
          "velocity": 0.8661417322834646,
          "duration": 0.23622050000000172
        },
        {
          "name": "A2",
          "midi": 45,
          "time": 16.54512373144531,
          "velocity": 0.5196850393700787,
          "duration": 0.2265317685546897
        },
        {
          "name": "D2",
          "midi": 38,
          "time": 16.761505400390625,
          "velocity": 0.5196850393700787,
          "duration": 0.2214567187500016
        },
        {
          "name": "C2",
          "midi": 36,
          "time": 16.7716555,
          "velocity": 0.7874015748031497,
          "duration": 0.23622050000000172
        },
        {
          "name": "A1",
          "midi": 33,
          "time": 16.772116868164066,
          "velocity": 0.4251968503937008,
          "duration": 0.22145671874999806
        },
        {
          "name": "A2",
          "midi": 45,
          "time": 16.772116868164066,
          "velocity": 0.5511811023622047,
          "duration": 0.23529776367187338
        },
        {
          "name": "G2",
          "midi": 43,
          "time": 17.007876000000003,
          "velocity": 0.5511811023622047,
          "duration": 0.13333539941406514
        },
        {
          "name": "G1",
          "midi": 31,
          "time": 17.007876000000003,
          "velocity": 0.8661417322834646,
          "duration": 0.11811025000000086
        },
        {
          "name": "G1",
          "midi": 31,
          "time": 17.141672767578132,
          "velocity": 0.41732283464566927,
          "duration": 0.09458047363281352
        },
        {
          "name": "G2",
          "midi": 43,
          "time": 17.141672767578132,
          "velocity": 0.3937007874015748,
          "duration": 0.08765995117187586
        },
        {
          "name": "G1",
          "midi": 31,
          "time": 17.24409650000001,
          "velocity": 0.8661417322834646,
          "duration": 0.23622050000000172
        },
        {
          "name": "G2",
          "midi": 43,
          "time": 17.24409650000001,
          "velocity": 0.47244094488188976,
          "duration": 0.11718751367187608
        },
        {
          "name": "G2",
          "midi": 43,
          "time": 17.36220675000001,
          "velocity": 0.8661417322834646,
          "duration": 0.23622050000000172
        },
        {
          "name": "G1",
          "midi": 31,
          "time": 17.59842725000001,
          "velocity": 0.8661417322834646,
          "duration": 0.11811025000000086
        },
        {
          "name": "G2",
          "midi": 43,
          "time": 17.607193245117198,
          "velocity": 0.5196850393700787,
          "duration": 0.11949435449218981
        },
        {
          "name": "G1",
          "midi": 31,
          "time": 17.716537500000012,
          "velocity": 0.8661417322834646,
          "duration": 0.23622050000000172
        },
        {
          "name": "G2",
          "midi": 43,
          "time": 17.727148967773452,
          "velocity": 0.5196850393700787,
          "duration": 0.222840823242187
        },
        {
          "name": "G2",
          "midi": 43,
          "time": 17.952758000000014,
          "velocity": 0.8661417322834646,
          "duration": 0.23622049999999817
        },
        {
          "name": "G1",
          "midi": 31,
          "time": 17.962446731445326,
          "velocity": 0.41732283464566927,
          "duration": 0.22653176855468615
        },
        {
          "name": "G1",
          "midi": 31,
          "time": 18.18897850000001,
          "velocity": 0.8661417322834646,
          "duration": 0.23622050000000172
        },
        {
          "name": "G2",
          "midi": 43,
          "time": 18.189439868164076,
          "velocity": 0.5511811023622047,
          "duration": 0.23529776367187338
        },
        {
          "name": "C2",
          "midi": 36,
          "time": 18.425199000000013,
          "velocity": 0.5511811023622047,
          "duration": 0.13333539941406514
        },
        {
          "name": "C1",
          "midi": 24,
          "time": 18.425199000000013,
          "velocity": 0.8661417322834646,
          "duration": 0.11811025000000086
        },
        {
          "name": "C1",
          "midi": 24,
          "time": 18.558995767578143,
          "velocity": 0.41732283464566927,
          "duration": 0.09458047363281352
        },
        {
          "name": "C2",
          "midi": 36,
          "time": 18.558995767578143,
          "velocity": 0.3937007874015748,
          "duration": 0.08765995117187586
        },
        {
          "name": "C1",
          "midi": 24,
          "time": 18.66141950000002,
          "velocity": 0.8661417322834646,
          "duration": 0.23622050000000172
        },
        {
          "name": "C2",
          "midi": 36,
          "time": 18.66141950000002,
          "velocity": 0.47244094488188976,
          "duration": 0.11718751367187608
        },
        {
          "name": "C2",
          "midi": 36,
          "time": 18.77952975000002,
          "velocity": 0.8661417322834646,
          "duration": 0.23622050000000172
        },
        {
          "name": "C1",
          "midi": 24,
          "time": 19.01575025000002,
          "velocity": 0.8661417322834646,
          "duration": 0.11811025000000086
        },
        {
          "name": "C2",
          "midi": 36,
          "time": 19.02451624511721,
          "velocity": 0.5196850393700787,
          "duration": 0.11949435449218981
        },
        {
          "name": "C1",
          "midi": 24,
          "time": 19.133860500000022,
          "velocity": 0.8661417322834646,
          "duration": 0.23622050000000172
        },
        {
          "name": "C2",
          "midi": 36,
          "time": 19.144471967773462,
          "velocity": 0.5196850393700787,
          "duration": 0.222840823242187
        },
        {
          "name": "C2",
          "midi": 36,
          "time": 19.370081000000024,
          "velocity": 0.8661417322834646,
          "duration": 0.23622049999999817
        },
        {
          "name": "C1",
          "midi": 24,
          "time": 19.379769731445336,
          "velocity": 0.41732283464566927,
          "duration": 0.22653176855468615
        },
        {
          "name": "C1",
          "midi": 24,
          "time": 19.606301500000022,
          "velocity": 0.8661417322834646,
          "duration": 0.23622050000000172
        },
        {
          "name": "C2",
          "midi": 36,
          "time": 19.606762868164086,
          "velocity": 0.5511811023622047,
          "duration": 0.23529776367187338
        },
        {
          "name": "G2",
          "midi": 43,
          "time": 19.842522000000024,
          "velocity": 0.5511811023622047,
          "duration": 0.13333539941406514
        },
        {
          "name": "G1",
          "midi": 31,
          "time": 19.842522000000024,
          "velocity": 0.8661417322834646,
          "duration": 0.11811025000000086
        },
        {
          "name": "G1",
          "midi": 31,
          "time": 19.976318767578153,
          "velocity": 0.41732283464566927,
          "duration": 0.09458047363281352
        },
        {
          "name": "G2",
          "midi": 43,
          "time": 19.976318767578153,
          "velocity": 0.3937007874015748,
          "duration": 0.08765995117187586
        },
        {
          "name": "G1",
          "midi": 31,
          "time": 20.07874250000003,
          "velocity": 0.8661417322834646,
          "duration": 0.23622050000000172
        },
        {
          "name": "G2",
          "midi": 43,
          "time": 20.07874250000003,
          "velocity": 0.47244094488188976,
          "duration": 0.11718751367187608
        },
        {
          "name": "G2",
          "midi": 43,
          "time": 20.19685275000003,
          "velocity": 0.8661417322834646,
          "duration": 0.23622050000000172
        },
        {
          "name": "G1",
          "midi": 31,
          "time": 20.43307325000003,
          "velocity": 0.8661417322834646,
          "duration": 0.11811025000000086
        },
        {
          "name": "G2",
          "midi": 43,
          "time": 20.44183924511722,
          "velocity": 0.5196850393700787,
          "duration": 0.11949435449218981
        },
        {
          "name": "G1",
          "midi": 31,
          "time": 20.551183500000032,
          "velocity": 0.8661417322834646,
          "duration": 0.23622050000000172
        },
        {
          "name": "G2",
          "midi": 43,
          "time": 20.561794967773473,
          "velocity": 0.5196850393700787,
          "duration": 0.222840823242187
        },
        {
          "name": "G2",
          "midi": 43,
          "time": 20.787404000000034,
          "velocity": 0.8661417322834646,
          "duration": 0.23622049999999817
        },
        {
          "name": "G1",
          "midi": 31,
          "time": 20.797092731445346,
          "velocity": 0.41732283464566927,
          "duration": 0.22653176855468615
        },
        {
          "name": "G1",
          "midi": 31,
          "time": 21.023624500000032,
          "velocity": 0.8661417322834646,
          "duration": 0.23622050000000172
        },
        {
          "name": "G2",
          "midi": 43,
          "time": 21.024085868164097,
          "velocity": 0.5511811023622047,
          "duration": 0.23529776367187338
        },
        {
          "name": "A#1",
          "midi": 34,
          "time": 21.259845000000034,
          "velocity": 0.4645669291338583,
          "duration": 0.13333539941406158
        },
        {
          "name": "C2",
          "midi": 36,
          "time": 21.259845000000034,
          "velocity": 0.8661417322834646,
          "duration": 0.23622050000000172
        },
        {
          "name": "A#2",
          "midi": 46,
          "time": 21.259845000000034,
          "velocity": 0.5905511811023622,
          "duration": 0.13333539941406158
        },
        {
          "name": "D#2",
          "midi": 39,
          "time": 21.259845000000034,
          "velocity": 0.5196850393700787,
          "duration": 0.13333539941406158
        },
        {
          "name": "A#1",
          "midi": 34,
          "time": 21.39364176757816,
          "velocity": 0.4251968503937008,
          "duration": 0.09458047363281352
        },
        {
          "name": "A#2",
          "midi": 46,
          "time": 21.39364176757816,
          "velocity": 0.5196850393700787,
          "duration": 0.11626477734375129
        },
        {
          "name": "D#2",
          "midi": 39,
          "time": 21.39364176757816,
          "velocity": 0.5196850393700787,
          "duration": 0.11626477734375129
        },
        {
          "name": "A#1",
          "midi": 34,
          "time": 21.496065500000036,
          "velocity": 0.8661417322834646,
          "duration": 0.23622049999999817
        },
        {
          "name": "D#2",
          "midi": 39,
          "time": 21.626632690429723,
          "velocity": 0.5196850393700787,
          "duration": 0.23206818652343486
        },
        {
          "name": "A#2",
          "midi": 46,
          "time": 21.626632690429723,
          "velocity": 0.5196850393700787,
          "duration": 0.23206818652343486
        },
        {
          "name": "C2",
          "midi": 36,
          "time": 21.732286000000034,
          "velocity": 0.8661417322834646,
          "duration": 0.23622050000000172
        },
        {
          "name": "A#1",
          "midi": 34,
          "time": 21.859162245117222,
          "velocity": 0.4251968503937008,
          "duration": 0.11257383203125215
        },
        {
          "name": "A#2",
          "midi": 46,
          "time": 21.859162245117222,
          "velocity": 0.5511811023622047,
          "duration": 0.11949435449218981
        },
        {
          "name": "D#2",
          "midi": 39,
          "time": 21.859162245117222,
          "velocity": 0.5196850393700787,
          "duration": 0.11949435449218981
        },
        {
          "name": "D2",
          "midi": 38,
          "time": 21.968506500000036,
          "velocity": 0.8661417322834646,
          "duration": 0.2214567187500016
        },
        {
          "name": "A1",
          "midi": 33,
          "time": 21.979117967773476,
          "velocity": 0.4251968503937008,
          "duration": 0.1125738320312486
        },
        {
          "name": "A2",
          "midi": 45,
          "time": 21.979117967773476,
          "velocity": 0.5511811023622047,
          "duration": 0.11949435449218626
        },
        {
          "name": "D2",
          "midi": 38,
          "time": 22.203804263671913,
          "velocity": 0.5196850393700787,
          "duration": 0.22653176855468615
        },
        {
          "name": "A1",
          "midi": 33,
          "time": 22.204727000000037,
          "velocity": 0.8661417322834646,
          "duration": 0.23622050000000172
        },
        {
          "name": "A2",
          "midi": 45,
          "time": 22.21441573144535,
          "velocity": 0.5196850393700787,
          "duration": 0.2265317685546897
        },
        {
          "name": "D2",
          "midi": 38,
          "time": 22.430797400390663,
          "velocity": 0.5196850393700787,
          "duration": 0.2214567187500016
        },
        {
          "name": "C2",
          "midi": 36,
          "time": 22.44094750000004,
          "velocity": 0.7874015748031497,
          "duration": 0.23622050000000172
        },
        {
          "name": "A1",
          "midi": 33,
          "time": 22.441408868164103,
          "velocity": 0.4251968503937008,
          "duration": 0.22145671874999806
        },
        {
          "name": "A2",
          "midi": 45,
          "time": 22.441408868164103,
          "velocity": 0.5511811023622047,
          "duration": 0.23529776367187338
        },
        {
          "name": "G#1",
          "midi": 32,
          "time": 22.67716800000004,
          "velocity": 0.8661417322834646,
          "duration": 0.11811025000000086
        },
        {
          "name": "G#2",
          "midi": 44,
          "time": 22.67716800000004,
          "velocity": 0.5511811023622047,
          "duration": 0.13333539941406158
        },
        {
          "name": "G#2",
          "midi": 44,
          "time": 22.810964767578167,
          "velocity": 0.3937007874015748,
          "duration": 0.08765995117187586
        },
        {
          "name": "G#1",
          "midi": 32,
          "time": 22.810964767578167,
          "velocity": 0.41732283464566927,
          "duration": 0.09458047363281352
        },
        {
          "name": "G#2",
          "midi": 44,
          "time": 22.913388500000043,
          "velocity": 0.47244094488188976,
          "duration": 0.11718751367187608
        },
        {
          "name": "G#1",
          "midi": 32,
          "time": 22.913388500000043,
          "velocity": 0.8661417322834646,
          "duration": 0.23622050000000172
        },
        {
          "name": "G#2",
          "midi": 44,
          "time": 23.031498750000043,
          "velocity": 0.8661417322834646,
          "duration": 0.23622050000000172
        },
        {
          "name": "G#1",
          "midi": 32,
          "time": 23.267719250000045,
          "velocity": 0.8661417322834646,
          "duration": 0.11811025000000086
        },
        {
          "name": "G#2",
          "midi": 44,
          "time": 23.276485245117232,
          "velocity": 0.5196850393700787,
          "duration": 0.11949435449218981
        },
        {
          "name": "G#1",
          "midi": 32,
          "time": 23.385829500000046,
          "velocity": 0.8661417322834646,
          "duration": 0.23622050000000172
        },
        {
          "name": "G#2",
          "midi": 44,
          "time": 23.396440967773486,
          "velocity": 0.5196850393700787,
          "duration": 0.222840823242187
        },
        {
          "name": "G#2",
          "midi": 44,
          "time": 23.622050000000048,
          "velocity": 0.8661417322834646,
          "duration": 0.23622049999999817
        },
        {
          "name": "G#1",
          "midi": 32,
          "time": 23.63173873144536,
          "velocity": 0.41732283464566927,
          "duration": 0.22653176855468615
        },
        {
          "name": "G#1",
          "midi": 32,
          "time": 23.858270500000046,
          "velocity": 0.8661417322834646,
          "duration": 0.23622050000000172
        },
        {
          "name": "G#2",
          "midi": 44,
          "time": 23.85873186816411,
          "velocity": 0.5511811023622047,
          "duration": 0.23529776367187338
        },
        {
          "name": "C#1",
          "midi": 25,
          "time": 24.094491000000048,
          "velocity": 0.8661417322834646,
          "duration": 0.11811025000000086
        },
        {
          "name": "C#2",
          "midi": 37,
          "time": 24.094491000000048,
          "velocity": 0.5511811023622047,
          "duration": 0.13333539941406514
        },
        {
          "name": "C#2",
          "midi": 37,
          "time": 24.228287767578177,
          "velocity": 0.3937007874015748,
          "duration": 0.08765995117187586
        },
        {
          "name": "C#1",
          "midi": 25,
          "time": 24.228287767578177,
          "velocity": 0.41732283464566927,
          "duration": 0.09458047363281352
        },
        {
          "name": "C#2",
          "midi": 37,
          "time": 24.330711500000053,
          "velocity": 0.47244094488188976,
          "duration": 0.11718751367187608
        },
        {
          "name": "C#1",
          "midi": 25,
          "time": 24.330711500000053,
          "velocity": 0.8661417322834646,
          "duration": 0.23622050000000172
        },
        {
          "name": "C#2",
          "midi": 37,
          "time": 24.448821750000054,
          "velocity": 0.8661417322834646,
          "duration": 0.23622050000000172
        },
        {
          "name": "C#1",
          "midi": 25,
          "time": 24.685042250000055,
          "velocity": 0.8661417322834646,
          "duration": 0.11811025000000086
        },
        {
          "name": "C#2",
          "midi": 37,
          "time": 24.693808245117243,
          "velocity": 0.5196850393700787,
          "duration": 0.11949435449218981
        },
        {
          "name": "C#1",
          "midi": 25,
          "time": 24.803152500000056,
          "velocity": 0.8661417322834646,
          "duration": 0.23622050000000172
        },
        {
          "name": "C#2",
          "midi": 37,
          "time": 24.813763967773497,
          "velocity": 0.5196850393700787,
          "duration": 0.222840823242187
        },
        {
          "name": "C#2",
          "midi": 37,
          "time": 25.039373000000058,
          "velocity": 0.8661417322834646,
          "duration": 0.23622049999999817
        },
        {
          "name": "C#1",
          "midi": 25,
          "time": 25.04906173144537,
          "velocity": 0.41732283464566927,
          "duration": 0.22653176855468615
        },
        {
          "name": "C#1",
          "midi": 25,
          "time": 25.275593500000056,
          "velocity": 0.8661417322834646,
          "duration": 0.23622050000000172
        },
        {
          "name": "C#2",
          "midi": 37,
          "time": 25.27605486816412,
          "velocity": 0.5511811023622047,
          "duration": 0.23529776367187338
        },
        {
          "name": "G#1",
          "midi": 32,
          "time": 25.511814000000058,
          "velocity": 0.8661417322834646,
          "duration": 0.11811025000000086
        },
        {
          "name": "G#2",
          "midi": 44,
          "time": 25.511814000000058,
          "velocity": 0.5511811023622047,
          "duration": 0.13333539941406514
        },
        {
          "name": "G#2",
          "midi": 44,
          "time": 25.645610767578187,
          "velocity": 0.3937007874015748,
          "duration": 0.08765995117187586
        },
        {
          "name": "G#1",
          "midi": 32,
          "time": 25.645610767578187,
          "velocity": 0.41732283464566927,
          "duration": 0.09458047363281352
        },
        {
          "name": "G#2",
          "midi": 44,
          "time": 25.748034500000063,
          "velocity": 0.47244094488188976,
          "duration": 0.11718751367187608
        },
        {
          "name": "G#1",
          "midi": 32,
          "time": 25.748034500000063,
          "velocity": 0.8661417322834646,
          "duration": 0.23622050000000172
        },
        {
          "name": "G#2",
          "midi": 44,
          "time": 25.866144750000064,
          "velocity": 0.8661417322834646,
          "duration": 0.23622050000000172
        },
        {
          "name": "G#1",
          "midi": 32,
          "time": 26.102365250000066,
          "velocity": 0.8661417322834646,
          "duration": 0.11811025000000086
        },
        {
          "name": "G#2",
          "midi": 44,
          "time": 26.111131245117253,
          "velocity": 0.5196850393700787,
          "duration": 0.11949435449218981
        },
        {
          "name": "G#1",
          "midi": 32,
          "time": 26.220475500000067,
          "velocity": 0.8661417322834646,
          "duration": 0.23622050000000172
        },
        {
          "name": "G#2",
          "midi": 44,
          "time": 26.231086967773507,
          "velocity": 0.5196850393700787,
          "duration": 0.222840823242187
        },
        {
          "name": "G#2",
          "midi": 44,
          "time": 26.45669600000007,
          "velocity": 0.8661417322834646,
          "duration": 0.23622049999999817
        },
        {
          "name": "G#1",
          "midi": 32,
          "time": 26.46638473144538,
          "velocity": 0.41732283464566927,
          "duration": 0.22653176855468615
        },
        {
          "name": "G#1",
          "midi": 32,
          "time": 26.692916500000067,
          "velocity": 0.8661417322834646,
          "duration": 0.23622050000000172
        },
        {
          "name": "G#2",
          "midi": 44,
          "time": 26.69337786816413,
          "velocity": 0.5511811023622047,
          "duration": 0.23529776367187338
        },
        {
          "name": "C#2",
          "midi": 37,
          "time": 26.92913700000007,
          "velocity": 0.8661417322834646,
          "duration": 0.23622050000000172
        },
        {
          "name": "B2",
          "midi": 47,
          "time": 26.92913700000007,
          "velocity": 0.5905511811023622,
          "duration": 0.13333539941406158
        },
        {
          "name": "E2",
          "midi": 40,
          "time": 26.92913700000007,
          "velocity": 0.5196850393700787,
          "duration": 0.13333539941406158
        },
        {
          "name": "B1",
          "midi": 35,
          "time": 26.92913700000007,
          "velocity": 0.4645669291338583,
          "duration": 0.13333539941406158
        },
        {
          "name": "B2",
          "midi": 47,
          "time": 27.062933767578194,
          "velocity": 0.5196850393700787,
          "duration": 0.11626477734375129
        },
        {
          "name": "E2",
          "midi": 40,
          "time": 27.062933767578194,
          "velocity": 0.5196850393700787,
          "duration": 0.11626477734375129
        },
        {
          "name": "B1",
          "midi": 35,
          "time": 27.062933767578194,
          "velocity": 0.4251968503937008,
          "duration": 0.09458047363281352
        },
        {
          "name": "B1",
          "midi": 35,
          "time": 27.16535750000007,
          "velocity": 0.8661417322834646,
          "duration": 0.23622049999999817
        },
        {
          "name": "B2",
          "midi": 47,
          "time": 27.295924690429757,
          "velocity": 0.5196850393700787,
          "duration": 0.23206818652343486
        },
        {
          "name": "E2",
          "midi": 40,
          "time": 27.295924690429757,
          "velocity": 0.5196850393700787,
          "duration": 0.23206818652343486
        },
        {
          "name": "C#2",
          "midi": 37,
          "time": 27.401578000000068,
          "velocity": 0.8661417322834646,
          "duration": 0.23622050000000172
        },
        {
          "name": "B2",
          "midi": 47,
          "time": 27.528454245117256,
          "velocity": 0.5511811023622047,
          "duration": 0.11949435449218981
        },
        {
          "name": "E2",
          "midi": 40,
          "time": 27.528454245117256,
          "velocity": 0.5196850393700787,
          "duration": 0.11949435449218981
        },
        {
          "name": "B1",
          "midi": 35,
          "time": 27.528454245117256,
          "velocity": 0.4251968503937008,
          "duration": 0.11257383203125215
        },
        {
          "name": "D#2",
          "midi": 39,
          "time": 27.63779850000007,
          "velocity": 0.8661417322834646,
          "duration": 0.2214567187500016
        },
        {
          "name": "A#2",
          "midi": 46,
          "time": 27.64840996777351,
          "velocity": 0.5511811023622047,
          "duration": 0.11949435449218626
        },
        {
          "name": "A#1",
          "midi": 34,
          "time": 27.64840996777351,
          "velocity": 0.4251968503937008,
          "duration": 0.1125738320312486
        },
        {
          "name": "D#2",
          "midi": 39,
          "time": 27.873096263671947,
          "velocity": 0.5196850393700787,
          "duration": 0.22653176855468615
        },
        {
          "name": "A#1",
          "midi": 34,
          "time": 27.87401900000007,
          "velocity": 0.8661417322834646,
          "duration": 0.23622050000000172
        },
        {
          "name": "A#2",
          "midi": 46,
          "time": 27.883707731445384,
          "velocity": 0.5196850393700787,
          "duration": 0.2265317685546897
        },
        {
          "name": "D#2",
          "midi": 39,
          "time": 28.100089400390697,
          "velocity": 0.5196850393700787,
          "duration": 0.2214567187500016
        },
        {
          "name": "C#2",
          "midi": 37,
          "time": 28.110239500000073,
          "velocity": 0.7874015748031497,
          "duration": 0.23622050000000172
        },
        {
          "name": "A#2",
          "midi": 46,
          "time": 28.110700868164137,
          "velocity": 0.5511811023622047,
          "duration": 0.23529776367187338
        },
        {
          "name": "A#1",
          "midi": 34,
          "time": 28.110700868164137,
          "velocity": 0.4251968503937008,
          "duration": 0.22145671874999806
        },
        {
          "name": "G#1",
          "midi": 32,
          "time": 28.346460000000075,
          "velocity": 0.8661417322834646,
          "duration": 0.11811025000000086
        },
        {
          "name": "G#2",
          "midi": 44,
          "time": 28.346460000000075,
          "velocity": 0.5511811023622047,
          "duration": 0.13333539941406158
        },
        {
          "name": "G#2",
          "midi": 44,
          "time": 28.4802567675782,
          "velocity": 0.3937007874015748,
          "duration": 0.08765995117187586
        },
        {
          "name": "G#1",
          "midi": 32,
          "time": 28.4802567675782,
          "velocity": 0.41732283464566927,
          "duration": 0.09458047363281352
        },
        {
          "name": "G#2",
          "midi": 44,
          "time": 28.582680500000077,
          "velocity": 0.47244094488188976,
          "duration": 0.11718751367187608
        },
        {
          "name": "G#1",
          "midi": 32,
          "time": 28.582680500000077,
          "velocity": 0.8661417322834646,
          "duration": 0.23622050000000172
        },
        {
          "name": "G#2",
          "midi": 44,
          "time": 28.700790750000078,
          "velocity": 0.8661417322834646,
          "duration": 0.23622050000000172
        },
        {
          "name": "G#1",
          "midi": 32,
          "time": 28.93701125000008,
          "velocity": 0.8661417322834646,
          "duration": 0.11811025000000086
        },
        {
          "name": "G#2",
          "midi": 44,
          "time": 28.945777245117267,
          "velocity": 0.5196850393700787,
          "duration": 0.11949435449218981
        },
        {
          "name": "G#1",
          "midi": 32,
          "time": 29.05512150000008,
          "velocity": 0.8661417322834646,
          "duration": 0.23622050000000172
        },
        {
          "name": "G#2",
          "midi": 44,
          "time": 29.06573296777352,
          "velocity": 0.5196850393700787,
          "duration": 0.222840823242187
        },
        {
          "name": "G#2",
          "midi": 44,
          "time": 29.291342000000082,
          "velocity": 0.8661417322834646,
          "duration": 0.23622049999999817
        },
        {
          "name": "G#1",
          "midi": 32,
          "time": 29.301030731445394,
          "velocity": 0.41732283464566927,
          "duration": 0.22653176855468615
        },
        {
          "name": "G#1",
          "midi": 32,
          "time": 29.52756250000008,
          "velocity": 0.8661417322834646,
          "duration": 0.23622050000000172
        },
        {
          "name": "G#2",
          "midi": 44,
          "time": 29.528023868164144,
          "velocity": 0.5511811023622047,
          "duration": 0.23529776367187338
        },
        {
          "name": "C#1",
          "midi": 25,
          "time": 29.763783000000082,
          "velocity": 0.8661417322834646,
          "duration": 0.11811025000000086
        },
        {
          "name": "C#2",
          "midi": 37,
          "time": 29.763783000000082,
          "velocity": 0.5511811023622047,
          "duration": 0.13333539941406514
        },
        {
          "name": "C#2",
          "midi": 37,
          "time": 29.89757976757821,
          "velocity": 0.3937007874015748,
          "duration": 0.08765995117187586
        },
        {
          "name": "C#1",
          "midi": 25,
          "time": 29.89757976757821,
          "velocity": 0.41732283464566927,
          "duration": 0.09458047363281352
        },
        {
          "name": "C#2",
          "midi": 37,
          "time": 30.000003500000087,
          "velocity": 0.47244094488188976,
          "duration": 0.11718751367187608
        },
        {
          "name": "C#1",
          "midi": 25,
          "time": 30.000003500000087,
          "velocity": 0.8661417322834646,
          "duration": 0.23622050000000172
        },
        {
          "name": "C#2",
          "midi": 37,
          "time": 30.118113750000088,
          "velocity": 0.8661417322834646,
          "duration": 0.23622050000000172
        },
        {
          "name": "C#1",
          "midi": 25,
          "time": 30.35433425000009,
          "velocity": 0.8661417322834646,
          "duration": 0.11811025000000086
        },
        {
          "name": "C#2",
          "midi": 37,
          "time": 30.363100245117277,
          "velocity": 0.5196850393700787,
          "duration": 0.11949435449218981
        },
        {
          "name": "C#1",
          "midi": 25,
          "time": 30.47244450000009,
          "velocity": 0.8661417322834646,
          "duration": 0.23622050000000172
        },
        {
          "name": "C#2",
          "midi": 37,
          "time": 30.48305596777353,
          "velocity": 0.5196850393700787,
          "duration": 0.222840823242187
        },
        {
          "name": "C#2",
          "midi": 37,
          "time": 30.708665000000092,
          "velocity": 0.8661417322834646,
          "duration": 0.23622049999999817
        },
        {
          "name": "C#1",
          "midi": 25,
          "time": 30.718353731445404,
          "velocity": 0.41732283464566927,
          "duration": 0.22653176855468615
        },
        {
          "name": "C#1",
          "midi": 25,
          "time": 30.94488550000009,
          "velocity": 0.8661417322834646,
          "duration": 0.23622050000000172
        },
        {
          "name": "C#2",
          "midi": 37,
          "time": 30.945346868164155,
          "velocity": 0.5511811023622047,
          "duration": 0.23529776367187338
        },
        {
          "name": "G#1",
          "midi": 32,
          "time": 31.181106000000092,
          "velocity": 0.8661417322834646,
          "duration": 0.11811025000000086
        },
        {
          "name": "G#2",
          "midi": 44,
          "time": 31.181106000000092,
          "velocity": 0.5511811023622047,
          "duration": 0.13333539941406514
        },
        {
          "name": "G#2",
          "midi": 44,
          "time": 31.31490276757822,
          "velocity": 0.3937007874015748,
          "duration": 0.08765995117187586
        },
        {
          "name": "G#1",
          "midi": 32,
          "time": 31.31490276757822,
          "velocity": 0.41732283464566927,
          "duration": 0.09458047363281352
        },
        {
          "name": "G#2",
          "midi": 44,
          "time": 31.417326500000097,
          "velocity": 0.47244094488188976,
          "duration": 0.11718751367187608
        },
        {
          "name": "G#1",
          "midi": 32,
          "time": 31.417326500000097,
          "velocity": 0.8661417322834646,
          "duration": 0.23622050000000172
        },
        {
          "name": "G#2",
          "midi": 44,
          "time": 31.5354367500001,
          "velocity": 0.8661417322834646,
          "duration": 0.23622050000000172
        },
        {
          "name": "G#1",
          "midi": 32,
          "time": 31.7716572500001,
          "velocity": 0.8661417322834646,
          "duration": 0.11811025000000086
        },
        {
          "name": "G#2",
          "midi": 44,
          "time": 31.780423245117287,
          "velocity": 0.5196850393700787,
          "duration": 0.11949435449218981
        },
        {
          "name": "G#1",
          "midi": 32,
          "time": 31.8897675000001,
          "velocity": 0.8661417322834646,
          "duration": 0.23622050000000527
        },
        {
          "name": "G#2",
          "midi": 44,
          "time": 31.90037896777354,
          "velocity": 0.5196850393700787,
          "duration": 0.222840823242187
        },
        {
          "name": "G#2",
          "midi": 44,
          "time": 32.125988000000106,
          "velocity": 0.8661417322834646,
          "duration": 0.23622050000000172
        },
        {
          "name": "G#1",
          "midi": 32,
          "time": 32.13567673144542,
          "velocity": 0.41732283464566927,
          "duration": 0.22653176855468615
        },
        {
          "name": "G#1",
          "midi": 32,
          "time": 32.36220850000011,
          "velocity": 0.8661417322834646,
          "duration": 0.23622049999999462
        },
        {
          "name": "G#2",
          "midi": 44,
          "time": 32.36266986816417,
          "velocity": 0.5511811023622047,
          "duration": 0.23529776367187338
        },
        {
          "name": "C#2",
          "midi": 37,
          "time": 32.5984290000001,
          "velocity": 0.8661417322834646,
          "duration": 0.23622050000000172
        },
        {
          "name": "B2",
          "midi": 47,
          "time": 32.5984290000001,
          "velocity": 0.5905511811023622,
          "duration": 0.13333539941406514
        },
        {
          "name": "E2",
          "midi": 40,
          "time": 32.5984290000001,
          "velocity": 0.5196850393700787,
          "duration": 0.13333539941406514
        },
        {
          "name": "B1",
          "midi": 35,
          "time": 32.5984290000001,
          "velocity": 0.4645669291338583,
          "duration": 0.13333539941406514
        },
        {
          "name": "B2",
          "midi": 47,
          "time": 32.73222576757823,
          "velocity": 0.5196850393700787,
          "duration": 0.11626477734375129
        },
        {
          "name": "E2",
          "midi": 40,
          "time": 32.73222576757823,
          "velocity": 0.5196850393700787,
          "duration": 0.11626477734375129
        },
        {
          "name": "B1",
          "midi": 35,
          "time": 32.73222576757823,
          "velocity": 0.4251968503937008,
          "duration": 0.09458047363280997
        },
        {
          "name": "B1",
          "midi": 35,
          "time": 32.834649500000104,
          "velocity": 0.8661417322834646,
          "duration": 0.23622050000000172
        },
        {
          "name": "B2",
          "midi": 47,
          "time": 32.96521669042979,
          "velocity": 0.5196850393700787,
          "duration": 0.23206818652344197
        },
        {
          "name": "E2",
          "midi": 40,
          "time": 32.96521669042979,
          "velocity": 0.5196850393700787,
          "duration": 0.23206818652344197
        },
        {
          "name": "C#2",
          "midi": 37,
          "time": 33.070870000000106,
          "velocity": 0.8661417322834646,
          "duration": 0.23622050000000172
        },
        {
          "name": "B2",
          "midi": 47,
          "time": 33.197746245117294,
          "velocity": 0.5511811023622047,
          "duration": 0.11949435449218981
        },
        {
          "name": "E2",
          "midi": 40,
          "time": 33.197746245117294,
          "velocity": 0.5196850393700787,
          "duration": 0.11949435449218981
        },
        {
          "name": "B1",
          "midi": 35,
          "time": 33.197746245117294,
          "velocity": 0.4251968503937008,
          "duration": 0.11257383203125215
        },
        {
          "name": "D#2",
          "midi": 39,
          "time": 33.30709050000011,
          "velocity": 0.8661417322834646,
          "duration": 0.22145671874999806
        },
        {
          "name": "A#2",
          "midi": 46,
          "time": 33.317701967773544,
          "velocity": 0.5511811023622047,
          "duration": 0.11949435449218981
        },
        {
          "name": "A#1",
          "midi": 34,
          "time": 33.317701967773544,
          "velocity": 0.4251968503937008,
          "duration": 0.11257383203125215
        },
        {
          "name": "D#2",
          "midi": 39,
          "time": 33.54238826367198,
          "velocity": 0.5196850393700787,
          "duration": 0.22653176855469326
        },
        {
          "name": "A#1",
          "midi": 34,
          "time": 33.54331100000011,
          "velocity": 0.8661417322834646,
          "duration": 0.23622050000000172
        },
        {
          "name": "A#2",
          "midi": 46,
          "time": 33.552999731445425,
          "velocity": 0.5196850393700787,
          "duration": 0.22653176855468615
        },
        {
          "name": "D#2",
          "midi": 39,
          "time": 33.769381400390735,
          "velocity": 0.5196850393700787,
          "duration": 0.22145671874999806
        },
        {
          "name": "C#2",
          "midi": 37,
          "time": 33.77953150000011,
          "velocity": 0.7874015748031497,
          "duration": 0.23622049999999462
        },
        {
          "name": "A#2",
          "midi": 46,
          "time": 33.77999286816417,
          "velocity": 0.5511811023622047,
          "duration": 0.23529776367187338
        },
        {
          "name": "A#1",
          "midi": 34,
          "time": 33.77999286816417,
          "velocity": 0.4251968503937008,
          "duration": 0.22145671874999806
        },
        {
          "name": "E2",
          "midi": 40,
          "time": 34.015752000000106,
          "velocity": 0.8661417322834646,
          "duration": 0.23483639550781277
        },
        {
          "name": "E1",
          "midi": 28,
          "time": 34.015752000000106,
          "velocity": 0.5196850393700787,
          "duration": 0.23483639550781277
        },
        {
          "name": "G#2",
          "midi": 44,
          "time": 34.25197250000011,
          "velocity": 0.8661417322834646,
          "duration": 0.22330219140624763
        },
        {
          "name": "E2",
          "midi": 40,
          "time": 34.4881930000001,
          "velocity": 0.8661417322834646,
          "duration": 0.22330219140624763
        },
        {
          "name": "G2",
          "midi": 43,
          "time": 34.7244135000001,
          "velocity": 0.8661417322834646,
          "duration": 0.23483639550781277
        },
        {
          "name": "G1",
          "midi": 31,
          "time": 34.7244135000001,
          "velocity": 0.5196850393700787,
          "duration": 0.23483639550781277
        },
        {
          "name": "D#2",
          "midi": 39,
          "time": 34.9606340000001,
          "velocity": 0.8661417322834646,
          "duration": 0.22330219140624763
        },
        {
          "name": "G2",
          "midi": 43,
          "time": 35.19685450000009,
          "velocity": 0.8661417322834646,
          "duration": 0.22330219140624763
        },
        {
          "name": "E2",
          "midi": 40,
          "time": 35.43307500000009,
          "velocity": 0.8661417322834646,
          "duration": 0.23483639550781277
        },
        {
          "name": "E1",
          "midi": 28,
          "time": 35.43307500000009,
          "velocity": 0.5196850393700787,
          "duration": 0.23483639550781277
        },
        {
          "name": "B1",
          "midi": 35,
          "time": 35.66929550000009,
          "velocity": 0.8661417322834646,
          "duration": 0.22330219140624763
        },
        {
          "name": "E2",
          "midi": 40,
          "time": 35.905516000000084,
          "velocity": 0.8661417322834646,
          "duration": 0.22330219140624763
        },
        {
          "name": "G2",
          "midi": 43,
          "time": 36.14173650000008,
          "velocity": 0.8661417322834646,
          "duration": 0.23483639550781277
        },
        {
          "name": "G1",
          "midi": 31,
          "time": 36.14173650000008,
          "velocity": 0.5196850393700787,
          "duration": 0.23483639550781277
        },
        {
          "name": "D#2",
          "midi": 39,
          "time": 36.37795700000008,
          "velocity": 0.8661417322834646,
          "duration": 0.22330219140624763
        },
        {
          "name": "G2",
          "midi": 43,
          "time": 36.614177500000075,
          "velocity": 0.8661417322834646,
          "duration": 0.22330219140624763
        },
        {
          "name": "E2",
          "midi": 40,
          "time": 36.85039800000007,
          "velocity": 0.8661417322834646,
          "duration": 0.35294664550781363
        },
        {
          "name": "E1",
          "midi": 28,
          "time": 36.85039800000007,
          "velocity": 0.5196850393700787,
          "duration": 0.35294664550781363
        },
        {
          "name": "D#2",
          "midi": 39,
          "time": 37.55905950000007,
          "velocity": 0.5511811023622047,
          "duration": 0.35294664550781363
        },
        {
          "name": "G#2",
          "midi": 44,
          "time": 38.267721000000066,
          "velocity": 0.5511811023622047,
          "duration": 0.1111897275390632
        },
        {
          "name": "G#1",
          "midi": 32,
          "time": 38.267721000000066,
          "velocity": 0.3937007874015748,
          "duration": 0.1111897275390632
        },
        {
          "name": "D#3",
          "midi": 51,
          "time": 38.38583125000007,
          "velocity": 0.3937007874015748,
          "duration": 0.1111897275390632
        },
        {
          "name": "G#3",
          "midi": 56,
          "time": 38.50394150000007,
          "velocity": 0.3937007874015748,
          "duration": 0.1111897275390632
        },
        {
          "name": "G#2",
          "midi": 44,
          "time": 38.62205175000007,
          "velocity": 0.5511811023622047,
          "duration": 0.1111897275390632
        },
        {
          "name": "G#1",
          "midi": 32,
          "time": 38.62205175000007,
          "velocity": 0.3937007874015748,
          "duration": 0.1111897275390632
        },
        {
          "name": "D#3",
          "midi": 51,
          "time": 38.74016200000007,
          "velocity": 0.3937007874015748,
          "duration": 0.1111897275390632
        },
        {
          "name": "G#3",
          "midi": 56,
          "time": 38.85827225000007,
          "velocity": 0.3937007874015748,
          "duration": 0.1111897275390632
        },
        {
          "name": "C#2",
          "midi": 37,
          "time": 38.97638250000007,
          "velocity": 0.5511811023622047,
          "duration": 0.11672614550781191
        },
        {
          "name": "C#1",
          "midi": 25,
          "time": 38.97638250000007,
          "velocity": 0.3937007874015748,
          "duration": 0.11672614550781191
        },
        {
          "name": "D#2",
          "midi": 39,
          "time": 39.21260300000007,
          "velocity": 0.5511811023622047,
          "duration": 0.23483639550781277
        },
        {
          "name": "D#1",
          "midi": 27,
          "time": 39.21260300000007,
          "velocity": 0.3937007874015748,
          "duration": 0.23483639550781277
        },
        {
          "name": "D#2",
          "midi": 39,
          "time": 39.448823500000074,
          "velocity": 0.5511811023622047,
          "duration": 0.23483639550781277
        },
        {
          "name": "D#1",
          "midi": 27,
          "time": 39.448823500000074,
          "velocity": 0.3937007874015748,
          "duration": 0.23483639550781277
        },
        {
          "name": "G#2",
          "midi": 44,
          "time": 39.685044000000076,
          "velocity": 0.5511811023622047,
          "duration": 0.1111897275390632
        },
        {
          "name": "G#1",
          "midi": 32,
          "time": 39.685044000000076,
          "velocity": 0.3937007874015748,
          "duration": 0.1111897275390632
        },
        {
          "name": "D#3",
          "midi": 51,
          "time": 39.80315425000008,
          "velocity": 0.3937007874015748,
          "duration": 0.1111897275390632
        },
        {
          "name": "G#3",
          "midi": 56,
          "time": 39.92126450000008,
          "velocity": 0.3937007874015748,
          "duration": 0.1111897275390632
        },
        {
          "name": "G#2",
          "midi": 44,
          "time": 40.03937475000008,
          "velocity": 0.5511811023622047,
          "duration": 0.1111897275390632
        },
        {
          "name": "G#1",
          "midi": 32,
          "time": 40.03937475000008,
          "velocity": 0.3937007874015748,
          "duration": 0.1111897275390632
        },
        {
          "name": "D#3",
          "midi": 51,
          "time": 40.15748500000008,
          "velocity": 0.3937007874015748,
          "duration": 0.1111897275390632
        },
        {
          "name": "G#3",
          "midi": 56,
          "time": 40.27559525000008,
          "velocity": 0.3937007874015748,
          "duration": 0.1111897275390632
        },
        {
          "name": "C#2",
          "midi": 37,
          "time": 40.39370550000008,
          "velocity": 0.5511811023622047,
          "duration": 0.11672614550781191
        },
        {
          "name": "C#1",
          "midi": 25,
          "time": 40.39370550000008,
          "velocity": 0.3937007874015748,
          "duration": 0.11672614550781191
        },
        {
          "name": "D#2",
          "midi": 39,
          "time": 40.62992600000008,
          "velocity": 0.5511811023622047,
          "duration": 0.23483639550781277
        },
        {
          "name": "D#1",
          "midi": 27,
          "time": 40.62992600000008,
          "velocity": 0.3937007874015748,
          "duration": 0.23483639550781277
        },
        {
          "name": "D#2",
          "midi": 39,
          "time": 40.866146500000085,
          "velocity": 0.5511811023622047,
          "duration": 0.23483639550781277
        },
        {
          "name": "D#1",
          "midi": 27,
          "time": 40.866146500000085,
          "velocity": 0.3937007874015748,
          "duration": 0.23483639550781277
        },
        {
          "name": "G#2",
          "midi": 44,
          "time": 41.102367000000086,
          "velocity": 0.5511811023622047,
          "duration": 0.1111897275390632
        },
        {
          "name": "G#1",
          "midi": 32,
          "time": 41.102367000000086,
          "velocity": 0.3937007874015748,
          "duration": 0.1111897275390632
        },
        {
          "name": "D#3",
          "midi": 51,
          "time": 41.22047725000009,
          "velocity": 0.3937007874015748,
          "duration": 0.1111897275390632
        },
        {
          "name": "G#3",
          "midi": 56,
          "time": 41.33858750000009,
          "velocity": 0.3937007874015748,
          "duration": 0.1111897275390632
        },
        {
          "name": "G#2",
          "midi": 44,
          "time": 41.45669775000009,
          "velocity": 0.5511811023622047,
          "duration": 0.1111897275390632
        },
        {
          "name": "G#1",
          "midi": 32,
          "time": 41.45669775000009,
          "velocity": 0.3937007874015748,
          "duration": 0.1111897275390632
        },
        {
          "name": "D#3",
          "midi": 51,
          "time": 41.57480800000009,
          "velocity": 0.3937007874015748,
          "duration": 0.1111897275390632
        },
        {
          "name": "G#3",
          "midi": 56,
          "time": 41.69291825000009,
          "velocity": 0.3937007874015748,
          "duration": 0.1111897275390632
        },
        {
          "name": "C#2",
          "midi": 37,
          "time": 41.81102850000009,
          "velocity": 0.5511811023622047,
          "duration": 0.1111897275390632
        },
        {
          "name": "C#1",
          "midi": 25,
          "time": 41.81102850000009,
          "velocity": 0.3937007874015748,
          "duration": 0.1111897275390632
        },
        {
          "name": "G#2",
          "midi": 44,
          "time": 41.92913875000009,
          "velocity": 0.3937007874015748,
          "duration": 0.1111897275390632
        },
        {
          "name": "C#3",
          "midi": 49,
          "time": 42.04724900000009,
          "velocity": 0.3937007874015748,
          "duration": 0.1111897275390632
        },
        {
          "name": "C#2",
          "midi": 37,
          "time": 42.165359250000094,
          "velocity": 0.5511811023622047,
          "duration": 0.1111897275390632
        },
        {
          "name": "C#1",
          "midi": 25,
          "time": 42.165359250000094,
          "velocity": 0.3937007874015748,
          "duration": 0.1111897275390632
        },
        {
          "name": "G#2",
          "midi": 44,
          "time": 42.283469500000095,
          "velocity": 0.3937007874015748,
          "duration": 0.1111897275390632
        },
        {
          "name": "C#3",
          "midi": 49,
          "time": 42.401579750000096,
          "velocity": 0.3937007874015748,
          "duration": 0.1111897275390632
        },
        {
          "name": "D#2",
          "midi": 39,
          "time": 42.5196900000001,
          "velocity": 0.5511811023622047,
          "duration": 0.1111897275390632
        },
        {
          "name": "D#1",
          "midi": 27,
          "time": 42.5196900000001,
          "velocity": 0.3937007874015748,
          "duration": 0.1111897275390632
        },
        {
          "name": "A#2",
          "midi": 46,
          "time": 42.6378002500001,
          "velocity": 0.3937007874015748,
          "duration": 0.1111897275390632
        },
        {
          "name": "D#3",
          "midi": 51,
          "time": 42.7559105000001,
          "velocity": 0.3937007874015748,
          "duration": 0.1111897275390632
        },
        {
          "name": "D#2",
          "midi": 39,
          "time": 42.8740207500001,
          "velocity": 0.5511811023622047,
          "duration": 0.11672614550781191
        },
        {
          "name": "D#1",
          "midi": 27,
          "time": 42.8740207500001,
          "velocity": 0.3937007874015748,
          "duration": 0.11672614550781191
        },
        {
          "name": "D#2",
          "midi": 39,
          "time": 43.1102412500001,
          "velocity": 0.5511811023622047,
          "duration": 0.1111897275390632
        },
        {
          "name": "D#1",
          "midi": 27,
          "time": 43.1102412500001,
          "velocity": 0.3937007874015748,
          "duration": 0.1111897275390632
        },
        {
          "name": "E2",
          "midi": 40,
          "time": 43.2283515000001,
          "velocity": 0.5511811023622047,
          "duration": 0.23483639550781277
        },
        {
          "name": "E1",
          "midi": 28,
          "time": 43.2283515000001,
          "velocity": 0.3937007874015748,
          "duration": 0.23483639550781277
        },
        {
          "name": "E2",
          "midi": 40,
          "time": 43.4645720000001,
          "velocity": 0.5511811023622047,
          "duration": 0.23483639550781277
        },
        {
          "name": "E1",
          "midi": 28,
          "time": 43.4645720000001,
          "velocity": 0.3937007874015748,
          "duration": 0.23483639550781277
        },
        {
          "name": "D#2",
          "midi": 39,
          "time": 43.700792500000105,
          "velocity": 0.5511811023622047,
          "duration": 0.23483639550781277
        },
        {
          "name": "D#1",
          "midi": 27,
          "time": 43.700792500000105,
          "velocity": 0.3937007874015748,
          "duration": 0.23483639550781277
        },
        {
          "name": "G#2",
          "midi": 44,
          "time": 43.93701300000011,
          "velocity": 0.5511811023622047,
          "duration": 0.1111897275390632
        },
        {
          "name": "G#1",
          "midi": 32,
          "time": 43.93701300000011,
          "velocity": 0.3937007874015748,
          "duration": 0.1111897275390632
        },
        {
          "name": "D#3",
          "midi": 51,
          "time": 44.05512325000011,
          "velocity": 0.3937007874015748,
          "duration": 0.1111897275390632
        },
        {
          "name": "G#3",
          "midi": 56,
          "time": 44.17323350000011,
          "velocity": 0.3937007874015748,
          "duration": 0.1111897275390632
        },
        {
          "name": "G#2",
          "midi": 44,
          "time": 44.29134375000011,
          "velocity": 0.5511811023622047,
          "duration": 0.1111897275390632
        },
        {
          "name": "G#1",
          "midi": 32,
          "time": 44.29134375000011,
          "velocity": 0.3937007874015748,
          "duration": 0.1111897275390632
        },
        {
          "name": "D#3",
          "midi": 51,
          "time": 44.40945400000011,
          "velocity": 0.3937007874015748,
          "duration": 0.1111897275390632
        },
        {
          "name": "G#3",
          "midi": 56,
          "time": 44.52756425000011,
          "velocity": 0.3937007874015748,
          "duration": 0.1111897275390632
        },
        {
          "name": "C#2",
          "midi": 37,
          "time": 44.64567450000011,
          "velocity": 0.5511811023622047,
          "duration": 0.11672614550781191
        },
        {
          "name": "C#1",
          "midi": 25,
          "time": 44.64567450000011,
          "velocity": 0.3937007874015748,
          "duration": 0.11672614550781191
        },
        {
          "name": "D#2",
          "midi": 39,
          "time": 44.881895000000114,
          "velocity": 0.5511811023622047,
          "duration": 0.23483639550781277
        },
        {
          "name": "D#1",
          "midi": 27,
          "time": 44.881895000000114,
          "velocity": 0.3937007874015748,
          "duration": 0.23483639550781277
        },
        {
          "name": "D#2",
          "midi": 39,
          "time": 45.118115500000116,
          "velocity": 0.5511811023622047,
          "duration": 0.23483639550781277
        },
        {
          "name": "D#1",
          "midi": 27,
          "time": 45.118115500000116,
          "velocity": 0.3937007874015748,
          "duration": 0.23483639550781277
        },
        {
          "name": "G#2",
          "midi": 44,
          "time": 45.35433600000012,
          "velocity": 0.5511811023622047,
          "duration": 0.1111897275390632
        },
        {
          "name": "G#1",
          "midi": 32,
          "time": 45.35433600000012,
          "velocity": 0.3937007874015748,
          "duration": 0.1111897275390632
        },
        {
          "name": "D#3",
          "midi": 51,
          "time": 45.47244625000012,
          "velocity": 0.3937007874015748,
          "duration": 0.1111897275390632
        },
        {
          "name": "G#3",
          "midi": 56,
          "time": 45.59055650000012,
          "velocity": 0.3937007874015748,
          "duration": 0.1111897275390632
        },
        {
          "name": "G#2",
          "midi": 44,
          "time": 45.70866675000012,
          "velocity": 0.5511811023622047,
          "duration": 0.1111897275390632
        },
        {
          "name": "G#1",
          "midi": 32,
          "time": 45.70866675000012,
          "velocity": 0.3937007874015748,
          "duration": 0.1111897275390632
        },
        {
          "name": "D#3",
          "midi": 51,
          "time": 45.82677700000012,
          "velocity": 0.3937007874015748,
          "duration": 0.1111897275390632
        },
        {
          "name": "G#3",
          "midi": 56,
          "time": 45.94488725000012,
          "velocity": 0.3937007874015748,
          "duration": 0.1111897275390632
        },
        {
          "name": "C#2",
          "midi": 37,
          "time": 46.06299750000012,
          "velocity": 0.5511811023622047,
          "duration": 0.11672614550781191
        },
        {
          "name": "C#1",
          "midi": 25,
          "time": 46.06299750000012,
          "velocity": 0.3937007874015748,
          "duration": 0.11672614550781191
        },
        {
          "name": "D#2",
          "midi": 39,
          "time": 46.299218000000124,
          "velocity": 0.5511811023622047,
          "duration": 0.23483639550781277
        },
        {
          "name": "D#1",
          "midi": 27,
          "time": 46.299218000000124,
          "velocity": 0.3937007874015748,
          "duration": 0.23483639550781277
        },
        {
          "name": "D#2",
          "midi": 39,
          "time": 46.535438500000126,
          "velocity": 0.5511811023622047,
          "duration": 0.23483639550781277
        },
        {
          "name": "D#1",
          "midi": 27,
          "time": 46.535438500000126,
          "velocity": 0.3937007874015748,
          "duration": 0.23483639550781277
        },
        {
          "name": "G#2",
          "midi": 44,
          "time": 46.77165900000013,
          "velocity": 0.5511811023622047,
          "duration": 0.1111897275390632
        },
        {
          "name": "G#1",
          "midi": 32,
          "time": 46.77165900000013,
          "velocity": 0.3937007874015748,
          "duration": 0.1111897275390632
        },
        {
          "name": "D#3",
          "midi": 51,
          "time": 46.88976925000013,
          "velocity": 0.3937007874015748,
          "duration": 0.1111897275390632
        },
        {
          "name": "G#3",
          "midi": 56,
          "time": 47.00787950000013,
          "velocity": 0.3937007874015748,
          "duration": 0.1111897275390632
        },
        {
          "name": "G#2",
          "midi": 44,
          "time": 47.12598975000013,
          "velocity": 0.5511811023622047,
          "duration": 0.1111897275390632
        },
        {
          "name": "G#1",
          "midi": 32,
          "time": 47.12598975000013,
          "velocity": 0.3937007874015748,
          "duration": 0.1111897275390632
        },
        {
          "name": "D#3",
          "midi": 51,
          "time": 47.24410000000013,
          "velocity": 0.3937007874015748,
          "duration": 0.1111897275390632
        },
        {
          "name": "G#3",
          "midi": 56,
          "time": 47.36221025000013,
          "velocity": 0.3937007874015748,
          "duration": 0.1111897275390632
        },
        {
          "name": "C#2",
          "midi": 37,
          "time": 47.48032050000013,
          "velocity": 0.5511811023622047,
          "duration": 0.1111897275390632
        },
        {
          "name": "C#1",
          "midi": 25,
          "time": 47.48032050000013,
          "velocity": 0.3937007874015748,
          "duration": 0.1111897275390632
        },
        {
          "name": "G#2",
          "midi": 44,
          "time": 47.598430750000134,
          "velocity": 0.3937007874015748,
          "duration": 0.1111897275390632
        },
        {
          "name": "C#3",
          "midi": 49,
          "time": 47.716541000000134,
          "velocity": 0.3937007874015748,
          "duration": 0.1111897275390632
        },
        {
          "name": "C#2",
          "midi": 37,
          "time": 47.834651250000135,
          "velocity": 0.5511811023622047,
          "duration": 0.1111897275390632
        },
        {
          "name": "C#1",
          "midi": 25,
          "time": 47.834651250000135,
          "velocity": 0.3937007874015748,
          "duration": 0.1111897275390632
        },
        {
          "name": "G#2",
          "midi": 44,
          "time": 47.952761500000136,
          "velocity": 0.3937007874015748,
          "duration": 0.1111897275390632
        },
        {
          "name": "C#3",
          "midi": 49,
          "time": 48.07087175000014,
          "velocity": 0.3937007874015748,
          "duration": 0.1111897275390632
        },
        {
          "name": "D#2",
          "midi": 39,
          "time": 48.18898200000014,
          "velocity": 0.5511811023622047,
          "duration": 0.1111897275390632
        },
        {
          "name": "D#1",
          "midi": 27,
          "time": 48.18898200000014,
          "velocity": 0.3937007874015748,
          "duration": 0.1111897275390632
        },
        {
          "name": "A#2",
          "midi": 46,
          "time": 48.30709225000014,
          "velocity": 0.3937007874015748,
          "duration": 0.1111897275390632
        },
        {
          "name": "D#3",
          "midi": 51,
          "time": 48.42520250000014,
          "velocity": 0.3937007874015748,
          "duration": 0.1111897275390632
        },
        {
          "name": "D#2",
          "midi": 39,
          "time": 48.54331275000014,
          "velocity": 0.5511811023622047,
          "duration": 0.11672614550781191
        },
        {
          "name": "D#1",
          "midi": 27,
          "time": 48.54331275000014,
          "velocity": 0.3937007874015748,
          "duration": 0.11672614550781191
        },
        {
          "name": "D#2",
          "midi": 39,
          "time": 48.77953325000014,
          "velocity": 0.5511811023622047,
          "duration": 0.1111897275390632
        },
        {
          "name": "D#1",
          "midi": 27,
          "time": 48.77953325000014,
          "velocity": 0.3937007874015748,
          "duration": 0.1111897275390632
        },
        {
          "name": "E3",
          "midi": 52,
          "time": 48.89764350000014,
          "velocity": 0.3937007874015748,
          "duration": 0.23483639550781277
        },
        {
          "name": "E1",
          "midi": 28,
          "time": 48.89764350000014,
          "velocity": 0.47244094488188976,
          "duration": 0.23483639550781277
        },
        {
          "name": "E2",
          "midi": 40,
          "time": 48.89764350000014,
          "velocity": 0.6299212598425197,
          "duration": 0.23483639550781277
        },
        {
          "name": "E3",
          "midi": 52,
          "time": 49.133864000000145,
          "velocity": 0.3937007874015748,
          "duration": 0.23483639550781277
        },
        {
          "name": "E1",
          "midi": 28,
          "time": 49.133864000000145,
          "velocity": 0.47244094488188976,
          "duration": 0.23483639550781277
        },
        {
          "name": "E2",
          "midi": 40,
          "time": 49.133864000000145,
          "velocity": 0.6299212598425197,
          "duration": 0.23483639550781277
        },
        {
          "name": "D#3",
          "midi": 51,
          "time": 49.37008450000015,
          "velocity": 0.3937007874015748,
          "duration": 0.23483639550781277
        },
        {
          "name": "D#1",
          "midi": 27,
          "time": 49.37008450000015,
          "velocity": 0.47244094488188976,
          "duration": 0.23483639550781277
        },
        {
          "name": "D#2",
          "midi": 39,
          "time": 49.37008450000015,
          "velocity": 0.6299212598425197,
          "duration": 0.23483639550781277
        },
        {
          "name": "G#2",
          "midi": 44,
          "time": 49.60630500000015,
          "velocity": 0.6299212598425197,
          "duration": 0.11672614550781191
        },
        {
          "name": "G#3",
          "midi": 56,
          "time": 49.60630500000015,
          "velocity": 0.6299212598425197,
          "duration": 0.11672614550781191
        },
        {
          "name": "D#3",
          "midi": 51,
          "time": 49.72441525000015,
          "velocity": 0.6299212598425197,
          "duration": 0.1111897275390632
        },
        {
          "name": "C#3",
          "midi": 49,
          "time": 49.84252550000015,
          "velocity": 0.6299212598425197,
          "duration": 0.1111897275390632
        },
        {
          "name": "D#3",
          "midi": 51,
          "time": 49.96063575000015,
          "velocity": 0.6299212598425197,
          "duration": 0.1111897275390632
        },
        {
          "name": "B2",
          "midi": 47,
          "time": 50.07874600000015,
          "velocity": 0.6299212598425197,
          "duration": 0.1111897275390632
        },
        {
          "name": "D#3",
          "midi": 51,
          "time": 50.19685625000015,
          "velocity": 0.6299212598425197,
          "duration": 0.1111897275390632
        },
        {
          "name": "D#2",
          "midi": 39,
          "time": 50.31496650000015,
          "velocity": 0.6299212598425197,
          "duration": 0.23483639550781277
        },
        {
          "name": "D#3",
          "midi": 51,
          "time": 50.31496650000015,
          "velocity": 0.6299212598425197,
          "duration": 0.23483639550781277
        },
        {
          "name": "E2",
          "midi": 40,
          "time": 51.02362800000015,
          "velocity": 0.6299212598425197,
          "duration": 0.11672614550781191
        },
        {
          "name": "E3",
          "midi": 52,
          "time": 51.02362800000015,
          "velocity": 0.6299212598425197,
          "duration": 0.11672614550781191
        },
        {
          "name": "B2",
          "midi": 47,
          "time": 51.14173825000015,
          "velocity": 0.6299212598425197,
          "duration": 0.1111897275390632
        },
        {
          "name": "G#2",
          "midi": 44,
          "time": 51.25984850000015,
          "velocity": 0.6299212598425197,
          "duration": 0.1111897275390632
        },
        {
          "name": "E2",
          "midi": 40,
          "time": 51.377958750000154,
          "velocity": 0.6299212598425197,
          "duration": 0.11672614550781191
        },
        {
          "name": "E3",
          "midi": 52,
          "time": 51.377958750000154,
          "velocity": 0.6299212598425197,
          "duration": 0.11672614550781191
        },
        {
          "name": "B2",
          "midi": 47,
          "time": 51.496069000000155,
          "velocity": 0.6299212598425197,
          "duration": 0.1111897275390632
        },
        {
          "name": "G#2",
          "midi": 44,
          "time": 51.614179250000156,
          "velocity": 0.6299212598425197,
          "duration": 0.1111897275390632
        },
        {
          "name": "F#2",
          "midi": 42,
          "time": 51.73228950000016,
          "velocity": 0.6299212598425197,
          "duration": 0.11672614550781191
        },
        {
          "name": "F#3",
          "midi": 54,
          "time": 51.73228950000016,
          "velocity": 0.6299212598425197,
          "duration": 0.11672614550781191
        },
        {
          "name": "C#3",
          "midi": 49,
          "time": 51.85039975000016,
          "velocity": 0.6299212598425197,
          "duration": 0.1111897275390632
        },
        {
          "name": "F#2",
          "midi": 42,
          "time": 51.96851000000016,
          "velocity": 0.6299212598425197,
          "duration": 0.11672614550781191
        },
        {
          "name": "F#3",
          "midi": 54,
          "time": 51.96851000000016,
          "velocity": 0.6299212598425197,
          "duration": 0.11672614550781191
        },
        {
          "name": "C#3",
          "midi": 49,
          "time": 52.08662025000016,
          "velocity": 0.6299212598425197,
          "duration": 0.1111897275390632
        },
        {
          "name": "F#2",
          "midi": 42,
          "time": 52.20473050000016,
          "velocity": 0.6299212598425197,
          "duration": 0.11672614550781191
        },
        {
          "name": "F#3",
          "midi": 54,
          "time": 52.20473050000016,
          "velocity": 0.6299212598425197,
          "duration": 0.11672614550781191
        },
        {
          "name": "C#3",
          "midi": 49,
          "time": 52.32284075000016,
          "velocity": 0.6299212598425197,
          "duration": 0.1111897275390632
        },
        {
          "name": "G#2",
          "midi": 44,
          "time": 52.44095100000016,
          "velocity": 0.6299212598425197,
          "duration": 0.11672614550781191
        },
        {
          "name": "G#3",
          "midi": 56,
          "time": 52.44095100000016,
          "velocity": 0.6299212598425197,
          "duration": 0.11672614550781191
        },
        {
          "name": "D#3",
          "midi": 51,
          "time": 52.55906125000016,
          "velocity": 0.6299212598425197,
          "duration": 0.1111897275390632
        },
        {
          "name": "C#3",
          "midi": 49,
          "time": 52.67717150000016,
          "velocity": 0.6299212598425197,
          "duration": 0.1111897275390632
        },
        {
          "name": "D#3",
          "midi": 51,
          "time": 52.795281750000164,
          "velocity": 0.6299212598425197,
          "duration": 0.1111897275390632
        },
        {
          "name": "B2",
          "midi": 47,
          "time": 52.913392000000165,
          "velocity": 0.6299212598425197,
          "duration": 0.1111897275390632
        },
        {
          "name": "D#3",
          "midi": 51,
          "time": 53.031502250000166,
          "velocity": 0.6299212598425197,
          "duration": 0.1111897275390632
        },
        {
          "name": "D#2",
          "midi": 39,
          "time": 53.14961250000017,
          "velocity": 0.6299212598425197,
          "duration": 0.23483639550781277
        },
        {
          "name": "D#3",
          "midi": 51,
          "time": 53.14961250000017,
          "velocity": 0.6299212598425197,
          "duration": 0.23483639550781277
        },
        {
          "name": "E2",
          "midi": 40,
          "time": 53.858274000000165,
          "velocity": 0.6299212598425197,
          "duration": 0.11672614550781191
        },
        {
          "name": "E3",
          "midi": 52,
          "time": 53.858274000000165,
          "velocity": 0.6299212598425197,
          "duration": 0.11672614550781191
        },
        {
          "name": "B2",
          "midi": 47,
          "time": 53.976384250000166,
          "velocity": 0.6299212598425197,
          "duration": 0.1111897275390632
        },
        {
          "name": "G#2",
          "midi": 44,
          "time": 54.09449450000017,
          "velocity": 0.6299212598425197,
          "duration": 0.1111897275390632
        },
        {
          "name": "E2",
          "midi": 40,
          "time": 54.21260475000017,
          "velocity": 0.6299212598425197,
          "duration": 0.11672614550781191
        },
        {
          "name": "E3",
          "midi": 52,
          "time": 54.21260475000017,
          "velocity": 0.6299212598425197,
          "duration": 0.11672614550781191
        },
        {
          "name": "B2",
          "midi": 47,
          "time": 54.33071500000017,
          "velocity": 0.6299212598425197,
          "duration": 0.1111897275390632
        },
        {
          "name": "G#2",
          "midi": 44,
          "time": 54.44882525000017,
          "velocity": 0.6299212598425197,
          "duration": 0.1111897275390632
        },
        {
          "name": "F#2",
          "midi": 42,
          "time": 54.56693550000017,
          "velocity": 0.6299212598425197,
          "duration": 0.11672614550781191
        },
        {
          "name": "F#3",
          "midi": 54,
          "time": 54.56693550000017,
          "velocity": 0.6299212598425197,
          "duration": 0.11672614550781191
        },
        {
          "name": "C#3",
          "midi": 49,
          "time": 54.68504575000017,
          "velocity": 0.6299212598425197,
          "duration": 0.1111897275390632
        },
        {
          "name": "F#2",
          "midi": 42,
          "time": 54.80315600000017,
          "velocity": 0.6299212598425197,
          "duration": 0.11672614550781191
        },
        {
          "name": "F#3",
          "midi": 54,
          "time": 54.80315600000017,
          "velocity": 0.6299212598425197,
          "duration": 0.11672614550781191
        },
        {
          "name": "C#3",
          "midi": 49,
          "time": 54.92126625000017,
          "velocity": 0.6299212598425197,
          "duration": 0.1111897275390632
        },
        {
          "name": "F#2",
          "midi": 42,
          "time": 55.039376500000174,
          "velocity": 0.6299212598425197,
          "duration": 0.11672614550781191
        },
        {
          "name": "F#3",
          "midi": 54,
          "time": 55.039376500000174,
          "velocity": 0.6299212598425197,
          "duration": 0.11672614550781191
        },
        {
          "name": "C#3",
          "midi": 49,
          "time": 55.157486750000174,
          "velocity": 0.6299212598425197,
          "duration": 0.1111897275390632
        },
        {
          "name": "G#2",
          "midi": 44,
          "time": 55.275597000000175,
          "velocity": 0.6299212598425197,
          "duration": 0.11672614550781191
        },
        {
          "name": "G#3",
          "midi": 56,
          "time": 55.275597000000175,
          "velocity": 0.6299212598425197,
          "duration": 0.11672614550781191
        },
        {
          "name": "D#3",
          "midi": 51,
          "time": 55.393707250000176,
          "velocity": 0.6299212598425197,
          "duration": 0.1111897275390632
        },
        {
          "name": "C#3",
          "midi": 49,
          "time": 55.51181750000018,
          "velocity": 0.6299212598425197,
          "duration": 0.1111897275390632
        },
        {
          "name": "D#3",
          "midi": 51,
          "time": 55.62992775000018,
          "velocity": 0.6299212598425197,
          "duration": 0.1111897275390632
        },
        {
          "name": "B2",
          "midi": 47,
          "time": 55.74803800000018,
          "velocity": 0.6299212598425197,
          "duration": 0.1111897275390632
        },
        {
          "name": "D#3",
          "midi": 51,
          "time": 55.86614825000018,
          "velocity": 0.6299212598425197,
          "duration": 0.1111897275390632
        },
        {
          "name": "D#2",
          "midi": 39,
          "time": 55.98425850000018,
          "velocity": 0.6299212598425197,
          "duration": 0.23483639550781277
        },
        {
          "name": "D#3",
          "midi": 51,
          "time": 55.98425850000018,
          "velocity": 0.6299212598425197,
          "duration": 0.23483639550781277
        },
        {
          "name": "E2",
          "midi": 40,
          "time": 56.69292000000018,
          "velocity": 0.6299212598425197,
          "duration": 0.11672614550781191
        },
        {
          "name": "E3",
          "midi": 52,
          "time": 56.69292000000018,
          "velocity": 0.6299212598425197,
          "duration": 0.11672614550781191
        },
        {
          "name": "B2",
          "midi": 47,
          "time": 56.81103025000018,
          "velocity": 0.6299212598425197,
          "duration": 0.1111897275390632
        },
        {
          "name": "G#2",
          "midi": 44,
          "time": 56.92914050000018,
          "velocity": 0.6299212598425197,
          "duration": 0.1111897275390632
        },
        {
          "name": "E2",
          "midi": 40,
          "time": 57.04725075000018,
          "velocity": 0.6299212598425197,
          "duration": 0.11672614550781191
        },
        {
          "name": "E3",
          "midi": 52,
          "time": 57.04725075000018,
          "velocity": 0.6299212598425197,
          "duration": 0.11672614550781191
        },
        {
          "name": "B2",
          "midi": 47,
          "time": 57.16536100000018,
          "velocity": 0.6299212598425197,
          "duration": 0.1111897275390632
        },
        {
          "name": "G#2",
          "midi": 44,
          "time": 57.28347125000018,
          "velocity": 0.6299212598425197,
          "duration": 0.1111897275390632
        },
        {
          "name": "F#2",
          "midi": 42,
          "time": 57.401581500000184,
          "velocity": 0.6299212598425197,
          "duration": 0.11672614550781191
        },
        {
          "name": "F#3",
          "midi": 54,
          "time": 57.401581500000184,
          "velocity": 0.6299212598425197,
          "duration": 0.11672614550781191
        },
        {
          "name": "C#3",
          "midi": 49,
          "time": 57.519691750000185,
          "velocity": 0.6299212598425197,
          "duration": 0.1111897275390632
        },
        {
          "name": "F#2",
          "midi": 42,
          "time": 57.637802000000185,
          "velocity": 0.6299212598425197,
          "duration": 0.11672614550781191
        },
        {
          "name": "F#3",
          "midi": 54,
          "time": 57.637802000000185,
          "velocity": 0.6299212598425197,
          "duration": 0.11672614550781191
        },
        {
          "name": "C#3",
          "midi": 49,
          "time": 57.755912250000186,
          "velocity": 0.6299212598425197,
          "duration": 0.1111897275390632
        },
        {
          "name": "F#2",
          "midi": 42,
          "time": 57.87402250000019,
          "velocity": 0.6299212598425197,
          "duration": 0.11672614550781191
        },
        {
          "name": "F#3",
          "midi": 54,
          "time": 57.87402250000019,
          "velocity": 0.6299212598425197,
          "duration": 0.11672614550781191
        },
        {
          "name": "C#3",
          "midi": 49,
          "time": 57.99213275000019,
          "velocity": 0.6299212598425197,
          "duration": 0.1111897275390632
        },
        {
          "name": "G#2",
          "midi": 44,
          "time": 58.11024300000019,
          "velocity": 0.6299212598425197,
          "duration": 0.11672614550781191
        },
        {
          "name": "G#3",
          "midi": 56,
          "time": 58.11024300000019,
          "velocity": 0.6299212598425197,
          "duration": 0.11672614550781191
        },
        {
          "name": "D#3",
          "midi": 51,
          "time": 58.22835325000019,
          "velocity": 0.6299212598425197,
          "duration": 0.1111897275390632
        },
        {
          "name": "C#3",
          "midi": 49,
          "time": 58.34646350000019,
          "velocity": 0.6299212598425197,
          "duration": 0.1111897275390632
        },
        {
          "name": "D#3",
          "midi": 51,
          "time": 58.46457375000019,
          "velocity": 0.6299212598425197,
          "duration": 0.1111897275390632
        },
        {
          "name": "B2",
          "midi": 47,
          "time": 58.58268400000019,
          "velocity": 0.6299212598425197,
          "duration": 0.1111897275390632
        },
        {
          "name": "D#3",
          "midi": 51,
          "time": 58.70079425000019,
          "velocity": 0.6299212598425197,
          "duration": 0.1111897275390632
        },
        {
          "name": "D#2",
          "midi": 39,
          "time": 58.818904500000194,
          "velocity": 0.6299212598425197,
          "duration": 0.23483639550781277
        },
        {
          "name": "D#3",
          "midi": 51,
          "time": 58.818904500000194,
          "velocity": 0.6299212598425197,
          "duration": 0.23483639550781277
        },
        {
          "name": "E2",
          "midi": 40,
          "time": 59.52756600000019,
          "velocity": 0.6299212598425197,
          "duration": 0.11672614550781191
        },
        {
          "name": "E3",
          "midi": 52,
          "time": 59.52756600000019,
          "velocity": 0.6299212598425197,
          "duration": 0.11672614550781191
        },
        {
          "name": "B2",
          "midi": 47,
          "time": 59.64567625000019,
          "velocity": 0.6299212598425197,
          "duration": 0.1111897275390632
        },
        {
          "name": "G#2",
          "midi": 44,
          "time": 59.763786500000194,
          "velocity": 0.6299212598425197,
          "duration": 0.1111897275390632
        },
        {
          "name": "E2",
          "midi": 40,
          "time": 59.881896750000195,
          "velocity": 0.6299212598425197,
          "duration": 0.11672614550781191
        },
        {
          "name": "E3",
          "midi": 52,
          "time": 59.881896750000195,
          "velocity": 0.6299212598425197,
          "duration": 0.11672614550781191
        },
        {
          "name": "B2",
          "midi": 47,
          "time": 60.000007000000195,
          "velocity": 0.6299212598425197,
          "duration": 0.1111897275390632
        },
        {
          "name": "G#2",
          "midi": 44,
          "time": 60.118117250000196,
          "velocity": 0.6299212598425197,
          "duration": 0.1111897275390632
        },
        {
          "name": "D#2",
          "midi": 39,
          "time": 60.2362275000002,
          "velocity": 0.6299212598425197,
          "duration": 0.11672614550781191
        },
        {
          "name": "D#3",
          "midi": 51,
          "time": 60.2362275000002,
          "velocity": 0.6299212598425197,
          "duration": 0.11672614550781191
        },
        {
          "name": "C#3",
          "midi": 49,
          "time": 60.3543377500002,
          "velocity": 0.6299212598425197,
          "duration": 0.1111897275390632
        },
        {
          "name": "D#2",
          "midi": 39,
          "time": 60.4724480000002,
          "velocity": 0.6299212598425197,
          "duration": 0.11672614550781191
        },
        {
          "name": "D#3",
          "midi": 51,
          "time": 60.4724480000002,
          "velocity": 0.6299212598425197,
          "duration": 0.11672614550781191
        },
        {
          "name": "C#3",
          "midi": 49,
          "time": 60.5905582500002,
          "velocity": 0.6299212598425197,
          "duration": 0.1111897275390632
        },
        {
          "name": "D#2",
          "midi": 39,
          "time": 60.7086685000002,
          "velocity": 0.6299212598425197,
          "duration": 0.11672614550781191
        },
        {
          "name": "D#3",
          "midi": 51,
          "time": 60.7086685000002,
          "velocity": 0.6299212598425197,
          "duration": 0.11672614550781191
        },
        {
          "name": "C#3",
          "midi": 49,
          "time": 60.8267787500002,
          "velocity": 0.6299212598425197,
          "duration": 0.1111897275390632
        },
        {
          "name": "G#1",
          "midi": 32,
          "time": 60.9448890000002,
          "velocity": 0.3937007874015748,
          "duration": 0.1111897275390632
        },
        {
          "name": "G#2",
          "midi": 44,
          "time": 60.9448890000002,
          "velocity": 0.5511811023622047,
          "duration": 0.1111897275390632
        },
        {
          "name": "D#3",
          "midi": 51,
          "time": 61.0629992500002,
          "velocity": 0.3937007874015748,
          "duration": 0.1111897275390632
        },
        {
          "name": "G#3",
          "midi": 56,
          "time": 61.181109500000204,
          "velocity": 0.3937007874015748,
          "duration": 0.1111897275390632
        },
        {
          "name": "G#1",
          "midi": 32,
          "time": 61.299219750000205,
          "velocity": 0.3937007874015748,
          "duration": 0.1111897275390632
        },
        {
          "name": "G#2",
          "midi": 44,
          "time": 61.299219750000205,
          "velocity": 0.5511811023622047,
          "duration": 0.1111897275390632
        },
        {
          "name": "D#3",
          "midi": 51,
          "time": 61.417330000000206,
          "velocity": 0.3937007874015748,
          "duration": 0.1111897275390632
        },
        {
          "name": "G#3",
          "midi": 56,
          "time": 61.53544025000021,
          "velocity": 0.3937007874015748,
          "duration": 0.1111897275390632
        },
        {
          "name": "C#1",
          "midi": 25,
          "time": 61.65355050000021,
          "velocity": 0.3937007874015748,
          "duration": 0.11672614550781191
        },
        {
          "name": "C#2",
          "midi": 37,
          "time": 61.65355050000021,
          "velocity": 0.5511811023622047,
          "duration": 0.11672614550781191
        },
        {
          "name": "D#1",
          "midi": 27,
          "time": 61.88977100000021,
          "velocity": 0.3937007874015748,
          "duration": 0.23483639550781277
        },
        {
          "name": "D#2",
          "midi": 39,
          "time": 61.88977100000021,
          "velocity": 0.5511811023622047,
          "duration": 0.23483639550781277
        },
        {
          "name": "D#1",
          "midi": 27,
          "time": 62.12599150000021,
          "velocity": 0.3937007874015748,
          "duration": 0.23483639550781277
        },
        {
          "name": "D#2",
          "midi": 39,
          "time": 62.12599150000021,
          "velocity": 0.5511811023622047,
          "duration": 0.23483639550781277
        },
        {
          "name": "G#1",
          "midi": 32,
          "time": 62.36221200000021,
          "velocity": 0.3937007874015748,
          "duration": 0.1111897275390632
        },
        {
          "name": "G#2",
          "midi": 44,
          "time": 62.36221200000021,
          "velocity": 0.5511811023622047,
          "duration": 0.1111897275390632
        },
        {
          "name": "D#3",
          "midi": 51,
          "time": 62.480322250000214,
          "velocity": 0.3937007874015748,
          "duration": 0.1111897275390632
        },
        {
          "name": "G#3",
          "midi": 56,
          "time": 62.598432500000214,
          "velocity": 0.3937007874015748,
          "duration": 0.1111897275390632
        },
        {
          "name": "G#1",
          "midi": 32,
          "time": 62.716542750000215,
          "velocity": 0.3937007874015748,
          "duration": 0.1111897275390632
        },
        {
          "name": "G#2",
          "midi": 44,
          "time": 62.716542750000215,
          "velocity": 0.5511811023622047,
          "duration": 0.1111897275390632
        },
        {
          "name": "D#3",
          "midi": 51,
          "time": 62.834653000000216,
          "velocity": 0.3937007874015748,
          "duration": 0.1111897275390632
        },
        {
          "name": "G#3",
          "midi": 56,
          "time": 62.95276325000022,
          "velocity": 0.3937007874015748,
          "duration": 0.1111897275390632
        },
        {
          "name": "C#1",
          "midi": 25,
          "time": 63.07087350000022,
          "velocity": 0.3937007874015748,
          "duration": 0.11672614550781191
        },
        {
          "name": "C#2",
          "midi": 37,
          "time": 63.07087350000022,
          "velocity": 0.5511811023622047,
          "duration": 0.11672614550781191
        },
        {
          "name": "D#1",
          "midi": 27,
          "time": 63.30709400000022,
          "velocity": 0.3937007874015748,
          "duration": 0.23483639550781277
        },
        {
          "name": "D#2",
          "midi": 39,
          "time": 63.30709400000022,
          "velocity": 0.5511811023622047,
          "duration": 0.23483639550781277
        },
        {
          "name": "D#1",
          "midi": 27,
          "time": 63.54331450000022,
          "velocity": 0.3937007874015748,
          "duration": 0.23483639550781277
        },
        {
          "name": "D#2",
          "midi": 39,
          "time": 63.54331450000022,
          "velocity": 0.5511811023622047,
          "duration": 0.23483639550781277
        },
        {
          "name": "G#1",
          "midi": 32,
          "time": 63.77953500000022,
          "velocity": 0.3937007874015748,
          "duration": 0.1111897275390632
        },
        {
          "name": "G#2",
          "midi": 44,
          "time": 63.77953500000022,
          "velocity": 0.5511811023622047,
          "duration": 0.1111897275390632
        },
        {
          "name": "D#3",
          "midi": 51,
          "time": 63.897645250000224,
          "velocity": 0.3937007874015748,
          "duration": 0.1111897275390561
        },
        {
          "name": "G#3",
          "midi": 56,
          "time": 64.01575550000021,
          "velocity": 0.3937007874015748,
          "duration": 0.1111897275390561
        },
        {
          "name": "G#1",
          "midi": 32,
          "time": 64.1338657500002,
          "velocity": 0.3937007874015748,
          "duration": 0.1111897275390561
        },
        {
          "name": "G#2",
          "midi": 44,
          "time": 64.1338657500002,
          "velocity": 0.5511811023622047,
          "duration": 0.1111897275390561
        },
        {
          "name": "D#3",
          "midi": 51,
          "time": 64.25197600000018,
          "velocity": 0.3937007874015748,
          "duration": 0.1111897275390561
        },
        {
          "name": "G#3",
          "midi": 56,
          "time": 64.37008625000017,
          "velocity": 0.3937007874015748,
          "duration": 0.1111897275390561
        },
        {
          "name": "C#1",
          "midi": 25,
          "time": 64.48819650000016,
          "velocity": 0.3937007874015748,
          "duration": 0.1111897275390561
        },
        {
          "name": "C#2",
          "midi": 37,
          "time": 64.48819650000016,
          "velocity": 0.5511811023622047,
          "duration": 0.1111897275390561
        },
        {
          "name": "G#2",
          "midi": 44,
          "time": 64.60630675000014,
          "velocity": 0.3937007874015748,
          "duration": 0.1111897275390561
        },
        {
          "name": "C#3",
          "midi": 49,
          "time": 64.72441700000013,
          "velocity": 0.3937007874015748,
          "duration": 0.1111897275390561
        },
        {
          "name": "C#1",
          "midi": 25,
          "time": 64.84252725000012,
          "velocity": 0.3937007874015748,
          "duration": 0.1111897275390561
        },
        {
          "name": "C#2",
          "midi": 37,
          "time": 64.84252725000012,
          "velocity": 0.5511811023622047,
          "duration": 0.1111897275390561
        },
        {
          "name": "G#2",
          "midi": 44,
          "time": 64.9606375000001,
          "velocity": 0.3937007874015748,
          "duration": 0.1111897275390561
        },
        {
          "name": "C#3",
          "midi": 49,
          "time": 65.07874775000009,
          "velocity": 0.3937007874015748,
          "duration": 0.1111897275390561
        },
        {
          "name": "D#1",
          "midi": 27,
          "time": 65.19685800000008,
          "velocity": 0.3937007874015748,
          "duration": 0.1111897275390561
        },
        {
          "name": "D#2",
          "midi": 39,
          "time": 65.19685800000008,
          "velocity": 0.5511811023622047,
          "duration": 0.1111897275390561
        },
        {
          "name": "A#2",
          "midi": 46,
          "time": 65.31496825000006,
          "velocity": 0.3937007874015748,
          "duration": 0.1111897275390561
        },
        {
          "name": "D#3",
          "midi": 51,
          "time": 65.43307850000005,
          "velocity": 0.3937007874015748,
          "duration": 0.1111897275390561
        },
        {
          "name": "D#1",
          "midi": 27,
          "time": 65.55118875000004,
          "velocity": 0.3937007874015748,
          "duration": 0.11672614550781191
        },
        {
          "name": "D#2",
          "midi": 39,
          "time": 65.55118875000004,
          "velocity": 0.5511811023622047,
          "duration": 0.11672614550781191
        },
        {
          "name": "D#1",
          "midi": 27,
          "time": 65.78740925000004,
          "velocity": 0.3937007874015748,
          "duration": 0.1111897275390561
        },
        {
          "name": "D#2",
          "midi": 39,
          "time": 65.78740925000004,
          "velocity": 0.5511811023622047,
          "duration": 0.1111897275390561
        },
        {
          "name": "E1",
          "midi": 28,
          "time": 65.90551950000003,
          "velocity": 0.3937007874015748,
          "duration": 0.23483639550781277
        },
        {
          "name": "E2",
          "midi": 40,
          "time": 65.90551950000003,
          "velocity": 0.5511811023622047,
          "duration": 0.23483639550781277
        },
        {
          "name": "E1",
          "midi": 28,
          "time": 66.14174000000003,
          "velocity": 0.3937007874015748,
          "duration": 0.23483639550781277
        },
        {
          "name": "E2",
          "midi": 40,
          "time": 66.14174000000003,
          "velocity": 0.5511811023622047,
          "duration": 0.23483639550781277
        },
        {
          "name": "D#1",
          "midi": 27,
          "time": 66.37796050000003,
          "velocity": 0.3937007874015748,
          "duration": 0.23483639550781277
        },
        {
          "name": "D#2",
          "midi": 39,
          "time": 66.37796050000003,
          "velocity": 0.5511811023622047,
          "duration": 0.23483639550781277
        },
        {
          "name": "G#1",
          "midi": 32,
          "time": 66.61418100000003,
          "velocity": 0.3937007874015748,
          "duration": 0.1111897275390561
        },
        {
          "name": "G#2",
          "midi": 44,
          "time": 66.61418100000003,
          "velocity": 0.5511811023622047,
          "duration": 0.1111897275390561
        },
        {
          "name": "D#3",
          "midi": 51,
          "time": 66.73229125000002,
          "velocity": 0.3937007874015748,
          "duration": 0.1111897275390561
        },
        {
          "name": "G#3",
          "midi": 56,
          "time": 66.8504015,
          "velocity": 0.3937007874015748,
          "duration": 0.1111897275390561
        },
        {
          "name": "G#1",
          "midi": 32,
          "time": 66.96851174999999,
          "velocity": 0.3937007874015748,
          "duration": 0.1111897275390561
        },
        {
          "name": "G#2",
          "midi": 44,
          "time": 66.96851174999999,
          "velocity": 0.5511811023622047,
          "duration": 0.1111897275390561
        },
        {
          "name": "D#3",
          "midi": 51,
          "time": 67.08662199999998,
          "velocity": 0.3937007874015748,
          "duration": 0.1111897275390561
        },
        {
          "name": "G#3",
          "midi": 56,
          "time": 67.20473224999996,
          "velocity": 0.3937007874015748,
          "duration": 0.1111897275390561
        },
        {
          "name": "C#1",
          "midi": 25,
          "time": 67.32284249999995,
          "velocity": 0.3937007874015748,
          "duration": 0.11672614550781191
        },
        {
          "name": "C#2",
          "midi": 37,
          "time": 67.32284249999995,
          "velocity": 0.5511811023622047,
          "duration": 0.11672614550781191
        },
        {
          "name": "D#1",
          "midi": 27,
          "time": 67.55906299999995,
          "velocity": 0.3937007874015748,
          "duration": 0.23483639550781277
        },
        {
          "name": "D#2",
          "midi": 39,
          "time": 67.55906299999995,
          "velocity": 0.5511811023622047,
          "duration": 0.23483639550781277
        },
        {
          "name": "D#1",
          "midi": 27,
          "time": 67.79528349999995,
          "velocity": 0.3937007874015748,
          "duration": 0.23483639550781277
        },
        {
          "name": "D#2",
          "midi": 39,
          "time": 67.79528349999995,
          "velocity": 0.5511811023622047,
          "duration": 0.23483639550781277
        },
        {
          "name": "G#1",
          "midi": 32,
          "time": 68.03150399999996,
          "velocity": 0.3937007874015748,
          "duration": 0.1111897275390561
        },
        {
          "name": "G#2",
          "midi": 44,
          "time": 68.03150399999996,
          "velocity": 0.5511811023622047,
          "duration": 0.1111897275390561
        },
        {
          "name": "D#3",
          "midi": 51,
          "time": 68.14961424999994,
          "velocity": 0.3937007874015748,
          "duration": 0.1111897275390561
        },
        {
          "name": "G#3",
          "midi": 56,
          "time": 68.26772449999993,
          "velocity": 0.3937007874015748,
          "duration": 0.1111897275390561
        },
        {
          "name": "G#1",
          "midi": 32,
          "time": 68.38583474999992,
          "velocity": 0.3937007874015748,
          "duration": 0.1111897275390561
        },
        {
          "name": "G#2",
          "midi": 44,
          "time": 68.38583474999992,
          "velocity": 0.5511811023622047,
          "duration": 0.1111897275390561
        },
        {
          "name": "D#3",
          "midi": 51,
          "time": 68.5039449999999,
          "velocity": 0.3937007874015748,
          "duration": 0.1111897275390561
        },
        {
          "name": "G#3",
          "midi": 56,
          "time": 68.62205524999989,
          "velocity": 0.3937007874015748,
          "duration": 0.1111897275390561
        },
        {
          "name": "C#1",
          "midi": 25,
          "time": 68.74016549999988,
          "velocity": 0.3937007874015748,
          "duration": 0.11672614550781191
        },
        {
          "name": "C#2",
          "midi": 37,
          "time": 68.74016549999988,
          "velocity": 0.5511811023622047,
          "duration": 0.11672614550781191
        },
        {
          "name": "D#1",
          "midi": 27,
          "time": 68.97638599999988,
          "velocity": 0.3937007874015748,
          "duration": 0.23483639550781277
        },
        {
          "name": "D#2",
          "midi": 39,
          "time": 68.97638599999988,
          "velocity": 0.5511811023622047,
          "duration": 0.23483639550781277
        },
        {
          "name": "D#1",
          "midi": 27,
          "time": 69.21260649999988,
          "velocity": 0.3937007874015748,
          "duration": 0.23483639550781277
        },
        {
          "name": "D#2",
          "midi": 39,
          "time": 69.21260649999988,
          "velocity": 0.5511811023622047,
          "duration": 0.23483639550781277
        },
        {
          "name": "G#1",
          "midi": 32,
          "time": 69.44882699999988,
          "velocity": 0.3937007874015748,
          "duration": 0.1111897275390561
        },
        {
          "name": "G#2",
          "midi": 44,
          "time": 69.44882699999988,
          "velocity": 0.5511811023622047,
          "duration": 0.1111897275390561
        },
        {
          "name": "D#3",
          "midi": 51,
          "time": 69.56693724999987,
          "velocity": 0.3937007874015748,
          "duration": 0.1111897275390561
        },
        {
          "name": "G#3",
          "midi": 56,
          "time": 69.68504749999985,
          "velocity": 0.3937007874015748,
          "duration": 0.1111897275390561
        },
        {
          "name": "G#1",
          "midi": 32,
          "time": 69.80315774999984,
          "velocity": 0.3937007874015748,
          "duration": 0.1111897275390561
        },
        {
          "name": "G#2",
          "midi": 44,
          "time": 69.80315774999984,
          "velocity": 0.5511811023622047,
          "duration": 0.1111897275390561
        },
        {
          "name": "D#3",
          "midi": 51,
          "time": 69.92126799999983,
          "velocity": 0.3937007874015748,
          "duration": 0.1111897275390561
        },
        {
          "name": "G#3",
          "midi": 56,
          "time": 70.03937824999981,
          "velocity": 0.3937007874015748,
          "duration": 0.1111897275390561
        },
        {
          "name": "C#1",
          "midi": 25,
          "time": 70.1574884999998,
          "velocity": 0.3937007874015748,
          "duration": 0.1111897275390561
        },
        {
          "name": "C#2",
          "midi": 37,
          "time": 70.1574884999998,
          "velocity": 0.5511811023622047,
          "duration": 0.1111897275390561
        },
        {
          "name": "G#2",
          "midi": 44,
          "time": 70.27559874999979,
          "velocity": 0.3937007874015748,
          "duration": 0.1111897275390561
        },
        {
          "name": "C#3",
          "midi": 49,
          "time": 70.39370899999977,
          "velocity": 0.3937007874015748,
          "duration": 0.1111897275390561
        },
        {
          "name": "C#1",
          "midi": 25,
          "time": 70.51181924999976,
          "velocity": 0.3937007874015748,
          "duration": 0.1111897275390561
        },
        {
          "name": "C#2",
          "midi": 37,
          "time": 70.51181924999976,
          "velocity": 0.5511811023622047,
          "duration": 0.1111897275390561
        },
        {
          "name": "G#2",
          "midi": 44,
          "time": 70.62992949999975,
          "velocity": 0.3937007874015748,
          "duration": 0.1111897275390561
        },
        {
          "name": "C#3",
          "midi": 49,
          "time": 70.74803974999973,
          "velocity": 0.3937007874015748,
          "duration": 0.1111897275390561
        },
        {
          "name": "D#1",
          "midi": 27,
          "time": 70.86614999999972,
          "velocity": 0.3937007874015748,
          "duration": 0.1111897275390561
        },
        {
          "name": "D#2",
          "midi": 39,
          "time": 70.86614999999972,
          "velocity": 0.5511811023622047,
          "duration": 0.1111897275390561
        },
        {
          "name": "A#2",
          "midi": 46,
          "time": 70.9842602499997,
          "velocity": 0.3937007874015748,
          "duration": 0.1111897275390561
        },
        {
          "name": "D#3",
          "midi": 51,
          "time": 71.1023704999997,
          "velocity": 0.3937007874015748,
          "duration": 0.1111897275390561
        },
        {
          "name": "D#1",
          "midi": 27,
          "time": 71.22048074999968,
          "velocity": 0.3937007874015748,
          "duration": 0.11672614550781191
        },
        {
          "name": "D#2",
          "midi": 39,
          "time": 71.22048074999968,
          "velocity": 0.5511811023622047,
          "duration": 0.11672614550781191
        },
        {
          "name": "D#1",
          "midi": 27,
          "time": 71.45670124999968,
          "velocity": 0.3937007874015748,
          "duration": 0.1111897275390561
        },
        {
          "name": "D#2",
          "midi": 39,
          "time": 71.45670124999968,
          "velocity": 0.5511811023622047,
          "duration": 0.1111897275390561
        },
        {
          "name": "E1",
          "midi": 28,
          "time": 71.57481149999967,
          "velocity": 0.47244094488188976,
          "duration": 0.23483639550781277
        },
        {
          "name": "E2",
          "midi": 40,
          "time": 71.57481149999967,
          "velocity": 0.5511811023622047,
          "duration": 0.23483639550781277
        },
        {
          "name": "E3",
          "midi": 52,
          "time": 71.57481149999967,
          "velocity": 0.3937007874015748,
          "duration": 0.23483639550781277
        },
        {
          "name": "E1",
          "midi": 28,
          "time": 71.81103199999967,
          "velocity": 0.47244094488188976,
          "duration": 0.23483639550781277
        },
        {
          "name": "E2",
          "midi": 40,
          "time": 71.81103199999967,
          "velocity": 0.5511811023622047,
          "duration": 0.23483639550781277
        },
        {
          "name": "E3",
          "midi": 52,
          "time": 71.81103199999967,
          "velocity": 0.3937007874015748,
          "duration": 0.23483639550781277
        },
        {
          "name": "D#1",
          "midi": 27,
          "time": 72.04725249999967,
          "velocity": 0.47244094488188976,
          "duration": 0.23483639550781277
        },
        {
          "name": "D#2",
          "midi": 39,
          "time": 72.04725249999967,
          "velocity": 0.5511811023622047,
          "duration": 0.23483639550781277
        },
        {
          "name": "D#3",
          "midi": 51,
          "time": 72.04725249999967,
          "velocity": 0.3937007874015748,
          "duration": 0.23483639550781277
        },
        {
          "name": "G#3",
          "midi": 56,
          "time": 72.28347299999967,
          "velocity": 0.6299212598425197,
          "duration": 0.11672614550781191
        },
        {
          "name": "G#2",
          "midi": 44,
          "time": 72.28347299999967,
          "velocity": 0.6299212598425197,
          "duration": 0.11672614550781191
        },
        {
          "name": "D#3",
          "midi": 51,
          "time": 72.40158324999967,
          "velocity": 0.6299212598425197,
          "duration": 0.1111897275390561
        },
        {
          "name": "C#3",
          "midi": 49,
          "time": 72.51969349999966,
          "velocity": 0.6299212598425197,
          "duration": 0.1111897275390561
        },
        {
          "name": "D#3",
          "midi": 51,
          "time": 72.63780374999965,
          "velocity": 0.6299212598425197,
          "duration": 0.1111897275390561
        },
        {
          "name": "B2",
          "midi": 47,
          "time": 72.75591399999963,
          "velocity": 0.6299212598425197,
          "duration": 0.1111897275390561
        },
        {
          "name": "D#3",
          "midi": 51,
          "time": 72.87402424999962,
          "velocity": 0.6299212598425197,
          "duration": 0.1111897275390561
        },
        {
          "name": "D#3",
          "midi": 51,
          "time": 72.99213449999961,
          "velocity": 0.6299212598425197,
          "duration": 0.23483639550781277
        },
        {
          "name": "D#2",
          "midi": 39,
          "time": 72.99213449999961,
          "velocity": 0.6299212598425197,
          "duration": 0.23483639550781277
        },
        {
          "name": "E3",
          "midi": 52,
          "time": 73.70079599999961,
          "velocity": 0.6299212598425197,
          "duration": 0.11672614550781191
        },
        {
          "name": "E2",
          "midi": 40,
          "time": 73.70079599999961,
          "velocity": 0.6299212598425197,
          "duration": 0.11672614550781191
        },
        {
          "name": "B2",
          "midi": 47,
          "time": 73.81890624999961,
          "velocity": 0.6299212598425197,
          "duration": 0.1111897275390561
        },
        {
          "name": "G#2",
          "midi": 44,
          "time": 73.9370164999996,
          "velocity": 0.6299212598425197,
          "duration": 0.1111897275390561
        },
        {
          "name": "E3",
          "midi": 52,
          "time": 74.05512674999959,
          "velocity": 0.6299212598425197,
          "duration": 0.11672614550781191
        },
        {
          "name": "E2",
          "midi": 40,
          "time": 74.05512674999959,
          "velocity": 0.6299212598425197,
          "duration": 0.11672614550781191
        },
        {
          "name": "B2",
          "midi": 47,
          "time": 74.17323699999959,
          "velocity": 0.6299212598425197,
          "duration": 0.1111897275390561
        },
        {
          "name": "G#2",
          "midi": 44,
          "time": 74.29134724999957,
          "velocity": 0.6299212598425197,
          "duration": 0.1111897275390561
        },
        {
          "name": "F#3",
          "midi": 54,
          "time": 74.40945749999956,
          "velocity": 0.6299212598425197,
          "duration": 0.11672614550781191
        },
        {
          "name": "F#2",
          "midi": 42,
          "time": 74.40945749999956,
          "velocity": 0.6299212598425197,
          "duration": 0.11672614550781191
        },
        {
          "name": "C#3",
          "midi": 49,
          "time": 74.52756774999956,
          "velocity": 0.6299212598425197,
          "duration": 0.1111897275390561
        },
        {
          "name": "F#3",
          "midi": 54,
          "time": 74.64567799999955,
          "velocity": 0.6299212598425197,
          "duration": 0.11672614550781191
        },
        {
          "name": "F#2",
          "midi": 42,
          "time": 74.64567799999955,
          "velocity": 0.6299212598425197,
          "duration": 0.11672614550781191
        },
        {
          "name": "C#3",
          "midi": 49,
          "time": 74.76378824999955,
          "velocity": 0.6299212598425197,
          "duration": 0.1111897275390561
        },
        {
          "name": "F#3",
          "midi": 54,
          "time": 74.88189849999954,
          "velocity": 0.6299212598425197,
          "duration": 0.11672614550781191
        },
        {
          "name": "F#2",
          "midi": 42,
          "time": 74.88189849999954,
          "velocity": 0.6299212598425197,
          "duration": 0.11672614550781191
        },
        {
          "name": "C#3",
          "midi": 49,
          "time": 75.00000874999954,
          "velocity": 0.6299212598425197,
          "duration": 0.1111897275390561
        },
        {
          "name": "G#3",
          "midi": 56,
          "time": 75.11811899999952,
          "velocity": 0.6299212598425197,
          "duration": 0.11672614550781191
        },
        {
          "name": "G#2",
          "midi": 44,
          "time": 75.11811899999952,
          "velocity": 0.6299212598425197,
          "duration": 0.11672614550781191
        },
        {
          "name": "D#3",
          "midi": 51,
          "time": 75.23622924999952,
          "velocity": 0.6299212598425197,
          "duration": 0.1111897275390561
        },
        {
          "name": "C#3",
          "midi": 49,
          "time": 75.35433949999951,
          "velocity": 0.6299212598425197,
          "duration": 0.1111897275390561
        },
        {
          "name": "D#3",
          "midi": 51,
          "time": 75.4724497499995,
          "velocity": 0.6299212598425197,
          "duration": 0.1111897275390561
        },
        {
          "name": "B2",
          "midi": 47,
          "time": 75.59055999999948,
          "velocity": 0.6299212598425197,
          "duration": 0.1111897275390561
        },
        {
          "name": "D#3",
          "midi": 51,
          "time": 75.70867024999947,
          "velocity": 0.6299212598425197,
          "duration": 0.1111897275390561
        },
        {
          "name": "D#3",
          "midi": 51,
          "time": 75.82678049999946,
          "velocity": 0.6299212598425197,
          "duration": 0.23483639550781277
        },
        {
          "name": "D#2",
          "midi": 39,
          "time": 75.82678049999946,
          "velocity": 0.6299212598425197,
          "duration": 0.23483639550781277
        },
        {
          "name": "E3",
          "midi": 52,
          "time": 76.53544199999946,
          "velocity": 0.6299212598425197,
          "duration": 0.11672614550781191
        },
        {
          "name": "E2",
          "midi": 40,
          "time": 76.53544199999946,
          "velocity": 0.6299212598425197,
          "duration": 0.11672614550781191
        },
        {
          "name": "B2",
          "midi": 47,
          "time": 76.65355224999946,
          "velocity": 0.6299212598425197,
          "duration": 0.1111897275390561
        },
        {
          "name": "G#2",
          "midi": 44,
          "time": 76.77166249999945,
          "velocity": 0.6299212598425197,
          "duration": 0.1111897275390561
        },
        {
          "name": "E3",
          "midi": 52,
          "time": 76.88977274999944,
          "velocity": 0.6299212598425197,
          "duration": 0.11672614550781191
        },
        {
          "name": "E2",
          "midi": 40,
          "time": 76.88977274999944,
          "velocity": 0.6299212598425197,
          "duration": 0.11672614550781191
        },
        {
          "name": "B2",
          "midi": 47,
          "time": 77.00788299999944,
          "velocity": 0.6299212598425197,
          "duration": 0.1111897275390561
        },
        {
          "name": "G#2",
          "midi": 44,
          "time": 77.12599324999942,
          "velocity": 0.6299212598425197,
          "duration": 0.1111897275390561
        },
        {
          "name": "F#3",
          "midi": 54,
          "time": 77.24410349999941,
          "velocity": 0.6299212598425197,
          "duration": 0.11672614550781191
        },
        {
          "name": "F#2",
          "midi": 42,
          "time": 77.24410349999941,
          "velocity": 0.6299212598425197,
          "duration": 0.11672614550781191
        },
        {
          "name": "C#3",
          "midi": 49,
          "time": 77.36221374999941,
          "velocity": 0.6299212598425197,
          "duration": 0.1111897275390561
        },
        {
          "name": "F#3",
          "midi": 54,
          "time": 77.4803239999994,
          "velocity": 0.6299212598425197,
          "duration": 0.11672614550781191
        },
        {
          "name": "F#2",
          "midi": 42,
          "time": 77.4803239999994,
          "velocity": 0.6299212598425197,
          "duration": 0.11672614550781191
        },
        {
          "name": "C#3",
          "midi": 49,
          "time": 77.5984342499994,
          "velocity": 0.6299212598425197,
          "duration": 0.1111897275390561
        },
        {
          "name": "F#3",
          "midi": 54,
          "time": 77.71654449999939,
          "velocity": 0.6299212598425197,
          "duration": 0.11672614550781191
        },
        {
          "name": "F#2",
          "midi": 42,
          "time": 77.71654449999939,
          "velocity": 0.6299212598425197,
          "duration": 0.11672614550781191
        },
        {
          "name": "C#3",
          "midi": 49,
          "time": 77.83465474999939,
          "velocity": 0.6299212598425197,
          "duration": 0.1111897275390561
        },
        {
          "name": "G#3",
          "midi": 56,
          "time": 77.95276499999937,
          "velocity": 0.6299212598425197,
          "duration": 0.11672614550781191
        },
        {
          "name": "G#2",
          "midi": 44,
          "time": 77.95276499999937,
          "velocity": 0.6299212598425197,
          "duration": 0.11672614550781191
        },
        {
          "name": "D#3",
          "midi": 51,
          "time": 78.07087524999938,
          "velocity": 0.6299212598425197,
          "duration": 0.1111897275390561
        },
        {
          "name": "C#3",
          "midi": 49,
          "time": 78.18898549999936,
          "velocity": 0.6299212598425197,
          "duration": 0.1111897275390561
        },
        {
          "name": "D#3",
          "midi": 51,
          "time": 78.30709574999935,
          "velocity": 0.6299212598425197,
          "duration": 0.1111897275390561
        },
        {
          "name": "B2",
          "midi": 47,
          "time": 78.42520599999933,
          "velocity": 0.6299212598425197,
          "duration": 0.1111897275390561
        },
        {
          "name": "D#3",
          "midi": 51,
          "time": 78.54331624999932,
          "velocity": 0.6299212598425197,
          "duration": 0.1111897275390561
        },
        {
          "name": "D#3",
          "midi": 51,
          "time": 78.66142649999931,
          "velocity": 0.6299212598425197,
          "duration": 0.23483639550781277
        },
        {
          "name": "D#2",
          "midi": 39,
          "time": 78.66142649999931,
          "velocity": 0.6299212598425197,
          "duration": 0.23483639550781277
        },
        {
          "name": "E3",
          "midi": 52,
          "time": 79.37008799999931,
          "velocity": 0.6299212598425197,
          "duration": 0.11672614550781191
        },
        {
          "name": "E2",
          "midi": 40,
          "time": 79.37008799999931,
          "velocity": 0.6299212598425197,
          "duration": 0.11672614550781191
        },
        {
          "name": "B2",
          "midi": 47,
          "time": 79.48819824999931,
          "velocity": 0.6299212598425197,
          "duration": 0.1111897275390561
        },
        {
          "name": "G#2",
          "midi": 44,
          "time": 79.6063084999993,
          "velocity": 0.6299212598425197,
          "duration": 0.1111897275390561
        },
        {
          "name": "E3",
          "midi": 52,
          "time": 79.72441874999929,
          "velocity": 0.6299212598425197,
          "duration": 0.11672614550781191
        },
        {
          "name": "E2",
          "midi": 40,
          "time": 79.72441874999929,
          "velocity": 0.6299212598425197,
          "duration": 0.11672614550781191
        },
        {
          "name": "B2",
          "midi": 47,
          "time": 79.84252899999929,
          "velocity": 0.6299212598425197,
          "duration": 0.1111897275390561
        },
        {
          "name": "G#2",
          "midi": 44,
          "time": 79.96063924999928,
          "velocity": 0.6299212598425197,
          "duration": 0.1111897275390561
        },
        {
          "name": "F#3",
          "midi": 54,
          "time": 80.07874949999926,
          "velocity": 0.6299212598425197,
          "duration": 0.11672614550781191
        },
        {
          "name": "F#2",
          "midi": 42,
          "time": 80.07874949999926,
          "velocity": 0.6299212598425197,
          "duration": 0.11672614550781191
        },
        {
          "name": "C#3",
          "midi": 49,
          "time": 80.19685974999926,
          "velocity": 0.6299212598425197,
          "duration": 0.1111897275390561
        },
        {
          "name": "F#3",
          "midi": 54,
          "time": 80.31496999999925,
          "velocity": 0.6299212598425197,
          "duration": 0.11672614550781191
        },
        {
          "name": "F#2",
          "midi": 42,
          "time": 80.31496999999925,
          "velocity": 0.6299212598425197,
          "duration": 0.11672614550781191
        },
        {
          "name": "C#3",
          "midi": 49,
          "time": 80.43308024999925,
          "velocity": 0.6299212598425197,
          "duration": 0.1111897275390561
        },
        {
          "name": "F#3",
          "midi": 54,
          "time": 80.55119049999924,
          "velocity": 0.6299212598425197,
          "duration": 0.11672614550781191
        },
        {
          "name": "F#2",
          "midi": 42,
          "time": 80.55119049999924,
          "velocity": 0.6299212598425197,
          "duration": 0.11672614550781191
        },
        {
          "name": "C#3",
          "midi": 49,
          "time": 80.66930074999924,
          "velocity": 0.6299212598425197,
          "duration": 0.1111897275390561
        },
        {
          "name": "G#3",
          "midi": 56,
          "time": 80.78741099999922,
          "velocity": 0.6299212598425197,
          "duration": 0.11672614550781191
        },
        {
          "name": "G#2",
          "midi": 44,
          "time": 80.78741099999922,
          "velocity": 0.6299212598425197,
          "duration": 0.11672614550781191
        },
        {
          "name": "D#3",
          "midi": 51,
          "time": 80.90552124999923,
          "velocity": 0.6299212598425197,
          "duration": 0.1111897275390561
        },
        {
          "name": "C#3",
          "midi": 49,
          "time": 81.02363149999921,
          "velocity": 0.6299212598425197,
          "duration": 0.1111897275390561
        },
        {
          "name": "D#3",
          "midi": 51,
          "time": 81.1417417499992,
          "velocity": 0.6299212598425197,
          "duration": 0.1111897275390561
        },
        {
          "name": "B2",
          "midi": 47,
          "time": 81.25985199999919,
          "velocity": 0.6299212598425197,
          "duration": 0.1111897275390561
        },
        {
          "name": "D#3",
          "midi": 51,
          "time": 81.37796224999917,
          "velocity": 0.6299212598425197,
          "duration": 0.1111897275390561
        },
        {
          "name": "D#3",
          "midi": 51,
          "time": 81.49607249999916,
          "velocity": 0.6299212598425197,
          "duration": 0.23483639550781277
        },
        {
          "name": "D#2",
          "midi": 39,
          "time": 81.49607249999916,
          "velocity": 0.6299212598425197,
          "duration": 0.23483639550781277
        },
        {
          "name": "E3",
          "midi": 52,
          "time": 82.20473399999916,
          "velocity": 0.6299212598425197,
          "duration": 0.11672614550781191
        },
        {
          "name": "E2",
          "midi": 40,
          "time": 82.20473399999916,
          "velocity": 0.6299212598425197,
          "duration": 0.11672614550781191
        },
        {
          "name": "B2",
          "midi": 47,
          "time": 82.32284424999916,
          "velocity": 0.6299212598425197,
          "duration": 0.1111897275390561
        },
        {
          "name": "G#2",
          "midi": 44,
          "time": 82.44095449999915,
          "velocity": 0.6299212598425197,
          "duration": 0.1111897275390561
        },
        {
          "name": "E3",
          "midi": 52,
          "time": 82.55906474999914,
          "velocity": 0.6299212598425197,
          "duration": 0.11672614550781191
        },
        {
          "name": "E2",
          "midi": 40,
          "time": 82.55906474999914,
          "velocity": 0.6299212598425197,
          "duration": 0.11672614550781191
        },
        {
          "name": "B2",
          "midi": 47,
          "time": 82.67717499999914,
          "velocity": 0.6299212598425197,
          "duration": 0.1111897275390561
        },
        {
          "name": "G#2",
          "midi": 44,
          "time": 82.79528524999913,
          "velocity": 0.6299212598425197,
          "duration": 0.1111897275390561
        },
        {
          "name": "D#3",
          "midi": 51,
          "time": 82.91339549999911,
          "velocity": 0.6299212598425197,
          "duration": 0.11672614550781191
        },
        {
          "name": "D#2",
          "midi": 39,
          "time": 82.91339549999911,
          "velocity": 0.6299212598425197,
          "duration": 0.11672614550781191
        },
        {
          "name": "C#3",
          "midi": 49,
          "time": 83.03150574999911,
          "velocity": 0.6299212598425197,
          "duration": 0.1111897275390561
        },
        {
          "name": "D#3",
          "midi": 51,
          "time": 83.1496159999991,
          "velocity": 0.6299212598425197,
          "duration": 0.11672614550781191
        },
        {
          "name": "D#2",
          "midi": 39,
          "time": 83.1496159999991,
          "velocity": 0.6299212598425197,
          "duration": 0.11672614550781191
        },
        {
          "name": "C#3",
          "midi": 49,
          "time": 83.2677262499991,
          "velocity": 0.6299212598425197,
          "duration": 0.1111897275390561
        },
        {
          "name": "D#3",
          "midi": 51,
          "time": 83.38583649999909,
          "velocity": 0.6299212598425197,
          "duration": 0.11672614550781191
        },
        {
          "name": "D#2",
          "midi": 39,
          "time": 83.38583649999909,
          "velocity": 0.6299212598425197,
          "duration": 0.11672614550781191
        },
        {
          "name": "C#3",
          "midi": 49,
          "time": 83.50394674999909,
          "velocity": 0.6299212598425197,
          "duration": 0.1111897275390561
        },
        {
          "name": "G#2",
          "midi": 44,
          "time": 83.62205699999907,
          "velocity": 0.7480314960629921,
          "duration": 0.1536355986328175
        },
        {
          "name": "D#3",
          "midi": 51,
          "time": 83.62205699999907,
          "velocity": 0.5511811023622047,
          "duration": 1.4173229999999961
        },
        {
          "name": "G#2",
          "midi": 44,
          "time": 83.98884469042876,
          "velocity": 0.7480314960629921,
          "duration": 0.13933318554687446
        },
        {
          "name": "G#2",
          "midi": 44,
          "time": 84.34132996777251,
          "velocity": 0.7480314960629921,
          "duration": 0.09319636914062812
        },
        {
          "name": "G#2",
          "midi": 44,
          "time": 84.57662773144439,
          "velocity": 0.7480314960629921,
          "duration": 0.0848917421874944
        },
        {
          "name": "G#2",
          "midi": 44,
          "time": 84.80362086816314,
          "velocity": 0.7480314960629921,
          "duration": 0.09365773730468163
        },
        {
          "name": "C#3",
          "midi": 49,
          "time": 85.03937999999907,
          "velocity": 0.5511811023622047,
          "duration": 1.4173229999999961
        },
        {
          "name": "F#2",
          "midi": 42,
          "time": 85.03937999999907,
          "velocity": 0.7480314960629921,
          "duration": 0.1536355986328175
        },
        {
          "name": "F#2",
          "midi": 42,
          "time": 85.40616769042876,
          "velocity": 0.7480314960629921,
          "duration": 0.13933318554687446
        },
        {
          "name": "F#2",
          "midi": 42,
          "time": 85.7586529677725,
          "velocity": 0.7480314960629921,
          "duration": 0.09319636914062812
        },
        {
          "name": "F#2",
          "midi": 42,
          "time": 85.99395073144439,
          "velocity": 0.7480314960629921,
          "duration": 0.0848917421874944
        },
        {
          "name": "F#2",
          "midi": 42,
          "time": 86.22094386816313,
          "velocity": 0.7480314960629921,
          "duration": 0.09365773730468163
        },
        {
          "name": "G#2",
          "midi": 44,
          "time": 86.45670299999907,
          "velocity": 0.7480314960629921,
          "duration": 0.1536355986328175
        },
        {
          "name": "D#3",
          "midi": 51,
          "time": 86.45670299999907,
          "velocity": 0.5511811023622047,
          "duration": 1.4173229999999961
        },
        {
          "name": "G#2",
          "midi": 44,
          "time": 86.82349069042876,
          "velocity": 0.7480314960629921,
          "duration": 0.13933318554687446
        },
        {
          "name": "G#2",
          "midi": 44,
          "time": 87.1759759677725,
          "velocity": 0.7480314960629921,
          "duration": 0.09319636914062812
        },
        {
          "name": "G#2",
          "midi": 44,
          "time": 87.41127373144438,
          "velocity": 0.7480314960629921,
          "duration": 0.0848917421874944
        },
        {
          "name": "G#2",
          "midi": 44,
          "time": 87.63826686816313,
          "velocity": 0.7480314960629921,
          "duration": 0.09365773730468163
        },
        {
          "name": "D#2",
          "midi": 39,
          "time": 87.87402599999906,
          "velocity": 0.7480314960629921,
          "duration": 0.1536355986328175
        },
        {
          "name": "C#3",
          "midi": 49,
          "time": 87.87402599999906,
          "velocity": 0.47244094488188976,
          "duration": 1.4173229999999961
        },
        {
          "name": "F#3",
          "midi": 54,
          "time": 87.87402599999906,
          "velocity": 0.5511811023622047,
          "duration": 1.4173229999999961
        },
        {
          "name": "D#2",
          "midi": 39,
          "time": 88.24081369042875,
          "velocity": 0.7480314960629921,
          "duration": 0.13933318554687446
        },
        {
          "name": "F#2",
          "midi": 42,
          "time": 88.5932989677725,
          "velocity": 0.7480314960629921,
          "duration": 0.09319636914062812
        },
        {
          "name": "F#2",
          "midi": 42,
          "time": 88.82859673144438,
          "velocity": 0.7480314960629921,
          "duration": 0.0848917421874944
        },
        {
          "name": "F#2",
          "midi": 42,
          "time": 89.05558986816312,
          "velocity": 0.7480314960629921,
          "duration": 0.09365773730468163
        },
        {
          "name": "E2",
          "midi": 40,
          "time": 89.29134899999906,
          "velocity": 0.7480314960629921,
          "duration": 0.1536355986328175
        },
        {
          "name": "B2",
          "midi": 47,
          "time": 89.29134899999906,
          "velocity": 0.5511811023622047,
          "duration": 1.4173229999999961
        },
        {
          "name": "E2",
          "midi": 40,
          "time": 89.65813669042875,
          "velocity": 0.7480314960629921,
          "duration": 0.13933318554687446
        },
        {
          "name": "E2",
          "midi": 40,
          "time": 90.0106219677725,
          "velocity": 0.7480314960629921,
          "duration": 0.09319636914062812
        },
        {
          "name": "E2",
          "midi": 40,
          "time": 90.24591973144437,
          "velocity": 0.7480314960629921,
          "duration": 0.0848917421874944
        },
        {
          "name": "E2",
          "midi": 40,
          "time": 90.47291286816312,
          "velocity": 0.7480314960629921,
          "duration": 0.09365773730468163
        },
        {
          "name": "F#2",
          "midi": 42,
          "time": 90.70867199999905,
          "velocity": 0.7480314960629921,
          "duration": 0.1536355986328175
        },
        {
          "name": "C#3",
          "midi": 49,
          "time": 90.70867199999905,
          "velocity": 0.5511811023622047,
          "duration": 1.4173229999999961
        },
        {
          "name": "F#2",
          "midi": 42,
          "time": 91.07545969042874,
          "velocity": 0.7480314960629921,
          "duration": 0.13933318554687446
        },
        {
          "name": "F#2",
          "midi": 42,
          "time": 91.42794496777249,
          "velocity": 0.7480314960629921,
          "duration": 0.09319636914062812
        },
        {
          "name": "F#2",
          "midi": 42,
          "time": 91.66324273144437,
          "velocity": 0.7480314960629921,
          "duration": 0.0848917421874944
        },
        {
          "name": "F#2",
          "midi": 42,
          "time": 91.89023586816312,
          "velocity": 0.7480314960629921,
          "duration": 0.09365773730468163
        },
        {
          "name": "G#2",
          "midi": 44,
          "time": 92.12599499999905,
          "velocity": 0.7480314960629921,
          "duration": 0.1536355986328175
        },
        {
          "name": "D#3",
          "midi": 51,
          "time": 92.12599499999905,
          "velocity": 0.5511811023622047,
          "duration": 1.4173229999999961
        },
        {
          "name": "G#2",
          "midi": 44,
          "time": 92.49278269042874,
          "velocity": 0.7480314960629921,
          "duration": 0.13933318554687446
        },
        {
          "name": "G#2",
          "midi": 44,
          "time": 92.84526796777249,
          "velocity": 0.7480314960629921,
          "duration": 0.09319636914062812
        },
        {
          "name": "G#2",
          "midi": 44,
          "time": 93.08056573144437,
          "velocity": 0.7480314960629921,
          "duration": 0.0848917421874944
        },
        {
          "name": "G#2",
          "midi": 44,
          "time": 93.30755886816311,
          "velocity": 0.7480314960629921,
          "duration": 0.09365773730468163
        },
        {
          "name": "G#2",
          "midi": 44,
          "time": 93.54331799999905,
          "velocity": 0.7480314960629921,
          "duration": 0.1536355986328175
        },
        {
          "name": "D#3",
          "midi": 51,
          "time": 93.54331799999905,
          "velocity": 0.5511811023622047,
          "duration": 0.3543307500000026
        },
        {
          "name": "C#3",
          "midi": 49,
          "time": 93.89764874999905,
          "velocity": 0.5511811023622047,
          "duration": 0.3543307500000026
        },
        {
          "name": "F#2",
          "midi": 42,
          "time": 93.91010569042874,
          "velocity": 0.7480314960629921,
          "duration": 0.13933318554687446
        },
        {
          "name": "D#3",
          "midi": 51,
          "time": 94.25197949999905,
          "velocity": 0.5511811023622047,
          "duration": 0.7086615000000194
        },
        {
          "name": "G#2",
          "midi": 44,
          "time": 94.2625909677725,
          "velocity": 0.7480314960629921,
          "duration": 0.09319636914062812
        },
        {
          "name": "G#2",
          "midi": 44,
          "time": 94.49788873144438,
          "velocity": 0.7480314960629921,
          "duration": 0.0848917421874944
        },
        {
          "name": "G#2",
          "midi": 44,
          "time": 94.72488186816312,
          "velocity": 0.7480314960629921,
          "duration": 0.22145671875000517
        },
        {
          "name": "A#2",
          "midi": 46,
          "time": 94.96064099999907,
          "velocity": 0.5511811023622047,
          "duration": 1.4173229999999961
        },
        {
          "name": "D#2",
          "midi": 39,
          "time": 94.96064099999907,
          "velocity": 0.7480314960629921,
          "duration": 0.1536355986328175
        },
        {
          "name": "D#1",
          "midi": 27,
          "time": 94.96064099999907,
          "velocity": 0.44881889763779526,
          "duration": 0.1536355986328175
        },
        {
          "name": "D#2",
          "midi": 39,
          "time": 95.32742869042876,
          "velocity": 0.7480314960629921,
          "duration": 0.13933318554687446
        },
        {
          "name": "D#1",
          "midi": 27,
          "time": 95.32742869042876,
          "velocity": 0.4094488188976378,
          "duration": 0.13933318554687446
        },
        {
          "name": "D#2",
          "midi": 39,
          "time": 95.6799139677725,
          "velocity": 0.7480314960629921,
          "duration": 0.09319636914062812
        },
        {
          "name": "D#1",
          "midi": 27,
          "time": 95.6799139677725,
          "velocity": 0.4094488188976378,
          "duration": 0.09319636914062812
        },
        {
          "name": "D#2",
          "midi": 39,
          "time": 95.91521173144439,
          "velocity": 0.7480314960629921,
          "duration": 0.0848917421874944
        },
        {
          "name": "D#1",
          "midi": 27,
          "time": 95.91521173144439,
          "velocity": 0.4094488188976378,
          "duration": 0.0848917421874944
        },
        {
          "name": "D#2",
          "midi": 39,
          "time": 96.14220486816313,
          "velocity": 0.7480314960629921,
          "duration": 0.09365773730468163
        },
        {
          "name": "D#1",
          "midi": 27,
          "time": 96.14220486816313,
          "velocity": 0.4094488188976378,
          "duration": 0.09365773730468163
        },
        {
          "name": "C3",
          "midi": 48,
          "time": 96.37796399999907,
          "velocity": 0.5511811023622047,
          "duration": 1.4173229999999961
        },
        {
          "name": "F2",
          "midi": 41,
          "time": 96.37796399999907,
          "velocity": 0.7480314960629921,
          "duration": 0.1536355986328175
        },
        {
          "name": "F1",
          "midi": 29,
          "time": 96.37796399999907,
          "velocity": 0.44881889763779526,
          "duration": 0.1536355986328175
        },
        {
          "name": "F2",
          "midi": 41,
          "time": 96.74475169042876,
          "velocity": 0.7480314960629921,
          "duration": 0.13933318554687446
        },
        {
          "name": "F1",
          "midi": 29,
          "time": 96.74475169042876,
          "velocity": 0.4094488188976378,
          "duration": 0.13933318554687446
        },
        {
          "name": "F2",
          "midi": 41,
          "time": 97.0972369677725,
          "velocity": 0.7480314960629921,
          "duration": 0.09319636914062812
        },
        {
          "name": "F1",
          "midi": 29,
          "time": 97.0972369677725,
          "velocity": 0.4094488188976378,
          "duration": 0.09319636914062812
        },
        {
          "name": "F2",
          "midi": 41,
          "time": 97.33253473144438,
          "velocity": 0.7480314960629921,
          "duration": 0.0848917421874944
        },
        {
          "name": "F1",
          "midi": 29,
          "time": 97.33253473144438,
          "velocity": 0.4094488188976378,
          "duration": 0.0848917421874944
        },
        {
          "name": "F2",
          "midi": 41,
          "time": 97.55952786816313,
          "velocity": 0.7480314960629921,
          "duration": 0.09365773730468163
        },
        {
          "name": "F1",
          "midi": 29,
          "time": 97.55952786816313,
          "velocity": 0.4094488188976378,
          "duration": 0.09365773730468163
        },
        {
          "name": "D3",
          "midi": 50,
          "time": 97.79528699999906,
          "velocity": 0.5511811023622047,
          "duration": 1.4173229999999961
        },
        {
          "name": "G2",
          "midi": 43,
          "time": 97.79528699999906,
          "velocity": 0.7480314960629921,
          "duration": 0.1536355986328175
        },
        {
          "name": "G1",
          "midi": 31,
          "time": 97.79528699999906,
          "velocity": 0.4566929133858268,
          "duration": 0.1536355986328175
        },
        {
          "name": "G2",
          "midi": 43,
          "time": 98.16207469042875,
          "velocity": 0.7480314960629921,
          "duration": 0.13933318554687446
        },
        {
          "name": "G1",
          "midi": 31,
          "time": 98.16207469042875,
          "velocity": 0.41732283464566927,
          "duration": 0.13933318554687446
        },
        {
          "name": "G2",
          "midi": 43,
          "time": 98.5145599677725,
          "velocity": 0.7480314960629921,
          "duration": 0.09319636914062812
        },
        {
          "name": "G1",
          "midi": 31,
          "time": 98.5145599677725,
          "velocity": 0.41732283464566927,
          "duration": 0.09319636914062812
        },
        {
          "name": "G2",
          "midi": 43,
          "time": 98.74985773144438,
          "velocity": 0.7480314960629921,
          "duration": 0.0848917421874944
        },
        {
          "name": "G1",
          "midi": 31,
          "time": 98.74985773144438,
          "velocity": 0.41732283464566927,
          "duration": 0.0848917421874944
        },
        {
          "name": "G2",
          "midi": 43,
          "time": 98.97685086816313,
          "velocity": 0.7480314960629921,
          "duration": 0.09365773730468163
        },
        {
          "name": "G1",
          "midi": 31,
          "time": 98.97685086816313,
          "velocity": 0.41732283464566927,
          "duration": 0.09365773730468163
        },
        {
          "name": "D2",
          "midi": 38,
          "time": 99.21260999999906,
          "velocity": 0.7480314960629921,
          "duration": 0.1536355986328175
        },
        {
          "name": "D1",
          "midi": 26,
          "time": 99.21260999999906,
          "velocity": 0.4409448818897638,
          "duration": 0.1536355986328175
        },
        {
          "name": "C3",
          "midi": 48,
          "time": 99.21260999999906,
          "velocity": 0.47244094488188976,
          "duration": 1.4173229999999961
        },
        {
          "name": "F3",
          "midi": 53,
          "time": 99.21260999999906,
          "velocity": 0.5511811023622047,
          "duration": 1.4173229999999961
        },
        {
          "name": "D2",
          "midi": 38,
          "time": 99.57939769042875,
          "velocity": 0.7480314960629921,
          "duration": 0.13933318554687446
        },
        {
          "name": "D1",
          "midi": 26,
          "time": 99.57939769042875,
          "velocity": 0.4015748031496063,
          "duration": 0.13933318554687446
        },
        {
          "name": "F2",
          "midi": 41,
          "time": 99.9318829677725,
          "velocity": 0.7480314960629921,
          "duration": 0.09319636914062812
        },
        {
          "name": "F1",
          "midi": 29,
          "time": 99.9318829677725,
          "velocity": 0.4094488188976378,
          "duration": 0.09319636914062812
        },
        {
          "name": "F2",
          "midi": 41,
          "time": 100.16718073144438,
          "velocity": 0.7480314960629921,
          "duration": 0.0848917421874944
        },
        {
          "name": "F1",
          "midi": 29,
          "time": 100.16718073144438,
          "velocity": 0.4094488188976378,
          "duration": 0.0848917421874944
        },
        {
          "name": "F2",
          "midi": 41,
          "time": 100.39417386816312,
          "velocity": 0.7480314960629921,
          "duration": 0.09365773730468163
        },
        {
          "name": "F1",
          "midi": 29,
          "time": 100.39417386816312,
          "velocity": 0.4094488188976378,
          "duration": 0.09365773730468163
        },
        {
          "name": "A#2",
          "midi": 46,
          "time": 100.62993299999906,
          "velocity": 0.5511811023622047,
          "duration": 1.4173229999999961
        },
        {
          "name": "D#2",
          "midi": 39,
          "time": 100.62993299999906,
          "velocity": 0.7480314960629921,
          "duration": 0.1536355986328175
        },
        {
          "name": "D#1",
          "midi": 27,
          "time": 100.62993299999906,
          "velocity": 0.44881889763779526,
          "duration": 0.1536355986328175
        },
        {
          "name": "D#2",
          "midi": 39,
          "time": 100.99672069042875,
          "velocity": 0.7480314960629921,
          "duration": 0.13933318554687446
        },
        {
          "name": "D#1",
          "midi": 27,
          "time": 100.99672069042875,
          "velocity": 0.4094488188976378,
          "duration": 0.13933318554687446
        },
        {
          "name": "D#2",
          "midi": 39,
          "time": 101.34920596777249,
          "velocity": 0.7480314960629921,
          "duration": 0.09319636914062812
        },
        {
          "name": "D#1",
          "midi": 27,
          "time": 101.34920596777249,
          "velocity": 0.4094488188976378,
          "duration": 0.09319636914062812
        },
        {
          "name": "D#2",
          "midi": 39,
          "time": 101.58450373144437,
          "velocity": 0.7480314960629921,
          "duration": 0.0848917421874944
        },
        {
          "name": "D#1",
          "midi": 27,
          "time": 101.58450373144437,
          "velocity": 0.4094488188976378,
          "duration": 0.0848917421874944
        },
        {
          "name": "D#2",
          "midi": 39,
          "time": 101.81149686816312,
          "velocity": 0.7480314960629921,
          "duration": 0.09365773730468163
        },
        {
          "name": "D#1",
          "midi": 27,
          "time": 101.81149686816312,
          "velocity": 0.4094488188976378,
          "duration": 0.09365773730468163
        },
        {
          "name": "C3",
          "midi": 48,
          "time": 102.04725599999905,
          "velocity": 0.5511811023622047,
          "duration": 1.4173229999999961
        },
        {
          "name": "F2",
          "midi": 41,
          "time": 102.04725599999905,
          "velocity": 0.7480314960629921,
          "duration": 0.1536355986328175
        },
        {
          "name": "F1",
          "midi": 29,
          "time": 102.04725599999905,
          "velocity": 0.44881889763779526,
          "duration": 0.1536355986328175
        },
        {
          "name": "F2",
          "midi": 41,
          "time": 102.41404369042874,
          "velocity": 0.7480314960629921,
          "duration": 0.13933318554687446
        },
        {
          "name": "F1",
          "midi": 29,
          "time": 102.41404369042874,
          "velocity": 0.4094488188976378,
          "duration": 0.13933318554687446
        },
        {
          "name": "F2",
          "midi": 41,
          "time": 102.76652896777249,
          "velocity": 0.7480314960629921,
          "duration": 0.09319636914062812
        },
        {
          "name": "F1",
          "midi": 29,
          "time": 102.76652896777249,
          "velocity": 0.4094488188976378,
          "duration": 0.09319636914062812
        },
        {
          "name": "F2",
          "midi": 41,
          "time": 103.00182673144437,
          "velocity": 0.7480314960629921,
          "duration": 0.0848917421874944
        },
        {
          "name": "F1",
          "midi": 29,
          "time": 103.00182673144437,
          "velocity": 0.4094488188976378,
          "duration": 0.0848917421874944
        },
        {
          "name": "F2",
          "midi": 41,
          "time": 103.22881986816311,
          "velocity": 0.7480314960629921,
          "duration": 0.09365773730468163
        },
        {
          "name": "F1",
          "midi": 29,
          "time": 103.22881986816311,
          "velocity": 0.4094488188976378,
          "duration": 0.09365773730468163
        },
        {
          "name": "D3",
          "midi": 50,
          "time": 103.46457899999905,
          "velocity": 0.5511811023622047,
          "duration": 1.4173229999999961
        },
        {
          "name": "G2",
          "midi": 43,
          "time": 103.46457899999905,
          "velocity": 0.7480314960629921,
          "duration": 0.1536355986328175
        },
        {
          "name": "G1",
          "midi": 31,
          "time": 103.46457899999905,
          "velocity": 0.4566929133858268,
          "duration": 0.1536355986328175
        },
        {
          "name": "G2",
          "midi": 43,
          "time": 103.83136669042874,
          "velocity": 0.7480314960629921,
          "duration": 0.13933318554687446
        },
        {
          "name": "G1",
          "midi": 31,
          "time": 103.83136669042874,
          "velocity": 0.41732283464566927,
          "duration": 0.13933318554687446
        },
        {
          "name": "G2",
          "midi": 43,
          "time": 104.18385196777248,
          "velocity": 0.7480314960629921,
          "duration": 0.09319636914062812
        },
        {
          "name": "G1",
          "midi": 31,
          "time": 104.18385196777248,
          "velocity": 0.41732283464566927,
          "duration": 0.09319636914062812
        },
        {
          "name": "G2",
          "midi": 43,
          "time": 104.41914973144436,
          "velocity": 0.7480314960629921,
          "duration": 0.0848917421874944
        },
        {
          "name": "G1",
          "midi": 31,
          "time": 104.41914973144436,
          "velocity": 0.41732283464566927,
          "duration": 0.0848917421874944
        },
        {
          "name": "G2",
          "midi": 43,
          "time": 104.64614286816311,
          "velocity": 0.7480314960629921,
          "duration": 0.09365773730468163
        },
        {
          "name": "G1",
          "midi": 31,
          "time": 104.64614286816311,
          "velocity": 0.41732283464566927,
          "duration": 0.09365773730468163
        },
        {
          "name": "D3",
          "midi": 50,
          "time": 104.88190199999904,
          "velocity": 0.5511811023622047,
          "duration": 0.3543307500000026
        },
        {
          "name": "G2",
          "midi": 43,
          "time": 104.88190199999904,
          "velocity": 0.7480314960629921,
          "duration": 0.1536355986328175
        },
        {
          "name": "G1",
          "midi": 31,
          "time": 104.88190199999904,
          "velocity": 0.4566929133858268,
          "duration": 0.1536355986328175
        },
        {
          "name": "C3",
          "midi": 48,
          "time": 105.23623274999905,
          "velocity": 0.5511811023622047,
          "duration": 0.3543307500000026
        },
        {
          "name": "F2",
          "midi": 41,
          "time": 105.24868969042873,
          "velocity": 0.7480314960629921,
          "duration": 0.13933318554687446
        },
        {
          "name": "F1",
          "midi": 29,
          "time": 105.24868969042873,
          "velocity": 0.4094488188976378,
          "duration": 0.13933318554687446
        },
        {
          "name": "D3",
          "midi": 50,
          "time": 105.59056349999905,
          "velocity": 0.5511811023622047,
          "duration": 0.7086615000000052
        },
        {
          "name": "G2",
          "midi": 43,
          "time": 105.6011749677725,
          "velocity": 0.7480314960629921,
          "duration": 0.09319636914062812
        },
        {
          "name": "G1",
          "midi": 31,
          "time": 105.6011749677725,
          "velocity": 0.3228346456692913,
          "duration": 0.09319636914062812
        },
        {
          "name": "G2",
          "midi": 43,
          "time": 105.83647273144437,
          "velocity": 0.7480314960629921,
          "duration": 0.0848917421874944
        },
        {
          "name": "G1",
          "midi": 31,
          "time": 105.83647273144437,
          "velocity": 0.3228346456692913,
          "duration": 0.0848917421874944
        },
        {
          "name": "G2",
          "midi": 43,
          "time": 106.06346586816312,
          "velocity": 0.7480314960629921,
          "duration": 0.10796015039062468
        },
        {
          "name": "G1",
          "midi": 31,
          "time": 106.06346586816312,
          "velocity": 0.3228346456692913,
          "duration": 0.09365773730468163
        },
        {
          "name": "A#2",
          "midi": 46,
          "time": 106.29922499999905,
          "velocity": 0.5511811023622047,
          "duration": 1.4173229999999961
        },
        {
          "name": "D#2",
          "midi": 39,
          "time": 106.29922499999905,
          "velocity": 0.7480314960629921,
          "duration": 0.1536355986328175
        },
        {
          "name": "D#1",
          "midi": 27,
          "time": 106.29922499999905,
          "velocity": 0.44881889763779526,
          "duration": 0.1536355986328175
        },
        {
          "name": "D#2",
          "midi": 39,
          "time": 106.66601269042874,
          "velocity": 0.7480314960629921,
          "duration": 0.13933318554687446
        },
        {
          "name": "D#1",
          "midi": 27,
          "time": 106.66601269042874,
          "velocity": 0.4094488188976378,
          "duration": 0.13933318554687446
        },
        {
          "name": "D#2",
          "midi": 39,
          "time": 107.01849796777249,
          "velocity": 0.7480314960629921,
          "duration": 0.09319636914062812
        },
        {
          "name": "D#1",
          "midi": 27,
          "time": 107.01849796777249,
          "velocity": 0.4094488188976378,
          "duration": 0.09319636914062812
        },
        {
          "name": "D#2",
          "midi": 39,
          "time": 107.25379573144437,
          "velocity": 0.7480314960629921,
          "duration": 0.0848917421874944
        },
        {
          "name": "D#1",
          "midi": 27,
          "time": 107.25379573144437,
          "velocity": 0.4094488188976378,
          "duration": 0.0848917421874944
        },
        {
          "name": "D#2",
          "midi": 39,
          "time": 107.48078886816312,
          "velocity": 0.7480314960629921,
          "duration": 0.09365773730468163
        },
        {
          "name": "D#1",
          "midi": 27,
          "time": 107.48078886816312,
          "velocity": 0.4094488188976378,
          "duration": 0.09365773730468163
        },
        {
          "name": "C3",
          "midi": 48,
          "time": 107.71654799999905,
          "velocity": 0.5511811023622047,
          "duration": 1.4173229999999961
        },
        {
          "name": "F2",
          "midi": 41,
          "time": 107.71654799999905,
          "velocity": 0.7480314960629921,
          "duration": 0.1536355986328175
        },
        {
          "name": "F1",
          "midi": 29,
          "time": 107.71654799999905,
          "velocity": 0.44881889763779526,
          "duration": 0.1536355986328175
        },
        {
          "name": "F2",
          "midi": 41,
          "time": 108.08333569042874,
          "velocity": 0.7480314960629921,
          "duration": 0.13933318554687446
        },
        {
          "name": "F1",
          "midi": 29,
          "time": 108.08333569042874,
          "velocity": 0.4094488188976378,
          "duration": 0.13933318554687446
        },
        {
          "name": "F2",
          "midi": 41,
          "time": 108.43582096777249,
          "velocity": 0.7480314960629921,
          "duration": 0.09319636914062812
        },
        {
          "name": "F1",
          "midi": 29,
          "time": 108.43582096777249,
          "velocity": 0.4094488188976378,
          "duration": 0.09319636914062812
        },
        {
          "name": "F2",
          "midi": 41,
          "time": 108.67111873144437,
          "velocity": 0.7480314960629921,
          "duration": 0.0848917421874944
        },
        {
          "name": "F1",
          "midi": 29,
          "time": 108.67111873144437,
          "velocity": 0.4094488188976378,
          "duration": 0.0848917421874944
        },
        {
          "name": "F2",
          "midi": 41,
          "time": 108.89811186816311,
          "velocity": 0.7480314960629921,
          "duration": 0.09365773730468163
        },
        {
          "name": "F1",
          "midi": 29,
          "time": 108.89811186816311,
          "velocity": 0.4094488188976378,
          "duration": 0.09365773730468163
        },
        {
          "name": "D3",
          "midi": 50,
          "time": 109.13387099999905,
          "velocity": 0.5511811023622047,
          "duration": 1.4173229999999961
        },
        {
          "name": "G2",
          "midi": 43,
          "time": 109.13387099999905,
          "velocity": 0.7480314960629921,
          "duration": 0.1536355986328175
        },
        {
          "name": "G1",
          "midi": 31,
          "time": 109.13387099999905,
          "velocity": 0.4566929133858268,
          "duration": 0.1536355986328175
        },
        {
          "name": "G2",
          "midi": 43,
          "time": 109.50065869042874,
          "velocity": 0.7480314960629921,
          "duration": 0.13933318554687446
        },
        {
          "name": "G1",
          "midi": 31,
          "time": 109.50065869042874,
          "velocity": 0.41732283464566927,
          "duration": 0.13933318554687446
        },
        {
          "name": "G2",
          "midi": 43,
          "time": 109.85314396777248,
          "velocity": 0.7480314960629921,
          "duration": 0.09319636914062812
        },
        {
          "name": "G1",
          "midi": 31,
          "time": 109.85314396777248,
          "velocity": 0.41732283464566927,
          "duration": 0.09319636914062812
        },
        {
          "name": "G2",
          "midi": 43,
          "time": 110.08844173144436,
          "velocity": 0.7480314960629921,
          "duration": 0.0848917421874944
        },
        {
          "name": "G1",
          "midi": 31,
          "time": 110.08844173144436,
          "velocity": 0.41732283464566927,
          "duration": 0.0848917421874944
        },
        {
          "name": "G2",
          "midi": 43,
          "time": 110.31543486816311,
          "velocity": 0.7480314960629921,
          "duration": 0.09365773730468163
        },
        {
          "name": "G1",
          "midi": 31,
          "time": 110.31543486816311,
          "velocity": 0.41732283464566927,
          "duration": 0.09365773730468163
        },
        {
          "name": "D2",
          "midi": 38,
          "time": 110.55119399999904,
          "velocity": 0.7480314960629921,
          "duration": 0.1536355986328175
        },
        {
          "name": "D1",
          "midi": 26,
          "time": 110.55119399999904,
          "velocity": 0.4409448818897638,
          "duration": 0.1536355986328175
        },
        {
          "name": "F3",
          "midi": 53,
          "time": 110.55119399999904,
          "velocity": 0.5511811023622047,
          "duration": 1.4173229999999961
        },
        {
          "name": "C3",
          "midi": 48,
          "time": 110.55119399999904,
          "velocity": 0.47244094488188976,
          "duration": 1.4173229999999961
        },
        {
          "name": "D2",
          "midi": 38,
          "time": 110.91798169042873,
          "velocity": 0.7480314960629921,
          "duration": 0.13933318554687446
        },
        {
          "name": "D1",
          "midi": 26,
          "time": 110.91798169042873,
          "velocity": 0.4015748031496063,
          "duration": 0.13933318554687446
        },
        {
          "name": "F2",
          "midi": 41,
          "time": 111.27046696777248,
          "velocity": 0.7480314960629921,
          "duration": 0.09319636914062812
        },
        {
          "name": "F1",
          "midi": 29,
          "time": 111.27046696777248,
          "velocity": 0.4094488188976378,
          "duration": 0.09319636914062812
        },
        {
          "name": "F2",
          "midi": 41,
          "time": 111.50576473144436,
          "velocity": 0.7480314960629921,
          "duration": 0.0848917421874944
        },
        {
          "name": "F1",
          "midi": 29,
          "time": 111.50576473144436,
          "velocity": 0.4094488188976378,
          "duration": 0.0848917421874944
        },
        {
          "name": "F2",
          "midi": 41,
          "time": 111.7327578681631,
          "velocity": 0.7480314960629921,
          "duration": 0.09365773730468163
        },
        {
          "name": "F1",
          "midi": 29,
          "time": 111.7327578681631,
          "velocity": 0.4094488188976378,
          "duration": 0.09365773730468163
        },
        {
          "name": "A#2",
          "midi": 46,
          "time": 111.96851699999904,
          "velocity": 0.5511811023622047,
          "duration": 1.4173229999999961
        },
        {
          "name": "D#2",
          "midi": 39,
          "time": 111.96851699999904,
          "velocity": 0.7480314960629921,
          "duration": 0.1536355986328175
        },
        {
          "name": "D#1",
          "midi": 27,
          "time": 111.96851699999904,
          "velocity": 0.44881889763779526,
          "duration": 0.1536355986328175
        },
        {
          "name": "D#2",
          "midi": 39,
          "time": 112.33530469042873,
          "velocity": 0.7480314960629921,
          "duration": 0.13933318554687446
        },
        {
          "name": "D#1",
          "midi": 27,
          "time": 112.33530469042873,
          "velocity": 0.4094488188976378,
          "duration": 0.13933318554687446
        },
        {
          "name": "D#2",
          "midi": 39,
          "time": 112.68778996777247,
          "velocity": 0.7480314960629921,
          "duration": 0.09319636914062812
        },
        {
          "name": "D#1",
          "midi": 27,
          "time": 112.68778996777247,
          "velocity": 0.4094488188976378,
          "duration": 0.09319636914062812
        },
        {
          "name": "D#2",
          "midi": 39,
          "time": 112.92308773144435,
          "velocity": 0.7480314960629921,
          "duration": 0.0848917421874944
        },
        {
          "name": "D#1",
          "midi": 27,
          "time": 112.92308773144435,
          "velocity": 0.4094488188976378,
          "duration": 0.0848917421874944
        },
        {
          "name": "D#2",
          "midi": 39,
          "time": 113.1500808681631,
          "velocity": 0.7480314960629921,
          "duration": 0.09365773730468163
        },
        {
          "name": "D#1",
          "midi": 27,
          "time": 113.1500808681631,
          "velocity": 0.4094488188976378,
          "duration": 0.09365773730468163
        },
        {
          "name": "C3",
          "midi": 48,
          "time": 113.38583999999904,
          "velocity": 0.5511811023622047,
          "duration": 1.4173229999999961
        },
        {
          "name": "F2",
          "midi": 41,
          "time": 113.38583999999904,
          "velocity": 0.7480314960629921,
          "duration": 0.1536355986328175
        },
        {
          "name": "F1",
          "midi": 29,
          "time": 113.38583999999904,
          "velocity": 0.44881889763779526,
          "duration": 0.1536355986328175
        },
        {
          "name": "F2",
          "midi": 41,
          "time": 113.75262769042872,
          "velocity": 0.7480314960629921,
          "duration": 0.13933318554687446
        },
        {
          "name": "F1",
          "midi": 29,
          "time": 113.75262769042872,
          "velocity": 0.4094488188976378,
          "duration": 0.13933318554687446
        },
        {
          "name": "F2",
          "midi": 41,
          "time": 114.10511296777247,
          "velocity": 0.7480314960629921,
          "duration": 0.09319636914062812
        },
        {
          "name": "F1",
          "midi": 29,
          "time": 114.10511296777247,
          "velocity": 0.4094488188976378,
          "duration": 0.09319636914062812
        },
        {
          "name": "F2",
          "midi": 41,
          "time": 114.34041073144435,
          "velocity": 0.7480314960629921,
          "duration": 0.0848917421874944
        },
        {
          "name": "F1",
          "midi": 29,
          "time": 114.34041073144435,
          "velocity": 0.4094488188976378,
          "duration": 0.0848917421874944
        },
        {
          "name": "F2",
          "midi": 41,
          "time": 114.5674038681631,
          "velocity": 0.7480314960629921,
          "duration": 0.09365773730468163
        },
        {
          "name": "F1",
          "midi": 29,
          "time": 114.5674038681631,
          "velocity": 0.4094488188976378,
          "duration": 0.09365773730468163
        },
        {
          "name": "D3",
          "midi": 50,
          "time": 114.80316299999903,
          "velocity": 0.5511811023622047,
          "duration": 1.4173229999999961
        },
        {
          "name": "G2",
          "midi": 43,
          "time": 114.80316299999903,
          "velocity": 0.7480314960629921,
          "duration": 0.1536355986328175
        },
        {
          "name": "G1",
          "midi": 31,
          "time": 114.80316299999903,
          "velocity": 0.4566929133858268,
          "duration": 0.1536355986328175
        },
        {
          "name": "G2",
          "midi": 43,
          "time": 115.16995069042872,
          "velocity": 0.7480314960629921,
          "duration": 0.13933318554687446
        },
        {
          "name": "G1",
          "midi": 31,
          "time": 115.16995069042872,
          "velocity": 0.41732283464566927,
          "duration": 0.13933318554687446
        },
        {
          "name": "G2",
          "midi": 43,
          "time": 115.52243596777247,
          "velocity": 0.7480314960629921,
          "duration": 0.09319636914062812
        },
        {
          "name": "G1",
          "midi": 31,
          "time": 115.52243596777247,
          "velocity": 0.41732283464566927,
          "duration": 0.09319636914062812
        },
        {
          "name": "G2",
          "midi": 43,
          "time": 115.75773373144435,
          "velocity": 0.7480314960629921,
          "duration": 0.0848917421874944
        },
        {
          "name": "G1",
          "midi": 31,
          "time": 115.75773373144435,
          "velocity": 0.41732283464566927,
          "duration": 0.0848917421874944
        },
        {
          "name": "G2",
          "midi": 43,
          "time": 115.9847268681631,
          "velocity": 0.7480314960629921,
          "duration": 0.09365773730468163
        },
        {
          "name": "G1",
          "midi": 31,
          "time": 115.9847268681631,
          "velocity": 0.41732283464566927,
          "duration": 0.09365773730468163
        },
        {
          "name": "D3",
          "midi": 50,
          "time": 116.22048599999903,
          "velocity": 0.5511811023622047,
          "duration": 0.3543307500000026
        },
        {
          "name": "G2",
          "midi": 43,
          "time": 116.22048599999903,
          "velocity": 0.7480314960629921,
          "duration": 0.1536355986328175
        },
        {
          "name": "G1",
          "midi": 31,
          "time": 116.22048599999903,
          "velocity": 0.4566929133858268,
          "duration": 0.1536355986328175
        },
        {
          "name": "C3",
          "midi": 48,
          "time": 116.57481674999903,
          "velocity": 0.5511811023622047,
          "duration": 0.3543307500000026
        },
        {
          "name": "F2",
          "midi": 41,
          "time": 116.58727369042872,
          "velocity": 0.7480314960629921,
          "duration": 0.13933318554687446
        },
        {
          "name": "F1",
          "midi": 29,
          "time": 116.58727369042872,
          "velocity": 0.4094488188976378,
          "duration": 0.13933318554687446
        },
        {
          "name": "D3",
          "midi": 50,
          "time": 116.92914749999903,
          "velocity": 0.5511811023622047,
          "duration": 0.7086615000000052
        },
        {
          "name": "G2",
          "midi": 43,
          "time": 116.93975896777248,
          "velocity": 0.7480314960629921,
          "duration": 0.09319636914062812
        },
        {
          "name": "G1",
          "midi": 31,
          "time": 116.93975896777248,
          "velocity": 0.3228346456692913,
          "duration": 0.09319636914062812
        },
        {
          "name": "G2",
          "midi": 43,
          "time": 117.17505673144436,
          "velocity": 0.7480314960629921,
          "duration": 0.0848917421874944
        },
        {
          "name": "G1",
          "midi": 31,
          "time": 117.17505673144436,
          "velocity": 0.3228346456692913,
          "duration": 0.0848917421874944
        },
        {
          "name": "G2",
          "midi": 43,
          "time": 117.4020498681631,
          "velocity": 0.7480314960629921,
          "duration": 0.10796015039062468
        },
        {
          "name": "G1",
          "midi": 31,
          "time": 117.4020498681631,
          "velocity": 0.3228346456692913,
          "duration": 0.09365773730468163
        }
      ],
      "controlChanges": {
        "7": [
          {
            "number": 7,
            "time": 0,
            "value": 1
          },
          {
            "number": 7,
            "time": 0,
            "value": 1
          },
          {
            "number": 7,
            "time": 0,
            "value": 0.8661417322834646
          }
        ],
        "10": [
          {
            "number": 10,
            "time": 0,
            "value": 0.33858267716535434
          }
        ],
        "32": [
          {
            "number": 32,
            "time": 0,
            "value": 0
          },
          {
            "number": 32,
            "time": 0,
            "value": 0
          },
          {
            "number": 32,
            "time": 0,
            "value": 0
          },
          {
            "number": 32,
            "time": 0,
            "value": 0
          }
        ]
      },
      "id": 5,
      "name": "Instrument2",
      "instrumentNumber": 1,
      "instrument": "bright acoustic piano",
      "instrumentFamily": "piano",
      "channelNumber": 4,
      "isPercussion": false
    },
    {
      "startTime": 0,
      "duration": 83.61513647753866,
      "length": 355,
      "notes": [
        {
          "name": "G0",
          "midi": 19,
          "time": 0,
          "velocity": 0.3937007874015748,
          "duration": 0.2362205
        },
        {
          "name": "G1",
          "midi": 31,
          "time": 0,
          "velocity": 0.7480314960629921,
          "duration": 0.2362205
        },
        {
          "name": "C1",
          "midi": 24,
          "time": 1.4173229999999999,
          "velocity": 0.3937007874015748,
          "duration": 0.23622049999999994
        },
        {
          "name": "C2",
          "midi": 36,
          "time": 1.4173229999999999,
          "velocity": 0.7480314960629921,
          "duration": 0.23622049999999994
        },
        {
          "name": "G0",
          "midi": 19,
          "time": 2.8346459999999998,
          "velocity": 0.3937007874015748,
          "duration": 0.23622049999999994
        },
        {
          "name": "G1",
          "midi": 31,
          "time": 2.8346459999999998,
          "velocity": 0.7480314960629921,
          "duration": 0.23622049999999994
        },
        {
          "name": "D#1",
          "midi": 27,
          "time": 4.251969,
          "velocity": 0.3937007874015748,
          "duration": 0.23622049999999994
        },
        {
          "name": "D#2",
          "midi": 39,
          "time": 4.251969,
          "velocity": 0.7480314960629921,
          "duration": 0.23622049999999994
        },
        {
          "name": "D1",
          "midi": 26,
          "time": 4.9606305,
          "velocity": 0.3937007874015748,
          "duration": 0.23622049999999994
        },
        {
          "name": "D2",
          "midi": 38,
          "time": 4.9606305,
          "velocity": 0.7480314960629921,
          "duration": 0.23622049999999994
        },
        {
          "name": "G0",
          "midi": 19,
          "time": 5.6692919999999996,
          "velocity": 0.3937007874015748,
          "duration": 0.23622049999999994
        },
        {
          "name": "G1",
          "midi": 31,
          "time": 5.6692919999999996,
          "velocity": 0.7480314960629921,
          "duration": 0.23622049999999994
        },
        {
          "name": "C1",
          "midi": 24,
          "time": 7.086614999999999,
          "velocity": 0.3937007874015748,
          "duration": 0.23622049999999994
        },
        {
          "name": "C2",
          "midi": 36,
          "time": 7.086614999999999,
          "velocity": 0.7480314960629921,
          "duration": 0.23622049999999994
        },
        {
          "name": "G0",
          "midi": 19,
          "time": 8.503938,
          "velocity": 0.3937007874015748,
          "duration": 0.23622049999999994
        },
        {
          "name": "G1",
          "midi": 31,
          "time": 8.503938,
          "velocity": 0.7480314960629921,
          "duration": 0.23622049999999994
        },
        {
          "name": "D#1",
          "midi": 27,
          "time": 9.921261,
          "velocity": 0.3937007874015748,
          "duration": 0.23622049999999994
        },
        {
          "name": "D#2",
          "midi": 39,
          "time": 9.921261,
          "velocity": 0.7480314960629921,
          "duration": 0.23622049999999994
        },
        {
          "name": "D1",
          "midi": 26,
          "time": 10.6299225,
          "velocity": 0.3937007874015748,
          "duration": 0.23622049999999994
        },
        {
          "name": "D2",
          "midi": 38,
          "time": 10.6299225,
          "velocity": 0.7480314960629921,
          "duration": 0.23622049999999994
        },
        {
          "name": "G1",
          "midi": 31,
          "time": 11.338583999999999,
          "velocity": 0.7480314960629921,
          "duration": 0.11811025000000086
        },
        {
          "name": "G1",
          "midi": 31,
          "time": 11.5748045,
          "velocity": 0.7480314960629921,
          "duration": 0.11811025000000086
        },
        {
          "name": "G2",
          "midi": 43,
          "time": 11.692914750000002,
          "velocity": 0.7480314960629921,
          "duration": 0.11811025000000086
        },
        {
          "name": "G1",
          "midi": 31,
          "time": 11.929135250000003,
          "velocity": 0.7480314960629921,
          "duration": 0.11811025000000086
        },
        {
          "name": "G1",
          "midi": 31,
          "time": 12.047245500000004,
          "velocity": 0.7480314960629921,
          "duration": 0.11811025000000086
        },
        {
          "name": "G2",
          "midi": 43,
          "time": 12.283466000000006,
          "velocity": 0.7480314960629921,
          "duration": 0.11811025000000086
        },
        {
          "name": "G1",
          "midi": 31,
          "time": 12.519686500000008,
          "velocity": 0.7480314960629921,
          "duration": 0.11811025000000086
        },
        {
          "name": "C1",
          "midi": 24,
          "time": 12.75590700000001,
          "velocity": 0.7480314960629921,
          "duration": 0.11811025000000086
        },
        {
          "name": "C1",
          "midi": 24,
          "time": 12.992127500000011,
          "velocity": 0.7480314960629921,
          "duration": 0.11811025000000086
        },
        {
          "name": "C2",
          "midi": 36,
          "time": 13.110237750000012,
          "velocity": 0.7480314960629921,
          "duration": 0.11811025000000086
        },
        {
          "name": "C1",
          "midi": 24,
          "time": 13.346458250000014,
          "velocity": 0.7480314960629921,
          "duration": 0.11811025000000086
        },
        {
          "name": "C1",
          "midi": 24,
          "time": 13.464568500000015,
          "velocity": 0.7480314960629921,
          "duration": 0.11811025000000086
        },
        {
          "name": "C2",
          "midi": 36,
          "time": 13.700789000000016,
          "velocity": 0.7480314960629921,
          "duration": 0.11811025000000086
        },
        {
          "name": "C1",
          "midi": 24,
          "time": 13.937009500000018,
          "velocity": 0.7480314960629921,
          "duration": 0.11811025000000086
        },
        {
          "name": "G1",
          "midi": 31,
          "time": 14.17323000000002,
          "velocity": 0.7480314960629921,
          "duration": 0.11811025000000086
        },
        {
          "name": "G1",
          "midi": 31,
          "time": 14.409450500000021,
          "velocity": 0.7480314960629921,
          "duration": 0.11811025000000086
        },
        {
          "name": "G2",
          "midi": 43,
          "time": 14.527560750000022,
          "velocity": 0.7480314960629921,
          "duration": 0.11811025000000086
        },
        {
          "name": "G1",
          "midi": 31,
          "time": 14.763781250000024,
          "velocity": 0.7480314960629921,
          "duration": 0.11811025000000086
        },
        {
          "name": "G1",
          "midi": 31,
          "time": 14.881891500000025,
          "velocity": 0.7480314960629921,
          "duration": 0.11811025000000086
        },
        {
          "name": "G2",
          "midi": 43,
          "time": 15.118112000000027,
          "velocity": 0.7480314960629921,
          "duration": 0.11811025000000086
        },
        {
          "name": "G1",
          "midi": 31,
          "time": 15.354332500000028,
          "velocity": 0.7480314960629921,
          "duration": 0.11811025000000086
        },
        {
          "name": "C2",
          "midi": 36,
          "time": 15.59055300000003,
          "velocity": 0.7480314960629921,
          "duration": 0.23622049999999994
        },
        {
          "name": "A#1",
          "midi": 34,
          "time": 15.82677350000003,
          "velocity": 0.7480314960629921,
          "duration": 0.23622050000000172
        },
        {
          "name": "C2",
          "midi": 36,
          "time": 16.06299400000003,
          "velocity": 0.7480314960629921,
          "duration": 0.23622050000000172
        },
        {
          "name": "D2",
          "midi": 38,
          "time": 16.299214500000033,
          "velocity": 0.7480314960629921,
          "duration": 0.23622050000000172
        },
        {
          "name": "A1",
          "midi": 33,
          "time": 16.535435000000035,
          "velocity": 0.7480314960629921,
          "duration": 0.23622050000000172
        },
        {
          "name": "C2",
          "midi": 36,
          "time": 16.771655500000037,
          "velocity": 0.7480314960629921,
          "duration": 0.23622050000000172
        },
        {
          "name": "F1",
          "midi": 29,
          "time": 16.771655500000037,
          "velocity": 0.7086614173228346,
          "duration": 0.23622050000000172
        },
        {
          "name": "G1",
          "midi": 31,
          "time": 17.00787600000004,
          "velocity": 0.7480314960629921,
          "duration": 0.11811025000000086
        },
        {
          "name": "G1",
          "midi": 31,
          "time": 17.24409650000004,
          "velocity": 0.7480314960629921,
          "duration": 0.11811025000000086
        },
        {
          "name": "G2",
          "midi": 43,
          "time": 17.36220675000004,
          "velocity": 0.7480314960629921,
          "duration": 0.11811025000000086
        },
        {
          "name": "G1",
          "midi": 31,
          "time": 17.598427250000043,
          "velocity": 0.7480314960629921,
          "duration": 0.11811025000000086
        },
        {
          "name": "G1",
          "midi": 31,
          "time": 17.716537500000044,
          "velocity": 0.7480314960629921,
          "duration": 0.11811025000000086
        },
        {
          "name": "G2",
          "midi": 43,
          "time": 17.952758000000046,
          "velocity": 0.7480314960629921,
          "duration": 0.11811025000000086
        },
        {
          "name": "G1",
          "midi": 31,
          "time": 18.188978500000047,
          "velocity": 0.7480314960629921,
          "duration": 0.11811025000000086
        },
        {
          "name": "C1",
          "midi": 24,
          "time": 18.42519900000005,
          "velocity": 0.7480314960629921,
          "duration": 0.11811025000000086
        },
        {
          "name": "C1",
          "midi": 24,
          "time": 18.66141950000005,
          "velocity": 0.7480314960629921,
          "duration": 0.11811025000000086
        },
        {
          "name": "C2",
          "midi": 36,
          "time": 18.77952975000005,
          "velocity": 0.7480314960629921,
          "duration": 0.11811025000000086
        },
        {
          "name": "C1",
          "midi": 24,
          "time": 19.015750250000053,
          "velocity": 0.7480314960629921,
          "duration": 0.11811025000000086
        },
        {
          "name": "C1",
          "midi": 24,
          "time": 19.133860500000054,
          "velocity": 0.7480314960629921,
          "duration": 0.11811025000000086
        },
        {
          "name": "C2",
          "midi": 36,
          "time": 19.370081000000056,
          "velocity": 0.7480314960629921,
          "duration": 0.11811025000000086
        },
        {
          "name": "C1",
          "midi": 24,
          "time": 19.606301500000058,
          "velocity": 0.7480314960629921,
          "duration": 0.11811025000000086
        },
        {
          "name": "G1",
          "midi": 31,
          "time": 19.84252200000006,
          "velocity": 0.7480314960629921,
          "duration": 0.11811025000000086
        },
        {
          "name": "G1",
          "midi": 31,
          "time": 20.07874250000006,
          "velocity": 0.7480314960629921,
          "duration": 0.11811025000000086
        },
        {
          "name": "G2",
          "midi": 43,
          "time": 20.196852750000062,
          "velocity": 0.7480314960629921,
          "duration": 0.11811025000000086
        },
        {
          "name": "G1",
          "midi": 31,
          "time": 20.433073250000064,
          "velocity": 0.7480314960629921,
          "duration": 0.11811025000000086
        },
        {
          "name": "G1",
          "midi": 31,
          "time": 20.551183500000064,
          "velocity": 0.7480314960629921,
          "duration": 0.11811025000000086
        },
        {
          "name": "G2",
          "midi": 43,
          "time": 20.787404000000066,
          "velocity": 0.7480314960629921,
          "duration": 0.11811025000000086
        },
        {
          "name": "G1",
          "midi": 31,
          "time": 21.023624500000068,
          "velocity": 0.7480314960629921,
          "duration": 0.11811025000000086
        },
        {
          "name": "C2",
          "midi": 36,
          "time": 21.25984500000007,
          "velocity": 0.7480314960629921,
          "duration": 0.23622050000000172
        },
        {
          "name": "A#1",
          "midi": 34,
          "time": 21.49606550000007,
          "velocity": 0.7480314960629921,
          "duration": 0.23622050000000172
        },
        {
          "name": "C2",
          "midi": 36,
          "time": 21.732286000000073,
          "velocity": 0.7480314960629921,
          "duration": 0.23622050000000172
        },
        {
          "name": "D2",
          "midi": 38,
          "time": 21.968506500000075,
          "velocity": 0.7480314960629921,
          "duration": 0.23622050000000172
        },
        {
          "name": "A1",
          "midi": 33,
          "time": 22.204727000000076,
          "velocity": 0.7480314960629921,
          "duration": 0.23622050000000172
        },
        {
          "name": "C2",
          "midi": 36,
          "time": 22.440947500000078,
          "velocity": 0.7480314960629921,
          "duration": 0.23622050000000172
        },
        {
          "name": "F1",
          "midi": 29,
          "time": 22.440947500000078,
          "velocity": 0.7086614173228346,
          "duration": 0.23622050000000172
        },
        {
          "name": "G#1",
          "midi": 32,
          "time": 22.67716800000008,
          "velocity": 0.7480314960629921,
          "duration": 0.11811025000000086
        },
        {
          "name": "G#1",
          "midi": 32,
          "time": 22.91338850000008,
          "velocity": 0.7480314960629921,
          "duration": 0.11811025000000086
        },
        {
          "name": "G#2",
          "midi": 44,
          "time": 23.031498750000083,
          "velocity": 0.7480314960629921,
          "duration": 0.11811025000000086
        },
        {
          "name": "G#1",
          "midi": 32,
          "time": 23.267719250000084,
          "velocity": 0.7480314960629921,
          "duration": 0.11811025000000086
        },
        {
          "name": "G#1",
          "midi": 32,
          "time": 23.385829500000085,
          "velocity": 0.7480314960629921,
          "duration": 0.11811025000000086
        },
        {
          "name": "G#2",
          "midi": 44,
          "time": 23.622050000000087,
          "velocity": 0.7480314960629921,
          "duration": 0.11811025000000086
        },
        {
          "name": "G#1",
          "midi": 32,
          "time": 23.85827050000009,
          "velocity": 0.7480314960629921,
          "duration": 0.11811025000000086
        },
        {
          "name": "C#1",
          "midi": 25,
          "time": 24.09449100000009,
          "velocity": 0.7480314960629921,
          "duration": 0.11811025000000086
        },
        {
          "name": "C#1",
          "midi": 25,
          "time": 24.330711500000092,
          "velocity": 0.7480314960629921,
          "duration": 0.11811025000000086
        },
        {
          "name": "C#2",
          "midi": 37,
          "time": 24.448821750000093,
          "velocity": 0.7480314960629921,
          "duration": 0.11811025000000086
        },
        {
          "name": "C#1",
          "midi": 25,
          "time": 24.685042250000095,
          "velocity": 0.7480314960629921,
          "duration": 0.11811025000000086
        },
        {
          "name": "C#1",
          "midi": 25,
          "time": 24.803152500000095,
          "velocity": 0.7480314960629921,
          "duration": 0.11811025000000086
        },
        {
          "name": "C#2",
          "midi": 37,
          "time": 25.039373000000097,
          "velocity": 0.7480314960629921,
          "duration": 0.11811025000000086
        },
        {
          "name": "C#1",
          "midi": 25,
          "time": 25.2755935000001,
          "velocity": 0.7480314960629921,
          "duration": 0.11811025000000086
        },
        {
          "name": "G#1",
          "midi": 32,
          "time": 25.5118140000001,
          "velocity": 0.7480314960629921,
          "duration": 0.11811025000000086
        },
        {
          "name": "G#1",
          "midi": 32,
          "time": 25.748034500000102,
          "velocity": 0.7480314960629921,
          "duration": 0.11811025000000086
        },
        {
          "name": "G#2",
          "midi": 44,
          "time": 25.866144750000103,
          "velocity": 0.7480314960629921,
          "duration": 0.11811025000000086
        },
        {
          "name": "G#1",
          "midi": 32,
          "time": 26.102365250000105,
          "velocity": 0.7480314960629921,
          "duration": 0.11811025000000086
        },
        {
          "name": "G#1",
          "midi": 32,
          "time": 26.220475500000106,
          "velocity": 0.7480314960629921,
          "duration": 0.11811025000000086
        },
        {
          "name": "G#2",
          "midi": 44,
          "time": 26.456696000000107,
          "velocity": 0.7480314960629921,
          "duration": 0.11811025000000086
        },
        {
          "name": "G#1",
          "midi": 32,
          "time": 26.69291650000011,
          "velocity": 0.7480314960629921,
          "duration": 0.11811025000000086
        },
        {
          "name": "C#2",
          "midi": 37,
          "time": 26.92913700000011,
          "velocity": 0.7480314960629921,
          "duration": 0.23622050000000172
        },
        {
          "name": "B1",
          "midi": 35,
          "time": 27.165357500000113,
          "velocity": 0.7480314960629921,
          "duration": 0.23622050000000172
        },
        {
          "name": "C#2",
          "midi": 37,
          "time": 27.401578000000114,
          "velocity": 0.7480314960629921,
          "duration": 0.23622050000000172
        },
        {
          "name": "D#2",
          "midi": 39,
          "time": 27.637798500000116,
          "velocity": 0.7480314960629921,
          "duration": 0.23622050000000172
        },
        {
          "name": "A#1",
          "midi": 34,
          "time": 27.874019000000118,
          "velocity": 0.7480314960629921,
          "duration": 0.23622050000000172
        },
        {
          "name": "F#1",
          "midi": 30,
          "time": 28.11023950000012,
          "velocity": 0.7086614173228346,
          "duration": 0.23622050000000172
        },
        {
          "name": "C#2",
          "midi": 37,
          "time": 28.11023950000012,
          "velocity": 0.7480314960629921,
          "duration": 0.23622050000000172
        },
        {
          "name": "G#1",
          "midi": 32,
          "time": 28.34646000000012,
          "velocity": 0.7480314960629921,
          "duration": 0.11811025000000086
        },
        {
          "name": "G#1",
          "midi": 32,
          "time": 28.582680500000123,
          "velocity": 0.7480314960629921,
          "duration": 0.11811025000000086
        },
        {
          "name": "G#2",
          "midi": 44,
          "time": 28.700790750000124,
          "velocity": 0.7480314960629921,
          "duration": 0.11811025000000086
        },
        {
          "name": "G#1",
          "midi": 32,
          "time": 28.937011250000126,
          "velocity": 0.7480314960629921,
          "duration": 0.11811025000000086
        },
        {
          "name": "G#1",
          "midi": 32,
          "time": 29.055121500000126,
          "velocity": 0.7480314960629921,
          "duration": 0.11811025000000086
        },
        {
          "name": "G#2",
          "midi": 44,
          "time": 29.291342000000128,
          "velocity": 0.7480314960629921,
          "duration": 0.11811025000000086
        },
        {
          "name": "G#1",
          "midi": 32,
          "time": 29.52756250000013,
          "velocity": 0.7480314960629921,
          "duration": 0.11811025000000086
        },
        {
          "name": "C#1",
          "midi": 25,
          "time": 29.76378300000013,
          "velocity": 0.7480314960629921,
          "duration": 0.11811025000000086
        },
        {
          "name": "C#1",
          "midi": 25,
          "time": 30.000003500000133,
          "velocity": 0.7480314960629921,
          "duration": 0.11811025000000086
        },
        {
          "name": "C#2",
          "midi": 37,
          "time": 30.118113750000134,
          "velocity": 0.7480314960629921,
          "duration": 0.11811025000000086
        },
        {
          "name": "C#1",
          "midi": 25,
          "time": 30.354334250000136,
          "velocity": 0.7480314960629921,
          "duration": 0.11811025000000086
        },
        {
          "name": "C#1",
          "midi": 25,
          "time": 30.472444500000137,
          "velocity": 0.7480314960629921,
          "duration": 0.11811025000000086
        },
        {
          "name": "C#2",
          "midi": 37,
          "time": 30.70866500000014,
          "velocity": 0.7480314960629921,
          "duration": 0.11811025000000086
        },
        {
          "name": "C#1",
          "midi": 25,
          "time": 30.94488550000014,
          "velocity": 0.7480314960629921,
          "duration": 0.11811025000000086
        },
        {
          "name": "G#1",
          "midi": 32,
          "time": 31.181106000000142,
          "velocity": 0.7480314960629921,
          "duration": 0.11811025000000086
        },
        {
          "name": "G#1",
          "midi": 32,
          "time": 31.417326500000144,
          "velocity": 0.7480314960629921,
          "duration": 0.11811025000000086
        },
        {
          "name": "G#2",
          "midi": 44,
          "time": 31.535436750000144,
          "velocity": 0.7480314960629921,
          "duration": 0.11811025000000086
        },
        {
          "name": "G#1",
          "midi": 32,
          "time": 31.771657250000146,
          "velocity": 0.7480314960629921,
          "duration": 0.11811025000000086
        },
        {
          "name": "G#1",
          "midi": 32,
          "time": 31.889767500000147,
          "velocity": 0.7480314960629921,
          "duration": 0.11811025000000086
        },
        {
          "name": "G#2",
          "midi": 44,
          "time": 32.12598800000015,
          "velocity": 0.7480314960629921,
          "duration": 0.11811025000000086
        },
        {
          "name": "G#1",
          "midi": 32,
          "time": 32.36220850000015,
          "velocity": 0.7480314960629921,
          "duration": 0.11811025000000086
        },
        {
          "name": "C#2",
          "midi": 37,
          "time": 32.59842900000015,
          "velocity": 0.7480314960629921,
          "duration": 0.23622050000000172
        },
        {
          "name": "B1",
          "midi": 35,
          "time": 32.834649500000154,
          "velocity": 0.7480314960629921,
          "duration": 0.23622050000000172
        },
        {
          "name": "C#2",
          "midi": 37,
          "time": 33.070870000000156,
          "velocity": 0.7480314960629921,
          "duration": 0.23622050000000172
        },
        {
          "name": "D#2",
          "midi": 39,
          "time": 33.30709050000016,
          "velocity": 0.7480314960629921,
          "duration": 0.23622050000000172
        },
        {
          "name": "A#1",
          "midi": 34,
          "time": 33.54331100000016,
          "velocity": 0.7480314960629921,
          "duration": 0.23622050000000172
        },
        {
          "name": "F#1",
          "midi": 30,
          "time": 33.77953150000016,
          "velocity": 0.7086614173228346,
          "duration": 0.23622050000000172
        },
        {
          "name": "C#2",
          "midi": 37,
          "time": 33.77953150000016,
          "velocity": 0.7480314960629921,
          "duration": 0.23622050000000172
        },
        {
          "name": "E2",
          "midi": 40,
          "time": 34.01575200000016,
          "velocity": 0.7480314960629921,
          "duration": 0.23483639550781277
        },
        {
          "name": "E1",
          "midi": 28,
          "time": 34.01575200000016,
          "velocity": 0.5196850393700787,
          "duration": 0.23483639550781277
        },
        {
          "name": "G#2",
          "midi": 44,
          "time": 34.251972500000164,
          "velocity": 0.7480314960629921,
          "duration": 0.22330219140624763
        },
        {
          "name": "E2",
          "midi": 40,
          "time": 34.48819300000016,
          "velocity": 0.7480314960629921,
          "duration": 0.22330219140624763
        },
        {
          "name": "G2",
          "midi": 43,
          "time": 34.72441350000015,
          "velocity": 0.7480314960629921,
          "duration": 0.23483639550781277
        },
        {
          "name": "G1",
          "midi": 31,
          "time": 34.72441350000015,
          "velocity": 0.5196850393700787,
          "duration": 0.23483639550781277
        },
        {
          "name": "D#2",
          "midi": 39,
          "time": 34.960634000000155,
          "velocity": 0.7480314960629921,
          "duration": 0.22330219140624763
        },
        {
          "name": "G2",
          "midi": 43,
          "time": 35.19685450000015,
          "velocity": 0.7480314960629921,
          "duration": 0.22330219140624763
        },
        {
          "name": "E2",
          "midi": 40,
          "time": 35.433075000000144,
          "velocity": 0.7480314960629921,
          "duration": 0.23483639550781277
        },
        {
          "name": "E1",
          "midi": 28,
          "time": 35.433075000000144,
          "velocity": 0.5196850393700787,
          "duration": 0.23483639550781277
        },
        {
          "name": "B1",
          "midi": 35,
          "time": 35.669295500000146,
          "velocity": 0.7480314960629921,
          "duration": 0.22330219140624763
        },
        {
          "name": "E2",
          "midi": 40,
          "time": 35.90551600000014,
          "velocity": 0.7480314960629921,
          "duration": 0.22330219140624763
        },
        {
          "name": "G2",
          "midi": 43,
          "time": 36.141736500000135,
          "velocity": 0.7480314960629921,
          "duration": 0.23483639550781277
        },
        {
          "name": "G1",
          "midi": 31,
          "time": 36.141736500000135,
          "velocity": 0.5196850393700787,
          "duration": 0.23483639550781277
        },
        {
          "name": "D#2",
          "midi": 39,
          "time": 36.37795700000014,
          "velocity": 0.7480314960629921,
          "duration": 0.22330219140624763
        },
        {
          "name": "G2",
          "midi": 43,
          "time": 36.61417750000013,
          "velocity": 0.7480314960629921,
          "duration": 0.22330219140624763
        },
        {
          "name": "E2",
          "midi": 40,
          "time": 36.850398000000126,
          "velocity": 0.7480314960629921,
          "duration": 0.35294664550781363
        },
        {
          "name": "E1",
          "midi": 28,
          "time": 36.850398000000126,
          "velocity": 0.5196850393700787,
          "duration": 0.35294664550781363
        },
        {
          "name": "D#2",
          "midi": 39,
          "time": 37.559059500000124,
          "velocity": 0.47244094488188976,
          "duration": 0.35294664550781363
        },
        {
          "name": "G#2",
          "midi": 44,
          "time": 49.60630500000013,
          "velocity": 0.6299212598425197,
          "duration": 0.11672614550781191
        },
        {
          "name": "G#1",
          "midi": 32,
          "time": 49.60630500000013,
          "velocity": 0.6299212598425197,
          "duration": 0.11672614550781191
        },
        {
          "name": "D#2",
          "midi": 39,
          "time": 49.72441525000013,
          "velocity": 0.6299212598425197,
          "duration": 0.1111897275390632
        },
        {
          "name": "C#2",
          "midi": 37,
          "time": 49.84252550000013,
          "velocity": 0.6299212598425197,
          "duration": 0.1111897275390632
        },
        {
          "name": "D#2",
          "midi": 39,
          "time": 49.96063575000013,
          "velocity": 0.6299212598425197,
          "duration": 0.1111897275390632
        },
        {
          "name": "B1",
          "midi": 35,
          "time": 50.07874600000013,
          "velocity": 0.6299212598425197,
          "duration": 0.1111897275390632
        },
        {
          "name": "D#2",
          "midi": 39,
          "time": 50.19685625000013,
          "velocity": 0.6299212598425197,
          "duration": 0.1111897275390632
        },
        {
          "name": "D#2",
          "midi": 39,
          "time": 50.31496650000013,
          "velocity": 0.6299212598425197,
          "duration": 0.23483639550781277
        },
        {
          "name": "D#1",
          "midi": 27,
          "time": 50.31496650000013,
          "velocity": 0.6299212598425197,
          "duration": 0.23483639550781277
        },
        {
          "name": "E2",
          "midi": 40,
          "time": 51.02362800000013,
          "velocity": 0.6299212598425197,
          "duration": 0.11672614550781191
        },
        {
          "name": "E1",
          "midi": 28,
          "time": 51.02362800000013,
          "velocity": 0.6299212598425197,
          "duration": 0.11672614550781191
        },
        {
          "name": "B1",
          "midi": 35,
          "time": 51.14173825000013,
          "velocity": 0.6299212598425197,
          "duration": 0.1111897275390632
        },
        {
          "name": "G#1",
          "midi": 32,
          "time": 51.25984850000013,
          "velocity": 0.6299212598425197,
          "duration": 0.1111897275390632
        },
        {
          "name": "E2",
          "midi": 40,
          "time": 51.37795875000013,
          "velocity": 0.6299212598425197,
          "duration": 0.11672614550781191
        },
        {
          "name": "E1",
          "midi": 28,
          "time": 51.37795875000013,
          "velocity": 0.6299212598425197,
          "duration": 0.11672614550781191
        },
        {
          "name": "B1",
          "midi": 35,
          "time": 51.49606900000013,
          "velocity": 0.6299212598425197,
          "duration": 0.1111897275390632
        },
        {
          "name": "G#1",
          "midi": 32,
          "time": 51.614179250000134,
          "velocity": 0.6299212598425197,
          "duration": 0.1111897275390632
        },
        {
          "name": "F#2",
          "midi": 42,
          "time": 51.732289500000135,
          "velocity": 0.6299212598425197,
          "duration": 0.11672614550781191
        },
        {
          "name": "F#1",
          "midi": 30,
          "time": 51.732289500000135,
          "velocity": 0.6299212598425197,
          "duration": 0.11672614550781191
        },
        {
          "name": "C#2",
          "midi": 37,
          "time": 51.850399750000136,
          "velocity": 0.6299212598425197,
          "duration": 0.1111897275390632
        },
        {
          "name": "F#2",
          "midi": 42,
          "time": 51.96851000000014,
          "velocity": 0.6299212598425197,
          "duration": 0.11672614550781191
        },
        {
          "name": "F#1",
          "midi": 30,
          "time": 51.96851000000014,
          "velocity": 0.6299212598425197,
          "duration": 0.11672614550781191
        },
        {
          "name": "C#2",
          "midi": 37,
          "time": 52.08662025000014,
          "velocity": 0.6299212598425197,
          "duration": 0.1111897275390632
        },
        {
          "name": "F#2",
          "midi": 42,
          "time": 52.20473050000014,
          "velocity": 0.6299212598425197,
          "duration": 0.11672614550781191
        },
        {
          "name": "F#1",
          "midi": 30,
          "time": 52.20473050000014,
          "velocity": 0.6299212598425197,
          "duration": 0.11672614550781191
        },
        {
          "name": "C#2",
          "midi": 37,
          "time": 52.32284075000014,
          "velocity": 0.6299212598425197,
          "duration": 0.1111897275390632
        },
        {
          "name": "G#2",
          "midi": 44,
          "time": 52.44095100000014,
          "velocity": 0.6299212598425197,
          "duration": 0.11672614550781191
        },
        {
          "name": "G#1",
          "midi": 32,
          "time": 52.44095100000014,
          "velocity": 0.6299212598425197,
          "duration": 0.11672614550781191
        },
        {
          "name": "D#2",
          "midi": 39,
          "time": 52.55906125000014,
          "velocity": 0.6299212598425197,
          "duration": 0.1111897275390632
        },
        {
          "name": "C#2",
          "midi": 37,
          "time": 52.67717150000014,
          "velocity": 0.6299212598425197,
          "duration": 0.1111897275390632
        },
        {
          "name": "D#2",
          "midi": 39,
          "time": 52.79528175000014,
          "velocity": 0.6299212598425197,
          "duration": 0.1111897275390632
        },
        {
          "name": "B1",
          "midi": 35,
          "time": 52.913392000000144,
          "velocity": 0.6299212598425197,
          "duration": 0.1111897275390632
        },
        {
          "name": "D#2",
          "midi": 39,
          "time": 53.031502250000145,
          "velocity": 0.6299212598425197,
          "duration": 0.1111897275390632
        },
        {
          "name": "D#2",
          "midi": 39,
          "time": 53.149612500000146,
          "velocity": 0.6299212598425197,
          "duration": 0.23483639550781277
        },
        {
          "name": "D#1",
          "midi": 27,
          "time": 53.149612500000146,
          "velocity": 0.6299212598425197,
          "duration": 0.23483639550781277
        },
        {
          "name": "E2",
          "midi": 40,
          "time": 53.858274000000144,
          "velocity": 0.6299212598425197,
          "duration": 0.11672614550781191
        },
        {
          "name": "E1",
          "midi": 28,
          "time": 53.858274000000144,
          "velocity": 0.6299212598425197,
          "duration": 0.11672614550781191
        },
        {
          "name": "B1",
          "midi": 35,
          "time": 53.976384250000145,
          "velocity": 0.6299212598425197,
          "duration": 0.1111897275390632
        },
        {
          "name": "G#1",
          "midi": 32,
          "time": 54.094494500000145,
          "velocity": 0.6299212598425197,
          "duration": 0.1111897275390632
        },
        {
          "name": "E2",
          "midi": 40,
          "time": 54.212604750000146,
          "velocity": 0.6299212598425197,
          "duration": 0.11672614550781191
        },
        {
          "name": "E1",
          "midi": 28,
          "time": 54.212604750000146,
          "velocity": 0.6299212598425197,
          "duration": 0.11672614550781191
        },
        {
          "name": "B1",
          "midi": 35,
          "time": 54.33071500000015,
          "velocity": 0.6299212598425197,
          "duration": 0.1111897275390632
        },
        {
          "name": "G#1",
          "midi": 32,
          "time": 54.44882525000015,
          "velocity": 0.6299212598425197,
          "duration": 0.1111897275390632
        },
        {
          "name": "F#2",
          "midi": 42,
          "time": 54.56693550000015,
          "velocity": 0.6299212598425197,
          "duration": 0.11672614550781191
        },
        {
          "name": "F#1",
          "midi": 30,
          "time": 54.56693550000015,
          "velocity": 0.6299212598425197,
          "duration": 0.11672614550781191
        },
        {
          "name": "C#2",
          "midi": 37,
          "time": 54.68504575000015,
          "velocity": 0.6299212598425197,
          "duration": 0.1111897275390632
        },
        {
          "name": "F#2",
          "midi": 42,
          "time": 54.80315600000015,
          "velocity": 0.6299212598425197,
          "duration": 0.11672614550781191
        },
        {
          "name": "F#1",
          "midi": 30,
          "time": 54.80315600000015,
          "velocity": 0.6299212598425197,
          "duration": 0.11672614550781191
        },
        {
          "name": "C#2",
          "midi": 37,
          "time": 54.92126625000015,
          "velocity": 0.6299212598425197,
          "duration": 0.1111897275390632
        },
        {
          "name": "F#2",
          "midi": 42,
          "time": 55.03937650000015,
          "velocity": 0.6299212598425197,
          "duration": 0.11672614550781191
        },
        {
          "name": "F#1",
          "midi": 30,
          "time": 55.03937650000015,
          "velocity": 0.6299212598425197,
          "duration": 0.11672614550781191
        },
        {
          "name": "C#2",
          "midi": 37,
          "time": 55.15748675000015,
          "velocity": 0.6299212598425197,
          "duration": 0.1111897275390632
        },
        {
          "name": "G#2",
          "midi": 44,
          "time": 55.275597000000154,
          "velocity": 0.6299212598425197,
          "duration": 0.11672614550781191
        },
        {
          "name": "G#1",
          "midi": 32,
          "time": 55.275597000000154,
          "velocity": 0.6299212598425197,
          "duration": 0.11672614550781191
        },
        {
          "name": "D#2",
          "midi": 39,
          "time": 55.393707250000155,
          "velocity": 0.6299212598425197,
          "duration": 0.1111897275390632
        },
        {
          "name": "C#2",
          "midi": 37,
          "time": 55.511817500000156,
          "velocity": 0.6299212598425197,
          "duration": 0.1111897275390632
        },
        {
          "name": "D#2",
          "midi": 39,
          "time": 55.62992775000016,
          "velocity": 0.6299212598425197,
          "duration": 0.1111897275390632
        },
        {
          "name": "B1",
          "midi": 35,
          "time": 55.74803800000016,
          "velocity": 0.6299212598425197,
          "duration": 0.1111897275390632
        },
        {
          "name": "D#2",
          "midi": 39,
          "time": 55.86614825000016,
          "velocity": 0.6299212598425197,
          "duration": 0.1111897275390632
        },
        {
          "name": "D#2",
          "midi": 39,
          "time": 55.98425850000016,
          "velocity": 0.6299212598425197,
          "duration": 0.23483639550781277
        },
        {
          "name": "D#1",
          "midi": 27,
          "time": 55.98425850000016,
          "velocity": 0.6299212598425197,
          "duration": 0.23483639550781277
        },
        {
          "name": "E2",
          "midi": 40,
          "time": 56.69292000000016,
          "velocity": 0.6299212598425197,
          "duration": 0.11672614550781191
        },
        {
          "name": "E1",
          "midi": 28,
          "time": 56.69292000000016,
          "velocity": 0.6299212598425197,
          "duration": 0.11672614550781191
        },
        {
          "name": "B1",
          "midi": 35,
          "time": 56.81103025000016,
          "velocity": 0.6299212598425197,
          "duration": 0.1111897275390632
        },
        {
          "name": "G#1",
          "midi": 32,
          "time": 56.92914050000016,
          "velocity": 0.6299212598425197,
          "duration": 0.1111897275390632
        },
        {
          "name": "E2",
          "midi": 40,
          "time": 57.04725075000016,
          "velocity": 0.6299212598425197,
          "duration": 0.11672614550781191
        },
        {
          "name": "E1",
          "midi": 28,
          "time": 57.04725075000016,
          "velocity": 0.6299212598425197,
          "duration": 0.11672614550781191
        },
        {
          "name": "B1",
          "midi": 35,
          "time": 57.16536100000016,
          "velocity": 0.6299212598425197,
          "duration": 0.1111897275390632
        },
        {
          "name": "G#1",
          "midi": 32,
          "time": 57.28347125000016,
          "velocity": 0.6299212598425197,
          "duration": 0.1111897275390632
        },
        {
          "name": "F#2",
          "midi": 42,
          "time": 57.40158150000016,
          "velocity": 0.6299212598425197,
          "duration": 0.11672614550781191
        },
        {
          "name": "F#1",
          "midi": 30,
          "time": 57.40158150000016,
          "velocity": 0.6299212598425197,
          "duration": 0.11672614550781191
        },
        {
          "name": "C#2",
          "midi": 37,
          "time": 57.51969175000016,
          "velocity": 0.6299212598425197,
          "duration": 0.1111897275390632
        },
        {
          "name": "F#2",
          "midi": 42,
          "time": 57.637802000000164,
          "velocity": 0.6299212598425197,
          "duration": 0.11672614550781191
        },
        {
          "name": "F#1",
          "midi": 30,
          "time": 57.637802000000164,
          "velocity": 0.6299212598425197,
          "duration": 0.11672614550781191
        },
        {
          "name": "C#2",
          "midi": 37,
          "time": 57.755912250000165,
          "velocity": 0.6299212598425197,
          "duration": 0.1111897275390632
        },
        {
          "name": "F#2",
          "midi": 42,
          "time": 57.874022500000166,
          "velocity": 0.6299212598425197,
          "duration": 0.11672614550781191
        },
        {
          "name": "F#1",
          "midi": 30,
          "time": 57.874022500000166,
          "velocity": 0.6299212598425197,
          "duration": 0.11672614550781191
        },
        {
          "name": "C#2",
          "midi": 37,
          "time": 57.99213275000017,
          "velocity": 0.6299212598425197,
          "duration": 0.1111897275390632
        },
        {
          "name": "G#2",
          "midi": 44,
          "time": 58.11024300000017,
          "velocity": 0.6299212598425197,
          "duration": 0.11672614550781191
        },
        {
          "name": "G#1",
          "midi": 32,
          "time": 58.11024300000017,
          "velocity": 0.6299212598425197,
          "duration": 0.11672614550781191
        },
        {
          "name": "D#2",
          "midi": 39,
          "time": 58.22835325000017,
          "velocity": 0.6299212598425197,
          "duration": 0.1111897275390632
        },
        {
          "name": "C#2",
          "midi": 37,
          "time": 58.34646350000017,
          "velocity": 0.6299212598425197,
          "duration": 0.1111897275390632
        },
        {
          "name": "D#2",
          "midi": 39,
          "time": 58.46457375000017,
          "velocity": 0.6299212598425197,
          "duration": 0.1111897275390632
        },
        {
          "name": "B1",
          "midi": 35,
          "time": 58.58268400000017,
          "velocity": 0.6299212598425197,
          "duration": 0.1111897275390632
        },
        {
          "name": "D#2",
          "midi": 39,
          "time": 58.70079425000017,
          "velocity": 0.6299212598425197,
          "duration": 0.1111897275390632
        },
        {
          "name": "D#2",
          "midi": 39,
          "time": 58.81890450000017,
          "velocity": 0.6299212598425197,
          "duration": 0.23483639550781277
        },
        {
          "name": "D#1",
          "midi": 27,
          "time": 58.81890450000017,
          "velocity": 0.6299212598425197,
          "duration": 0.23483639550781277
        },
        {
          "name": "E2",
          "midi": 40,
          "time": 59.52756600000017,
          "velocity": 0.6299212598425197,
          "duration": 0.11672614550781191
        },
        {
          "name": "E1",
          "midi": 28,
          "time": 59.52756600000017,
          "velocity": 0.6299212598425197,
          "duration": 0.11672614550781191
        },
        {
          "name": "B1",
          "midi": 35,
          "time": 59.64567625000017,
          "velocity": 0.6299212598425197,
          "duration": 0.1111897275390632
        },
        {
          "name": "G#1",
          "midi": 32,
          "time": 59.76378650000017,
          "velocity": 0.6299212598425197,
          "duration": 0.1111897275390632
        },
        {
          "name": "E2",
          "midi": 40,
          "time": 59.88189675000017,
          "velocity": 0.6299212598425197,
          "duration": 0.11672614550781191
        },
        {
          "name": "E1",
          "midi": 28,
          "time": 59.88189675000017,
          "velocity": 0.6299212598425197,
          "duration": 0.11672614550781191
        },
        {
          "name": "B1",
          "midi": 35,
          "time": 60.000007000000174,
          "velocity": 0.6299212598425197,
          "duration": 0.1111897275390632
        },
        {
          "name": "G#1",
          "midi": 32,
          "time": 60.118117250000175,
          "velocity": 0.6299212598425197,
          "duration": 0.1111897275390632
        },
        {
          "name": "D#2",
          "midi": 39,
          "time": 60.236227500000176,
          "velocity": 0.6299212598425197,
          "duration": 0.11672614550781191
        },
        {
          "name": "D#1",
          "midi": 27,
          "time": 60.236227500000176,
          "velocity": 0.6299212598425197,
          "duration": 0.7072773955078162
        },
        {
          "name": "C#2",
          "midi": 37,
          "time": 60.35433775000018,
          "velocity": 0.6299212598425197,
          "duration": 0.1111897275390632
        },
        {
          "name": "D#2",
          "midi": 39,
          "time": 60.47244800000018,
          "velocity": 0.6299212598425197,
          "duration": 0.11672614550781191
        },
        {
          "name": "C#2",
          "midi": 37,
          "time": 60.59055825000018,
          "velocity": 0.6299212598425197,
          "duration": 0.1111897275390632
        },
        {
          "name": "D#2",
          "midi": 39,
          "time": 60.70866850000018,
          "velocity": 0.6299212598425197,
          "duration": 0.11672614550781191
        },
        {
          "name": "C#2",
          "midi": 37,
          "time": 60.82677875000018,
          "velocity": 0.6299212598425197,
          "duration": 0.1111897275390632
        },
        {
          "name": "G#1",
          "midi": 32,
          "time": 72.28347300000019,
          "velocity": 0.6299212598425197,
          "duration": 0.11672614550781191
        },
        {
          "name": "G#2",
          "midi": 44,
          "time": 72.28347300000019,
          "velocity": 0.6299212598425197,
          "duration": 0.11672614550781191
        },
        {
          "name": "D#2",
          "midi": 39,
          "time": 72.40158325000019,
          "velocity": 0.6299212598425197,
          "duration": 0.1111897275390561
        },
        {
          "name": "C#2",
          "midi": 37,
          "time": 72.51969350000017,
          "velocity": 0.6299212598425197,
          "duration": 0.1111897275390561
        },
        {
          "name": "D#2",
          "midi": 39,
          "time": 72.63780375000016,
          "velocity": 0.6299212598425197,
          "duration": 0.1111897275390561
        },
        {
          "name": "B1",
          "midi": 35,
          "time": 72.75591400000015,
          "velocity": 0.6299212598425197,
          "duration": 0.1111897275390561
        },
        {
          "name": "D#2",
          "midi": 39,
          "time": 72.87402425000013,
          "velocity": 0.6299212598425197,
          "duration": 0.1111897275390561
        },
        {
          "name": "D#1",
          "midi": 27,
          "time": 72.99213450000012,
          "velocity": 0.6299212598425197,
          "duration": 0.23483639550781277
        },
        {
          "name": "D#2",
          "midi": 39,
          "time": 72.99213450000012,
          "velocity": 0.6299212598425197,
          "duration": 0.23483639550781277
        },
        {
          "name": "E1",
          "midi": 28,
          "time": 73.70079600000012,
          "velocity": 0.6299212598425197,
          "duration": 0.11672614550781191
        },
        {
          "name": "E2",
          "midi": 40,
          "time": 73.70079600000012,
          "velocity": 0.6299212598425197,
          "duration": 0.11672614550781191
        },
        {
          "name": "B1",
          "midi": 35,
          "time": 73.81890625000013,
          "velocity": 0.6299212598425197,
          "duration": 0.1111897275390561
        },
        {
          "name": "G#1",
          "midi": 32,
          "time": 73.93701650000011,
          "velocity": 0.6299212598425197,
          "duration": 0.1111897275390561
        },
        {
          "name": "E1",
          "midi": 28,
          "time": 74.0551267500001,
          "velocity": 0.6299212598425197,
          "duration": 0.11672614550781191
        },
        {
          "name": "E2",
          "midi": 40,
          "time": 74.0551267500001,
          "velocity": 0.6299212598425197,
          "duration": 0.11672614550781191
        },
        {
          "name": "B1",
          "midi": 35,
          "time": 74.1732370000001,
          "velocity": 0.6299212598425197,
          "duration": 0.1111897275390561
        },
        {
          "name": "G#1",
          "midi": 32,
          "time": 74.29134725000009,
          "velocity": 0.6299212598425197,
          "duration": 0.1111897275390561
        },
        {
          "name": "F#1",
          "midi": 30,
          "time": 74.40945750000007,
          "velocity": 0.6299212598425197,
          "duration": 0.11672614550781191
        },
        {
          "name": "F#2",
          "midi": 42,
          "time": 74.40945750000007,
          "velocity": 0.6299212598425197,
          "duration": 0.11672614550781191
        },
        {
          "name": "C#2",
          "midi": 37,
          "time": 74.52756775000007,
          "velocity": 0.6299212598425197,
          "duration": 0.1111897275390561
        },
        {
          "name": "F#1",
          "midi": 30,
          "time": 74.64567800000006,
          "velocity": 0.6299212598425197,
          "duration": 0.11672614550781191
        },
        {
          "name": "F#2",
          "midi": 42,
          "time": 74.64567800000006,
          "velocity": 0.6299212598425197,
          "duration": 0.11672614550781191
        },
        {
          "name": "C#2",
          "midi": 37,
          "time": 74.76378825000006,
          "velocity": 0.6299212598425197,
          "duration": 0.1111897275390561
        },
        {
          "name": "F#1",
          "midi": 30,
          "time": 74.88189850000005,
          "velocity": 0.6299212598425197,
          "duration": 0.11672614550781191
        },
        {
          "name": "F#2",
          "midi": 42,
          "time": 74.88189850000005,
          "velocity": 0.6299212598425197,
          "duration": 0.11672614550781191
        },
        {
          "name": "C#2",
          "midi": 37,
          "time": 75.00000875000005,
          "velocity": 0.6299212598425197,
          "duration": 0.1111897275390561
        },
        {
          "name": "G#1",
          "midi": 32,
          "time": 75.11811900000004,
          "velocity": 0.6299212598425197,
          "duration": 0.11672614550781191
        },
        {
          "name": "G#2",
          "midi": 44,
          "time": 75.11811900000004,
          "velocity": 0.6299212598425197,
          "duration": 0.11672614550781191
        },
        {
          "name": "D#2",
          "midi": 39,
          "time": 75.23622925000004,
          "velocity": 0.6299212598425197,
          "duration": 0.1111897275390561
        },
        {
          "name": "C#2",
          "midi": 37,
          "time": 75.35433950000002,
          "velocity": 0.6299212598425197,
          "duration": 0.1111897275390561
        },
        {
          "name": "D#2",
          "midi": 39,
          "time": 75.47244975000001,
          "velocity": 0.6299212598425197,
          "duration": 0.1111897275390561
        },
        {
          "name": "B1",
          "midi": 35,
          "time": 75.59056,
          "velocity": 0.6299212598425197,
          "duration": 0.1111897275390561
        },
        {
          "name": "D#2",
          "midi": 39,
          "time": 75.70867024999998,
          "velocity": 0.6299212598425197,
          "duration": 0.1111897275390561
        },
        {
          "name": "D#1",
          "midi": 27,
          "time": 75.82678049999997,
          "velocity": 0.6299212598425197,
          "duration": 0.23483639550781277
        },
        {
          "name": "D#2",
          "midi": 39,
          "time": 75.82678049999997,
          "velocity": 0.6299212598425197,
          "duration": 0.23483639550781277
        },
        {
          "name": "E1",
          "midi": 28,
          "time": 76.53544199999997,
          "velocity": 0.6299212598425197,
          "duration": 0.11672614550781191
        },
        {
          "name": "E2",
          "midi": 40,
          "time": 76.53544199999997,
          "velocity": 0.6299212598425197,
          "duration": 0.11672614550781191
        },
        {
          "name": "B1",
          "midi": 35,
          "time": 76.65355224999998,
          "velocity": 0.6299212598425197,
          "duration": 0.1111897275390561
        },
        {
          "name": "G#1",
          "midi": 32,
          "time": 76.77166249999996,
          "velocity": 0.6299212598425197,
          "duration": 0.1111897275390561
        },
        {
          "name": "E1",
          "midi": 28,
          "time": 76.88977274999995,
          "velocity": 0.6299212598425197,
          "duration": 0.11672614550781191
        },
        {
          "name": "E2",
          "midi": 40,
          "time": 76.88977274999995,
          "velocity": 0.6299212598425197,
          "duration": 0.11672614550781191
        },
        {
          "name": "B1",
          "midi": 35,
          "time": 77.00788299999995,
          "velocity": 0.6299212598425197,
          "duration": 0.1111897275390561
        },
        {
          "name": "G#1",
          "midi": 32,
          "time": 77.12599324999994,
          "velocity": 0.6299212598425197,
          "duration": 0.1111897275390561
        },
        {
          "name": "F#1",
          "midi": 30,
          "time": 77.24410349999992,
          "velocity": 0.6299212598425197,
          "duration": 0.11672614550781191
        },
        {
          "name": "F#2",
          "midi": 42,
          "time": 77.24410349999992,
          "velocity": 0.6299212598425197,
          "duration": 0.11672614550781191
        },
        {
          "name": "C#2",
          "midi": 37,
          "time": 77.36221374999992,
          "velocity": 0.6299212598425197,
          "duration": 0.1111897275390561
        },
        {
          "name": "F#1",
          "midi": 30,
          "time": 77.48032399999991,
          "velocity": 0.6299212598425197,
          "duration": 0.11672614550781191
        },
        {
          "name": "F#2",
          "midi": 42,
          "time": 77.48032399999991,
          "velocity": 0.6299212598425197,
          "duration": 0.11672614550781191
        },
        {
          "name": "C#2",
          "midi": 37,
          "time": 77.59843424999991,
          "velocity": 0.6299212598425197,
          "duration": 0.1111897275390561
        },
        {
          "name": "F#1",
          "midi": 30,
          "time": 77.7165444999999,
          "velocity": 0.6299212598425197,
          "duration": 0.11672614550781191
        },
        {
          "name": "F#2",
          "midi": 42,
          "time": 77.7165444999999,
          "velocity": 0.6299212598425197,
          "duration": 0.11672614550781191
        },
        {
          "name": "C#2",
          "midi": 37,
          "time": 77.8346547499999,
          "velocity": 0.6299212598425197,
          "duration": 0.1111897275390561
        },
        {
          "name": "G#1",
          "midi": 32,
          "time": 77.95276499999989,
          "velocity": 0.6299212598425197,
          "duration": 0.11672614550781191
        },
        {
          "name": "G#2",
          "midi": 44,
          "time": 77.95276499999989,
          "velocity": 0.6299212598425197,
          "duration": 0.11672614550781191
        },
        {
          "name": "D#2",
          "midi": 39,
          "time": 78.07087524999989,
          "velocity": 0.6299212598425197,
          "duration": 0.1111897275390561
        },
        {
          "name": "C#2",
          "midi": 37,
          "time": 78.18898549999987,
          "velocity": 0.6299212598425197,
          "duration": 0.1111897275390561
        },
        {
          "name": "D#2",
          "midi": 39,
          "time": 78.30709574999986,
          "velocity": 0.6299212598425197,
          "duration": 0.1111897275390561
        },
        {
          "name": "B1",
          "midi": 35,
          "time": 78.42520599999985,
          "velocity": 0.6299212598425197,
          "duration": 0.1111897275390561
        },
        {
          "name": "D#2",
          "midi": 39,
          "time": 78.54331624999983,
          "velocity": 0.6299212598425197,
          "duration": 0.1111897275390561
        },
        {
          "name": "D#1",
          "midi": 27,
          "time": 78.66142649999982,
          "velocity": 0.6299212598425197,
          "duration": 0.23483639550781277
        },
        {
          "name": "D#2",
          "midi": 39,
          "time": 78.66142649999982,
          "velocity": 0.6299212598425197,
          "duration": 0.23483639550781277
        },
        {
          "name": "E1",
          "midi": 28,
          "time": 79.37008799999983,
          "velocity": 0.6299212598425197,
          "duration": 0.11672614550781191
        },
        {
          "name": "E2",
          "midi": 40,
          "time": 79.37008799999983,
          "velocity": 0.6299212598425197,
          "duration": 0.11672614550781191
        },
        {
          "name": "B1",
          "midi": 35,
          "time": 79.48819824999983,
          "velocity": 0.6299212598425197,
          "duration": 0.1111897275390561
        },
        {
          "name": "G#1",
          "midi": 32,
          "time": 79.60630849999981,
          "velocity": 0.6299212598425197,
          "duration": 0.1111897275390561
        },
        {
          "name": "E1",
          "midi": 28,
          "time": 79.7244187499998,
          "velocity": 0.6299212598425197,
          "duration": 0.11672614550781191
        },
        {
          "name": "E2",
          "midi": 40,
          "time": 79.7244187499998,
          "velocity": 0.6299212598425197,
          "duration": 0.11672614550781191
        },
        {
          "name": "B1",
          "midi": 35,
          "time": 79.8425289999998,
          "velocity": 0.6299212598425197,
          "duration": 0.1111897275390561
        },
        {
          "name": "G#1",
          "midi": 32,
          "time": 79.96063924999979,
          "velocity": 0.6299212598425197,
          "duration": 0.1111897275390561
        },
        {
          "name": "F#1",
          "midi": 30,
          "time": 80.07874949999977,
          "velocity": 0.6299212598425197,
          "duration": 0.11672614550781191
        },
        {
          "name": "F#2",
          "midi": 42,
          "time": 80.07874949999977,
          "velocity": 0.6299212598425197,
          "duration": 0.11672614550781191
        },
        {
          "name": "C#2",
          "midi": 37,
          "time": 80.19685974999977,
          "velocity": 0.6299212598425197,
          "duration": 0.1111897275390561
        },
        {
          "name": "F#1",
          "midi": 30,
          "time": 80.31496999999976,
          "velocity": 0.6299212598425197,
          "duration": 0.11672614550781191
        },
        {
          "name": "F#2",
          "midi": 42,
          "time": 80.31496999999976,
          "velocity": 0.6299212598425197,
          "duration": 0.11672614550781191
        },
        {
          "name": "C#2",
          "midi": 37,
          "time": 80.43308024999976,
          "velocity": 0.6299212598425197,
          "duration": 0.1111897275390561
        },
        {
          "name": "F#1",
          "midi": 30,
          "time": 80.55119049999975,
          "velocity": 0.6299212598425197,
          "duration": 0.11672614550781191
        },
        {
          "name": "F#2",
          "midi": 42,
          "time": 80.55119049999975,
          "velocity": 0.6299212598425197,
          "duration": 0.11672614550781191
        },
        {
          "name": "C#2",
          "midi": 37,
          "time": 80.66930074999975,
          "velocity": 0.6299212598425197,
          "duration": 0.1111897275390561
        },
        {
          "name": "G#1",
          "midi": 32,
          "time": 80.78741099999974,
          "velocity": 0.6299212598425197,
          "duration": 0.11672614550781191
        },
        {
          "name": "G#2",
          "midi": 44,
          "time": 80.78741099999974,
          "velocity": 0.6299212598425197,
          "duration": 0.11672614550781191
        },
        {
          "name": "D#2",
          "midi": 39,
          "time": 80.90552124999974,
          "velocity": 0.6299212598425197,
          "duration": 0.1111897275390561
        },
        {
          "name": "C#2",
          "midi": 37,
          "time": 81.02363149999972,
          "velocity": 0.6299212598425197,
          "duration": 0.1111897275390561
        },
        {
          "name": "D#2",
          "midi": 39,
          "time": 81.14174174999971,
          "velocity": 0.6299212598425197,
          "duration": 0.1111897275390561
        },
        {
          "name": "B1",
          "midi": 35,
          "time": 81.2598519999997,
          "velocity": 0.6299212598425197,
          "duration": 0.1111897275390561
        },
        {
          "name": "D#2",
          "midi": 39,
          "time": 81.37796224999968,
          "velocity": 0.6299212598425197,
          "duration": 0.1111897275390561
        },
        {
          "name": "D#1",
          "midi": 27,
          "time": 81.49607249999967,
          "velocity": 0.6299212598425197,
          "duration": 0.23483639550781277
        },
        {
          "name": "D#2",
          "midi": 39,
          "time": 81.49607249999967,
          "velocity": 0.6299212598425197,
          "duration": 0.23483639550781277
        },
        {
          "name": "E1",
          "midi": 28,
          "time": 82.20473399999968,
          "velocity": 0.6299212598425197,
          "duration": 0.11672614550781191
        },
        {
          "name": "E2",
          "midi": 40,
          "time": 82.20473399999968,
          "velocity": 0.6299212598425197,
          "duration": 0.11672614550781191
        },
        {
          "name": "B1",
          "midi": 35,
          "time": 82.32284424999968,
          "velocity": 0.6299212598425197,
          "duration": 0.1111897275390561
        },
        {
          "name": "G#1",
          "midi": 32,
          "time": 82.44095449999966,
          "velocity": 0.6299212598425197,
          "duration": 0.1111897275390561
        },
        {
          "name": "E1",
          "midi": 28,
          "time": 82.55906474999965,
          "velocity": 0.6299212598425197,
          "duration": 0.11672614550781191
        },
        {
          "name": "E2",
          "midi": 40,
          "time": 82.55906474999965,
          "velocity": 0.6299212598425197,
          "duration": 0.11672614550781191
        },
        {
          "name": "B1",
          "midi": 35,
          "time": 82.67717499999965,
          "velocity": 0.6299212598425197,
          "duration": 0.1111897275390561
        },
        {
          "name": "G#1",
          "midi": 32,
          "time": 82.79528524999964,
          "velocity": 0.6299212598425197,
          "duration": 0.1111897275390561
        },
        {
          "name": "D#1",
          "midi": 27,
          "time": 82.91339549999962,
          "velocity": 0.6299212598425197,
          "duration": 0.7072773955077878
        },
        {
          "name": "D#2",
          "midi": 39,
          "time": 82.91339549999962,
          "velocity": 0.6299212598425197,
          "duration": 0.11672614550781191
        },
        {
          "name": "C#2",
          "midi": 37,
          "time": 83.03150574999962,
          "velocity": 0.6299212598425197,
          "duration": 0.1111897275390561
        },
        {
          "name": "D#2",
          "midi": 39,
          "time": 83.14961599999961,
          "velocity": 0.6299212598425197,
          "duration": 0.11672614550781191
        },
        {
          "name": "C#2",
          "midi": 37,
          "time": 83.26772624999961,
          "velocity": 0.6299212598425197,
          "duration": 0.1111897275390561
        },
        {
          "name": "D#2",
          "midi": 39,
          "time": 83.3858364999996,
          "velocity": 0.6299212598425197,
          "duration": 0.11672614550781191
        },
        {
          "name": "C#2",
          "midi": 37,
          "time": 83.5039467499996,
          "velocity": 0.6299212598425197,
          "duration": 0.1111897275390561
        }
      ],
      "controlChanges": {
        "7": [
          {
            "number": 7,
            "time": 0,
            "value": 1
          },
          {
            "number": 7,
            "time": 0,
            "value": 1
          },
          {
            "number": 7,
            "time": 0,
            "value": 0.7874015748031497
          },
          {
            "number": 7,
            "time": 0,
            "value": 1
          },
          {
            "number": 7,
            "time": 0,
            "value": 1
          }
        ],
        "32": [
          {
            "number": 32,
            "time": 0,
            "value": 0
          },
          {
            "number": 32,
            "time": 0,
            "value": 0
          },
          {
            "number": 32,
            "time": 0,
            "value": 0
          },
          {
            "number": 32,
            "time": 0,
            "value": 0
          }
        ]
      },
      "id": 6,
      "name": "Untitled",
      "instrumentNumber": 37,
      "instrument": "slap bass 2",
      "instrumentFamily": "bass",
      "channelNumber": 5,
      "isPercussion": false
    },
    {
      "startTime": 38.267721,
      "duration": 117.63734763183523,
      "length": 659,
      "notes": [
        {
          "name": "G#2",
          "midi": 44,
          "time": 38.267721,
          "velocity": 0.5511811023622047,
          "duration": 0.1111897275390632
        },
        {
          "name": "D#3",
          "midi": 51,
          "time": 38.38583125,
          "velocity": 0.5511811023622047,
          "duration": 0.1111897275390632
        },
        {
          "name": "G#3",
          "midi": 56,
          "time": 38.5039415,
          "velocity": 0.5511811023622047,
          "duration": 0.1111897275390632
        },
        {
          "name": "G#2",
          "midi": 44,
          "time": 38.622051750000004,
          "velocity": 0.5511811023622047,
          "duration": 0.1111897275390632
        },
        {
          "name": "D#3",
          "midi": 51,
          "time": 38.740162000000005,
          "velocity": 0.5511811023622047,
          "duration": 0.1111897275390632
        },
        {
          "name": "G#3",
          "midi": 56,
          "time": 38.858272250000006,
          "velocity": 0.5511811023622047,
          "duration": 0.1111897275390632
        },
        {
          "name": "C#2",
          "midi": 37,
          "time": 38.97638250000001,
          "velocity": 0.5511811023622047,
          "duration": 0.11672614550781191
        },
        {
          "name": "D#2",
          "midi": 39,
          "time": 39.21260300000001,
          "velocity": 0.5511811023622047,
          "duration": 0.23483639550781277
        },
        {
          "name": "D#2",
          "midi": 39,
          "time": 39.44882350000001,
          "velocity": 0.5511811023622047,
          "duration": 0.23483639550781277
        },
        {
          "name": "G#2",
          "midi": 44,
          "time": 39.68504400000001,
          "velocity": 0.5511811023622047,
          "duration": 0.1111897275390632
        },
        {
          "name": "D#3",
          "midi": 51,
          "time": 39.80315425000001,
          "velocity": 0.5511811023622047,
          "duration": 0.1111897275390632
        },
        {
          "name": "G#3",
          "midi": 56,
          "time": 39.921264500000014,
          "velocity": 0.5511811023622047,
          "duration": 0.1111897275390632
        },
        {
          "name": "G#2",
          "midi": 44,
          "time": 40.039374750000015,
          "velocity": 0.5511811023622047,
          "duration": 0.1111897275390632
        },
        {
          "name": "D#3",
          "midi": 51,
          "time": 40.157485000000015,
          "velocity": 0.5511811023622047,
          "duration": 0.1111897275390632
        },
        {
          "name": "G#3",
          "midi": 56,
          "time": 40.275595250000016,
          "velocity": 0.5511811023622047,
          "duration": 0.1111897275390632
        },
        {
          "name": "C#2",
          "midi": 37,
          "time": 40.39370550000002,
          "velocity": 0.5511811023622047,
          "duration": 0.11672614550781191
        },
        {
          "name": "D#2",
          "midi": 39,
          "time": 40.62992600000002,
          "velocity": 0.5511811023622047,
          "duration": 0.23483639550781277
        },
        {
          "name": "D#2",
          "midi": 39,
          "time": 40.86614650000002,
          "velocity": 0.5511811023622047,
          "duration": 0.23483639550781277
        },
        {
          "name": "G#2",
          "midi": 44,
          "time": 41.10236700000002,
          "velocity": 0.5511811023622047,
          "duration": 0.1111897275390632
        },
        {
          "name": "D#3",
          "midi": 51,
          "time": 41.22047725000002,
          "velocity": 0.5511811023622047,
          "duration": 0.1111897275390632
        },
        {
          "name": "G#3",
          "midi": 56,
          "time": 41.338587500000024,
          "velocity": 0.5511811023622047,
          "duration": 0.1111897275390632
        },
        {
          "name": "G#2",
          "midi": 44,
          "time": 41.456697750000025,
          "velocity": 0.5511811023622047,
          "duration": 0.1111897275390632
        },
        {
          "name": "D#3",
          "midi": 51,
          "time": 41.574808000000026,
          "velocity": 0.5511811023622047,
          "duration": 0.1111897275390632
        },
        {
          "name": "G#3",
          "midi": 56,
          "time": 41.69291825000003,
          "velocity": 0.5511811023622047,
          "duration": 0.1111897275390632
        },
        {
          "name": "C#2",
          "midi": 37,
          "time": 41.81102850000003,
          "velocity": 0.5511811023622047,
          "duration": 0.1111897275390632
        },
        {
          "name": "G#2",
          "midi": 44,
          "time": 41.92913875000003,
          "velocity": 0.5511811023622047,
          "duration": 0.1111897275390632
        },
        {
          "name": "C#3",
          "midi": 49,
          "time": 42.04724900000003,
          "velocity": 0.5511811023622047,
          "duration": 0.1111897275390632
        },
        {
          "name": "C#2",
          "midi": 37,
          "time": 42.16535925000003,
          "velocity": 0.5511811023622047,
          "duration": 0.1111897275390632
        },
        {
          "name": "G#2",
          "midi": 44,
          "time": 42.28346950000003,
          "velocity": 0.5511811023622047,
          "duration": 0.1111897275390632
        },
        {
          "name": "C#3",
          "midi": 49,
          "time": 42.40157975000003,
          "velocity": 0.5511811023622047,
          "duration": 0.1111897275390632
        },
        {
          "name": "D#2",
          "midi": 39,
          "time": 42.51969000000003,
          "velocity": 0.5511811023622047,
          "duration": 0.1111897275390632
        },
        {
          "name": "A#2",
          "midi": 46,
          "time": 42.63780025000003,
          "velocity": 0.5511811023622047,
          "duration": 0.1111897275390632
        },
        {
          "name": "D#3",
          "midi": 51,
          "time": 42.755910500000034,
          "velocity": 0.5511811023622047,
          "duration": 0.1111897275390632
        },
        {
          "name": "D#2",
          "midi": 39,
          "time": 42.874020750000035,
          "velocity": 0.5511811023622047,
          "duration": 0.11672614550781191
        },
        {
          "name": "D#2",
          "midi": 39,
          "time": 43.11024125000004,
          "velocity": 0.5511811023622047,
          "duration": 0.1111897275390632
        },
        {
          "name": "E2",
          "midi": 40,
          "time": 43.22835150000004,
          "velocity": 0.5511811023622047,
          "duration": 0.23483639550781277
        },
        {
          "name": "E2",
          "midi": 40,
          "time": 43.46457200000004,
          "velocity": 0.5511811023622047,
          "duration": 0.23483639550781277
        },
        {
          "name": "D#2",
          "midi": 39,
          "time": 43.70079250000004,
          "velocity": 0.5511811023622047,
          "duration": 0.23483639550781277
        },
        {
          "name": "G#2",
          "midi": 44,
          "time": 43.93701300000004,
          "velocity": 0.5511811023622047,
          "duration": 0.1111897275390632
        },
        {
          "name": "D#3",
          "midi": 51,
          "time": 44.055123250000044,
          "velocity": 0.5511811023622047,
          "duration": 0.1111897275390632
        },
        {
          "name": "G#3",
          "midi": 56,
          "time": 44.173233500000045,
          "velocity": 0.5511811023622047,
          "duration": 0.1111897275390632
        },
        {
          "name": "G#2",
          "midi": 44,
          "time": 44.291343750000046,
          "velocity": 0.5511811023622047,
          "duration": 0.1111897275390632
        },
        {
          "name": "D#3",
          "midi": 51,
          "time": 44.409454000000046,
          "velocity": 0.5511811023622047,
          "duration": 0.1111897275390632
        },
        {
          "name": "G#3",
          "midi": 56,
          "time": 44.52756425000005,
          "velocity": 0.5511811023622047,
          "duration": 0.1111897275390632
        },
        {
          "name": "C#2",
          "midi": 37,
          "time": 44.64567450000005,
          "velocity": 0.5511811023622047,
          "duration": 0.11672614550781191
        },
        {
          "name": "D#2",
          "midi": 39,
          "time": 44.88189500000005,
          "velocity": 0.5511811023622047,
          "duration": 0.23483639550781277
        },
        {
          "name": "D#2",
          "midi": 39,
          "time": 45.11811550000005,
          "velocity": 0.5511811023622047,
          "duration": 0.23483639550781277
        },
        {
          "name": "G#2",
          "midi": 44,
          "time": 45.35433600000005,
          "velocity": 0.5511811023622047,
          "duration": 0.1111897275390632
        },
        {
          "name": "D#3",
          "midi": 51,
          "time": 45.472446250000054,
          "velocity": 0.5511811023622047,
          "duration": 0.1111897275390632
        },
        {
          "name": "G#3",
          "midi": 56,
          "time": 45.590556500000055,
          "velocity": 0.5511811023622047,
          "duration": 0.1111897275390632
        },
        {
          "name": "G#2",
          "midi": 44,
          "time": 45.708666750000056,
          "velocity": 0.5511811023622047,
          "duration": 0.1111897275390632
        },
        {
          "name": "D#3",
          "midi": 51,
          "time": 45.82677700000006,
          "velocity": 0.5511811023622047,
          "duration": 0.1111897275390632
        },
        {
          "name": "G#3",
          "midi": 56,
          "time": 45.94488725000006,
          "velocity": 0.5511811023622047,
          "duration": 0.1111897275390632
        },
        {
          "name": "C#2",
          "midi": 37,
          "time": 46.06299750000006,
          "velocity": 0.5511811023622047,
          "duration": 0.11672614550781191
        },
        {
          "name": "D#2",
          "midi": 39,
          "time": 46.29921800000006,
          "velocity": 0.5511811023622047,
          "duration": 0.23483639550781277
        },
        {
          "name": "D#2",
          "midi": 39,
          "time": 46.53543850000006,
          "velocity": 0.5511811023622047,
          "duration": 0.23483639550781277
        },
        {
          "name": "G#2",
          "midi": 44,
          "time": 46.771659000000064,
          "velocity": 0.5511811023622047,
          "duration": 0.1111897275390632
        },
        {
          "name": "D#3",
          "midi": 51,
          "time": 46.889769250000064,
          "velocity": 0.5511811023622047,
          "duration": 0.1111897275390632
        },
        {
          "name": "G#3",
          "midi": 56,
          "time": 47.007879500000065,
          "velocity": 0.5511811023622047,
          "duration": 0.1111897275390632
        },
        {
          "name": "G#2",
          "midi": 44,
          "time": 47.125989750000066,
          "velocity": 0.5511811023622047,
          "duration": 0.1111897275390632
        },
        {
          "name": "D#3",
          "midi": 51,
          "time": 47.24410000000007,
          "velocity": 0.5511811023622047,
          "duration": 0.1111897275390632
        },
        {
          "name": "G#3",
          "midi": 56,
          "time": 47.36221025000007,
          "velocity": 0.5511811023622047,
          "duration": 0.1111897275390632
        },
        {
          "name": "C#2",
          "midi": 37,
          "time": 47.48032050000007,
          "velocity": 0.5511811023622047,
          "duration": 0.1111897275390632
        },
        {
          "name": "G#2",
          "midi": 44,
          "time": 47.59843075000007,
          "velocity": 0.5511811023622047,
          "duration": 0.1111897275390632
        },
        {
          "name": "C#3",
          "midi": 49,
          "time": 47.71654100000007,
          "velocity": 0.5511811023622047,
          "duration": 0.1111897275390632
        },
        {
          "name": "C#2",
          "midi": 37,
          "time": 47.83465125000007,
          "velocity": 0.5511811023622047,
          "duration": 0.1111897275390632
        },
        {
          "name": "G#2",
          "midi": 44,
          "time": 47.95276150000007,
          "velocity": 0.5511811023622047,
          "duration": 0.1111897275390632
        },
        {
          "name": "C#3",
          "midi": 49,
          "time": 48.07087175000007,
          "velocity": 0.5511811023622047,
          "duration": 0.1111897275390632
        },
        {
          "name": "D#2",
          "midi": 39,
          "time": 48.188982000000074,
          "velocity": 0.5511811023622047,
          "duration": 0.1111897275390632
        },
        {
          "name": "A#2",
          "midi": 46,
          "time": 48.307092250000075,
          "velocity": 0.5511811023622047,
          "duration": 0.1111897275390632
        },
        {
          "name": "D#3",
          "midi": 51,
          "time": 48.425202500000076,
          "velocity": 0.5511811023622047,
          "duration": 0.1111897275390632
        },
        {
          "name": "D#2",
          "midi": 39,
          "time": 48.54331275000008,
          "velocity": 0.5511811023622047,
          "duration": 0.11672614550781191
        },
        {
          "name": "D#2",
          "midi": 39,
          "time": 48.77953325000008,
          "velocity": 0.5511811023622047,
          "duration": 0.1111897275390632
        },
        {
          "name": "E2",
          "midi": 40,
          "time": 48.89764350000008,
          "velocity": 0.5511811023622047,
          "duration": 0.23483639550781277
        },
        {
          "name": "E3",
          "midi": 52,
          "time": 48.89764350000008,
          "velocity": 0.5511811023622047,
          "duration": 0.23483639550781277
        },
        {
          "name": "E2",
          "midi": 40,
          "time": 49.13386400000008,
          "velocity": 0.5511811023622047,
          "duration": 0.23483639550781277
        },
        {
          "name": "E3",
          "midi": 52,
          "time": 49.13386400000008,
          "velocity": 0.5511811023622047,
          "duration": 0.23483639550781277
        },
        {
          "name": "D#2",
          "midi": 39,
          "time": 49.37008450000008,
          "velocity": 0.5511811023622047,
          "duration": 0.23483639550781277
        },
        {
          "name": "D#3",
          "midi": 51,
          "time": 49.37008450000008,
          "velocity": 0.5511811023622047,
          "duration": 0.23483639550781277
        },
        {
          "name": "G#2",
          "midi": 44,
          "time": 49.606305000000084,
          "velocity": 0.5511811023622047,
          "duration": 0.11672614550781191
        },
        {
          "name": "G#3",
          "midi": 56,
          "time": 49.606305000000084,
          "velocity": 0.5511811023622047,
          "duration": 0.11672614550781191
        },
        {
          "name": "D#3",
          "midi": 51,
          "time": 49.724415250000085,
          "velocity": 0.5511811023622047,
          "duration": 0.1111897275390632
        },
        {
          "name": "C#3",
          "midi": 49,
          "time": 49.842525500000086,
          "velocity": 0.5511811023622047,
          "duration": 0.1111897275390632
        },
        {
          "name": "D#3",
          "midi": 51,
          "time": 49.96063575000009,
          "velocity": 0.5511811023622047,
          "duration": 0.1111897275390632
        },
        {
          "name": "B2",
          "midi": 47,
          "time": 50.07874600000009,
          "velocity": 0.5511811023622047,
          "duration": 0.1111897275390632
        },
        {
          "name": "D#3",
          "midi": 51,
          "time": 50.19685625000009,
          "velocity": 0.5511811023622047,
          "duration": 0.1111897275390632
        },
        {
          "name": "D#2",
          "midi": 39,
          "time": 50.31496650000009,
          "velocity": 0.5511811023622047,
          "duration": 0.23483639550781277
        },
        {
          "name": "D#3",
          "midi": 51,
          "time": 50.31496650000009,
          "velocity": 0.5511811023622047,
          "duration": 0.23483639550781277
        },
        {
          "name": "E2",
          "midi": 40,
          "time": 51.02362800000009,
          "velocity": 0.5511811023622047,
          "duration": 0.11672614550781191
        },
        {
          "name": "E3",
          "midi": 52,
          "time": 51.02362800000009,
          "velocity": 0.5511811023622047,
          "duration": 0.11672614550781191
        },
        {
          "name": "B2",
          "midi": 47,
          "time": 51.14173825000009,
          "velocity": 0.5511811023622047,
          "duration": 0.1111897275390632
        },
        {
          "name": "G#2",
          "midi": 44,
          "time": 51.25984850000009,
          "velocity": 0.5511811023622047,
          "duration": 0.1111897275390632
        },
        {
          "name": "E2",
          "midi": 40,
          "time": 51.37795875000009,
          "velocity": 0.5511811023622047,
          "duration": 0.11672614550781191
        },
        {
          "name": "E3",
          "midi": 52,
          "time": 51.37795875000009,
          "velocity": 0.5511811023622047,
          "duration": 0.11672614550781191
        },
        {
          "name": "B2",
          "midi": 47,
          "time": 51.49606900000009,
          "velocity": 0.5511811023622047,
          "duration": 0.1111897275390632
        },
        {
          "name": "G#2",
          "midi": 44,
          "time": 51.61417925000009,
          "velocity": 0.5511811023622047,
          "duration": 0.1111897275390632
        },
        {
          "name": "F#2",
          "midi": 42,
          "time": 51.73228950000009,
          "velocity": 0.5511811023622047,
          "duration": 0.11672614550781191
        },
        {
          "name": "F#3",
          "midi": 54,
          "time": 51.73228950000009,
          "velocity": 0.5511811023622047,
          "duration": 0.11672614550781191
        },
        {
          "name": "C#3",
          "midi": 49,
          "time": 51.85039975000009,
          "velocity": 0.5511811023622047,
          "duration": 0.1111897275390632
        },
        {
          "name": "F#2",
          "midi": 42,
          "time": 51.968510000000094,
          "velocity": 0.5511811023622047,
          "duration": 0.11672614550781191
        },
        {
          "name": "F#3",
          "midi": 54,
          "time": 51.968510000000094,
          "velocity": 0.5511811023622047,
          "duration": 0.11672614550781191
        },
        {
          "name": "C#3",
          "midi": 49,
          "time": 52.086620250000095,
          "velocity": 0.5511811023622047,
          "duration": 0.1111897275390632
        },
        {
          "name": "F#2",
          "midi": 42,
          "time": 52.204730500000096,
          "velocity": 0.5511811023622047,
          "duration": 0.11672614550781191
        },
        {
          "name": "F#3",
          "midi": 54,
          "time": 52.204730500000096,
          "velocity": 0.5511811023622047,
          "duration": 0.11672614550781191
        },
        {
          "name": "C#3",
          "midi": 49,
          "time": 52.3228407500001,
          "velocity": 0.5511811023622047,
          "duration": 0.1111897275390632
        },
        {
          "name": "G#2",
          "midi": 44,
          "time": 52.4409510000001,
          "velocity": 0.5511811023622047,
          "duration": 0.11672614550781191
        },
        {
          "name": "G#3",
          "midi": 56,
          "time": 52.4409510000001,
          "velocity": 0.5511811023622047,
          "duration": 0.11672614550781191
        },
        {
          "name": "D#3",
          "midi": 51,
          "time": 52.5590612500001,
          "velocity": 0.5511811023622047,
          "duration": 0.1111897275390632
        },
        {
          "name": "C#3",
          "midi": 49,
          "time": 52.6771715000001,
          "velocity": 0.5511811023622047,
          "duration": 0.1111897275390632
        },
        {
          "name": "D#3",
          "midi": 51,
          "time": 52.7952817500001,
          "velocity": 0.5511811023622047,
          "duration": 0.1111897275390632
        },
        {
          "name": "B2",
          "midi": 47,
          "time": 52.9133920000001,
          "velocity": 0.5511811023622047,
          "duration": 0.1111897275390632
        },
        {
          "name": "D#3",
          "midi": 51,
          "time": 53.0315022500001,
          "velocity": 0.5511811023622047,
          "duration": 0.1111897275390632
        },
        {
          "name": "D#2",
          "midi": 39,
          "time": 53.1496125000001,
          "velocity": 0.5511811023622047,
          "duration": 0.23483639550781277
        },
        {
          "name": "D#3",
          "midi": 51,
          "time": 53.1496125000001,
          "velocity": 0.5511811023622047,
          "duration": 0.23483639550781277
        },
        {
          "name": "E2",
          "midi": 40,
          "time": 53.8582740000001,
          "velocity": 0.5511811023622047,
          "duration": 0.11672614550781191
        },
        {
          "name": "E3",
          "midi": 52,
          "time": 53.8582740000001,
          "velocity": 0.5511811023622047,
          "duration": 0.11672614550781191
        },
        {
          "name": "B2",
          "midi": 47,
          "time": 53.9763842500001,
          "velocity": 0.5511811023622047,
          "duration": 0.1111897275390632
        },
        {
          "name": "G#2",
          "midi": 44,
          "time": 54.0944945000001,
          "velocity": 0.5511811023622047,
          "duration": 0.1111897275390632
        },
        {
          "name": "E2",
          "midi": 40,
          "time": 54.212604750000104,
          "velocity": 0.5511811023622047,
          "duration": 0.11672614550781191
        },
        {
          "name": "E3",
          "midi": 52,
          "time": 54.212604750000104,
          "velocity": 0.5511811023622047,
          "duration": 0.11672614550781191
        },
        {
          "name": "B2",
          "midi": 47,
          "time": 54.330715000000104,
          "velocity": 0.5511811023622047,
          "duration": 0.1111897275390632
        },
        {
          "name": "G#2",
          "midi": 44,
          "time": 54.448825250000105,
          "velocity": 0.5511811023622047,
          "duration": 0.1111897275390632
        },
        {
          "name": "F#2",
          "midi": 42,
          "time": 54.566935500000106,
          "velocity": 0.5511811023622047,
          "duration": 0.11672614550781191
        },
        {
          "name": "F#3",
          "midi": 54,
          "time": 54.566935500000106,
          "velocity": 0.5511811023622047,
          "duration": 0.11672614550781191
        },
        {
          "name": "C#3",
          "midi": 49,
          "time": 54.68504575000011,
          "velocity": 0.5511811023622047,
          "duration": 0.1111897275390632
        },
        {
          "name": "F#2",
          "midi": 42,
          "time": 54.80315600000011,
          "velocity": 0.5511811023622047,
          "duration": 0.11672614550781191
        },
        {
          "name": "F#3",
          "midi": 54,
          "time": 54.80315600000011,
          "velocity": 0.5511811023622047,
          "duration": 0.11672614550781191
        },
        {
          "name": "C#3",
          "midi": 49,
          "time": 54.92126625000011,
          "velocity": 0.5511811023622047,
          "duration": 0.1111897275390632
        },
        {
          "name": "F#2",
          "midi": 42,
          "time": 55.03937650000011,
          "velocity": 0.5511811023622047,
          "duration": 0.11672614550781191
        },
        {
          "name": "F#3",
          "midi": 54,
          "time": 55.03937650000011,
          "velocity": 0.5511811023622047,
          "duration": 0.11672614550781191
        },
        {
          "name": "C#3",
          "midi": 49,
          "time": 55.15748675000011,
          "velocity": 0.5511811023622047,
          "duration": 0.1111897275390632
        },
        {
          "name": "G#2",
          "midi": 44,
          "time": 55.27559700000011,
          "velocity": 0.5511811023622047,
          "duration": 0.11672614550781191
        },
        {
          "name": "G#3",
          "midi": 56,
          "time": 55.27559700000011,
          "velocity": 0.5511811023622047,
          "duration": 0.11672614550781191
        },
        {
          "name": "D#3",
          "midi": 51,
          "time": 55.39370725000011,
          "velocity": 0.5511811023622047,
          "duration": 0.1111897275390632
        },
        {
          "name": "C#3",
          "midi": 49,
          "time": 55.51181750000011,
          "velocity": 0.5511811023622047,
          "duration": 0.1111897275390632
        },
        {
          "name": "D#3",
          "midi": 51,
          "time": 55.629927750000114,
          "velocity": 0.5511811023622047,
          "duration": 0.1111897275390632
        },
        {
          "name": "B2",
          "midi": 47,
          "time": 55.748038000000115,
          "velocity": 0.5511811023622047,
          "duration": 0.1111897275390632
        },
        {
          "name": "D#3",
          "midi": 51,
          "time": 55.866148250000116,
          "velocity": 0.5511811023622047,
          "duration": 0.1111897275390632
        },
        {
          "name": "D#2",
          "midi": 39,
          "time": 55.98425850000012,
          "velocity": 0.5511811023622047,
          "duration": 0.23483639550781277
        },
        {
          "name": "D#3",
          "midi": 51,
          "time": 55.98425850000012,
          "velocity": 0.5511811023622047,
          "duration": 0.23483639550781277
        },
        {
          "name": "E2",
          "midi": 40,
          "time": 56.692920000000115,
          "velocity": 0.5511811023622047,
          "duration": 0.11672614550781191
        },
        {
          "name": "E3",
          "midi": 52,
          "time": 56.692920000000115,
          "velocity": 0.5511811023622047,
          "duration": 0.11672614550781191
        },
        {
          "name": "B2",
          "midi": 47,
          "time": 56.811030250000115,
          "velocity": 0.5511811023622047,
          "duration": 0.1111897275390632
        },
        {
          "name": "G#2",
          "midi": 44,
          "time": 56.929140500000116,
          "velocity": 0.5511811023622047,
          "duration": 0.1111897275390632
        },
        {
          "name": "E2",
          "midi": 40,
          "time": 57.04725075000012,
          "velocity": 0.5511811023622047,
          "duration": 0.11672614550781191
        },
        {
          "name": "E3",
          "midi": 52,
          "time": 57.04725075000012,
          "velocity": 0.5511811023622047,
          "duration": 0.11672614550781191
        },
        {
          "name": "B2",
          "midi": 47,
          "time": 57.16536100000012,
          "velocity": 0.5511811023622047,
          "duration": 0.1111897275390632
        },
        {
          "name": "G#2",
          "midi": 44,
          "time": 57.28347125000012,
          "velocity": 0.5511811023622047,
          "duration": 0.1111897275390632
        },
        {
          "name": "F#2",
          "midi": 42,
          "time": 57.40158150000012,
          "velocity": 0.5511811023622047,
          "duration": 0.11672614550781191
        },
        {
          "name": "F#3",
          "midi": 54,
          "time": 57.40158150000012,
          "velocity": 0.5511811023622047,
          "duration": 0.11672614550781191
        },
        {
          "name": "C#3",
          "midi": 49,
          "time": 57.51969175000012,
          "velocity": 0.5511811023622047,
          "duration": 0.1111897275390632
        },
        {
          "name": "F#2",
          "midi": 42,
          "time": 57.63780200000012,
          "velocity": 0.5511811023622047,
          "duration": 0.11672614550781191
        },
        {
          "name": "F#3",
          "midi": 54,
          "time": 57.63780200000012,
          "velocity": 0.5511811023622047,
          "duration": 0.11672614550781191
        },
        {
          "name": "C#3",
          "midi": 49,
          "time": 57.75591225000012,
          "velocity": 0.5511811023622047,
          "duration": 0.1111897275390632
        },
        {
          "name": "F#2",
          "midi": 42,
          "time": 57.87402250000012,
          "velocity": 0.5511811023622047,
          "duration": 0.11672614550781191
        },
        {
          "name": "F#3",
          "midi": 54,
          "time": 57.87402250000012,
          "velocity": 0.5511811023622047,
          "duration": 0.11672614550781191
        },
        {
          "name": "C#3",
          "midi": 49,
          "time": 57.992132750000124,
          "velocity": 0.5511811023622047,
          "duration": 0.1111897275390632
        },
        {
          "name": "G#2",
          "midi": 44,
          "time": 58.110243000000125,
          "velocity": 0.5511811023622047,
          "duration": 0.11672614550781191
        },
        {
          "name": "G#3",
          "midi": 56,
          "time": 58.110243000000125,
          "velocity": 0.5511811023622047,
          "duration": 0.11672614550781191
        },
        {
          "name": "D#3",
          "midi": 51,
          "time": 58.228353250000126,
          "velocity": 0.5511811023622047,
          "duration": 0.1111897275390632
        },
        {
          "name": "C#3",
          "midi": 49,
          "time": 58.34646350000013,
          "velocity": 0.5511811023622047,
          "duration": 0.1111897275390632
        },
        {
          "name": "D#3",
          "midi": 51,
          "time": 58.46457375000013,
          "velocity": 0.5511811023622047,
          "duration": 0.1111897275390632
        },
        {
          "name": "B2",
          "midi": 47,
          "time": 58.58268400000013,
          "velocity": 0.5511811023622047,
          "duration": 0.1111897275390632
        },
        {
          "name": "D#3",
          "midi": 51,
          "time": 58.70079425000013,
          "velocity": 0.5511811023622047,
          "duration": 0.1111897275390632
        },
        {
          "name": "D#2",
          "midi": 39,
          "time": 58.81890450000013,
          "velocity": 0.5511811023622047,
          "duration": 0.23483639550781277
        },
        {
          "name": "D#3",
          "midi": 51,
          "time": 58.81890450000013,
          "velocity": 0.5511811023622047,
          "duration": 0.23483639550781277
        },
        {
          "name": "E2",
          "midi": 40,
          "time": 59.52756600000013,
          "velocity": 0.5511811023622047,
          "duration": 0.11672614550781191
        },
        {
          "name": "E3",
          "midi": 52,
          "time": 59.52756600000013,
          "velocity": 0.5511811023622047,
          "duration": 0.11672614550781191
        },
        {
          "name": "B2",
          "midi": 47,
          "time": 59.64567625000013,
          "velocity": 0.5511811023622047,
          "duration": 0.1111897275390632
        },
        {
          "name": "G#2",
          "midi": 44,
          "time": 59.76378650000013,
          "velocity": 0.5511811023622047,
          "duration": 0.1111897275390632
        },
        {
          "name": "E2",
          "midi": 40,
          "time": 59.88189675000013,
          "velocity": 0.5511811023622047,
          "duration": 0.11672614550781191
        },
        {
          "name": "E3",
          "midi": 52,
          "time": 59.88189675000013,
          "velocity": 0.5511811023622047,
          "duration": 0.11672614550781191
        },
        {
          "name": "B2",
          "midi": 47,
          "time": 60.00000700000013,
          "velocity": 0.5511811023622047,
          "duration": 0.1111897275390632
        },
        {
          "name": "G#2",
          "midi": 44,
          "time": 60.11811725000013,
          "velocity": 0.5511811023622047,
          "duration": 0.1111897275390632
        },
        {
          "name": "D#2",
          "midi": 39,
          "time": 60.23622750000013,
          "velocity": 0.5511811023622047,
          "duration": 0.11672614550781191
        },
        {
          "name": "D#3",
          "midi": 51,
          "time": 60.23622750000013,
          "velocity": 0.5511811023622047,
          "duration": 0.11672614550781191
        },
        {
          "name": "C#3",
          "midi": 49,
          "time": 60.354337750000134,
          "velocity": 0.5511811023622047,
          "duration": 0.1111897275390632
        },
        {
          "name": "D#2",
          "midi": 39,
          "time": 60.472448000000135,
          "velocity": 0.5511811023622047,
          "duration": 0.11672614550781191
        },
        {
          "name": "D#3",
          "midi": 51,
          "time": 60.472448000000135,
          "velocity": 0.5511811023622047,
          "duration": 0.11672614550781191
        },
        {
          "name": "C#3",
          "midi": 49,
          "time": 60.590558250000136,
          "velocity": 0.5511811023622047,
          "duration": 0.1111897275390632
        },
        {
          "name": "D#2",
          "midi": 39,
          "time": 60.70866850000014,
          "velocity": 0.5511811023622047,
          "duration": 0.11672614550781191
        },
        {
          "name": "D#3",
          "midi": 51,
          "time": 60.70866850000014,
          "velocity": 0.5511811023622047,
          "duration": 0.11672614550781191
        },
        {
          "name": "C#3",
          "midi": 49,
          "time": 60.82677875000014,
          "velocity": 0.5511811023622047,
          "duration": 0.1111897275390632
        },
        {
          "name": "G#2",
          "midi": 44,
          "time": 60.94488900000014,
          "velocity": 0.5511811023622047,
          "duration": 0.1111897275390632
        },
        {
          "name": "D#3",
          "midi": 51,
          "time": 61.06299925000014,
          "velocity": 0.5511811023622047,
          "duration": 0.1111897275390632
        },
        {
          "name": "G#3",
          "midi": 56,
          "time": 61.18110950000014,
          "velocity": 0.5511811023622047,
          "duration": 0.1111897275390632
        },
        {
          "name": "G#2",
          "midi": 44,
          "time": 61.29921975000014,
          "velocity": 0.5511811023622047,
          "duration": 0.1111897275390632
        },
        {
          "name": "D#3",
          "midi": 51,
          "time": 61.41733000000014,
          "velocity": 0.5511811023622047,
          "duration": 0.1111897275390632
        },
        {
          "name": "G#3",
          "midi": 56,
          "time": 61.53544025000014,
          "velocity": 0.5511811023622047,
          "duration": 0.1111897275390632
        },
        {
          "name": "C#2",
          "midi": 37,
          "time": 61.653550500000144,
          "velocity": 0.5511811023622047,
          "duration": 0.11672614550781191
        },
        {
          "name": "D#2",
          "midi": 39,
          "time": 61.889771000000145,
          "velocity": 0.5511811023622047,
          "duration": 0.23483639550781277
        },
        {
          "name": "D#2",
          "midi": 39,
          "time": 62.12599150000015,
          "velocity": 0.5511811023622047,
          "duration": 0.23483639550781277
        },
        {
          "name": "G#2",
          "midi": 44,
          "time": 62.36221200000015,
          "velocity": 0.5511811023622047,
          "duration": 0.1111897275390632
        },
        {
          "name": "D#3",
          "midi": 51,
          "time": 62.48032225000015,
          "velocity": 0.5511811023622047,
          "duration": 0.1111897275390632
        },
        {
          "name": "G#3",
          "midi": 56,
          "time": 62.59843250000015,
          "velocity": 0.5511811023622047,
          "duration": 0.1111897275390632
        },
        {
          "name": "G#2",
          "midi": 44,
          "time": 62.71654275000015,
          "velocity": 0.5511811023622047,
          "duration": 0.1111897275390632
        },
        {
          "name": "D#3",
          "midi": 51,
          "time": 62.83465300000015,
          "velocity": 0.5511811023622047,
          "duration": 0.1111897275390632
        },
        {
          "name": "G#3",
          "midi": 56,
          "time": 62.95276325000015,
          "velocity": 0.5511811023622047,
          "duration": 0.1111897275390632
        },
        {
          "name": "C#2",
          "midi": 37,
          "time": 63.070873500000154,
          "velocity": 0.5511811023622047,
          "duration": 0.11672614550781191
        },
        {
          "name": "D#2",
          "midi": 39,
          "time": 63.307094000000156,
          "velocity": 0.5511811023622047,
          "duration": 0.23483639550781277
        },
        {
          "name": "D#2",
          "midi": 39,
          "time": 63.54331450000016,
          "velocity": 0.5511811023622047,
          "duration": 0.23483639550781277
        },
        {
          "name": "G#2",
          "midi": 44,
          "time": 63.77953500000016,
          "velocity": 0.5511811023622047,
          "duration": 0.1111897275390632
        },
        {
          "name": "D#3",
          "midi": 51,
          "time": 63.89764525000016,
          "velocity": 0.5511811023622047,
          "duration": 0.1111897275390632
        },
        {
          "name": "G#3",
          "midi": 56,
          "time": 64.01575550000015,
          "velocity": 0.5511811023622047,
          "duration": 0.1111897275390561
        },
        {
          "name": "G#2",
          "midi": 44,
          "time": 64.13386575000014,
          "velocity": 0.5511811023622047,
          "duration": 0.1111897275390561
        },
        {
          "name": "D#3",
          "midi": 51,
          "time": 64.25197600000013,
          "velocity": 0.5511811023622047,
          "duration": 0.1111897275390561
        },
        {
          "name": "G#3",
          "midi": 56,
          "time": 64.37008625000011,
          "velocity": 0.5511811023622047,
          "duration": 0.1111897275390561
        },
        {
          "name": "C#2",
          "midi": 37,
          "time": 64.4881965000001,
          "velocity": 0.5511811023622047,
          "duration": 0.1111897275390561
        },
        {
          "name": "G#2",
          "midi": 44,
          "time": 64.60630675000009,
          "velocity": 0.5511811023622047,
          "duration": 0.1111897275390561
        },
        {
          "name": "C#3",
          "midi": 49,
          "time": 64.72441700000007,
          "velocity": 0.5511811023622047,
          "duration": 0.1111897275390561
        },
        {
          "name": "C#2",
          "midi": 37,
          "time": 64.84252725000006,
          "velocity": 0.5511811023622047,
          "duration": 0.1111897275390561
        },
        {
          "name": "G#2",
          "midi": 44,
          "time": 64.96063750000005,
          "velocity": 0.5511811023622047,
          "duration": 0.1111897275390561
        },
        {
          "name": "C#3",
          "midi": 49,
          "time": 65.07874775000003,
          "velocity": 0.5511811023622047,
          "duration": 0.1111897275390561
        },
        {
          "name": "D#2",
          "midi": 39,
          "time": 65.19685800000002,
          "velocity": 0.5511811023622047,
          "duration": 0.1111897275390561
        },
        {
          "name": "A#2",
          "midi": 46,
          "time": 65.31496825,
          "velocity": 0.5511811023622047,
          "duration": 0.1111897275390561
        },
        {
          "name": "D#3",
          "midi": 51,
          "time": 65.4330785,
          "velocity": 0.5511811023622047,
          "duration": 0.1111897275390561
        },
        {
          "name": "D#2",
          "midi": 39,
          "time": 65.55118874999998,
          "velocity": 0.5511811023622047,
          "duration": 0.11672614550781191
        },
        {
          "name": "D#2",
          "midi": 39,
          "time": 65.78740924999998,
          "velocity": 0.5511811023622047,
          "duration": 0.1111897275390561
        },
        {
          "name": "E2",
          "midi": 40,
          "time": 65.90551949999997,
          "velocity": 0.5511811023622047,
          "duration": 0.23483639550781277
        },
        {
          "name": "E2",
          "midi": 40,
          "time": 66.14173999999997,
          "velocity": 0.5511811023622047,
          "duration": 0.23483639550781277
        },
        {
          "name": "D#2",
          "midi": 39,
          "time": 66.37796049999997,
          "velocity": 0.5511811023622047,
          "duration": 0.23483639550781277
        },
        {
          "name": "G#2",
          "midi": 44,
          "time": 66.61418099999997,
          "velocity": 0.5511811023622047,
          "duration": 0.1111897275390561
        },
        {
          "name": "D#3",
          "midi": 51,
          "time": 66.73229124999996,
          "velocity": 0.5511811023622047,
          "duration": 0.1111897275390561
        },
        {
          "name": "G#3",
          "midi": 56,
          "time": 66.85040149999995,
          "velocity": 0.5511811023622047,
          "duration": 0.1111897275390561
        },
        {
          "name": "G#2",
          "midi": 44,
          "time": 66.96851174999993,
          "velocity": 0.5511811023622047,
          "duration": 0.1111897275390561
        },
        {
          "name": "D#3",
          "midi": 51,
          "time": 67.08662199999992,
          "velocity": 0.5511811023622047,
          "duration": 0.1111897275390561
        },
        {
          "name": "G#3",
          "midi": 56,
          "time": 67.2047322499999,
          "velocity": 0.5511811023622047,
          "duration": 0.1111897275390561
        },
        {
          "name": "C#2",
          "midi": 37,
          "time": 67.3228424999999,
          "velocity": 0.5511811023622047,
          "duration": 0.11672614550781191
        },
        {
          "name": "D#2",
          "midi": 39,
          "time": 67.5590629999999,
          "velocity": 0.5511811023622047,
          "duration": 0.23483639550781277
        },
        {
          "name": "D#2",
          "midi": 39,
          "time": 67.7952834999999,
          "velocity": 0.5511811023622047,
          "duration": 0.23483639550781277
        },
        {
          "name": "G#2",
          "midi": 44,
          "time": 68.0315039999999,
          "velocity": 0.5511811023622047,
          "duration": 0.1111897275390561
        },
        {
          "name": "D#3",
          "midi": 51,
          "time": 68.14961424999989,
          "velocity": 0.5511811023622047,
          "duration": 0.1111897275390561
        },
        {
          "name": "G#3",
          "midi": 56,
          "time": 68.26772449999987,
          "velocity": 0.5511811023622047,
          "duration": 0.1111897275390561
        },
        {
          "name": "G#2",
          "midi": 44,
          "time": 68.38583474999986,
          "velocity": 0.5511811023622047,
          "duration": 0.1111897275390561
        },
        {
          "name": "D#3",
          "midi": 51,
          "time": 68.50394499999985,
          "velocity": 0.5511811023622047,
          "duration": 0.1111897275390561
        },
        {
          "name": "G#3",
          "midi": 56,
          "time": 68.62205524999983,
          "velocity": 0.5511811023622047,
          "duration": 0.1111897275390561
        },
        {
          "name": "C#2",
          "midi": 37,
          "time": 68.74016549999982,
          "velocity": 0.5511811023622047,
          "duration": 0.11672614550781191
        },
        {
          "name": "D#2",
          "midi": 39,
          "time": 68.97638599999982,
          "velocity": 0.5511811023622047,
          "duration": 0.23483639550781277
        },
        {
          "name": "D#2",
          "midi": 39,
          "time": 69.21260649999982,
          "velocity": 0.5511811023622047,
          "duration": 0.23483639550781277
        },
        {
          "name": "G#2",
          "midi": 44,
          "time": 69.44882699999982,
          "velocity": 0.5511811023622047,
          "duration": 0.1111897275390561
        },
        {
          "name": "D#3",
          "midi": 51,
          "time": 69.56693724999981,
          "velocity": 0.5511811023622047,
          "duration": 0.1111897275390561
        },
        {
          "name": "G#3",
          "midi": 56,
          "time": 69.6850474999998,
          "velocity": 0.5511811023622047,
          "duration": 0.1111897275390561
        },
        {
          "name": "G#2",
          "midi": 44,
          "time": 69.80315774999978,
          "velocity": 0.5511811023622047,
          "duration": 0.1111897275390561
        },
        {
          "name": "D#3",
          "midi": 51,
          "time": 69.92126799999977,
          "velocity": 0.5511811023622047,
          "duration": 0.1111897275390561
        },
        {
          "name": "G#3",
          "midi": 56,
          "time": 70.03937824999976,
          "velocity": 0.5511811023622047,
          "duration": 0.1111897275390561
        },
        {
          "name": "C#2",
          "midi": 37,
          "time": 70.15748849999974,
          "velocity": 0.5511811023622047,
          "duration": 0.1111897275390561
        },
        {
          "name": "G#2",
          "midi": 44,
          "time": 70.27559874999973,
          "velocity": 0.5511811023622047,
          "duration": 0.1111897275390561
        },
        {
          "name": "C#3",
          "midi": 49,
          "time": 70.39370899999972,
          "velocity": 0.5511811023622047,
          "duration": 0.1111897275390561
        },
        {
          "name": "C#2",
          "midi": 37,
          "time": 70.5118192499997,
          "velocity": 0.5511811023622047,
          "duration": 0.1111897275390561
        },
        {
          "name": "G#2",
          "midi": 44,
          "time": 70.62992949999969,
          "velocity": 0.5511811023622047,
          "duration": 0.1111897275390561
        },
        {
          "name": "C#3",
          "midi": 49,
          "time": 70.74803974999968,
          "velocity": 0.5511811023622047,
          "duration": 0.1111897275390561
        },
        {
          "name": "D#2",
          "midi": 39,
          "time": 70.86614999999966,
          "velocity": 0.5511811023622047,
          "duration": 0.1111897275390561
        },
        {
          "name": "A#2",
          "midi": 46,
          "time": 70.98426024999965,
          "velocity": 0.5511811023622047,
          "duration": 0.1111897275390561
        },
        {
          "name": "D#3",
          "midi": 51,
          "time": 71.10237049999964,
          "velocity": 0.5511811023622047,
          "duration": 0.1111897275390561
        },
        {
          "name": "D#2",
          "midi": 39,
          "time": 71.22048074999962,
          "velocity": 0.5511811023622047,
          "duration": 0.11672614550781191
        },
        {
          "name": "D#2",
          "midi": 39,
          "time": 71.45670124999963,
          "velocity": 0.5511811023622047,
          "duration": 0.1111897275390561
        },
        {
          "name": "E3",
          "midi": 52,
          "time": 71.57481149999961,
          "velocity": 0.5511811023622047,
          "duration": 0.23483639550781277
        },
        {
          "name": "E2",
          "midi": 40,
          "time": 71.57481149999961,
          "velocity": 0.5511811023622047,
          "duration": 0.23483639550781277
        },
        {
          "name": "E3",
          "midi": 52,
          "time": 71.81103199999961,
          "velocity": 0.5511811023622047,
          "duration": 0.23483639550781277
        },
        {
          "name": "E2",
          "midi": 40,
          "time": 71.81103199999961,
          "velocity": 0.5511811023622047,
          "duration": 0.23483639550781277
        },
        {
          "name": "D#3",
          "midi": 51,
          "time": 72.04725249999962,
          "velocity": 0.5511811023622047,
          "duration": 0.23483639550781277
        },
        {
          "name": "D#2",
          "midi": 39,
          "time": 72.04725249999962,
          "velocity": 0.5511811023622047,
          "duration": 0.23483639550781277
        },
        {
          "name": "G#3",
          "midi": 56,
          "time": 72.28347299999962,
          "velocity": 0.5511811023622047,
          "duration": 0.11672614550781191
        },
        {
          "name": "G#2",
          "midi": 44,
          "time": 72.28347299999962,
          "velocity": 0.5511811023622047,
          "duration": 0.11672614550781191
        },
        {
          "name": "D#3",
          "midi": 51,
          "time": 72.40158324999962,
          "velocity": 0.5511811023622047,
          "duration": 0.1111897275390561
        },
        {
          "name": "C#3",
          "midi": 49,
          "time": 72.5196934999996,
          "velocity": 0.5511811023622047,
          "duration": 0.1111897275390561
        },
        {
          "name": "D#3",
          "midi": 51,
          "time": 72.63780374999959,
          "velocity": 0.5511811023622047,
          "duration": 0.1111897275390561
        },
        {
          "name": "B2",
          "midi": 47,
          "time": 72.75591399999958,
          "velocity": 0.5511811023622047,
          "duration": 0.1111897275390561
        },
        {
          "name": "D#3",
          "midi": 51,
          "time": 72.87402424999956,
          "velocity": 0.5511811023622047,
          "duration": 0.1111897275390561
        },
        {
          "name": "D#3",
          "midi": 51,
          "time": 72.99213449999955,
          "velocity": 0.5511811023622047,
          "duration": 0.23483639550781277
        },
        {
          "name": "D#2",
          "midi": 39,
          "time": 72.99213449999955,
          "velocity": 0.5511811023622047,
          "duration": 0.23483639550781277
        },
        {
          "name": "E3",
          "midi": 52,
          "time": 73.70079599999956,
          "velocity": 0.5511811023622047,
          "duration": 0.11672614550781191
        },
        {
          "name": "E2",
          "midi": 40,
          "time": 73.70079599999956,
          "velocity": 0.5511811023622047,
          "duration": 0.11672614550781191
        },
        {
          "name": "B2",
          "midi": 47,
          "time": 73.81890624999956,
          "velocity": 0.5511811023622047,
          "duration": 0.1111897275390561
        },
        {
          "name": "G#2",
          "midi": 44,
          "time": 73.93701649999954,
          "velocity": 0.5511811023622047,
          "duration": 0.1111897275390561
        },
        {
          "name": "E3",
          "midi": 52,
          "time": 74.05512674999953,
          "velocity": 0.5511811023622047,
          "duration": 0.11672614550781191
        },
        {
          "name": "E2",
          "midi": 40,
          "time": 74.05512674999953,
          "velocity": 0.5511811023622047,
          "duration": 0.11672614550781191
        },
        {
          "name": "B2",
          "midi": 47,
          "time": 74.17323699999953,
          "velocity": 0.5511811023622047,
          "duration": 0.1111897275390561
        },
        {
          "name": "G#2",
          "midi": 44,
          "time": 74.29134724999952,
          "velocity": 0.5511811023622047,
          "duration": 0.1111897275390561
        },
        {
          "name": "F#3",
          "midi": 54,
          "time": 74.4094574999995,
          "velocity": 0.5511811023622047,
          "duration": 0.11672614550781191
        },
        {
          "name": "F#2",
          "midi": 42,
          "time": 74.4094574999995,
          "velocity": 0.5511811023622047,
          "duration": 0.11672614550781191
        },
        {
          "name": "C#3",
          "midi": 49,
          "time": 74.5275677499995,
          "velocity": 0.5511811023622047,
          "duration": 0.1111897275390561
        },
        {
          "name": "F#3",
          "midi": 54,
          "time": 74.64567799999949,
          "velocity": 0.5511811023622047,
          "duration": 0.11672614550781191
        },
        {
          "name": "F#2",
          "midi": 42,
          "time": 74.64567799999949,
          "velocity": 0.5511811023622047,
          "duration": 0.11672614550781191
        },
        {
          "name": "C#3",
          "midi": 49,
          "time": 74.7637882499995,
          "velocity": 0.5511811023622047,
          "duration": 0.1111897275390561
        },
        {
          "name": "F#3",
          "midi": 54,
          "time": 74.88189849999948,
          "velocity": 0.5511811023622047,
          "duration": 0.11672614550781191
        },
        {
          "name": "F#2",
          "midi": 42,
          "time": 74.88189849999948,
          "velocity": 0.5511811023622047,
          "duration": 0.11672614550781191
        },
        {
          "name": "C#3",
          "midi": 49,
          "time": 75.00000874999948,
          "velocity": 0.5511811023622047,
          "duration": 0.1111897275390561
        },
        {
          "name": "G#3",
          "midi": 56,
          "time": 75.11811899999947,
          "velocity": 0.5511811023622047,
          "duration": 0.11672614550781191
        },
        {
          "name": "G#2",
          "midi": 44,
          "time": 75.11811899999947,
          "velocity": 0.5511811023622047,
          "duration": 0.11672614550781191
        },
        {
          "name": "D#3",
          "midi": 51,
          "time": 75.23622924999947,
          "velocity": 0.5511811023622047,
          "duration": 0.1111897275390561
        },
        {
          "name": "C#3",
          "midi": 49,
          "time": 75.35433949999945,
          "velocity": 0.5511811023622047,
          "duration": 0.1111897275390561
        },
        {
          "name": "D#3",
          "midi": 51,
          "time": 75.47244974999944,
          "velocity": 0.5511811023622047,
          "duration": 0.1111897275390561
        },
        {
          "name": "B2",
          "midi": 47,
          "time": 75.59055999999943,
          "velocity": 0.5511811023622047,
          "duration": 0.1111897275390561
        },
        {
          "name": "D#3",
          "midi": 51,
          "time": 75.70867024999941,
          "velocity": 0.5511811023622047,
          "duration": 0.1111897275390561
        },
        {
          "name": "D#3",
          "midi": 51,
          "time": 75.8267804999994,
          "velocity": 0.5511811023622047,
          "duration": 0.23483639550781277
        },
        {
          "name": "D#2",
          "midi": 39,
          "time": 75.8267804999994,
          "velocity": 0.5511811023622047,
          "duration": 0.23483639550781277
        },
        {
          "name": "E3",
          "midi": 52,
          "time": 76.5354419999994,
          "velocity": 0.5511811023622047,
          "duration": 0.11672614550781191
        },
        {
          "name": "E2",
          "midi": 40,
          "time": 76.5354419999994,
          "velocity": 0.5511811023622047,
          "duration": 0.11672614550781191
        },
        {
          "name": "B2",
          "midi": 47,
          "time": 76.65355224999941,
          "velocity": 0.5511811023622047,
          "duration": 0.1111897275390561
        },
        {
          "name": "G#2",
          "midi": 44,
          "time": 76.7716624999994,
          "velocity": 0.5511811023622047,
          "duration": 0.1111897275390561
        },
        {
          "name": "E3",
          "midi": 52,
          "time": 76.88977274999938,
          "velocity": 0.5511811023622047,
          "duration": 0.11672614550781191
        },
        {
          "name": "E2",
          "midi": 40,
          "time": 76.88977274999938,
          "velocity": 0.5511811023622047,
          "duration": 0.11672614550781191
        },
        {
          "name": "B2",
          "midi": 47,
          "time": 77.00788299999938,
          "velocity": 0.5511811023622047,
          "duration": 0.1111897275390561
        },
        {
          "name": "G#2",
          "midi": 44,
          "time": 77.12599324999937,
          "velocity": 0.5511811023622047,
          "duration": 0.1111897275390561
        },
        {
          "name": "F#3",
          "midi": 54,
          "time": 77.24410349999935,
          "velocity": 0.5511811023622047,
          "duration": 0.11672614550781191
        },
        {
          "name": "F#2",
          "midi": 42,
          "time": 77.24410349999935,
          "velocity": 0.5511811023622047,
          "duration": 0.11672614550781191
        },
        {
          "name": "C#3",
          "midi": 49,
          "time": 77.36221374999936,
          "velocity": 0.5511811023622047,
          "duration": 0.1111897275390561
        },
        {
          "name": "F#3",
          "midi": 54,
          "time": 77.48032399999934,
          "velocity": 0.5511811023622047,
          "duration": 0.11672614550781191
        },
        {
          "name": "F#2",
          "midi": 42,
          "time": 77.48032399999934,
          "velocity": 0.5511811023622047,
          "duration": 0.11672614550781191
        },
        {
          "name": "C#3",
          "midi": 49,
          "time": 77.59843424999934,
          "velocity": 0.5511811023622047,
          "duration": 0.1111897275390561
        },
        {
          "name": "F#3",
          "midi": 54,
          "time": 77.71654449999933,
          "velocity": 0.5511811023622047,
          "duration": 0.11672614550781191
        },
        {
          "name": "F#2",
          "midi": 42,
          "time": 77.71654449999933,
          "velocity": 0.5511811023622047,
          "duration": 0.11672614550781191
        },
        {
          "name": "C#3",
          "midi": 49,
          "time": 77.83465474999933,
          "velocity": 0.5511811023622047,
          "duration": 0.1111897275390561
        },
        {
          "name": "G#3",
          "midi": 56,
          "time": 77.95276499999932,
          "velocity": 0.5511811023622047,
          "duration": 0.11672614550781191
        },
        {
          "name": "G#2",
          "midi": 44,
          "time": 77.95276499999932,
          "velocity": 0.5511811023622047,
          "duration": 0.11672614550781191
        },
        {
          "name": "D#3",
          "midi": 51,
          "time": 78.07087524999932,
          "velocity": 0.5511811023622047,
          "duration": 0.1111897275390561
        },
        {
          "name": "C#3",
          "midi": 49,
          "time": 78.1889854999993,
          "velocity": 0.5511811023622047,
          "duration": 0.1111897275390561
        },
        {
          "name": "D#3",
          "midi": 51,
          "time": 78.30709574999929,
          "velocity": 0.5511811023622047,
          "duration": 0.1111897275390561
        },
        {
          "name": "B2",
          "midi": 47,
          "time": 78.42520599999928,
          "velocity": 0.5511811023622047,
          "duration": 0.1111897275390561
        },
        {
          "name": "D#3",
          "midi": 51,
          "time": 78.54331624999926,
          "velocity": 0.5511811023622047,
          "duration": 0.1111897275390561
        },
        {
          "name": "D#3",
          "midi": 51,
          "time": 78.66142649999925,
          "velocity": 0.5511811023622047,
          "duration": 0.23483639550781277
        },
        {
          "name": "D#2",
          "midi": 39,
          "time": 78.66142649999925,
          "velocity": 0.5511811023622047,
          "duration": 0.23483639550781277
        },
        {
          "name": "E3",
          "midi": 52,
          "time": 79.37008799999926,
          "velocity": 0.5511811023622047,
          "duration": 0.11672614550781191
        },
        {
          "name": "E2",
          "midi": 40,
          "time": 79.37008799999926,
          "velocity": 0.5511811023622047,
          "duration": 0.11672614550781191
        },
        {
          "name": "B2",
          "midi": 47,
          "time": 79.48819824999926,
          "velocity": 0.5511811023622047,
          "duration": 0.1111897275390561
        },
        {
          "name": "G#2",
          "midi": 44,
          "time": 79.60630849999924,
          "velocity": 0.5511811023622047,
          "duration": 0.1111897275390561
        },
        {
          "name": "E3",
          "midi": 52,
          "time": 79.72441874999923,
          "velocity": 0.5511811023622047,
          "duration": 0.11672614550781191
        },
        {
          "name": "E2",
          "midi": 40,
          "time": 79.72441874999923,
          "velocity": 0.5511811023622047,
          "duration": 0.11672614550781191
        },
        {
          "name": "B2",
          "midi": 47,
          "time": 79.84252899999923,
          "velocity": 0.5511811023622047,
          "duration": 0.1111897275390561
        },
        {
          "name": "G#2",
          "midi": 44,
          "time": 79.96063924999922,
          "velocity": 0.5511811023622047,
          "duration": 0.1111897275390561
        },
        {
          "name": "F#3",
          "midi": 54,
          "time": 80.0787494999992,
          "velocity": 0.5511811023622047,
          "duration": 0.11672614550781191
        },
        {
          "name": "F#2",
          "midi": 42,
          "time": 80.0787494999992,
          "velocity": 0.5511811023622047,
          "duration": 0.11672614550781191
        },
        {
          "name": "C#3",
          "midi": 49,
          "time": 80.1968597499992,
          "velocity": 0.5511811023622047,
          "duration": 0.1111897275390561
        },
        {
          "name": "F#3",
          "midi": 54,
          "time": 80.31496999999919,
          "velocity": 0.5511811023622047,
          "duration": 0.11672614550781191
        },
        {
          "name": "F#2",
          "midi": 42,
          "time": 80.31496999999919,
          "velocity": 0.5511811023622047,
          "duration": 0.11672614550781191
        },
        {
          "name": "C#3",
          "midi": 49,
          "time": 80.4330802499992,
          "velocity": 0.5511811023622047,
          "duration": 0.1111897275390561
        },
        {
          "name": "F#3",
          "midi": 54,
          "time": 80.55119049999918,
          "velocity": 0.5511811023622047,
          "duration": 0.11672614550781191
        },
        {
          "name": "F#2",
          "midi": 42,
          "time": 80.55119049999918,
          "velocity": 0.5511811023622047,
          "duration": 0.11672614550781191
        },
        {
          "name": "C#3",
          "midi": 49,
          "time": 80.66930074999918,
          "velocity": 0.5511811023622047,
          "duration": 0.1111897275390561
        },
        {
          "name": "G#3",
          "midi": 56,
          "time": 80.78741099999917,
          "velocity": 0.5511811023622047,
          "duration": 0.11672614550781191
        },
        {
          "name": "G#2",
          "midi": 44,
          "time": 80.78741099999917,
          "velocity": 0.5511811023622047,
          "duration": 0.11672614550781191
        },
        {
          "name": "D#3",
          "midi": 51,
          "time": 80.90552124999917,
          "velocity": 0.5511811023622047,
          "duration": 0.1111897275390561
        },
        {
          "name": "C#3",
          "midi": 49,
          "time": 81.02363149999915,
          "velocity": 0.5511811023622047,
          "duration": 0.1111897275390561
        },
        {
          "name": "D#3",
          "midi": 51,
          "time": 81.14174174999914,
          "velocity": 0.5511811023622047,
          "duration": 0.1111897275390561
        },
        {
          "name": "B2",
          "midi": 47,
          "time": 81.25985199999913,
          "velocity": 0.5511811023622047,
          "duration": 0.1111897275390561
        },
        {
          "name": "D#3",
          "midi": 51,
          "time": 81.37796224999911,
          "velocity": 0.5511811023622047,
          "duration": 0.1111897275390561
        },
        {
          "name": "D#3",
          "midi": 51,
          "time": 81.4960724999991,
          "velocity": 0.5511811023622047,
          "duration": 0.23483639550781277
        },
        {
          "name": "D#2",
          "midi": 39,
          "time": 81.4960724999991,
          "velocity": 0.5511811023622047,
          "duration": 0.23483639550781277
        },
        {
          "name": "E3",
          "midi": 52,
          "time": 82.2047339999991,
          "velocity": 0.5511811023622047,
          "duration": 0.11672614550781191
        },
        {
          "name": "E2",
          "midi": 40,
          "time": 82.2047339999991,
          "velocity": 0.5511811023622047,
          "duration": 0.11672614550781191
        },
        {
          "name": "B2",
          "midi": 47,
          "time": 82.32284424999911,
          "velocity": 0.5511811023622047,
          "duration": 0.1111897275390561
        },
        {
          "name": "G#2",
          "midi": 44,
          "time": 82.4409544999991,
          "velocity": 0.5511811023622047,
          "duration": 0.1111897275390561
        },
        {
          "name": "E3",
          "midi": 52,
          "time": 82.55906474999908,
          "velocity": 0.5511811023622047,
          "duration": 0.11672614550781191
        },
        {
          "name": "E2",
          "midi": 40,
          "time": 82.55906474999908,
          "velocity": 0.5511811023622047,
          "duration": 0.11672614550781191
        },
        {
          "name": "B2",
          "midi": 47,
          "time": 82.67717499999908,
          "velocity": 0.5511811023622047,
          "duration": 0.1111897275390561
        },
        {
          "name": "G#2",
          "midi": 44,
          "time": 82.79528524999907,
          "velocity": 0.5511811023622047,
          "duration": 0.1111897275390561
        },
        {
          "name": "D#3",
          "midi": 51,
          "time": 82.91339549999906,
          "velocity": 0.5511811023622047,
          "duration": 0.11672614550781191
        },
        {
          "name": "D#2",
          "midi": 39,
          "time": 82.91339549999906,
          "velocity": 0.5511811023622047,
          "duration": 0.7072773955077878
        },
        {
          "name": "C#3",
          "midi": 49,
          "time": 83.03150574999906,
          "velocity": 0.5511811023622047,
          "duration": 0.1111897275390561
        },
        {
          "name": "D#3",
          "midi": 51,
          "time": 83.14961599999904,
          "velocity": 0.5511811023622047,
          "duration": 0.11672614550781191
        },
        {
          "name": "C#3",
          "midi": 49,
          "time": 83.26772624999904,
          "velocity": 0.5511811023622047,
          "duration": 0.1111897275390561
        },
        {
          "name": "D#3",
          "midi": 51,
          "time": 83.38583649999903,
          "velocity": 0.5511811023622047,
          "duration": 0.11672614550781191
        },
        {
          "name": "C#3",
          "midi": 49,
          "time": 83.50394674999903,
          "velocity": 0.5511811023622047,
          "duration": 0.1111897275390561
        },
        {
          "name": "D#4",
          "midi": 63,
          "time": 83.62205699999903,
          "velocity": 0.7874015748031497,
          "duration": 0.24821607226562037
        },
        {
          "name": "G#4",
          "midi": 68,
          "time": 83.98884469042872,
          "velocity": 0.7874015748031497,
          "duration": 0.10011689160155868
        },
        {
          "name": "B4",
          "midi": 71,
          "time": 84.22137424511622,
          "velocity": 0.7874015748031497,
          "duration": 0.11257383203124505
        },
        {
          "name": "G#4",
          "midi": 68,
          "time": 84.34132996777247,
          "velocity": 0.7874015748031497,
          "duration": 0.10288510058593658
        },
        {
          "name": "A#4",
          "midi": 70,
          "time": 84.57662773144435,
          "velocity": 0.7874015748031497,
          "duration": 0.106114677734368
        },
        {
          "name": "B4",
          "midi": 71,
          "time": 84.69012429980371,
          "velocity": 0.7874015748031497,
          "duration": 0.106114677734368
        },
        {
          "name": "C#5",
          "midi": 73,
          "time": 84.80362086816308,
          "velocity": 0.7874015748031497,
          "duration": 0.1084215185546924
        },
        {
          "name": "A#4",
          "midi": 70,
          "time": 84.91942427734277,
          "velocity": 0.7874015748031497,
          "duration": 0.11257383203124505
        },
        {
          "name": "B4",
          "midi": 71,
          "time": 85.03937999999901,
          "velocity": 0.7874015748031497,
          "duration": 0.24821607226562037
        },
        {
          "name": "A#4",
          "midi": 70,
          "time": 85.4061676904287,
          "velocity": 0.7874015748031497,
          "duration": 0.10011689160155868
        },
        {
          "name": "G#4",
          "midi": 68,
          "time": 85.6386972451162,
          "velocity": 0.7874015748031497,
          "duration": 0.05490281152343357
        },
        {
          "name": "F#4",
          "midi": 66,
          "time": 85.69729100195214,
          "velocity": 0.7874015748031497,
          "duration": 0.05767102050781148
        },
        {
          "name": "E4",
          "midi": 64,
          "time": 85.75865296777245,
          "velocity": 0.7874015748031497,
          "duration": 0.10288510058593658
        },
        {
          "name": "A#4",
          "midi": 70,
          "time": 85.99395073144433,
          "velocity": 0.7874015748031497,
          "duration": 0.106114677734368
        },
        {
          "name": "B4",
          "midi": 71,
          "time": 86.1074472998037,
          "velocity": 0.7874015748031497,
          "duration": 0.106114677734368
        },
        {
          "name": "C#5",
          "midi": 73,
          "time": 86.22094386816306,
          "velocity": 0.7874015748031497,
          "duration": 0.1084215185546924
        },
        {
          "name": "D#5",
          "midi": 75,
          "time": 86.33674727734275,
          "velocity": 0.7874015748031497,
          "duration": 0.11257383203124505
        },
        {
          "name": "B4",
          "midi": 71,
          "time": 86.456702999999,
          "velocity": 0.7874015748031497,
          "duration": 0.24821607226562037
        },
        {
          "name": "A#4",
          "midi": 70,
          "time": 86.82349069042868,
          "velocity": 0.7874015748031497,
          "duration": 0.10011689160155868
        },
        {
          "name": "D#4",
          "midi": 63,
          "time": 87.05602024511619,
          "velocity": 0.7874015748031497,
          "duration": 0.11257383203124505
        },
        {
          "name": "G#4",
          "midi": 68,
          "time": 87.17597596777243,
          "velocity": 0.7874015748031497,
          "duration": 0.10288510058593658
        },
        {
          "name": "F#4",
          "midi": 66,
          "time": 87.41127373144431,
          "velocity": 0.7874015748031497,
          "duration": 0.09458047363281707
        },
        {
          "name": "E4",
          "midi": 64,
          "time": 87.63826686816307,
          "velocity": 0.7874015748031497,
          "duration": 0.1033464687500043
        },
        {
          "name": "F#4",
          "midi": 66,
          "time": 87.87402599999902,
          "velocity": 0.7874015748031497,
          "duration": 0.12641487695312037
        },
        {
          "name": "E4",
          "midi": 64,
          "time": 88.00782276757714,
          "velocity": 0.7874015748031497,
          "duration": 0.10934425488281363
        },
        {
          "name": "D#4",
          "midi": 63,
          "time": 88.12454891308495,
          "velocity": 0.7874015748031497,
          "duration": 0.10888288671874591
        },
        {
          "name": "C#4",
          "midi": 61,
          "time": 88.2408136904287,
          "velocity": 0.7874015748031497,
          "duration": 0.21822714160155954
        },
        {
          "name": "G#4",
          "midi": 68,
          "time": 88.4733432451162,
          "velocity": 0.7874015748031497,
          "duration": 0.11257383203124505
        },
        {
          "name": "D#4",
          "midi": 63,
          "time": 88.59329896777244,
          "velocity": 0.7874015748031497,
          "duration": 0.34833296386717905
        },
        {
          "name": "F#3",
          "midi": 54,
          "time": 88.937018249999,
          "velocity": 0.7874015748031497,
          "duration": 0.11811025000000086
        },
        {
          "name": "C#4",
          "midi": 61,
          "time": 89.05558986816307,
          "velocity": 0.7874015748031497,
          "duration": 0.1084215185546924
        },
        {
          "name": "E4",
          "midi": 64,
          "time": 89.17139327734276,
          "velocity": 0.7874015748031497,
          "duration": 0.11257383203124505
        },
        {
          "name": "D#4",
          "midi": 63,
          "time": 89.291348999999,
          "velocity": 0.7874015748031497,
          "duration": 0.24821607226562037
        },
        {
          "name": "G#4",
          "midi": 68,
          "time": 89.65813669042869,
          "velocity": 0.7874015748031497,
          "duration": 0.10011689160155868
        },
        {
          "name": "B4",
          "midi": 71,
          "time": 89.8906662451162,
          "velocity": 0.7874015748031497,
          "duration": 0.11257383203124505
        },
        {
          "name": "G#4",
          "midi": 68,
          "time": 90.01062196777244,
          "velocity": 0.7874015748031497,
          "duration": 0.10288510058593658
        },
        {
          "name": "A#4",
          "midi": 70,
          "time": 90.24591973144432,
          "velocity": 0.7874015748031497,
          "duration": 0.106114677734368
        },
        {
          "name": "B4",
          "midi": 71,
          "time": 90.35941629980368,
          "velocity": 0.7874015748031497,
          "duration": 0.106114677734368
        },
        {
          "name": "C#5",
          "midi": 73,
          "time": 90.47291286816305,
          "velocity": 0.7874015748031497,
          "duration": 0.1084215185546924
        },
        {
          "name": "A#4",
          "midi": 70,
          "time": 90.58871627734274,
          "velocity": 0.7874015748031497,
          "duration": 0.11257383203124505
        },
        {
          "name": "B4",
          "midi": 71,
          "time": 90.70867199999898,
          "velocity": 0.7874015748031497,
          "duration": 0.24821607226562037
        },
        {
          "name": "A#4",
          "midi": 70,
          "time": 91.07545969042867,
          "velocity": 0.7874015748031497,
          "duration": 0.10011689160155868
        },
        {
          "name": "G#4",
          "midi": 68,
          "time": 91.30798924511618,
          "velocity": 0.7874015748031497,
          "duration": 0.05490281152343357
        },
        {
          "name": "F#4",
          "midi": 66,
          "time": 91.36658300195211,
          "velocity": 0.7874015748031497,
          "duration": 0.05767102050781148
        },
        {
          "name": "E4",
          "midi": 64,
          "time": 91.42794496777242,
          "velocity": 0.7874015748031497,
          "duration": 0.10288510058593658
        },
        {
          "name": "A#4",
          "midi": 70,
          "time": 91.6632427314443,
          "velocity": 0.7874015748031497,
          "duration": 0.106114677734368
        },
        {
          "name": "B4",
          "midi": 71,
          "time": 91.77673929980367,
          "velocity": 0.7874015748031497,
          "duration": 0.106114677734368
        },
        {
          "name": "C#5",
          "midi": 73,
          "time": 91.89023586816303,
          "velocity": 0.7874015748031497,
          "duration": 0.1084215185546924
        },
        {
          "name": "D#5",
          "midi": 75,
          "time": 92.00603927734272,
          "velocity": 0.7874015748031497,
          "duration": 0.11257383203124505
        },
        {
          "name": "F#5",
          "midi": 78,
          "time": 92.12599499999897,
          "velocity": 0.7874015748031497,
          "duration": 0.24821607226562037
        },
        {
          "name": "D#5",
          "midi": 75,
          "time": 92.49278269042865,
          "velocity": 0.7874015748031497,
          "duration": 0.10011689160155868
        },
        {
          "name": "B4",
          "midi": 71,
          "time": 92.72531224511616,
          "velocity": 0.7874015748031497,
          "duration": 0.11257383203124505
        },
        {
          "name": "C#5",
          "midi": 73,
          "time": 92.8452679677724,
          "velocity": 0.7874015748031497,
          "duration": 0.22099535058593744
        },
        {
          "name": "B4",
          "midi": 71,
          "time": 93.08056573144428,
          "velocity": 0.7874015748031497,
          "duration": 0.21269072363281794
        },
        {
          "name": "A#4",
          "midi": 70,
          "time": 93.30755886816304,
          "velocity": 0.7874015748031497,
          "duration": 0.22145671875000517
        },
        {
          "name": "B4",
          "midi": 71,
          "time": 93.54331799999899,
          "velocity": 0.7874015748031497,
          "duration": 0.12641487695312037
        },
        {
          "name": "A#4",
          "midi": 70,
          "time": 93.67711476757711,
          "velocity": 0.7874015748031497,
          "duration": 0.10934425488281363
        },
        {
          "name": "G#4",
          "midi": 68,
          "time": 93.79384091308492,
          "velocity": 0.7874015748031497,
          "duration": 0.10888288671874591
        },
        {
          "name": "F#4",
          "midi": 66,
          "time": 93.91010569042867,
          "velocity": 0.7874015748031497,
          "duration": 0.10011689160155868
        },
        {
          "name": "A#4",
          "midi": 70,
          "time": 94.14263524511617,
          "velocity": 0.7874015748031497,
          "duration": 0.11257383203124505
        },
        {
          "name": "G#4",
          "midi": 68,
          "time": 94.26259096777241,
          "velocity": 0.7874015748031497,
          "duration": 0.5794784140625069
        },
        {
          "name": "A#3",
          "midi": 58,
          "time": 94.96064099999899,
          "velocity": 0.3937007874015748,
          "duration": 0.24821607226562037
        },
        {
          "name": "D4",
          "midi": 62,
          "time": 94.96064099999899,
          "velocity": 0.3937007874015748,
          "duration": 0.24821607226562037
        },
        {
          "name": "D4",
          "midi": 62,
          "time": 95.32742869042868,
          "velocity": 0.3937007874015748,
          "duration": 0.09042816015625021
        },
        {
          "name": "G4",
          "midi": 67,
          "time": 95.32742869042868,
          "velocity": 0.3937007874015748,
          "duration": 0.09042816015625021
        },
        {
          "name": "G4",
          "midi": 67,
          "time": 95.55995824511618,
          "velocity": 0.3937007874015748,
          "duration": 0.11949435449218981
        },
        {
          "name": "A#4",
          "midi": 70,
          "time": 95.55995824511618,
          "velocity": 0.3937007874015748,
          "duration": 0.11949435449218981
        },
        {
          "name": "D4",
          "midi": 62,
          "time": 95.67991396777244,
          "velocity": 0.3937007874015748,
          "duration": 0.09319636914062812
        },
        {
          "name": "G4",
          "midi": 67,
          "time": 95.67991396777244,
          "velocity": 0.3937007874015748,
          "duration": 0.09319636914062812
        },
        {
          "name": "F4",
          "midi": 65,
          "time": 95.91521173144432,
          "velocity": 0.3937007874015748,
          "duration": 0.1268762451171881
        },
        {
          "name": "A4",
          "midi": 69,
          "time": 95.91521173144432,
          "velocity": 0.3937007874015748,
          "duration": 0.11303520019531277
        },
        {
          "name": "G4",
          "midi": 67,
          "time": 96.0287082998037,
          "velocity": 0.3937007874015748,
          "duration": 0.1268762451171881
        },
        {
          "name": "A#4",
          "midi": 70,
          "time": 96.0287082998037,
          "velocity": 0.3937007874015748,
          "duration": 0.11303520019531277
        },
        {
          "name": "A4",
          "midi": 69,
          "time": 96.14220486816308,
          "velocity": 0.3937007874015748,
          "duration": 0.11534204101562295
        },
        {
          "name": "C5",
          "midi": 72,
          "time": 96.14220486816308,
          "velocity": 0.3937007874015748,
          "duration": 0.11534204101562295
        },
        {
          "name": "F4",
          "midi": 65,
          "time": 96.25800827734277,
          "velocity": 0.3937007874015748,
          "duration": 0.13333539941406514
        },
        {
          "name": "A4",
          "midi": 69,
          "time": 96.25800827734277,
          "velocity": 0.3937007874015748,
          "duration": 0.11949435449218981
        },
        {
          "name": "G4",
          "midi": 67,
          "time": 96.37796399999903,
          "velocity": 0.3937007874015748,
          "duration": 0.38016736718749655
        },
        {
          "name": "A#4",
          "midi": 70,
          "time": 96.37796399999903,
          "velocity": 0.3937007874015748,
          "duration": 0.36632632226562123
        },
        {
          "name": "F4",
          "midi": 65,
          "time": 96.74475169042871,
          "velocity": 0.3937007874015748,
          "duration": 0.26021164453125323
        },
        {
          "name": "A4",
          "midi": 69,
          "time": 96.74475169042871,
          "velocity": 0.3937007874015748,
          "duration": 0.23206818652343486
        },
        {
          "name": "G4",
          "midi": 67,
          "time": 96.97728124511622,
          "velocity": 0.3937007874015748,
          "duration": 0.06505291113280975
        },
        {
          "name": "F4",
          "midi": 65,
          "time": 97.03587500195215,
          "velocity": 0.3937007874015748,
          "duration": 0.06782112011718766
        },
        {
          "name": "C4",
          "midi": 60,
          "time": 97.09723696777246,
          "velocity": 0.3937007874015748,
          "duration": 0.13333539941406514
        },
        {
          "name": "D#4",
          "midi": 63,
          "time": 97.09723696777246,
          "velocity": 0.3937007874015748,
          "duration": 0.09319636914062812
        },
        {
          "name": "F4",
          "midi": 65,
          "time": 97.33253473144434,
          "velocity": 0.3937007874015748,
          "duration": 0.1268762451171881
        },
        {
          "name": "A4",
          "midi": 69,
          "time": 97.33253473144434,
          "velocity": 0.3937007874015748,
          "duration": 0.11303520019531277
        },
        {
          "name": "G4",
          "midi": 67,
          "time": 97.44603129980372,
          "velocity": 0.3937007874015748,
          "duration": 0.1268762451171881
        },
        {
          "name": "A#4",
          "midi": 70,
          "time": 97.44603129980372,
          "velocity": 0.3937007874015748,
          "duration": 0.11303520019531277
        },
        {
          "name": "A4",
          "midi": 69,
          "time": 97.5595278681631,
          "velocity": 0.3937007874015748,
          "duration": 0.12918308593749828
        },
        {
          "name": "C5",
          "midi": 72,
          "time": 97.5595278681631,
          "velocity": 0.3937007874015748,
          "duration": 0.11534204101562295
        },
        {
          "name": "A#4",
          "midi": 70,
          "time": 97.67533127734279,
          "velocity": 0.3937007874015748,
          "duration": 0.1194943544921756
        },
        {
          "name": "D5",
          "midi": 74,
          "time": 97.67533127734279,
          "velocity": 0.3937007874015748,
          "duration": 0.1194943544921756
        },
        {
          "name": "F4",
          "midi": 65,
          "time": 97.79528699999904,
          "velocity": 0.3937007874015748,
          "duration": 0.38016736718749655
        },
        {
          "name": "A#4",
          "midi": 70,
          "time": 97.79528699999904,
          "velocity": 0.3937007874015748,
          "duration": 0.36632632226562123
        },
        {
          "name": "D4",
          "midi": 62,
          "time": 98.16207469042872,
          "velocity": 0.3937007874015748,
          "duration": 0.26021164453125323
        },
        {
          "name": "A4",
          "midi": 69,
          "time": 98.16207469042872,
          "velocity": 0.3937007874015748,
          "duration": 0.23206818652343486
        },
        {
          "name": "A#3",
          "midi": 58,
          "time": 98.39460424511623,
          "velocity": 0.3937007874015748,
          "duration": 0.13333539941406514
        },
        {
          "name": "D#4",
          "midi": 63,
          "time": 98.39460424511623,
          "velocity": 0.3937007874015748,
          "duration": 0.11949435449218981
        },
        {
          "name": "D4",
          "midi": 62,
          "time": 98.51455996777248,
          "velocity": 0.3937007874015748,
          "duration": 0.13333539941405093
        },
        {
          "name": "G4",
          "midi": 67,
          "time": 98.51455996777248,
          "velocity": 0.3937007874015748,
          "duration": 0.09319636914061391
        },
        {
          "name": "C4",
          "midi": 60,
          "time": 98.74985773144435,
          "velocity": 0.3937007874015748,
          "duration": 0.0848917421874944
        },
        {
          "name": "F4",
          "midi": 65,
          "time": 98.74985773144435,
          "velocity": 0.3937007874015748,
          "duration": 0.0848917421874944
        },
        {
          "name": "A#3",
          "midi": 58,
          "time": 98.9768508681631,
          "velocity": 0.3937007874015748,
          "duration": 0.09365773730468163
        },
        {
          "name": "D#4",
          "midi": 63,
          "time": 98.9768508681631,
          "velocity": 0.3937007874015748,
          "duration": 0.09365773730468163
        },
        {
          "name": "C4",
          "midi": 60,
          "time": 99.21260999999903,
          "velocity": 0.3937007874015748,
          "duration": 0.13333539941406514
        },
        {
          "name": "F4",
          "midi": 65,
          "time": 99.21260999999903,
          "velocity": 0.3937007874015748,
          "duration": 0.13333539941406514
        },
        {
          "name": "C4",
          "midi": 60,
          "time": 99.34640676757716,
          "velocity": 0.3937007874015748,
          "duration": 0.1301058222656195
        },
        {
          "name": "D#4",
          "midi": 63,
          "time": 99.34640676757716,
          "velocity": 0.3937007874015748,
          "duration": 0.11626477734374419
        },
        {
          "name": "A#3",
          "midi": 58,
          "time": 99.46313291308498,
          "velocity": 0.3937007874015748,
          "duration": 0.1296444541015518
        },
        {
          "name": "D4",
          "midi": 62,
          "time": 99.46313291308498,
          "velocity": 0.3937007874015748,
          "duration": 0.11580340917967646
        },
        {
          "name": "A3",
          "midi": 57,
          "time": 99.57939769042872,
          "velocity": 0.3937007874015748,
          "duration": 0.26021164453125323
        },
        {
          "name": "C4",
          "midi": 60,
          "time": 99.57939769042872,
          "velocity": 0.3937007874015748,
          "duration": 0.23206818652343486
        },
        {
          "name": "D4",
          "midi": 62,
          "time": 99.81192724511622,
          "velocity": 0.3937007874015748,
          "duration": 0.11949435449218981
        },
        {
          "name": "G4",
          "midi": 67,
          "time": 99.81192724511622,
          "velocity": 0.3937007874015748,
          "duration": 0.11949435449218981
        },
        {
          "name": "A3",
          "midi": 57,
          "time": 99.93188296777248,
          "velocity": 0.3937007874015748,
          "duration": 0.32664866015625194
        },
        {
          "name": "D4",
          "midi": 62,
          "time": 99.93188296777248,
          "velocity": 0.3937007874015748,
          "duration": 0.34833296386719326
        },
        {
          "name": "F3",
          "midi": 53,
          "time": 100.28067729980374,
          "velocity": 0.3937007874015748,
          "duration": 0.1268762451171881
        },
        {
          "name": "A3",
          "midi": 57,
          "time": 100.39417386816312,
          "velocity": 0.3937007874015748,
          "duration": 0.12918308593749828
        },
        {
          "name": "C4",
          "midi": 60,
          "time": 100.39417386816312,
          "velocity": 0.3937007874015748,
          "duration": 0.11534204101562295
        },
        {
          "name": "A#3",
          "midi": 58,
          "time": 100.50997727734281,
          "velocity": 0.3937007874015748,
          "duration": 0.1194943544921756
        },
        {
          "name": "D#4",
          "midi": 63,
          "time": 100.50997727734281,
          "velocity": 0.3937007874015748,
          "duration": 0.1194943544921756
        },
        {
          "name": "A#3",
          "midi": 58,
          "time": 100.62993299999906,
          "velocity": 0.3937007874015748,
          "duration": 0.2620571171874957
        },
        {
          "name": "D4",
          "midi": 62,
          "time": 100.62993299999906,
          "velocity": 0.3937007874015748,
          "duration": 0.24821607226562037
        },
        {
          "name": "D4",
          "midi": 62,
          "time": 100.99672069042875,
          "velocity": 0.3937007874015748,
          "duration": 0.13056719042968723
        },
        {
          "name": "G4",
          "midi": 67,
          "time": 100.99672069042875,
          "velocity": 0.3937007874015748,
          "duration": 0.09042816015625021
        },
        {
          "name": "G4",
          "midi": 67,
          "time": 101.22925024511625,
          "velocity": 0.3937007874015748,
          "duration": 0.11949435449218981
        },
        {
          "name": "A#4",
          "midi": 70,
          "time": 101.22925024511625,
          "velocity": 0.3937007874015748,
          "duration": 0.11949435449218981
        },
        {
          "name": "D4",
          "midi": 62,
          "time": 101.3492059677725,
          "velocity": 0.3937007874015748,
          "duration": 0.09319636914062812
        },
        {
          "name": "G4",
          "midi": 67,
          "time": 101.3492059677725,
          "velocity": 0.3937007874015748,
          "duration": 0.09319636914062812
        },
        {
          "name": "F4",
          "midi": 65,
          "time": 101.58450373144439,
          "velocity": 0.3937007874015748,
          "duration": 0.1268762451171881
        },
        {
          "name": "A4",
          "midi": 69,
          "time": 101.58450373144439,
          "velocity": 0.3937007874015748,
          "duration": 0.11303520019531277
        },
        {
          "name": "G4",
          "midi": 67,
          "time": 101.69800029980377,
          "velocity": 0.3937007874015748,
          "duration": 0.1268762451171881
        },
        {
          "name": "A#4",
          "midi": 70,
          "time": 101.69800029980377,
          "velocity": 0.3937007874015748,
          "duration": 0.11303520019531277
        },
        {
          "name": "A4",
          "midi": 69,
          "time": 101.81149686816315,
          "velocity": 0.3937007874015748,
          "duration": 0.11534204101562295
        },
        {
          "name": "C5",
          "midi": 72,
          "time": 101.81149686816315,
          "velocity": 0.3937007874015748,
          "duration": 0.11534204101562295
        },
        {
          "name": "F4",
          "midi": 65,
          "time": 101.92730027734284,
          "velocity": 0.3937007874015748,
          "duration": 0.13333539941406514
        },
        {
          "name": "A4",
          "midi": 69,
          "time": 101.92730027734284,
          "velocity": 0.3937007874015748,
          "duration": 0.11949435449218981
        },
        {
          "name": "G4",
          "midi": 67,
          "time": 102.0472559999991,
          "velocity": 0.3937007874015748,
          "duration": 0.38016736718749655
        },
        {
          "name": "A#4",
          "midi": 70,
          "time": 102.0472559999991,
          "velocity": 0.3937007874015748,
          "duration": 0.36632632226562123
        },
        {
          "name": "F4",
          "midi": 65,
          "time": 102.41404369042878,
          "velocity": 0.3937007874015748,
          "duration": 0.26021164453125323
        },
        {
          "name": "A4",
          "midi": 69,
          "time": 102.41404369042878,
          "velocity": 0.3937007874015748,
          "duration": 0.23206818652343486
        },
        {
          "name": "G4",
          "midi": 67,
          "time": 102.64657324511629,
          "velocity": 0.3937007874015748,
          "duration": 0.06505291113280975
        },
        {
          "name": "F4",
          "midi": 65,
          "time": 102.70516700195222,
          "velocity": 0.3937007874015748,
          "duration": 0.06782112011718766
        },
        {
          "name": "C4",
          "midi": 60,
          "time": 102.76652896777253,
          "velocity": 0.3937007874015748,
          "duration": 0.13333539941406514
        },
        {
          "name": "D#4",
          "midi": 63,
          "time": 102.76652896777253,
          "velocity": 0.3937007874015748,
          "duration": 0.09319636914062812
        },
        {
          "name": "F4",
          "midi": 65,
          "time": 103.00182673144441,
          "velocity": 0.3937007874015748,
          "duration": 0.1268762451171881
        },
        {
          "name": "A4",
          "midi": 69,
          "time": 103.00182673144441,
          "velocity": 0.3937007874015748,
          "duration": 0.11303520019531277
        },
        {
          "name": "G4",
          "midi": 67,
          "time": 103.11532329980379,
          "velocity": 0.3937007874015748,
          "duration": 0.1268762451171881
        },
        {
          "name": "A#4",
          "midi": 70,
          "time": 103.11532329980379,
          "velocity": 0.3937007874015748,
          "duration": 0.11303520019531277
        },
        {
          "name": "A4",
          "midi": 69,
          "time": 103.22881986816317,
          "velocity": 0.3937007874015748,
          "duration": 0.12918308593749828
        },
        {
          "name": "C5",
          "midi": 72,
          "time": 103.22881986816317,
          "velocity": 0.3937007874015748,
          "duration": 0.11534204101562295
        },
        {
          "name": "A#4",
          "midi": 70,
          "time": 103.34462327734286,
          "velocity": 0.3937007874015748,
          "duration": 0.13333539941405093
        },
        {
          "name": "D5",
          "midi": 74,
          "time": 103.34462327734286,
          "velocity": 0.3937007874015748,
          "duration": 0.1194943544921756
        },
        {
          "name": "D5",
          "midi": 74,
          "time": 103.4645789999991,
          "velocity": 0.3937007874015748,
          "duration": 0.36632632226562123
        },
        {
          "name": "F5",
          "midi": 77,
          "time": 103.4645789999991,
          "velocity": 0.3937007874015748,
          "duration": 0.36632632226562123
        },
        {
          "name": "A#4",
          "midi": 70,
          "time": 103.8313666904288,
          "velocity": 0.3937007874015748,
          "duration": 0.23206818652343486
        },
        {
          "name": "D5",
          "midi": 74,
          "time": 103.8313666904288,
          "velocity": 0.3937007874015748,
          "duration": 0.23206818652343486
        },
        {
          "name": "G4",
          "midi": 67,
          "time": 104.0638962451163,
          "velocity": 0.3937007874015748,
          "duration": 0.13333539941406514
        },
        {
          "name": "A#4",
          "midi": 70,
          "time": 104.0638962451163,
          "velocity": 0.3937007874015748,
          "duration": 0.11949435449218981
        },
        {
          "name": "A4",
          "midi": 69,
          "time": 104.18385196777255,
          "velocity": 0.3937007874015748,
          "duration": 0.26297985351563113
        },
        {
          "name": "C5",
          "midi": 72,
          "time": 104.18385196777255,
          "velocity": 0.3937007874015748,
          "duration": 0.23483639550781277
        },
        {
          "name": "G4",
          "midi": 67,
          "time": 104.41914973144443,
          "velocity": 0.3937007874015748,
          "duration": 0.2546752265625116
        },
        {
          "name": "A#4",
          "midi": 70,
          "time": 104.41914973144443,
          "velocity": 0.3937007874015748,
          "duration": 0.22653176855469326
        },
        {
          "name": "F4",
          "midi": 65,
          "time": 104.6461428681632,
          "velocity": 0.3937007874015748,
          "duration": 0.26344122167969886
        },
        {
          "name": "A4",
          "midi": 69,
          "time": 104.6461428681632,
          "velocity": 0.3937007874015748,
          "duration": 0.2352977636718805
        },
        {
          "name": "G4",
          "midi": 67,
          "time": 104.88190199999914,
          "velocity": 0.3937007874015748,
          "duration": 0.14717644433594046
        },
        {
          "name": "A#4",
          "midi": 70,
          "time": 104.88190199999914,
          "velocity": 0.3937007874015748,
          "duration": 0.13333539941406514
        },
        {
          "name": "F4",
          "midi": 65,
          "time": 105.01569876757728,
          "velocity": 0.3937007874015748,
          "duration": 0.1301058222656195
        },
        {
          "name": "A4",
          "midi": 69,
          "time": 105.01569876757728,
          "velocity": 0.3937007874015748,
          "duration": 0.11626477734374419
        },
        {
          "name": "D#4",
          "midi": 63,
          "time": 105.13242491308509,
          "velocity": 0.3937007874015748,
          "duration": 0.1296444541015518
        },
        {
          "name": "G4",
          "midi": 67,
          "time": 105.13242491308509,
          "velocity": 0.3937007874015748,
          "duration": 0.11580340917967646
        },
        {
          "name": "D4",
          "midi": 62,
          "time": 105.24868969042883,
          "velocity": 0.3937007874015748,
          "duration": 0.13056719042968723
        },
        {
          "name": "F4",
          "midi": 65,
          "time": 105.24868969042883,
          "velocity": 0.3937007874015748,
          "duration": 0.09042816015625021
        },
        {
          "name": "F4",
          "midi": 65,
          "time": 105.48121924511634,
          "velocity": 0.3937007874015748,
          "duration": 0.11257383203124505
        },
        {
          "name": "A4",
          "midi": 69,
          "time": 105.48121924511634,
          "velocity": 0.3937007874015748,
          "duration": 0.1194943544921756
        },
        {
          "name": "A#3",
          "midi": 58,
          "time": 105.60117496777258,
          "velocity": 0.3937007874015748,
          "duration": 0.6975886640624935
        },
        {
          "name": "G4",
          "midi": 67,
          "time": 105.60117496777258,
          "velocity": 0.3937007874015748,
          "duration": 0.6975886640624935
        },
        {
          "name": "A#3",
          "midi": 58,
          "time": 106.29922499999914,
          "velocity": 0.3937007874015748,
          "duration": 0.24821607226562037
        },
        {
          "name": "D4",
          "midi": 62,
          "time": 106.29922499999914,
          "velocity": 0.3937007874015748,
          "duration": 0.24821607226562037
        },
        {
          "name": "D4",
          "midi": 62,
          "time": 106.66601269042883,
          "velocity": 0.3937007874015748,
          "duration": 0.09042816015625021
        },
        {
          "name": "G4",
          "midi": 67,
          "time": 106.66601269042883,
          "velocity": 0.3937007874015748,
          "duration": 0.09042816015625021
        },
        {
          "name": "G4",
          "midi": 67,
          "time": 106.89854224511633,
          "velocity": 0.3937007874015748,
          "duration": 0.11949435449218981
        },
        {
          "name": "A#4",
          "midi": 70,
          "time": 106.89854224511633,
          "velocity": 0.3937007874015748,
          "duration": 0.11949435449218981
        },
        {
          "name": "D4",
          "midi": 62,
          "time": 107.01849796777259,
          "velocity": 0.3937007874015748,
          "duration": 0.09319636914062812
        },
        {
          "name": "G4",
          "midi": 67,
          "time": 107.01849796777259,
          "velocity": 0.3937007874015748,
          "duration": 0.09319636914062812
        },
        {
          "name": "F4",
          "midi": 65,
          "time": 107.25379573144447,
          "velocity": 0.3937007874015748,
          "duration": 0.1268762451171881
        },
        {
          "name": "A4",
          "midi": 69,
          "time": 107.25379573144447,
          "velocity": 0.3937007874015748,
          "duration": 0.11303520019531277
        },
        {
          "name": "G4",
          "midi": 67,
          "time": 107.36729229980385,
          "velocity": 0.3937007874015748,
          "duration": 0.1268762451171881
        },
        {
          "name": "A#4",
          "midi": 70,
          "time": 107.36729229980385,
          "velocity": 0.3937007874015748,
          "duration": 0.11303520019531277
        },
        {
          "name": "A4",
          "midi": 69,
          "time": 107.48078886816323,
          "velocity": 0.3937007874015748,
          "duration": 0.11534204101562295
        },
        {
          "name": "C5",
          "midi": 72,
          "time": 107.48078886816323,
          "velocity": 0.3937007874015748,
          "duration": 0.11534204101562295
        },
        {
          "name": "F4",
          "midi": 65,
          "time": 107.59659227734292,
          "velocity": 0.3937007874015748,
          "duration": 0.13333539941406514
        },
        {
          "name": "A4",
          "midi": 69,
          "time": 107.59659227734292,
          "velocity": 0.3937007874015748,
          "duration": 0.11949435449218981
        },
        {
          "name": "G4",
          "midi": 67,
          "time": 107.71654799999918,
          "velocity": 0.3937007874015748,
          "duration": 0.38016736718749655
        },
        {
          "name": "A#4",
          "midi": 70,
          "time": 107.71654799999918,
          "velocity": 0.3937007874015748,
          "duration": 0.36632632226562123
        },
        {
          "name": "F4",
          "midi": 65,
          "time": 108.08333569042887,
          "velocity": 0.3937007874015748,
          "duration": 0.26021164453125323
        },
        {
          "name": "A4",
          "midi": 69,
          "time": 108.08333569042887,
          "velocity": 0.3937007874015748,
          "duration": 0.23206818652343486
        },
        {
          "name": "G4",
          "midi": 67,
          "time": 108.31586524511637,
          "velocity": 0.3937007874015748,
          "duration": 0.06505291113280975
        },
        {
          "name": "F4",
          "midi": 65,
          "time": 108.3744590019523,
          "velocity": 0.3937007874015748,
          "duration": 0.06782112011718766
        },
        {
          "name": "C4",
          "midi": 60,
          "time": 108.43582096777261,
          "velocity": 0.3937007874015748,
          "duration": 0.13333539941406514
        },
        {
          "name": "D#4",
          "midi": 63,
          "time": 108.43582096777261,
          "velocity": 0.3937007874015748,
          "duration": 0.09319636914062812
        },
        {
          "name": "F4",
          "midi": 65,
          "time": 108.6711187314445,
          "velocity": 0.3937007874015748,
          "duration": 0.1268762451171881
        },
        {
          "name": "A4",
          "midi": 69,
          "time": 108.6711187314445,
          "velocity": 0.3937007874015748,
          "duration": 0.11303520019531277
        },
        {
          "name": "G4",
          "midi": 67,
          "time": 108.78461529980387,
          "velocity": 0.3937007874015748,
          "duration": 0.1268762451171881
        },
        {
          "name": "A#4",
          "midi": 70,
          "time": 108.78461529980387,
          "velocity": 0.3937007874015748,
          "duration": 0.11303520019531277
        },
        {
          "name": "A4",
          "midi": 69,
          "time": 108.89811186816326,
          "velocity": 0.3937007874015748,
          "duration": 0.12918308593749828
        },
        {
          "name": "C5",
          "midi": 72,
          "time": 108.89811186816326,
          "velocity": 0.3937007874015748,
          "duration": 0.11534204101562295
        },
        {
          "name": "A#4",
          "midi": 70,
          "time": 109.01391527734295,
          "velocity": 0.3937007874015748,
          "duration": 0.1194943544921756
        },
        {
          "name": "D5",
          "midi": 74,
          "time": 109.01391527734295,
          "velocity": 0.3937007874015748,
          "duration": 0.1194943544921756
        },
        {
          "name": "F4",
          "midi": 65,
          "time": 109.13387099999919,
          "velocity": 0.3937007874015748,
          "duration": 0.38016736718749655
        },
        {
          "name": "A#4",
          "midi": 70,
          "time": 109.13387099999919,
          "velocity": 0.3937007874015748,
          "duration": 0.36632632226562123
        },
        {
          "name": "D4",
          "midi": 62,
          "time": 109.50065869042888,
          "velocity": 0.3937007874015748,
          "duration": 0.26021164453125323
        },
        {
          "name": "A4",
          "midi": 69,
          "time": 109.50065869042888,
          "velocity": 0.3937007874015748,
          "duration": 0.23206818652343486
        },
        {
          "name": "A#3",
          "midi": 58,
          "time": 109.73318824511638,
          "velocity": 0.3937007874015748,
          "duration": 0.13333539941406514
        },
        {
          "name": "D#4",
          "midi": 63,
          "time": 109.73318824511638,
          "velocity": 0.3937007874015748,
          "duration": 0.11949435449218981
        },
        {
          "name": "D4",
          "midi": 62,
          "time": 109.85314396777264,
          "velocity": 0.3937007874015748,
          "duration": 0.13333539941405093
        },
        {
          "name": "G4",
          "midi": 67,
          "time": 109.85314396777264,
          "velocity": 0.3937007874015748,
          "duration": 0.09319636914061391
        },
        {
          "name": "C4",
          "midi": 60,
          "time": 110.0884417314445,
          "velocity": 0.3937007874015748,
          "duration": 0.0848917421874944
        },
        {
          "name": "F4",
          "midi": 65,
          "time": 110.0884417314445,
          "velocity": 0.3937007874015748,
          "duration": 0.0848917421874944
        },
        {
          "name": "A#3",
          "midi": 58,
          "time": 110.31543486816325,
          "velocity": 0.3937007874015748,
          "duration": 0.09365773730468163
        },
        {
          "name": "D#4",
          "midi": 63,
          "time": 110.31543486816325,
          "velocity": 0.3937007874015748,
          "duration": 0.09365773730468163
        },
        {
          "name": "C4",
          "midi": 60,
          "time": 110.55119399999919,
          "velocity": 0.3937007874015748,
          "duration": 0.13333539941406514
        },
        {
          "name": "F4",
          "midi": 65,
          "time": 110.55119399999919,
          "velocity": 0.3937007874015748,
          "duration": 0.13333539941406514
        },
        {
          "name": "C4",
          "midi": 60,
          "time": 110.68499076757732,
          "velocity": 0.3937007874015748,
          "duration": 0.1301058222656195
        },
        {
          "name": "D#4",
          "midi": 63,
          "time": 110.68499076757732,
          "velocity": 0.3937007874015748,
          "duration": 0.11626477734374419
        },
        {
          "name": "A#3",
          "midi": 58,
          "time": 110.80171691308513,
          "velocity": 0.3937007874015748,
          "duration": 0.1296444541015518
        },
        {
          "name": "D4",
          "midi": 62,
          "time": 110.80171691308513,
          "velocity": 0.3937007874015748,
          "duration": 0.11580340917967646
        },
        {
          "name": "A3",
          "midi": 57,
          "time": 110.91798169042887,
          "velocity": 0.3937007874015748,
          "duration": 0.26021164453125323
        },
        {
          "name": "C4",
          "midi": 60,
          "time": 110.91798169042887,
          "velocity": 0.3937007874015748,
          "duration": 0.23206818652343486
        },
        {
          "name": "D4",
          "midi": 62,
          "time": 111.15051124511638,
          "velocity": 0.3937007874015748,
          "duration": 0.11949435449218981
        },
        {
          "name": "G4",
          "midi": 67,
          "time": 111.15051124511638,
          "velocity": 0.3937007874015748,
          "duration": 0.11949435449218981
        },
        {
          "name": "A3",
          "midi": 57,
          "time": 111.27046696777263,
          "velocity": 0.3937007874015748,
          "duration": 0.32664866015625194
        },
        {
          "name": "D4",
          "midi": 62,
          "time": 111.27046696777263,
          "velocity": 0.3937007874015748,
          "duration": 0.34833296386719326
        },
        {
          "name": "F3",
          "midi": 53,
          "time": 111.6192612998039,
          "velocity": 0.3937007874015748,
          "duration": 0.1268762451171881
        },
        {
          "name": "A3",
          "midi": 57,
          "time": 111.73275786816328,
          "velocity": 0.3937007874015748,
          "duration": 0.12918308593749828
        },
        {
          "name": "C4",
          "midi": 60,
          "time": 111.73275786816328,
          "velocity": 0.3937007874015748,
          "duration": 0.11534204101562295
        },
        {
          "name": "A#3",
          "midi": 58,
          "time": 111.84856127734297,
          "velocity": 0.3937007874015748,
          "duration": 0.1194943544921756
        },
        {
          "name": "D#4",
          "midi": 63,
          "time": 111.84856127734297,
          "velocity": 0.3937007874015748,
          "duration": 0.1194943544921756
        },
        {
          "name": "A#3",
          "midi": 58,
          "time": 111.96851699999921,
          "velocity": 0.3937007874015748,
          "duration": 0.2620571171874957
        },
        {
          "name": "D4",
          "midi": 62,
          "time": 111.96851699999921,
          "velocity": 0.3937007874015748,
          "duration": 0.24821607226562037
        },
        {
          "name": "D4",
          "midi": 62,
          "time": 112.3353046904289,
          "velocity": 0.3937007874015748,
          "duration": 0.13056719042968723
        },
        {
          "name": "G4",
          "midi": 67,
          "time": 112.3353046904289,
          "velocity": 0.3937007874015748,
          "duration": 0.09042816015625021
        },
        {
          "name": "G4",
          "midi": 67,
          "time": 112.5678342451164,
          "velocity": 0.3937007874015748,
          "duration": 0.11949435449218981
        },
        {
          "name": "A#4",
          "midi": 70,
          "time": 112.5678342451164,
          "velocity": 0.3937007874015748,
          "duration": 0.11949435449218981
        },
        {
          "name": "D4",
          "midi": 62,
          "time": 112.68778996777266,
          "velocity": 0.3937007874015748,
          "duration": 0.09319636914062812
        },
        {
          "name": "G4",
          "midi": 67,
          "time": 112.68778996777266,
          "velocity": 0.3937007874015748,
          "duration": 0.09319636914062812
        },
        {
          "name": "F4",
          "midi": 65,
          "time": 112.92308773144454,
          "velocity": 0.3937007874015748,
          "duration": 0.1268762451171881
        },
        {
          "name": "A4",
          "midi": 69,
          "time": 112.92308773144454,
          "velocity": 0.3937007874015748,
          "duration": 0.11303520019531277
        },
        {
          "name": "G4",
          "midi": 67,
          "time": 113.03658429980392,
          "velocity": 0.3937007874015748,
          "duration": 0.1268762451171881
        },
        {
          "name": "A#4",
          "midi": 70,
          "time": 113.03658429980392,
          "velocity": 0.3937007874015748,
          "duration": 0.11303520019531277
        },
        {
          "name": "A4",
          "midi": 69,
          "time": 113.1500808681633,
          "velocity": 0.3937007874015748,
          "duration": 0.11534204101562295
        },
        {
          "name": "C5",
          "midi": 72,
          "time": 113.1500808681633,
          "velocity": 0.3937007874015748,
          "duration": 0.11534204101562295
        },
        {
          "name": "F4",
          "midi": 65,
          "time": 113.26588427734299,
          "velocity": 0.3937007874015748,
          "duration": 0.13333539941406514
        },
        {
          "name": "A4",
          "midi": 69,
          "time": 113.26588427734299,
          "velocity": 0.3937007874015748,
          "duration": 0.11949435449218981
        },
        {
          "name": "G4",
          "midi": 67,
          "time": 113.38583999999925,
          "velocity": 0.3937007874015748,
          "duration": 0.38016736718749655
        },
        {
          "name": "A#4",
          "midi": 70,
          "time": 113.38583999999925,
          "velocity": 0.3937007874015748,
          "duration": 0.36632632226562123
        },
        {
          "name": "F4",
          "midi": 65,
          "time": 113.75262769042894,
          "velocity": 0.3937007874015748,
          "duration": 0.26021164453125323
        },
        {
          "name": "A4",
          "midi": 69,
          "time": 113.75262769042894,
          "velocity": 0.3937007874015748,
          "duration": 0.23206818652343486
        },
        {
          "name": "G4",
          "midi": 67,
          "time": 113.98515724511644,
          "velocity": 0.3937007874015748,
          "duration": 0.06505291113280975
        },
        {
          "name": "F4",
          "midi": 65,
          "time": 114.04375100195237,
          "velocity": 0.3937007874015748,
          "duration": 0.06782112011718766
        },
        {
          "name": "C4",
          "midi": 60,
          "time": 114.10511296777268,
          "velocity": 0.3937007874015748,
          "duration": 0.13333539941406514
        },
        {
          "name": "D#4",
          "midi": 63,
          "time": 114.10511296777268,
          "velocity": 0.3937007874015748,
          "duration": 0.09319636914062812
        },
        {
          "name": "F4",
          "midi": 65,
          "time": 114.34041073144456,
          "velocity": 0.3937007874015748,
          "duration": 0.1268762451171881
        },
        {
          "name": "A4",
          "midi": 69,
          "time": 114.34041073144456,
          "velocity": 0.3937007874015748,
          "duration": 0.11303520019531277
        },
        {
          "name": "G4",
          "midi": 67,
          "time": 114.45390729980394,
          "velocity": 0.3937007874015748,
          "duration": 0.1268762451171881
        },
        {
          "name": "A#4",
          "midi": 70,
          "time": 114.45390729980394,
          "velocity": 0.3937007874015748,
          "duration": 0.11303520019531277
        },
        {
          "name": "A4",
          "midi": 69,
          "time": 114.56740386816332,
          "velocity": 0.3937007874015748,
          "duration": 0.12918308593749828
        },
        {
          "name": "C5",
          "midi": 72,
          "time": 114.56740386816332,
          "velocity": 0.3937007874015748,
          "duration": 0.11534204101562295
        },
        {
          "name": "A#4",
          "midi": 70,
          "time": 114.68320727734302,
          "velocity": 0.3937007874015748,
          "duration": 0.13333539941405093
        },
        {
          "name": "D5",
          "midi": 74,
          "time": 114.68320727734302,
          "velocity": 0.3937007874015748,
          "duration": 0.1194943544921756
        },
        {
          "name": "D5",
          "midi": 74,
          "time": 114.80316299999926,
          "velocity": 0.3937007874015748,
          "duration": 0.36632632226562123
        },
        {
          "name": "F5",
          "midi": 77,
          "time": 114.80316299999926,
          "velocity": 0.3937007874015748,
          "duration": 0.36632632226562123
        },
        {
          "name": "A#4",
          "midi": 70,
          "time": 115.16995069042895,
          "velocity": 0.3937007874015748,
          "duration": 0.23206818652343486
        },
        {
          "name": "D5",
          "midi": 74,
          "time": 115.16995069042895,
          "velocity": 0.3937007874015748,
          "duration": 0.23206818652343486
        },
        {
          "name": "G4",
          "midi": 67,
          "time": 115.40248024511645,
          "velocity": 0.3937007874015748,
          "duration": 0.13333539941406514
        },
        {
          "name": "A#4",
          "midi": 70,
          "time": 115.40248024511645,
          "velocity": 0.3937007874015748,
          "duration": 0.11949435449218981
        },
        {
          "name": "A4",
          "midi": 69,
          "time": 115.52243596777271,
          "velocity": 0.3937007874015748,
          "duration": 0.26297985351563113
        },
        {
          "name": "C5",
          "midi": 72,
          "time": 115.52243596777271,
          "velocity": 0.3937007874015748,
          "duration": 0.23483639550781277
        },
        {
          "name": "G4",
          "midi": 67,
          "time": 115.75773373144459,
          "velocity": 0.3937007874015748,
          "duration": 0.2546752265625116
        },
        {
          "name": "A#4",
          "midi": 70,
          "time": 115.75773373144459,
          "velocity": 0.3937007874015748,
          "duration": 0.22653176855469326
        },
        {
          "name": "F4",
          "midi": 65,
          "time": 115.98472686816335,
          "velocity": 0.3937007874015748,
          "duration": 0.26344122167969886
        },
        {
          "name": "A4",
          "midi": 69,
          "time": 115.98472686816335,
          "velocity": 0.3937007874015748,
          "duration": 0.2352977636718805
        },
        {
          "name": "G4",
          "midi": 67,
          "time": 116.2204859999993,
          "velocity": 0.3937007874015748,
          "duration": 0.14717644433594046
        },
        {
          "name": "A#4",
          "midi": 70,
          "time": 116.2204859999993,
          "velocity": 0.3937007874015748,
          "duration": 0.13333539941406514
        },
        {
          "name": "F4",
          "midi": 65,
          "time": 116.35428276757743,
          "velocity": 0.3937007874015748,
          "duration": 0.1301058222656195
        },
        {
          "name": "A4",
          "midi": 69,
          "time": 116.35428276757743,
          "velocity": 0.3937007874015748,
          "duration": 0.11626477734374419
        },
        {
          "name": "D#4",
          "midi": 63,
          "time": 116.47100891308524,
          "velocity": 0.3937007874015748,
          "duration": 0.1296444541015518
        },
        {
          "name": "G4",
          "midi": 67,
          "time": 116.47100891308524,
          "velocity": 0.3937007874015748,
          "duration": 0.11580340917967646
        },
        {
          "name": "D4",
          "midi": 62,
          "time": 116.58727369042899,
          "velocity": 0.3937007874015748,
          "duration": 0.13056719042968723
        },
        {
          "name": "F4",
          "midi": 65,
          "time": 116.58727369042899,
          "velocity": 0.3937007874015748,
          "duration": 0.09042816015625021
        },
        {
          "name": "F4",
          "midi": 65,
          "time": 116.81980324511649,
          "velocity": 0.3937007874015748,
          "duration": 0.11257383203124505
        },
        {
          "name": "A4",
          "midi": 69,
          "time": 116.81980324511649,
          "velocity": 0.3937007874015748,
          "duration": 0.1194943544921756
        },
        {
          "name": "A#3",
          "midi": 58,
          "time": 116.93975896777273,
          "velocity": 0.3937007874015748,
          "duration": 0.6975886640624935
        },
        {
          "name": "G4",
          "midi": 67,
          "time": 116.93975896777273,
          "velocity": 0.3937007874015748,
          "duration": 0.6975886640624935
        }
      ],
      "controlChanges": {
        "7": [
          {
            "number": 7,
            "time": 0,
            "value": 1
          }
        ],
        "32": [
          {
            "number": 32,
            "time": 0,
            "value": 0
          }
        ]
      },
      "id": 7,
      "name": "Untitled",
      "instrumentNumber": 4,
      "instrument": "electric piano 1",
      "instrumentFamily": "piano",
      "channelNumber": 6,
      "isPercussion": false
    },
    {
      "startTime": 0,
      "duration": 117.63780900000006,
      "length": 612,
      "notes": [
        {
          "name": "D4",
          "midi": 62,
          "time": 0,
          "velocity": 0.6299212598425197,
          "duration": 0.2362205
        },
        {
          "name": "G3",
          "midi": 55,
          "time": 0,
          "velocity": 0.6299212598425197,
          "duration": 0.2362205
        },
        {
          "name": "F4",
          "midi": 65,
          "time": 0,
          "velocity": 0.47244094488188976,
          "duration": 0.2362205
        },
        {
          "name": "G4",
          "midi": 67,
          "time": 0,
          "velocity": 0.6299212598425197,
          "duration": 0.2362205
        },
        {
          "name": "A#3",
          "midi": 58,
          "time": 0,
          "velocity": 0.3937007874015748,
          "duration": 0.2362205
        },
        {
          "name": "E4",
          "midi": 64,
          "time": 1.4173229999999999,
          "velocity": 0.3937007874015748,
          "duration": 0.23622049999999994
        },
        {
          "name": "G3",
          "midi": 55,
          "time": 1.4173229999999999,
          "velocity": 0.6299212598425197,
          "duration": 0.23622049999999994
        },
        {
          "name": "G4",
          "midi": 67,
          "time": 1.4173229999999999,
          "velocity": 0.6299212598425197,
          "duration": 0.23622049999999994
        },
        {
          "name": "A#3",
          "midi": 58,
          "time": 1.4173229999999999,
          "velocity": 0.47244094488188976,
          "duration": 0.23622049999999994
        },
        {
          "name": "C4",
          "midi": 60,
          "time": 1.4173229999999999,
          "velocity": 0.6299212598425197,
          "duration": 0.23622049999999994
        },
        {
          "name": "G3",
          "midi": 55,
          "time": 2.8346459999999998,
          "velocity": 0.6299212598425197,
          "duration": 0.23622049999999994
        },
        {
          "name": "A#3",
          "midi": 58,
          "time": 2.8346459999999998,
          "velocity": 0.3937007874015748,
          "duration": 0.23622049999999994
        },
        {
          "name": "G4",
          "midi": 67,
          "time": 2.8346459999999998,
          "velocity": 0.6299212598425197,
          "duration": 0.23622049999999994
        },
        {
          "name": "D4",
          "midi": 62,
          "time": 2.8346459999999998,
          "velocity": 0.6299212598425197,
          "duration": 0.23622049999999994
        },
        {
          "name": "F4",
          "midi": 65,
          "time": 2.8346459999999998,
          "velocity": 0.47244094488188976,
          "duration": 0.23622049999999994
        },
        {
          "name": "G4",
          "midi": 67,
          "time": 4.251969,
          "velocity": 0.6299212598425197,
          "duration": 0.23622049999999994
        },
        {
          "name": "A#4",
          "midi": 70,
          "time": 4.251969,
          "velocity": 0.3937007874015748,
          "duration": 0.23622049999999994
        },
        {
          "name": "A#3",
          "midi": 58,
          "time": 4.251969,
          "velocity": 0.6299212598425197,
          "duration": 0.23622049999999994
        },
        {
          "name": "D#4",
          "midi": 63,
          "time": 4.251969,
          "velocity": 0.6299212598425197,
          "duration": 0.23622049999999994
        },
        {
          "name": "D4",
          "midi": 62,
          "time": 4.251969,
          "velocity": 0.5511811023622047,
          "duration": 0.23622049999999994
        },
        {
          "name": "C4",
          "midi": 60,
          "time": 4.9606305,
          "velocity": 0.5511811023622047,
          "duration": 0.23622049999999994
        },
        {
          "name": "A4",
          "midi": 69,
          "time": 4.9606305,
          "velocity": 0.3937007874015748,
          "duration": 0.23622049999999994
        },
        {
          "name": "D4",
          "midi": 62,
          "time": 4.9606305,
          "velocity": 0.6299212598425197,
          "duration": 0.23622049999999994
        },
        {
          "name": "A3",
          "midi": 57,
          "time": 4.9606305,
          "velocity": 0.6299212598425197,
          "duration": 0.23622049999999994
        },
        {
          "name": "F4",
          "midi": 65,
          "time": 4.9606305,
          "velocity": 0.6299212598425197,
          "duration": 0.23622049999999994
        },
        {
          "name": "F4",
          "midi": 65,
          "time": 5.6692919999999996,
          "velocity": 0.47244094488188976,
          "duration": 0.23622049999999994
        },
        {
          "name": "G3",
          "midi": 55,
          "time": 5.6692919999999996,
          "velocity": 0.6299212598425197,
          "duration": 0.23622049999999994
        },
        {
          "name": "G4",
          "midi": 67,
          "time": 5.6692919999999996,
          "velocity": 0.6299212598425197,
          "duration": 0.23622049999999994
        },
        {
          "name": "A#3",
          "midi": 58,
          "time": 5.6692919999999996,
          "velocity": 0.3937007874015748,
          "duration": 0.23622049999999994
        },
        {
          "name": "D4",
          "midi": 62,
          "time": 5.6692919999999996,
          "velocity": 0.6299212598425197,
          "duration": 0.23622049999999994
        },
        {
          "name": "A#3",
          "midi": 58,
          "time": 7.086614999999999,
          "velocity": 0.47244094488188976,
          "duration": 0.23622049999999994
        },
        {
          "name": "G3",
          "midi": 55,
          "time": 7.086614999999999,
          "velocity": 0.6299212598425197,
          "duration": 0.23622049999999994
        },
        {
          "name": "G4",
          "midi": 67,
          "time": 7.086614999999999,
          "velocity": 0.6299212598425197,
          "duration": 0.23622049999999994
        },
        {
          "name": "C4",
          "midi": 60,
          "time": 7.086614999999999,
          "velocity": 0.6299212598425197,
          "duration": 0.23622049999999994
        },
        {
          "name": "E4",
          "midi": 64,
          "time": 7.086614999999999,
          "velocity": 0.3937007874015748,
          "duration": 0.23622049999999994
        },
        {
          "name": "F4",
          "midi": 65,
          "time": 8.503938,
          "velocity": 0.47244094488188976,
          "duration": 0.23622049999999994
        },
        {
          "name": "A#3",
          "midi": 58,
          "time": 8.503938,
          "velocity": 0.3937007874015748,
          "duration": 0.23622049999999994
        },
        {
          "name": "G4",
          "midi": 67,
          "time": 8.503938,
          "velocity": 0.6299212598425197,
          "duration": 0.23622049999999994
        },
        {
          "name": "D4",
          "midi": 62,
          "time": 8.503938,
          "velocity": 0.6299212598425197,
          "duration": 0.23622049999999994
        },
        {
          "name": "G3",
          "midi": 55,
          "time": 8.503938,
          "velocity": 0.6299212598425197,
          "duration": 0.23622049999999994
        },
        {
          "name": "D4",
          "midi": 62,
          "time": 9.921261,
          "velocity": 0.5511811023622047,
          "duration": 0.23622049999999994
        },
        {
          "name": "A#3",
          "midi": 58,
          "time": 9.921261,
          "velocity": 0.6299212598425197,
          "duration": 0.23622049999999994
        },
        {
          "name": "A#4",
          "midi": 70,
          "time": 9.921261,
          "velocity": 0.3937007874015748,
          "duration": 0.23622049999999994
        },
        {
          "name": "D#4",
          "midi": 63,
          "time": 9.921261,
          "velocity": 0.6299212598425197,
          "duration": 0.23622049999999994
        },
        {
          "name": "G4",
          "midi": 67,
          "time": 9.921261,
          "velocity": 0.6299212598425197,
          "duration": 0.23622049999999994
        },
        {
          "name": "C4",
          "midi": 60,
          "time": 10.6299225,
          "velocity": 0.5511811023622047,
          "duration": 0.23622049999999994
        },
        {
          "name": "D4",
          "midi": 62,
          "time": 10.6299225,
          "velocity": 0.6299212598425197,
          "duration": 0.23622049999999994
        },
        {
          "name": "A4",
          "midi": 69,
          "time": 10.6299225,
          "velocity": 0.3937007874015748,
          "duration": 0.23622049999999994
        },
        {
          "name": "A3",
          "midi": 57,
          "time": 10.6299225,
          "velocity": 0.6299212598425197,
          "duration": 0.23622049999999994
        },
        {
          "name": "F4",
          "midi": 65,
          "time": 10.6299225,
          "velocity": 0.6299212598425197,
          "duration": 0.23622049999999994
        },
        {
          "name": "D4",
          "midi": 62,
          "time": 11.338583999999999,
          "velocity": 0.6299212598425197,
          "duration": 1.4173229999999997
        },
        {
          "name": "A#3",
          "midi": 58,
          "time": 11.338583999999999,
          "velocity": 0.5511811023622047,
          "duration": 1.4173229999999997
        },
        {
          "name": "G3",
          "midi": 55,
          "time": 11.338583999999999,
          "velocity": 0.5511811023622047,
          "duration": 1.4173229999999997
        },
        {
          "name": "A#3",
          "midi": 58,
          "time": 12.755906999999999,
          "velocity": 0.5511811023622047,
          "duration": 1.4173229999999997
        },
        {
          "name": "C4",
          "midi": 60,
          "time": 12.755906999999999,
          "velocity": 0.6299212598425197,
          "duration": 1.4173229999999997
        },
        {
          "name": "G3",
          "midi": 55,
          "time": 12.755906999999999,
          "velocity": 0.5511811023622047,
          "duration": 1.4173229999999997
        },
        {
          "name": "A#3",
          "midi": 58,
          "time": 14.173229999999998,
          "velocity": 0.5511811023622047,
          "duration": 1.4173229999999997
        },
        {
          "name": "G3",
          "midi": 55,
          "time": 14.173229999999998,
          "velocity": 0.5511811023622047,
          "duration": 1.4173229999999997
        },
        {
          "name": "D4",
          "midi": 62,
          "time": 14.173229999999998,
          "velocity": 0.6299212598425197,
          "duration": 1.4173229999999997
        },
        {
          "name": "A#3",
          "midi": 58,
          "time": 15.590552999999998,
          "velocity": 0.5511811023622047,
          "duration": 0.7086614999999998
        },
        {
          "name": "G3",
          "midi": 55,
          "time": 15.590552999999998,
          "velocity": 0.5511811023622047,
          "duration": 0.7086614999999998
        },
        {
          "name": "C4",
          "midi": 60,
          "time": 15.590552999999998,
          "velocity": 0.6299212598425197,
          "duration": 0.7086614999999998
        },
        {
          "name": "C4",
          "midi": 60,
          "time": 16.299214499999998,
          "velocity": 0.5511811023622047,
          "duration": 0.7086615000000016
        },
        {
          "name": "A3",
          "midi": 57,
          "time": 16.299214499999998,
          "velocity": 0.5511811023622047,
          "duration": 0.7086615000000016
        },
        {
          "name": "D4",
          "midi": 62,
          "time": 16.299214499999998,
          "velocity": 0.6299212598425197,
          "duration": 0.7086615000000016
        },
        {
          "name": "D4",
          "midi": 62,
          "time": 17.007876,
          "velocity": 0.6299212598425197,
          "duration": 1.4173229999999997
        },
        {
          "name": "G3",
          "midi": 55,
          "time": 17.007876,
          "velocity": 0.5511811023622047,
          "duration": 1.4173229999999997
        },
        {
          "name": "A#3",
          "midi": 58,
          "time": 17.007876,
          "velocity": 0.5511811023622047,
          "duration": 1.4173229999999997
        },
        {
          "name": "G3",
          "midi": 55,
          "time": 18.425199,
          "velocity": 0.5511811023622047,
          "duration": 1.4173229999999997
        },
        {
          "name": "A#3",
          "midi": 58,
          "time": 18.425199,
          "velocity": 0.5511811023622047,
          "duration": 1.4173229999999997
        },
        {
          "name": "C4",
          "midi": 60,
          "time": 18.425199,
          "velocity": 0.6299212598425197,
          "duration": 1.4173229999999997
        },
        {
          "name": "A#3",
          "midi": 58,
          "time": 19.842522,
          "velocity": 0.5511811023622047,
          "duration": 1.4173229999999997
        },
        {
          "name": "G3",
          "midi": 55,
          "time": 19.842522,
          "velocity": 0.5511811023622047,
          "duration": 1.4173229999999997
        },
        {
          "name": "D4",
          "midi": 62,
          "time": 19.842522,
          "velocity": 0.6299212598425197,
          "duration": 1.4173229999999997
        },
        {
          "name": "A#3",
          "midi": 58,
          "time": 21.259845,
          "velocity": 0.5511811023622047,
          "duration": 0.7086615000000016
        },
        {
          "name": "G3",
          "midi": 55,
          "time": 21.259845,
          "velocity": 0.5511811023622047,
          "duration": 0.7086615000000016
        },
        {
          "name": "C4",
          "midi": 60,
          "time": 21.259845,
          "velocity": 0.6299212598425197,
          "duration": 0.7086615000000016
        },
        {
          "name": "C4",
          "midi": 60,
          "time": 21.9685065,
          "velocity": 0.5511811023622047,
          "duration": 0.7086615000000016
        },
        {
          "name": "A3",
          "midi": 57,
          "time": 21.9685065,
          "velocity": 0.5511811023622047,
          "duration": 0.7086615000000016
        },
        {
          "name": "D4",
          "midi": 62,
          "time": 21.9685065,
          "velocity": 0.6299212598425197,
          "duration": 0.7086615000000016
        },
        {
          "name": "B3",
          "midi": 59,
          "time": 22.677168,
          "velocity": 0.5511811023622047,
          "duration": 1.4173229999999997
        },
        {
          "name": "G#3",
          "midi": 56,
          "time": 22.677168,
          "velocity": 0.5511811023622047,
          "duration": 1.4173229999999997
        },
        {
          "name": "D#4",
          "midi": 63,
          "time": 22.677168,
          "velocity": 0.6299212598425197,
          "duration": 1.4173229999999997
        },
        {
          "name": "C#4",
          "midi": 61,
          "time": 24.094491,
          "velocity": 0.6299212598425197,
          "duration": 1.4173229999999997
        },
        {
          "name": "G#3",
          "midi": 56,
          "time": 24.094491,
          "velocity": 0.5511811023622047,
          "duration": 1.4173229999999997
        },
        {
          "name": "B3",
          "midi": 59,
          "time": 24.094491,
          "velocity": 0.5511811023622047,
          "duration": 1.4173229999999997
        },
        {
          "name": "G#3",
          "midi": 56,
          "time": 25.511814,
          "velocity": 0.5511811023622047,
          "duration": 1.4173229999999997
        },
        {
          "name": "D#4",
          "midi": 63,
          "time": 25.511814,
          "velocity": 0.6299212598425197,
          "duration": 1.4173229999999997
        },
        {
          "name": "B3",
          "midi": 59,
          "time": 25.511814,
          "velocity": 0.5511811023622047,
          "duration": 1.4173229999999997
        },
        {
          "name": "G#3",
          "midi": 56,
          "time": 26.929137,
          "velocity": 0.5511811023622047,
          "duration": 0.7086615000000016
        },
        {
          "name": "C#4",
          "midi": 61,
          "time": 26.929137,
          "velocity": 0.6299212598425197,
          "duration": 0.7086615000000016
        },
        {
          "name": "B3",
          "midi": 59,
          "time": 26.929137,
          "velocity": 0.5511811023622047,
          "duration": 0.7086615000000016
        },
        {
          "name": "A#3",
          "midi": 58,
          "time": 27.637798500000002,
          "velocity": 0.5511811023622047,
          "duration": 0.7086615000000016
        },
        {
          "name": "D#4",
          "midi": 63,
          "time": 27.637798500000002,
          "velocity": 0.6299212598425197,
          "duration": 0.7086615000000016
        },
        {
          "name": "C#4",
          "midi": 61,
          "time": 27.637798500000002,
          "velocity": 0.5511811023622047,
          "duration": 0.7086615000000016
        },
        {
          "name": "G#3",
          "midi": 56,
          "time": 28.346460000000004,
          "velocity": 0.5511811023622047,
          "duration": 1.4173229999999997
        },
        {
          "name": "B3",
          "midi": 59,
          "time": 28.346460000000004,
          "velocity": 0.5511811023622047,
          "duration": 1.4173229999999997
        },
        {
          "name": "D#4",
          "midi": 63,
          "time": 28.346460000000004,
          "velocity": 0.6299212598425197,
          "duration": 1.4173229999999997
        },
        {
          "name": "B3",
          "midi": 59,
          "time": 29.763783000000004,
          "velocity": 0.5511811023622047,
          "duration": 1.4173229999999997
        },
        {
          "name": "C#4",
          "midi": 61,
          "time": 29.763783000000004,
          "velocity": 0.6299212598425197,
          "duration": 1.4173229999999997
        },
        {
          "name": "G#3",
          "midi": 56,
          "time": 29.763783000000004,
          "velocity": 0.5511811023622047,
          "duration": 1.4173229999999997
        },
        {
          "name": "G#3",
          "midi": 56,
          "time": 31.181106000000003,
          "velocity": 0.5511811023622047,
          "duration": 1.4173229999999997
        },
        {
          "name": "D#4",
          "midi": 63,
          "time": 31.181106000000003,
          "velocity": 0.6299212598425197,
          "duration": 1.4173229999999997
        },
        {
          "name": "B3",
          "midi": 59,
          "time": 31.181106000000003,
          "velocity": 0.5511811023622047,
          "duration": 1.4173229999999997
        },
        {
          "name": "G#3",
          "midi": 56,
          "time": 32.598429,
          "velocity": 0.5511811023622047,
          "duration": 0.7086614999999981
        },
        {
          "name": "C#4",
          "midi": 61,
          "time": 32.598429,
          "velocity": 0.6299212598425197,
          "duration": 0.7086614999999981
        },
        {
          "name": "B3",
          "midi": 59,
          "time": 32.598429,
          "velocity": 0.5511811023622047,
          "duration": 0.7086614999999981
        },
        {
          "name": "A#3",
          "midi": 58,
          "time": 33.3070905,
          "velocity": 0.5511811023622047,
          "duration": 0.7086614999999981
        },
        {
          "name": "D#4",
          "midi": 63,
          "time": 33.3070905,
          "velocity": 0.6299212598425197,
          "duration": 0.7086614999999981
        },
        {
          "name": "C#4",
          "midi": 61,
          "time": 33.3070905,
          "velocity": 0.5511811023622047,
          "duration": 0.7086614999999981
        },
        {
          "name": "G#3",
          "midi": 56,
          "time": 34.015752,
          "velocity": 0.5511811023622047,
          "duration": 0.7086614999999981
        },
        {
          "name": "C#4",
          "midi": 61,
          "time": 34.015752,
          "velocity": 0.6299212598425197,
          "duration": 0.7086614999999981
        },
        {
          "name": "E4",
          "midi": 64,
          "time": 34.015752,
          "velocity": 0.5511811023622047,
          "duration": 0.7086614999999981
        },
        {
          "name": "A#3",
          "midi": 58,
          "time": 34.7244135,
          "velocity": 0.5511811023622047,
          "duration": 0.7086614999999981
        },
        {
          "name": "D#4",
          "midi": 63,
          "time": 34.7244135,
          "velocity": 0.6299212598425197,
          "duration": 0.7086614999999981
        },
        {
          "name": "G3",
          "midi": 55,
          "time": 34.7244135,
          "velocity": 0.5511811023622047,
          "duration": 0.7086614999999981
        },
        {
          "name": "G#3",
          "midi": 56,
          "time": 35.433074999999995,
          "velocity": 0.5511811023622047,
          "duration": 0.7086614999999981
        },
        {
          "name": "C#4",
          "midi": 61,
          "time": 35.433074999999995,
          "velocity": 0.6299212598425197,
          "duration": 0.7086614999999981
        },
        {
          "name": "E4",
          "midi": 64,
          "time": 35.433074999999995,
          "velocity": 0.5511811023622047,
          "duration": 0.7086614999999981
        },
        {
          "name": "A#3",
          "midi": 58,
          "time": 36.14173649999999,
          "velocity": 0.5511811023622047,
          "duration": 0.7086614999999981
        },
        {
          "name": "D#4",
          "midi": 63,
          "time": 36.14173649999999,
          "velocity": 0.6299212598425197,
          "duration": 0.7086614999999981
        },
        {
          "name": "G3",
          "midi": 55,
          "time": 36.14173649999999,
          "velocity": 0.5511811023622047,
          "duration": 0.7086614999999981
        },
        {
          "name": "E4",
          "midi": 64,
          "time": 36.85039799999999,
          "velocity": 0.5511811023622047,
          "duration": 0.7086614999999483
        },
        {
          "name": "G#3",
          "midi": 56,
          "time": 36.85039799999999,
          "velocity": 0.5511811023622047,
          "duration": 0.7086614999999483
        },
        {
          "name": "C#4",
          "midi": 61,
          "time": 36.85039799999999,
          "velocity": 0.6299212598425197,
          "duration": 0.7086614999999483
        },
        {
          "name": "G3",
          "midi": 55,
          "time": 37.55905949999994,
          "velocity": 0.5511811023622047,
          "duration": 0.2362204999999804
        },
        {
          "name": "A#3",
          "midi": 58,
          "time": 37.55905949999994,
          "velocity": 0.5511811023622047,
          "duration": 0.2362204999999804
        },
        {
          "name": "D#4",
          "midi": 63,
          "time": 37.55905949999994,
          "velocity": 0.6299212598425197,
          "duration": 0.2362204999999804
        },
        {
          "name": "D#5",
          "midi": 75,
          "time": 49.25197424999989,
          "velocity": 0.47244094488188976,
          "duration": 0.11811025000000086
        },
        {
          "name": "G#5",
          "midi": 80,
          "time": 49.37008449999989,
          "velocity": 0.31496062992125984,
          "duration": 0.11811025000000086
        },
        {
          "name": "B5",
          "midi": 83,
          "time": 49.37008449999989,
          "velocity": 0.47244094488188976,
          "duration": 0.11811025000000086
        },
        {
          "name": "G5",
          "midi": 79,
          "time": 49.48819474999989,
          "velocity": 0.31496062992125984,
          "duration": 0.11811025000000086
        },
        {
          "name": "A#5",
          "midi": 82,
          "time": 49.48819474999989,
          "velocity": 0.47244094488188976,
          "duration": 0.11811025000000086
        },
        {
          "name": "B5",
          "midi": 83,
          "time": 49.60630499999989,
          "velocity": 0.47244094488188976,
          "duration": 0.11811025000000086
        },
        {
          "name": "G#5",
          "midi": 80,
          "time": 49.60630499999989,
          "velocity": 0.3937007874015748,
          "duration": 0.11811025000000086
        },
        {
          "name": "D#5",
          "midi": 75,
          "time": 49.60630499999989,
          "velocity": 0.47244094488188976,
          "duration": 0.11811025000000086
        },
        {
          "name": "G#3",
          "midi": 56,
          "time": 49.60630499999989,
          "velocity": 0.6299212598425197,
          "duration": 0.23622050000000172
        },
        {
          "name": "D#4",
          "midi": 63,
          "time": 49.60630499999989,
          "velocity": 0.5511811023622047,
          "duration": 0.23622050000000172
        },
        {
          "name": "B5",
          "midi": 83,
          "time": 49.842525499999894,
          "velocity": 0.47244094488188976,
          "duration": 0.11811025000000086
        },
        {
          "name": "D#5",
          "midi": 75,
          "time": 49.842525499999894,
          "velocity": 0.47244094488188976,
          "duration": 0.11811025000000086
        },
        {
          "name": "G#5",
          "midi": 80,
          "time": 49.842525499999894,
          "velocity": 0.31496062992125984,
          "duration": 0.11811025000000086
        },
        {
          "name": "D#4",
          "midi": 63,
          "time": 49.960635749999895,
          "velocity": 0.5511811023622047,
          "duration": 0.23622050000000172
        },
        {
          "name": "G#5",
          "midi": 80,
          "time": 49.960635749999895,
          "velocity": 0.31496062992125984,
          "duration": 0.11811025000000086
        },
        {
          "name": "G#3",
          "midi": 56,
          "time": 49.960635749999895,
          "velocity": 0.6299212598425197,
          "duration": 0.23622050000000172
        },
        {
          "name": "B5",
          "midi": 83,
          "time": 49.960635749999895,
          "velocity": 0.47244094488188976,
          "duration": 0.11811025000000086
        },
        {
          "name": "D#5",
          "midi": 75,
          "time": 49.960635749999895,
          "velocity": 0.47244094488188976,
          "duration": 0.11811025000000086
        },
        {
          "name": "B5",
          "midi": 83,
          "time": 50.1968562499999,
          "velocity": 0.47244094488188976,
          "duration": 0.11811025000000086
        },
        {
          "name": "D#5",
          "midi": 75,
          "time": 50.1968562499999,
          "velocity": 0.47244094488188976,
          "duration": 0.11811025000000086
        },
        {
          "name": "G#5",
          "midi": 80,
          "time": 50.1968562499999,
          "velocity": 0.31496062992125984,
          "duration": 0.11811025000000086
        },
        {
          "name": "A#5",
          "midi": 82,
          "time": 50.3149664999999,
          "velocity": 0.47244094488188976,
          "duration": 0.11811025000000086
        },
        {
          "name": "G5",
          "midi": 79,
          "time": 50.3149664999999,
          "velocity": 0.31496062992125984,
          "duration": 0.11811025000000086
        },
        {
          "name": "D#5",
          "midi": 75,
          "time": 50.3149664999999,
          "velocity": 0.47244094488188976,
          "duration": 0.11811025000000086
        },
        {
          "name": "A#3",
          "midi": 58,
          "time": 50.3149664999999,
          "velocity": 0.5511811023622047,
          "duration": 0.23622050000000172
        },
        {
          "name": "D#3",
          "midi": 51,
          "time": 50.3149664999999,
          "velocity": 0.6299212598425197,
          "duration": 0.23622050000000172
        },
        {
          "name": "G4",
          "midi": 67,
          "time": 50.5511869999999,
          "velocity": 0.6299212598425197,
          "duration": 0.11811025000000086
        },
        {
          "name": "A#5",
          "midi": 82,
          "time": 50.5511869999999,
          "velocity": 0.3937007874015748,
          "duration": 0.11811025000000086
        },
        {
          "name": "G5",
          "midi": 79,
          "time": 50.5511869999999,
          "velocity": 0.31496062992125984,
          "duration": 0.11811025000000086
        },
        {
          "name": "G#4",
          "midi": 68,
          "time": 50.6692972499999,
          "velocity": 0.6299212598425197,
          "duration": 0.11811025000000086
        },
        {
          "name": "B5",
          "midi": 83,
          "time": 50.6692972499999,
          "velocity": 0.3937007874015748,
          "duration": 0.11811025000000086
        },
        {
          "name": "G#5",
          "midi": 80,
          "time": 50.6692972499999,
          "velocity": 0.31496062992125984,
          "duration": 0.11811025000000086
        },
        {
          "name": "G4",
          "midi": 67,
          "time": 50.7874074999999,
          "velocity": 0.6299212598425197,
          "duration": 0.11811025000000086
        },
        {
          "name": "A#5",
          "midi": 82,
          "time": 50.7874074999999,
          "velocity": 0.3937007874015748,
          "duration": 0.11811025000000086
        },
        {
          "name": "G5",
          "midi": 79,
          "time": 50.7874074999999,
          "velocity": 0.31496062992125984,
          "duration": 0.11811025000000086
        },
        {
          "name": "G#4",
          "midi": 68,
          "time": 50.9055177499999,
          "velocity": 0.6299212598425197,
          "duration": 0.11811025000000086
        },
        {
          "name": "B5",
          "midi": 83,
          "time": 50.9055177499999,
          "velocity": 0.3937007874015748,
          "duration": 0.11811025000000086
        },
        {
          "name": "G#5",
          "midi": 80,
          "time": 50.9055177499999,
          "velocity": 0.31496062992125984,
          "duration": 0.11811025000000086
        },
        {
          "name": "E3",
          "midi": 52,
          "time": 51.0236279999999,
          "velocity": 0.6299212598425197,
          "duration": 0.7086615000000052
        },
        {
          "name": "B3",
          "midi": 59,
          "time": 51.0236279999999,
          "velocity": 0.5511811023622047,
          "duration": 0.7086615000000052
        },
        {
          "name": "E5",
          "midi": 76,
          "time": 51.0236279999999,
          "velocity": 0.31496062992125984,
          "duration": 0.3543307500000026
        },
        {
          "name": "E4",
          "midi": 64,
          "time": 51.0236279999999,
          "velocity": 0.6299212598425197,
          "duration": 0.3543307500000026
        },
        {
          "name": "A#5",
          "midi": 82,
          "time": 51.0236279999999,
          "velocity": 0.3937007874015748,
          "duration": 0.3543307500000026
        },
        {
          "name": "G#4",
          "midi": 68,
          "time": 51.377958749999905,
          "velocity": 0.6299212598425197,
          "duration": 0.3543307500000026
        },
        {
          "name": "C#6",
          "midi": 85,
          "time": 51.377958749999905,
          "velocity": 0.3937007874015748,
          "duration": 0.3543307500000026
        },
        {
          "name": "G#5",
          "midi": 80,
          "time": 51.377958749999905,
          "velocity": 0.31496062992125984,
          "duration": 0.3543307500000026
        },
        {
          "name": "F#3",
          "midi": 54,
          "time": 51.73228949999991,
          "velocity": 0.6299212598425197,
          "duration": 0.7086615000000052
        },
        {
          "name": "C#5",
          "midi": 73,
          "time": 51.73228949999991,
          "velocity": 0.31496062992125984,
          "duration": 0.47244100000000344
        },
        {
          "name": "G#5",
          "midi": 80,
          "time": 51.73228949999991,
          "velocity": 0.3937007874015748,
          "duration": 0.47244100000000344
        },
        {
          "name": "C#4",
          "midi": 61,
          "time": 51.73228949999991,
          "velocity": 0.6299212598425197,
          "duration": 0.7086615000000052
        },
        {
          "name": "D#5",
          "midi": 75,
          "time": 52.08662024999991,
          "velocity": 0.47244094488188976,
          "duration": 0.11811025000000086
        },
        {
          "name": "G#5",
          "midi": 80,
          "time": 52.20473049999991,
          "velocity": 0.31496062992125984,
          "duration": 0.11811025000000086
        },
        {
          "name": "B5",
          "midi": 83,
          "time": 52.20473049999991,
          "velocity": 0.47244094488188976,
          "duration": 0.11811025000000086
        },
        {
          "name": "G5",
          "midi": 79,
          "time": 52.32284074999991,
          "velocity": 0.31496062992125984,
          "duration": 0.11811025000000086
        },
        {
          "name": "A#5",
          "midi": 82,
          "time": 52.32284074999991,
          "velocity": 0.47244094488188976,
          "duration": 0.11811025000000086
        },
        {
          "name": "G#3",
          "midi": 56,
          "time": 52.44095099999991,
          "velocity": 0.6299212598425197,
          "duration": 0.23622050000000172
        },
        {
          "name": "B5",
          "midi": 83,
          "time": 52.44095099999991,
          "velocity": 0.47244094488188976,
          "duration": 0.11811025000000086
        },
        {
          "name": "G#5",
          "midi": 80,
          "time": 52.44095099999991,
          "velocity": 0.3937007874015748,
          "duration": 0.11811025000000086
        },
        {
          "name": "D#5",
          "midi": 75,
          "time": 52.44095099999991,
          "velocity": 0.47244094488188976,
          "duration": 0.11811025000000086
        },
        {
          "name": "D#4",
          "midi": 63,
          "time": 52.44095099999991,
          "velocity": 0.5511811023622047,
          "duration": 0.23622050000000172
        },
        {
          "name": "B5",
          "midi": 83,
          "time": 52.677171499999915,
          "velocity": 0.47244094488188976,
          "duration": 0.11811025000000086
        },
        {
          "name": "D#5",
          "midi": 75,
          "time": 52.677171499999915,
          "velocity": 0.47244094488188976,
          "duration": 0.11811025000000086
        },
        {
          "name": "G#5",
          "midi": 80,
          "time": 52.677171499999915,
          "velocity": 0.31496062992125984,
          "duration": 0.11811025000000086
        },
        {
          "name": "G#3",
          "midi": 56,
          "time": 52.795281749999916,
          "velocity": 0.6299212598425197,
          "duration": 0.23622050000000172
        },
        {
          "name": "D#4",
          "midi": 63,
          "time": 52.795281749999916,
          "velocity": 0.5511811023622047,
          "duration": 0.23622050000000172
        },
        {
          "name": "G#5",
          "midi": 80,
          "time": 52.795281749999916,
          "velocity": 0.31496062992125984,
          "duration": 0.11811025000000086
        },
        {
          "name": "B5",
          "midi": 83,
          "time": 52.795281749999916,
          "velocity": 0.47244094488188976,
          "duration": 0.11811025000000086
        },
        {
          "name": "D#5",
          "midi": 75,
          "time": 52.795281749999916,
          "velocity": 0.47244094488188976,
          "duration": 0.11811025000000086
        },
        {
          "name": "B5",
          "midi": 83,
          "time": 53.03150224999992,
          "velocity": 0.47244094488188976,
          "duration": 0.11811025000000086
        },
        {
          "name": "D#5",
          "midi": 75,
          "time": 53.03150224999992,
          "velocity": 0.47244094488188976,
          "duration": 0.11811025000000086
        },
        {
          "name": "G#5",
          "midi": 80,
          "time": 53.03150224999992,
          "velocity": 0.31496062992125984,
          "duration": 0.11811025000000086
        },
        {
          "name": "D#3",
          "midi": 51,
          "time": 53.14961249999992,
          "velocity": 0.6299212598425197,
          "duration": 0.23622050000000172
        },
        {
          "name": "A#3",
          "midi": 58,
          "time": 53.14961249999992,
          "velocity": 0.5511811023622047,
          "duration": 0.23622050000000172
        },
        {
          "name": "A#5",
          "midi": 82,
          "time": 53.14961249999992,
          "velocity": 0.47244094488188976,
          "duration": 0.11811025000000086
        },
        {
          "name": "G5",
          "midi": 79,
          "time": 53.14961249999992,
          "velocity": 0.31496062992125984,
          "duration": 0.11811025000000086
        },
        {
          "name": "D#5",
          "midi": 75,
          "time": 53.14961249999992,
          "velocity": 0.47244094488188976,
          "duration": 0.11811025000000086
        },
        {
          "name": "G4",
          "midi": 67,
          "time": 53.38583299999992,
          "velocity": 0.6299212598425197,
          "duration": 0.11811025000000086
        },
        {
          "name": "A#5",
          "midi": 82,
          "time": 53.38583299999992,
          "velocity": 0.3937007874015748,
          "duration": 0.11811025000000086
        },
        {
          "name": "G5",
          "midi": 79,
          "time": 53.38583299999992,
          "velocity": 0.31496062992125984,
          "duration": 0.11811025000000086
        },
        {
          "name": "G#4",
          "midi": 68,
          "time": 53.50394324999992,
          "velocity": 0.6299212598425197,
          "duration": 0.11811025000000086
        },
        {
          "name": "B5",
          "midi": 83,
          "time": 53.50394324999992,
          "velocity": 0.3937007874015748,
          "duration": 0.11811025000000086
        },
        {
          "name": "G#5",
          "midi": 80,
          "time": 53.50394324999992,
          "velocity": 0.31496062992125984,
          "duration": 0.11811025000000086
        },
        {
          "name": "G4",
          "midi": 67,
          "time": 53.62205349999992,
          "velocity": 0.6299212598425197,
          "duration": 0.11811025000000086
        },
        {
          "name": "A#5",
          "midi": 82,
          "time": 53.62205349999992,
          "velocity": 0.3937007874015748,
          "duration": 0.11811025000000086
        },
        {
          "name": "G5",
          "midi": 79,
          "time": 53.62205349999992,
          "velocity": 0.31496062992125984,
          "duration": 0.11811025000000086
        },
        {
          "name": "G#4",
          "midi": 68,
          "time": 53.74016374999992,
          "velocity": 0.6299212598425197,
          "duration": 0.11811025000000086
        },
        {
          "name": "C#6",
          "midi": 85,
          "time": 53.74016374999992,
          "velocity": 0.3937007874015748,
          "duration": 0.11811025000000086
        },
        {
          "name": "G#5",
          "midi": 80,
          "time": 53.74016374999992,
          "velocity": 0.31496062992125984,
          "duration": 0.11811025000000086
        },
        {
          "name": "E4",
          "midi": 64,
          "time": 53.85827399999992,
          "velocity": 0.6299212598425197,
          "duration": 0.3543307500000026
        },
        {
          "name": "E3",
          "midi": 52,
          "time": 53.85827399999992,
          "velocity": 0.6299212598425197,
          "duration": 0.7086615000000052
        },
        {
          "name": "E5",
          "midi": 76,
          "time": 53.85827399999992,
          "velocity": 0.31496062992125984,
          "duration": 0.3543307500000026
        },
        {
          "name": "B3",
          "midi": 59,
          "time": 53.85827399999992,
          "velocity": 0.5511811023622047,
          "duration": 0.7086615000000052
        },
        {
          "name": "G#5",
          "midi": 80,
          "time": 53.85827399999992,
          "velocity": 0.3937007874015748,
          "duration": 0.3543307500000026
        },
        {
          "name": "G#4",
          "midi": 68,
          "time": 54.212604749999926,
          "velocity": 0.6299212598425197,
          "duration": 0.3543307500000026
        },
        {
          "name": "D#6",
          "midi": 87,
          "time": 54.212604749999926,
          "velocity": 0.3937007874015748,
          "duration": 0.3543307500000026
        },
        {
          "name": "G#5",
          "midi": 80,
          "time": 54.212604749999926,
          "velocity": 0.31496062992125984,
          "duration": 0.3543307500000026
        },
        {
          "name": "F#4",
          "midi": 66,
          "time": 54.56693549999993,
          "velocity": 0.6299212598425197,
          "duration": 0.3543307500000026
        },
        {
          "name": "C#4",
          "midi": 61,
          "time": 54.56693549999993,
          "velocity": 0.5511811023622047,
          "duration": 0.7086615000000052
        },
        {
          "name": "F#5",
          "midi": 78,
          "time": 54.56693549999993,
          "velocity": 0.31496062992125984,
          "duration": 0.3543307500000026
        },
        {
          "name": "F#3",
          "midi": 54,
          "time": 54.56693549999993,
          "velocity": 0.6299212598425197,
          "duration": 0.7086615000000052
        },
        {
          "name": "C#6",
          "midi": 85,
          "time": 54.56693549999993,
          "velocity": 0.3937007874015748,
          "duration": 0.3543307500000026
        },
        {
          "name": "E4",
          "midi": 64,
          "time": 54.92126624999993,
          "velocity": 0.6299212598425197,
          "duration": 0.3543307500000026
        },
        {
          "name": "A#5",
          "midi": 82,
          "time": 54.92126624999993,
          "velocity": 0.3937007874015748,
          "duration": 0.23622050000000172
        },
        {
          "name": "D#5",
          "midi": 75,
          "time": 54.92126624999993,
          "velocity": 0.47244094488188976,
          "duration": 0.11811025000000086
        },
        {
          "name": "E5",
          "midi": 76,
          "time": 54.92126624999993,
          "velocity": 0.31496062992125984,
          "duration": 0.3543307500000026
        },
        {
          "name": "B5",
          "midi": 83,
          "time": 55.03937649999993,
          "velocity": 0.47244094488188976,
          "duration": 0.11811025000000086
        },
        {
          "name": "G#5",
          "midi": 80,
          "time": 55.03937649999993,
          "velocity": 0.31496062992125984,
          "duration": 0.11811025000000086
        },
        {
          "name": "A#5",
          "midi": 82,
          "time": 55.15748674999993,
          "velocity": 0.47244094488188976,
          "duration": 0.11811025000000086
        },
        {
          "name": "G5",
          "midi": 79,
          "time": 55.15748674999993,
          "velocity": 0.31496062992125984,
          "duration": 0.11811025000000086
        },
        {
          "name": "B5",
          "midi": 83,
          "time": 55.275596999999934,
          "velocity": 0.47244094488188976,
          "duration": 0.11811025000000086
        },
        {
          "name": "D#5",
          "midi": 75,
          "time": 55.275596999999934,
          "velocity": 0.47244094488188976,
          "duration": 0.11811025000000086
        },
        {
          "name": "G#3",
          "midi": 56,
          "time": 55.275596999999934,
          "velocity": 0.6299212598425197,
          "duration": 0.23622050000000172
        },
        {
          "name": "G#5",
          "midi": 80,
          "time": 55.275596999999934,
          "velocity": 0.3937007874015748,
          "duration": 0.11811025000000086
        },
        {
          "name": "D#4",
          "midi": 63,
          "time": 55.275596999999934,
          "velocity": 0.6299212598425197,
          "duration": 0.7086615000000052
        },
        {
          "name": "B5",
          "midi": 83,
          "time": 55.511817499999935,
          "velocity": 0.47244094488188976,
          "duration": 0.11811025000000086
        },
        {
          "name": "D#5",
          "midi": 75,
          "time": 55.511817499999935,
          "velocity": 0.47244094488188976,
          "duration": 0.11811025000000086
        },
        {
          "name": "G#5",
          "midi": 80,
          "time": 55.511817499999935,
          "velocity": 0.31496062992125984,
          "duration": 0.11811025000000086
        },
        {
          "name": "G#5",
          "midi": 80,
          "time": 55.629927749999936,
          "velocity": 0.31496062992125984,
          "duration": 0.11811025000000086
        },
        {
          "name": "B5",
          "midi": 83,
          "time": 55.629927749999936,
          "velocity": 0.47244094488188976,
          "duration": 0.11811025000000086
        },
        {
          "name": "D#5",
          "midi": 75,
          "time": 55.629927749999936,
          "velocity": 0.47244094488188976,
          "duration": 0.11811025000000086
        },
        {
          "name": "G#3",
          "midi": 56,
          "time": 55.629927749999936,
          "velocity": 0.6299212598425197,
          "duration": 0.23622050000000172
        },
        {
          "name": "B5",
          "midi": 83,
          "time": 55.86614824999994,
          "velocity": 0.47244094488188976,
          "duration": 0.11811025000000086
        },
        {
          "name": "D#5",
          "midi": 75,
          "time": 55.86614824999994,
          "velocity": 0.47244094488188976,
          "duration": 0.11811025000000086
        },
        {
          "name": "G#5",
          "midi": 80,
          "time": 55.86614824999994,
          "velocity": 0.31496062992125984,
          "duration": 0.11811025000000086
        },
        {
          "name": "A#5",
          "midi": 82,
          "time": 55.98425849999994,
          "velocity": 0.47244094488188976,
          "duration": 0.11811025000000086
        },
        {
          "name": "G5",
          "midi": 79,
          "time": 55.98425849999994,
          "velocity": 0.31496062992125984,
          "duration": 0.11811025000000086
        },
        {
          "name": "D#5",
          "midi": 75,
          "time": 55.98425849999994,
          "velocity": 0.47244094488188976,
          "duration": 0.11811025000000086
        },
        {
          "name": "A#3",
          "midi": 58,
          "time": 55.98425849999994,
          "velocity": 0.5511811023622047,
          "duration": 0.23622050000000172
        },
        {
          "name": "D#3",
          "midi": 51,
          "time": 55.98425849999994,
          "velocity": 0.6299212598425197,
          "duration": 0.23622050000000172
        },
        {
          "name": "G4",
          "midi": 67,
          "time": 56.22047899999994,
          "velocity": 0.6299212598425197,
          "duration": 0.11811025000000086
        },
        {
          "name": "A#5",
          "midi": 82,
          "time": 56.22047899999994,
          "velocity": 0.3937007874015748,
          "duration": 0.11811025000000086
        },
        {
          "name": "G5",
          "midi": 79,
          "time": 56.22047899999994,
          "velocity": 0.31496062992125984,
          "duration": 0.11811025000000086
        },
        {
          "name": "G#4",
          "midi": 68,
          "time": 56.33858924999994,
          "velocity": 0.6299212598425197,
          "duration": 0.11811025000000086
        },
        {
          "name": "B5",
          "midi": 83,
          "time": 56.33858924999994,
          "velocity": 0.3937007874015748,
          "duration": 0.11811025000000086
        },
        {
          "name": "G#5",
          "midi": 80,
          "time": 56.33858924999994,
          "velocity": 0.31496062992125984,
          "duration": 0.11811025000000086
        },
        {
          "name": "G4",
          "midi": 67,
          "time": 56.45669949999994,
          "velocity": 0.6299212598425197,
          "duration": 0.11811025000000086
        },
        {
          "name": "A#5",
          "midi": 82,
          "time": 56.45669949999994,
          "velocity": 0.3937007874015748,
          "duration": 0.11811025000000086
        },
        {
          "name": "G5",
          "midi": 79,
          "time": 56.45669949999994,
          "velocity": 0.31496062992125984,
          "duration": 0.11811025000000086
        },
        {
          "name": "G#4",
          "midi": 68,
          "time": 56.57480974999994,
          "velocity": 0.6299212598425197,
          "duration": 0.11811025000000086
        },
        {
          "name": "B5",
          "midi": 83,
          "time": 56.57480974999994,
          "velocity": 0.3937007874015748,
          "duration": 0.11811025000000086
        },
        {
          "name": "G#5",
          "midi": 80,
          "time": 56.57480974999994,
          "velocity": 0.31496062992125984,
          "duration": 0.11811025000000086
        },
        {
          "name": "E3",
          "midi": 52,
          "time": 56.692919999999944,
          "velocity": 0.6299212598425197,
          "duration": 0.7086615000000052
        },
        {
          "name": "B3",
          "midi": 59,
          "time": 56.692919999999944,
          "velocity": 0.5511811023622047,
          "duration": 0.7086615000000052
        },
        {
          "name": "E5",
          "midi": 76,
          "time": 56.692919999999944,
          "velocity": 0.31496062992125984,
          "duration": 0.3543307500000026
        },
        {
          "name": "E4",
          "midi": 64,
          "time": 56.692919999999944,
          "velocity": 0.6299212598425197,
          "duration": 0.3543307500000026
        },
        {
          "name": "A#5",
          "midi": 82,
          "time": 56.692919999999944,
          "velocity": 0.3937007874015748,
          "duration": 0.3543307500000026
        },
        {
          "name": "G#4",
          "midi": 68,
          "time": 57.04725074999995,
          "velocity": 0.6299212598425197,
          "duration": 0.3543307500000026
        },
        {
          "name": "C#6",
          "midi": 85,
          "time": 57.04725074999995,
          "velocity": 0.3937007874015748,
          "duration": 0.3543307500000026
        },
        {
          "name": "G#5",
          "midi": 80,
          "time": 57.04725074999995,
          "velocity": 0.31496062992125984,
          "duration": 0.3543307500000026
        },
        {
          "name": "F#3",
          "midi": 54,
          "time": 57.40158149999995,
          "velocity": 0.6299212598425197,
          "duration": 0.7086615000000052
        },
        {
          "name": "C#5",
          "midi": 73,
          "time": 57.40158149999995,
          "velocity": 0.31496062992125984,
          "duration": 0.47244100000000344
        },
        {
          "name": "G#5",
          "midi": 80,
          "time": 57.40158149999995,
          "velocity": 0.3937007874015748,
          "duration": 0.47244100000000344
        },
        {
          "name": "C#4",
          "midi": 61,
          "time": 57.40158149999995,
          "velocity": 0.6299212598425197,
          "duration": 0.7086615000000052
        },
        {
          "name": "D#5",
          "midi": 75,
          "time": 57.75591224999995,
          "velocity": 0.47244094488188976,
          "duration": 0.11811025000000086
        },
        {
          "name": "G#5",
          "midi": 80,
          "time": 57.87402249999995,
          "velocity": 0.31496062992125984,
          "duration": 0.11811025000000086
        },
        {
          "name": "B5",
          "midi": 83,
          "time": 57.87402249999995,
          "velocity": 0.47244094488188976,
          "duration": 0.11811025000000086
        },
        {
          "name": "G5",
          "midi": 79,
          "time": 57.99213274999995,
          "velocity": 0.31496062992125984,
          "duration": 0.11811025000000086
        },
        {
          "name": "A#5",
          "midi": 82,
          "time": 57.99213274999995,
          "velocity": 0.47244094488188976,
          "duration": 0.11811025000000086
        },
        {
          "name": "G#3",
          "midi": 56,
          "time": 58.110242999999954,
          "velocity": 0.6299212598425197,
          "duration": 0.23622050000000172
        },
        {
          "name": "D#4",
          "midi": 63,
          "time": 58.110242999999954,
          "velocity": 0.5511811023622047,
          "duration": 0.23622050000000172
        },
        {
          "name": "B5",
          "midi": 83,
          "time": 58.110242999999954,
          "velocity": 0.47244094488188976,
          "duration": 0.11811025000000086
        },
        {
          "name": "D#5",
          "midi": 75,
          "time": 58.110242999999954,
          "velocity": 0.47244094488188976,
          "duration": 0.11811025000000086
        },
        {
          "name": "G#5",
          "midi": 80,
          "time": 58.110242999999954,
          "velocity": 0.3937007874015748,
          "duration": 0.11811025000000086
        },
        {
          "name": "D#5",
          "midi": 75,
          "time": 58.346463499999956,
          "velocity": 0.47244094488188976,
          "duration": 0.11811025000000086
        },
        {
          "name": "G#5",
          "midi": 80,
          "time": 58.346463499999956,
          "velocity": 0.31496062992125984,
          "duration": 0.11811025000000086
        },
        {
          "name": "B5",
          "midi": 83,
          "time": 58.346463499999956,
          "velocity": 0.47244094488188976,
          "duration": 0.11811025000000086
        },
        {
          "name": "D#4",
          "midi": 63,
          "time": 58.46457374999996,
          "velocity": 0.5511811023622047,
          "duration": 0.23622050000000172
        },
        {
          "name": "G#3",
          "midi": 56,
          "time": 58.46457374999996,
          "velocity": 0.6299212598425197,
          "duration": 0.23622050000000172
        },
        {
          "name": "G#5",
          "midi": 80,
          "time": 58.46457374999996,
          "velocity": 0.31496062992125984,
          "duration": 0.11811025000000086
        },
        {
          "name": "B5",
          "midi": 83,
          "time": 58.46457374999996,
          "velocity": 0.47244094488188976,
          "duration": 0.11811025000000086
        },
        {
          "name": "D#5",
          "midi": 75,
          "time": 58.46457374999996,
          "velocity": 0.47244094488188976,
          "duration": 0.11811025000000086
        },
        {
          "name": "D#5",
          "midi": 75,
          "time": 58.70079424999996,
          "velocity": 0.47244094488188976,
          "duration": 0.11811025000000086
        },
        {
          "name": "G#5",
          "midi": 80,
          "time": 58.70079424999996,
          "velocity": 0.31496062992125984,
          "duration": 0.11811025000000086
        },
        {
          "name": "B5",
          "midi": 83,
          "time": 58.70079424999996,
          "velocity": 0.47244094488188976,
          "duration": 0.11811025000000086
        },
        {
          "name": "A#3",
          "midi": 58,
          "time": 58.81890449999996,
          "velocity": 0.5511811023622047,
          "duration": 0.23622050000000172
        },
        {
          "name": "D#3",
          "midi": 51,
          "time": 58.81890449999996,
          "velocity": 0.6299212598425197,
          "duration": 0.23622050000000172
        },
        {
          "name": "A#5",
          "midi": 82,
          "time": 58.81890449999996,
          "velocity": 0.47244094488188976,
          "duration": 0.11811025000000086
        },
        {
          "name": "G5",
          "midi": 79,
          "time": 58.81890449999996,
          "velocity": 0.31496062992125984,
          "duration": 0.11811025000000086
        },
        {
          "name": "D#5",
          "midi": 75,
          "time": 58.81890449999996,
          "velocity": 0.47244094488188976,
          "duration": 0.11811025000000086
        },
        {
          "name": "G4",
          "midi": 67,
          "time": 59.05512499999996,
          "velocity": 0.6299212598425197,
          "duration": 0.11811025000000086
        },
        {
          "name": "A#5",
          "midi": 82,
          "time": 59.05512499999996,
          "velocity": 0.3937007874015748,
          "duration": 0.11811025000000086
        },
        {
          "name": "G5",
          "midi": 79,
          "time": 59.05512499999996,
          "velocity": 0.31496062992125984,
          "duration": 0.11811025000000086
        },
        {
          "name": "G#4",
          "midi": 68,
          "time": 59.17323524999996,
          "velocity": 0.6299212598425197,
          "duration": 0.11811025000000086
        },
        {
          "name": "B5",
          "midi": 83,
          "time": 59.17323524999996,
          "velocity": 0.3937007874015748,
          "duration": 0.11811025000000086
        },
        {
          "name": "G#5",
          "midi": 80,
          "time": 59.17323524999996,
          "velocity": 0.31496062992125984,
          "duration": 0.11811025000000086
        },
        {
          "name": "G4",
          "midi": 67,
          "time": 59.29134549999996,
          "velocity": 0.6299212598425197,
          "duration": 0.11811025000000086
        },
        {
          "name": "A#5",
          "midi": 82,
          "time": 59.29134549999996,
          "velocity": 0.3937007874015748,
          "duration": 0.11811025000000086
        },
        {
          "name": "G5",
          "midi": 79,
          "time": 59.29134549999996,
          "velocity": 0.31496062992125984,
          "duration": 0.11811025000000086
        },
        {
          "name": "G#4",
          "midi": 68,
          "time": 59.409455749999964,
          "velocity": 0.6299212598425197,
          "duration": 0.11811025000000086
        },
        {
          "name": "C#6",
          "midi": 85,
          "time": 59.409455749999964,
          "velocity": 0.3937007874015748,
          "duration": 0.11811025000000086
        },
        {
          "name": "G#5",
          "midi": 80,
          "time": 59.409455749999964,
          "velocity": 0.31496062992125984,
          "duration": 0.11811025000000086
        },
        {
          "name": "E4",
          "midi": 64,
          "time": 59.527565999999965,
          "velocity": 0.6299212598425197,
          "duration": 0.3543307500000026
        },
        {
          "name": "E3",
          "midi": 52,
          "time": 59.527565999999965,
          "velocity": 0.6299212598425197,
          "duration": 0.7086615000000052
        },
        {
          "name": "E5",
          "midi": 76,
          "time": 59.527565999999965,
          "velocity": 0.31496062992125984,
          "duration": 0.3543307500000026
        },
        {
          "name": "B3",
          "midi": 59,
          "time": 59.527565999999965,
          "velocity": 0.5511811023622047,
          "duration": 0.7086615000000052
        },
        {
          "name": "G#5",
          "midi": 80,
          "time": 59.527565999999965,
          "velocity": 0.3937007874015748,
          "duration": 0.3543307500000026
        },
        {
          "name": "G#4",
          "midi": 68,
          "time": 59.88189674999997,
          "velocity": 0.6299212598425197,
          "duration": 0.3543307500000026
        },
        {
          "name": "D#6",
          "midi": 87,
          "time": 59.88189674999997,
          "velocity": 0.3937007874015748,
          "duration": 0.3543307500000026
        },
        {
          "name": "G#5",
          "midi": 80,
          "time": 59.88189674999997,
          "velocity": 0.31496062992125984,
          "duration": 0.3543307500000026
        },
        {
          "name": "F#4",
          "midi": 66,
          "time": 60.23622749999997,
          "velocity": 0.6299212598425197,
          "duration": 0.5905512500000469
        },
        {
          "name": "A#3",
          "midi": 58,
          "time": 60.23622749999997,
          "velocity": 0.5511811023622047,
          "duration": 0.708661500000062
        },
        {
          "name": "F#5",
          "midi": 78,
          "time": 60.23622749999997,
          "velocity": 0.31496062992125984,
          "duration": 0.5905512500000469
        },
        {
          "name": "D#3",
          "midi": 51,
          "time": 60.23622749999997,
          "velocity": 0.6299212598425197,
          "duration": 0.708661500000062
        },
        {
          "name": "C#6",
          "midi": 85,
          "time": 60.23622749999997,
          "velocity": 0.3937007874015748,
          "duration": 0.5905512500000469
        },
        {
          "name": "D#5",
          "midi": 75,
          "time": 71.92914225000003,
          "velocity": 0.47244094488188976,
          "duration": 0.11811025000000086
        },
        {
          "name": "B5",
          "midi": 83,
          "time": 72.04725250000003,
          "velocity": 0.47244094488188976,
          "duration": 0.11811025000000086
        },
        {
          "name": "G#5",
          "midi": 80,
          "time": 72.04725250000003,
          "velocity": 0.31496062992125984,
          "duration": 0.11811025000000086
        },
        {
          "name": "A#5",
          "midi": 82,
          "time": 72.16536275000003,
          "velocity": 0.47244094488188976,
          "duration": 0.11811025000000086
        },
        {
          "name": "G5",
          "midi": 79,
          "time": 72.16536275000003,
          "velocity": 0.31496062992125984,
          "duration": 0.11811025000000086
        },
        {
          "name": "G#5",
          "midi": 80,
          "time": 72.28347300000003,
          "velocity": 0.3937007874015748,
          "duration": 0.11811025000000086
        },
        {
          "name": "D#5",
          "midi": 75,
          "time": 72.28347300000003,
          "velocity": 0.47244094488188976,
          "duration": 0.11811025000000086
        },
        {
          "name": "G#3",
          "midi": 56,
          "time": 72.28347300000003,
          "velocity": 0.6299212598425197,
          "duration": 0.23622050000000172
        },
        {
          "name": "D#4",
          "midi": 63,
          "time": 72.28347300000003,
          "velocity": 0.5511811023622047,
          "duration": 0.23622050000000172
        },
        {
          "name": "B5",
          "midi": 83,
          "time": 72.28347300000003,
          "velocity": 0.47244094488188976,
          "duration": 0.11811025000000086
        },
        {
          "name": "D#5",
          "midi": 75,
          "time": 72.51969350000003,
          "velocity": 0.47244094488188976,
          "duration": 0.11811025000000086
        },
        {
          "name": "G#5",
          "midi": 80,
          "time": 72.51969350000003,
          "velocity": 0.31496062992125984,
          "duration": 0.11811025000000086
        },
        {
          "name": "B5",
          "midi": 83,
          "time": 72.51969350000003,
          "velocity": 0.47244094488188976,
          "duration": 0.11811025000000086
        },
        {
          "name": "G#5",
          "midi": 80,
          "time": 72.63780375000003,
          "velocity": 0.31496062992125984,
          "duration": 0.11811025000000086
        },
        {
          "name": "G#3",
          "midi": 56,
          "time": 72.63780375000003,
          "velocity": 0.6299212598425197,
          "duration": 0.23622050000000172
        },
        {
          "name": "B5",
          "midi": 83,
          "time": 72.63780375000003,
          "velocity": 0.47244094488188976,
          "duration": 0.11811025000000086
        },
        {
          "name": "D#5",
          "midi": 75,
          "time": 72.63780375000003,
          "velocity": 0.47244094488188976,
          "duration": 0.11811025000000086
        },
        {
          "name": "D#4",
          "midi": 63,
          "time": 72.63780375000003,
          "velocity": 0.5511811023622047,
          "duration": 0.23622050000000172
        },
        {
          "name": "D#5",
          "midi": 75,
          "time": 72.87402425000003,
          "velocity": 0.47244094488188976,
          "duration": 0.11811025000000086
        },
        {
          "name": "G#5",
          "midi": 80,
          "time": 72.87402425000003,
          "velocity": 0.31496062992125984,
          "duration": 0.11811025000000086
        },
        {
          "name": "B5",
          "midi": 83,
          "time": 72.87402425000003,
          "velocity": 0.47244094488188976,
          "duration": 0.11811025000000086
        },
        {
          "name": "G5",
          "midi": 79,
          "time": 72.99213450000003,
          "velocity": 0.31496062992125984,
          "duration": 0.11811025000000086
        },
        {
          "name": "D#5",
          "midi": 75,
          "time": 72.99213450000003,
          "velocity": 0.47244094488188976,
          "duration": 0.11811025000000086
        },
        {
          "name": "A#3",
          "midi": 58,
          "time": 72.99213450000003,
          "velocity": 0.5511811023622047,
          "duration": 0.23622050000000172
        },
        {
          "name": "D#3",
          "midi": 51,
          "time": 72.99213450000003,
          "velocity": 0.6299212598425197,
          "duration": 0.23622050000000172
        },
        {
          "name": "A#5",
          "midi": 82,
          "time": 72.99213450000003,
          "velocity": 0.47244094488188976,
          "duration": 0.11811025000000086
        },
        {
          "name": "A#5",
          "midi": 82,
          "time": 73.22835500000004,
          "velocity": 0.3937007874015748,
          "duration": 0.11811025000000086
        },
        {
          "name": "G5",
          "midi": 79,
          "time": 73.22835500000004,
          "velocity": 0.31496062992125984,
          "duration": 0.11811025000000086
        },
        {
          "name": "G4",
          "midi": 67,
          "time": 73.22835500000004,
          "velocity": 0.6299212598425197,
          "duration": 0.11811025000000086
        },
        {
          "name": "B5",
          "midi": 83,
          "time": 73.34646525000004,
          "velocity": 0.3937007874015748,
          "duration": 0.11811025000000086
        },
        {
          "name": "G#5",
          "midi": 80,
          "time": 73.34646525000004,
          "velocity": 0.31496062992125984,
          "duration": 0.11811025000000086
        },
        {
          "name": "G#4",
          "midi": 68,
          "time": 73.34646525000004,
          "velocity": 0.6299212598425197,
          "duration": 0.11811025000000086
        },
        {
          "name": "A#5",
          "midi": 82,
          "time": 73.46457550000004,
          "velocity": 0.3937007874015748,
          "duration": 0.11811025000000086
        },
        {
          "name": "G5",
          "midi": 79,
          "time": 73.46457550000004,
          "velocity": 0.31496062992125984,
          "duration": 0.11811025000000086
        },
        {
          "name": "G4",
          "midi": 67,
          "time": 73.46457550000004,
          "velocity": 0.6299212598425197,
          "duration": 0.11811025000000086
        },
        {
          "name": "B5",
          "midi": 83,
          "time": 73.58268575000004,
          "velocity": 0.3937007874015748,
          "duration": 0.11811025000000086
        },
        {
          "name": "G#5",
          "midi": 80,
          "time": 73.58268575000004,
          "velocity": 0.31496062992125984,
          "duration": 0.11811025000000086
        },
        {
          "name": "G#4",
          "midi": 68,
          "time": 73.58268575000004,
          "velocity": 0.6299212598425197,
          "duration": 0.11811025000000086
        },
        {
          "name": "B3",
          "midi": 59,
          "time": 73.70079600000004,
          "velocity": 0.5511811023622047,
          "duration": 0.7086615000000052
        },
        {
          "name": "E5",
          "midi": 76,
          "time": 73.70079600000004,
          "velocity": 0.31496062992125984,
          "duration": 0.3543307500000026
        },
        {
          "name": "E4",
          "midi": 64,
          "time": 73.70079600000004,
          "velocity": 0.6299212598425197,
          "duration": 0.3543307500000026
        },
        {
          "name": "A#5",
          "midi": 82,
          "time": 73.70079600000004,
          "velocity": 0.3937007874015748,
          "duration": 0.3543307500000026
        },
        {
          "name": "E3",
          "midi": 52,
          "time": 73.70079600000004,
          "velocity": 0.6299212598425197,
          "duration": 0.7086615000000052
        },
        {
          "name": "C#6",
          "midi": 85,
          "time": 74.05512675000004,
          "velocity": 0.3937007874015748,
          "duration": 0.3543307500000026
        },
        {
          "name": "G#5",
          "midi": 80,
          "time": 74.05512675000004,
          "velocity": 0.31496062992125984,
          "duration": 0.3543307500000026
        },
        {
          "name": "G#4",
          "midi": 68,
          "time": 74.05512675000004,
          "velocity": 0.6299212598425197,
          "duration": 0.3543307500000026
        },
        {
          "name": "C#5",
          "midi": 73,
          "time": 74.40945750000004,
          "velocity": 0.31496062992125984,
          "duration": 0.47244100000000344
        },
        {
          "name": "G#5",
          "midi": 80,
          "time": 74.40945750000004,
          "velocity": 0.3937007874015748,
          "duration": 0.47244100000000344
        },
        {
          "name": "C#4",
          "midi": 61,
          "time": 74.40945750000004,
          "velocity": 0.6299212598425197,
          "duration": 0.7086615000000052
        },
        {
          "name": "F#3",
          "midi": 54,
          "time": 74.40945750000004,
          "velocity": 0.6299212598425197,
          "duration": 0.7086615000000052
        },
        {
          "name": "D#5",
          "midi": 75,
          "time": 74.76378825000005,
          "velocity": 0.47244094488188976,
          "duration": 0.11811025000000086
        },
        {
          "name": "B5",
          "midi": 83,
          "time": 74.88189850000005,
          "velocity": 0.47244094488188976,
          "duration": 0.11811025000000086
        },
        {
          "name": "G#5",
          "midi": 80,
          "time": 74.88189850000005,
          "velocity": 0.31496062992125984,
          "duration": 0.11811025000000086
        },
        {
          "name": "A#5",
          "midi": 82,
          "time": 75.00000875000005,
          "velocity": 0.47244094488188976,
          "duration": 0.11811025000000086
        },
        {
          "name": "G5",
          "midi": 79,
          "time": 75.00000875000005,
          "velocity": 0.31496062992125984,
          "duration": 0.11811025000000086
        },
        {
          "name": "B5",
          "midi": 83,
          "time": 75.11811900000005,
          "velocity": 0.47244094488188976,
          "duration": 0.11811025000000086
        },
        {
          "name": "G#5",
          "midi": 80,
          "time": 75.11811900000005,
          "velocity": 0.3937007874015748,
          "duration": 0.11811025000000086
        },
        {
          "name": "D#5",
          "midi": 75,
          "time": 75.11811900000005,
          "velocity": 0.47244094488188976,
          "duration": 0.11811025000000086
        },
        {
          "name": "D#4",
          "midi": 63,
          "time": 75.11811900000005,
          "velocity": 0.5511811023622047,
          "duration": 0.23622050000000172
        },
        {
          "name": "G#3",
          "midi": 56,
          "time": 75.11811900000005,
          "velocity": 0.6299212598425197,
          "duration": 0.23622050000000172
        },
        {
          "name": "D#5",
          "midi": 75,
          "time": 75.35433950000005,
          "velocity": 0.47244094488188976,
          "duration": 0.11811025000000086
        },
        {
          "name": "G#5",
          "midi": 80,
          "time": 75.35433950000005,
          "velocity": 0.31496062992125984,
          "duration": 0.11811025000000086
        },
        {
          "name": "B5",
          "midi": 83,
          "time": 75.35433950000005,
          "velocity": 0.47244094488188976,
          "duration": 0.11811025000000086
        },
        {
          "name": "D#4",
          "midi": 63,
          "time": 75.47244975000005,
          "velocity": 0.5511811023622047,
          "duration": 0.23622050000000172
        },
        {
          "name": "G#5",
          "midi": 80,
          "time": 75.47244975000005,
          "velocity": 0.31496062992125984,
          "duration": 0.11811025000000086
        },
        {
          "name": "B5",
          "midi": 83,
          "time": 75.47244975000005,
          "velocity": 0.47244094488188976,
          "duration": 0.11811025000000086
        },
        {
          "name": "D#5",
          "midi": 75,
          "time": 75.47244975000005,
          "velocity": 0.47244094488188976,
          "duration": 0.11811025000000086
        },
        {
          "name": "G#3",
          "midi": 56,
          "time": 75.47244975000005,
          "velocity": 0.6299212598425197,
          "duration": 0.23622050000000172
        },
        {
          "name": "D#5",
          "midi": 75,
          "time": 75.70867025000005,
          "velocity": 0.47244094488188976,
          "duration": 0.11811025000000086
        },
        {
          "name": "G#5",
          "midi": 80,
          "time": 75.70867025000005,
          "velocity": 0.31496062992125984,
          "duration": 0.11811025000000086
        },
        {
          "name": "B5",
          "midi": 83,
          "time": 75.70867025000005,
          "velocity": 0.47244094488188976,
          "duration": 0.11811025000000086
        },
        {
          "name": "A#3",
          "midi": 58,
          "time": 75.82678050000005,
          "velocity": 0.5511811023622047,
          "duration": 0.23622050000000172
        },
        {
          "name": "A#5",
          "midi": 82,
          "time": 75.82678050000005,
          "velocity": 0.47244094488188976,
          "duration": 0.11811025000000086
        },
        {
          "name": "G5",
          "midi": 79,
          "time": 75.82678050000005,
          "velocity": 0.31496062992125984,
          "duration": 0.11811025000000086
        },
        {
          "name": "D#5",
          "midi": 75,
          "time": 75.82678050000005,
          "velocity": 0.47244094488188976,
          "duration": 0.11811025000000086
        },
        {
          "name": "D#3",
          "midi": 51,
          "time": 75.82678050000005,
          "velocity": 0.6299212598425197,
          "duration": 0.23622050000000172
        },
        {
          "name": "A#5",
          "midi": 82,
          "time": 76.06300100000006,
          "velocity": 0.3937007874015748,
          "duration": 0.11811025000000086
        },
        {
          "name": "G5",
          "midi": 79,
          "time": 76.06300100000006,
          "velocity": 0.31496062992125984,
          "duration": 0.11811025000000086
        },
        {
          "name": "G4",
          "midi": 67,
          "time": 76.06300100000006,
          "velocity": 0.6299212598425197,
          "duration": 0.11811025000000086
        },
        {
          "name": "B5",
          "midi": 83,
          "time": 76.18111125000006,
          "velocity": 0.3937007874015748,
          "duration": 0.11811025000000086
        },
        {
          "name": "G#5",
          "midi": 80,
          "time": 76.18111125000006,
          "velocity": 0.31496062992125984,
          "duration": 0.11811025000000086
        },
        {
          "name": "G#4",
          "midi": 68,
          "time": 76.18111125000006,
          "velocity": 0.6299212598425197,
          "duration": 0.11811025000000086
        },
        {
          "name": "A#5",
          "midi": 82,
          "time": 76.29922150000006,
          "velocity": 0.3937007874015748,
          "duration": 0.11811025000000086
        },
        {
          "name": "G5",
          "midi": 79,
          "time": 76.29922150000006,
          "velocity": 0.31496062992125984,
          "duration": 0.11811025000000086
        },
        {
          "name": "G4",
          "midi": 67,
          "time": 76.29922150000006,
          "velocity": 0.6299212598425197,
          "duration": 0.11811025000000086
        },
        {
          "name": "C#6",
          "midi": 85,
          "time": 76.41733175000006,
          "velocity": 0.3937007874015748,
          "duration": 0.11811025000000086
        },
        {
          "name": "G#5",
          "midi": 80,
          "time": 76.41733175000006,
          "velocity": 0.31496062992125984,
          "duration": 0.11811025000000086
        },
        {
          "name": "G#4",
          "midi": 68,
          "time": 76.41733175000006,
          "velocity": 0.6299212598425197,
          "duration": 0.11811025000000086
        },
        {
          "name": "E3",
          "midi": 52,
          "time": 76.53544200000006,
          "velocity": 0.6299212598425197,
          "duration": 0.7086615000000052
        },
        {
          "name": "E5",
          "midi": 76,
          "time": 76.53544200000006,
          "velocity": 0.31496062992125984,
          "duration": 0.3543307500000026
        },
        {
          "name": "B3",
          "midi": 59,
          "time": 76.53544200000006,
          "velocity": 0.5511811023622047,
          "duration": 0.7086615000000052
        },
        {
          "name": "G#5",
          "midi": 80,
          "time": 76.53544200000006,
          "velocity": 0.3937007874015748,
          "duration": 0.3543307500000026
        },
        {
          "name": "E4",
          "midi": 64,
          "time": 76.53544200000006,
          "velocity": 0.6299212598425197,
          "duration": 0.3543307500000026
        },
        {
          "name": "D#6",
          "midi": 87,
          "time": 76.88977275000006,
          "velocity": 0.3937007874015748,
          "duration": 0.3543307500000026
        },
        {
          "name": "G#5",
          "midi": 80,
          "time": 76.88977275000006,
          "velocity": 0.31496062992125984,
          "duration": 0.3543307500000026
        },
        {
          "name": "G#4",
          "midi": 68,
          "time": 76.88977275000006,
          "velocity": 0.6299212598425197,
          "duration": 0.3543307500000026
        },
        {
          "name": "C#4",
          "midi": 61,
          "time": 77.24410350000007,
          "velocity": 0.5511811023622047,
          "duration": 0.7086615000000052
        },
        {
          "name": "F#5",
          "midi": 78,
          "time": 77.24410350000007,
          "velocity": 0.31496062992125984,
          "duration": 0.3543307500000026
        },
        {
          "name": "F#3",
          "midi": 54,
          "time": 77.24410350000007,
          "velocity": 0.6299212598425197,
          "duration": 0.7086615000000052
        },
        {
          "name": "C#6",
          "midi": 85,
          "time": 77.24410350000007,
          "velocity": 0.3937007874015748,
          "duration": 0.3543307500000026
        },
        {
          "name": "F#4",
          "midi": 66,
          "time": 77.24410350000007,
          "velocity": 0.6299212598425197,
          "duration": 0.3543307500000026
        },
        {
          "name": "A#5",
          "midi": 82,
          "time": 77.59843425000007,
          "velocity": 0.3937007874015748,
          "duration": 0.23622050000000172
        },
        {
          "name": "D#5",
          "midi": 75,
          "time": 77.59843425000007,
          "velocity": 0.47244094488188976,
          "duration": 0.11811025000000086
        },
        {
          "name": "E5",
          "midi": 76,
          "time": 77.59843425000007,
          "velocity": 0.31496062992125984,
          "duration": 0.3543307500000026
        },
        {
          "name": "E4",
          "midi": 64,
          "time": 77.59843425000007,
          "velocity": 0.6299212598425197,
          "duration": 0.3543307500000026
        },
        {
          "name": "G#5",
          "midi": 80,
          "time": 77.71654450000007,
          "velocity": 0.31496062992125984,
          "duration": 0.11811025000000086
        },
        {
          "name": "B5",
          "midi": 83,
          "time": 77.71654450000007,
          "velocity": 0.47244094488188976,
          "duration": 0.11811025000000086
        },
        {
          "name": "G5",
          "midi": 79,
          "time": 77.83465475000007,
          "velocity": 0.31496062992125984,
          "duration": 0.11811025000000086
        },
        {
          "name": "A#5",
          "midi": 82,
          "time": 77.83465475000007,
          "velocity": 0.47244094488188976,
          "duration": 0.11811025000000086
        },
        {
          "name": "D#5",
          "midi": 75,
          "time": 77.95276500000007,
          "velocity": 0.47244094488188976,
          "duration": 0.11811025000000086
        },
        {
          "name": "G#3",
          "midi": 56,
          "time": 77.95276500000007,
          "velocity": 0.6299212598425197,
          "duration": 0.23622050000000172
        },
        {
          "name": "G#5",
          "midi": 80,
          "time": 77.95276500000007,
          "velocity": 0.3937007874015748,
          "duration": 0.11811025000000086
        },
        {
          "name": "D#4",
          "midi": 63,
          "time": 77.95276500000007,
          "velocity": 0.6299212598425197,
          "duration": 0.7086615000000052
        },
        {
          "name": "B5",
          "midi": 83,
          "time": 77.95276500000007,
          "velocity": 0.47244094488188976,
          "duration": 0.11811025000000086
        },
        {
          "name": "D#5",
          "midi": 75,
          "time": 78.18898550000007,
          "velocity": 0.47244094488188976,
          "duration": 0.11811025000000086
        },
        {
          "name": "G#5",
          "midi": 80,
          "time": 78.18898550000007,
          "velocity": 0.31496062992125984,
          "duration": 0.11811025000000086
        },
        {
          "name": "B5",
          "midi": 83,
          "time": 78.18898550000007,
          "velocity": 0.47244094488188976,
          "duration": 0.11811025000000086
        },
        {
          "name": "B5",
          "midi": 83,
          "time": 78.30709575000007,
          "velocity": 0.47244094488188976,
          "duration": 0.11811025000000086
        },
        {
          "name": "D#5",
          "midi": 75,
          "time": 78.30709575000007,
          "velocity": 0.47244094488188976,
          "duration": 0.11811025000000086
        },
        {
          "name": "G#3",
          "midi": 56,
          "time": 78.30709575000007,
          "velocity": 0.6299212598425197,
          "duration": 0.23622050000000172
        },
        {
          "name": "G#5",
          "midi": 80,
          "time": 78.30709575000007,
          "velocity": 0.31496062992125984,
          "duration": 0.11811025000000086
        },
        {
          "name": "D#5",
          "midi": 75,
          "time": 78.54331625000007,
          "velocity": 0.47244094488188976,
          "duration": 0.11811025000000086
        },
        {
          "name": "G#5",
          "midi": 80,
          "time": 78.54331625000007,
          "velocity": 0.31496062992125984,
          "duration": 0.11811025000000086
        },
        {
          "name": "B5",
          "midi": 83,
          "time": 78.54331625000007,
          "velocity": 0.47244094488188976,
          "duration": 0.11811025000000086
        },
        {
          "name": "G5",
          "midi": 79,
          "time": 78.66142650000008,
          "velocity": 0.31496062992125984,
          "duration": 0.11811025000000086
        },
        {
          "name": "D#5",
          "midi": 75,
          "time": 78.66142650000008,
          "velocity": 0.47244094488188976,
          "duration": 0.11811025000000086
        },
        {
          "name": "A#3",
          "midi": 58,
          "time": 78.66142650000008,
          "velocity": 0.5511811023622047,
          "duration": 0.23622050000000172
        },
        {
          "name": "D#3",
          "midi": 51,
          "time": 78.66142650000008,
          "velocity": 0.6299212598425197,
          "duration": 0.23622050000000172
        },
        {
          "name": "A#5",
          "midi": 82,
          "time": 78.66142650000008,
          "velocity": 0.47244094488188976,
          "duration": 0.11811025000000086
        },
        {
          "name": "A#5",
          "midi": 82,
          "time": 78.89764700000008,
          "velocity": 0.3937007874015748,
          "duration": 0.11811025000000086
        },
        {
          "name": "G5",
          "midi": 79,
          "time": 78.89764700000008,
          "velocity": 0.31496062992125984,
          "duration": 0.11811025000000086
        },
        {
          "name": "G4",
          "midi": 67,
          "time": 78.89764700000008,
          "velocity": 0.6299212598425197,
          "duration": 0.11811025000000086
        },
        {
          "name": "B5",
          "midi": 83,
          "time": 79.01575725000008,
          "velocity": 0.3937007874015748,
          "duration": 0.11811025000000086
        },
        {
          "name": "G#5",
          "midi": 80,
          "time": 79.01575725000008,
          "velocity": 0.31496062992125984,
          "duration": 0.11811025000000086
        },
        {
          "name": "G#4",
          "midi": 68,
          "time": 79.01575725000008,
          "velocity": 0.6299212598425197,
          "duration": 0.11811025000000086
        },
        {
          "name": "A#5",
          "midi": 82,
          "time": 79.13386750000008,
          "velocity": 0.3937007874015748,
          "duration": 0.11811025000000086
        },
        {
          "name": "G5",
          "midi": 79,
          "time": 79.13386750000008,
          "velocity": 0.31496062992125984,
          "duration": 0.11811025000000086
        },
        {
          "name": "G4",
          "midi": 67,
          "time": 79.13386750000008,
          "velocity": 0.6299212598425197,
          "duration": 0.11811025000000086
        },
        {
          "name": "B5",
          "midi": 83,
          "time": 79.25197775000008,
          "velocity": 0.3937007874015748,
          "duration": 0.11811025000000086
        },
        {
          "name": "G#5",
          "midi": 80,
          "time": 79.25197775000008,
          "velocity": 0.31496062992125984,
          "duration": 0.11811025000000086
        },
        {
          "name": "G#4",
          "midi": 68,
          "time": 79.25197775000008,
          "velocity": 0.6299212598425197,
          "duration": 0.11811025000000086
        },
        {
          "name": "B3",
          "midi": 59,
          "time": 79.37008800000008,
          "velocity": 0.5511811023622047,
          "duration": 0.7086615000000052
        },
        {
          "name": "E5",
          "midi": 76,
          "time": 79.37008800000008,
          "velocity": 0.31496062992125984,
          "duration": 0.3543307500000026
        },
        {
          "name": "E4",
          "midi": 64,
          "time": 79.37008800000008,
          "velocity": 0.6299212598425197,
          "duration": 0.3543307500000026
        },
        {
          "name": "A#5",
          "midi": 82,
          "time": 79.37008800000008,
          "velocity": 0.3937007874015748,
          "duration": 0.3543307500000026
        },
        {
          "name": "E3",
          "midi": 52,
          "time": 79.37008800000008,
          "velocity": 0.6299212598425197,
          "duration": 0.7086615000000052
        },
        {
          "name": "C#6",
          "midi": 85,
          "time": 79.72441875000008,
          "velocity": 0.3937007874015748,
          "duration": 0.3543307500000026
        },
        {
          "name": "G#5",
          "midi": 80,
          "time": 79.72441875000008,
          "velocity": 0.31496062992125984,
          "duration": 0.3543307500000026
        },
        {
          "name": "G#4",
          "midi": 68,
          "time": 79.72441875000008,
          "velocity": 0.6299212598425197,
          "duration": 0.3543307500000026
        },
        {
          "name": "C#5",
          "midi": 73,
          "time": 80.07874950000009,
          "velocity": 0.31496062992125984,
          "duration": 0.47244100000000344
        },
        {
          "name": "G#5",
          "midi": 80,
          "time": 80.07874950000009,
          "velocity": 0.3937007874015748,
          "duration": 0.47244100000000344
        },
        {
          "name": "C#4",
          "midi": 61,
          "time": 80.07874950000009,
          "velocity": 0.6299212598425197,
          "duration": 0.7086615000000052
        },
        {
          "name": "F#3",
          "midi": 54,
          "time": 80.07874950000009,
          "velocity": 0.6299212598425197,
          "duration": 0.7086615000000052
        },
        {
          "name": "D#5",
          "midi": 75,
          "time": 80.43308025000009,
          "velocity": 0.47244094488188976,
          "duration": 0.11811025000000086
        },
        {
          "name": "B5",
          "midi": 83,
          "time": 80.55119050000009,
          "velocity": 0.47244094488188976,
          "duration": 0.11811025000000086
        },
        {
          "name": "G#5",
          "midi": 80,
          "time": 80.55119050000009,
          "velocity": 0.31496062992125984,
          "duration": 0.11811025000000086
        },
        {
          "name": "A#5",
          "midi": 82,
          "time": 80.66930075000009,
          "velocity": 0.47244094488188976,
          "duration": 0.11811025000000086
        },
        {
          "name": "G5",
          "midi": 79,
          "time": 80.66930075000009,
          "velocity": 0.31496062992125984,
          "duration": 0.11811025000000086
        },
        {
          "name": "D#4",
          "midi": 63,
          "time": 80.78741100000009,
          "velocity": 0.5511811023622047,
          "duration": 0.23622050000000172
        },
        {
          "name": "B5",
          "midi": 83,
          "time": 80.78741100000009,
          "velocity": 0.47244094488188976,
          "duration": 0.11811025000000086
        },
        {
          "name": "D#5",
          "midi": 75,
          "time": 80.78741100000009,
          "velocity": 0.47244094488188976,
          "duration": 0.11811025000000086
        },
        {
          "name": "G#5",
          "midi": 80,
          "time": 80.78741100000009,
          "velocity": 0.3937007874015748,
          "duration": 0.11811025000000086
        },
        {
          "name": "G#3",
          "midi": 56,
          "time": 80.78741100000009,
          "velocity": 0.6299212598425197,
          "duration": 0.23622050000000172
        },
        {
          "name": "G#5",
          "midi": 80,
          "time": 81.02363150000009,
          "velocity": 0.31496062992125984,
          "duration": 0.11811025000000086
        },
        {
          "name": "B5",
          "midi": 83,
          "time": 81.02363150000009,
          "velocity": 0.47244094488188976,
          "duration": 0.11811025000000086
        },
        {
          "name": "D#5",
          "midi": 75,
          "time": 81.02363150000009,
          "velocity": 0.47244094488188976,
          "duration": 0.11811025000000086
        },
        {
          "name": "G#3",
          "midi": 56,
          "time": 81.1417417500001,
          "velocity": 0.6299212598425197,
          "duration": 0.23622050000000172
        },
        {
          "name": "G#5",
          "midi": 80,
          "time": 81.1417417500001,
          "velocity": 0.31496062992125984,
          "duration": 0.11811025000000086
        },
        {
          "name": "B5",
          "midi": 83,
          "time": 81.1417417500001,
          "velocity": 0.47244094488188976,
          "duration": 0.11811025000000086
        },
        {
          "name": "D#5",
          "midi": 75,
          "time": 81.1417417500001,
          "velocity": 0.47244094488188976,
          "duration": 0.11811025000000086
        },
        {
          "name": "D#4",
          "midi": 63,
          "time": 81.1417417500001,
          "velocity": 0.5511811023622047,
          "duration": 0.23622050000000172
        },
        {
          "name": "G#5",
          "midi": 80,
          "time": 81.3779622500001,
          "velocity": 0.31496062992125984,
          "duration": 0.11811025000000086
        },
        {
          "name": "B5",
          "midi": 83,
          "time": 81.3779622500001,
          "velocity": 0.47244094488188976,
          "duration": 0.11811025000000086
        },
        {
          "name": "D#5",
          "midi": 75,
          "time": 81.3779622500001,
          "velocity": 0.47244094488188976,
          "duration": 0.11811025000000086
        },
        {
          "name": "D#3",
          "midi": 51,
          "time": 81.4960725000001,
          "velocity": 0.6299212598425197,
          "duration": 0.23622050000000172
        },
        {
          "name": "A#5",
          "midi": 82,
          "time": 81.4960725000001,
          "velocity": 0.47244094488188976,
          "duration": 0.11811025000000086
        },
        {
          "name": "G5",
          "midi": 79,
          "time": 81.4960725000001,
          "velocity": 0.31496062992125984,
          "duration": 0.11811025000000086
        },
        {
          "name": "D#5",
          "midi": 75,
          "time": 81.4960725000001,
          "velocity": 0.47244094488188976,
          "duration": 0.11811025000000086
        },
        {
          "name": "A#3",
          "midi": 58,
          "time": 81.4960725000001,
          "velocity": 0.5511811023622047,
          "duration": 0.23622050000000172
        },
        {
          "name": "A#5",
          "midi": 82,
          "time": 81.7322930000001,
          "velocity": 0.3937007874015748,
          "duration": 0.11811025000000086
        },
        {
          "name": "G5",
          "midi": 79,
          "time": 81.7322930000001,
          "velocity": 0.31496062992125984,
          "duration": 0.11811025000000086
        },
        {
          "name": "G4",
          "midi": 67,
          "time": 81.7322930000001,
          "velocity": 0.6299212598425197,
          "duration": 0.11811025000000086
        },
        {
          "name": "B5",
          "midi": 83,
          "time": 81.8504032500001,
          "velocity": 0.3937007874015748,
          "duration": 0.11811025000000086
        },
        {
          "name": "G#5",
          "midi": 80,
          "time": 81.8504032500001,
          "velocity": 0.31496062992125984,
          "duration": 0.11811025000000086
        },
        {
          "name": "G#4",
          "midi": 68,
          "time": 81.8504032500001,
          "velocity": 0.6299212598425197,
          "duration": 0.11811025000000086
        },
        {
          "name": "A#5",
          "midi": 82,
          "time": 81.9685135000001,
          "velocity": 0.3937007874015748,
          "duration": 0.11811025000000086
        },
        {
          "name": "G5",
          "midi": 79,
          "time": 81.9685135000001,
          "velocity": 0.31496062992125984,
          "duration": 0.11811025000000086
        },
        {
          "name": "G4",
          "midi": 67,
          "time": 81.9685135000001,
          "velocity": 0.6299212598425197,
          "duration": 0.11811025000000086
        },
        {
          "name": "C#6",
          "midi": 85,
          "time": 82.0866237500001,
          "velocity": 0.3937007874015748,
          "duration": 0.11811025000000086
        },
        {
          "name": "G#5",
          "midi": 80,
          "time": 82.0866237500001,
          "velocity": 0.31496062992125984,
          "duration": 0.11811025000000086
        },
        {
          "name": "G#4",
          "midi": 68,
          "time": 82.0866237500001,
          "velocity": 0.6299212598425197,
          "duration": 0.11811025000000086
        },
        {
          "name": "E3",
          "midi": 52,
          "time": 82.2047340000001,
          "velocity": 0.6299212598425197,
          "duration": 0.7086615000000052
        },
        {
          "name": "E5",
          "midi": 76,
          "time": 82.2047340000001,
          "velocity": 0.31496062992125984,
          "duration": 0.3543307500000026
        },
        {
          "name": "B3",
          "midi": 59,
          "time": 82.2047340000001,
          "velocity": 0.5511811023622047,
          "duration": 0.7086615000000052
        },
        {
          "name": "G#5",
          "midi": 80,
          "time": 82.2047340000001,
          "velocity": 0.3937007874015748,
          "duration": 0.3543307500000026
        },
        {
          "name": "E4",
          "midi": 64,
          "time": 82.2047340000001,
          "velocity": 0.6299212598425197,
          "duration": 0.3543307500000026
        },
        {
          "name": "D#6",
          "midi": 87,
          "time": 82.5590647500001,
          "velocity": 0.3937007874015748,
          "duration": 0.3543307500000026
        },
        {
          "name": "G#5",
          "midi": 80,
          "time": 82.5590647500001,
          "velocity": 0.31496062992125984,
          "duration": 0.3543307500000026
        },
        {
          "name": "G#4",
          "midi": 68,
          "time": 82.5590647500001,
          "velocity": 0.6299212598425197,
          "duration": 0.3543307500000026
        },
        {
          "name": "A#3",
          "midi": 58,
          "time": 82.9133955000001,
          "velocity": 0.5511811023622047,
          "duration": 0.7086615000000052
        },
        {
          "name": "F#5",
          "midi": 78,
          "time": 82.9133955000001,
          "velocity": 0.31496062992125984,
          "duration": 0.5905512500000043
        },
        {
          "name": "D#3",
          "midi": 51,
          "time": 82.9133955000001,
          "velocity": 0.6299212598425197,
          "duration": 0.7086615000000052
        },
        {
          "name": "C#6",
          "midi": 85,
          "time": 82.9133955000001,
          "velocity": 0.3937007874015748,
          "duration": 0.5905512500000043
        },
        {
          "name": "F#4",
          "midi": 66,
          "time": 82.9133955000001,
          "velocity": 0.6299212598425197,
          "duration": 0.5905512500000043
        },
        {
          "name": "G#3",
          "midi": 56,
          "time": 83.62205700000011,
          "velocity": 0.5511811023622047,
          "duration": 1.4173229999999961
        },
        {
          "name": "D#3",
          "midi": 51,
          "time": 83.62205700000011,
          "velocity": 0.47244094488188976,
          "duration": 1.4173229999999961
        },
        {
          "name": "C#3",
          "midi": 49,
          "time": 85.03938000000011,
          "velocity": 0.47244094488188976,
          "duration": 1.4173229999999961
        },
        {
          "name": "G#3",
          "midi": 56,
          "time": 85.03938000000011,
          "velocity": 0.5511811023622047,
          "duration": 1.4173229999999961
        },
        {
          "name": "G#3",
          "midi": 56,
          "time": 86.4567030000001,
          "velocity": 0.5511811023622047,
          "duration": 1.4173229999999961
        },
        {
          "name": "D#3",
          "midi": 51,
          "time": 86.4567030000001,
          "velocity": 0.47244094488188976,
          "duration": 1.4173229999999961
        },
        {
          "name": "C#3",
          "midi": 49,
          "time": 87.8740260000001,
          "velocity": 0.47244094488188976,
          "duration": 1.4173229999999961
        },
        {
          "name": "F#3",
          "midi": 54,
          "time": 87.8740260000001,
          "velocity": 0.5511811023622047,
          "duration": 1.4173229999999961
        },
        {
          "name": "B2",
          "midi": 47,
          "time": 89.2913490000001,
          "velocity": 0.47244094488188976,
          "duration": 1.4173229999999961
        },
        {
          "name": "G#3",
          "midi": 56,
          "time": 89.2913490000001,
          "velocity": 0.5511811023622047,
          "duration": 1.4173229999999961
        },
        {
          "name": "G#3",
          "midi": 56,
          "time": 90.70867200000009,
          "velocity": 0.5511811023622047,
          "duration": 1.4173229999999961
        },
        {
          "name": "C#3",
          "midi": 49,
          "time": 90.70867200000009,
          "velocity": 0.47244094488188976,
          "duration": 1.4173229999999961
        },
        {
          "name": "D#3",
          "midi": 51,
          "time": 92.12599500000009,
          "velocity": 0.47244094488188976,
          "duration": 1.4173229999999961
        },
        {
          "name": "G#3",
          "midi": 56,
          "time": 92.12599500000009,
          "velocity": 0.5511811023622047,
          "duration": 1.4173229999999961
        },
        {
          "name": "G#3",
          "midi": 56,
          "time": 93.54331800000008,
          "velocity": 0.5511811023622047,
          "duration": 0.3543307500000026
        },
        {
          "name": "D#3",
          "midi": 51,
          "time": 93.54331800000008,
          "velocity": 0.47244094488188976,
          "duration": 0.3543307500000026
        },
        {
          "name": "C#3",
          "midi": 49,
          "time": 93.89764875000009,
          "velocity": 0.47244094488188976,
          "duration": 0.3543307500000026
        },
        {
          "name": "F#3",
          "midi": 54,
          "time": 93.89764875000009,
          "velocity": 0.5511811023622047,
          "duration": 0.3543307500000026
        },
        {
          "name": "D#3",
          "midi": 51,
          "time": 94.25197950000009,
          "velocity": 0.47244094488188976,
          "duration": 0.7086615000000052
        },
        {
          "name": "G#3",
          "midi": 56,
          "time": 94.25197950000009,
          "velocity": 0.5511811023622047,
          "duration": 0.7086615000000052
        },
        {
          "name": "A#2",
          "midi": 46,
          "time": 94.9606410000001,
          "velocity": 0.47244094488188976,
          "duration": 1.4173229999999961
        },
        {
          "name": "G5",
          "midi": 79,
          "time": 94.9606410000001,
          "velocity": 0.3937007874015748,
          "duration": 1.4173229999999961
        },
        {
          "name": "G3",
          "midi": 55,
          "time": 94.9606410000001,
          "velocity": 0.5511811023622047,
          "duration": 1.4173229999999961
        },
        {
          "name": "C3",
          "midi": 48,
          "time": 96.37796400000009,
          "velocity": 0.47244094488188976,
          "duration": 1.4173229999999961
        },
        {
          "name": "G5",
          "midi": 79,
          "time": 96.37796400000009,
          "velocity": 0.3937007874015748,
          "duration": 1.4173229999999961
        },
        {
          "name": "G3",
          "midi": 55,
          "time": 96.37796400000009,
          "velocity": 0.5511811023622047,
          "duration": 1.4173229999999961
        },
        {
          "name": "G5",
          "midi": 79,
          "time": 97.79528700000009,
          "velocity": 0.3937007874015748,
          "duration": 1.4173229999999961
        },
        {
          "name": "D3",
          "midi": 50,
          "time": 97.79528700000009,
          "velocity": 0.47244094488188976,
          "duration": 1.4173229999999961
        },
        {
          "name": "G3",
          "midi": 55,
          "time": 97.79528700000009,
          "velocity": 0.5511811023622047,
          "duration": 1.4173229999999961
        },
        {
          "name": "C3",
          "midi": 48,
          "time": 99.21261000000008,
          "velocity": 0.47244094488188976,
          "duration": 1.4173229999999961
        },
        {
          "name": "G5",
          "midi": 79,
          "time": 99.21261000000008,
          "velocity": 0.3937007874015748,
          "duration": 1.4173229999999961
        },
        {
          "name": "F3",
          "midi": 53,
          "time": 99.21261000000008,
          "velocity": 0.5511811023622047,
          "duration": 1.4173229999999961
        },
        {
          "name": "G5",
          "midi": 79,
          "time": 100.62993300000008,
          "velocity": 0.3937007874015748,
          "duration": 1.4173229999999961
        },
        {
          "name": "A#2",
          "midi": 46,
          "time": 100.62993300000008,
          "velocity": 0.47244094488188976,
          "duration": 1.4173229999999961
        },
        {
          "name": "G3",
          "midi": 55,
          "time": 100.62993300000008,
          "velocity": 0.5511811023622047,
          "duration": 1.4173229999999961
        },
        {
          "name": "G5",
          "midi": 79,
          "time": 102.04725600000008,
          "velocity": 0.3937007874015748,
          "duration": 1.4173229999999961
        },
        {
          "name": "C3",
          "midi": 48,
          "time": 102.04725600000008,
          "velocity": 0.47244094488188976,
          "duration": 1.4173229999999961
        },
        {
          "name": "G3",
          "midi": 55,
          "time": 102.04725600000008,
          "velocity": 0.5511811023622047,
          "duration": 1.4173229999999961
        },
        {
          "name": "G5",
          "midi": 79,
          "time": 103.46457900000007,
          "velocity": 0.3937007874015748,
          "duration": 1.4173229999999961
        },
        {
          "name": "D3",
          "midi": 50,
          "time": 103.46457900000007,
          "velocity": 0.47244094488188976,
          "duration": 1.4173229999999961
        },
        {
          "name": "G3",
          "midi": 55,
          "time": 103.46457900000007,
          "velocity": 0.5511811023622047,
          "duration": 1.4173229999999961
        },
        {
          "name": "G5",
          "midi": 79,
          "time": 104.88190200000007,
          "velocity": 0.3937007874015748,
          "duration": 1.4173230000000103
        },
        {
          "name": "D3",
          "midi": 50,
          "time": 104.88190200000007,
          "velocity": 0.47244094488188976,
          "duration": 0.3543307500000026
        },
        {
          "name": "G3",
          "midi": 55,
          "time": 104.88190200000007,
          "velocity": 0.5511811023622047,
          "duration": 0.3543307500000026
        },
        {
          "name": "F3",
          "midi": 53,
          "time": 105.23623275000007,
          "velocity": 0.5511811023622047,
          "duration": 0.3543307500000026
        },
        {
          "name": "C3",
          "midi": 48,
          "time": 105.23623275000007,
          "velocity": 0.47244094488188976,
          "duration": 0.3543307500000026
        },
        {
          "name": "G3",
          "midi": 55,
          "time": 105.59056350000007,
          "velocity": 0.5511811023622047,
          "duration": 0.7086615000000052
        },
        {
          "name": "D3",
          "midi": 50,
          "time": 105.59056350000007,
          "velocity": 0.47244094488188976,
          "duration": 0.7086615000000052
        },
        {
          "name": "G3",
          "midi": 55,
          "time": 106.29922500000008,
          "velocity": 0.5511811023622047,
          "duration": 1.4173229999999961
        },
        {
          "name": "G5",
          "midi": 79,
          "time": 106.29922500000008,
          "velocity": 0.3937007874015748,
          "duration": 1.4173229999999961
        },
        {
          "name": "A#2",
          "midi": 46,
          "time": 106.29922500000008,
          "velocity": 0.47244094488188976,
          "duration": 1.4173229999999961
        },
        {
          "name": "G3",
          "midi": 55,
          "time": 107.71654800000007,
          "velocity": 0.5511811023622047,
          "duration": 1.4173229999999961
        },
        {
          "name": "C3",
          "midi": 48,
          "time": 107.71654800000007,
          "velocity": 0.47244094488188976,
          "duration": 1.4173229999999961
        },
        {
          "name": "G5",
          "midi": 79,
          "time": 107.71654800000007,
          "velocity": 0.3937007874015748,
          "duration": 1.4173229999999961
        },
        {
          "name": "G3",
          "midi": 55,
          "time": 109.13387100000007,
          "velocity": 0.5511811023622047,
          "duration": 1.4173229999999961
        },
        {
          "name": "D3",
          "midi": 50,
          "time": 109.13387100000007,
          "velocity": 0.47244094488188976,
          "duration": 1.4173229999999961
        },
        {
          "name": "G5",
          "midi": 79,
          "time": 109.13387100000007,
          "velocity": 0.3937007874015748,
          "duration": 1.4173229999999961
        },
        {
          "name": "F3",
          "midi": 53,
          "time": 110.55119400000007,
          "velocity": 0.5511811023622047,
          "duration": 1.4173229999999961
        },
        {
          "name": "C3",
          "midi": 48,
          "time": 110.55119400000007,
          "velocity": 0.47244094488188976,
          "duration": 1.4173229999999961
        },
        {
          "name": "G5",
          "midi": 79,
          "time": 110.55119400000007,
          "velocity": 0.3937007874015748,
          "duration": 1.4173229999999961
        },
        {
          "name": "G3",
          "midi": 55,
          "time": 111.96851700000006,
          "velocity": 0.5511811023622047,
          "duration": 1.4173229999999961
        },
        {
          "name": "G5",
          "midi": 79,
          "time": 111.96851700000006,
          "velocity": 0.3937007874015748,
          "duration": 1.4173229999999961
        },
        {
          "name": "A#2",
          "midi": 46,
          "time": 111.96851700000006,
          "velocity": 0.47244094488188976,
          "duration": 1.4173229999999961
        },
        {
          "name": "G3",
          "midi": 55,
          "time": 113.38584000000006,
          "velocity": 0.5511811023622047,
          "duration": 1.4173229999999961
        },
        {
          "name": "C3",
          "midi": 48,
          "time": 113.38584000000006,
          "velocity": 0.47244094488188976,
          "duration": 1.4173229999999961
        },
        {
          "name": "G5",
          "midi": 79,
          "time": 113.38584000000006,
          "velocity": 0.3937007874015748,
          "duration": 1.4173229999999961
        },
        {
          "name": "G3",
          "midi": 55,
          "time": 114.80316300000005,
          "velocity": 0.5511811023622047,
          "duration": 1.4173229999999961
        },
        {
          "name": "D3",
          "midi": 50,
          "time": 114.80316300000005,
          "velocity": 0.47244094488188976,
          "duration": 1.4173229999999961
        },
        {
          "name": "G5",
          "midi": 79,
          "time": 114.80316300000005,
          "velocity": 0.3937007874015748,
          "duration": 1.4173229999999961
        },
        {
          "name": "G3",
          "midi": 55,
          "time": 116.22048600000005,
          "velocity": 0.5511811023622047,
          "duration": 0.3543307500000026
        },
        {
          "name": "D3",
          "midi": 50,
          "time": 116.22048600000005,
          "velocity": 0.47244094488188976,
          "duration": 0.3543307500000026
        },
        {
          "name": "G5",
          "midi": 79,
          "time": 116.22048600000005,
          "velocity": 0.3937007874015748,
          "duration": 1.4173230000000103
        },
        {
          "name": "C3",
          "midi": 48,
          "time": 116.57481675000005,
          "velocity": 0.47244094488188976,
          "duration": 0.3543307500000026
        },
        {
          "name": "F3",
          "midi": 53,
          "time": 116.57481675000005,
          "velocity": 0.5511811023622047,
          "duration": 0.3543307500000026
        },
        {
          "name": "D3",
          "midi": 50,
          "time": 116.92914750000006,
          "velocity": 0.47244094488188976,
          "duration": 0.7086615000000052
        },
        {
          "name": "G3",
          "midi": 55,
          "time": 116.92914750000006,
          "velocity": 0.5511811023622047,
          "duration": 0.7086615000000052
        }
      ],
      "controlChanges": {
        "7": [
          {
            "number": 7,
            "time": 0,
            "value": 1
          },
          {
            "number": 7,
            "time": 0,
            "value": 1
          },
          {
            "number": 7,
            "time": 0,
            "value": 0.7874015748031497
          },
          {
            "number": 7,
            "time": 0,
            "value": 1
          },
          {
            "number": 7,
            "time": 0,
            "value": 1
          },
          {
            "number": 7,
            "time": 11.338583999999999,
            "value": 0.6692913385826772
          },
          {
            "number": 7,
            "time": 36.85039799999999,
            "value": 0.6535433070866141
          },
          {
            "number": 7,
            "time": 36.89468934374999,
            "value": 0.6456692913385826
          },
          {
            "number": 7,
            "time": 36.938980687499985,
            "value": 0.6377952755905512
          },
          {
            "number": 7,
            "time": 36.98327203124998,
            "value": 0.6299212598425197
          },
          {
            "number": 7,
            "time": 37.02756337499998,
            "value": 0.6220472440944882
          },
          {
            "number": 7,
            "time": 37.071854718749975,
            "value": 0.6141732283464567
          },
          {
            "number": 7,
            "time": 37.11614606249997,
            "value": 0.6062992125984252
          },
          {
            "number": 7,
            "time": 37.16043740624997,
            "value": 0.5984251968503937
          },
          {
            "number": 7,
            "time": 37.204728749999965,
            "value": 0.5905511811023622
          },
          {
            "number": 7,
            "time": 37.24902009374996,
            "value": 0.5826771653543307
          },
          {
            "number": 7,
            "time": 37.29331143749996,
            "value": 0.5748031496062992
          },
          {
            "number": 7,
            "time": 37.337602781249956,
            "value": 0.5669291338582677
          },
          {
            "number": 7,
            "time": 37.38189412499995,
            "value": 0.5590551181102362
          },
          {
            "number": 7,
            "time": 37.42618546874995,
            "value": 0.5511811023622047
          },
          {
            "number": 7,
            "time": 37.470476812499946,
            "value": 0.5433070866141733
          },
          {
            "number": 7,
            "time": 37.51476815624994,
            "value": 0.5354330708661418
          },
          {
            "number": 7,
            "time": 37.55905949999994,
            "value": 0.5275590551181102
          },
          {
            "number": 7,
            "time": 37.603350843749936,
            "value": 0.5196850393700787
          },
          {
            "number": 7,
            "time": 37.64764218749993,
            "value": 0.5118110236220472
          },
          {
            "number": 7,
            "time": 37.69193353124993,
            "value": 0.5039370078740157
          },
          {
            "number": 7,
            "time": 37.73622487499993,
            "value": 0.49606299212598426
          },
          {
            "number": 7,
            "time": 37.78051621874992,
            "value": 0.4881889763779528
          },
          {
            "number": 7,
            "time": 37.82480756249992,
            "value": 0.48031496062992124
          },
          {
            "number": 7,
            "time": 37.86909890624992,
            "value": 0.47244094488188976
          },
          {
            "number": 7,
            "time": 37.913390249999914,
            "value": 0.4645669291338583
          },
          {
            "number": 7,
            "time": 37.95768159374991,
            "value": 0.4566929133858268
          },
          {
            "number": 7,
            "time": 38.00197293749991,
            "value": 0.44881889763779526
          },
          {
            "number": 7,
            "time": 38.046264281249904,
            "value": 0.4409448818897638
          },
          {
            "number": 7,
            "time": 38.0905556249999,
            "value": 0.4330708661417323
          },
          {
            "number": 7,
            "time": 38.1348469687499,
            "value": 0.4251968503937008
          },
          {
            "number": 7,
            "time": 38.179138312499894,
            "value": 0.41732283464566927
          },
          {
            "number": 7,
            "time": 38.22342965624989,
            "value": 0.4094488188976378
          },
          {
            "number": 7,
            "time": 49.13386399999989,
            "value": 0.6692913385826772
          },
          {
            "number": 7,
            "time": 60.47244799999997,
            "value": 0.6535433070866141
          },
          {
            "number": 7,
            "time": 60.49643914453122,
            "value": 0.6456692913385826
          },
          {
            "number": 7,
            "time": 60.519968920898414,
            "value": 0.6377952755905512
          },
          {
            "number": 7,
            "time": 60.543498697265605,
            "value": 0.6299212598425197
          },
          {
            "number": 7,
            "time": 60.567028473632796,
            "value": 0.6220472440944882
          },
          {
            "number": 7,
            "time": 60.59055824999999,
            "value": 0.6141732283464567
          },
          {
            "number": 7,
            "time": 60.61454939453124,
            "value": 0.6062992125984252
          },
          {
            "number": 7,
            "time": 60.63807917089843,
            "value": 0.5984251968503937
          },
          {
            "number": 7,
            "time": 60.66160894726562,
            "value": 0.5905511811023622
          },
          {
            "number": 7,
            "time": 60.68513872363281,
            "value": 0.5826771653543307
          },
          {
            "number": 7,
            "time": 60.7086685,
            "value": 0.5748031496062992
          },
          {
            "number": 7,
            "time": 60.73265964453125,
            "value": 0.5669291338582677
          },
          {
            "number": 7,
            "time": 60.756189420898444,
            "value": 0.5590551181102362
          },
          {
            "number": 7,
            "time": 60.779719197265635,
            "value": 0.5511811023622047
          },
          {
            "number": 7,
            "time": 60.803248973632826,
            "value": 0.5433070866141733
          },
          {
            "number": 7,
            "time": 60.82677875000002,
            "value": 0.5354330708661418
          },
          {
            "number": 7,
            "time": 60.85076989453127,
            "value": 0.5275590551181102
          },
          {
            "number": 7,
            "time": 60.87429967089846,
            "value": 0.5196850393700787
          },
          {
            "number": 7,
            "time": 60.89782944726565,
            "value": 0.5118110236220472
          },
          {
            "number": 7,
            "time": 60.92135922363284,
            "value": 0.5039370078740157
          },
          {
            "number": 7,
            "time": 71.81103200000003,
            "value": 0.6692913385826772
          }
        ],
        "32": [
          {
            "number": 32,
            "time": 0,
            "value": 0
          },
          {
            "number": 32,
            "time": 0,
            "value": 0
          },
          {
            "number": 32,
            "time": 0,
            "value": 0
          },
          {
            "number": 32,
            "time": 0,
            "value": 0
          }
        ]
      },
      "id": 8,
      "name": "Untitled",
      "instrumentNumber": 48,
      "instrument": "string ensemble 1",
      "instrumentFamily": "ensemble",
      "channelNumber": 7,
      "isPercussion": false
    },
    {
      "startTime": 0,
      "duration": 117.41681364941535,
      "length": 3702,
      "notes": [
        {
          "name": "E2",
          "midi": 40,
          "time": 0,
          "velocity": 0.3937007874015748,
          "duration": 0.0152251494140625
        },
        {
          "name": "D4",
          "midi": 62,
          "time": 0,
          "velocity": 0.6299212598425197,
          "duration": 0.0152251494140625
        },
        {
          "name": "F#3",
          "midi": 54,
          "time": 0,
          "velocity": 0.3937007874015748,
          "duration": 0.0152251494140625
        },
        {
          "name": "D2",
          "midi": 38,
          "time": 0,
          "velocity": 0.3937007874015748,
          "duration": 0.0152251494140625
        },
        {
          "name": "G#2",
          "midi": 44,
          "time": 0,
          "velocity": 0.3937007874015748,
          "duration": 0.0152251494140625
        },
        {
          "name": "E3",
          "midi": 52,
          "time": 0,
          "velocity": 0.3937007874015748,
          "duration": 0.0152251494140625
        },
        {
          "name": "C2",
          "midi": 36,
          "time": 0,
          "velocity": 0.47244094488188976,
          "duration": 0.0152251494140625
        },
        {
          "name": "G#2",
          "midi": 44,
          "time": 1.4173229999999999,
          "velocity": 0.3937007874015748,
          "duration": 0.0152251494140625
        },
        {
          "name": "D4",
          "midi": 62,
          "time": 1.4173229999999999,
          "velocity": 0.6299212598425197,
          "duration": 0.0152251494140625
        },
        {
          "name": "F#3",
          "midi": 54,
          "time": 1.4173229999999999,
          "velocity": 0.3937007874015748,
          "duration": 0.0152251494140625
        },
        {
          "name": "D2",
          "midi": 38,
          "time": 1.4173229999999999,
          "velocity": 0.3937007874015748,
          "duration": 0.0152251494140625
        },
        {
          "name": "E2",
          "midi": 40,
          "time": 1.4173229999999999,
          "velocity": 0.3937007874015748,
          "duration": 0.0152251494140625
        },
        {
          "name": "E3",
          "midi": 52,
          "time": 1.4173229999999999,
          "velocity": 0.3937007874015748,
          "duration": 0.0152251494140625
        },
        {
          "name": "C2",
          "midi": 36,
          "time": 1.4173229999999999,
          "velocity": 0.47244094488188976,
          "duration": 0.0152251494140625
        },
        {
          "name": "G#2",
          "midi": 44,
          "time": 2.8346459999999998,
          "velocity": 0.3937007874015748,
          "duration": 0.0152251494140625
        },
        {
          "name": "D4",
          "midi": 62,
          "time": 2.8346459999999998,
          "velocity": 0.6299212598425197,
          "duration": 0.0152251494140625
        },
        {
          "name": "F#3",
          "midi": 54,
          "time": 2.8346459999999998,
          "velocity": 0.3937007874015748,
          "duration": 0.0152251494140625
        },
        {
          "name": "D2",
          "midi": 38,
          "time": 2.8346459999999998,
          "velocity": 0.3937007874015748,
          "duration": 0.0152251494140625
        },
        {
          "name": "E2",
          "midi": 40,
          "time": 2.8346459999999998,
          "velocity": 0.3937007874015748,
          "duration": 0.0152251494140625
        },
        {
          "name": "E3",
          "midi": 52,
          "time": 2.8346459999999998,
          "velocity": 0.3937007874015748,
          "duration": 0.0152251494140625
        },
        {
          "name": "C2",
          "midi": 36,
          "time": 2.8346459999999998,
          "velocity": 0.47244094488188976,
          "duration": 0.0152251494140625
        },
        {
          "name": "E2",
          "midi": 40,
          "time": 4.251969,
          "velocity": 0.3937007874015748,
          "duration": 0.0152251494140625
        },
        {
          "name": "D4",
          "midi": 62,
          "time": 4.251969,
          "velocity": 0.6299212598425197,
          "duration": 0.0152251494140625
        },
        {
          "name": "F#3",
          "midi": 54,
          "time": 4.251969,
          "velocity": 0.3937007874015748,
          "duration": 0.0152251494140625
        },
        {
          "name": "D2",
          "midi": 38,
          "time": 4.251969,
          "velocity": 0.3937007874015748,
          "duration": 0.0152251494140625
        },
        {
          "name": "G#2",
          "midi": 44,
          "time": 4.251969,
          "velocity": 0.3937007874015748,
          "duration": 0.0152251494140625
        },
        {
          "name": "E3",
          "midi": 52,
          "time": 4.251969,
          "velocity": 0.3937007874015748,
          "duration": 0.0152251494140625
        },
        {
          "name": "C2",
          "midi": 36,
          "time": 4.251969,
          "velocity": 0.47244094488188976,
          "duration": 0.0152251494140625
        },
        {
          "name": "G#2",
          "midi": 44,
          "time": 4.9606305,
          "velocity": 0.3937007874015748,
          "duration": 0.0152251494140625
        },
        {
          "name": "D4",
          "midi": 62,
          "time": 4.9606305,
          "velocity": 0.6299212598425197,
          "duration": 0.0152251494140625
        },
        {
          "name": "F#3",
          "midi": 54,
          "time": 4.9606305,
          "velocity": 0.3937007874015748,
          "duration": 0.0152251494140625
        },
        {
          "name": "D2",
          "midi": 38,
          "time": 4.9606305,
          "velocity": 0.3937007874015748,
          "duration": 0.0152251494140625
        },
        {
          "name": "E2",
          "midi": 40,
          "time": 4.9606305,
          "velocity": 0.3937007874015748,
          "duration": 0.0152251494140625
        },
        {
          "name": "E3",
          "midi": 52,
          "time": 4.9606305,
          "velocity": 0.3937007874015748,
          "duration": 0.0152251494140625
        },
        {
          "name": "C2",
          "midi": 36,
          "time": 4.9606305,
          "velocity": 0.47244094488188976,
          "duration": 0.0152251494140625
        },
        {
          "name": "E2",
          "midi": 40,
          "time": 5.6692919999999996,
          "velocity": 0.3937007874015748,
          "duration": 0.0152251494140625
        },
        {
          "name": "D4",
          "midi": 62,
          "time": 5.6692919999999996,
          "velocity": 0.6299212598425197,
          "duration": 0.0152251494140625
        },
        {
          "name": "F#3",
          "midi": 54,
          "time": 5.6692919999999996,
          "velocity": 0.3937007874015748,
          "duration": 0.0152251494140625
        },
        {
          "name": "D2",
          "midi": 38,
          "time": 5.6692919999999996,
          "velocity": 0.3937007874015748,
          "duration": 0.0152251494140625
        },
        {
          "name": "G#2",
          "midi": 44,
          "time": 5.6692919999999996,
          "velocity": 0.3937007874015748,
          "duration": 0.0152251494140625
        },
        {
          "name": "E3",
          "midi": 52,
          "time": 5.6692919999999996,
          "velocity": 0.3937007874015748,
          "duration": 0.0152251494140625
        },
        {
          "name": "C2",
          "midi": 36,
          "time": 5.6692919999999996,
          "velocity": 0.47244094488188976,
          "duration": 0.0152251494140625
        },
        {
          "name": "G#2",
          "midi": 44,
          "time": 7.086614999999999,
          "velocity": 0.3937007874015748,
          "duration": 0.0152251494140625
        },
        {
          "name": "D4",
          "midi": 62,
          "time": 7.086614999999999,
          "velocity": 0.6299212598425197,
          "duration": 0.0152251494140625
        },
        {
          "name": "F#3",
          "midi": 54,
          "time": 7.086614999999999,
          "velocity": 0.3937007874015748,
          "duration": 0.0152251494140625
        },
        {
          "name": "D2",
          "midi": 38,
          "time": 7.086614999999999,
          "velocity": 0.3937007874015748,
          "duration": 0.0152251494140625
        },
        {
          "name": "E2",
          "midi": 40,
          "time": 7.086614999999999,
          "velocity": 0.3937007874015748,
          "duration": 0.0152251494140625
        },
        {
          "name": "E3",
          "midi": 52,
          "time": 7.086614999999999,
          "velocity": 0.3937007874015748,
          "duration": 0.0152251494140625
        },
        {
          "name": "C2",
          "midi": 36,
          "time": 7.086614999999999,
          "velocity": 0.47244094488188976,
          "duration": 0.0152251494140625
        },
        {
          "name": "E2",
          "midi": 40,
          "time": 8.503938,
          "velocity": 0.3937007874015748,
          "duration": 0.0152251494140625
        },
        {
          "name": "D4",
          "midi": 62,
          "time": 8.503938,
          "velocity": 0.6299212598425197,
          "duration": 0.0152251494140625
        },
        {
          "name": "F#3",
          "midi": 54,
          "time": 8.503938,
          "velocity": 0.3937007874015748,
          "duration": 0.0152251494140625
        },
        {
          "name": "D2",
          "midi": 38,
          "time": 8.503938,
          "velocity": 0.3937007874015748,
          "duration": 0.0152251494140625
        },
        {
          "name": "G#2",
          "midi": 44,
          "time": 8.503938,
          "velocity": 0.3937007874015748,
          "duration": 0.0152251494140625
        },
        {
          "name": "E3",
          "midi": 52,
          "time": 8.503938,
          "velocity": 0.3937007874015748,
          "duration": 0.0152251494140625
        },
        {
          "name": "C2",
          "midi": 36,
          "time": 8.503938,
          "velocity": 0.47244094488188976,
          "duration": 0.0152251494140625
        },
        {
          "name": "G#2",
          "midi": 44,
          "time": 9.921261,
          "velocity": 0.3937007874015748,
          "duration": 0.0152251494140625
        },
        {
          "name": "D4",
          "midi": 62,
          "time": 9.921261,
          "velocity": 0.6299212598425197,
          "duration": 0.0152251494140625
        },
        {
          "name": "F#3",
          "midi": 54,
          "time": 9.921261,
          "velocity": 0.3937007874015748,
          "duration": 0.0152251494140625
        },
        {
          "name": "D2",
          "midi": 38,
          "time": 9.921261,
          "velocity": 0.3937007874015748,
          "duration": 0.0152251494140625
        },
        {
          "name": "E2",
          "midi": 40,
          "time": 9.921261,
          "velocity": 0.3937007874015748,
          "duration": 0.0152251494140625
        },
        {
          "name": "E3",
          "midi": 52,
          "time": 9.921261,
          "velocity": 0.3937007874015748,
          "duration": 0.0152251494140625
        },
        {
          "name": "C2",
          "midi": 36,
          "time": 9.921261,
          "velocity": 0.47244094488188976,
          "duration": 0.0152251494140625
        },
        {
          "name": "E2",
          "midi": 40,
          "time": 10.6299225,
          "velocity": 0.3937007874015748,
          "duration": 0.0152251494140625
        },
        {
          "name": "D4",
          "midi": 62,
          "time": 10.6299225,
          "velocity": 0.6299212598425197,
          "duration": 0.0152251494140625
        },
        {
          "name": "F#3",
          "midi": 54,
          "time": 10.6299225,
          "velocity": 0.3937007874015748,
          "duration": 0.0152251494140625
        },
        {
          "name": "D2",
          "midi": 38,
          "time": 10.6299225,
          "velocity": 0.3937007874015748,
          "duration": 0.0152251494140625
        },
        {
          "name": "G#2",
          "midi": 44,
          "time": 10.6299225,
          "velocity": 0.3937007874015748,
          "duration": 0.0152251494140625
        },
        {
          "name": "E3",
          "midi": 52,
          "time": 10.6299225,
          "velocity": 0.3937007874015748,
          "duration": 0.0152251494140625
        },
        {
          "name": "C2",
          "midi": 36,
          "time": 10.6299225,
          "velocity": 0.47244094488188976,
          "duration": 0.0152251494140625
        },
        {
          "name": "D2",
          "midi": 38,
          "time": 11.338583999999999,
          "velocity": 0.3937007874015748,
          "duration": 0.0152251494140625
        },
        {
          "name": "E2",
          "midi": 40,
          "time": 11.338583999999999,
          "velocity": 0.6299212598425197,
          "duration": 0.0152251494140625
        },
        {
          "name": "D4",
          "midi": 62,
          "time": 11.338583999999999,
          "velocity": 0.6299212598425197,
          "duration": 0.0152251494140625
        },
        {
          "name": "F#3",
          "midi": 54,
          "time": 11.338583999999999,
          "velocity": 0.47244094488188976,
          "duration": 0.0152251494140625
        },
        {
          "name": "G#2",
          "midi": 44,
          "time": 11.338583999999999,
          "velocity": 0.3937007874015748,
          "duration": 0.0152251494140625
        },
        {
          "name": "E3",
          "midi": 52,
          "time": 11.338583999999999,
          "velocity": 0.3937007874015748,
          "duration": 0.0152251494140625
        },
        {
          "name": "C2",
          "midi": 36,
          "time": 11.338583999999999,
          "velocity": 0.3937007874015748,
          "duration": 0.0152251494140625
        },
        {
          "name": "F#3",
          "midi": 54,
          "time": 11.45669425,
          "velocity": 0.31496062992125984,
          "duration": 0.0152251494140625
        },
        {
          "name": "G#2",
          "midi": 44,
          "time": 11.45669425,
          "velocity": 0.31496062992125984,
          "duration": 0.0152251494140625
        },
        {
          "name": "E2",
          "midi": 40,
          "time": 11.45669425,
          "velocity": 0.3937007874015748,
          "duration": 0.0152251494140625
        },
        {
          "name": "D4",
          "midi": 62,
          "time": 11.45669425,
          "velocity": 0.3937007874015748,
          "duration": 0.0152251494140625
        },
        {
          "name": "E2",
          "midi": 40,
          "time": 11.500062857421876,
          "velocity": 0.3937007874015748,
          "duration": 0.0152251494140625
        },
        {
          "name": "D4",
          "midi": 62,
          "time": 11.500062857421876,
          "velocity": 0.3937007874015748,
          "duration": 0.0152251494140625
        },
        {
          "name": "E2",
          "midi": 40,
          "time": 11.543431464843751,
          "velocity": 0.3937007874015748,
          "duration": 0.0152251494140625
        },
        {
          "name": "D4",
          "midi": 62,
          "time": 11.543431464843751,
          "velocity": 0.3937007874015748,
          "duration": 0.0152251494140625
        },
        {
          "name": "F#3",
          "midi": 54,
          "time": 11.5748045,
          "velocity": 0.47244094488188976,
          "duration": 0.0152251494140625
        },
        {
          "name": "G#2",
          "midi": 44,
          "time": 11.5748045,
          "velocity": 0.3937007874015748,
          "duration": 0.0152251494140625
        },
        {
          "name": "E2",
          "midi": 40,
          "time": 11.5748045,
          "velocity": 0.6299212598425197,
          "duration": 0.0152251494140625
        },
        {
          "name": "D4",
          "midi": 62,
          "time": 11.5748045,
          "velocity": 0.6299212598425197,
          "duration": 0.0152251494140625
        },
        {
          "name": "F#3",
          "midi": 54,
          "time": 11.692914750000002,
          "velocity": 0.31496062992125984,
          "duration": 0.0152251494140625
        },
        {
          "name": "G#2",
          "midi": 44,
          "time": 11.692914750000002,
          "velocity": 0.31496062992125984,
          "duration": 0.0152251494140625
        },
        {
          "name": "E2",
          "midi": 40,
          "time": 11.692914750000002,
          "velocity": 0.6299212598425197,
          "duration": 0.0152251494140625
        },
        {
          "name": "D4",
          "midi": 62,
          "time": 11.692914750000002,
          "velocity": 0.6299212598425197,
          "duration": 0.0152251494140625
        },
        {
          "name": "G#2",
          "midi": 44,
          "time": 11.811025000000003,
          "velocity": 0.3937007874015748,
          "duration": 0.0152251494140625
        },
        {
          "name": "F#3",
          "midi": 54,
          "time": 11.811025000000003,
          "velocity": 0.47244094488188976,
          "duration": 0.0152251494140625
        },
        {
          "name": "F#3",
          "midi": 54,
          "time": 11.929135250000003,
          "velocity": 0.31496062992125984,
          "duration": 0.0152251494140625
        },
        {
          "name": "G#2",
          "midi": 44,
          "time": 11.929135250000003,
          "velocity": 0.31496062992125984,
          "duration": 0.0152251494140625
        },
        {
          "name": "E2",
          "midi": 40,
          "time": 11.929135250000003,
          "velocity": 0.6299212598425197,
          "duration": 0.0152251494140625
        },
        {
          "name": "D4",
          "midi": 62,
          "time": 11.929135250000003,
          "velocity": 0.6299212598425197,
          "duration": 0.0152251494140625
        },
        {
          "name": "F#3",
          "midi": 54,
          "time": 12.047245500000004,
          "velocity": 0.47244094488188976,
          "duration": 0.0152251494140625
        },
        {
          "name": "G#2",
          "midi": 44,
          "time": 12.047245500000004,
          "velocity": 0.3937007874015748,
          "duration": 0.0152251494140625
        },
        {
          "name": "E2",
          "midi": 40,
          "time": 12.047245500000004,
          "velocity": 0.6299212598425197,
          "duration": 0.0152251494140625
        },
        {
          "name": "D4",
          "midi": 62,
          "time": 12.047245500000004,
          "velocity": 0.6299212598425197,
          "duration": 0.0152251494140625
        },
        {
          "name": "F#3",
          "midi": 54,
          "time": 12.165355750000005,
          "velocity": 0.31496062992125984,
          "duration": 0.0152251494140625
        },
        {
          "name": "G#2",
          "midi": 44,
          "time": 12.165355750000005,
          "velocity": 0.31496062992125984,
          "duration": 0.0152251494140625
        },
        {
          "name": "E2",
          "midi": 40,
          "time": 12.165355750000005,
          "velocity": 0.3937007874015748,
          "duration": 0.0152251494140625
        },
        {
          "name": "D4",
          "midi": 62,
          "time": 12.165355750000005,
          "velocity": 0.3937007874015748,
          "duration": 0.0152251494140625
        },
        {
          "name": "E2",
          "midi": 40,
          "time": 12.22164266601563,
          "velocity": 0.3937007874015748,
          "duration": 0.0152251494140625
        },
        {
          "name": "D4",
          "midi": 62,
          "time": 12.22164266601563,
          "velocity": 0.3937007874015748,
          "duration": 0.0152251494140625
        },
        {
          "name": "E2",
          "midi": 40,
          "time": 12.26039759179688,
          "velocity": 0.3937007874015748,
          "duration": 0.0152251494140625
        },
        {
          "name": "D4",
          "midi": 62,
          "time": 12.26039759179688,
          "velocity": 0.3937007874015748,
          "duration": 0.0152251494140625
        },
        {
          "name": "F#3",
          "midi": 54,
          "time": 12.283466000000004,
          "velocity": 0.47244094488188976,
          "duration": 0.0152251494140625
        },
        {
          "name": "G#2",
          "midi": 44,
          "time": 12.283466000000004,
          "velocity": 0.3937007874015748,
          "duration": 0.0152251494140625
        },
        {
          "name": "E2",
          "midi": 40,
          "time": 12.283466000000004,
          "velocity": 0.6299212598425197,
          "duration": 0.0152251494140625
        },
        {
          "name": "D4",
          "midi": 62,
          "time": 12.283466000000004,
          "velocity": 0.6299212598425197,
          "duration": 0.0152251494140625
        },
        {
          "name": "G#2",
          "midi": 44,
          "time": 12.401576250000005,
          "velocity": 0.31496062992125984,
          "duration": 0.0152251494140625
        },
        {
          "name": "F#3",
          "midi": 54,
          "time": 12.401576250000005,
          "velocity": 0.31496062992125984,
          "duration": 0.0152251494140625
        },
        {
          "name": "F#3",
          "midi": 54,
          "time": 12.519686500000006,
          "velocity": 0.47244094488188976,
          "duration": 0.0152251494140625
        },
        {
          "name": "G#2",
          "midi": 44,
          "time": 12.519686500000006,
          "velocity": 0.3937007874015748,
          "duration": 0.0152251494140625
        },
        {
          "name": "E2",
          "midi": 40,
          "time": 12.519686500000006,
          "velocity": 0.6299212598425197,
          "duration": 0.0152251494140625
        },
        {
          "name": "D4",
          "midi": 62,
          "time": 12.519686500000006,
          "velocity": 0.6299212598425197,
          "duration": 0.0152251494140625
        },
        {
          "name": "G#2",
          "midi": 44,
          "time": 12.637796750000007,
          "velocity": 0.31496062992125984,
          "duration": 0.0152251494140625
        },
        {
          "name": "F#3",
          "midi": 54,
          "time": 12.637796750000007,
          "velocity": 0.31496062992125984,
          "duration": 0.0152251494140625
        },
        {
          "name": "D2",
          "midi": 38,
          "time": 12.755907000000008,
          "velocity": 0.3937007874015748,
          "duration": 0.0152251494140625
        },
        {
          "name": "E2",
          "midi": 40,
          "time": 12.755907000000008,
          "velocity": 0.6299212598425197,
          "duration": 0.0152251494140625
        },
        {
          "name": "D4",
          "midi": 62,
          "time": 12.755907000000008,
          "velocity": 0.6299212598425197,
          "duration": 0.0152251494140625
        },
        {
          "name": "F#3",
          "midi": 54,
          "time": 12.755907000000008,
          "velocity": 0.47244094488188976,
          "duration": 0.0152251494140625
        },
        {
          "name": "G#2",
          "midi": 44,
          "time": 12.755907000000008,
          "velocity": 0.3937007874015748,
          "duration": 0.0152251494140625
        },
        {
          "name": "E3",
          "midi": 52,
          "time": 12.755907000000008,
          "velocity": 0.3937007874015748,
          "duration": 0.0152251494140625
        },
        {
          "name": "C2",
          "midi": 36,
          "time": 12.755907000000008,
          "velocity": 0.3937007874015748,
          "duration": 0.0152251494140625
        },
        {
          "name": "F#3",
          "midi": 54,
          "time": 12.874017250000009,
          "velocity": 0.31496062992125984,
          "duration": 0.0152251494140625
        },
        {
          "name": "G#2",
          "midi": 44,
          "time": 12.874017250000009,
          "velocity": 0.31496062992125984,
          "duration": 0.0152251494140625
        },
        {
          "name": "E2",
          "midi": 40,
          "time": 12.874017250000009,
          "velocity": 0.3937007874015748,
          "duration": 0.0152251494140625
        },
        {
          "name": "D4",
          "midi": 62,
          "time": 12.874017250000009,
          "velocity": 0.3937007874015748,
          "duration": 0.0152251494140625
        },
        {
          "name": "E2",
          "midi": 40,
          "time": 12.917385857421884,
          "velocity": 0.3937007874015748,
          "duration": 0.0152251494140625
        },
        {
          "name": "D4",
          "midi": 62,
          "time": 12.917385857421884,
          "velocity": 0.3937007874015748,
          "duration": 0.0152251494140625
        },
        {
          "name": "E2",
          "midi": 40,
          "time": 12.96075446484376,
          "velocity": 0.3937007874015748,
          "duration": 0.0152251494140625
        },
        {
          "name": "D4",
          "midi": 62,
          "time": 12.96075446484376,
          "velocity": 0.3937007874015748,
          "duration": 0.0152251494140625
        },
        {
          "name": "F#3",
          "midi": 54,
          "time": 12.99212750000001,
          "velocity": 0.47244094488188976,
          "duration": 0.0152251494140625
        },
        {
          "name": "G#2",
          "midi": 44,
          "time": 12.99212750000001,
          "velocity": 0.3937007874015748,
          "duration": 0.0152251494140625
        },
        {
          "name": "E2",
          "midi": 40,
          "time": 12.99212750000001,
          "velocity": 0.6299212598425197,
          "duration": 0.0152251494140625
        },
        {
          "name": "D4",
          "midi": 62,
          "time": 12.99212750000001,
          "velocity": 0.6299212598425197,
          "duration": 0.0152251494140625
        },
        {
          "name": "F#3",
          "midi": 54,
          "time": 13.11023775000001,
          "velocity": 0.31496062992125984,
          "duration": 0.0152251494140625
        },
        {
          "name": "G#2",
          "midi": 44,
          "time": 13.11023775000001,
          "velocity": 0.31496062992125984,
          "duration": 0.0152251494140625
        },
        {
          "name": "E2",
          "midi": 40,
          "time": 13.11023775000001,
          "velocity": 0.6299212598425197,
          "duration": 0.0152251494140625
        },
        {
          "name": "D4",
          "midi": 62,
          "time": 13.11023775000001,
          "velocity": 0.6299212598425197,
          "duration": 0.0152251494140625
        },
        {
          "name": "G#2",
          "midi": 44,
          "time": 13.228348000000011,
          "velocity": 0.3937007874015748,
          "duration": 0.0152251494140625
        },
        {
          "name": "F#3",
          "midi": 54,
          "time": 13.228348000000011,
          "velocity": 0.47244094488188976,
          "duration": 0.0152251494140625
        },
        {
          "name": "F#3",
          "midi": 54,
          "time": 13.346458250000012,
          "velocity": 0.31496062992125984,
          "duration": 0.0152251494140625
        },
        {
          "name": "G#2",
          "midi": 44,
          "time": 13.346458250000012,
          "velocity": 0.31496062992125984,
          "duration": 0.0152251494140625
        },
        {
          "name": "E2",
          "midi": 40,
          "time": 13.346458250000012,
          "velocity": 0.6299212598425197,
          "duration": 0.0152251494140625
        },
        {
          "name": "D4",
          "midi": 62,
          "time": 13.346458250000012,
          "velocity": 0.6299212598425197,
          "duration": 0.0152251494140625
        },
        {
          "name": "F#3",
          "midi": 54,
          "time": 13.464568500000013,
          "velocity": 0.47244094488188976,
          "duration": 0.0152251494140625
        },
        {
          "name": "G#2",
          "midi": 44,
          "time": 13.464568500000013,
          "velocity": 0.3937007874015748,
          "duration": 0.0152251494140625
        },
        {
          "name": "E2",
          "midi": 40,
          "time": 13.464568500000013,
          "velocity": 0.6299212598425197,
          "duration": 0.0152251494140625
        },
        {
          "name": "D4",
          "midi": 62,
          "time": 13.464568500000013,
          "velocity": 0.6299212598425197,
          "duration": 0.0152251494140625
        },
        {
          "name": "F#3",
          "midi": 54,
          "time": 13.582678750000014,
          "velocity": 0.31496062992125984,
          "duration": 0.0152251494140625
        },
        {
          "name": "G#2",
          "midi": 44,
          "time": 13.582678750000014,
          "velocity": 0.31496062992125984,
          "duration": 0.0152251494140625
        },
        {
          "name": "E2",
          "midi": 40,
          "time": 13.582678750000014,
          "velocity": 0.3937007874015748,
          "duration": 0.0152251494140625
        },
        {
          "name": "D4",
          "midi": 62,
          "time": 13.582678750000014,
          "velocity": 0.3937007874015748,
          "duration": 0.0152251494140625
        },
        {
          "name": "E2",
          "midi": 40,
          "time": 13.638965666015638,
          "velocity": 0.3937007874015748,
          "duration": 0.0152251494140625
        },
        {
          "name": "D4",
          "midi": 62,
          "time": 13.638965666015638,
          "velocity": 0.3937007874015748,
          "duration": 0.0152251494140625
        },
        {
          "name": "E2",
          "midi": 40,
          "time": 13.677720591796888,
          "velocity": 0.3937007874015748,
          "duration": 0.0152251494140625
        },
        {
          "name": "D4",
          "midi": 62,
          "time": 13.677720591796888,
          "velocity": 0.3937007874015748,
          "duration": 0.0152251494140625
        },
        {
          "name": "F#3",
          "midi": 54,
          "time": 13.700789000000013,
          "velocity": 0.47244094488188976,
          "duration": 0.0152251494140625
        },
        {
          "name": "G#2",
          "midi": 44,
          "time": 13.700789000000013,
          "velocity": 0.3937007874015748,
          "duration": 0.0152251494140625
        },
        {
          "name": "E2",
          "midi": 40,
          "time": 13.700789000000013,
          "velocity": 0.6299212598425197,
          "duration": 0.0152251494140625
        },
        {
          "name": "D4",
          "midi": 62,
          "time": 13.700789000000013,
          "velocity": 0.6299212598425197,
          "duration": 0.0152251494140625
        },
        {
          "name": "G#2",
          "midi": 44,
          "time": 13.818899250000014,
          "velocity": 0.31496062992125984,
          "duration": 0.0152251494140625
        },
        {
          "name": "F#3",
          "midi": 54,
          "time": 13.818899250000014,
          "velocity": 0.31496062992125984,
          "duration": 0.0152251494140625
        },
        {
          "name": "F#3",
          "midi": 54,
          "time": 13.937009500000014,
          "velocity": 0.47244094488188976,
          "duration": 0.0152251494140625
        },
        {
          "name": "G#2",
          "midi": 44,
          "time": 13.937009500000014,
          "velocity": 0.3937007874015748,
          "duration": 0.0152251494140625
        },
        {
          "name": "E2",
          "midi": 40,
          "time": 13.937009500000014,
          "velocity": 0.6299212598425197,
          "duration": 0.0152251494140625
        },
        {
          "name": "D4",
          "midi": 62,
          "time": 13.937009500000014,
          "velocity": 0.6299212598425197,
          "duration": 0.0152251494140625
        },
        {
          "name": "G#2",
          "midi": 44,
          "time": 14.055119750000015,
          "velocity": 0.31496062992125984,
          "duration": 0.0152251494140625
        },
        {
          "name": "F#3",
          "midi": 54,
          "time": 14.055119750000015,
          "velocity": 0.31496062992125984,
          "duration": 0.0152251494140625
        },
        {
          "name": "D2",
          "midi": 38,
          "time": 14.173230000000016,
          "velocity": 0.3937007874015748,
          "duration": 0.0152251494140625
        },
        {
          "name": "E2",
          "midi": 40,
          "time": 14.173230000000016,
          "velocity": 0.6299212598425197,
          "duration": 0.0152251494140625
        },
        {
          "name": "D4",
          "midi": 62,
          "time": 14.173230000000016,
          "velocity": 0.6299212598425197,
          "duration": 0.0152251494140625
        },
        {
          "name": "F#3",
          "midi": 54,
          "time": 14.173230000000016,
          "velocity": 0.47244094488188976,
          "duration": 0.0152251494140625
        },
        {
          "name": "G#2",
          "midi": 44,
          "time": 14.173230000000016,
          "velocity": 0.3937007874015748,
          "duration": 0.0152251494140625
        },
        {
          "name": "E3",
          "midi": 52,
          "time": 14.173230000000016,
          "velocity": 0.3937007874015748,
          "duration": 0.0152251494140625
        },
        {
          "name": "C2",
          "midi": 36,
          "time": 14.173230000000016,
          "velocity": 0.3937007874015748,
          "duration": 0.0152251494140625
        },
        {
          "name": "F#3",
          "midi": 54,
          "time": 14.291340250000017,
          "velocity": 0.31496062992125984,
          "duration": 0.0152251494140625
        },
        {
          "name": "G#2",
          "midi": 44,
          "time": 14.291340250000017,
          "velocity": 0.31496062992125984,
          "duration": 0.0152251494140625
        },
        {
          "name": "E2",
          "midi": 40,
          "time": 14.291340250000017,
          "velocity": 0.3937007874015748,
          "duration": 0.0152251494140625
        },
        {
          "name": "D4",
          "midi": 62,
          "time": 14.291340250000017,
          "velocity": 0.3937007874015748,
          "duration": 0.0152251494140625
        },
        {
          "name": "E2",
          "midi": 40,
          "time": 14.334708857421893,
          "velocity": 0.3937007874015748,
          "duration": 0.0152251494140625
        },
        {
          "name": "D4",
          "midi": 62,
          "time": 14.334708857421893,
          "velocity": 0.3937007874015748,
          "duration": 0.0152251494140625
        },
        {
          "name": "E2",
          "midi": 40,
          "time": 14.378077464843768,
          "velocity": 0.3937007874015748,
          "duration": 0.0152251494140625
        },
        {
          "name": "D4",
          "midi": 62,
          "time": 14.378077464843768,
          "velocity": 0.3937007874015748,
          "duration": 0.0152251494140625
        },
        {
          "name": "F#3",
          "midi": 54,
          "time": 14.409450500000018,
          "velocity": 0.47244094488188976,
          "duration": 0.0152251494140625
        },
        {
          "name": "G#2",
          "midi": 44,
          "time": 14.409450500000018,
          "velocity": 0.3937007874015748,
          "duration": 0.0152251494140625
        },
        {
          "name": "E2",
          "midi": 40,
          "time": 14.409450500000018,
          "velocity": 0.6299212598425197,
          "duration": 0.0152251494140625
        },
        {
          "name": "D4",
          "midi": 62,
          "time": 14.409450500000018,
          "velocity": 0.6299212598425197,
          "duration": 0.0152251494140625
        },
        {
          "name": "F#3",
          "midi": 54,
          "time": 14.527560750000019,
          "velocity": 0.31496062992125984,
          "duration": 0.0152251494140625
        },
        {
          "name": "G#2",
          "midi": 44,
          "time": 14.527560750000019,
          "velocity": 0.31496062992125984,
          "duration": 0.0152251494140625
        },
        {
          "name": "E2",
          "midi": 40,
          "time": 14.527560750000019,
          "velocity": 0.6299212598425197,
          "duration": 0.0152251494140625
        },
        {
          "name": "D4",
          "midi": 62,
          "time": 14.527560750000019,
          "velocity": 0.6299212598425197,
          "duration": 0.0152251494140625
        },
        {
          "name": "G#2",
          "midi": 44,
          "time": 14.64567100000002,
          "velocity": 0.3937007874015748,
          "duration": 0.0152251494140625
        },
        {
          "name": "F#3",
          "midi": 54,
          "time": 14.64567100000002,
          "velocity": 0.47244094488188976,
          "duration": 0.0152251494140625
        },
        {
          "name": "F#3",
          "midi": 54,
          "time": 14.76378125000002,
          "velocity": 0.31496062992125984,
          "duration": 0.0152251494140625
        },
        {
          "name": "G#2",
          "midi": 44,
          "time": 14.76378125000002,
          "velocity": 0.31496062992125984,
          "duration": 0.0152251494140625
        },
        {
          "name": "E2",
          "midi": 40,
          "time": 14.76378125000002,
          "velocity": 0.6299212598425197,
          "duration": 0.0152251494140625
        },
        {
          "name": "D4",
          "midi": 62,
          "time": 14.76378125000002,
          "velocity": 0.6299212598425197,
          "duration": 0.0152251494140625
        },
        {
          "name": "F#3",
          "midi": 54,
          "time": 14.881891500000021,
          "velocity": 0.47244094488188976,
          "duration": 0.0152251494140625
        },
        {
          "name": "G#2",
          "midi": 44,
          "time": 14.881891500000021,
          "velocity": 0.3937007874015748,
          "duration": 0.0152251494140625
        },
        {
          "name": "E2",
          "midi": 40,
          "time": 14.881891500000021,
          "velocity": 0.6299212598425197,
          "duration": 0.0152251494140625
        },
        {
          "name": "D4",
          "midi": 62,
          "time": 14.881891500000021,
          "velocity": 0.6299212598425197,
          "duration": 0.0152251494140625
        },
        {
          "name": "F#3",
          "midi": 54,
          "time": 15.000001750000022,
          "velocity": 0.31496062992125984,
          "duration": 0.0152251494140625
        },
        {
          "name": "G#2",
          "midi": 44,
          "time": 15.000001750000022,
          "velocity": 0.31496062992125984,
          "duration": 0.0152251494140625
        },
        {
          "name": "E2",
          "midi": 40,
          "time": 15.000001750000022,
          "velocity": 0.3937007874015748,
          "duration": 0.0152251494140625
        },
        {
          "name": "D4",
          "midi": 62,
          "time": 15.000001750000022,
          "velocity": 0.3937007874015748,
          "duration": 0.0152251494140625
        },
        {
          "name": "E2",
          "midi": 40,
          "time": 15.056288666015647,
          "velocity": 0.3937007874015748,
          "duration": 0.0152251494140625
        },
        {
          "name": "D4",
          "midi": 62,
          "time": 15.056288666015647,
          "velocity": 0.3937007874015748,
          "duration": 0.0152251494140625
        },
        {
          "name": "E2",
          "midi": 40,
          "time": 15.095043591796896,
          "velocity": 0.3937007874015748,
          "duration": 0.0152251494140625
        },
        {
          "name": "D4",
          "midi": 62,
          "time": 15.095043591796896,
          "velocity": 0.3937007874015748,
          "duration": 0.0152251494140625
        },
        {
          "name": "F#3",
          "midi": 54,
          "time": 15.118112000000021,
          "velocity": 0.47244094488188976,
          "duration": 0.0152251494140625
        },
        {
          "name": "G#2",
          "midi": 44,
          "time": 15.118112000000021,
          "velocity": 0.3937007874015748,
          "duration": 0.0152251494140625
        },
        {
          "name": "E2",
          "midi": 40,
          "time": 15.118112000000021,
          "velocity": 0.6299212598425197,
          "duration": 0.0152251494140625
        },
        {
          "name": "D4",
          "midi": 62,
          "time": 15.118112000000021,
          "velocity": 0.6299212598425197,
          "duration": 0.0152251494140625
        },
        {
          "name": "G#2",
          "midi": 44,
          "time": 15.236222250000022,
          "velocity": 0.31496062992125984,
          "duration": 0.0152251494140625
        },
        {
          "name": "F#3",
          "midi": 54,
          "time": 15.236222250000022,
          "velocity": 0.31496062992125984,
          "duration": 0.0152251494140625
        },
        {
          "name": "F#3",
          "midi": 54,
          "time": 15.354332500000023,
          "velocity": 0.47244094488188976,
          "duration": 0.0152251494140625
        },
        {
          "name": "G#2",
          "midi": 44,
          "time": 15.354332500000023,
          "velocity": 0.3937007874015748,
          "duration": 0.0152251494140625
        },
        {
          "name": "E2",
          "midi": 40,
          "time": 15.354332500000023,
          "velocity": 0.6299212598425197,
          "duration": 0.0152251494140625
        },
        {
          "name": "D4",
          "midi": 62,
          "time": 15.354332500000023,
          "velocity": 0.6299212598425197,
          "duration": 0.0152251494140625
        },
        {
          "name": "G#2",
          "midi": 44,
          "time": 15.472442750000024,
          "velocity": 0.31496062992125984,
          "duration": 0.0152251494140625
        },
        {
          "name": "F#3",
          "midi": 54,
          "time": 15.472442750000024,
          "velocity": 0.31496062992125984,
          "duration": 0.0152251494140625
        },
        {
          "name": "D2",
          "midi": 38,
          "time": 15.590553000000025,
          "velocity": 0.3937007874015748,
          "duration": 0.0152251494140625
        },
        {
          "name": "E2",
          "midi": 40,
          "time": 15.590553000000025,
          "velocity": 0.6299212598425197,
          "duration": 0.0152251494140625
        },
        {
          "name": "D4",
          "midi": 62,
          "time": 15.590553000000025,
          "velocity": 0.6299212598425197,
          "duration": 0.0152251494140625
        },
        {
          "name": "F#3",
          "midi": 54,
          "time": 15.590553000000025,
          "velocity": 0.47244094488188976,
          "duration": 0.0152251494140625
        },
        {
          "name": "G#2",
          "midi": 44,
          "time": 15.590553000000025,
          "velocity": 0.3937007874015748,
          "duration": 0.0152251494140625
        },
        {
          "name": "E3",
          "midi": 52,
          "time": 15.590553000000025,
          "velocity": 0.3937007874015748,
          "duration": 0.0152251494140625
        },
        {
          "name": "C2",
          "midi": 36,
          "time": 15.590553000000025,
          "velocity": 0.3937007874015748,
          "duration": 0.0152251494140625
        },
        {
          "name": "F#3",
          "midi": 54,
          "time": 15.708663250000026,
          "velocity": 0.31496062992125984,
          "duration": 0.0152251494140625
        },
        {
          "name": "G#2",
          "midi": 44,
          "time": 15.708663250000026,
          "velocity": 0.31496062992125984,
          "duration": 0.0152251494140625
        },
        {
          "name": "E2",
          "midi": 40,
          "time": 15.708663250000026,
          "velocity": 0.3937007874015748,
          "duration": 0.0152251494140625
        },
        {
          "name": "D4",
          "midi": 62,
          "time": 15.708663250000026,
          "velocity": 0.3937007874015748,
          "duration": 0.0152251494140625
        },
        {
          "name": "E2",
          "midi": 40,
          "time": 15.752031857421901,
          "velocity": 0.3937007874015748,
          "duration": 0.0152251494140625
        },
        {
          "name": "D4",
          "midi": 62,
          "time": 15.752031857421901,
          "velocity": 0.3937007874015748,
          "duration": 0.0152251494140625
        },
        {
          "name": "E2",
          "midi": 40,
          "time": 15.795400464843777,
          "velocity": 0.3937007874015748,
          "duration": 0.0152251494140625
        },
        {
          "name": "D4",
          "midi": 62,
          "time": 15.795400464843777,
          "velocity": 0.3937007874015748,
          "duration": 0.0152251494140625
        },
        {
          "name": "F#3",
          "midi": 54,
          "time": 15.826773500000026,
          "velocity": 0.47244094488188976,
          "duration": 0.0152251494140625
        },
        {
          "name": "G#2",
          "midi": 44,
          "time": 15.826773500000026,
          "velocity": 0.3937007874015748,
          "duration": 0.0152251494140625
        },
        {
          "name": "E2",
          "midi": 40,
          "time": 15.826773500000026,
          "velocity": 0.6299212598425197,
          "duration": 0.0152251494140625
        },
        {
          "name": "D4",
          "midi": 62,
          "time": 15.826773500000026,
          "velocity": 0.6299212598425197,
          "duration": 0.0152251494140625
        },
        {
          "name": "F#3",
          "midi": 54,
          "time": 15.944883750000027,
          "velocity": 0.31496062992125984,
          "duration": 0.0152251494140625
        },
        {
          "name": "G#2",
          "midi": 44,
          "time": 15.944883750000027,
          "velocity": 0.31496062992125984,
          "duration": 0.0152251494140625
        },
        {
          "name": "E2",
          "midi": 40,
          "time": 15.944883750000027,
          "velocity": 0.6299212598425197,
          "duration": 0.0152251494140625
        },
        {
          "name": "D4",
          "midi": 62,
          "time": 15.944883750000027,
          "velocity": 0.6299212598425197,
          "duration": 0.0152251494140625
        },
        {
          "name": "G#2",
          "midi": 44,
          "time": 16.062994000000028,
          "velocity": 0.3937007874015748,
          "duration": 0.015225149414060724
        },
        {
          "name": "F#3",
          "midi": 54,
          "time": 16.062994000000028,
          "velocity": 0.47244094488188976,
          "duration": 0.015225149414060724
        },
        {
          "name": "F#3",
          "midi": 54,
          "time": 16.181104250000026,
          "velocity": 0.31496062992125984,
          "duration": 0.015225149414064276
        },
        {
          "name": "G#2",
          "midi": 44,
          "time": 16.181104250000026,
          "velocity": 0.31496062992125984,
          "duration": 0.015225149414064276
        },
        {
          "name": "E2",
          "midi": 40,
          "time": 16.181104250000026,
          "velocity": 0.6299212598425197,
          "duration": 0.015225149414064276
        },
        {
          "name": "D4",
          "midi": 62,
          "time": 16.181104250000026,
          "velocity": 0.6299212598425197,
          "duration": 0.015225149414064276
        },
        {
          "name": "D2",
          "midi": 38,
          "time": 16.299214500000026,
          "velocity": 0.3937007874015748,
          "duration": 0.015225149414064276
        },
        {
          "name": "E2",
          "midi": 40,
          "time": 16.299214500000026,
          "velocity": 0.6299212598425197,
          "duration": 0.015225149414064276
        },
        {
          "name": "D4",
          "midi": 62,
          "time": 16.299214500000026,
          "velocity": 0.6299212598425197,
          "duration": 0.015225149414064276
        },
        {
          "name": "F#3",
          "midi": 54,
          "time": 16.299214500000026,
          "velocity": 0.47244094488188976,
          "duration": 0.015225149414064276
        },
        {
          "name": "G#2",
          "midi": 44,
          "time": 16.299214500000026,
          "velocity": 0.3937007874015748,
          "duration": 0.015225149414064276
        },
        {
          "name": "E3",
          "midi": 52,
          "time": 16.299214500000026,
          "velocity": 0.3937007874015748,
          "duration": 0.015225149414064276
        },
        {
          "name": "C2",
          "midi": 36,
          "time": 16.299214500000026,
          "velocity": 0.3937007874015748,
          "duration": 0.015225149414064276
        },
        {
          "name": "F#3",
          "midi": 54,
          "time": 16.417324750000027,
          "velocity": 0.31496062992125984,
          "duration": 0.015225149414064276
        },
        {
          "name": "G#2",
          "midi": 44,
          "time": 16.417324750000027,
          "velocity": 0.31496062992125984,
          "duration": 0.015225149414064276
        },
        {
          "name": "E2",
          "midi": 40,
          "time": 16.417324750000027,
          "velocity": 0.3937007874015748,
          "duration": 0.015225149414064276
        },
        {
          "name": "D4",
          "midi": 62,
          "time": 16.417324750000027,
          "velocity": 0.3937007874015748,
          "duration": 0.015225149414064276
        },
        {
          "name": "E2",
          "midi": 40,
          "time": 16.473611666015653,
          "velocity": 0.3937007874015748,
          "duration": 0.015225149414060724
        },
        {
          "name": "D4",
          "midi": 62,
          "time": 16.473611666015653,
          "velocity": 0.3937007874015748,
          "duration": 0.015225149414060724
        },
        {
          "name": "E2",
          "midi": 40,
          "time": 16.5123665917969,
          "velocity": 0.3937007874015748,
          "duration": 0.015225149414060724
        },
        {
          "name": "D4",
          "midi": 62,
          "time": 16.5123665917969,
          "velocity": 0.3937007874015748,
          "duration": 0.015225149414060724
        },
        {
          "name": "F#3",
          "midi": 54,
          "time": 16.535435000000025,
          "velocity": 0.47244094488188976,
          "duration": 0.015225149414060724
        },
        {
          "name": "G#2",
          "midi": 44,
          "time": 16.535435000000025,
          "velocity": 0.3937007874015748,
          "duration": 0.015225149414060724
        },
        {
          "name": "E2",
          "midi": 40,
          "time": 16.535435000000025,
          "velocity": 0.6299212598425197,
          "duration": 0.015225149414060724
        },
        {
          "name": "D4",
          "midi": 62,
          "time": 16.535435000000025,
          "velocity": 0.6299212598425197,
          "duration": 0.015225149414060724
        },
        {
          "name": "G#2",
          "midi": 44,
          "time": 16.653545250000022,
          "velocity": 0.31496062992125984,
          "duration": 0.015225149414064276
        },
        {
          "name": "F#3",
          "midi": 54,
          "time": 16.653545250000022,
          "velocity": 0.31496062992125984,
          "duration": 0.015225149414064276
        },
        {
          "name": "F#3",
          "midi": 54,
          "time": 16.771655500000023,
          "velocity": 0.47244094488188976,
          "duration": 0.015225149414064276
        },
        {
          "name": "G#2",
          "midi": 44,
          "time": 16.771655500000023,
          "velocity": 0.3937007874015748,
          "duration": 0.015225149414064276
        },
        {
          "name": "E2",
          "midi": 40,
          "time": 16.771655500000023,
          "velocity": 0.6299212598425197,
          "duration": 0.015225149414064276
        },
        {
          "name": "D4",
          "midi": 62,
          "time": 16.771655500000023,
          "velocity": 0.6299212598425197,
          "duration": 0.015225149414064276
        },
        {
          "name": "G#2",
          "midi": 44,
          "time": 16.889765750000024,
          "velocity": 0.31496062992125984,
          "duration": 0.015225149414064276
        },
        {
          "name": "F#3",
          "midi": 54,
          "time": 16.889765750000024,
          "velocity": 0.31496062992125984,
          "duration": 0.015225149414064276
        },
        {
          "name": "D2",
          "midi": 38,
          "time": 17.007876000000024,
          "velocity": 0.3937007874015748,
          "duration": 0.015225149414064276
        },
        {
          "name": "E2",
          "midi": 40,
          "time": 17.007876000000024,
          "velocity": 0.6299212598425197,
          "duration": 0.015225149414064276
        },
        {
          "name": "D4",
          "midi": 62,
          "time": 17.007876000000024,
          "velocity": 0.6299212598425197,
          "duration": 0.015225149414064276
        },
        {
          "name": "F#3",
          "midi": 54,
          "time": 17.007876000000024,
          "velocity": 0.47244094488188976,
          "duration": 0.015225149414064276
        },
        {
          "name": "G#2",
          "midi": 44,
          "time": 17.007876000000024,
          "velocity": 0.3937007874015748,
          "duration": 0.015225149414064276
        },
        {
          "name": "E3",
          "midi": 52,
          "time": 17.007876000000024,
          "velocity": 0.3937007874015748,
          "duration": 0.015225149414064276
        },
        {
          "name": "C2",
          "midi": 36,
          "time": 17.007876000000024,
          "velocity": 0.3937007874015748,
          "duration": 0.015225149414064276
        },
        {
          "name": "F#3",
          "midi": 54,
          "time": 17.125986250000025,
          "velocity": 0.31496062992125984,
          "duration": 0.015225149414064276
        },
        {
          "name": "G#2",
          "midi": 44,
          "time": 17.125986250000025,
          "velocity": 0.31496062992125984,
          "duration": 0.015225149414064276
        },
        {
          "name": "E2",
          "midi": 40,
          "time": 17.125986250000025,
          "velocity": 0.3937007874015748,
          "duration": 0.015225149414064276
        },
        {
          "name": "D4",
          "midi": 62,
          "time": 17.125986250000025,
          "velocity": 0.3937007874015748,
          "duration": 0.015225149414064276
        },
        {
          "name": "E2",
          "midi": 40,
          "time": 17.1693548574219,
          "velocity": 0.3937007874015748,
          "duration": 0.015225149414064276
        },
        {
          "name": "D4",
          "midi": 62,
          "time": 17.1693548574219,
          "velocity": 0.3937007874015748,
          "duration": 0.015225149414064276
        },
        {
          "name": "E2",
          "midi": 40,
          "time": 17.212723464843776,
          "velocity": 0.3937007874015748,
          "duration": 0.015225149414064276
        },
        {
          "name": "D4",
          "midi": 62,
          "time": 17.212723464843776,
          "velocity": 0.3937007874015748,
          "duration": 0.015225149414064276
        },
        {
          "name": "F#3",
          "midi": 54,
          "time": 17.24409650000003,
          "velocity": 0.47244094488188976,
          "duration": 0.015225149414060724
        },
        {
          "name": "G#2",
          "midi": 44,
          "time": 17.24409650000003,
          "velocity": 0.3937007874015748,
          "duration": 0.015225149414060724
        },
        {
          "name": "E2",
          "midi": 40,
          "time": 17.24409650000003,
          "velocity": 0.6299212598425197,
          "duration": 0.015225149414060724
        },
        {
          "name": "D4",
          "midi": 62,
          "time": 17.24409650000003,
          "velocity": 0.6299212598425197,
          "duration": 0.015225149414060724
        },
        {
          "name": "F#3",
          "midi": 54,
          "time": 17.362206750000027,
          "velocity": 0.31496062992125984,
          "duration": 0.015225149414064276
        },
        {
          "name": "G#2",
          "midi": 44,
          "time": 17.362206750000027,
          "velocity": 0.31496062992125984,
          "duration": 0.015225149414064276
        },
        {
          "name": "E2",
          "midi": 40,
          "time": 17.362206750000027,
          "velocity": 0.6299212598425197,
          "duration": 0.015225149414064276
        },
        {
          "name": "D4",
          "midi": 62,
          "time": 17.362206750000027,
          "velocity": 0.6299212598425197,
          "duration": 0.015225149414064276
        },
        {
          "name": "G#2",
          "midi": 44,
          "time": 17.480317000000028,
          "velocity": 0.3937007874015748,
          "duration": 0.015225149414064276
        },
        {
          "name": "F#3",
          "midi": 54,
          "time": 17.480317000000028,
          "velocity": 0.47244094488188976,
          "duration": 0.015225149414064276
        },
        {
          "name": "F#3",
          "midi": 54,
          "time": 17.59842725000003,
          "velocity": 0.31496062992125984,
          "duration": 0.015225149414064276
        },
        {
          "name": "G#2",
          "midi": 44,
          "time": 17.59842725000003,
          "velocity": 0.31496062992125984,
          "duration": 0.015225149414064276
        },
        {
          "name": "E2",
          "midi": 40,
          "time": 17.59842725000003,
          "velocity": 0.6299212598425197,
          "duration": 0.015225149414064276
        },
        {
          "name": "D4",
          "midi": 62,
          "time": 17.59842725000003,
          "velocity": 0.6299212598425197,
          "duration": 0.015225149414064276
        },
        {
          "name": "F#3",
          "midi": 54,
          "time": 17.71653750000003,
          "velocity": 0.47244094488188976,
          "duration": 0.015225149414064276
        },
        {
          "name": "G#2",
          "midi": 44,
          "time": 17.71653750000003,
          "velocity": 0.3937007874015748,
          "duration": 0.015225149414064276
        },
        {
          "name": "E2",
          "midi": 40,
          "time": 17.71653750000003,
          "velocity": 0.6299212598425197,
          "duration": 0.015225149414064276
        },
        {
          "name": "D4",
          "midi": 62,
          "time": 17.71653750000003,
          "velocity": 0.6299212598425197,
          "duration": 0.015225149414064276
        },
        {
          "name": "F#3",
          "midi": 54,
          "time": 17.83464775000003,
          "velocity": 0.31496062992125984,
          "duration": 0.015225149414064276
        },
        {
          "name": "G#2",
          "midi": 44,
          "time": 17.83464775000003,
          "velocity": 0.31496062992125984,
          "duration": 0.015225149414064276
        },
        {
          "name": "E2",
          "midi": 40,
          "time": 17.83464775000003,
          "velocity": 0.3937007874015748,
          "duration": 0.015225149414064276
        },
        {
          "name": "D4",
          "midi": 62,
          "time": 17.83464775000003,
          "velocity": 0.3937007874015748,
          "duration": 0.015225149414064276
        },
        {
          "name": "E2",
          "midi": 40,
          "time": 17.890934666015657,
          "velocity": 0.3937007874015748,
          "duration": 0.015225149414060724
        },
        {
          "name": "D4",
          "midi": 62,
          "time": 17.890934666015657,
          "velocity": 0.3937007874015748,
          "duration": 0.015225149414060724
        },
        {
          "name": "E2",
          "midi": 40,
          "time": 17.929689591796905,
          "velocity": 0.3937007874015748,
          "duration": 0.015225149414060724
        },
        {
          "name": "D4",
          "midi": 62,
          "time": 17.929689591796905,
          "velocity": 0.3937007874015748,
          "duration": 0.015225149414060724
        },
        {
          "name": "F#3",
          "midi": 54,
          "time": 17.952758000000028,
          "velocity": 0.47244094488188976,
          "duration": 0.015225149414060724
        },
        {
          "name": "G#2",
          "midi": 44,
          "time": 17.952758000000028,
          "velocity": 0.3937007874015748,
          "duration": 0.015225149414060724
        },
        {
          "name": "E2",
          "midi": 40,
          "time": 17.952758000000028,
          "velocity": 0.6299212598425197,
          "duration": 0.015225149414060724
        },
        {
          "name": "D4",
          "midi": 62,
          "time": 17.952758000000028,
          "velocity": 0.6299212598425197,
          "duration": 0.015225149414060724
        },
        {
          "name": "G#2",
          "midi": 44,
          "time": 18.070868250000025,
          "velocity": 0.31496062992125984,
          "duration": 0.015225149414064276
        },
        {
          "name": "F#3",
          "midi": 54,
          "time": 18.070868250000025,
          "velocity": 0.31496062992125984,
          "duration": 0.015225149414064276
        },
        {
          "name": "F#3",
          "midi": 54,
          "time": 18.188978500000026,
          "velocity": 0.47244094488188976,
          "duration": 0.015225149414064276
        },
        {
          "name": "G#2",
          "midi": 44,
          "time": 18.188978500000026,
          "velocity": 0.3937007874015748,
          "duration": 0.015225149414064276
        },
        {
          "name": "E2",
          "midi": 40,
          "time": 18.188978500000026,
          "velocity": 0.6299212598425197,
          "duration": 0.015225149414064276
        },
        {
          "name": "D4",
          "midi": 62,
          "time": 18.188978500000026,
          "velocity": 0.6299212598425197,
          "duration": 0.015225149414064276
        },
        {
          "name": "G#2",
          "midi": 44,
          "time": 18.307088750000027,
          "velocity": 0.31496062992125984,
          "duration": 0.015225149414064276
        },
        {
          "name": "F#3",
          "midi": 54,
          "time": 18.307088750000027,
          "velocity": 0.31496062992125984,
          "duration": 0.015225149414064276
        },
        {
          "name": "D2",
          "midi": 38,
          "time": 18.425199000000028,
          "velocity": 0.3937007874015748,
          "duration": 0.015225149414064276
        },
        {
          "name": "E2",
          "midi": 40,
          "time": 18.425199000000028,
          "velocity": 0.6299212598425197,
          "duration": 0.015225149414064276
        },
        {
          "name": "D4",
          "midi": 62,
          "time": 18.425199000000028,
          "velocity": 0.6299212598425197,
          "duration": 0.015225149414064276
        },
        {
          "name": "F#3",
          "midi": 54,
          "time": 18.425199000000028,
          "velocity": 0.47244094488188976,
          "duration": 0.015225149414064276
        },
        {
          "name": "G#2",
          "midi": 44,
          "time": 18.425199000000028,
          "velocity": 0.3937007874015748,
          "duration": 0.015225149414064276
        },
        {
          "name": "E3",
          "midi": 52,
          "time": 18.425199000000028,
          "velocity": 0.3937007874015748,
          "duration": 0.015225149414064276
        },
        {
          "name": "C2",
          "midi": 36,
          "time": 18.425199000000028,
          "velocity": 0.3937007874015748,
          "duration": 0.015225149414064276
        },
        {
          "name": "F#3",
          "midi": 54,
          "time": 18.54330925000003,
          "velocity": 0.31496062992125984,
          "duration": 0.015225149414064276
        },
        {
          "name": "G#2",
          "midi": 44,
          "time": 18.54330925000003,
          "velocity": 0.31496062992125984,
          "duration": 0.015225149414064276
        },
        {
          "name": "E2",
          "midi": 40,
          "time": 18.54330925000003,
          "velocity": 0.3937007874015748,
          "duration": 0.015225149414064276
        },
        {
          "name": "D4",
          "midi": 62,
          "time": 18.54330925000003,
          "velocity": 0.3937007874015748,
          "duration": 0.015225149414064276
        },
        {
          "name": "E2",
          "midi": 40,
          "time": 18.586677857421904,
          "velocity": 0.3937007874015748,
          "duration": 0.015225149414064276
        },
        {
          "name": "D4",
          "midi": 62,
          "time": 18.586677857421904,
          "velocity": 0.3937007874015748,
          "duration": 0.015225149414064276
        },
        {
          "name": "E2",
          "midi": 40,
          "time": 18.63004646484378,
          "velocity": 0.3937007874015748,
          "duration": 0.015225149414064276
        },
        {
          "name": "D4",
          "midi": 62,
          "time": 18.63004646484378,
          "velocity": 0.3937007874015748,
          "duration": 0.015225149414064276
        },
        {
          "name": "F#3",
          "midi": 54,
          "time": 18.661419500000033,
          "velocity": 0.47244094488188976,
          "duration": 0.015225149414060724
        },
        {
          "name": "G#2",
          "midi": 44,
          "time": 18.661419500000033,
          "velocity": 0.3937007874015748,
          "duration": 0.015225149414060724
        },
        {
          "name": "E2",
          "midi": 40,
          "time": 18.661419500000033,
          "velocity": 0.6299212598425197,
          "duration": 0.015225149414060724
        },
        {
          "name": "D4",
          "midi": 62,
          "time": 18.661419500000033,
          "velocity": 0.6299212598425197,
          "duration": 0.015225149414060724
        },
        {
          "name": "F#3",
          "midi": 54,
          "time": 18.77952975000003,
          "velocity": 0.31496062992125984,
          "duration": 0.015225149414064276
        },
        {
          "name": "G#2",
          "midi": 44,
          "time": 18.77952975000003,
          "velocity": 0.31496062992125984,
          "duration": 0.015225149414064276
        },
        {
          "name": "E2",
          "midi": 40,
          "time": 18.77952975000003,
          "velocity": 0.6299212598425197,
          "duration": 0.015225149414064276
        },
        {
          "name": "D4",
          "midi": 62,
          "time": 18.77952975000003,
          "velocity": 0.6299212598425197,
          "duration": 0.015225149414064276
        },
        {
          "name": "G#2",
          "midi": 44,
          "time": 18.89764000000003,
          "velocity": 0.3937007874015748,
          "duration": 0.015225149414064276
        },
        {
          "name": "F#3",
          "midi": 54,
          "time": 18.89764000000003,
          "velocity": 0.47244094488188976,
          "duration": 0.015225149414064276
        },
        {
          "name": "F#3",
          "midi": 54,
          "time": 19.015750250000032,
          "velocity": 0.31496062992125984,
          "duration": 0.015225149414064276
        },
        {
          "name": "G#2",
          "midi": 44,
          "time": 19.015750250000032,
          "velocity": 0.31496062992125984,
          "duration": 0.015225149414064276
        },
        {
          "name": "E2",
          "midi": 40,
          "time": 19.015750250000032,
          "velocity": 0.6299212598425197,
          "duration": 0.015225149414064276
        },
        {
          "name": "D4",
          "midi": 62,
          "time": 19.015750250000032,
          "velocity": 0.6299212598425197,
          "duration": 0.015225149414064276
        },
        {
          "name": "F#3",
          "midi": 54,
          "time": 19.133860500000033,
          "velocity": 0.47244094488188976,
          "duration": 0.015225149414064276
        },
        {
          "name": "G#2",
          "midi": 44,
          "time": 19.133860500000033,
          "velocity": 0.3937007874015748,
          "duration": 0.015225149414064276
        },
        {
          "name": "E2",
          "midi": 40,
          "time": 19.133860500000033,
          "velocity": 0.6299212598425197,
          "duration": 0.015225149414064276
        },
        {
          "name": "D4",
          "midi": 62,
          "time": 19.133860500000033,
          "velocity": 0.6299212598425197,
          "duration": 0.015225149414064276
        },
        {
          "name": "F#3",
          "midi": 54,
          "time": 19.251970750000034,
          "velocity": 0.31496062992125984,
          "duration": 0.015225149414064276
        },
        {
          "name": "G#2",
          "midi": 44,
          "time": 19.251970750000034,
          "velocity": 0.31496062992125984,
          "duration": 0.015225149414064276
        },
        {
          "name": "E2",
          "midi": 40,
          "time": 19.251970750000034,
          "velocity": 0.3937007874015748,
          "duration": 0.015225149414064276
        },
        {
          "name": "D4",
          "midi": 62,
          "time": 19.251970750000034,
          "velocity": 0.3937007874015748,
          "duration": 0.015225149414064276
        },
        {
          "name": "E2",
          "midi": 40,
          "time": 19.30825766601566,
          "velocity": 0.3937007874015748,
          "duration": 0.015225149414060724
        },
        {
          "name": "D4",
          "midi": 62,
          "time": 19.30825766601566,
          "velocity": 0.3937007874015748,
          "duration": 0.015225149414060724
        },
        {
          "name": "E2",
          "midi": 40,
          "time": 19.347012591796908,
          "velocity": 0.3937007874015748,
          "duration": 0.015225149414060724
        },
        {
          "name": "D4",
          "midi": 62,
          "time": 19.347012591796908,
          "velocity": 0.3937007874015748,
          "duration": 0.015225149414060724
        },
        {
          "name": "F#3",
          "midi": 54,
          "time": 19.37008100000003,
          "velocity": 0.47244094488188976,
          "duration": 0.015225149414060724
        },
        {
          "name": "G#2",
          "midi": 44,
          "time": 19.37008100000003,
          "velocity": 0.3937007874015748,
          "duration": 0.015225149414060724
        },
        {
          "name": "E2",
          "midi": 40,
          "time": 19.37008100000003,
          "velocity": 0.6299212598425197,
          "duration": 0.015225149414060724
        },
        {
          "name": "D4",
          "midi": 62,
          "time": 19.37008100000003,
          "velocity": 0.6299212598425197,
          "duration": 0.015225149414060724
        },
        {
          "name": "G#2",
          "midi": 44,
          "time": 19.48819125000003,
          "velocity": 0.31496062992125984,
          "duration": 0.015225149414064276
        },
        {
          "name": "F#3",
          "midi": 54,
          "time": 19.48819125000003,
          "velocity": 0.31496062992125984,
          "duration": 0.015225149414064276
        },
        {
          "name": "F#3",
          "midi": 54,
          "time": 19.60630150000003,
          "velocity": 0.47244094488188976,
          "duration": 0.015225149414064276
        },
        {
          "name": "G#2",
          "midi": 44,
          "time": 19.60630150000003,
          "velocity": 0.3937007874015748,
          "duration": 0.015225149414064276
        },
        {
          "name": "E2",
          "midi": 40,
          "time": 19.60630150000003,
          "velocity": 0.6299212598425197,
          "duration": 0.015225149414064276
        },
        {
          "name": "D4",
          "midi": 62,
          "time": 19.60630150000003,
          "velocity": 0.6299212598425197,
          "duration": 0.015225149414064276
        },
        {
          "name": "G#2",
          "midi": 44,
          "time": 19.72441175000003,
          "velocity": 0.31496062992125984,
          "duration": 0.015225149414064276
        },
        {
          "name": "F#3",
          "midi": 54,
          "time": 19.72441175000003,
          "velocity": 0.31496062992125984,
          "duration": 0.015225149414064276
        },
        {
          "name": "D2",
          "midi": 38,
          "time": 19.84252200000003,
          "velocity": 0.3937007874015748,
          "duration": 0.015225149414064276
        },
        {
          "name": "E2",
          "midi": 40,
          "time": 19.84252200000003,
          "velocity": 0.6299212598425197,
          "duration": 0.015225149414064276
        },
        {
          "name": "D4",
          "midi": 62,
          "time": 19.84252200000003,
          "velocity": 0.6299212598425197,
          "duration": 0.015225149414064276
        },
        {
          "name": "F#3",
          "midi": 54,
          "time": 19.84252200000003,
          "velocity": 0.47244094488188976,
          "duration": 0.015225149414064276
        },
        {
          "name": "G#2",
          "midi": 44,
          "time": 19.84252200000003,
          "velocity": 0.3937007874015748,
          "duration": 0.015225149414064276
        },
        {
          "name": "E3",
          "midi": 52,
          "time": 19.84252200000003,
          "velocity": 0.3937007874015748,
          "duration": 0.015225149414064276
        },
        {
          "name": "C2",
          "midi": 36,
          "time": 19.84252200000003,
          "velocity": 0.3937007874015748,
          "duration": 0.015225149414064276
        },
        {
          "name": "F#3",
          "midi": 54,
          "time": 19.96063225000003,
          "velocity": 0.31496062992125984,
          "duration": 0.015225149414064276
        },
        {
          "name": "G#2",
          "midi": 44,
          "time": 19.96063225000003,
          "velocity": 0.31496062992125984,
          "duration": 0.015225149414064276
        },
        {
          "name": "E2",
          "midi": 40,
          "time": 19.96063225000003,
          "velocity": 0.3937007874015748,
          "duration": 0.015225149414064276
        },
        {
          "name": "D4",
          "midi": 62,
          "time": 19.96063225000003,
          "velocity": 0.3937007874015748,
          "duration": 0.015225149414064276
        },
        {
          "name": "E2",
          "midi": 40,
          "time": 20.004000857421907,
          "velocity": 0.3937007874015748,
          "duration": 0.015225149414064276
        },
        {
          "name": "D4",
          "midi": 62,
          "time": 20.004000857421907,
          "velocity": 0.3937007874015748,
          "duration": 0.015225149414064276
        },
        {
          "name": "E2",
          "midi": 40,
          "time": 20.047369464843783,
          "velocity": 0.3937007874015748,
          "duration": 0.015225149414064276
        },
        {
          "name": "D4",
          "midi": 62,
          "time": 20.047369464843783,
          "velocity": 0.3937007874015748,
          "duration": 0.015225149414064276
        },
        {
          "name": "F#3",
          "midi": 54,
          "time": 20.078742500000036,
          "velocity": 0.47244094488188976,
          "duration": 0.015225149414060724
        },
        {
          "name": "G#2",
          "midi": 44,
          "time": 20.078742500000036,
          "velocity": 0.3937007874015748,
          "duration": 0.015225149414060724
        },
        {
          "name": "E2",
          "midi": 40,
          "time": 20.078742500000036,
          "velocity": 0.6299212598425197,
          "duration": 0.015225149414060724
        },
        {
          "name": "D4",
          "midi": 62,
          "time": 20.078742500000036,
          "velocity": 0.6299212598425197,
          "duration": 0.015225149414060724
        },
        {
          "name": "F#3",
          "midi": 54,
          "time": 20.196852750000033,
          "velocity": 0.31496062992125984,
          "duration": 0.015225149414064276
        },
        {
          "name": "G#2",
          "midi": 44,
          "time": 20.196852750000033,
          "velocity": 0.31496062992125984,
          "duration": 0.015225149414064276
        },
        {
          "name": "E2",
          "midi": 40,
          "time": 20.196852750000033,
          "velocity": 0.6299212598425197,
          "duration": 0.015225149414064276
        },
        {
          "name": "D4",
          "midi": 62,
          "time": 20.196852750000033,
          "velocity": 0.6299212598425197,
          "duration": 0.015225149414064276
        },
        {
          "name": "G#2",
          "midi": 44,
          "time": 20.314963000000034,
          "velocity": 0.3937007874015748,
          "duration": 0.015225149414064276
        },
        {
          "name": "F#3",
          "midi": 54,
          "time": 20.314963000000034,
          "velocity": 0.47244094488188976,
          "duration": 0.015225149414064276
        },
        {
          "name": "F#3",
          "midi": 54,
          "time": 20.433073250000035,
          "velocity": 0.31496062992125984,
          "duration": 0.015225149414064276
        },
        {
          "name": "G#2",
          "midi": 44,
          "time": 20.433073250000035,
          "velocity": 0.31496062992125984,
          "duration": 0.015225149414064276
        },
        {
          "name": "E2",
          "midi": 40,
          "time": 20.433073250000035,
          "velocity": 0.6299212598425197,
          "duration": 0.015225149414064276
        },
        {
          "name": "D4",
          "midi": 62,
          "time": 20.433073250000035,
          "velocity": 0.6299212598425197,
          "duration": 0.015225149414064276
        },
        {
          "name": "F#3",
          "midi": 54,
          "time": 20.551183500000036,
          "velocity": 0.47244094488188976,
          "duration": 0.015225149414064276
        },
        {
          "name": "G#2",
          "midi": 44,
          "time": 20.551183500000036,
          "velocity": 0.3937007874015748,
          "duration": 0.015225149414064276
        },
        {
          "name": "E2",
          "midi": 40,
          "time": 20.551183500000036,
          "velocity": 0.6299212598425197,
          "duration": 0.015225149414064276
        },
        {
          "name": "D4",
          "midi": 62,
          "time": 20.551183500000036,
          "velocity": 0.6299212598425197,
          "duration": 0.015225149414064276
        },
        {
          "name": "F#3",
          "midi": 54,
          "time": 20.669293750000037,
          "velocity": 0.31496062992125984,
          "duration": 0.015225149414064276
        },
        {
          "name": "G#2",
          "midi": 44,
          "time": 20.669293750000037,
          "velocity": 0.31496062992125984,
          "duration": 0.015225149414064276
        },
        {
          "name": "E2",
          "midi": 40,
          "time": 20.669293750000037,
          "velocity": 0.3937007874015748,
          "duration": 0.015225149414064276
        },
        {
          "name": "D4",
          "midi": 62,
          "time": 20.669293750000037,
          "velocity": 0.3937007874015748,
          "duration": 0.015225149414064276
        },
        {
          "name": "E2",
          "midi": 40,
          "time": 20.725580666015663,
          "velocity": 0.3937007874015748,
          "duration": 0.015225149414060724
        },
        {
          "name": "D4",
          "midi": 62,
          "time": 20.725580666015663,
          "velocity": 0.3937007874015748,
          "duration": 0.015225149414060724
        },
        {
          "name": "E2",
          "midi": 40,
          "time": 20.76433559179691,
          "velocity": 0.3937007874015748,
          "duration": 0.015225149414060724
        },
        {
          "name": "D4",
          "midi": 62,
          "time": 20.76433559179691,
          "velocity": 0.3937007874015748,
          "duration": 0.015225149414060724
        },
        {
          "name": "F#3",
          "midi": 54,
          "time": 20.787404000000034,
          "velocity": 0.47244094488188976,
          "duration": 0.015225149414060724
        },
        {
          "name": "G#2",
          "midi": 44,
          "time": 20.787404000000034,
          "velocity": 0.3937007874015748,
          "duration": 0.015225149414060724
        },
        {
          "name": "E2",
          "midi": 40,
          "time": 20.787404000000034,
          "velocity": 0.6299212598425197,
          "duration": 0.015225149414060724
        },
        {
          "name": "D4",
          "midi": 62,
          "time": 20.787404000000034,
          "velocity": 0.6299212598425197,
          "duration": 0.015225149414060724
        },
        {
          "name": "G#2",
          "midi": 44,
          "time": 20.90551425000003,
          "velocity": 0.31496062992125984,
          "duration": 0.015225149414064276
        },
        {
          "name": "F#3",
          "midi": 54,
          "time": 20.90551425000003,
          "velocity": 0.31496062992125984,
          "duration": 0.015225149414064276
        },
        {
          "name": "F#3",
          "midi": 54,
          "time": 21.023624500000032,
          "velocity": 0.47244094488188976,
          "duration": 0.015225149414064276
        },
        {
          "name": "G#2",
          "midi": 44,
          "time": 21.023624500000032,
          "velocity": 0.3937007874015748,
          "duration": 0.015225149414064276
        },
        {
          "name": "E2",
          "midi": 40,
          "time": 21.023624500000032,
          "velocity": 0.6299212598425197,
          "duration": 0.015225149414064276
        },
        {
          "name": "D4",
          "midi": 62,
          "time": 21.023624500000032,
          "velocity": 0.6299212598425197,
          "duration": 0.015225149414064276
        },
        {
          "name": "G#2",
          "midi": 44,
          "time": 21.141734750000033,
          "velocity": 0.31496062992125984,
          "duration": 0.015225149414064276
        },
        {
          "name": "F#3",
          "midi": 54,
          "time": 21.141734750000033,
          "velocity": 0.31496062992125984,
          "duration": 0.015225149414064276
        },
        {
          "name": "D2",
          "midi": 38,
          "time": 21.259845000000034,
          "velocity": 0.3937007874015748,
          "duration": 0.015225149414064276
        },
        {
          "name": "E2",
          "midi": 40,
          "time": 21.259845000000034,
          "velocity": 0.6299212598425197,
          "duration": 0.015225149414064276
        },
        {
          "name": "D4",
          "midi": 62,
          "time": 21.259845000000034,
          "velocity": 0.6299212598425197,
          "duration": 0.015225149414064276
        },
        {
          "name": "F#3",
          "midi": 54,
          "time": 21.259845000000034,
          "velocity": 0.47244094488188976,
          "duration": 0.015225149414064276
        },
        {
          "name": "G#2",
          "midi": 44,
          "time": 21.259845000000034,
          "velocity": 0.3937007874015748,
          "duration": 0.015225149414064276
        },
        {
          "name": "E3",
          "midi": 52,
          "time": 21.259845000000034,
          "velocity": 0.3937007874015748,
          "duration": 0.015225149414064276
        },
        {
          "name": "C2",
          "midi": 36,
          "time": 21.259845000000034,
          "velocity": 0.3937007874015748,
          "duration": 0.015225149414064276
        },
        {
          "name": "F#3",
          "midi": 54,
          "time": 21.377955250000035,
          "velocity": 0.31496062992125984,
          "duration": 0.015225149414064276
        },
        {
          "name": "G#2",
          "midi": 44,
          "time": 21.377955250000035,
          "velocity": 0.31496062992125984,
          "duration": 0.015225149414064276
        },
        {
          "name": "E2",
          "midi": 40,
          "time": 21.377955250000035,
          "velocity": 0.3937007874015748,
          "duration": 0.015225149414064276
        },
        {
          "name": "D4",
          "midi": 62,
          "time": 21.377955250000035,
          "velocity": 0.3937007874015748,
          "duration": 0.015225149414064276
        },
        {
          "name": "E2",
          "midi": 40,
          "time": 21.42132385742191,
          "velocity": 0.3937007874015748,
          "duration": 0.015225149414064276
        },
        {
          "name": "D4",
          "midi": 62,
          "time": 21.42132385742191,
          "velocity": 0.3937007874015748,
          "duration": 0.015225149414064276
        },
        {
          "name": "E2",
          "midi": 40,
          "time": 21.464692464843786,
          "velocity": 0.3937007874015748,
          "duration": 0.015225149414064276
        },
        {
          "name": "D4",
          "midi": 62,
          "time": 21.464692464843786,
          "velocity": 0.3937007874015748,
          "duration": 0.015225149414064276
        },
        {
          "name": "F#3",
          "midi": 54,
          "time": 21.49606550000004,
          "velocity": 0.47244094488188976,
          "duration": 0.015225149414060724
        },
        {
          "name": "G#2",
          "midi": 44,
          "time": 21.49606550000004,
          "velocity": 0.3937007874015748,
          "duration": 0.015225149414060724
        },
        {
          "name": "E2",
          "midi": 40,
          "time": 21.49606550000004,
          "velocity": 0.6299212598425197,
          "duration": 0.015225149414060724
        },
        {
          "name": "D4",
          "midi": 62,
          "time": 21.49606550000004,
          "velocity": 0.6299212598425197,
          "duration": 0.015225149414060724
        },
        {
          "name": "F#3",
          "midi": 54,
          "time": 21.614175750000037,
          "velocity": 0.31496062992125984,
          "duration": 0.015225149414064276
        },
        {
          "name": "G#2",
          "midi": 44,
          "time": 21.614175750000037,
          "velocity": 0.31496062992125984,
          "duration": 0.015225149414064276
        },
        {
          "name": "E2",
          "midi": 40,
          "time": 21.614175750000037,
          "velocity": 0.6299212598425197,
          "duration": 0.015225149414064276
        },
        {
          "name": "D4",
          "midi": 62,
          "time": 21.614175750000037,
          "velocity": 0.6299212598425197,
          "duration": 0.015225149414064276
        },
        {
          "name": "G#2",
          "midi": 44,
          "time": 21.732286000000038,
          "velocity": 0.3937007874015748,
          "duration": 0.015225149414064276
        },
        {
          "name": "F#3",
          "midi": 54,
          "time": 21.732286000000038,
          "velocity": 0.47244094488188976,
          "duration": 0.015225149414064276
        },
        {
          "name": "F#3",
          "midi": 54,
          "time": 21.85039625000004,
          "velocity": 0.31496062992125984,
          "duration": 0.015225149414064276
        },
        {
          "name": "G#2",
          "midi": 44,
          "time": 21.85039625000004,
          "velocity": 0.31496062992125984,
          "duration": 0.015225149414064276
        },
        {
          "name": "E2",
          "midi": 40,
          "time": 21.85039625000004,
          "velocity": 0.6299212598425197,
          "duration": 0.015225149414064276
        },
        {
          "name": "D4",
          "midi": 62,
          "time": 21.85039625000004,
          "velocity": 0.6299212598425197,
          "duration": 0.015225149414064276
        },
        {
          "name": "D2",
          "midi": 38,
          "time": 21.96850650000004,
          "velocity": 0.3937007874015748,
          "duration": 0.015225149414064276
        },
        {
          "name": "E2",
          "midi": 40,
          "time": 21.96850650000004,
          "velocity": 0.6299212598425197,
          "duration": 0.015225149414064276
        },
        {
          "name": "D4",
          "midi": 62,
          "time": 21.96850650000004,
          "velocity": 0.6299212598425197,
          "duration": 0.015225149414064276
        },
        {
          "name": "F#3",
          "midi": 54,
          "time": 21.96850650000004,
          "velocity": 0.47244094488188976,
          "duration": 0.015225149414064276
        },
        {
          "name": "G#2",
          "midi": 44,
          "time": 21.96850650000004,
          "velocity": 0.3937007874015748,
          "duration": 0.015225149414064276
        },
        {
          "name": "E3",
          "midi": 52,
          "time": 21.96850650000004,
          "velocity": 0.3937007874015748,
          "duration": 0.015225149414064276
        },
        {
          "name": "C2",
          "midi": 36,
          "time": 21.96850650000004,
          "velocity": 0.3937007874015748,
          "duration": 0.015225149414064276
        },
        {
          "name": "F#3",
          "midi": 54,
          "time": 22.08661675000004,
          "velocity": 0.31496062992125984,
          "duration": 0.015225149414064276
        },
        {
          "name": "G#2",
          "midi": 44,
          "time": 22.08661675000004,
          "velocity": 0.31496062992125984,
          "duration": 0.015225149414064276
        },
        {
          "name": "E2",
          "midi": 40,
          "time": 22.08661675000004,
          "velocity": 0.3937007874015748,
          "duration": 0.015225149414064276
        },
        {
          "name": "D4",
          "midi": 62,
          "time": 22.08661675000004,
          "velocity": 0.3937007874015748,
          "duration": 0.015225149414064276
        },
        {
          "name": "E2",
          "midi": 40,
          "time": 22.142903666015666,
          "velocity": 0.3937007874015748,
          "duration": 0.015225149414060724
        },
        {
          "name": "D4",
          "midi": 62,
          "time": 22.142903666015666,
          "velocity": 0.3937007874015748,
          "duration": 0.015225149414060724
        },
        {
          "name": "E2",
          "midi": 40,
          "time": 22.181658591796914,
          "velocity": 0.3937007874015748,
          "duration": 0.015225149414060724
        },
        {
          "name": "D4",
          "midi": 62,
          "time": 22.181658591796914,
          "velocity": 0.3937007874015748,
          "duration": 0.015225149414060724
        },
        {
          "name": "F#3",
          "midi": 54,
          "time": 22.204727000000037,
          "velocity": 0.47244094488188976,
          "duration": 0.015225149414060724
        },
        {
          "name": "G#2",
          "midi": 44,
          "time": 22.204727000000037,
          "velocity": 0.3937007874015748,
          "duration": 0.015225149414060724
        },
        {
          "name": "E2",
          "midi": 40,
          "time": 22.204727000000037,
          "velocity": 0.6299212598425197,
          "duration": 0.015225149414060724
        },
        {
          "name": "D4",
          "midi": 62,
          "time": 22.204727000000037,
          "velocity": 0.6299212598425197,
          "duration": 0.015225149414060724
        },
        {
          "name": "G#2",
          "midi": 44,
          "time": 22.322837250000035,
          "velocity": 0.31496062992125984,
          "duration": 0.015225149414064276
        },
        {
          "name": "F#3",
          "midi": 54,
          "time": 22.322837250000035,
          "velocity": 0.31496062992125984,
          "duration": 0.015225149414064276
        },
        {
          "name": "F#3",
          "midi": 54,
          "time": 22.440947500000036,
          "velocity": 0.47244094488188976,
          "duration": 0.015225149414064276
        },
        {
          "name": "G#2",
          "midi": 44,
          "time": 22.440947500000036,
          "velocity": 0.3937007874015748,
          "duration": 0.015225149414064276
        },
        {
          "name": "E2",
          "midi": 40,
          "time": 22.440947500000036,
          "velocity": 0.6299212598425197,
          "duration": 0.015225149414064276
        },
        {
          "name": "D4",
          "midi": 62,
          "time": 22.440947500000036,
          "velocity": 0.6299212598425197,
          "duration": 0.015225149414064276
        },
        {
          "name": "G#2",
          "midi": 44,
          "time": 22.559057750000036,
          "velocity": 0.31496062992125984,
          "duration": 0.015225149414064276
        },
        {
          "name": "F#3",
          "midi": 54,
          "time": 22.559057750000036,
          "velocity": 0.31496062992125984,
          "duration": 0.015225149414064276
        },
        {
          "name": "E2",
          "midi": 40,
          "time": 22.677168000000037,
          "velocity": 0.6299212598425197,
          "duration": 0.015225149414064276
        },
        {
          "name": "D4",
          "midi": 62,
          "time": 22.677168000000037,
          "velocity": 0.6299212598425197,
          "duration": 0.015225149414064276
        },
        {
          "name": "F#3",
          "midi": 54,
          "time": 22.677168000000037,
          "velocity": 0.47244094488188976,
          "duration": 0.015225149414064276
        },
        {
          "name": "G#2",
          "midi": 44,
          "time": 22.677168000000037,
          "velocity": 0.3937007874015748,
          "duration": 0.015225149414064276
        },
        {
          "name": "C2",
          "midi": 36,
          "time": 22.677168000000037,
          "velocity": 0.3937007874015748,
          "duration": 0.015225149414064276
        },
        {
          "name": "E3",
          "midi": 52,
          "time": 22.677168000000037,
          "velocity": 0.3937007874015748,
          "duration": 0.015225149414064276
        },
        {
          "name": "D2",
          "midi": 38,
          "time": 22.677168000000037,
          "velocity": 0.3937007874015748,
          "duration": 0.015225149414064276
        },
        {
          "name": "G#2",
          "midi": 44,
          "time": 22.795278250000038,
          "velocity": 0.31496062992125984,
          "duration": 0.015225149414064276
        },
        {
          "name": "E2",
          "midi": 40,
          "time": 22.795278250000038,
          "velocity": 0.3937007874015748,
          "duration": 0.015225149414064276
        },
        {
          "name": "D4",
          "midi": 62,
          "time": 22.795278250000038,
          "velocity": 0.3937007874015748,
          "duration": 0.015225149414064276
        },
        {
          "name": "F#3",
          "midi": 54,
          "time": 22.795278250000038,
          "velocity": 0.31496062992125984,
          "duration": 0.015225149414064276
        },
        {
          "name": "D4",
          "midi": 62,
          "time": 22.838646857421914,
          "velocity": 0.3937007874015748,
          "duration": 0.015225149414064276
        },
        {
          "name": "E2",
          "midi": 40,
          "time": 22.838646857421914,
          "velocity": 0.3937007874015748,
          "duration": 0.015225149414064276
        },
        {
          "name": "D4",
          "midi": 62,
          "time": 22.88201546484379,
          "velocity": 0.3937007874015748,
          "duration": 0.015225149414064276
        },
        {
          "name": "E2",
          "midi": 40,
          "time": 22.88201546484379,
          "velocity": 0.3937007874015748,
          "duration": 0.015225149414064276
        },
        {
          "name": "G#2",
          "midi": 44,
          "time": 22.913388500000043,
          "velocity": 0.3937007874015748,
          "duration": 0.015225149414060724
        },
        {
          "name": "E2",
          "midi": 40,
          "time": 22.913388500000043,
          "velocity": 0.6299212598425197,
          "duration": 0.015225149414060724
        },
        {
          "name": "D4",
          "midi": 62,
          "time": 22.913388500000043,
          "velocity": 0.6299212598425197,
          "duration": 0.015225149414060724
        },
        {
          "name": "F#3",
          "midi": 54,
          "time": 22.913388500000043,
          "velocity": 0.47244094488188976,
          "duration": 0.015225149414060724
        },
        {
          "name": "G#2",
          "midi": 44,
          "time": 23.03149875000004,
          "velocity": 0.31496062992125984,
          "duration": 0.015225149414064276
        },
        {
          "name": "E2",
          "midi": 40,
          "time": 23.03149875000004,
          "velocity": 0.6299212598425197,
          "duration": 0.015225149414064276
        },
        {
          "name": "D4",
          "midi": 62,
          "time": 23.03149875000004,
          "velocity": 0.6299212598425197,
          "duration": 0.015225149414064276
        },
        {
          "name": "F#3",
          "midi": 54,
          "time": 23.03149875000004,
          "velocity": 0.31496062992125984,
          "duration": 0.015225149414064276
        },
        {
          "name": "F#3",
          "midi": 54,
          "time": 23.14960900000004,
          "velocity": 0.47244094488188976,
          "duration": 0.015225149414064276
        },
        {
          "name": "G#2",
          "midi": 44,
          "time": 23.14960900000004,
          "velocity": 0.3937007874015748,
          "duration": 0.015225149414064276
        },
        {
          "name": "G#2",
          "midi": 44,
          "time": 23.26771925000004,
          "velocity": 0.31496062992125984,
          "duration": 0.015225149414064276
        },
        {
          "name": "E2",
          "midi": 40,
          "time": 23.26771925000004,
          "velocity": 0.6299212598425197,
          "duration": 0.015225149414064276
        },
        {
          "name": "D4",
          "midi": 62,
          "time": 23.26771925000004,
          "velocity": 0.6299212598425197,
          "duration": 0.015225149414064276
        },
        {
          "name": "F#3",
          "midi": 54,
          "time": 23.26771925000004,
          "velocity": 0.31496062992125984,
          "duration": 0.015225149414064276
        },
        {
          "name": "G#2",
          "midi": 44,
          "time": 23.385829500000042,
          "velocity": 0.3937007874015748,
          "duration": 0.015225149414064276
        },
        {
          "name": "E2",
          "midi": 40,
          "time": 23.385829500000042,
          "velocity": 0.6299212598425197,
          "duration": 0.015225149414064276
        },
        {
          "name": "D4",
          "midi": 62,
          "time": 23.385829500000042,
          "velocity": 0.6299212598425197,
          "duration": 0.015225149414064276
        },
        {
          "name": "F#3",
          "midi": 54,
          "time": 23.385829500000042,
          "velocity": 0.47244094488188976,
          "duration": 0.015225149414064276
        },
        {
          "name": "G#2",
          "midi": 44,
          "time": 23.503939750000043,
          "velocity": 0.31496062992125984,
          "duration": 0.015225149414064276
        },
        {
          "name": "E2",
          "midi": 40,
          "time": 23.503939750000043,
          "velocity": 0.3937007874015748,
          "duration": 0.015225149414064276
        },
        {
          "name": "D4",
          "midi": 62,
          "time": 23.503939750000043,
          "velocity": 0.3937007874015748,
          "duration": 0.015225149414064276
        },
        {
          "name": "F#3",
          "midi": 54,
          "time": 23.503939750000043,
          "velocity": 0.31496062992125984,
          "duration": 0.015225149414064276
        },
        {
          "name": "D4",
          "midi": 62,
          "time": 23.56022666601567,
          "velocity": 0.3937007874015748,
          "duration": 0.015225149414060724
        },
        {
          "name": "E2",
          "midi": 40,
          "time": 23.56022666601567,
          "velocity": 0.3937007874015748,
          "duration": 0.015225149414060724
        },
        {
          "name": "D4",
          "midi": 62,
          "time": 23.598981591796917,
          "velocity": 0.3937007874015748,
          "duration": 0.015225149414060724
        },
        {
          "name": "E2",
          "midi": 40,
          "time": 23.598981591796917,
          "velocity": 0.3937007874015748,
          "duration": 0.015225149414060724
        },
        {
          "name": "G#2",
          "midi": 44,
          "time": 23.62205000000004,
          "velocity": 0.3937007874015748,
          "duration": 0.015225149414060724
        },
        {
          "name": "E2",
          "midi": 40,
          "time": 23.62205000000004,
          "velocity": 0.6299212598425197,
          "duration": 0.015225149414060724
        },
        {
          "name": "D4",
          "midi": 62,
          "time": 23.62205000000004,
          "velocity": 0.6299212598425197,
          "duration": 0.015225149414060724
        },
        {
          "name": "F#3",
          "midi": 54,
          "time": 23.62205000000004,
          "velocity": 0.47244094488188976,
          "duration": 0.015225149414060724
        },
        {
          "name": "F#3",
          "midi": 54,
          "time": 23.740160250000038,
          "velocity": 0.31496062992125984,
          "duration": 0.015225149414064276
        },
        {
          "name": "G#2",
          "midi": 44,
          "time": 23.740160250000038,
          "velocity": 0.31496062992125984,
          "duration": 0.015225149414064276
        },
        {
          "name": "G#2",
          "midi": 44,
          "time": 23.85827050000004,
          "velocity": 0.3937007874015748,
          "duration": 0.015225149414064276
        },
        {
          "name": "E2",
          "midi": 40,
          "time": 23.85827050000004,
          "velocity": 0.6299212598425197,
          "duration": 0.015225149414064276
        },
        {
          "name": "D4",
          "midi": 62,
          "time": 23.85827050000004,
          "velocity": 0.6299212598425197,
          "duration": 0.015225149414064276
        },
        {
          "name": "F#3",
          "midi": 54,
          "time": 23.85827050000004,
          "velocity": 0.47244094488188976,
          "duration": 0.015225149414064276
        },
        {
          "name": "F#3",
          "midi": 54,
          "time": 23.97638075000004,
          "velocity": 0.31496062992125984,
          "duration": 0.015225149414064276
        },
        {
          "name": "G#2",
          "midi": 44,
          "time": 23.97638075000004,
          "velocity": 0.31496062992125984,
          "duration": 0.015225149414064276
        },
        {
          "name": "E2",
          "midi": 40,
          "time": 24.09449100000004,
          "velocity": 0.6299212598425197,
          "duration": 0.015225149414064276
        },
        {
          "name": "D4",
          "midi": 62,
          "time": 24.09449100000004,
          "velocity": 0.6299212598425197,
          "duration": 0.015225149414064276
        },
        {
          "name": "F#3",
          "midi": 54,
          "time": 24.09449100000004,
          "velocity": 0.47244094488188976,
          "duration": 0.015225149414064276
        },
        {
          "name": "G#2",
          "midi": 44,
          "time": 24.09449100000004,
          "velocity": 0.3937007874015748,
          "duration": 0.015225149414064276
        },
        {
          "name": "C2",
          "midi": 36,
          "time": 24.09449100000004,
          "velocity": 0.3937007874015748,
          "duration": 0.015225149414064276
        },
        {
          "name": "E3",
          "midi": 52,
          "time": 24.09449100000004,
          "velocity": 0.3937007874015748,
          "duration": 0.015225149414064276
        },
        {
          "name": "D2",
          "midi": 38,
          "time": 24.09449100000004,
          "velocity": 0.3937007874015748,
          "duration": 0.015225149414064276
        },
        {
          "name": "G#2",
          "midi": 44,
          "time": 24.21260125000004,
          "velocity": 0.31496062992125984,
          "duration": 0.015225149414064276
        },
        {
          "name": "E2",
          "midi": 40,
          "time": 24.21260125000004,
          "velocity": 0.3937007874015748,
          "duration": 0.015225149414064276
        },
        {
          "name": "D4",
          "midi": 62,
          "time": 24.21260125000004,
          "velocity": 0.3937007874015748,
          "duration": 0.015225149414064276
        },
        {
          "name": "F#3",
          "midi": 54,
          "time": 24.21260125000004,
          "velocity": 0.31496062992125984,
          "duration": 0.015225149414064276
        },
        {
          "name": "D4",
          "midi": 62,
          "time": 24.255969857421917,
          "velocity": 0.3937007874015748,
          "duration": 0.015225149414064276
        },
        {
          "name": "E2",
          "midi": 40,
          "time": 24.255969857421917,
          "velocity": 0.3937007874015748,
          "duration": 0.015225149414064276
        },
        {
          "name": "D4",
          "midi": 62,
          "time": 24.299338464843792,
          "velocity": 0.3937007874015748,
          "duration": 0.015225149414064276
        },
        {
          "name": "E2",
          "midi": 40,
          "time": 24.299338464843792,
          "velocity": 0.3937007874015748,
          "duration": 0.015225149414064276
        },
        {
          "name": "G#2",
          "midi": 44,
          "time": 24.330711500000046,
          "velocity": 0.3937007874015748,
          "duration": 0.015225149414060724
        },
        {
          "name": "E2",
          "midi": 40,
          "time": 24.330711500000046,
          "velocity": 0.6299212598425197,
          "duration": 0.015225149414060724
        },
        {
          "name": "D4",
          "midi": 62,
          "time": 24.330711500000046,
          "velocity": 0.6299212598425197,
          "duration": 0.015225149414060724
        },
        {
          "name": "F#3",
          "midi": 54,
          "time": 24.330711500000046,
          "velocity": 0.47244094488188976,
          "duration": 0.015225149414060724
        },
        {
          "name": "G#2",
          "midi": 44,
          "time": 24.448821750000043,
          "velocity": 0.31496062992125984,
          "duration": 0.015225149414064276
        },
        {
          "name": "E2",
          "midi": 40,
          "time": 24.448821750000043,
          "velocity": 0.6299212598425197,
          "duration": 0.015225149414064276
        },
        {
          "name": "D4",
          "midi": 62,
          "time": 24.448821750000043,
          "velocity": 0.6299212598425197,
          "duration": 0.015225149414064276
        },
        {
          "name": "F#3",
          "midi": 54,
          "time": 24.448821750000043,
          "velocity": 0.31496062992125984,
          "duration": 0.015225149414064276
        },
        {
          "name": "F#3",
          "midi": 54,
          "time": 24.566932000000044,
          "velocity": 0.47244094488188976,
          "duration": 0.015225149414064276
        },
        {
          "name": "G#2",
          "midi": 44,
          "time": 24.566932000000044,
          "velocity": 0.3937007874015748,
          "duration": 0.015225149414064276
        },
        {
          "name": "G#2",
          "midi": 44,
          "time": 24.685042250000045,
          "velocity": 0.31496062992125984,
          "duration": 0.015225149414064276
        },
        {
          "name": "E2",
          "midi": 40,
          "time": 24.685042250000045,
          "velocity": 0.6299212598425197,
          "duration": 0.015225149414064276
        },
        {
          "name": "D4",
          "midi": 62,
          "time": 24.685042250000045,
          "velocity": 0.6299212598425197,
          "duration": 0.015225149414064276
        },
        {
          "name": "F#3",
          "midi": 54,
          "time": 24.685042250000045,
          "velocity": 0.31496062992125984,
          "duration": 0.015225149414064276
        },
        {
          "name": "G#2",
          "midi": 44,
          "time": 24.803152500000046,
          "velocity": 0.3937007874015748,
          "duration": 0.015225149414064276
        },
        {
          "name": "E2",
          "midi": 40,
          "time": 24.803152500000046,
          "velocity": 0.6299212598425197,
          "duration": 0.015225149414064276
        },
        {
          "name": "D4",
          "midi": 62,
          "time": 24.803152500000046,
          "velocity": 0.6299212598425197,
          "duration": 0.015225149414064276
        },
        {
          "name": "F#3",
          "midi": 54,
          "time": 24.803152500000046,
          "velocity": 0.47244094488188976,
          "duration": 0.015225149414064276
        },
        {
          "name": "G#2",
          "midi": 44,
          "time": 24.921262750000047,
          "velocity": 0.31496062992125984,
          "duration": 0.015225149414064276
        },
        {
          "name": "E2",
          "midi": 40,
          "time": 24.921262750000047,
          "velocity": 0.3937007874015748,
          "duration": 0.015225149414064276
        },
        {
          "name": "D4",
          "midi": 62,
          "time": 24.921262750000047,
          "velocity": 0.3937007874015748,
          "duration": 0.015225149414064276
        },
        {
          "name": "F#3",
          "midi": 54,
          "time": 24.921262750000047,
          "velocity": 0.31496062992125984,
          "duration": 0.015225149414064276
        },
        {
          "name": "D4",
          "midi": 62,
          "time": 24.977549666015673,
          "velocity": 0.3937007874015748,
          "duration": 0.015225149414060724
        },
        {
          "name": "E2",
          "midi": 40,
          "time": 24.977549666015673,
          "velocity": 0.3937007874015748,
          "duration": 0.015225149414060724
        },
        {
          "name": "D4",
          "midi": 62,
          "time": 25.01630459179692,
          "velocity": 0.3937007874015748,
          "duration": 0.015225149414060724
        },
        {
          "name": "E2",
          "midi": 40,
          "time": 25.01630459179692,
          "velocity": 0.3937007874015748,
          "duration": 0.015225149414060724
        },
        {
          "name": "G#2",
          "midi": 44,
          "time": 25.039373000000044,
          "velocity": 0.3937007874015748,
          "duration": 0.015225149414060724
        },
        {
          "name": "E2",
          "midi": 40,
          "time": 25.039373000000044,
          "velocity": 0.6299212598425197,
          "duration": 0.015225149414060724
        },
        {
          "name": "D4",
          "midi": 62,
          "time": 25.039373000000044,
          "velocity": 0.6299212598425197,
          "duration": 0.015225149414060724
        },
        {
          "name": "F#3",
          "midi": 54,
          "time": 25.039373000000044,
          "velocity": 0.47244094488188976,
          "duration": 0.015225149414060724
        },
        {
          "name": "F#3",
          "midi": 54,
          "time": 25.15748325000004,
          "velocity": 0.31496062992125984,
          "duration": 0.015225149414064276
        },
        {
          "name": "G#2",
          "midi": 44,
          "time": 25.15748325000004,
          "velocity": 0.31496062992125984,
          "duration": 0.015225149414064276
        },
        {
          "name": "G#2",
          "midi": 44,
          "time": 25.275593500000042,
          "velocity": 0.3937007874015748,
          "duration": 0.015225149414064276
        },
        {
          "name": "E2",
          "midi": 40,
          "time": 25.275593500000042,
          "velocity": 0.6299212598425197,
          "duration": 0.015225149414064276
        },
        {
          "name": "D4",
          "midi": 62,
          "time": 25.275593500000042,
          "velocity": 0.6299212598425197,
          "duration": 0.015225149414064276
        },
        {
          "name": "F#3",
          "midi": 54,
          "time": 25.275593500000042,
          "velocity": 0.47244094488188976,
          "duration": 0.015225149414064276
        },
        {
          "name": "F#3",
          "midi": 54,
          "time": 25.393703750000043,
          "velocity": 0.31496062992125984,
          "duration": 0.015225149414064276
        },
        {
          "name": "G#2",
          "midi": 44,
          "time": 25.393703750000043,
          "velocity": 0.31496062992125984,
          "duration": 0.015225149414064276
        },
        {
          "name": "E2",
          "midi": 40,
          "time": 25.511814000000044,
          "velocity": 0.6299212598425197,
          "duration": 0.015225149414064276
        },
        {
          "name": "D4",
          "midi": 62,
          "time": 25.511814000000044,
          "velocity": 0.6299212598425197,
          "duration": 0.015225149414064276
        },
        {
          "name": "F#3",
          "midi": 54,
          "time": 25.511814000000044,
          "velocity": 0.47244094488188976,
          "duration": 0.015225149414064276
        },
        {
          "name": "G#2",
          "midi": 44,
          "time": 25.511814000000044,
          "velocity": 0.3937007874015748,
          "duration": 0.015225149414064276
        },
        {
          "name": "C2",
          "midi": 36,
          "time": 25.511814000000044,
          "velocity": 0.3937007874015748,
          "duration": 0.015225149414064276
        },
        {
          "name": "E3",
          "midi": 52,
          "time": 25.511814000000044,
          "velocity": 0.3937007874015748,
          "duration": 0.015225149414064276
        },
        {
          "name": "D2",
          "midi": 38,
          "time": 25.511814000000044,
          "velocity": 0.3937007874015748,
          "duration": 0.015225149414064276
        },
        {
          "name": "G#2",
          "midi": 44,
          "time": 25.629924250000045,
          "velocity": 0.31496062992125984,
          "duration": 0.015225149414064276
        },
        {
          "name": "E2",
          "midi": 40,
          "time": 25.629924250000045,
          "velocity": 0.3937007874015748,
          "duration": 0.015225149414064276
        },
        {
          "name": "D4",
          "midi": 62,
          "time": 25.629924250000045,
          "velocity": 0.3937007874015748,
          "duration": 0.015225149414064276
        },
        {
          "name": "F#3",
          "midi": 54,
          "time": 25.629924250000045,
          "velocity": 0.31496062992125984,
          "duration": 0.015225149414064276
        },
        {
          "name": "D4",
          "midi": 62,
          "time": 25.67329285742192,
          "velocity": 0.3937007874015748,
          "duration": 0.015225149414064276
        },
        {
          "name": "E2",
          "midi": 40,
          "time": 25.67329285742192,
          "velocity": 0.3937007874015748,
          "duration": 0.015225149414064276
        },
        {
          "name": "D4",
          "midi": 62,
          "time": 25.716661464843796,
          "velocity": 0.3937007874015748,
          "duration": 0.015225149414064276
        },
        {
          "name": "E2",
          "midi": 40,
          "time": 25.716661464843796,
          "velocity": 0.3937007874015748,
          "duration": 0.015225149414064276
        },
        {
          "name": "G#2",
          "midi": 44,
          "time": 25.74803450000005,
          "velocity": 0.3937007874015748,
          "duration": 0.015225149414060724
        },
        {
          "name": "E2",
          "midi": 40,
          "time": 25.74803450000005,
          "velocity": 0.6299212598425197,
          "duration": 0.015225149414060724
        },
        {
          "name": "D4",
          "midi": 62,
          "time": 25.74803450000005,
          "velocity": 0.6299212598425197,
          "duration": 0.015225149414060724
        },
        {
          "name": "F#3",
          "midi": 54,
          "time": 25.74803450000005,
          "velocity": 0.47244094488188976,
          "duration": 0.015225149414060724
        },
        {
          "name": "G#2",
          "midi": 44,
          "time": 25.866144750000046,
          "velocity": 0.31496062992125984,
          "duration": 0.015225149414064276
        },
        {
          "name": "E2",
          "midi": 40,
          "time": 25.866144750000046,
          "velocity": 0.6299212598425197,
          "duration": 0.015225149414064276
        },
        {
          "name": "D4",
          "midi": 62,
          "time": 25.866144750000046,
          "velocity": 0.6299212598425197,
          "duration": 0.015225149414064276
        },
        {
          "name": "F#3",
          "midi": 54,
          "time": 25.866144750000046,
          "velocity": 0.31496062992125984,
          "duration": 0.015225149414064276
        },
        {
          "name": "F#3",
          "midi": 54,
          "time": 25.984255000000047,
          "velocity": 0.47244094488188976,
          "duration": 0.015225149414064276
        },
        {
          "name": "G#2",
          "midi": 44,
          "time": 25.984255000000047,
          "velocity": 0.3937007874015748,
          "duration": 0.015225149414064276
        },
        {
          "name": "G#2",
          "midi": 44,
          "time": 26.102365250000048,
          "velocity": 0.31496062992125984,
          "duration": 0.015225149414064276
        },
        {
          "name": "E2",
          "midi": 40,
          "time": 26.102365250000048,
          "velocity": 0.6299212598425197,
          "duration": 0.015225149414064276
        },
        {
          "name": "D4",
          "midi": 62,
          "time": 26.102365250000048,
          "velocity": 0.6299212598425197,
          "duration": 0.015225149414064276
        },
        {
          "name": "F#3",
          "midi": 54,
          "time": 26.102365250000048,
          "velocity": 0.31496062992125984,
          "duration": 0.015225149414064276
        },
        {
          "name": "G#2",
          "midi": 44,
          "time": 26.22047550000005,
          "velocity": 0.3937007874015748,
          "duration": 0.015225149414064276
        },
        {
          "name": "E2",
          "midi": 40,
          "time": 26.22047550000005,
          "velocity": 0.6299212598425197,
          "duration": 0.015225149414064276
        },
        {
          "name": "D4",
          "midi": 62,
          "time": 26.22047550000005,
          "velocity": 0.6299212598425197,
          "duration": 0.015225149414064276
        },
        {
          "name": "F#3",
          "midi": 54,
          "time": 26.22047550000005,
          "velocity": 0.47244094488188976,
          "duration": 0.015225149414064276
        },
        {
          "name": "G#2",
          "midi": 44,
          "time": 26.33858575000005,
          "velocity": 0.31496062992125984,
          "duration": 0.015225149414064276
        },
        {
          "name": "E2",
          "midi": 40,
          "time": 26.33858575000005,
          "velocity": 0.3937007874015748,
          "duration": 0.015225149414064276
        },
        {
          "name": "D4",
          "midi": 62,
          "time": 26.33858575000005,
          "velocity": 0.3937007874015748,
          "duration": 0.015225149414064276
        },
        {
          "name": "F#3",
          "midi": 54,
          "time": 26.33858575000005,
          "velocity": 0.31496062992125984,
          "duration": 0.015225149414064276
        },
        {
          "name": "D4",
          "midi": 62,
          "time": 26.394872666015676,
          "velocity": 0.3937007874015748,
          "duration": 0.015225149414060724
        },
        {
          "name": "E2",
          "midi": 40,
          "time": 26.394872666015676,
          "velocity": 0.3937007874015748,
          "duration": 0.015225149414060724
        },
        {
          "name": "D4",
          "midi": 62,
          "time": 26.433627591796924,
          "velocity": 0.3937007874015748,
          "duration": 0.015225149414060724
        },
        {
          "name": "E2",
          "midi": 40,
          "time": 26.433627591796924,
          "velocity": 0.3937007874015748,
          "duration": 0.015225149414060724
        },
        {
          "name": "G#2",
          "midi": 44,
          "time": 26.456696000000047,
          "velocity": 0.3937007874015748,
          "duration": 0.015225149414060724
        },
        {
          "name": "E2",
          "midi": 40,
          "time": 26.456696000000047,
          "velocity": 0.6299212598425197,
          "duration": 0.015225149414060724
        },
        {
          "name": "D4",
          "midi": 62,
          "time": 26.456696000000047,
          "velocity": 0.6299212598425197,
          "duration": 0.015225149414060724
        },
        {
          "name": "F#3",
          "midi": 54,
          "time": 26.456696000000047,
          "velocity": 0.47244094488188976,
          "duration": 0.015225149414060724
        },
        {
          "name": "F#3",
          "midi": 54,
          "time": 26.574806250000044,
          "velocity": 0.31496062992125984,
          "duration": 0.015225149414064276
        },
        {
          "name": "G#2",
          "midi": 44,
          "time": 26.574806250000044,
          "velocity": 0.31496062992125984,
          "duration": 0.015225149414064276
        },
        {
          "name": "G#2",
          "midi": 44,
          "time": 26.692916500000045,
          "velocity": 0.3937007874015748,
          "duration": 0.015225149414064276
        },
        {
          "name": "E2",
          "midi": 40,
          "time": 26.692916500000045,
          "velocity": 0.6299212598425197,
          "duration": 0.015225149414064276
        },
        {
          "name": "D4",
          "midi": 62,
          "time": 26.692916500000045,
          "velocity": 0.6299212598425197,
          "duration": 0.015225149414064276
        },
        {
          "name": "F#3",
          "midi": 54,
          "time": 26.692916500000045,
          "velocity": 0.47244094488188976,
          "duration": 0.015225149414064276
        },
        {
          "name": "F#3",
          "midi": 54,
          "time": 26.811026750000046,
          "velocity": 0.31496062992125984,
          "duration": 0.015225149414064276
        },
        {
          "name": "G#2",
          "midi": 44,
          "time": 26.811026750000046,
          "velocity": 0.31496062992125984,
          "duration": 0.015225149414064276
        },
        {
          "name": "E2",
          "midi": 40,
          "time": 26.929137000000047,
          "velocity": 0.6299212598425197,
          "duration": 0.015225149414064276
        },
        {
          "name": "D4",
          "midi": 62,
          "time": 26.929137000000047,
          "velocity": 0.6299212598425197,
          "duration": 0.015225149414064276
        },
        {
          "name": "F#3",
          "midi": 54,
          "time": 26.929137000000047,
          "velocity": 0.47244094488188976,
          "duration": 0.015225149414064276
        },
        {
          "name": "G#2",
          "midi": 44,
          "time": 26.929137000000047,
          "velocity": 0.3937007874015748,
          "duration": 0.015225149414064276
        },
        {
          "name": "C2",
          "midi": 36,
          "time": 26.929137000000047,
          "velocity": 0.3937007874015748,
          "duration": 0.015225149414064276
        },
        {
          "name": "E3",
          "midi": 52,
          "time": 26.929137000000047,
          "velocity": 0.3937007874015748,
          "duration": 0.015225149414064276
        },
        {
          "name": "D2",
          "midi": 38,
          "time": 26.929137000000047,
          "velocity": 0.3937007874015748,
          "duration": 0.015225149414064276
        },
        {
          "name": "G#2",
          "midi": 44,
          "time": 27.047247250000048,
          "velocity": 0.31496062992125984,
          "duration": 0.015225149414064276
        },
        {
          "name": "E2",
          "midi": 40,
          "time": 27.047247250000048,
          "velocity": 0.3937007874015748,
          "duration": 0.015225149414064276
        },
        {
          "name": "D4",
          "midi": 62,
          "time": 27.047247250000048,
          "velocity": 0.3937007874015748,
          "duration": 0.015225149414064276
        },
        {
          "name": "F#3",
          "midi": 54,
          "time": 27.047247250000048,
          "velocity": 0.31496062992125984,
          "duration": 0.015225149414064276
        },
        {
          "name": "D4",
          "midi": 62,
          "time": 27.090615857421923,
          "velocity": 0.3937007874015748,
          "duration": 0.015225149414064276
        },
        {
          "name": "E2",
          "midi": 40,
          "time": 27.090615857421923,
          "velocity": 0.3937007874015748,
          "duration": 0.015225149414064276
        },
        {
          "name": "D4",
          "midi": 62,
          "time": 27.1339844648438,
          "velocity": 0.3937007874015748,
          "duration": 0.015225149414064276
        },
        {
          "name": "E2",
          "midi": 40,
          "time": 27.1339844648438,
          "velocity": 0.3937007874015748,
          "duration": 0.015225149414064276
        },
        {
          "name": "G#2",
          "midi": 44,
          "time": 27.165357500000052,
          "velocity": 0.3937007874015748,
          "duration": 0.015225149414060724
        },
        {
          "name": "E2",
          "midi": 40,
          "time": 27.165357500000052,
          "velocity": 0.6299212598425197,
          "duration": 0.015225149414060724
        },
        {
          "name": "D4",
          "midi": 62,
          "time": 27.165357500000052,
          "velocity": 0.6299212598425197,
          "duration": 0.015225149414060724
        },
        {
          "name": "F#3",
          "midi": 54,
          "time": 27.165357500000052,
          "velocity": 0.47244094488188976,
          "duration": 0.015225149414060724
        },
        {
          "name": "G#2",
          "midi": 44,
          "time": 27.28346775000005,
          "velocity": 0.31496062992125984,
          "duration": 0.015225149414064276
        },
        {
          "name": "E2",
          "midi": 40,
          "time": 27.28346775000005,
          "velocity": 0.6299212598425197,
          "duration": 0.015225149414064276
        },
        {
          "name": "D4",
          "midi": 62,
          "time": 27.28346775000005,
          "velocity": 0.6299212598425197,
          "duration": 0.015225149414064276
        },
        {
          "name": "F#3",
          "midi": 54,
          "time": 27.28346775000005,
          "velocity": 0.31496062992125984,
          "duration": 0.015225149414064276
        },
        {
          "name": "F#3",
          "midi": 54,
          "time": 27.40157800000005,
          "velocity": 0.47244094488188976,
          "duration": 0.015225149414064276
        },
        {
          "name": "G#2",
          "midi": 44,
          "time": 27.40157800000005,
          "velocity": 0.3937007874015748,
          "duration": 0.015225149414064276
        },
        {
          "name": "G#2",
          "midi": 44,
          "time": 27.51968825000005,
          "velocity": 0.31496062992125984,
          "duration": 0.015225149414064276
        },
        {
          "name": "E2",
          "midi": 40,
          "time": 27.51968825000005,
          "velocity": 0.6299212598425197,
          "duration": 0.015225149414064276
        },
        {
          "name": "D4",
          "midi": 62,
          "time": 27.51968825000005,
          "velocity": 0.6299212598425197,
          "duration": 0.015225149414064276
        },
        {
          "name": "F#3",
          "midi": 54,
          "time": 27.51968825000005,
          "velocity": 0.31496062992125984,
          "duration": 0.015225149414064276
        },
        {
          "name": "E2",
          "midi": 40,
          "time": 27.637798500000052,
          "velocity": 0.6299212598425197,
          "duration": 0.015225149414064276
        },
        {
          "name": "D4",
          "midi": 62,
          "time": 27.637798500000052,
          "velocity": 0.6299212598425197,
          "duration": 0.015225149414064276
        },
        {
          "name": "F#3",
          "midi": 54,
          "time": 27.637798500000052,
          "velocity": 0.47244094488188976,
          "duration": 0.015225149414064276
        },
        {
          "name": "G#2",
          "midi": 44,
          "time": 27.637798500000052,
          "velocity": 0.3937007874015748,
          "duration": 0.015225149414064276
        },
        {
          "name": "C2",
          "midi": 36,
          "time": 27.637798500000052,
          "velocity": 0.3937007874015748,
          "duration": 0.015225149414064276
        },
        {
          "name": "E3",
          "midi": 52,
          "time": 27.637798500000052,
          "velocity": 0.3937007874015748,
          "duration": 0.015225149414064276
        },
        {
          "name": "D2",
          "midi": 38,
          "time": 27.637798500000052,
          "velocity": 0.3937007874015748,
          "duration": 0.015225149414064276
        },
        {
          "name": "G#2",
          "midi": 44,
          "time": 27.755908750000053,
          "velocity": 0.31496062992125984,
          "duration": 0.015225149414064276
        },
        {
          "name": "E2",
          "midi": 40,
          "time": 27.755908750000053,
          "velocity": 0.3937007874015748,
          "duration": 0.015225149414064276
        },
        {
          "name": "D4",
          "midi": 62,
          "time": 27.755908750000053,
          "velocity": 0.3937007874015748,
          "duration": 0.015225149414064276
        },
        {
          "name": "F#3",
          "midi": 54,
          "time": 27.755908750000053,
          "velocity": 0.31496062992125984,
          "duration": 0.015225149414064276
        },
        {
          "name": "D4",
          "midi": 62,
          "time": 27.81219566601568,
          "velocity": 0.3937007874015748,
          "duration": 0.015225149414060724
        },
        {
          "name": "E2",
          "midi": 40,
          "time": 27.81219566601568,
          "velocity": 0.3937007874015748,
          "duration": 0.015225149414060724
        },
        {
          "name": "D4",
          "midi": 62,
          "time": 27.850950591796927,
          "velocity": 0.3937007874015748,
          "duration": 0.015225149414060724
        },
        {
          "name": "E2",
          "midi": 40,
          "time": 27.850950591796927,
          "velocity": 0.3937007874015748,
          "duration": 0.015225149414060724
        },
        {
          "name": "G#2",
          "midi": 44,
          "time": 27.87401900000005,
          "velocity": 0.3937007874015748,
          "duration": 0.015225149414060724
        },
        {
          "name": "E2",
          "midi": 40,
          "time": 27.87401900000005,
          "velocity": 0.6299212598425197,
          "duration": 0.015225149414060724
        },
        {
          "name": "D4",
          "midi": 62,
          "time": 27.87401900000005,
          "velocity": 0.6299212598425197,
          "duration": 0.015225149414060724
        },
        {
          "name": "F#3",
          "midi": 54,
          "time": 27.87401900000005,
          "velocity": 0.47244094488188976,
          "duration": 0.015225149414060724
        },
        {
          "name": "F#3",
          "midi": 54,
          "time": 27.992129250000048,
          "velocity": 0.31496062992125984,
          "duration": 0.015225149414064276
        },
        {
          "name": "G#2",
          "midi": 44,
          "time": 27.992129250000048,
          "velocity": 0.31496062992125984,
          "duration": 0.015225149414064276
        },
        {
          "name": "G#2",
          "midi": 44,
          "time": 28.11023950000005,
          "velocity": 0.3937007874015748,
          "duration": 0.015225149414064276
        },
        {
          "name": "E2",
          "midi": 40,
          "time": 28.11023950000005,
          "velocity": 0.6299212598425197,
          "duration": 0.015225149414064276
        },
        {
          "name": "D4",
          "midi": 62,
          "time": 28.11023950000005,
          "velocity": 0.6299212598425197,
          "duration": 0.015225149414064276
        },
        {
          "name": "F#3",
          "midi": 54,
          "time": 28.11023950000005,
          "velocity": 0.47244094488188976,
          "duration": 0.015225149414064276
        },
        {
          "name": "F#3",
          "midi": 54,
          "time": 28.22834975000005,
          "velocity": 0.31496062992125984,
          "duration": 0.015225149414064276
        },
        {
          "name": "G#2",
          "midi": 44,
          "time": 28.22834975000005,
          "velocity": 0.31496062992125984,
          "duration": 0.015225149414064276
        },
        {
          "name": "E2",
          "midi": 40,
          "time": 28.34646000000005,
          "velocity": 0.6299212598425197,
          "duration": 0.015225149414064276
        },
        {
          "name": "D4",
          "midi": 62,
          "time": 28.34646000000005,
          "velocity": 0.6299212598425197,
          "duration": 0.015225149414064276
        },
        {
          "name": "F#3",
          "midi": 54,
          "time": 28.34646000000005,
          "velocity": 0.47244094488188976,
          "duration": 0.015225149414064276
        },
        {
          "name": "G#2",
          "midi": 44,
          "time": 28.34646000000005,
          "velocity": 0.3937007874015748,
          "duration": 0.015225149414064276
        },
        {
          "name": "C2",
          "midi": 36,
          "time": 28.34646000000005,
          "velocity": 0.3937007874015748,
          "duration": 0.015225149414064276
        },
        {
          "name": "E3",
          "midi": 52,
          "time": 28.34646000000005,
          "velocity": 0.3937007874015748,
          "duration": 0.015225149414064276
        },
        {
          "name": "D2",
          "midi": 38,
          "time": 28.34646000000005,
          "velocity": 0.3937007874015748,
          "duration": 0.015225149414064276
        },
        {
          "name": "G#2",
          "midi": 44,
          "time": 28.46457025000005,
          "velocity": 0.31496062992125984,
          "duration": 0.015225149414064276
        },
        {
          "name": "E2",
          "midi": 40,
          "time": 28.46457025000005,
          "velocity": 0.3937007874015748,
          "duration": 0.015225149414064276
        },
        {
          "name": "D4",
          "midi": 62,
          "time": 28.46457025000005,
          "velocity": 0.3937007874015748,
          "duration": 0.015225149414064276
        },
        {
          "name": "F#3",
          "midi": 54,
          "time": 28.46457025000005,
          "velocity": 0.31496062992125984,
          "duration": 0.015225149414064276
        },
        {
          "name": "D4",
          "midi": 62,
          "time": 28.507938857421927,
          "velocity": 0.3937007874015748,
          "duration": 0.015225149414064276
        },
        {
          "name": "E2",
          "midi": 40,
          "time": 28.507938857421927,
          "velocity": 0.3937007874015748,
          "duration": 0.015225149414064276
        },
        {
          "name": "D4",
          "midi": 62,
          "time": 28.551307464843802,
          "velocity": 0.3937007874015748,
          "duration": 0.015225149414064276
        },
        {
          "name": "E2",
          "midi": 40,
          "time": 28.551307464843802,
          "velocity": 0.3937007874015748,
          "duration": 0.015225149414064276
        },
        {
          "name": "G#2",
          "midi": 44,
          "time": 28.582680500000055,
          "velocity": 0.3937007874015748,
          "duration": 0.015225149414060724
        },
        {
          "name": "E2",
          "midi": 40,
          "time": 28.582680500000055,
          "velocity": 0.6299212598425197,
          "duration": 0.015225149414060724
        },
        {
          "name": "D4",
          "midi": 62,
          "time": 28.582680500000055,
          "velocity": 0.6299212598425197,
          "duration": 0.015225149414060724
        },
        {
          "name": "F#3",
          "midi": 54,
          "time": 28.582680500000055,
          "velocity": 0.47244094488188976,
          "duration": 0.015225149414060724
        },
        {
          "name": "G#2",
          "midi": 44,
          "time": 28.700790750000053,
          "velocity": 0.31496062992125984,
          "duration": 0.015225149414064276
        },
        {
          "name": "E2",
          "midi": 40,
          "time": 28.700790750000053,
          "velocity": 0.6299212598425197,
          "duration": 0.015225149414064276
        },
        {
          "name": "D4",
          "midi": 62,
          "time": 28.700790750000053,
          "velocity": 0.6299212598425197,
          "duration": 0.015225149414064276
        },
        {
          "name": "F#3",
          "midi": 54,
          "time": 28.700790750000053,
          "velocity": 0.31496062992125984,
          "duration": 0.015225149414064276
        },
        {
          "name": "F#3",
          "midi": 54,
          "time": 28.818901000000054,
          "velocity": 0.47244094488188976,
          "duration": 0.015225149414064276
        },
        {
          "name": "G#2",
          "midi": 44,
          "time": 28.818901000000054,
          "velocity": 0.3937007874015748,
          "duration": 0.015225149414064276
        },
        {
          "name": "G#2",
          "midi": 44,
          "time": 28.937011250000054,
          "velocity": 0.31496062992125984,
          "duration": 0.015225149414064276
        },
        {
          "name": "E2",
          "midi": 40,
          "time": 28.937011250000054,
          "velocity": 0.6299212598425197,
          "duration": 0.015225149414064276
        },
        {
          "name": "D4",
          "midi": 62,
          "time": 28.937011250000054,
          "velocity": 0.6299212598425197,
          "duration": 0.015225149414064276
        },
        {
          "name": "F#3",
          "midi": 54,
          "time": 28.937011250000054,
          "velocity": 0.31496062992125984,
          "duration": 0.015225149414064276
        },
        {
          "name": "G#2",
          "midi": 44,
          "time": 29.055121500000055,
          "velocity": 0.3937007874015748,
          "duration": 0.015225149414064276
        },
        {
          "name": "E2",
          "midi": 40,
          "time": 29.055121500000055,
          "velocity": 0.6299212598425197,
          "duration": 0.015225149414064276
        },
        {
          "name": "D4",
          "midi": 62,
          "time": 29.055121500000055,
          "velocity": 0.6299212598425197,
          "duration": 0.015225149414064276
        },
        {
          "name": "F#3",
          "midi": 54,
          "time": 29.055121500000055,
          "velocity": 0.47244094488188976,
          "duration": 0.015225149414064276
        },
        {
          "name": "G#2",
          "midi": 44,
          "time": 29.173231750000056,
          "velocity": 0.31496062992125984,
          "duration": 0.015225149414064276
        },
        {
          "name": "E2",
          "midi": 40,
          "time": 29.173231750000056,
          "velocity": 0.3937007874015748,
          "duration": 0.015225149414064276
        },
        {
          "name": "D4",
          "midi": 62,
          "time": 29.173231750000056,
          "velocity": 0.3937007874015748,
          "duration": 0.015225149414064276
        },
        {
          "name": "F#3",
          "midi": 54,
          "time": 29.173231750000056,
          "velocity": 0.31496062992125984,
          "duration": 0.015225149414064276
        },
        {
          "name": "D4",
          "midi": 62,
          "time": 29.229518666015682,
          "velocity": 0.3937007874015748,
          "duration": 0.015225149414060724
        },
        {
          "name": "E2",
          "midi": 40,
          "time": 29.229518666015682,
          "velocity": 0.3937007874015748,
          "duration": 0.015225149414060724
        },
        {
          "name": "D4",
          "midi": 62,
          "time": 29.26827359179693,
          "velocity": 0.3937007874015748,
          "duration": 0.015225149414060724
        },
        {
          "name": "E2",
          "midi": 40,
          "time": 29.26827359179693,
          "velocity": 0.3937007874015748,
          "duration": 0.015225149414060724
        },
        {
          "name": "G#2",
          "midi": 44,
          "time": 29.291342000000054,
          "velocity": 0.3937007874015748,
          "duration": 0.015225149414060724
        },
        {
          "name": "E2",
          "midi": 40,
          "time": 29.291342000000054,
          "velocity": 0.6299212598425197,
          "duration": 0.015225149414060724
        },
        {
          "name": "D4",
          "midi": 62,
          "time": 29.291342000000054,
          "velocity": 0.6299212598425197,
          "duration": 0.015225149414060724
        },
        {
          "name": "F#3",
          "midi": 54,
          "time": 29.291342000000054,
          "velocity": 0.47244094488188976,
          "duration": 0.015225149414060724
        },
        {
          "name": "F#3",
          "midi": 54,
          "time": 29.40945225000005,
          "velocity": 0.31496062992125984,
          "duration": 0.015225149414064276
        },
        {
          "name": "G#2",
          "midi": 44,
          "time": 29.40945225000005,
          "velocity": 0.31496062992125984,
          "duration": 0.015225149414064276
        },
        {
          "name": "G#2",
          "midi": 44,
          "time": 29.52756250000005,
          "velocity": 0.3937007874015748,
          "duration": 0.015225149414064276
        },
        {
          "name": "E2",
          "midi": 40,
          "time": 29.52756250000005,
          "velocity": 0.6299212598425197,
          "duration": 0.015225149414064276
        },
        {
          "name": "D4",
          "midi": 62,
          "time": 29.52756250000005,
          "velocity": 0.6299212598425197,
          "duration": 0.015225149414064276
        },
        {
          "name": "F#3",
          "midi": 54,
          "time": 29.52756250000005,
          "velocity": 0.47244094488188976,
          "duration": 0.015225149414064276
        },
        {
          "name": "F#3",
          "midi": 54,
          "time": 29.645672750000053,
          "velocity": 0.31496062992125984,
          "duration": 0.015225149414064276
        },
        {
          "name": "G#2",
          "midi": 44,
          "time": 29.645672750000053,
          "velocity": 0.31496062992125984,
          "duration": 0.015225149414064276
        },
        {
          "name": "E2",
          "midi": 40,
          "time": 29.763783000000053,
          "velocity": 0.6299212598425197,
          "duration": 0.015225149414064276
        },
        {
          "name": "D4",
          "midi": 62,
          "time": 29.763783000000053,
          "velocity": 0.6299212598425197,
          "duration": 0.015225149414064276
        },
        {
          "name": "F#3",
          "midi": 54,
          "time": 29.763783000000053,
          "velocity": 0.47244094488188976,
          "duration": 0.015225149414064276
        },
        {
          "name": "G#2",
          "midi": 44,
          "time": 29.763783000000053,
          "velocity": 0.3937007874015748,
          "duration": 0.015225149414064276
        },
        {
          "name": "C2",
          "midi": 36,
          "time": 29.763783000000053,
          "velocity": 0.3937007874015748,
          "duration": 0.015225149414064276
        },
        {
          "name": "E3",
          "midi": 52,
          "time": 29.763783000000053,
          "velocity": 0.3937007874015748,
          "duration": 0.015225149414064276
        },
        {
          "name": "D2",
          "midi": 38,
          "time": 29.763783000000053,
          "velocity": 0.3937007874015748,
          "duration": 0.015225149414064276
        },
        {
          "name": "G#2",
          "midi": 44,
          "time": 29.881893250000054,
          "velocity": 0.31496062992125984,
          "duration": 0.015225149414064276
        },
        {
          "name": "E2",
          "midi": 40,
          "time": 29.881893250000054,
          "velocity": 0.3937007874015748,
          "duration": 0.015225149414064276
        },
        {
          "name": "D4",
          "midi": 62,
          "time": 29.881893250000054,
          "velocity": 0.3937007874015748,
          "duration": 0.015225149414064276
        },
        {
          "name": "F#3",
          "midi": 54,
          "time": 29.881893250000054,
          "velocity": 0.31496062992125984,
          "duration": 0.015225149414064276
        },
        {
          "name": "D4",
          "midi": 62,
          "time": 29.92526185742193,
          "velocity": 0.3937007874015748,
          "duration": 0.015225149414064276
        },
        {
          "name": "E2",
          "midi": 40,
          "time": 29.92526185742193,
          "velocity": 0.3937007874015748,
          "duration": 0.015225149414064276
        },
        {
          "name": "D4",
          "midi": 62,
          "time": 29.968630464843805,
          "velocity": 0.3937007874015748,
          "duration": 0.015225149414064276
        },
        {
          "name": "E2",
          "midi": 40,
          "time": 29.968630464843805,
          "velocity": 0.3937007874015748,
          "duration": 0.015225149414064276
        },
        {
          "name": "G#2",
          "midi": 44,
          "time": 30.00000350000006,
          "velocity": 0.3937007874015748,
          "duration": 0.015225149414060724
        },
        {
          "name": "E2",
          "midi": 40,
          "time": 30.00000350000006,
          "velocity": 0.6299212598425197,
          "duration": 0.015225149414060724
        },
        {
          "name": "D4",
          "midi": 62,
          "time": 30.00000350000006,
          "velocity": 0.6299212598425197,
          "duration": 0.015225149414060724
        },
        {
          "name": "F#3",
          "midi": 54,
          "time": 30.00000350000006,
          "velocity": 0.47244094488188976,
          "duration": 0.015225149414060724
        },
        {
          "name": "G#2",
          "midi": 44,
          "time": 30.118113750000056,
          "velocity": 0.31496062992125984,
          "duration": 0.015225149414064276
        },
        {
          "name": "E2",
          "midi": 40,
          "time": 30.118113750000056,
          "velocity": 0.6299212598425197,
          "duration": 0.015225149414064276
        },
        {
          "name": "D4",
          "midi": 62,
          "time": 30.118113750000056,
          "velocity": 0.6299212598425197,
          "duration": 0.015225149414064276
        },
        {
          "name": "F#3",
          "midi": 54,
          "time": 30.118113750000056,
          "velocity": 0.31496062992125984,
          "duration": 0.015225149414064276
        },
        {
          "name": "F#3",
          "midi": 54,
          "time": 30.236224000000057,
          "velocity": 0.47244094488188976,
          "duration": 0.015225149414064276
        },
        {
          "name": "G#2",
          "midi": 44,
          "time": 30.236224000000057,
          "velocity": 0.3937007874015748,
          "duration": 0.015225149414064276
        },
        {
          "name": "G#2",
          "midi": 44,
          "time": 30.354334250000058,
          "velocity": 0.31496062992125984,
          "duration": 0.015225149414064276
        },
        {
          "name": "E2",
          "midi": 40,
          "time": 30.354334250000058,
          "velocity": 0.6299212598425197,
          "duration": 0.015225149414064276
        },
        {
          "name": "D4",
          "midi": 62,
          "time": 30.354334250000058,
          "velocity": 0.6299212598425197,
          "duration": 0.015225149414064276
        },
        {
          "name": "F#3",
          "midi": 54,
          "time": 30.354334250000058,
          "velocity": 0.31496062992125984,
          "duration": 0.015225149414064276
        },
        {
          "name": "G#2",
          "midi": 44,
          "time": 30.47244450000006,
          "velocity": 0.3937007874015748,
          "duration": 0.015225149414064276
        },
        {
          "name": "E2",
          "midi": 40,
          "time": 30.47244450000006,
          "velocity": 0.6299212598425197,
          "duration": 0.015225149414064276
        },
        {
          "name": "D4",
          "midi": 62,
          "time": 30.47244450000006,
          "velocity": 0.6299212598425197,
          "duration": 0.015225149414064276
        },
        {
          "name": "F#3",
          "midi": 54,
          "time": 30.47244450000006,
          "velocity": 0.47244094488188976,
          "duration": 0.015225149414064276
        },
        {
          "name": "G#2",
          "midi": 44,
          "time": 30.59055475000006,
          "velocity": 0.31496062992125984,
          "duration": 0.015225149414064276
        },
        {
          "name": "E2",
          "midi": 40,
          "time": 30.59055475000006,
          "velocity": 0.3937007874015748,
          "duration": 0.015225149414064276
        },
        {
          "name": "D4",
          "midi": 62,
          "time": 30.59055475000006,
          "velocity": 0.3937007874015748,
          "duration": 0.015225149414064276
        },
        {
          "name": "F#3",
          "midi": 54,
          "time": 30.59055475000006,
          "velocity": 0.31496062992125984,
          "duration": 0.015225149414064276
        },
        {
          "name": "D4",
          "midi": 62,
          "time": 30.646841666015685,
          "velocity": 0.3937007874015748,
          "duration": 0.015225149414060724
        },
        {
          "name": "E2",
          "midi": 40,
          "time": 30.646841666015685,
          "velocity": 0.3937007874015748,
          "duration": 0.015225149414060724
        },
        {
          "name": "D4",
          "midi": 62,
          "time": 30.685596591796934,
          "velocity": 0.3937007874015748,
          "duration": 0.015225149414060724
        },
        {
          "name": "E2",
          "midi": 40,
          "time": 30.685596591796934,
          "velocity": 0.3937007874015748,
          "duration": 0.015225149414060724
        },
        {
          "name": "G#2",
          "midi": 44,
          "time": 30.708665000000057,
          "velocity": 0.3937007874015748,
          "duration": 0.015225149414060724
        },
        {
          "name": "E2",
          "midi": 40,
          "time": 30.708665000000057,
          "velocity": 0.6299212598425197,
          "duration": 0.015225149414060724
        },
        {
          "name": "D4",
          "midi": 62,
          "time": 30.708665000000057,
          "velocity": 0.6299212598425197,
          "duration": 0.015225149414060724
        },
        {
          "name": "F#3",
          "midi": 54,
          "time": 30.708665000000057,
          "velocity": 0.47244094488188976,
          "duration": 0.015225149414060724
        },
        {
          "name": "F#3",
          "midi": 54,
          "time": 30.826775250000054,
          "velocity": 0.31496062992125984,
          "duration": 0.015225149414064276
        },
        {
          "name": "G#2",
          "midi": 44,
          "time": 30.826775250000054,
          "velocity": 0.31496062992125984,
          "duration": 0.015225149414064276
        },
        {
          "name": "G#2",
          "midi": 44,
          "time": 30.944885500000055,
          "velocity": 0.3937007874015748,
          "duration": 0.015225149414064276
        },
        {
          "name": "E2",
          "midi": 40,
          "time": 30.944885500000055,
          "velocity": 0.6299212598425197,
          "duration": 0.015225149414064276
        },
        {
          "name": "D4",
          "midi": 62,
          "time": 30.944885500000055,
          "velocity": 0.6299212598425197,
          "duration": 0.015225149414064276
        },
        {
          "name": "F#3",
          "midi": 54,
          "time": 30.944885500000055,
          "velocity": 0.47244094488188976,
          "duration": 0.015225149414064276
        },
        {
          "name": "F#3",
          "midi": 54,
          "time": 31.062995750000056,
          "velocity": 0.31496062992125984,
          "duration": 0.015225149414064276
        },
        {
          "name": "G#2",
          "midi": 44,
          "time": 31.062995750000056,
          "velocity": 0.31496062992125984,
          "duration": 0.015225149414064276
        },
        {
          "name": "E2",
          "midi": 40,
          "time": 31.181106000000057,
          "velocity": 0.6299212598425197,
          "duration": 0.015225149414064276
        },
        {
          "name": "D4",
          "midi": 62,
          "time": 31.181106000000057,
          "velocity": 0.6299212598425197,
          "duration": 0.015225149414064276
        },
        {
          "name": "F#3",
          "midi": 54,
          "time": 31.181106000000057,
          "velocity": 0.47244094488188976,
          "duration": 0.015225149414064276
        },
        {
          "name": "G#2",
          "midi": 44,
          "time": 31.181106000000057,
          "velocity": 0.3937007874015748,
          "duration": 0.015225149414064276
        },
        {
          "name": "C2",
          "midi": 36,
          "time": 31.181106000000057,
          "velocity": 0.3937007874015748,
          "duration": 0.015225149414064276
        },
        {
          "name": "E3",
          "midi": 52,
          "time": 31.181106000000057,
          "velocity": 0.3937007874015748,
          "duration": 0.015225149414064276
        },
        {
          "name": "D2",
          "midi": 38,
          "time": 31.181106000000057,
          "velocity": 0.3937007874015748,
          "duration": 0.015225149414064276
        },
        {
          "name": "G#2",
          "midi": 44,
          "time": 31.299216250000057,
          "velocity": 0.31496062992125984,
          "duration": 0.015225149414064276
        },
        {
          "name": "E2",
          "midi": 40,
          "time": 31.299216250000057,
          "velocity": 0.3937007874015748,
          "duration": 0.015225149414064276
        },
        {
          "name": "D4",
          "midi": 62,
          "time": 31.299216250000057,
          "velocity": 0.3937007874015748,
          "duration": 0.015225149414064276
        },
        {
          "name": "F#3",
          "midi": 54,
          "time": 31.299216250000057,
          "velocity": 0.31496062992125984,
          "duration": 0.015225149414064276
        },
        {
          "name": "D4",
          "midi": 62,
          "time": 31.342584857421933,
          "velocity": 0.3937007874015748,
          "duration": 0.015225149414064276
        },
        {
          "name": "E2",
          "midi": 40,
          "time": 31.342584857421933,
          "velocity": 0.3937007874015748,
          "duration": 0.015225149414064276
        },
        {
          "name": "D4",
          "midi": 62,
          "time": 31.38595346484381,
          "velocity": 0.3937007874015748,
          "duration": 0.015225149414064276
        },
        {
          "name": "E2",
          "midi": 40,
          "time": 31.38595346484381,
          "velocity": 0.3937007874015748,
          "duration": 0.015225149414064276
        },
        {
          "name": "G#2",
          "midi": 44,
          "time": 31.417326500000062,
          "velocity": 0.3937007874015748,
          "duration": 0.015225149414060724
        },
        {
          "name": "E2",
          "midi": 40,
          "time": 31.417326500000062,
          "velocity": 0.6299212598425197,
          "duration": 0.015225149414060724
        },
        {
          "name": "D4",
          "midi": 62,
          "time": 31.417326500000062,
          "velocity": 0.6299212598425197,
          "duration": 0.015225149414060724
        },
        {
          "name": "F#3",
          "midi": 54,
          "time": 31.417326500000062,
          "velocity": 0.47244094488188976,
          "duration": 0.015225149414060724
        },
        {
          "name": "G#2",
          "midi": 44,
          "time": 31.53543675000006,
          "velocity": 0.31496062992125984,
          "duration": 0.015225149414064276
        },
        {
          "name": "E2",
          "midi": 40,
          "time": 31.53543675000006,
          "velocity": 0.6299212598425197,
          "duration": 0.015225149414064276
        },
        {
          "name": "D4",
          "midi": 62,
          "time": 31.53543675000006,
          "velocity": 0.6299212598425197,
          "duration": 0.015225149414064276
        },
        {
          "name": "F#3",
          "midi": 54,
          "time": 31.53543675000006,
          "velocity": 0.31496062992125984,
          "duration": 0.015225149414064276
        },
        {
          "name": "F#3",
          "midi": 54,
          "time": 31.65354700000006,
          "velocity": 0.47244094488188976,
          "duration": 0.015225149414064276
        },
        {
          "name": "G#2",
          "midi": 44,
          "time": 31.65354700000006,
          "velocity": 0.3937007874015748,
          "duration": 0.015225149414064276
        },
        {
          "name": "G#2",
          "midi": 44,
          "time": 31.77165725000006,
          "velocity": 0.31496062992125984,
          "duration": 0.015225149414064276
        },
        {
          "name": "E2",
          "midi": 40,
          "time": 31.77165725000006,
          "velocity": 0.6299212598425197,
          "duration": 0.015225149414064276
        },
        {
          "name": "D4",
          "midi": 62,
          "time": 31.77165725000006,
          "velocity": 0.6299212598425197,
          "duration": 0.015225149414064276
        },
        {
          "name": "F#3",
          "midi": 54,
          "time": 31.77165725000006,
          "velocity": 0.31496062992125984,
          "duration": 0.015225149414064276
        },
        {
          "name": "G#2",
          "midi": 44,
          "time": 31.88976750000006,
          "velocity": 0.3937007874015748,
          "duration": 0.015225149414064276
        },
        {
          "name": "E2",
          "midi": 40,
          "time": 31.88976750000006,
          "velocity": 0.6299212598425197,
          "duration": 0.015225149414064276
        },
        {
          "name": "D4",
          "midi": 62,
          "time": 31.88976750000006,
          "velocity": 0.6299212598425197,
          "duration": 0.015225149414064276
        },
        {
          "name": "F#3",
          "midi": 54,
          "time": 31.88976750000006,
          "velocity": 0.47244094488188976,
          "duration": 0.015225149414064276
        },
        {
          "name": "G#2",
          "midi": 44,
          "time": 32.00787775000006,
          "velocity": 0.31496062992125984,
          "duration": 0.015225149414064276
        },
        {
          "name": "E2",
          "midi": 40,
          "time": 32.00787775000006,
          "velocity": 0.3937007874015748,
          "duration": 0.015225149414064276
        },
        {
          "name": "D4",
          "midi": 62,
          "time": 32.00787775000006,
          "velocity": 0.3937007874015748,
          "duration": 0.015225149414064276
        },
        {
          "name": "F#3",
          "midi": 54,
          "time": 32.00787775000006,
          "velocity": 0.31496062992125984,
          "duration": 0.015225149414064276
        },
        {
          "name": "D4",
          "midi": 62,
          "time": 32.06416466601569,
          "velocity": 0.3937007874015748,
          "duration": 0.015225149414064276
        },
        {
          "name": "E2",
          "midi": 40,
          "time": 32.06416466601569,
          "velocity": 0.3937007874015748,
          "duration": 0.015225149414064276
        },
        {
          "name": "D4",
          "midi": 62,
          "time": 32.10291959179695,
          "velocity": 0.3937007874015748,
          "duration": 0.015225149414064276
        },
        {
          "name": "E2",
          "midi": 40,
          "time": 32.10291959179695,
          "velocity": 0.3937007874015748,
          "duration": 0.015225149414064276
        },
        {
          "name": "G#2",
          "midi": 44,
          "time": 32.12598800000008,
          "velocity": 0.3937007874015748,
          "duration": 0.015225149414064276
        },
        {
          "name": "E2",
          "midi": 40,
          "time": 32.12598800000008,
          "velocity": 0.6299212598425197,
          "duration": 0.015225149414064276
        },
        {
          "name": "D4",
          "midi": 62,
          "time": 32.12598800000008,
          "velocity": 0.6299212598425197,
          "duration": 0.015225149414064276
        },
        {
          "name": "F#3",
          "midi": 54,
          "time": 32.12598800000008,
          "velocity": 0.47244094488188976,
          "duration": 0.015225149414064276
        },
        {
          "name": "F#3",
          "midi": 54,
          "time": 32.24409825000008,
          "velocity": 0.31496062992125984,
          "duration": 0.015225149414064276
        },
        {
          "name": "G#2",
          "midi": 44,
          "time": 32.24409825000008,
          "velocity": 0.31496062992125984,
          "duration": 0.015225149414064276
        },
        {
          "name": "G#2",
          "midi": 44,
          "time": 32.36220850000008,
          "velocity": 0.3937007874015748,
          "duration": 0.015225149414064276
        },
        {
          "name": "E2",
          "midi": 40,
          "time": 32.36220850000008,
          "velocity": 0.6299212598425197,
          "duration": 0.015225149414064276
        },
        {
          "name": "D4",
          "midi": 62,
          "time": 32.36220850000008,
          "velocity": 0.6299212598425197,
          "duration": 0.015225149414064276
        },
        {
          "name": "F#3",
          "midi": 54,
          "time": 32.36220850000008,
          "velocity": 0.47244094488188976,
          "duration": 0.015225149414064276
        },
        {
          "name": "F#3",
          "midi": 54,
          "time": 32.48031875000008,
          "velocity": 0.31496062992125984,
          "duration": 0.015225149414064276
        },
        {
          "name": "G#2",
          "midi": 44,
          "time": 32.48031875000008,
          "velocity": 0.31496062992125984,
          "duration": 0.015225149414064276
        },
        {
          "name": "E2",
          "midi": 40,
          "time": 32.59842900000008,
          "velocity": 0.6299212598425197,
          "duration": 0.015225149414064276
        },
        {
          "name": "D4",
          "midi": 62,
          "time": 32.59842900000008,
          "velocity": 0.6299212598425197,
          "duration": 0.015225149414064276
        },
        {
          "name": "F#3",
          "midi": 54,
          "time": 32.59842900000008,
          "velocity": 0.47244094488188976,
          "duration": 0.015225149414064276
        },
        {
          "name": "G#2",
          "midi": 44,
          "time": 32.59842900000008,
          "velocity": 0.3937007874015748,
          "duration": 0.015225149414064276
        },
        {
          "name": "C2",
          "midi": 36,
          "time": 32.59842900000008,
          "velocity": 0.3937007874015748,
          "duration": 0.015225149414064276
        },
        {
          "name": "E3",
          "midi": 52,
          "time": 32.59842900000008,
          "velocity": 0.3937007874015748,
          "duration": 0.015225149414064276
        },
        {
          "name": "D2",
          "midi": 38,
          "time": 32.59842900000008,
          "velocity": 0.3937007874015748,
          "duration": 0.015225149414064276
        },
        {
          "name": "G#2",
          "midi": 44,
          "time": 32.71653925000008,
          "velocity": 0.31496062992125984,
          "duration": 0.015225149414064276
        },
        {
          "name": "E2",
          "midi": 40,
          "time": 32.71653925000008,
          "velocity": 0.3937007874015748,
          "duration": 0.015225149414064276
        },
        {
          "name": "D4",
          "midi": 62,
          "time": 32.71653925000008,
          "velocity": 0.3937007874015748,
          "duration": 0.015225149414064276
        },
        {
          "name": "F#3",
          "midi": 54,
          "time": 32.71653925000008,
          "velocity": 0.31496062992125984,
          "duration": 0.015225149414064276
        },
        {
          "name": "D4",
          "midi": 62,
          "time": 32.75990785742196,
          "velocity": 0.3937007874015748,
          "duration": 0.015225149414064276
        },
        {
          "name": "E2",
          "midi": 40,
          "time": 32.75990785742196,
          "velocity": 0.3937007874015748,
          "duration": 0.015225149414064276
        },
        {
          "name": "D4",
          "midi": 62,
          "time": 32.80327646484383,
          "velocity": 0.3937007874015748,
          "duration": 0.015225149414064276
        },
        {
          "name": "E2",
          "midi": 40,
          "time": 32.80327646484383,
          "velocity": 0.3937007874015748,
          "duration": 0.015225149414064276
        },
        {
          "name": "G#2",
          "midi": 44,
          "time": 32.83464950000008,
          "velocity": 0.3937007874015748,
          "duration": 0.015225149414064276
        },
        {
          "name": "E2",
          "midi": 40,
          "time": 32.83464950000008,
          "velocity": 0.6299212598425197,
          "duration": 0.015225149414064276
        },
        {
          "name": "D4",
          "midi": 62,
          "time": 32.83464950000008,
          "velocity": 0.6299212598425197,
          "duration": 0.015225149414064276
        },
        {
          "name": "F#3",
          "midi": 54,
          "time": 32.83464950000008,
          "velocity": 0.47244094488188976,
          "duration": 0.015225149414064276
        },
        {
          "name": "G#2",
          "midi": 44,
          "time": 32.952759750000084,
          "velocity": 0.31496062992125984,
          "duration": 0.015225149414064276
        },
        {
          "name": "E2",
          "midi": 40,
          "time": 32.952759750000084,
          "velocity": 0.6299212598425197,
          "duration": 0.015225149414064276
        },
        {
          "name": "D4",
          "midi": 62,
          "time": 32.952759750000084,
          "velocity": 0.6299212598425197,
          "duration": 0.015225149414064276
        },
        {
          "name": "F#3",
          "midi": 54,
          "time": 32.952759750000084,
          "velocity": 0.31496062992125984,
          "duration": 0.015225149414064276
        },
        {
          "name": "F#3",
          "midi": 54,
          "time": 33.070870000000085,
          "velocity": 0.47244094488188976,
          "duration": 0.015225149414064276
        },
        {
          "name": "G#2",
          "midi": 44,
          "time": 33.070870000000085,
          "velocity": 0.3937007874015748,
          "duration": 0.015225149414064276
        },
        {
          "name": "G#2",
          "midi": 44,
          "time": 33.188980250000085,
          "velocity": 0.31496062992125984,
          "duration": 0.015225149414064276
        },
        {
          "name": "E2",
          "midi": 40,
          "time": 33.188980250000085,
          "velocity": 0.6299212598425197,
          "duration": 0.015225149414064276
        },
        {
          "name": "D4",
          "midi": 62,
          "time": 33.188980250000085,
          "velocity": 0.6299212598425197,
          "duration": 0.015225149414064276
        },
        {
          "name": "F#3",
          "midi": 54,
          "time": 33.188980250000085,
          "velocity": 0.31496062992125984,
          "duration": 0.015225149414064276
        },
        {
          "name": "E2",
          "midi": 40,
          "time": 33.307090500000086,
          "velocity": 0.6299212598425197,
          "duration": 0.015225149414064276
        },
        {
          "name": "D4",
          "midi": 62,
          "time": 33.307090500000086,
          "velocity": 0.6299212598425197,
          "duration": 0.015225149414064276
        },
        {
          "name": "F#3",
          "midi": 54,
          "time": 33.307090500000086,
          "velocity": 0.47244094488188976,
          "duration": 0.015225149414064276
        },
        {
          "name": "G#2",
          "midi": 44,
          "time": 33.307090500000086,
          "velocity": 0.3937007874015748,
          "duration": 0.015225149414064276
        },
        {
          "name": "C2",
          "midi": 36,
          "time": 33.307090500000086,
          "velocity": 0.3937007874015748,
          "duration": 0.015225149414064276
        },
        {
          "name": "E3",
          "midi": 52,
          "time": 33.307090500000086,
          "velocity": 0.3937007874015748,
          "duration": 0.015225149414064276
        },
        {
          "name": "D2",
          "midi": 38,
          "time": 33.307090500000086,
          "velocity": 0.3937007874015748,
          "duration": 0.015225149414064276
        },
        {
          "name": "G#2",
          "midi": 44,
          "time": 33.42520075000009,
          "velocity": 0.31496062992125984,
          "duration": 0.015225149414064276
        },
        {
          "name": "E2",
          "midi": 40,
          "time": 33.42520075000009,
          "velocity": 0.3937007874015748,
          "duration": 0.015225149414064276
        },
        {
          "name": "D4",
          "midi": 62,
          "time": 33.42520075000009,
          "velocity": 0.3937007874015748,
          "duration": 0.015225149414064276
        },
        {
          "name": "F#3",
          "midi": 54,
          "time": 33.42520075000009,
          "velocity": 0.31496062992125984,
          "duration": 0.015225149414064276
        },
        {
          "name": "D4",
          "midi": 62,
          "time": 33.48148766601572,
          "velocity": 0.3937007874015748,
          "duration": 0.015225149414064276
        },
        {
          "name": "E2",
          "midi": 40,
          "time": 33.48148766601572,
          "velocity": 0.3937007874015748,
          "duration": 0.015225149414064276
        },
        {
          "name": "D4",
          "midi": 62,
          "time": 33.52024259179697,
          "velocity": 0.3937007874015748,
          "duration": 0.015225149414064276
        },
        {
          "name": "E2",
          "midi": 40,
          "time": 33.52024259179697,
          "velocity": 0.3937007874015748,
          "duration": 0.015225149414064276
        },
        {
          "name": "G#2",
          "midi": 44,
          "time": 33.5433110000001,
          "velocity": 0.3937007874015748,
          "duration": 0.015225149414064276
        },
        {
          "name": "E2",
          "midi": 40,
          "time": 33.5433110000001,
          "velocity": 0.6299212598425197,
          "duration": 0.015225149414064276
        },
        {
          "name": "D4",
          "midi": 62,
          "time": 33.5433110000001,
          "velocity": 0.6299212598425197,
          "duration": 0.015225149414064276
        },
        {
          "name": "F#3",
          "midi": 54,
          "time": 33.5433110000001,
          "velocity": 0.47244094488188976,
          "duration": 0.015225149414064276
        },
        {
          "name": "F#3",
          "midi": 54,
          "time": 33.6614212500001,
          "velocity": 0.31496062992125984,
          "duration": 0.015225149414064276
        },
        {
          "name": "G#2",
          "midi": 44,
          "time": 33.6614212500001,
          "velocity": 0.31496062992125984,
          "duration": 0.015225149414064276
        },
        {
          "name": "G#2",
          "midi": 44,
          "time": 33.779531500000104,
          "velocity": 0.3937007874015748,
          "duration": 0.015225149414064276
        },
        {
          "name": "E2",
          "midi": 40,
          "time": 33.779531500000104,
          "velocity": 0.6299212598425197,
          "duration": 0.015225149414064276
        },
        {
          "name": "D4",
          "midi": 62,
          "time": 33.779531500000104,
          "velocity": 0.6299212598425197,
          "duration": 0.015225149414064276
        },
        {
          "name": "F#3",
          "midi": 54,
          "time": 33.779531500000104,
          "velocity": 0.47244094488188976,
          "duration": 0.015225149414064276
        },
        {
          "name": "F#3",
          "midi": 54,
          "time": 33.897641750000105,
          "velocity": 0.31496062992125984,
          "duration": 0.015225149414064276
        },
        {
          "name": "G#2",
          "midi": 44,
          "time": 33.897641750000105,
          "velocity": 0.31496062992125984,
          "duration": 0.015225149414064276
        },
        {
          "name": "E2",
          "midi": 40,
          "time": 34.015752000000106,
          "velocity": 0.6299212598425197,
          "duration": 0.015225149414064276
        },
        {
          "name": "D4",
          "midi": 62,
          "time": 34.015752000000106,
          "velocity": 0.6299212598425197,
          "duration": 0.015225149414064276
        },
        {
          "name": "F#3",
          "midi": 54,
          "time": 34.015752000000106,
          "velocity": 0.47244094488188976,
          "duration": 0.015225149414064276
        },
        {
          "name": "G#2",
          "midi": 44,
          "time": 34.015752000000106,
          "velocity": 0.3937007874015748,
          "duration": 0.015225149414064276
        },
        {
          "name": "C2",
          "midi": 36,
          "time": 34.015752000000106,
          "velocity": 0.3937007874015748,
          "duration": 0.015225149414064276
        },
        {
          "name": "E3",
          "midi": 52,
          "time": 34.015752000000106,
          "velocity": 0.3937007874015748,
          "duration": 0.015225149414064276
        },
        {
          "name": "D2",
          "midi": 38,
          "time": 34.015752000000106,
          "velocity": 0.3937007874015748,
          "duration": 0.015225149414064276
        },
        {
          "name": "G#2",
          "midi": 44,
          "time": 34.13386225000011,
          "velocity": 0.31496062992125984,
          "duration": 0.015225149414064276
        },
        {
          "name": "E2",
          "midi": 40,
          "time": 34.13386225000011,
          "velocity": 0.3937007874015748,
          "duration": 0.015225149414064276
        },
        {
          "name": "D4",
          "midi": 62,
          "time": 34.13386225000011,
          "velocity": 0.3937007874015748,
          "duration": 0.015225149414064276
        },
        {
          "name": "F#3",
          "midi": 54,
          "time": 34.13386225000011,
          "velocity": 0.31496062992125984,
          "duration": 0.015225149414064276
        },
        {
          "name": "D4",
          "midi": 62,
          "time": 34.17723085742198,
          "velocity": 0.3937007874015748,
          "duration": 0.015225149414064276
        },
        {
          "name": "E2",
          "midi": 40,
          "time": 34.17723085742198,
          "velocity": 0.3937007874015748,
          "duration": 0.015225149414064276
        },
        {
          "name": "D4",
          "midi": 62,
          "time": 34.22059946484386,
          "velocity": 0.3937007874015748,
          "duration": 0.015225149414064276
        },
        {
          "name": "E2",
          "midi": 40,
          "time": 34.22059946484386,
          "velocity": 0.3937007874015748,
          "duration": 0.015225149414064276
        },
        {
          "name": "G#2",
          "midi": 44,
          "time": 34.25197250000011,
          "velocity": 0.3937007874015748,
          "duration": 0.015225149414064276
        },
        {
          "name": "E2",
          "midi": 40,
          "time": 34.25197250000011,
          "velocity": 0.6299212598425197,
          "duration": 0.015225149414064276
        },
        {
          "name": "D4",
          "midi": 62,
          "time": 34.25197250000011,
          "velocity": 0.6299212598425197,
          "duration": 0.015225149414064276
        },
        {
          "name": "F#3",
          "midi": 54,
          "time": 34.25197250000011,
          "velocity": 0.47244094488188976,
          "duration": 0.015225149414064276
        },
        {
          "name": "G#2",
          "midi": 44,
          "time": 34.37008275000011,
          "velocity": 0.31496062992125984,
          "duration": 0.015225149414064276
        },
        {
          "name": "E2",
          "midi": 40,
          "time": 34.37008275000011,
          "velocity": 0.6299212598425197,
          "duration": 0.015225149414064276
        },
        {
          "name": "D4",
          "midi": 62,
          "time": 34.37008275000011,
          "velocity": 0.6299212598425197,
          "duration": 0.015225149414064276
        },
        {
          "name": "F#3",
          "midi": 54,
          "time": 34.37008275000011,
          "velocity": 0.31496062992125984,
          "duration": 0.015225149414064276
        },
        {
          "name": "F#3",
          "midi": 54,
          "time": 34.48819300000011,
          "velocity": 0.47244094488188976,
          "duration": 0.015225149414064276
        },
        {
          "name": "G#2",
          "midi": 44,
          "time": 34.48819300000011,
          "velocity": 0.3937007874015748,
          "duration": 0.015225149414064276
        },
        {
          "name": "G#2",
          "midi": 44,
          "time": 34.60630325000011,
          "velocity": 0.31496062992125984,
          "duration": 0.015225149414064276
        },
        {
          "name": "E2",
          "midi": 40,
          "time": 34.60630325000011,
          "velocity": 0.6299212598425197,
          "duration": 0.015225149414064276
        },
        {
          "name": "D4",
          "midi": 62,
          "time": 34.60630325000011,
          "velocity": 0.6299212598425197,
          "duration": 0.015225149414064276
        },
        {
          "name": "F#3",
          "midi": 54,
          "time": 34.60630325000011,
          "velocity": 0.31496062992125984,
          "duration": 0.015225149414064276
        },
        {
          "name": "E2",
          "midi": 40,
          "time": 34.72441350000011,
          "velocity": 0.6299212598425197,
          "duration": 0.015225149414064276
        },
        {
          "name": "D4",
          "midi": 62,
          "time": 34.72441350000011,
          "velocity": 0.6299212598425197,
          "duration": 0.015225149414064276
        },
        {
          "name": "F#3",
          "midi": 54,
          "time": 34.72441350000011,
          "velocity": 0.47244094488188976,
          "duration": 0.015225149414064276
        },
        {
          "name": "G#2",
          "midi": 44,
          "time": 34.72441350000011,
          "velocity": 0.3937007874015748,
          "duration": 0.015225149414064276
        },
        {
          "name": "C2",
          "midi": 36,
          "time": 34.72441350000011,
          "velocity": 0.3937007874015748,
          "duration": 0.015225149414064276
        },
        {
          "name": "E3",
          "midi": 52,
          "time": 34.72441350000011,
          "velocity": 0.3937007874015748,
          "duration": 0.015225149414064276
        },
        {
          "name": "D2",
          "midi": 38,
          "time": 34.72441350000011,
          "velocity": 0.3937007874015748,
          "duration": 0.015225149414064276
        },
        {
          "name": "G#2",
          "midi": 44,
          "time": 34.84252375000011,
          "velocity": 0.31496062992125984,
          "duration": 0.015225149414064276
        },
        {
          "name": "E2",
          "midi": 40,
          "time": 34.84252375000011,
          "velocity": 0.3937007874015748,
          "duration": 0.015225149414064276
        },
        {
          "name": "D4",
          "midi": 62,
          "time": 34.84252375000011,
          "velocity": 0.3937007874015748,
          "duration": 0.015225149414064276
        },
        {
          "name": "F#3",
          "midi": 54,
          "time": 34.84252375000011,
          "velocity": 0.31496062992125984,
          "duration": 0.015225149414064276
        },
        {
          "name": "D4",
          "midi": 62,
          "time": 34.89881066601574,
          "velocity": 0.3937007874015748,
          "duration": 0.015225149414064276
        },
        {
          "name": "E2",
          "midi": 40,
          "time": 34.89881066601574,
          "velocity": 0.3937007874015748,
          "duration": 0.015225149414064276
        },
        {
          "name": "D4",
          "midi": 62,
          "time": 34.937565591797,
          "velocity": 0.3937007874015748,
          "duration": 0.015225149414064276
        },
        {
          "name": "E2",
          "midi": 40,
          "time": 34.937565591797,
          "velocity": 0.3937007874015748,
          "duration": 0.015225149414064276
        },
        {
          "name": "G#2",
          "midi": 44,
          "time": 34.96063400000013,
          "velocity": 0.3937007874015748,
          "duration": 0.015225149414064276
        },
        {
          "name": "E2",
          "midi": 40,
          "time": 34.96063400000013,
          "velocity": 0.6299212598425197,
          "duration": 0.015225149414064276
        },
        {
          "name": "D4",
          "midi": 62,
          "time": 34.96063400000013,
          "velocity": 0.6299212598425197,
          "duration": 0.015225149414064276
        },
        {
          "name": "F#3",
          "midi": 54,
          "time": 34.96063400000013,
          "velocity": 0.47244094488188976,
          "duration": 0.015225149414064276
        },
        {
          "name": "F#3",
          "midi": 54,
          "time": 35.07874425000013,
          "velocity": 0.31496062992125984,
          "duration": 0.015225149414064276
        },
        {
          "name": "G#2",
          "midi": 44,
          "time": 35.07874425000013,
          "velocity": 0.31496062992125984,
          "duration": 0.015225149414064276
        },
        {
          "name": "G#2",
          "midi": 44,
          "time": 35.19685450000013,
          "velocity": 0.3937007874015748,
          "duration": 0.015225149414064276
        },
        {
          "name": "E2",
          "midi": 40,
          "time": 35.19685450000013,
          "velocity": 0.6299212598425197,
          "duration": 0.015225149414064276
        },
        {
          "name": "D4",
          "midi": 62,
          "time": 35.19685450000013,
          "velocity": 0.6299212598425197,
          "duration": 0.015225149414064276
        },
        {
          "name": "F#3",
          "midi": 54,
          "time": 35.19685450000013,
          "velocity": 0.47244094488188976,
          "duration": 0.015225149414064276
        },
        {
          "name": "F#3",
          "midi": 54,
          "time": 35.31496475000013,
          "velocity": 0.31496062992125984,
          "duration": 0.015225149414064276
        },
        {
          "name": "G#2",
          "midi": 44,
          "time": 35.31496475000013,
          "velocity": 0.31496062992125984,
          "duration": 0.015225149414064276
        },
        {
          "name": "D2",
          "midi": 38,
          "time": 35.43307500000013,
          "velocity": 0.3937007874015748,
          "duration": 0.015225149414064276
        },
        {
          "name": "E2",
          "midi": 40,
          "time": 35.43307500000013,
          "velocity": 0.6299212598425197,
          "duration": 0.015225149414064276
        },
        {
          "name": "D4",
          "midi": 62,
          "time": 35.43307500000013,
          "velocity": 0.6299212598425197,
          "duration": 0.015225149414064276
        },
        {
          "name": "F#3",
          "midi": 54,
          "time": 35.43307500000013,
          "velocity": 0.47244094488188976,
          "duration": 0.015225149414064276
        },
        {
          "name": "G#2",
          "midi": 44,
          "time": 35.43307500000013,
          "velocity": 0.3937007874015748,
          "duration": 0.015225149414064276
        },
        {
          "name": "E3",
          "midi": 52,
          "time": 35.43307500000013,
          "velocity": 0.3937007874015748,
          "duration": 0.015225149414064276
        },
        {
          "name": "C2",
          "midi": 36,
          "time": 35.43307500000013,
          "velocity": 0.3937007874015748,
          "duration": 0.015225149414064276
        },
        {
          "name": "F#3",
          "midi": 54,
          "time": 35.55118525000013,
          "velocity": 0.31496062992125984,
          "duration": 0.015225149414064276
        },
        {
          "name": "G#2",
          "midi": 44,
          "time": 35.55118525000013,
          "velocity": 0.31496062992125984,
          "duration": 0.015225149414064276
        },
        {
          "name": "E2",
          "midi": 40,
          "time": 35.55118525000013,
          "velocity": 0.3937007874015748,
          "duration": 0.015225149414064276
        },
        {
          "name": "D4",
          "midi": 62,
          "time": 35.55118525000013,
          "velocity": 0.3937007874015748,
          "duration": 0.015225149414064276
        },
        {
          "name": "E2",
          "midi": 40,
          "time": 35.59455385742201,
          "velocity": 0.3937007874015748,
          "duration": 0.015225149414064276
        },
        {
          "name": "D4",
          "midi": 62,
          "time": 35.59455385742201,
          "velocity": 0.3937007874015748,
          "duration": 0.015225149414064276
        },
        {
          "name": "E2",
          "midi": 40,
          "time": 35.63792246484388,
          "velocity": 0.3937007874015748,
          "duration": 0.015225149414064276
        },
        {
          "name": "D4",
          "midi": 62,
          "time": 35.63792246484388,
          "velocity": 0.3937007874015748,
          "duration": 0.015225149414064276
        },
        {
          "name": "F#3",
          "midi": 54,
          "time": 35.66929550000013,
          "velocity": 0.47244094488188976,
          "duration": 0.015225149414064276
        },
        {
          "name": "G#2",
          "midi": 44,
          "time": 35.66929550000013,
          "velocity": 0.3937007874015748,
          "duration": 0.015225149414064276
        },
        {
          "name": "E2",
          "midi": 40,
          "time": 35.66929550000013,
          "velocity": 0.6299212598425197,
          "duration": 0.015225149414064276
        },
        {
          "name": "D4",
          "midi": 62,
          "time": 35.66929550000013,
          "velocity": 0.6299212598425197,
          "duration": 0.015225149414064276
        },
        {
          "name": "F#3",
          "midi": 54,
          "time": 35.78740575000013,
          "velocity": 0.31496062992125984,
          "duration": 0.015225149414064276
        },
        {
          "name": "G#2",
          "midi": 44,
          "time": 35.78740575000013,
          "velocity": 0.31496062992125984,
          "duration": 0.015225149414064276
        },
        {
          "name": "E2",
          "midi": 40,
          "time": 35.78740575000013,
          "velocity": 0.6299212598425197,
          "duration": 0.015225149414064276
        },
        {
          "name": "D4",
          "midi": 62,
          "time": 35.78740575000013,
          "velocity": 0.6299212598425197,
          "duration": 0.015225149414064276
        },
        {
          "name": "G#2",
          "midi": 44,
          "time": 35.905516000000134,
          "velocity": 0.3937007874015748,
          "duration": 0.015225149414064276
        },
        {
          "name": "F#3",
          "midi": 54,
          "time": 35.905516000000134,
          "velocity": 0.47244094488188976,
          "duration": 0.015225149414064276
        },
        {
          "name": "F#3",
          "midi": 54,
          "time": 36.023626250000135,
          "velocity": 0.31496062992125984,
          "duration": 0.015225149414064276
        },
        {
          "name": "G#2",
          "midi": 44,
          "time": 36.023626250000135,
          "velocity": 0.31496062992125984,
          "duration": 0.015225149414064276
        },
        {
          "name": "E2",
          "midi": 40,
          "time": 36.023626250000135,
          "velocity": 0.6299212598425197,
          "duration": 0.015225149414064276
        },
        {
          "name": "D4",
          "midi": 62,
          "time": 36.023626250000135,
          "velocity": 0.6299212598425197,
          "duration": 0.015225149414064276
        },
        {
          "name": "D2",
          "midi": 38,
          "time": 36.141736500000135,
          "velocity": 0.3937007874015748,
          "duration": 0.015225149414064276
        },
        {
          "name": "E2",
          "midi": 40,
          "time": 36.141736500000135,
          "velocity": 0.6299212598425197,
          "duration": 0.015225149414064276
        },
        {
          "name": "D4",
          "midi": 62,
          "time": 36.141736500000135,
          "velocity": 0.6299212598425197,
          "duration": 0.015225149414064276
        },
        {
          "name": "F#3",
          "midi": 54,
          "time": 36.141736500000135,
          "velocity": 0.47244094488188976,
          "duration": 0.015225149414064276
        },
        {
          "name": "G#2",
          "midi": 44,
          "time": 36.141736500000135,
          "velocity": 0.3937007874015748,
          "duration": 0.015225149414064276
        },
        {
          "name": "E3",
          "midi": 52,
          "time": 36.141736500000135,
          "velocity": 0.3937007874015748,
          "duration": 0.015225149414064276
        },
        {
          "name": "C2",
          "midi": 36,
          "time": 36.141736500000135,
          "velocity": 0.3937007874015748,
          "duration": 0.015225149414064276
        },
        {
          "name": "F#3",
          "midi": 54,
          "time": 36.259846750000136,
          "velocity": 0.31496062992125984,
          "duration": 0.015225149414064276
        },
        {
          "name": "G#2",
          "midi": 44,
          "time": 36.259846750000136,
          "velocity": 0.31496062992125984,
          "duration": 0.015225149414064276
        },
        {
          "name": "E2",
          "midi": 40,
          "time": 36.259846750000136,
          "velocity": 0.3937007874015748,
          "duration": 0.015225149414064276
        },
        {
          "name": "D4",
          "midi": 62,
          "time": 36.259846750000136,
          "velocity": 0.3937007874015748,
          "duration": 0.015225149414064276
        },
        {
          "name": "E2",
          "midi": 40,
          "time": 36.316133666015766,
          "velocity": 0.3937007874015748,
          "duration": 0.015225149414064276
        },
        {
          "name": "D4",
          "midi": 62,
          "time": 36.316133666015766,
          "velocity": 0.3937007874015748,
          "duration": 0.015225149414064276
        },
        {
          "name": "E2",
          "midi": 40,
          "time": 36.35488859179702,
          "velocity": 0.3937007874015748,
          "duration": 0.015225149414064276
        },
        {
          "name": "D4",
          "midi": 62,
          "time": 36.35488859179702,
          "velocity": 0.3937007874015748,
          "duration": 0.015225149414064276
        },
        {
          "name": "F#3",
          "midi": 54,
          "time": 36.37795700000015,
          "velocity": 0.47244094488188976,
          "duration": 0.015225149414064276
        },
        {
          "name": "G#2",
          "midi": 44,
          "time": 36.37795700000015,
          "velocity": 0.3937007874015748,
          "duration": 0.015225149414064276
        },
        {
          "name": "E2",
          "midi": 40,
          "time": 36.37795700000015,
          "velocity": 0.6299212598425197,
          "duration": 0.015225149414064276
        },
        {
          "name": "D4",
          "midi": 62,
          "time": 36.37795700000015,
          "velocity": 0.6299212598425197,
          "duration": 0.015225149414064276
        },
        {
          "name": "G#2",
          "midi": 44,
          "time": 36.49606725000015,
          "velocity": 0.31496062992125984,
          "duration": 0.015225149414064276
        },
        {
          "name": "F#3",
          "midi": 54,
          "time": 36.49606725000015,
          "velocity": 0.31496062992125984,
          "duration": 0.015225149414064276
        },
        {
          "name": "F#3",
          "midi": 54,
          "time": 36.61417750000015,
          "velocity": 0.47244094488188976,
          "duration": 0.015225149414064276
        },
        {
          "name": "G#2",
          "midi": 44,
          "time": 36.61417750000015,
          "velocity": 0.3937007874015748,
          "duration": 0.015225149414064276
        },
        {
          "name": "E2",
          "midi": 40,
          "time": 36.61417750000015,
          "velocity": 0.6299212598425197,
          "duration": 0.015225149414064276
        },
        {
          "name": "D4",
          "midi": 62,
          "time": 36.61417750000015,
          "velocity": 0.6299212598425197,
          "duration": 0.015225149414064276
        },
        {
          "name": "G#2",
          "midi": 44,
          "time": 36.732287750000154,
          "velocity": 0.31496062992125984,
          "duration": 0.015225149414064276
        },
        {
          "name": "F#3",
          "midi": 54,
          "time": 36.732287750000154,
          "velocity": 0.31496062992125984,
          "duration": 0.015225149414064276
        },
        {
          "name": "C2",
          "midi": 36,
          "time": 36.850398000000155,
          "velocity": 0.3937007874015748,
          "duration": 0.015225149414064276
        },
        {
          "name": "D2",
          "midi": 38,
          "time": 36.850398000000155,
          "velocity": 0.3937007874015748,
          "duration": 0.015225149414064276
        },
        {
          "name": "E2",
          "midi": 40,
          "time": 36.850398000000155,
          "velocity": 0.6299212598425197,
          "duration": 0.015225149414064276
        },
        {
          "name": "D4",
          "midi": 62,
          "time": 36.850398000000155,
          "velocity": 0.6299212598425197,
          "duration": 0.015225149414064276
        },
        {
          "name": "F#3",
          "midi": 54,
          "time": 36.850398000000155,
          "velocity": 0.47244094488188976,
          "duration": 0.015225149414064276
        },
        {
          "name": "E3",
          "midi": 52,
          "time": 36.850398000000155,
          "velocity": 0.3937007874015748,
          "duration": 0.015225149414064276
        },
        {
          "name": "G#2",
          "midi": 44,
          "time": 36.850398000000155,
          "velocity": 0.3937007874015748,
          "duration": 0.015225149414064276
        },
        {
          "name": "D4",
          "midi": 62,
          "time": 36.968508250000156,
          "velocity": 0.3937007874015748,
          "duration": 0.015225149414064276
        },
        {
          "name": "F#3",
          "midi": 54,
          "time": 36.968508250000156,
          "velocity": 0.31496062992125984,
          "duration": 0.015225149414064276
        },
        {
          "name": "G#2",
          "midi": 44,
          "time": 36.968508250000156,
          "velocity": 0.31496062992125984,
          "duration": 0.015225149414064276
        },
        {
          "name": "E2",
          "midi": 40,
          "time": 36.968508250000156,
          "velocity": 0.3937007874015748,
          "duration": 0.015225149414064276
        },
        {
          "name": "D4",
          "midi": 62,
          "time": 37.01187685742203,
          "velocity": 0.3937007874015748,
          "duration": 0.015225149414064276
        },
        {
          "name": "E2",
          "midi": 40,
          "time": 37.01187685742203,
          "velocity": 0.3937007874015748,
          "duration": 0.015225149414064276
        },
        {
          "name": "D4",
          "midi": 62,
          "time": 37.05524546484391,
          "velocity": 0.3937007874015748,
          "duration": 0.015225149414064276
        },
        {
          "name": "E2",
          "midi": 40,
          "time": 37.05524546484391,
          "velocity": 0.3937007874015748,
          "duration": 0.015225149414064276
        },
        {
          "name": "D4",
          "midi": 62,
          "time": 37.08661850000016,
          "velocity": 0.6299212598425197,
          "duration": 0.015225149414064276
        },
        {
          "name": "F#3",
          "midi": 54,
          "time": 37.08661850000016,
          "velocity": 0.47244094488188976,
          "duration": 0.015225149414064276
        },
        {
          "name": "G#2",
          "midi": 44,
          "time": 37.08661850000016,
          "velocity": 0.3937007874015748,
          "duration": 0.015225149414064276
        },
        {
          "name": "E2",
          "midi": 40,
          "time": 37.08661850000016,
          "velocity": 0.6299212598425197,
          "duration": 0.015225149414064276
        },
        {
          "name": "D4",
          "midi": 62,
          "time": 37.20472875000016,
          "velocity": 0.6299212598425197,
          "duration": 0.015225149414064276
        },
        {
          "name": "F#3",
          "midi": 54,
          "time": 37.20472875000016,
          "velocity": 0.31496062992125984,
          "duration": 0.015225149414064276
        },
        {
          "name": "G#2",
          "midi": 44,
          "time": 37.20472875000016,
          "velocity": 0.31496062992125984,
          "duration": 0.015225149414064276
        },
        {
          "name": "E2",
          "midi": 40,
          "time": 37.20472875000016,
          "velocity": 0.6299212598425197,
          "duration": 0.015225149414064276
        },
        {
          "name": "F#3",
          "midi": 54,
          "time": 37.32283900000016,
          "velocity": 0.47244094488188976,
          "duration": 0.015225149414064276
        },
        {
          "name": "G#2",
          "midi": 44,
          "time": 37.32283900000016,
          "velocity": 0.3937007874015748,
          "duration": 0.015225149414064276
        },
        {
          "name": "D4",
          "midi": 62,
          "time": 37.44094925000016,
          "velocity": 0.6299212598425197,
          "duration": 0.015225149414064276
        },
        {
          "name": "F#3",
          "midi": 54,
          "time": 37.44094925000016,
          "velocity": 0.31496062992125984,
          "duration": 0.015225149414064276
        },
        {
          "name": "G#2",
          "midi": 44,
          "time": 37.44094925000016,
          "velocity": 0.31496062992125984,
          "duration": 0.015225149414064276
        },
        {
          "name": "E2",
          "midi": 40,
          "time": 37.44094925000016,
          "velocity": 0.6299212598425197,
          "duration": 0.015225149414064276
        },
        {
          "name": "C2",
          "midi": 36,
          "time": 37.55905950000016,
          "velocity": 0.3937007874015748,
          "duration": 0.015225149414064276
        },
        {
          "name": "D2",
          "midi": 38,
          "time": 37.55905950000016,
          "velocity": 0.3937007874015748,
          "duration": 0.015225149414064276
        },
        {
          "name": "E2",
          "midi": 40,
          "time": 37.55905950000016,
          "velocity": 0.6299212598425197,
          "duration": 0.015225149414064276
        },
        {
          "name": "D4",
          "midi": 62,
          "time": 37.55905950000016,
          "velocity": 0.6299212598425197,
          "duration": 0.015225149414064276
        },
        {
          "name": "F#3",
          "midi": 54,
          "time": 37.55905950000016,
          "velocity": 0.47244094488188976,
          "duration": 0.015225149414064276
        },
        {
          "name": "E3",
          "midi": 52,
          "time": 37.55905950000016,
          "velocity": 0.3937007874015748,
          "duration": 0.015225149414064276
        },
        {
          "name": "G#2",
          "midi": 44,
          "time": 37.55905950000016,
          "velocity": 0.3937007874015748,
          "duration": 0.015225149414064276
        },
        {
          "name": "F#3",
          "midi": 54,
          "time": 38.267721000000165,
          "velocity": 0.47244094488188976,
          "duration": 0.015225149414064276
        },
        {
          "name": "E2",
          "midi": 40,
          "time": 38.267721000000165,
          "velocity": 0.6299212598425197,
          "duration": 0.015225149414064276
        },
        {
          "name": "G#2",
          "midi": 44,
          "time": 38.267721000000165,
          "velocity": 0.3937007874015748,
          "duration": 0.015225149414064276
        },
        {
          "name": "D4",
          "midi": 62,
          "time": 38.267721000000165,
          "velocity": 0.6299212598425197,
          "duration": 0.015225149414064276
        },
        {
          "name": "F#3",
          "midi": 54,
          "time": 38.385831250000166,
          "velocity": 0.31496062992125984,
          "duration": 0.015225149414064276
        },
        {
          "name": "E2",
          "midi": 40,
          "time": 38.385831250000166,
          "velocity": 0.3937007874015748,
          "duration": 0.015225149414064276
        },
        {
          "name": "G#2",
          "midi": 44,
          "time": 38.385831250000166,
          "velocity": 0.31496062992125984,
          "duration": 0.015225149414064276
        },
        {
          "name": "D4",
          "midi": 62,
          "time": 38.385831250000166,
          "velocity": 0.3937007874015748,
          "duration": 0.015225149414064276
        },
        {
          "name": "E2",
          "midi": 40,
          "time": 38.42919985742204,
          "velocity": 0.3937007874015748,
          "duration": 0.015225149414064276
        },
        {
          "name": "D4",
          "midi": 62,
          "time": 38.42919985742204,
          "velocity": 0.3937007874015748,
          "duration": 0.015225149414064276
        },
        {
          "name": "E2",
          "midi": 40,
          "time": 38.47256846484392,
          "velocity": 0.3937007874015748,
          "duration": 0.015225149414064276
        },
        {
          "name": "D4",
          "midi": 62,
          "time": 38.47256846484392,
          "velocity": 0.3937007874015748,
          "duration": 0.015225149414064276
        },
        {
          "name": "F#3",
          "midi": 54,
          "time": 38.50394150000017,
          "velocity": 0.47244094488188976,
          "duration": 0.015225149414064276
        },
        {
          "name": "E2",
          "midi": 40,
          "time": 38.50394150000017,
          "velocity": 0.6299212598425197,
          "duration": 0.015225149414064276
        },
        {
          "name": "G#2",
          "midi": 44,
          "time": 38.50394150000017,
          "velocity": 0.3937007874015748,
          "duration": 0.015225149414064276
        },
        {
          "name": "D4",
          "midi": 62,
          "time": 38.50394150000017,
          "velocity": 0.6299212598425197,
          "duration": 0.015225149414064276
        },
        {
          "name": "F#3",
          "midi": 54,
          "time": 38.62205175000017,
          "velocity": 0.31496062992125984,
          "duration": 0.015225149414064276
        },
        {
          "name": "E2",
          "midi": 40,
          "time": 38.62205175000017,
          "velocity": 0.6299212598425197,
          "duration": 0.015225149414064276
        },
        {
          "name": "G#2",
          "midi": 44,
          "time": 38.62205175000017,
          "velocity": 0.31496062992125984,
          "duration": 0.015225149414064276
        },
        {
          "name": "D4",
          "midi": 62,
          "time": 38.62205175000017,
          "velocity": 0.6299212598425197,
          "duration": 0.015225149414064276
        },
        {
          "name": "G#2",
          "midi": 44,
          "time": 38.74016200000017,
          "velocity": 0.3937007874015748,
          "duration": 0.015225149414064276
        },
        {
          "name": "F#3",
          "midi": 54,
          "time": 38.74016200000017,
          "velocity": 0.47244094488188976,
          "duration": 0.015225149414064276
        },
        {
          "name": "F#3",
          "midi": 54,
          "time": 38.85827225000017,
          "velocity": 0.31496062992125984,
          "duration": 0.015225149414064276
        },
        {
          "name": "E2",
          "midi": 40,
          "time": 38.85827225000017,
          "velocity": 0.6299212598425197,
          "duration": 0.015225149414064276
        },
        {
          "name": "G#2",
          "midi": 44,
          "time": 38.85827225000017,
          "velocity": 0.31496062992125984,
          "duration": 0.015225149414064276
        },
        {
          "name": "D4",
          "midi": 62,
          "time": 38.85827225000017,
          "velocity": 0.6299212598425197,
          "duration": 0.015225149414064276
        },
        {
          "name": "F#3",
          "midi": 54,
          "time": 38.97638250000017,
          "velocity": 0.47244094488188976,
          "duration": 0.015225149414064276
        },
        {
          "name": "E2",
          "midi": 40,
          "time": 38.97638250000017,
          "velocity": 0.6299212598425197,
          "duration": 0.015225149414064276
        },
        {
          "name": "D4",
          "midi": 62,
          "time": 38.97638250000017,
          "velocity": 0.6299212598425197,
          "duration": 0.015225149414064276
        },
        {
          "name": "G#2",
          "midi": 44,
          "time": 38.97638250000017,
          "velocity": 0.3937007874015748,
          "duration": 0.015225149414064276
        },
        {
          "name": "G#2",
          "midi": 44,
          "time": 39.09449275000017,
          "velocity": 0.23622047244094488,
          "duration": 0.015225149414064276
        },
        {
          "name": "E2",
          "midi": 40,
          "time": 39.09449275000017,
          "velocity": 0.23622047244094488,
          "duration": 0.015225149414064276
        },
        {
          "name": "E2",
          "midi": 40,
          "time": 39.1507796660158,
          "velocity": 0.23622047244094488,
          "duration": 0.015225149414064276
        },
        {
          "name": "E2",
          "midi": 40,
          "time": 39.189534591797056,
          "velocity": 0.23622047244094488,
          "duration": 0.015225149414064276
        },
        {
          "name": "E2",
          "midi": 40,
          "time": 39.212603000000186,
          "velocity": 0.6299212598425197,
          "duration": 0.015225149414064276
        },
        {
          "name": "D4",
          "midi": 62,
          "time": 39.212603000000186,
          "velocity": 0.6299212598425197,
          "duration": 0.015225149414064276
        },
        {
          "name": "G#2",
          "midi": 44,
          "time": 39.212603000000186,
          "velocity": 0.3937007874015748,
          "duration": 0.015225149414064276
        },
        {
          "name": "G#2",
          "midi": 44,
          "time": 39.33071325000019,
          "velocity": 0.23622047244094488,
          "duration": 0.015225149414064276
        },
        {
          "name": "E2",
          "midi": 40,
          "time": 39.44882350000019,
          "velocity": 0.6299212598425197,
          "duration": 0.015225149414064276
        },
        {
          "name": "D4",
          "midi": 62,
          "time": 39.44882350000019,
          "velocity": 0.6299212598425197,
          "duration": 0.015225149414064276
        },
        {
          "name": "G#2",
          "midi": 44,
          "time": 39.44882350000019,
          "velocity": 0.3937007874015748,
          "duration": 0.015225149414064276
        },
        {
          "name": "G#2",
          "midi": 44,
          "time": 39.56693375000019,
          "velocity": 0.23622047244094488,
          "duration": 0.015225149414064276
        },
        {
          "name": "F#3",
          "midi": 54,
          "time": 39.68504400000019,
          "velocity": 0.47244094488188976,
          "duration": 0.015225149414064276
        },
        {
          "name": "E2",
          "midi": 40,
          "time": 39.68504400000019,
          "velocity": 0.6299212598425197,
          "duration": 0.015225149414064276
        },
        {
          "name": "G#2",
          "midi": 44,
          "time": 39.68504400000019,
          "velocity": 0.3937007874015748,
          "duration": 0.015225149414064276
        },
        {
          "name": "D4",
          "midi": 62,
          "time": 39.68504400000019,
          "velocity": 0.6299212598425197,
          "duration": 0.015225149414064276
        },
        {
          "name": "F#3",
          "midi": 54,
          "time": 39.80315425000019,
          "velocity": 0.31496062992125984,
          "duration": 0.015225149414064276
        },
        {
          "name": "E2",
          "midi": 40,
          "time": 39.80315425000019,
          "velocity": 0.3937007874015748,
          "duration": 0.015225149414064276
        },
        {
          "name": "G#2",
          "midi": 44,
          "time": 39.80315425000019,
          "velocity": 0.31496062992125984,
          "duration": 0.015225149414064276
        },
        {
          "name": "D4",
          "midi": 62,
          "time": 39.80315425000019,
          "velocity": 0.3937007874015748,
          "duration": 0.015225149414064276
        },
        {
          "name": "E2",
          "midi": 40,
          "time": 39.846522857422066,
          "velocity": 0.3937007874015748,
          "duration": 0.015225149414064276
        },
        {
          "name": "D4",
          "midi": 62,
          "time": 39.846522857422066,
          "velocity": 0.3937007874015748,
          "duration": 0.015225149414064276
        },
        {
          "name": "E2",
          "midi": 40,
          "time": 39.88989146484394,
          "velocity": 0.3937007874015748,
          "duration": 0.015225149414064276
        },
        {
          "name": "D4",
          "midi": 62,
          "time": 39.88989146484394,
          "velocity": 0.3937007874015748,
          "duration": 0.015225149414064276
        },
        {
          "name": "F#3",
          "midi": 54,
          "time": 39.92126450000019,
          "velocity": 0.47244094488188976,
          "duration": 0.015225149414064276
        },
        {
          "name": "E2",
          "midi": 40,
          "time": 39.92126450000019,
          "velocity": 0.6299212598425197,
          "duration": 0.015225149414064276
        },
        {
          "name": "G#2",
          "midi": 44,
          "time": 39.92126450000019,
          "velocity": 0.3937007874015748,
          "duration": 0.015225149414064276
        },
        {
          "name": "D4",
          "midi": 62,
          "time": 39.92126450000019,
          "velocity": 0.6299212598425197,
          "duration": 0.015225149414064276
        },
        {
          "name": "F#3",
          "midi": 54,
          "time": 40.03937475000019,
          "velocity": 0.31496062992125984,
          "duration": 0.015225149414064276
        },
        {
          "name": "E2",
          "midi": 40,
          "time": 40.03937475000019,
          "velocity": 0.6299212598425197,
          "duration": 0.015225149414064276
        },
        {
          "name": "G#2",
          "midi": 44,
          "time": 40.03937475000019,
          "velocity": 0.31496062992125984,
          "duration": 0.015225149414064276
        },
        {
          "name": "D4",
          "midi": 62,
          "time": 40.03937475000019,
          "velocity": 0.6299212598425197,
          "duration": 0.015225149414064276
        },
        {
          "name": "G#2",
          "midi": 44,
          "time": 40.15748500000019,
          "velocity": 0.3937007874015748,
          "duration": 0.015225149414064276
        },
        {
          "name": "F#3",
          "midi": 54,
          "time": 40.15748500000019,
          "velocity": 0.47244094488188976,
          "duration": 0.015225149414064276
        },
        {
          "name": "F#3",
          "midi": 54,
          "time": 40.275595250000194,
          "velocity": 0.31496062992125984,
          "duration": 0.015225149414064276
        },
        {
          "name": "E2",
          "midi": 40,
          "time": 40.275595250000194,
          "velocity": 0.6299212598425197,
          "duration": 0.015225149414064276
        },
        {
          "name": "G#2",
          "midi": 44,
          "time": 40.275595250000194,
          "velocity": 0.31496062992125984,
          "duration": 0.015225149414064276
        },
        {
          "name": "D4",
          "midi": 62,
          "time": 40.275595250000194,
          "velocity": 0.6299212598425197,
          "duration": 0.015225149414064276
        },
        {
          "name": "F#3",
          "midi": 54,
          "time": 40.393705500000195,
          "velocity": 0.47244094488188976,
          "duration": 0.015225149414064276
        },
        {
          "name": "E2",
          "midi": 40,
          "time": 40.393705500000195,
          "velocity": 0.6299212598425197,
          "duration": 0.015225149414064276
        },
        {
          "name": "G#2",
          "midi": 44,
          "time": 40.393705500000195,
          "velocity": 0.3937007874015748,
          "duration": 0.015225149414064276
        },
        {
          "name": "D4",
          "midi": 62,
          "time": 40.393705500000195,
          "velocity": 0.6299212598425197,
          "duration": 0.015225149414064276
        },
        {
          "name": "E2",
          "midi": 40,
          "time": 40.511815750000196,
          "velocity": 0.23622047244094488,
          "duration": 0.015225149414064276
        },
        {
          "name": "G#2",
          "midi": 44,
          "time": 40.511815750000196,
          "velocity": 0.23622047244094488,
          "duration": 0.015225149414064276
        },
        {
          "name": "E2",
          "midi": 40,
          "time": 40.568102666015825,
          "velocity": 0.23622047244094488,
          "duration": 0.015225149414064276
        },
        {
          "name": "E2",
          "midi": 40,
          "time": 40.60685759179708,
          "velocity": 0.23622047244094488,
          "duration": 0.015225149414064276
        },
        {
          "name": "D4",
          "midi": 62,
          "time": 40.62992600000021,
          "velocity": 0.6299212598425197,
          "duration": 0.015225149414064276
        },
        {
          "name": "E2",
          "midi": 40,
          "time": 40.62992600000021,
          "velocity": 0.6299212598425197,
          "duration": 0.015225149414064276
        },
        {
          "name": "G#2",
          "midi": 44,
          "time": 40.62992600000021,
          "velocity": 0.3937007874015748,
          "duration": 0.015225149414064276
        },
        {
          "name": "G#2",
          "midi": 44,
          "time": 40.74803625000021,
          "velocity": 0.23622047244094488,
          "duration": 0.015225149414064276
        },
        {
          "name": "D4",
          "midi": 62,
          "time": 40.86614650000021,
          "velocity": 0.6299212598425197,
          "duration": 0.015225149414064276
        },
        {
          "name": "E2",
          "midi": 40,
          "time": 40.86614650000021,
          "velocity": 0.6299212598425197,
          "duration": 0.015225149414064276
        },
        {
          "name": "G#2",
          "midi": 44,
          "time": 40.86614650000021,
          "velocity": 0.3937007874015748,
          "duration": 0.015225149414064276
        },
        {
          "name": "G#2",
          "midi": 44,
          "time": 40.98425675000021,
          "velocity": 0.23622047244094488,
          "duration": 0.015225149414064276
        },
        {
          "name": "F#3",
          "midi": 54,
          "time": 41.102367000000214,
          "velocity": 0.47244094488188976,
          "duration": 0.015225149414064276
        },
        {
          "name": "E2",
          "midi": 40,
          "time": 41.102367000000214,
          "velocity": 0.6299212598425197,
          "duration": 0.015225149414064276
        },
        {
          "name": "G#2",
          "midi": 44,
          "time": 41.102367000000214,
          "velocity": 0.3937007874015748,
          "duration": 0.015225149414064276
        },
        {
          "name": "D4",
          "midi": 62,
          "time": 41.102367000000214,
          "velocity": 0.6299212598425197,
          "duration": 0.015225149414064276
        },
        {
          "name": "F#3",
          "midi": 54,
          "time": 41.220477250000215,
          "velocity": 0.31496062992125984,
          "duration": 0.015225149414064276
        },
        {
          "name": "E2",
          "midi": 40,
          "time": 41.220477250000215,
          "velocity": 0.3937007874015748,
          "duration": 0.015225149414064276
        },
        {
          "name": "G#2",
          "midi": 44,
          "time": 41.220477250000215,
          "velocity": 0.31496062992125984,
          "duration": 0.015225149414064276
        },
        {
          "name": "D4",
          "midi": 62,
          "time": 41.220477250000215,
          "velocity": 0.3937007874015748,
          "duration": 0.015225149414064276
        },
        {
          "name": "E2",
          "midi": 40,
          "time": 41.26384585742209,
          "velocity": 0.3937007874015748,
          "duration": 0.015225149414064276
        },
        {
          "name": "D4",
          "midi": 62,
          "time": 41.26384585742209,
          "velocity": 0.3937007874015748,
          "duration": 0.015225149414064276
        },
        {
          "name": "E2",
          "midi": 40,
          "time": 41.307214464843966,
          "velocity": 0.3937007874015748,
          "duration": 0.015225149414064276
        },
        {
          "name": "D4",
          "midi": 62,
          "time": 41.307214464843966,
          "velocity": 0.3937007874015748,
          "duration": 0.015225149414064276
        },
        {
          "name": "F#3",
          "midi": 54,
          "time": 41.338587500000216,
          "velocity": 0.47244094488188976,
          "duration": 0.015225149414064276
        },
        {
          "name": "E2",
          "midi": 40,
          "time": 41.338587500000216,
          "velocity": 0.6299212598425197,
          "duration": 0.015225149414064276
        },
        {
          "name": "G#2",
          "midi": 44,
          "time": 41.338587500000216,
          "velocity": 0.3937007874015748,
          "duration": 0.015225149414064276
        },
        {
          "name": "D4",
          "midi": 62,
          "time": 41.338587500000216,
          "velocity": 0.6299212598425197,
          "duration": 0.015225149414064276
        },
        {
          "name": "F#3",
          "midi": 54,
          "time": 41.45669775000022,
          "velocity": 0.31496062992125984,
          "duration": 0.015225149414064276
        },
        {
          "name": "E2",
          "midi": 40,
          "time": 41.45669775000022,
          "velocity": 0.6299212598425197,
          "duration": 0.015225149414064276
        },
        {
          "name": "G#2",
          "midi": 44,
          "time": 41.45669775000022,
          "velocity": 0.31496062992125984,
          "duration": 0.015225149414064276
        },
        {
          "name": "D4",
          "midi": 62,
          "time": 41.45669775000022,
          "velocity": 0.6299212598425197,
          "duration": 0.015225149414064276
        },
        {
          "name": "G#2",
          "midi": 44,
          "time": 41.57480800000022,
          "velocity": 0.3937007874015748,
          "duration": 0.015225149414064276
        },
        {
          "name": "F#3",
          "midi": 54,
          "time": 41.57480800000022,
          "velocity": 0.47244094488188976,
          "duration": 0.015225149414064276
        },
        {
          "name": "F#3",
          "midi": 54,
          "time": 41.69291825000022,
          "velocity": 0.31496062992125984,
          "duration": 0.015225149414064276
        },
        {
          "name": "E2",
          "midi": 40,
          "time": 41.69291825000022,
          "velocity": 0.6299212598425197,
          "duration": 0.015225149414064276
        },
        {
          "name": "G#2",
          "midi": 44,
          "time": 41.69291825000022,
          "velocity": 0.31496062992125984,
          "duration": 0.015225149414064276
        },
        {
          "name": "D4",
          "midi": 62,
          "time": 41.69291825000022,
          "velocity": 0.6299212598425197,
          "duration": 0.015225149414064276
        },
        {
          "name": "F#3",
          "midi": 54,
          "time": 41.81102850000022,
          "velocity": 0.47244094488188976,
          "duration": 0.015225149414064276
        },
        {
          "name": "E2",
          "midi": 40,
          "time": 41.81102850000022,
          "velocity": 0.6299212598425197,
          "duration": 0.015225149414064276
        },
        {
          "name": "G#2",
          "midi": 44,
          "time": 41.81102850000022,
          "velocity": 0.3937007874015748,
          "duration": 0.015225149414064276
        },
        {
          "name": "D4",
          "midi": 62,
          "time": 41.81102850000022,
          "velocity": 0.6299212598425197,
          "duration": 0.015225149414064276
        },
        {
          "name": "F#3",
          "midi": 54,
          "time": 41.92913875000022,
          "velocity": 0.31496062992125984,
          "duration": 0.015225149414064276
        },
        {
          "name": "E2",
          "midi": 40,
          "time": 41.92913875000022,
          "velocity": 0.3937007874015748,
          "duration": 0.015225149414064276
        },
        {
          "name": "G#2",
          "midi": 44,
          "time": 41.92913875000022,
          "velocity": 0.31496062992125984,
          "duration": 0.015225149414064276
        },
        {
          "name": "D4",
          "midi": 62,
          "time": 41.92913875000022,
          "velocity": 0.3937007874015748,
          "duration": 0.015225149414064276
        },
        {
          "name": "E2",
          "midi": 40,
          "time": 41.98542566601585,
          "velocity": 0.3937007874015748,
          "duration": 0.015225149414064276
        },
        {
          "name": "D4",
          "midi": 62,
          "time": 41.98542566601585,
          "velocity": 0.3937007874015748,
          "duration": 0.015225149414064276
        },
        {
          "name": "E2",
          "midi": 40,
          "time": 42.024180591797105,
          "velocity": 0.3937007874015748,
          "duration": 0.015225149414064276
        },
        {
          "name": "D4",
          "midi": 62,
          "time": 42.024180591797105,
          "velocity": 0.3937007874015748,
          "duration": 0.015225149414064276
        },
        {
          "name": "F#3",
          "midi": 54,
          "time": 42.047249000000235,
          "velocity": 0.47244094488188976,
          "duration": 0.015225149414064276
        },
        {
          "name": "E2",
          "midi": 40,
          "time": 42.047249000000235,
          "velocity": 0.6299212598425197,
          "duration": 0.015225149414064276
        },
        {
          "name": "G#2",
          "midi": 44,
          "time": 42.047249000000235,
          "velocity": 0.3937007874015748,
          "duration": 0.015225149414064276
        },
        {
          "name": "D4",
          "midi": 62,
          "time": 42.047249000000235,
          "velocity": 0.6299212598425197,
          "duration": 0.015225149414064276
        },
        {
          "name": "G#2",
          "midi": 44,
          "time": 42.165359250000236,
          "velocity": 0.31496062992125984,
          "duration": 0.015225149414064276
        },
        {
          "name": "F#3",
          "midi": 54,
          "time": 42.165359250000236,
          "velocity": 0.31496062992125984,
          "duration": 0.015225149414064276
        },
        {
          "name": "F#3",
          "midi": 54,
          "time": 42.28346950000024,
          "velocity": 0.47244094488188976,
          "duration": 0.015225149414064276
        },
        {
          "name": "E2",
          "midi": 40,
          "time": 42.28346950000024,
          "velocity": 0.6299212598425197,
          "duration": 0.015225149414064276
        },
        {
          "name": "G#2",
          "midi": 44,
          "time": 42.28346950000024,
          "velocity": 0.3937007874015748,
          "duration": 0.015225149414064276
        },
        {
          "name": "D4",
          "midi": 62,
          "time": 42.28346950000024,
          "velocity": 0.6299212598425197,
          "duration": 0.015225149414064276
        },
        {
          "name": "G#2",
          "midi": 44,
          "time": 42.40157975000024,
          "velocity": 0.31496062992125984,
          "duration": 0.015225149414064276
        },
        {
          "name": "F#3",
          "midi": 54,
          "time": 42.40157975000024,
          "velocity": 0.31496062992125984,
          "duration": 0.015225149414064276
        },
        {
          "name": "F#3",
          "midi": 54,
          "time": 42.51969000000024,
          "velocity": 0.47244094488188976,
          "duration": 0.015225149414064276
        },
        {
          "name": "E2",
          "midi": 40,
          "time": 42.51969000000024,
          "velocity": 0.6299212598425197,
          "duration": 0.015225149414064276
        },
        {
          "name": "G#2",
          "midi": 44,
          "time": 42.51969000000024,
          "velocity": 0.3937007874015748,
          "duration": 0.015225149414064276
        },
        {
          "name": "D4",
          "midi": 62,
          "time": 42.51969000000024,
          "velocity": 0.6299212598425197,
          "duration": 0.015225149414064276
        },
        {
          "name": "F#3",
          "midi": 54,
          "time": 42.63780025000024,
          "velocity": 0.31496062992125984,
          "duration": 0.015225149414064276
        },
        {
          "name": "E2",
          "midi": 40,
          "time": 42.63780025000024,
          "velocity": 0.3937007874015748,
          "duration": 0.015225149414064276
        },
        {
          "name": "G#2",
          "midi": 44,
          "time": 42.63780025000024,
          "velocity": 0.31496062992125984,
          "duration": 0.015225149414064276
        },
        {
          "name": "D4",
          "midi": 62,
          "time": 42.63780025000024,
          "velocity": 0.3937007874015748,
          "duration": 0.015225149414064276
        },
        {
          "name": "E2",
          "midi": 40,
          "time": 42.681168857422115,
          "velocity": 0.3937007874015748,
          "duration": 0.015225149414064276
        },
        {
          "name": "D4",
          "midi": 62,
          "time": 42.681168857422115,
          "velocity": 0.3937007874015748,
          "duration": 0.015225149414064276
        },
        {
          "name": "E2",
          "midi": 40,
          "time": 42.72453746484399,
          "velocity": 0.3937007874015748,
          "duration": 0.015225149414064276
        },
        {
          "name": "D4",
          "midi": 62,
          "time": 42.72453746484399,
          "velocity": 0.3937007874015748,
          "duration": 0.015225149414064276
        },
        {
          "name": "F#3",
          "midi": 54,
          "time": 42.75591050000024,
          "velocity": 0.47244094488188976,
          "duration": 0.015225149414064276
        },
        {
          "name": "E2",
          "midi": 40,
          "time": 42.75591050000024,
          "velocity": 0.6299212598425197,
          "duration": 0.015225149414064276
        },
        {
          "name": "G#2",
          "midi": 44,
          "time": 42.75591050000024,
          "velocity": 0.3937007874015748,
          "duration": 0.015225149414064276
        },
        {
          "name": "D4",
          "midi": 62,
          "time": 42.75591050000024,
          "velocity": 0.6299212598425197,
          "duration": 0.015225149414064276
        },
        {
          "name": "F#3",
          "midi": 54,
          "time": 42.87402075000024,
          "velocity": 0.31496062992125984,
          "duration": 0.015225149414064276
        },
        {
          "name": "E2",
          "midi": 40,
          "time": 42.87402075000024,
          "velocity": 0.6299212598425197,
          "duration": 0.015225149414064276
        },
        {
          "name": "G#2",
          "midi": 44,
          "time": 42.87402075000024,
          "velocity": 0.31496062992125984,
          "duration": 0.015225149414064276
        },
        {
          "name": "D4",
          "midi": 62,
          "time": 42.87402075000024,
          "velocity": 0.6299212598425197,
          "duration": 0.015225149414064276
        },
        {
          "name": "G#2",
          "midi": 44,
          "time": 42.99213100000024,
          "velocity": 0.3937007874015748,
          "duration": 0.015225149414064276
        },
        {
          "name": "F#3",
          "midi": 54,
          "time": 42.99213100000024,
          "velocity": 0.47244094488188976,
          "duration": 0.015225149414064276
        },
        {
          "name": "F#3",
          "midi": 54,
          "time": 43.11024125000024,
          "velocity": 0.31496062992125984,
          "duration": 0.015225149414064276
        },
        {
          "name": "E2",
          "midi": 40,
          "time": 43.11024125000024,
          "velocity": 0.6299212598425197,
          "duration": 0.015225149414064276
        },
        {
          "name": "G#2",
          "midi": 44,
          "time": 43.11024125000024,
          "velocity": 0.31496062992125984,
          "duration": 0.015225149414064276
        },
        {
          "name": "D4",
          "midi": 62,
          "time": 43.11024125000024,
          "velocity": 0.6299212598425197,
          "duration": 0.015225149414064276
        },
        {
          "name": "F#3",
          "midi": 54,
          "time": 43.228351500000244,
          "velocity": 0.47244094488188976,
          "duration": 0.015225149414064276
        },
        {
          "name": "E2",
          "midi": 40,
          "time": 43.228351500000244,
          "velocity": 0.6299212598425197,
          "duration": 0.015225149414064276
        },
        {
          "name": "G#2",
          "midi": 44,
          "time": 43.228351500000244,
          "velocity": 0.3937007874015748,
          "duration": 0.015225149414064276
        },
        {
          "name": "D4",
          "midi": 62,
          "time": 43.228351500000244,
          "velocity": 0.6299212598425197,
          "duration": 0.015225149414064276
        },
        {
          "name": "F#3",
          "midi": 54,
          "time": 43.346461750000245,
          "velocity": 0.31496062992125984,
          "duration": 0.015225149414064276
        },
        {
          "name": "E2",
          "midi": 40,
          "time": 43.346461750000245,
          "velocity": 0.3937007874015748,
          "duration": 0.015225149414064276
        },
        {
          "name": "G#2",
          "midi": 44,
          "time": 43.346461750000245,
          "velocity": 0.31496062992125984,
          "duration": 0.015225149414064276
        },
        {
          "name": "D4",
          "midi": 62,
          "time": 43.346461750000245,
          "velocity": 0.3937007874015748,
          "duration": 0.015225149414064276
        },
        {
          "name": "E2",
          "midi": 40,
          "time": 43.402748666015874,
          "velocity": 0.3937007874015748,
          "duration": 0.015225149414064276
        },
        {
          "name": "D4",
          "midi": 62,
          "time": 43.402748666015874,
          "velocity": 0.3937007874015748,
          "duration": 0.015225149414064276
        },
        {
          "name": "E2",
          "midi": 40,
          "time": 43.44150359179713,
          "velocity": 0.3937007874015748,
          "duration": 0.015225149414064276
        },
        {
          "name": "D4",
          "midi": 62,
          "time": 43.44150359179713,
          "velocity": 0.3937007874015748,
          "duration": 0.015225149414064276
        },
        {
          "name": "F#3",
          "midi": 54,
          "time": 43.46457200000026,
          "velocity": 0.47244094488188976,
          "duration": 0.015225149414064276
        },
        {
          "name": "E2",
          "midi": 40,
          "time": 43.46457200000026,
          "velocity": 0.6299212598425197,
          "duration": 0.015225149414064276
        },
        {
          "name": "G#2",
          "midi": 44,
          "time": 43.46457200000026,
          "velocity": 0.3937007874015748,
          "duration": 0.015225149414064276
        },
        {
          "name": "D4",
          "midi": 62,
          "time": 43.46457200000026,
          "velocity": 0.6299212598425197,
          "duration": 0.015225149414064276
        },
        {
          "name": "G#2",
          "midi": 44,
          "time": 43.58268225000026,
          "velocity": 0.31496062992125984,
          "duration": 0.015225149414064276
        },
        {
          "name": "F#3",
          "midi": 54,
          "time": 43.58268225000026,
          "velocity": 0.31496062992125984,
          "duration": 0.015225149414064276
        },
        {
          "name": "F#3",
          "midi": 54,
          "time": 43.70079250000026,
          "velocity": 0.47244094488188976,
          "duration": 0.015225149414064276
        },
        {
          "name": "E2",
          "midi": 40,
          "time": 43.70079250000026,
          "velocity": 0.6299212598425197,
          "duration": 0.015225149414064276
        },
        {
          "name": "G#2",
          "midi": 44,
          "time": 43.70079250000026,
          "velocity": 0.3937007874015748,
          "duration": 0.015225149414064276
        },
        {
          "name": "D4",
          "midi": 62,
          "time": 43.70079250000026,
          "velocity": 0.6299212598425197,
          "duration": 0.015225149414064276
        },
        {
          "name": "G#2",
          "midi": 44,
          "time": 43.81890275000026,
          "velocity": 0.31496062992125984,
          "duration": 0.015225149414064276
        },
        {
          "name": "F#3",
          "midi": 54,
          "time": 43.81890275000026,
          "velocity": 0.31496062992125984,
          "duration": 0.015225149414064276
        },
        {
          "name": "F#3",
          "midi": 54,
          "time": 43.93701300000026,
          "velocity": 0.47244094488188976,
          "duration": 0.015225149414064276
        },
        {
          "name": "E2",
          "midi": 40,
          "time": 43.93701300000026,
          "velocity": 0.6299212598425197,
          "duration": 0.015225149414064276
        },
        {
          "name": "G#2",
          "midi": 44,
          "time": 43.93701300000026,
          "velocity": 0.3937007874015748,
          "duration": 0.015225149414064276
        },
        {
          "name": "D4",
          "midi": 62,
          "time": 43.93701300000026,
          "velocity": 0.6299212598425197,
          "duration": 0.015225149414064276
        },
        {
          "name": "F#3",
          "midi": 54,
          "time": 44.055123250000264,
          "velocity": 0.31496062992125984,
          "duration": 0.015225149414064276
        },
        {
          "name": "E2",
          "midi": 40,
          "time": 44.055123250000264,
          "velocity": 0.3937007874015748,
          "duration": 0.015225149414064276
        },
        {
          "name": "G#2",
          "midi": 44,
          "time": 44.055123250000264,
          "velocity": 0.31496062992125984,
          "duration": 0.015225149414064276
        },
        {
          "name": "D4",
          "midi": 62,
          "time": 44.055123250000264,
          "velocity": 0.3937007874015748,
          "duration": 0.015225149414064276
        },
        {
          "name": "E2",
          "midi": 40,
          "time": 44.09849185742214,
          "velocity": 0.3937007874015748,
          "duration": 0.015225149414064276
        },
        {
          "name": "D4",
          "midi": 62,
          "time": 44.09849185742214,
          "velocity": 0.3937007874015748,
          "duration": 0.015225149414064276
        },
        {
          "name": "E2",
          "midi": 40,
          "time": 44.141860464844015,
          "velocity": 0.3937007874015748,
          "duration": 0.015225149414064276
        },
        {
          "name": "D4",
          "midi": 62,
          "time": 44.141860464844015,
          "velocity": 0.3937007874015748,
          "duration": 0.015225149414064276
        },
        {
          "name": "F#3",
          "midi": 54,
          "time": 44.173233500000265,
          "velocity": 0.47244094488188976,
          "duration": 0.015225149414064276
        },
        {
          "name": "E2",
          "midi": 40,
          "time": 44.173233500000265,
          "velocity": 0.6299212598425197,
          "duration": 0.015225149414064276
        },
        {
          "name": "G#2",
          "midi": 44,
          "time": 44.173233500000265,
          "velocity": 0.3937007874015748,
          "duration": 0.015225149414064276
        },
        {
          "name": "D4",
          "midi": 62,
          "time": 44.173233500000265,
          "velocity": 0.6299212598425197,
          "duration": 0.015225149414064276
        },
        {
          "name": "F#3",
          "midi": 54,
          "time": 44.291343750000266,
          "velocity": 0.31496062992125984,
          "duration": 0.015225149414064276
        },
        {
          "name": "E2",
          "midi": 40,
          "time": 44.291343750000266,
          "velocity": 0.6299212598425197,
          "duration": 0.015225149414064276
        },
        {
          "name": "G#2",
          "midi": 44,
          "time": 44.291343750000266,
          "velocity": 0.31496062992125984,
          "duration": 0.015225149414064276
        },
        {
          "name": "D4",
          "midi": 62,
          "time": 44.291343750000266,
          "velocity": 0.6299212598425197,
          "duration": 0.015225149414064276
        },
        {
          "name": "G#2",
          "midi": 44,
          "time": 44.40945400000027,
          "velocity": 0.3937007874015748,
          "duration": 0.015225149414064276
        },
        {
          "name": "F#3",
          "midi": 54,
          "time": 44.40945400000027,
          "velocity": 0.47244094488188976,
          "duration": 0.015225149414064276
        },
        {
          "name": "F#3",
          "midi": 54,
          "time": 44.52756425000027,
          "velocity": 0.31496062992125984,
          "duration": 0.015225149414064276
        },
        {
          "name": "E2",
          "midi": 40,
          "time": 44.52756425000027,
          "velocity": 0.6299212598425197,
          "duration": 0.015225149414064276
        },
        {
          "name": "G#2",
          "midi": 44,
          "time": 44.52756425000027,
          "velocity": 0.31496062992125984,
          "duration": 0.015225149414064276
        },
        {
          "name": "D4",
          "midi": 62,
          "time": 44.52756425000027,
          "velocity": 0.6299212598425197,
          "duration": 0.015225149414064276
        },
        {
          "name": "F#3",
          "midi": 54,
          "time": 44.64567450000027,
          "velocity": 0.47244094488188976,
          "duration": 0.015225149414064276
        },
        {
          "name": "E2",
          "midi": 40,
          "time": 44.64567450000027,
          "velocity": 0.6299212598425197,
          "duration": 0.015225149414064276
        },
        {
          "name": "G#2",
          "midi": 44,
          "time": 44.64567450000027,
          "velocity": 0.3937007874015748,
          "duration": 0.015225149414064276
        },
        {
          "name": "D4",
          "midi": 62,
          "time": 44.64567450000027,
          "velocity": 0.6299212598425197,
          "duration": 0.015225149414064276
        },
        {
          "name": "G#2",
          "midi": 44,
          "time": 44.76378475000027,
          "velocity": 0.23622047244094488,
          "duration": 0.015225149414064276
        },
        {
          "name": "E2",
          "midi": 40,
          "time": 44.76378475000027,
          "velocity": 0.23622047244094488,
          "duration": 0.015225149414064276
        },
        {
          "name": "E2",
          "midi": 40,
          "time": 44.8200716660159,
          "velocity": 0.23622047244094488,
          "duration": 0.015225149414064276
        },
        {
          "name": "E2",
          "midi": 40,
          "time": 44.858826591797154,
          "velocity": 0.23622047244094488,
          "duration": 0.015225149414064276
        },
        {
          "name": "D4",
          "midi": 62,
          "time": 44.881895000000284,
          "velocity": 0.6299212598425197,
          "duration": 0.015225149414064276
        },
        {
          "name": "E2",
          "midi": 40,
          "time": 44.881895000000284,
          "velocity": 0.6299212598425197,
          "duration": 0.015225149414064276
        },
        {
          "name": "G#2",
          "midi": 44,
          "time": 44.881895000000284,
          "velocity": 0.3937007874015748,
          "duration": 0.015225149414064276
        },
        {
          "name": "G#2",
          "midi": 44,
          "time": 45.000005250000285,
          "velocity": 0.23622047244094488,
          "duration": 0.015225149414064276
        },
        {
          "name": "D4",
          "midi": 62,
          "time": 45.118115500000286,
          "velocity": 0.6299212598425197,
          "duration": 0.015225149414064276
        },
        {
          "name": "E2",
          "midi": 40,
          "time": 45.118115500000286,
          "velocity": 0.6299212598425197,
          "duration": 0.015225149414064276
        },
        {
          "name": "G#2",
          "midi": 44,
          "time": 45.118115500000286,
          "velocity": 0.3937007874015748,
          "duration": 0.015225149414064276
        },
        {
          "name": "G#2",
          "midi": 44,
          "time": 45.23622575000029,
          "velocity": 0.23622047244094488,
          "duration": 0.015225149414064276
        },
        {
          "name": "F#3",
          "midi": 54,
          "time": 45.35433600000029,
          "velocity": 0.47244094488188976,
          "duration": 0.015225149414064276
        },
        {
          "name": "E2",
          "midi": 40,
          "time": 45.35433600000029,
          "velocity": 0.6299212598425197,
          "duration": 0.015225149414064276
        },
        {
          "name": "G#2",
          "midi": 44,
          "time": 45.35433600000029,
          "velocity": 0.3937007874015748,
          "duration": 0.015225149414064276
        },
        {
          "name": "D4",
          "midi": 62,
          "time": 45.35433600000029,
          "velocity": 0.6299212598425197,
          "duration": 0.015225149414064276
        },
        {
          "name": "F#3",
          "midi": 54,
          "time": 45.47244625000029,
          "velocity": 0.31496062992125984,
          "duration": 0.015225149414064276
        },
        {
          "name": "E2",
          "midi": 40,
          "time": 45.47244625000029,
          "velocity": 0.3937007874015748,
          "duration": 0.015225149414064276
        },
        {
          "name": "G#2",
          "midi": 44,
          "time": 45.47244625000029,
          "velocity": 0.31496062992125984,
          "duration": 0.015225149414064276
        },
        {
          "name": "D4",
          "midi": 62,
          "time": 45.47244625000029,
          "velocity": 0.3937007874015748,
          "duration": 0.015225149414064276
        },
        {
          "name": "E2",
          "midi": 40,
          "time": 45.515814857422164,
          "velocity": 0.3937007874015748,
          "duration": 0.015225149414064276
        },
        {
          "name": "D4",
          "midi": 62,
          "time": 45.515814857422164,
          "velocity": 0.3937007874015748,
          "duration": 0.015225149414064276
        },
        {
          "name": "E2",
          "midi": 40,
          "time": 45.55918346484404,
          "velocity": 0.3937007874015748,
          "duration": 0.015225149414064276
        },
        {
          "name": "D4",
          "midi": 62,
          "time": 45.55918346484404,
          "velocity": 0.3937007874015748,
          "duration": 0.015225149414064276
        },
        {
          "name": "F#3",
          "midi": 54,
          "time": 45.59055650000029,
          "velocity": 0.47244094488188976,
          "duration": 0.015225149414064276
        },
        {
          "name": "E2",
          "midi": 40,
          "time": 45.59055650000029,
          "velocity": 0.6299212598425197,
          "duration": 0.015225149414064276
        },
        {
          "name": "G#2",
          "midi": 44,
          "time": 45.59055650000029,
          "velocity": 0.3937007874015748,
          "duration": 0.015225149414064276
        },
        {
          "name": "D4",
          "midi": 62,
          "time": 45.59055650000029,
          "velocity": 0.6299212598425197,
          "duration": 0.015225149414064276
        },
        {
          "name": "F#3",
          "midi": 54,
          "time": 45.70866675000029,
          "velocity": 0.31496062992125984,
          "duration": 0.015225149414064276
        },
        {
          "name": "E2",
          "midi": 40,
          "time": 45.70866675000029,
          "velocity": 0.6299212598425197,
          "duration": 0.015225149414064276
        },
        {
          "name": "G#2",
          "midi": 44,
          "time": 45.70866675000029,
          "velocity": 0.31496062992125984,
          "duration": 0.015225149414064276
        },
        {
          "name": "D4",
          "midi": 62,
          "time": 45.70866675000029,
          "velocity": 0.6299212598425197,
          "duration": 0.015225149414064276
        },
        {
          "name": "G#2",
          "midi": 44,
          "time": 45.82677700000029,
          "velocity": 0.3937007874015748,
          "duration": 0.015225149414064276
        },
        {
          "name": "F#3",
          "midi": 54,
          "time": 45.82677700000029,
          "velocity": 0.47244094488188976,
          "duration": 0.015225149414064276
        },
        {
          "name": "F#3",
          "midi": 54,
          "time": 45.94488725000029,
          "velocity": 0.31496062992125984,
          "duration": 0.015225149414064276
        },
        {
          "name": "E2",
          "midi": 40,
          "time": 45.94488725000029,
          "velocity": 0.6299212598425197,
          "duration": 0.015225149414064276
        },
        {
          "name": "G#2",
          "midi": 44,
          "time": 45.94488725000029,
          "velocity": 0.31496062992125984,
          "duration": 0.015225149414064276
        },
        {
          "name": "D4",
          "midi": 62,
          "time": 45.94488725000029,
          "velocity": 0.6299212598425197,
          "duration": 0.015225149414064276
        },
        {
          "name": "F#3",
          "midi": 54,
          "time": 46.06299750000029,
          "velocity": 0.47244094488188976,
          "duration": 0.015225149414064276
        },
        {
          "name": "E2",
          "midi": 40,
          "time": 46.06299750000029,
          "velocity": 0.6299212598425197,
          "duration": 0.015225149414064276
        },
        {
          "name": "G#2",
          "midi": 44,
          "time": 46.06299750000029,
          "velocity": 0.3937007874015748,
          "duration": 0.015225149414064276
        },
        {
          "name": "D4",
          "midi": 62,
          "time": 46.06299750000029,
          "velocity": 0.6299212598425197,
          "duration": 0.015225149414064276
        },
        {
          "name": "E2",
          "midi": 40,
          "time": 46.181107750000294,
          "velocity": 0.23622047244094488,
          "duration": 0.015225149414064276
        },
        {
          "name": "G#2",
          "midi": 44,
          "time": 46.181107750000294,
          "velocity": 0.23622047244094488,
          "duration": 0.015225149414064276
        },
        {
          "name": "E2",
          "midi": 40,
          "time": 46.23739466601592,
          "velocity": 0.23622047244094488,
          "duration": 0.015225149414064276
        },
        {
          "name": "E2",
          "midi": 40,
          "time": 46.27614959179718,
          "velocity": 0.23622047244094488,
          "duration": 0.015225149414064276
        },
        {
          "name": "D4",
          "midi": 62,
          "time": 46.29921800000031,
          "velocity": 0.6299212598425197,
          "duration": 0.015225149414064276
        },
        {
          "name": "E2",
          "midi": 40,
          "time": 46.29921800000031,
          "velocity": 0.6299212598425197,
          "duration": 0.015225149414064276
        },
        {
          "name": "G#2",
          "midi": 44,
          "time": 46.29921800000031,
          "velocity": 0.3937007874015748,
          "duration": 0.015225149414064276
        },
        {
          "name": "G#2",
          "midi": 44,
          "time": 46.41732825000031,
          "velocity": 0.23622047244094488,
          "duration": 0.015225149414064276
        },
        {
          "name": "D4",
          "midi": 62,
          "time": 46.53543850000031,
          "velocity": 0.6299212598425197,
          "duration": 0.015225149414064276
        },
        {
          "name": "E2",
          "midi": 40,
          "time": 46.53543850000031,
          "velocity": 0.6299212598425197,
          "duration": 0.015225149414064276
        },
        {
          "name": "G#2",
          "midi": 44,
          "time": 46.53543850000031,
          "velocity": 0.3937007874015748,
          "duration": 0.015225149414064276
        },
        {
          "name": "G#2",
          "midi": 44,
          "time": 46.65354875000031,
          "velocity": 0.23622047244094488,
          "duration": 0.015225149414064276
        },
        {
          "name": "F#3",
          "midi": 54,
          "time": 46.77165900000031,
          "velocity": 0.47244094488188976,
          "duration": 0.015225149414064276
        },
        {
          "name": "E2",
          "midi": 40,
          "time": 46.77165900000031,
          "velocity": 0.6299212598425197,
          "duration": 0.015225149414064276
        },
        {
          "name": "G#2",
          "midi": 44,
          "time": 46.77165900000031,
          "velocity": 0.3937007874015748,
          "duration": 0.015225149414064276
        },
        {
          "name": "D4",
          "midi": 62,
          "time": 46.77165900000031,
          "velocity": 0.6299212598425197,
          "duration": 0.015225149414064276
        },
        {
          "name": "F#3",
          "midi": 54,
          "time": 46.88976925000031,
          "velocity": 0.31496062992125984,
          "duration": 0.015225149414064276
        },
        {
          "name": "E2",
          "midi": 40,
          "time": 46.88976925000031,
          "velocity": 0.3937007874015748,
          "duration": 0.015225149414064276
        },
        {
          "name": "G#2",
          "midi": 44,
          "time": 46.88976925000031,
          "velocity": 0.31496062992125984,
          "duration": 0.015225149414064276
        },
        {
          "name": "D4",
          "midi": 62,
          "time": 46.88976925000031,
          "velocity": 0.3937007874015748,
          "duration": 0.015225149414064276
        },
        {
          "name": "E2",
          "midi": 40,
          "time": 46.93313785742219,
          "velocity": 0.3937007874015748,
          "duration": 0.015225149414064276
        },
        {
          "name": "D4",
          "midi": 62,
          "time": 46.93313785742219,
          "velocity": 0.3937007874015748,
          "duration": 0.015225149414064276
        },
        {
          "name": "E2",
          "midi": 40,
          "time": 46.976506464844064,
          "velocity": 0.3937007874015748,
          "duration": 0.015225149414064276
        },
        {
          "name": "D4",
          "midi": 62,
          "time": 46.976506464844064,
          "velocity": 0.3937007874015748,
          "duration": 0.015225149414064276
        },
        {
          "name": "F#3",
          "midi": 54,
          "time": 47.007879500000314,
          "velocity": 0.47244094488188976,
          "duration": 0.015225149414064276
        },
        {
          "name": "E2",
          "midi": 40,
          "time": 47.007879500000314,
          "velocity": 0.6299212598425197,
          "duration": 0.015225149414064276
        },
        {
          "name": "G#2",
          "midi": 44,
          "time": 47.007879500000314,
          "velocity": 0.3937007874015748,
          "duration": 0.015225149414064276
        },
        {
          "name": "D4",
          "midi": 62,
          "time": 47.007879500000314,
          "velocity": 0.6299212598425197,
          "duration": 0.015225149414064276
        },
        {
          "name": "F#3",
          "midi": 54,
          "time": 47.125989750000315,
          "velocity": 0.31496062992125984,
          "duration": 0.015225149414064276
        },
        {
          "name": "E2",
          "midi": 40,
          "time": 47.125989750000315,
          "velocity": 0.6299212598425197,
          "duration": 0.015225149414064276
        },
        {
          "name": "G#2",
          "midi": 44,
          "time": 47.125989750000315,
          "velocity": 0.31496062992125984,
          "duration": 0.015225149414064276
        },
        {
          "name": "D4",
          "midi": 62,
          "time": 47.125989750000315,
          "velocity": 0.6299212598425197,
          "duration": 0.015225149414064276
        },
        {
          "name": "G#2",
          "midi": 44,
          "time": 47.244100000000316,
          "velocity": 0.3937007874015748,
          "duration": 0.015225149414064276
        },
        {
          "name": "F#3",
          "midi": 54,
          "time": 47.244100000000316,
          "velocity": 0.47244094488188976,
          "duration": 0.015225149414064276
        },
        {
          "name": "F#3",
          "midi": 54,
          "time": 47.36221025000032,
          "velocity": 0.31496062992125984,
          "duration": 0.015225149414064276
        },
        {
          "name": "E2",
          "midi": 40,
          "time": 47.36221025000032,
          "velocity": 0.6299212598425197,
          "duration": 0.015225149414064276
        },
        {
          "name": "G#2",
          "midi": 44,
          "time": 47.36221025000032,
          "velocity": 0.31496062992125984,
          "duration": 0.015225149414064276
        },
        {
          "name": "D4",
          "midi": 62,
          "time": 47.36221025000032,
          "velocity": 0.6299212598425197,
          "duration": 0.015225149414064276
        },
        {
          "name": "F#3",
          "midi": 54,
          "time": 47.48032050000032,
          "velocity": 0.47244094488188976,
          "duration": 0.015225149414064276
        },
        {
          "name": "E2",
          "midi": 40,
          "time": 47.48032050000032,
          "velocity": 0.6299212598425197,
          "duration": 0.015225149414064276
        },
        {
          "name": "G#2",
          "midi": 44,
          "time": 47.48032050000032,
          "velocity": 0.3937007874015748,
          "duration": 0.015225149414064276
        },
        {
          "name": "D4",
          "midi": 62,
          "time": 47.48032050000032,
          "velocity": 0.6299212598425197,
          "duration": 0.015225149414064276
        },
        {
          "name": "F#3",
          "midi": 54,
          "time": 47.59843075000032,
          "velocity": 0.31496062992125984,
          "duration": 0.015225149414064276
        },
        {
          "name": "E2",
          "midi": 40,
          "time": 47.59843075000032,
          "velocity": 0.3937007874015748,
          "duration": 0.015225149414064276
        },
        {
          "name": "G#2",
          "midi": 44,
          "time": 47.59843075000032,
          "velocity": 0.31496062992125984,
          "duration": 0.015225149414064276
        },
        {
          "name": "D4",
          "midi": 62,
          "time": 47.59843075000032,
          "velocity": 0.3937007874015748,
          "duration": 0.015225149414064276
        },
        {
          "name": "E2",
          "midi": 40,
          "time": 47.65471766601595,
          "velocity": 0.3937007874015748,
          "duration": 0.015225149414064276
        },
        {
          "name": "D4",
          "midi": 62,
          "time": 47.65471766601595,
          "velocity": 0.3937007874015748,
          "duration": 0.015225149414064276
        },
        {
          "name": "E2",
          "midi": 40,
          "time": 47.6934725917972,
          "velocity": 0.3937007874015748,
          "duration": 0.015225149414064276
        },
        {
          "name": "D4",
          "midi": 62,
          "time": 47.6934725917972,
          "velocity": 0.3937007874015748,
          "duration": 0.015225149414064276
        },
        {
          "name": "F#3",
          "midi": 54,
          "time": 47.71654100000033,
          "velocity": 0.47244094488188976,
          "duration": 0.015225149414064276
        },
        {
          "name": "E2",
          "midi": 40,
          "time": 47.71654100000033,
          "velocity": 0.6299212598425197,
          "duration": 0.015225149414064276
        },
        {
          "name": "G#2",
          "midi": 44,
          "time": 47.71654100000033,
          "velocity": 0.3937007874015748,
          "duration": 0.015225149414064276
        },
        {
          "name": "D4",
          "midi": 62,
          "time": 47.71654100000033,
          "velocity": 0.6299212598425197,
          "duration": 0.015225149414064276
        },
        {
          "name": "G#2",
          "midi": 44,
          "time": 47.834651250000334,
          "velocity": 0.31496062992125984,
          "duration": 0.015225149414064276
        },
        {
          "name": "F#3",
          "midi": 54,
          "time": 47.834651250000334,
          "velocity": 0.31496062992125984,
          "duration": 0.015225149414064276
        },
        {
          "name": "F#3",
          "midi": 54,
          "time": 47.952761500000335,
          "velocity": 0.47244094488188976,
          "duration": 0.015225149414064276
        },
        {
          "name": "E2",
          "midi": 40,
          "time": 47.952761500000335,
          "velocity": 0.6299212598425197,
          "duration": 0.015225149414064276
        },
        {
          "name": "G#2",
          "midi": 44,
          "time": 47.952761500000335,
          "velocity": 0.3937007874015748,
          "duration": 0.015225149414064276
        },
        {
          "name": "D4",
          "midi": 62,
          "time": 47.952761500000335,
          "velocity": 0.6299212598425197,
          "duration": 0.015225149414064276
        },
        {
          "name": "G#2",
          "midi": 44,
          "time": 48.070871750000336,
          "velocity": 0.31496062992125984,
          "duration": 0.015225149414064276
        },
        {
          "name": "F#3",
          "midi": 54,
          "time": 48.070871750000336,
          "velocity": 0.31496062992125984,
          "duration": 0.015225149414064276
        },
        {
          "name": "F#3",
          "midi": 54,
          "time": 48.18898200000034,
          "velocity": 0.47244094488188976,
          "duration": 0.015225149414064276
        },
        {
          "name": "E2",
          "midi": 40,
          "time": 48.18898200000034,
          "velocity": 0.6299212598425197,
          "duration": 0.015225149414064276
        },
        {
          "name": "G#2",
          "midi": 44,
          "time": 48.18898200000034,
          "velocity": 0.3937007874015748,
          "duration": 0.015225149414064276
        },
        {
          "name": "D4",
          "midi": 62,
          "time": 48.18898200000034,
          "velocity": 0.6299212598425197,
          "duration": 0.015225149414064276
        },
        {
          "name": "F#3",
          "midi": 54,
          "time": 48.30709225000034,
          "velocity": 0.31496062992125984,
          "duration": 0.015225149414064276
        },
        {
          "name": "E2",
          "midi": 40,
          "time": 48.30709225000034,
          "velocity": 0.3937007874015748,
          "duration": 0.015225149414064276
        },
        {
          "name": "G#2",
          "midi": 44,
          "time": 48.30709225000034,
          "velocity": 0.31496062992125984,
          "duration": 0.015225149414064276
        },
        {
          "name": "D4",
          "midi": 62,
          "time": 48.30709225000034,
          "velocity": 0.3937007874015748,
          "duration": 0.015225149414064276
        },
        {
          "name": "E2",
          "midi": 40,
          "time": 48.35046085742221,
          "velocity": 0.3937007874015748,
          "duration": 0.015225149414064276
        },
        {
          "name": "D4",
          "midi": 62,
          "time": 48.35046085742221,
          "velocity": 0.3937007874015748,
          "duration": 0.015225149414064276
        },
        {
          "name": "E2",
          "midi": 40,
          "time": 48.39382946484409,
          "velocity": 0.3937007874015748,
          "duration": 0.015225149414064276
        },
        {
          "name": "D4",
          "midi": 62,
          "time": 48.39382946484409,
          "velocity": 0.3937007874015748,
          "duration": 0.015225149414064276
        },
        {
          "name": "F#3",
          "midi": 54,
          "time": 48.42520250000034,
          "velocity": 0.47244094488188976,
          "duration": 0.015225149414064276
        },
        {
          "name": "E2",
          "midi": 40,
          "time": 48.42520250000034,
          "velocity": 0.6299212598425197,
          "duration": 0.015225149414064276
        },
        {
          "name": "G#2",
          "midi": 44,
          "time": 48.42520250000034,
          "velocity": 0.3937007874015748,
          "duration": 0.015225149414064276
        },
        {
          "name": "D4",
          "midi": 62,
          "time": 48.42520250000034,
          "velocity": 0.6299212598425197,
          "duration": 0.015225149414064276
        },
        {
          "name": "F#3",
          "midi": 54,
          "time": 48.54331275000034,
          "velocity": 0.31496062992125984,
          "duration": 0.015225149414064276
        },
        {
          "name": "E2",
          "midi": 40,
          "time": 48.54331275000034,
          "velocity": 0.6299212598425197,
          "duration": 0.015225149414064276
        },
        {
          "name": "G#2",
          "midi": 44,
          "time": 48.54331275000034,
          "velocity": 0.31496062992125984,
          "duration": 0.015225149414064276
        },
        {
          "name": "D4",
          "midi": 62,
          "time": 48.54331275000034,
          "velocity": 0.6299212598425197,
          "duration": 0.015225149414064276
        },
        {
          "name": "G#2",
          "midi": 44,
          "time": 48.66142300000034,
          "velocity": 0.3937007874015748,
          "duration": 0.015225149414064276
        },
        {
          "name": "F#3",
          "midi": 54,
          "time": 48.66142300000034,
          "velocity": 0.47244094488188976,
          "duration": 0.015225149414064276
        },
        {
          "name": "F#3",
          "midi": 54,
          "time": 48.77953325000034,
          "velocity": 0.31496062992125984,
          "duration": 0.015225149414064276
        },
        {
          "name": "E2",
          "midi": 40,
          "time": 48.77953325000034,
          "velocity": 0.6299212598425197,
          "duration": 0.015225149414064276
        },
        {
          "name": "G#2",
          "midi": 44,
          "time": 48.77953325000034,
          "velocity": 0.31496062992125984,
          "duration": 0.015225149414064276
        },
        {
          "name": "D4",
          "midi": 62,
          "time": 48.77953325000034,
          "velocity": 0.6299212598425197,
          "duration": 0.015225149414064276
        },
        {
          "name": "F#3",
          "midi": 54,
          "time": 48.89764350000034,
          "velocity": 0.31496062992125984,
          "duration": 0.015225149414064276
        },
        {
          "name": "G#2",
          "midi": 44,
          "time": 49.60630500000035,
          "velocity": 0.3937007874015748,
          "duration": 0.015225149414064276
        },
        {
          "name": "C2",
          "midi": 36,
          "time": 49.60630500000035,
          "velocity": 0.5511811023622047,
          "duration": 0.015686517578124892
        },
        {
          "name": "E2",
          "midi": 40,
          "time": 49.60630500000035,
          "velocity": 0.47244094488188976,
          "duration": 0.015686517578124892
        },
        {
          "name": "A3",
          "midi": 57,
          "time": 49.60630500000035,
          "velocity": 0.5511811023622047,
          "duration": 0.015686517578124892
        },
        {
          "name": "F#3",
          "midi": 54,
          "time": 49.60630500000035,
          "velocity": 0.47244094488188976,
          "duration": 0.015225149414064276
        },
        {
          "name": "F#3",
          "midi": 54,
          "time": 49.72441525000035,
          "velocity": 0.31496062992125984,
          "duration": 0.015225149414064276
        },
        {
          "name": "G#2",
          "midi": 44,
          "time": 49.72441525000035,
          "velocity": 0.47244094488188976,
          "duration": 0.015686517578124892
        },
        {
          "name": "F#3",
          "midi": 54,
          "time": 49.84252550000035,
          "velocity": 0.47244094488188976,
          "duration": 0.015225149414064276
        },
        {
          "name": "G#2",
          "midi": 44,
          "time": 49.84252550000035,
          "velocity": 0.47244094488188976,
          "duration": 0.015686517578124892
        },
        {
          "name": "F#3",
          "midi": 54,
          "time": 49.96063575000035,
          "velocity": 0.31496062992125984,
          "duration": 0.015225149414064276
        },
        {
          "name": "E2",
          "midi": 40,
          "time": 49.96063575000035,
          "velocity": 0.47244094488188976,
          "duration": 0.015686517578124892
        },
        {
          "name": "C2",
          "midi": 36,
          "time": 49.96063575000035,
          "velocity": 0.5511811023622047,
          "duration": 0.015686517578124892
        },
        {
          "name": "G#2",
          "midi": 44,
          "time": 49.96063575000035,
          "velocity": 0.3937007874015748,
          "duration": 0.015225149414064276
        },
        {
          "name": "D4",
          "midi": 62,
          "time": 49.96063575000035,
          "velocity": 0.3937007874015748,
          "duration": 0.015686517578124892
        },
        {
          "name": "D2",
          "midi": 38,
          "time": 49.96063575000035,
          "velocity": 0.47244094488188976,
          "duration": 0.015686517578124892
        },
        {
          "name": "G3",
          "midi": 55,
          "time": 49.96063575000035,
          "velocity": 0.5511811023622047,
          "duration": 0.015686517578124892
        },
        {
          "name": "F#3",
          "midi": 54,
          "time": 50.07874600000035,
          "velocity": 0.47244094488188976,
          "duration": 0.015225149414064276
        },
        {
          "name": "G#2",
          "midi": 44,
          "time": 50.07874600000035,
          "velocity": 0.47244094488188976,
          "duration": 0.015686517578124892
        },
        {
          "name": "F#3",
          "midi": 54,
          "time": 50.19685625000035,
          "velocity": 0.31496062992125984,
          "duration": 0.015225149414064276
        },
        {
          "name": "G#2",
          "midi": 44,
          "time": 50.19685625000035,
          "velocity": 0.47244094488188976,
          "duration": 0.015686517578124892
        },
        {
          "name": "C2",
          "midi": 36,
          "time": 50.31496650000035,
          "velocity": 0.5511811023622047,
          "duration": 0.015686517578124892
        },
        {
          "name": "E2",
          "midi": 40,
          "time": 50.31496650000035,
          "velocity": 0.47244094488188976,
          "duration": 0.015686517578124892
        },
        {
          "name": "G#2",
          "midi": 44,
          "time": 50.31496650000035,
          "velocity": 0.47244094488188976,
          "duration": 0.015225149414064276
        },
        {
          "name": "G3",
          "midi": 55,
          "time": 50.31496650000035,
          "velocity": 0.5511811023622047,
          "duration": 0.015686517578124892
        },
        {
          "name": "F#3",
          "midi": 54,
          "time": 50.31496650000035,
          "velocity": 0.47244094488188976,
          "duration": 0.015225149414064276
        },
        {
          "name": "G#2",
          "midi": 44,
          "time": 50.43307675000035,
          "velocity": 0.3937007874015748,
          "duration": 0.015225149414064276
        },
        {
          "name": "F#3",
          "midi": 54,
          "time": 50.43307675000035,
          "velocity": 0.31496062992125984,
          "duration": 0.015225149414064276
        },
        {
          "name": "D4",
          "midi": 62,
          "time": 50.551187000000354,
          "velocity": 0.3937007874015748,
          "duration": 0.015686517578124892
        },
        {
          "name": "E2",
          "midi": 40,
          "time": 50.551187000000354,
          "velocity": 0.47244094488188976,
          "duration": 0.015686517578124892
        },
        {
          "name": "F#3",
          "midi": 54,
          "time": 50.551187000000354,
          "velocity": 0.47244094488188976,
          "duration": 0.015225149414064276
        },
        {
          "name": "G#2",
          "midi": 44,
          "time": 50.551187000000354,
          "velocity": 0.47244094488188976,
          "duration": 0.015225149414064276
        },
        {
          "name": "D2",
          "midi": 38,
          "time": 50.551187000000354,
          "velocity": 0.47244094488188976,
          "duration": 0.015686517578124892
        },
        {
          "name": "D4",
          "midi": 62,
          "time": 50.669297250000355,
          "velocity": 0.3937007874015748,
          "duration": 0.015686517578124892
        },
        {
          "name": "E2",
          "midi": 40,
          "time": 50.669297250000355,
          "velocity": 0.47244094488188976,
          "duration": 0.015686517578124892
        },
        {
          "name": "F#3",
          "midi": 54,
          "time": 50.669297250000355,
          "velocity": 0.31496062992125984,
          "duration": 0.015225149414064276
        },
        {
          "name": "G#2",
          "midi": 44,
          "time": 50.669297250000355,
          "velocity": 0.3937007874015748,
          "duration": 0.015225149414064276
        },
        {
          "name": "D2",
          "midi": 38,
          "time": 50.669297250000355,
          "velocity": 0.47244094488188976,
          "duration": 0.015686517578124892
        },
        {
          "name": "D4",
          "midi": 62,
          "time": 50.787407500000356,
          "velocity": 0.3937007874015748,
          "duration": 0.015686517578124892
        },
        {
          "name": "E2",
          "midi": 40,
          "time": 50.787407500000356,
          "velocity": 0.47244094488188976,
          "duration": 0.015686517578124892
        },
        {
          "name": "F#3",
          "midi": 54,
          "time": 50.787407500000356,
          "velocity": 0.47244094488188976,
          "duration": 0.015225149414064276
        },
        {
          "name": "G#2",
          "midi": 44,
          "time": 50.787407500000356,
          "velocity": 0.47244094488188976,
          "duration": 0.015225149414064276
        },
        {
          "name": "D2",
          "midi": 38,
          "time": 50.787407500000356,
          "velocity": 0.47244094488188976,
          "duration": 0.015686517578124892
        },
        {
          "name": "D4",
          "midi": 62,
          "time": 50.90551775000036,
          "velocity": 0.3937007874015748,
          "duration": 0.015686517578124892
        },
        {
          "name": "E2",
          "midi": 40,
          "time": 50.90551775000036,
          "velocity": 0.47244094488188976,
          "duration": 0.015686517578124892
        },
        {
          "name": "F#3",
          "midi": 54,
          "time": 50.90551775000036,
          "velocity": 0.31496062992125984,
          "duration": 0.015225149414064276
        },
        {
          "name": "G#2",
          "midi": 44,
          "time": 50.90551775000036,
          "velocity": 0.3937007874015748,
          "duration": 0.015225149414064276
        },
        {
          "name": "D2",
          "midi": 38,
          "time": 50.90551775000036,
          "velocity": 0.47244094488188976,
          "duration": 0.015686517578124892
        },
        {
          "name": "E2",
          "midi": 40,
          "time": 51.02362800000036,
          "velocity": 0.47244094488188976,
          "duration": 0.015686517578124892
        },
        {
          "name": "G#2",
          "midi": 44,
          "time": 51.02362800000036,
          "velocity": 0.3937007874015748,
          "duration": 0.015225149414064276
        },
        {
          "name": "C2",
          "midi": 36,
          "time": 51.02362800000036,
          "velocity": 0.5511811023622047,
          "duration": 0.015686517578124892
        },
        {
          "name": "F#3",
          "midi": 54,
          "time": 51.02362800000036,
          "velocity": 0.47244094488188976,
          "duration": 0.015225149414064276
        },
        {
          "name": "F#3",
          "midi": 54,
          "time": 51.14173825000036,
          "velocity": 0.31496062992125984,
          "duration": 0.015225149414064276
        },
        {
          "name": "C#2",
          "midi": 37,
          "time": 51.14173825000036,
          "velocity": 0.31496062992125984,
          "duration": 0.015686517578124892
        },
        {
          "name": "G#2",
          "midi": 44,
          "time": 51.14173825000036,
          "velocity": 0.3937007874015748,
          "duration": 0.015225149414064276
        },
        {
          "name": "G#2",
          "midi": 44,
          "time": 51.25984850000036,
          "velocity": 0.47244094488188976,
          "duration": 0.015686517578124892
        },
        {
          "name": "F#3",
          "midi": 54,
          "time": 51.25984850000036,
          "velocity": 0.47244094488188976,
          "duration": 0.015225149414064276
        },
        {
          "name": "D2",
          "midi": 38,
          "time": 51.37795875000036,
          "velocity": 0.47244094488188976,
          "duration": 0.015686517578124892
        },
        {
          "name": "E2",
          "midi": 40,
          "time": 51.37795875000036,
          "velocity": 0.47244094488188976,
          "duration": 0.015686517578124892
        },
        {
          "name": "A3",
          "midi": 57,
          "time": 51.37795875000036,
          "velocity": 0.5511811023622047,
          "duration": 0.015686517578124892
        },
        {
          "name": "G#2",
          "midi": 44,
          "time": 51.37795875000036,
          "velocity": 0.47244094488188976,
          "duration": 0.015686517578124892
        },
        {
          "name": "D4",
          "midi": 62,
          "time": 51.37795875000036,
          "velocity": 0.3937007874015748,
          "duration": 0.015686517578124892
        },
        {
          "name": "F#3",
          "midi": 54,
          "time": 51.37795875000036,
          "velocity": 0.31496062992125984,
          "duration": 0.015225149414064276
        },
        {
          "name": "C2",
          "midi": 36,
          "time": 51.37795875000036,
          "velocity": 0.5511811023622047,
          "duration": 0.015686517578124892
        },
        {
          "name": "G#2",
          "midi": 44,
          "time": 51.49606900000036,
          "velocity": 0.47244094488188976,
          "duration": 0.015686517578124892
        },
        {
          "name": "F#3",
          "midi": 54,
          "time": 51.49606900000036,
          "velocity": 0.47244094488188976,
          "duration": 0.015225149414064276
        },
        {
          "name": "G#2",
          "midi": 44,
          "time": 51.61417925000036,
          "velocity": 0.47244094488188976,
          "duration": 0.015686517578124892
        },
        {
          "name": "F#3",
          "midi": 54,
          "time": 51.61417925000036,
          "velocity": 0.31496062992125984,
          "duration": 0.015225149414064276
        },
        {
          "name": "E2",
          "midi": 40,
          "time": 51.73228950000036,
          "velocity": 0.47244094488188976,
          "duration": 0.015686517578124892
        },
        {
          "name": "C2",
          "midi": 36,
          "time": 51.73228950000036,
          "velocity": 0.5511811023622047,
          "duration": 0.015686517578124892
        },
        {
          "name": "F#3",
          "midi": 54,
          "time": 51.73228950000036,
          "velocity": 0.47244094488188976,
          "duration": 0.015225149414064276
        },
        {
          "name": "G#2",
          "midi": 44,
          "time": 51.73228950000036,
          "velocity": 0.3937007874015748,
          "duration": 0.015225149414064276
        },
        {
          "name": "G#2",
          "midi": 44,
          "time": 51.85039975000036,
          "velocity": 0.47244094488188976,
          "duration": 0.015686517578124892
        },
        {
          "name": "F#3",
          "midi": 54,
          "time": 51.85039975000036,
          "velocity": 0.31496062992125984,
          "duration": 0.015225149414064276
        },
        {
          "name": "E2",
          "midi": 40,
          "time": 51.968510000000364,
          "velocity": 0.47244094488188976,
          "duration": 0.015686517578124892
        },
        {
          "name": "G3",
          "midi": 55,
          "time": 51.968510000000364,
          "velocity": 0.5511811023622047,
          "duration": 0.015686517578124892
        },
        {
          "name": "G#2",
          "midi": 44,
          "time": 51.968510000000364,
          "velocity": 0.47244094488188976,
          "duration": 0.015686517578124892
        },
        {
          "name": "F#3",
          "midi": 54,
          "time": 51.968510000000364,
          "velocity": 0.47244094488188976,
          "duration": 0.015225149414064276
        },
        {
          "name": "D4",
          "midi": 62,
          "time": 51.968510000000364,
          "velocity": 0.3937007874015748,
          "duration": 0.015686517578124892
        },
        {
          "name": "D2",
          "midi": 38,
          "time": 51.968510000000364,
          "velocity": 0.47244094488188976,
          "duration": 0.015686517578124892
        },
        {
          "name": "C2",
          "midi": 36,
          "time": 51.968510000000364,
          "velocity": 0.5511811023622047,
          "duration": 0.015686517578124892
        },
        {
          "name": "F#3",
          "midi": 54,
          "time": 52.086620250000365,
          "velocity": 0.31496062992125984,
          "duration": 0.015225149414064276
        },
        {
          "name": "A2",
          "midi": 45,
          "time": 52.086620250000365,
          "velocity": 0.3937007874015748,
          "duration": 0.015686517578124892
        },
        {
          "name": "G#2",
          "midi": 44,
          "time": 52.086620250000365,
          "velocity": 0.47244094488188976,
          "duration": 0.015686517578124892
        },
        {
          "name": "E2",
          "midi": 40,
          "time": 52.204730500000366,
          "velocity": 0.47244094488188976,
          "duration": 0.015686517578124892
        },
        {
          "name": "G3",
          "midi": 55,
          "time": 52.204730500000366,
          "velocity": 0.5511811023622047,
          "duration": 0.015686517578124892
        },
        {
          "name": "G#2",
          "midi": 44,
          "time": 52.204730500000366,
          "velocity": 0.47244094488188976,
          "duration": 0.015686517578124892
        },
        {
          "name": "F#3",
          "midi": 54,
          "time": 52.204730500000366,
          "velocity": 0.47244094488188976,
          "duration": 0.015225149414064276
        },
        {
          "name": "D4",
          "midi": 62,
          "time": 52.204730500000366,
          "velocity": 0.3937007874015748,
          "duration": 0.015686517578124892
        },
        {
          "name": "D2",
          "midi": 38,
          "time": 52.204730500000366,
          "velocity": 0.47244094488188976,
          "duration": 0.015686517578124892
        },
        {
          "name": "C2",
          "midi": 36,
          "time": 52.204730500000366,
          "velocity": 0.5511811023622047,
          "duration": 0.015686517578124892
        },
        {
          "name": "F#3",
          "midi": 54,
          "time": 52.32284075000037,
          "velocity": 0.31496062992125984,
          "duration": 0.015225149414064276
        },
        {
          "name": "A2",
          "midi": 45,
          "time": 52.32284075000037,
          "velocity": 0.3937007874015748,
          "duration": 0.015686517578124892
        },
        {
          "name": "G#2",
          "midi": 44,
          "time": 52.32284075000037,
          "velocity": 0.47244094488188976,
          "duration": 0.015686517578124892
        },
        {
          "name": "F#3",
          "midi": 54,
          "time": 52.44095100000037,
          "velocity": 0.47244094488188976,
          "duration": 0.015225149414064276
        },
        {
          "name": "G#2",
          "midi": 44,
          "time": 52.44095100000037,
          "velocity": 0.3937007874015748,
          "duration": 0.015225149414064276
        },
        {
          "name": "C2",
          "midi": 36,
          "time": 52.44095100000037,
          "velocity": 0.5511811023622047,
          "duration": 0.015686517578124892
        },
        {
          "name": "E2",
          "midi": 40,
          "time": 52.44095100000037,
          "velocity": 0.47244094488188976,
          "duration": 0.015686517578124892
        },
        {
          "name": "A3",
          "midi": 57,
          "time": 52.44095100000037,
          "velocity": 0.5511811023622047,
          "duration": 0.015686517578124892
        },
        {
          "name": "G#2",
          "midi": 44,
          "time": 52.55906125000037,
          "velocity": 0.47244094488188976,
          "duration": 0.015686517578124892
        },
        {
          "name": "F#3",
          "midi": 54,
          "time": 52.55906125000037,
          "velocity": 0.31496062992125984,
          "duration": 0.015225149414064276
        },
        {
          "name": "G#2",
          "midi": 44,
          "time": 52.67717150000037,
          "velocity": 0.47244094488188976,
          "duration": 0.015686517578124892
        },
        {
          "name": "F#3",
          "midi": 54,
          "time": 52.67717150000037,
          "velocity": 0.47244094488188976,
          "duration": 0.015225149414064276
        },
        {
          "name": "G3",
          "midi": 55,
          "time": 52.79528175000037,
          "velocity": 0.5511811023622047,
          "duration": 0.015686517578124892
        },
        {
          "name": "E2",
          "midi": 40,
          "time": 52.79528175000037,
          "velocity": 0.47244094488188976,
          "duration": 0.015686517578124892
        },
        {
          "name": "C2",
          "midi": 36,
          "time": 52.79528175000037,
          "velocity": 0.5511811023622047,
          "duration": 0.015686517578124892
        },
        {
          "name": "G#2",
          "midi": 44,
          "time": 52.79528175000037,
          "velocity": 0.3937007874015748,
          "duration": 0.015225149414064276
        },
        {
          "name": "D4",
          "midi": 62,
          "time": 52.79528175000037,
          "velocity": 0.3937007874015748,
          "duration": 0.015686517578124892
        },
        {
          "name": "D2",
          "midi": 38,
          "time": 52.79528175000037,
          "velocity": 0.47244094488188976,
          "duration": 0.015686517578124892
        },
        {
          "name": "F#3",
          "midi": 54,
          "time": 52.79528175000037,
          "velocity": 0.31496062992125984,
          "duration": 0.015225149414064276
        },
        {
          "name": "G#2",
          "midi": 44,
          "time": 52.91339200000037,
          "velocity": 0.47244094488188976,
          "duration": 0.015686517578124892
        },
        {
          "name": "F#3",
          "midi": 54,
          "time": 52.91339200000037,
          "velocity": 0.47244094488188976,
          "duration": 0.015225149414064276
        },
        {
          "name": "G#2",
          "midi": 44,
          "time": 53.03150225000037,
          "velocity": 0.47244094488188976,
          "duration": 0.015686517578124892
        },
        {
          "name": "F#3",
          "midi": 54,
          "time": 53.03150225000037,
          "velocity": 0.31496062992125984,
          "duration": 0.015225149414064276
        },
        {
          "name": "F#3",
          "midi": 54,
          "time": 53.14961250000037,
          "velocity": 0.47244094488188976,
          "duration": 0.015225149414064276
        },
        {
          "name": "C2",
          "midi": 36,
          "time": 53.14961250000037,
          "velocity": 0.5511811023622047,
          "duration": 0.015686517578124892
        },
        {
          "name": "E2",
          "midi": 40,
          "time": 53.14961250000037,
          "velocity": 0.47244094488188976,
          "duration": 0.015686517578124892
        },
        {
          "name": "G#2",
          "midi": 44,
          "time": 53.14961250000037,
          "velocity": 0.47244094488188976,
          "duration": 0.015225149414064276
        },
        {
          "name": "G3",
          "midi": 55,
          "time": 53.14961250000037,
          "velocity": 0.5511811023622047,
          "duration": 0.015686517578124892
        },
        {
          "name": "G#2",
          "midi": 44,
          "time": 53.267722750000374,
          "velocity": 0.3937007874015748,
          "duration": 0.015225149414064276
        },
        {
          "name": "F#3",
          "midi": 54,
          "time": 53.267722750000374,
          "velocity": 0.31496062992125984,
          "duration": 0.015225149414064276
        },
        {
          "name": "D4",
          "midi": 62,
          "time": 53.385833000000375,
          "velocity": 0.3937007874015748,
          "duration": 0.015686517578124892
        },
        {
          "name": "E2",
          "midi": 40,
          "time": 53.385833000000375,
          "velocity": 0.47244094488188976,
          "duration": 0.015686517578124892
        },
        {
          "name": "F#3",
          "midi": 54,
          "time": 53.385833000000375,
          "velocity": 0.47244094488188976,
          "duration": 0.015225149414064276
        },
        {
          "name": "G#2",
          "midi": 44,
          "time": 53.385833000000375,
          "velocity": 0.47244094488188976,
          "duration": 0.015225149414064276
        },
        {
          "name": "D2",
          "midi": 38,
          "time": 53.385833000000375,
          "velocity": 0.47244094488188976,
          "duration": 0.015686517578124892
        },
        {
          "name": "D4",
          "midi": 62,
          "time": 53.503943250000376,
          "velocity": 0.3937007874015748,
          "duration": 0.015686517578124892
        },
        {
          "name": "E2",
          "midi": 40,
          "time": 53.503943250000376,
          "velocity": 0.47244094488188976,
          "duration": 0.015686517578124892
        },
        {
          "name": "F#3",
          "midi": 54,
          "time": 53.503943250000376,
          "velocity": 0.31496062992125984,
          "duration": 0.015225149414064276
        },
        {
          "name": "G#2",
          "midi": 44,
          "time": 53.503943250000376,
          "velocity": 0.3937007874015748,
          "duration": 0.015225149414064276
        },
        {
          "name": "D2",
          "midi": 38,
          "time": 53.503943250000376,
          "velocity": 0.47244094488188976,
          "duration": 0.015686517578124892
        },
        {
          "name": "D4",
          "midi": 62,
          "time": 53.622053500000376,
          "velocity": 0.3937007874015748,
          "duration": 0.015686517578124892
        },
        {
          "name": "E2",
          "midi": 40,
          "time": 53.622053500000376,
          "velocity": 0.47244094488188976,
          "duration": 0.015686517578124892
        },
        {
          "name": "F#3",
          "midi": 54,
          "time": 53.622053500000376,
          "velocity": 0.47244094488188976,
          "duration": 0.015225149414064276
        },
        {
          "name": "G#2",
          "midi": 44,
          "time": 53.622053500000376,
          "velocity": 0.47244094488188976,
          "duration": 0.015225149414064276
        },
        {
          "name": "D2",
          "midi": 38,
          "time": 53.622053500000376,
          "velocity": 0.47244094488188976,
          "duration": 0.015686517578124892
        },
        {
          "name": "D4",
          "midi": 62,
          "time": 53.74016375000038,
          "velocity": 0.3937007874015748,
          "duration": 0.015686517578124892
        },
        {
          "name": "E2",
          "midi": 40,
          "time": 53.74016375000038,
          "velocity": 0.47244094488188976,
          "duration": 0.015686517578124892
        },
        {
          "name": "F#3",
          "midi": 54,
          "time": 53.74016375000038,
          "velocity": 0.31496062992125984,
          "duration": 0.015225149414064276
        },
        {
          "name": "G#2",
          "midi": 44,
          "time": 53.74016375000038,
          "velocity": 0.3937007874015748,
          "duration": 0.015225149414064276
        },
        {
          "name": "D2",
          "midi": 38,
          "time": 53.74016375000038,
          "velocity": 0.47244094488188976,
          "duration": 0.015686517578124892
        },
        {
          "name": "E2",
          "midi": 40,
          "time": 53.85827400000038,
          "velocity": 0.47244094488188976,
          "duration": 0.015686517578124892
        },
        {
          "name": "F#3",
          "midi": 54,
          "time": 53.85827400000038,
          "velocity": 0.47244094488188976,
          "duration": 0.015225149414064276
        },
        {
          "name": "G#2",
          "midi": 44,
          "time": 53.85827400000038,
          "velocity": 0.3937007874015748,
          "duration": 0.015225149414064276
        },
        {
          "name": "C2",
          "midi": 36,
          "time": 53.85827400000038,
          "velocity": 0.5511811023622047,
          "duration": 0.015686517578124892
        },
        {
          "name": "G#2",
          "midi": 44,
          "time": 53.97638425000038,
          "velocity": 0.3937007874015748,
          "duration": 0.015225149414064276
        },
        {
          "name": "C#2",
          "midi": 37,
          "time": 53.97638425000038,
          "velocity": 0.31496062992125984,
          "duration": 0.015686517578124892
        },
        {
          "name": "F#3",
          "midi": 54,
          "time": 53.97638425000038,
          "velocity": 0.31496062992125984,
          "duration": 0.015225149414064276
        },
        {
          "name": "G#2",
          "midi": 44,
          "time": 54.09449450000038,
          "velocity": 0.47244094488188976,
          "duration": 0.015686517578124892
        },
        {
          "name": "F#3",
          "midi": 54,
          "time": 54.09449450000038,
          "velocity": 0.47244094488188976,
          "duration": 0.015225149414064276
        },
        {
          "name": "C2",
          "midi": 36,
          "time": 54.21260475000038,
          "velocity": 0.5511811023622047,
          "duration": 0.015686517578124892
        },
        {
          "name": "D2",
          "midi": 38,
          "time": 54.21260475000038,
          "velocity": 0.47244094488188976,
          "duration": 0.015686517578124892
        },
        {
          "name": "E2",
          "midi": 40,
          "time": 54.21260475000038,
          "velocity": 0.47244094488188976,
          "duration": 0.015686517578124892
        },
        {
          "name": "A3",
          "midi": 57,
          "time": 54.21260475000038,
          "velocity": 0.5511811023622047,
          "duration": 0.015686517578124892
        },
        {
          "name": "D4",
          "midi": 62,
          "time": 54.21260475000038,
          "velocity": 0.3937007874015748,
          "duration": 0.015686517578124892
        },
        {
          "name": "G#2",
          "midi": 44,
          "time": 54.21260475000038,
          "velocity": 0.47244094488188976,
          "duration": 0.015686517578124892
        },
        {
          "name": "F#3",
          "midi": 54,
          "time": 54.21260475000038,
          "velocity": 0.31496062992125984,
          "duration": 0.015225149414064276
        },
        {
          "name": "G#2",
          "midi": 44,
          "time": 54.33071500000038,
          "velocity": 0.47244094488188976,
          "duration": 0.015686517578124892
        },
        {
          "name": "F#3",
          "midi": 54,
          "time": 54.33071500000038,
          "velocity": 0.47244094488188976,
          "duration": 0.015225149414064276
        },
        {
          "name": "G#2",
          "midi": 44,
          "time": 54.44882525000038,
          "velocity": 0.47244094488188976,
          "duration": 0.015686517578124892
        },
        {
          "name": "F#3",
          "midi": 54,
          "time": 54.44882525000038,
          "velocity": 0.31496062992125984,
          "duration": 0.015225149414064276
        },
        {
          "name": "E2",
          "midi": 40,
          "time": 54.56693550000038,
          "velocity": 0.47244094488188976,
          "duration": 0.015686517578124892
        },
        {
          "name": "F#3",
          "midi": 54,
          "time": 54.56693550000038,
          "velocity": 0.47244094488188976,
          "duration": 0.015225149414064276
        },
        {
          "name": "C2",
          "midi": 36,
          "time": 54.56693550000038,
          "velocity": 0.5511811023622047,
          "duration": 0.015686517578124892
        },
        {
          "name": "G#2",
          "midi": 44,
          "time": 54.56693550000038,
          "velocity": 0.3937007874015748,
          "duration": 0.015225149414064276
        },
        {
          "name": "G#2",
          "midi": 44,
          "time": 54.685045750000384,
          "velocity": 0.47244094488188976,
          "duration": 0.015686517578124892
        },
        {
          "name": "F#3",
          "midi": 54,
          "time": 54.685045750000384,
          "velocity": 0.31496062992125984,
          "duration": 0.015225149414064276
        },
        {
          "name": "C2",
          "midi": 36,
          "time": 54.803156000000385,
          "velocity": 0.5511811023622047,
          "duration": 0.015686517578124892
        },
        {
          "name": "E2",
          "midi": 40,
          "time": 54.803156000000385,
          "velocity": 0.47244094488188976,
          "duration": 0.015686517578124892
        },
        {
          "name": "G3",
          "midi": 55,
          "time": 54.803156000000385,
          "velocity": 0.5511811023622047,
          "duration": 0.015686517578124892
        },
        {
          "name": "G#2",
          "midi": 44,
          "time": 54.803156000000385,
          "velocity": 0.47244094488188976,
          "duration": 0.015686517578124892
        },
        {
          "name": "D4",
          "midi": 62,
          "time": 54.803156000000385,
          "velocity": 0.3937007874015748,
          "duration": 0.015686517578124892
        },
        {
          "name": "D2",
          "midi": 38,
          "time": 54.803156000000385,
          "velocity": 0.47244094488188976,
          "duration": 0.015686517578124892
        },
        {
          "name": "F#3",
          "midi": 54,
          "time": 54.803156000000385,
          "velocity": 0.47244094488188976,
          "duration": 0.015225149414064276
        },
        {
          "name": "G#2",
          "midi": 44,
          "time": 54.921266250000386,
          "velocity": 0.47244094488188976,
          "duration": 0.015686517578124892
        },
        {
          "name": "A2",
          "midi": 45,
          "time": 54.921266250000386,
          "velocity": 0.3937007874015748,
          "duration": 0.015686517578124892
        },
        {
          "name": "F#3",
          "midi": 54,
          "time": 54.921266250000386,
          "velocity": 0.31496062992125984,
          "duration": 0.015225149414064276
        },
        {
          "name": "C2",
          "midi": 36,
          "time": 55.03937650000039,
          "velocity": 0.5511811023622047,
          "duration": 0.015686517578124892
        },
        {
          "name": "E2",
          "midi": 40,
          "time": 55.03937650000039,
          "velocity": 0.47244094488188976,
          "duration": 0.015686517578124892
        },
        {
          "name": "G3",
          "midi": 55,
          "time": 55.03937650000039,
          "velocity": 0.5511811023622047,
          "duration": 0.015686517578124892
        },
        {
          "name": "G#2",
          "midi": 44,
          "time": 55.03937650000039,
          "velocity": 0.47244094488188976,
          "duration": 0.015686517578124892
        },
        {
          "name": "D4",
          "midi": 62,
          "time": 55.03937650000039,
          "velocity": 0.3937007874015748,
          "duration": 0.015686517578124892
        },
        {
          "name": "D2",
          "midi": 38,
          "time": 55.03937650000039,
          "velocity": 0.47244094488188976,
          "duration": 0.015686517578124892
        },
        {
          "name": "F#3",
          "midi": 54,
          "time": 55.03937650000039,
          "velocity": 0.47244094488188976,
          "duration": 0.015225149414064276
        },
        {
          "name": "G#2",
          "midi": 44,
          "time": 55.15748675000039,
          "velocity": 0.47244094488188976,
          "duration": 0.015686517578124892
        },
        {
          "name": "A2",
          "midi": 45,
          "time": 55.15748675000039,
          "velocity": 0.3937007874015748,
          "duration": 0.015686517578124892
        },
        {
          "name": "F#3",
          "midi": 54,
          "time": 55.15748675000039,
          "velocity": 0.31496062992125984,
          "duration": 0.015225149414064276
        },
        {
          "name": "C2",
          "midi": 36,
          "time": 55.27559700000039,
          "velocity": 0.5511811023622047,
          "duration": 0.015686517578124892
        },
        {
          "name": "E2",
          "midi": 40,
          "time": 55.27559700000039,
          "velocity": 0.47244094488188976,
          "duration": 0.015686517578124892
        },
        {
          "name": "A3",
          "midi": 57,
          "time": 55.27559700000039,
          "velocity": 0.5511811023622047,
          "duration": 0.015686517578124892
        },
        {
          "name": "F#3",
          "midi": 54,
          "time": 55.27559700000039,
          "velocity": 0.47244094488188976,
          "duration": 0.015225149414064276
        },
        {
          "name": "G#2",
          "midi": 44,
          "time": 55.27559700000039,
          "velocity": 0.3937007874015748,
          "duration": 0.015225149414064276
        },
        {
          "name": "G#2",
          "midi": 44,
          "time": 55.39370725000039,
          "velocity": 0.47244094488188976,
          "duration": 0.015686517578124892
        },
        {
          "name": "F#3",
          "midi": 54,
          "time": 55.39370725000039,
          "velocity": 0.31496062992125984,
          "duration": 0.015225149414064276
        },
        {
          "name": "G#2",
          "midi": 44,
          "time": 55.51181750000039,
          "velocity": 0.47244094488188976,
          "duration": 0.015686517578124892
        },
        {
          "name": "F#3",
          "midi": 54,
          "time": 55.51181750000039,
          "velocity": 0.47244094488188976,
          "duration": 0.015225149414064276
        },
        {
          "name": "E2",
          "midi": 40,
          "time": 55.62992775000039,
          "velocity": 0.47244094488188976,
          "duration": 0.015686517578124892
        },
        {
          "name": "C2",
          "midi": 36,
          "time": 55.62992775000039,
          "velocity": 0.5511811023622047,
          "duration": 0.015686517578124892
        },
        {
          "name": "G#2",
          "midi": 44,
          "time": 55.62992775000039,
          "velocity": 0.3937007874015748,
          "duration": 0.015225149414064276
        },
        {
          "name": "D4",
          "midi": 62,
          "time": 55.62992775000039,
          "velocity": 0.3937007874015748,
          "duration": 0.015686517578124892
        },
        {
          "name": "F#3",
          "midi": 54,
          "time": 55.62992775000039,
          "velocity": 0.31496062992125984,
          "duration": 0.015225149414064276
        },
        {
          "name": "D2",
          "midi": 38,
          "time": 55.62992775000039,
          "velocity": 0.47244094488188976,
          "duration": 0.015686517578124892
        },
        {
          "name": "G3",
          "midi": 55,
          "time": 55.62992775000039,
          "velocity": 0.5511811023622047,
          "duration": 0.015686517578124892
        },
        {
          "name": "G#2",
          "midi": 44,
          "time": 55.74803800000039,
          "velocity": 0.47244094488188976,
          "duration": 0.015686517578124892
        },
        {
          "name": "F#3",
          "midi": 54,
          "time": 55.74803800000039,
          "velocity": 0.47244094488188976,
          "duration": 0.015225149414064276
        },
        {
          "name": "G#2",
          "midi": 44,
          "time": 55.86614825000039,
          "velocity": 0.47244094488188976,
          "duration": 0.015686517578124892
        },
        {
          "name": "F#3",
          "midi": 54,
          "time": 55.86614825000039,
          "velocity": 0.31496062992125984,
          "duration": 0.015225149414064276
        },
        {
          "name": "E2",
          "midi": 40,
          "time": 55.984258500000394,
          "velocity": 0.47244094488188976,
          "duration": 0.015686517578124892
        },
        {
          "name": "G#2",
          "midi": 44,
          "time": 55.984258500000394,
          "velocity": 0.47244094488188976,
          "duration": 0.015225149414064276
        },
        {
          "name": "G3",
          "midi": 55,
          "time": 55.984258500000394,
          "velocity": 0.5511811023622047,
          "duration": 0.015686517578124892
        },
        {
          "name": "F#3",
          "midi": 54,
          "time": 55.984258500000394,
          "velocity": 0.47244094488188976,
          "duration": 0.015225149414064276
        },
        {
          "name": "C2",
          "midi": 36,
          "time": 55.984258500000394,
          "velocity": 0.5511811023622047,
          "duration": 0.015686517578124892
        },
        {
          "name": "G#2",
          "midi": 44,
          "time": 56.102368750000394,
          "velocity": 0.3937007874015748,
          "duration": 0.015225149414064276
        },
        {
          "name": "F#3",
          "midi": 54,
          "time": 56.102368750000394,
          "velocity": 0.31496062992125984,
          "duration": 0.015225149414064276
        },
        {
          "name": "E2",
          "midi": 40,
          "time": 56.220479000000395,
          "velocity": 0.47244094488188976,
          "duration": 0.015686517578124892
        },
        {
          "name": "G#2",
          "midi": 44,
          "time": 56.220479000000395,
          "velocity": 0.47244094488188976,
          "duration": 0.015225149414064276
        },
        {
          "name": "D2",
          "midi": 38,
          "time": 56.220479000000395,
          "velocity": 0.47244094488188976,
          "duration": 0.015686517578124892
        },
        {
          "name": "F#3",
          "midi": 54,
          "time": 56.220479000000395,
          "velocity": 0.47244094488188976,
          "duration": 0.015225149414064276
        },
        {
          "name": "D4",
          "midi": 62,
          "time": 56.220479000000395,
          "velocity": 0.3937007874015748,
          "duration": 0.015686517578124892
        },
        {
          "name": "E2",
          "midi": 40,
          "time": 56.338589250000396,
          "velocity": 0.47244094488188976,
          "duration": 0.015686517578124892
        },
        {
          "name": "G#2",
          "midi": 44,
          "time": 56.338589250000396,
          "velocity": 0.3937007874015748,
          "duration": 0.015225149414064276
        },
        {
          "name": "D2",
          "midi": 38,
          "time": 56.338589250000396,
          "velocity": 0.47244094488188976,
          "duration": 0.015686517578124892
        },
        {
          "name": "F#3",
          "midi": 54,
          "time": 56.338589250000396,
          "velocity": 0.31496062992125984,
          "duration": 0.015225149414064276
        },
        {
          "name": "D4",
          "midi": 62,
          "time": 56.338589250000396,
          "velocity": 0.3937007874015748,
          "duration": 0.015686517578124892
        },
        {
          "name": "E2",
          "midi": 40,
          "time": 56.4566995000004,
          "velocity": 0.47244094488188976,
          "duration": 0.015686517578124892
        },
        {
          "name": "G#2",
          "midi": 44,
          "time": 56.4566995000004,
          "velocity": 0.47244094488188976,
          "duration": 0.015225149414064276
        },
        {
          "name": "D2",
          "midi": 38,
          "time": 56.4566995000004,
          "velocity": 0.47244094488188976,
          "duration": 0.015686517578124892
        },
        {
          "name": "F#3",
          "midi": 54,
          "time": 56.4566995000004,
          "velocity": 0.47244094488188976,
          "duration": 0.015225149414064276
        },
        {
          "name": "D4",
          "midi": 62,
          "time": 56.4566995000004,
          "velocity": 0.3937007874015748,
          "duration": 0.015686517578124892
        },
        {
          "name": "E2",
          "midi": 40,
          "time": 56.5748097500004,
          "velocity": 0.47244094488188976,
          "duration": 0.015686517578124892
        },
        {
          "name": "G#2",
          "midi": 44,
          "time": 56.5748097500004,
          "velocity": 0.3937007874015748,
          "duration": 0.015225149414064276
        },
        {
          "name": "D2",
          "midi": 38,
          "time": 56.5748097500004,
          "velocity": 0.47244094488188976,
          "duration": 0.015686517578124892
        },
        {
          "name": "F#3",
          "midi": 54,
          "time": 56.5748097500004,
          "velocity": 0.31496062992125984,
          "duration": 0.015225149414064276
        },
        {
          "name": "D4",
          "midi": 62,
          "time": 56.5748097500004,
          "velocity": 0.3937007874015748,
          "duration": 0.015686517578124892
        },
        {
          "name": "G#2",
          "midi": 44,
          "time": 56.6929200000004,
          "velocity": 0.3937007874015748,
          "duration": 0.015225149414064276
        },
        {
          "name": "C2",
          "midi": 36,
          "time": 56.6929200000004,
          "velocity": 0.5511811023622047,
          "duration": 0.015686517578124892
        },
        {
          "name": "E2",
          "midi": 40,
          "time": 56.6929200000004,
          "velocity": 0.47244094488188976,
          "duration": 0.015686517578124892
        },
        {
          "name": "F#3",
          "midi": 54,
          "time": 56.6929200000004,
          "velocity": 0.47244094488188976,
          "duration": 0.015225149414064276
        },
        {
          "name": "G#2",
          "midi": 44,
          "time": 56.8110302500004,
          "velocity": 0.3937007874015748,
          "duration": 0.015225149414064276
        },
        {
          "name": "F#3",
          "midi": 54,
          "time": 56.8110302500004,
          "velocity": 0.31496062992125984,
          "duration": 0.015225149414064276
        },
        {
          "name": "C#2",
          "midi": 37,
          "time": 56.8110302500004,
          "velocity": 0.31496062992125984,
          "duration": 0.015686517578124892
        },
        {
          "name": "G#2",
          "midi": 44,
          "time": 56.9291405000004,
          "velocity": 0.47244094488188976,
          "duration": 0.015686517578124892
        },
        {
          "name": "F#3",
          "midi": 54,
          "time": 56.9291405000004,
          "velocity": 0.47244094488188976,
          "duration": 0.015225149414064276
        },
        {
          "name": "E2",
          "midi": 40,
          "time": 57.0472507500004,
          "velocity": 0.47244094488188976,
          "duration": 0.015686517578124892
        },
        {
          "name": "A3",
          "midi": 57,
          "time": 57.0472507500004,
          "velocity": 0.5511811023622047,
          "duration": 0.015686517578124892
        },
        {
          "name": "G#2",
          "midi": 44,
          "time": 57.0472507500004,
          "velocity": 0.47244094488188976,
          "duration": 0.015686517578124892
        },
        {
          "name": "D4",
          "midi": 62,
          "time": 57.0472507500004,
          "velocity": 0.3937007874015748,
          "duration": 0.015686517578124892
        },
        {
          "name": "F#3",
          "midi": 54,
          "time": 57.0472507500004,
          "velocity": 0.31496062992125984,
          "duration": 0.015225149414064276
        },
        {
          "name": "C2",
          "midi": 36,
          "time": 57.0472507500004,
          "velocity": 0.5511811023622047,
          "duration": 0.015686517578124892
        },
        {
          "name": "D2",
          "midi": 38,
          "time": 57.0472507500004,
          "velocity": 0.47244094488188976,
          "duration": 0.015686517578124892
        },
        {
          "name": "G#2",
          "midi": 44,
          "time": 57.1653610000004,
          "velocity": 0.47244094488188976,
          "duration": 0.015686517578124892
        },
        {
          "name": "F#3",
          "midi": 54,
          "time": 57.1653610000004,
          "velocity": 0.47244094488188976,
          "duration": 0.015225149414064276
        },
        {
          "name": "G#2",
          "midi": 44,
          "time": 57.2834712500004,
          "velocity": 0.47244094488188976,
          "duration": 0.015686517578124892
        },
        {
          "name": "F#3",
          "midi": 54,
          "time": 57.2834712500004,
          "velocity": 0.31496062992125984,
          "duration": 0.015225149414064276
        },
        {
          "name": "C2",
          "midi": 36,
          "time": 57.401581500000404,
          "velocity": 0.5511811023622047,
          "duration": 0.015686517578124892
        },
        {
          "name": "G#2",
          "midi": 44,
          "time": 57.401581500000404,
          "velocity": 0.3937007874015748,
          "duration": 0.015225149414064276
        },
        {
          "name": "E2",
          "midi": 40,
          "time": 57.401581500000404,
          "velocity": 0.47244094488188976,
          "duration": 0.015686517578124892
        },
        {
          "name": "F#3",
          "midi": 54,
          "time": 57.401581500000404,
          "velocity": 0.47244094488188976,
          "duration": 0.015225149414064276
        },
        {
          "name": "G#2",
          "midi": 44,
          "time": 57.519691750000405,
          "velocity": 0.47244094488188976,
          "duration": 0.015686517578124892
        },
        {
          "name": "F#3",
          "midi": 54,
          "time": 57.519691750000405,
          "velocity": 0.31496062992125984,
          "duration": 0.015225149414064276
        },
        {
          "name": "G3",
          "midi": 55,
          "time": 57.637802000000406,
          "velocity": 0.5511811023622047,
          "duration": 0.015686517578124892
        },
        {
          "name": "G#2",
          "midi": 44,
          "time": 57.637802000000406,
          "velocity": 0.47244094488188976,
          "duration": 0.015686517578124892
        },
        {
          "name": "D4",
          "midi": 62,
          "time": 57.637802000000406,
          "velocity": 0.3937007874015748,
          "duration": 0.015686517578124892
        },
        {
          "name": "D2",
          "midi": 38,
          "time": 57.637802000000406,
          "velocity": 0.47244094488188976,
          "duration": 0.015686517578124892
        },
        {
          "name": "F#3",
          "midi": 54,
          "time": 57.637802000000406,
          "velocity": 0.47244094488188976,
          "duration": 0.015225149414064276
        },
        {
          "name": "C2",
          "midi": 36,
          "time": 57.637802000000406,
          "velocity": 0.5511811023622047,
          "duration": 0.015686517578124892
        },
        {
          "name": "E2",
          "midi": 40,
          "time": 57.637802000000406,
          "velocity": 0.47244094488188976,
          "duration": 0.015686517578124892
        },
        {
          "name": "G#2",
          "midi": 44,
          "time": 57.75591225000041,
          "velocity": 0.47244094488188976,
          "duration": 0.015686517578124892
        },
        {
          "name": "F#3",
          "midi": 54,
          "time": 57.75591225000041,
          "velocity": 0.31496062992125984,
          "duration": 0.015225149414064276
        },
        {
          "name": "A2",
          "midi": 45,
          "time": 57.75591225000041,
          "velocity": 0.3937007874015748,
          "duration": 0.015686517578124892
        },
        {
          "name": "G3",
          "midi": 55,
          "time": 57.87402250000041,
          "velocity": 0.5511811023622047,
          "duration": 0.015686517578124892
        },
        {
          "name": "G#2",
          "midi": 44,
          "time": 57.87402250000041,
          "velocity": 0.47244094488188976,
          "duration": 0.015686517578124892
        },
        {
          "name": "D4",
          "midi": 62,
          "time": 57.87402250000041,
          "velocity": 0.3937007874015748,
          "duration": 0.015686517578124892
        },
        {
          "name": "D2",
          "midi": 38,
          "time": 57.87402250000041,
          "velocity": 0.47244094488188976,
          "duration": 0.015686517578124892
        },
        {
          "name": "F#3",
          "midi": 54,
          "time": 57.87402250000041,
          "velocity": 0.47244094488188976,
          "duration": 0.015225149414064276
        },
        {
          "name": "C2",
          "midi": 36,
          "time": 57.87402250000041,
          "velocity": 0.5511811023622047,
          "duration": 0.015686517578124892
        },
        {
          "name": "E2",
          "midi": 40,
          "time": 57.87402250000041,
          "velocity": 0.47244094488188976,
          "duration": 0.015686517578124892
        },
        {
          "name": "G#2",
          "midi": 44,
          "time": 57.99213275000041,
          "velocity": 0.47244094488188976,
          "duration": 0.015686517578124892
        },
        {
          "name": "F#3",
          "midi": 54,
          "time": 57.99213275000041,
          "velocity": 0.31496062992125984,
          "duration": 0.015225149414064276
        },
        {
          "name": "A2",
          "midi": 45,
          "time": 57.99213275000041,
          "velocity": 0.3937007874015748,
          "duration": 0.015686517578124892
        },
        {
          "name": "G#2",
          "midi": 44,
          "time": 58.11024300000041,
          "velocity": 0.3937007874015748,
          "duration": 0.015225149414064276
        },
        {
          "name": "C2",
          "midi": 36,
          "time": 58.11024300000041,
          "velocity": 0.5511811023622047,
          "duration": 0.015686517578124892
        },
        {
          "name": "E2",
          "midi": 40,
          "time": 58.11024300000041,
          "velocity": 0.47244094488188976,
          "duration": 0.015686517578124892
        },
        {
          "name": "F#3",
          "midi": 54,
          "time": 58.11024300000041,
          "velocity": 0.47244094488188976,
          "duration": 0.015225149414064276
        },
        {
          "name": "A3",
          "midi": 57,
          "time": 58.11024300000041,
          "velocity": 0.5511811023622047,
          "duration": 0.015686517578124892
        },
        {
          "name": "G#2",
          "midi": 44,
          "time": 58.22835325000041,
          "velocity": 0.47244094488188976,
          "duration": 0.015686517578124892
        },
        {
          "name": "F#3",
          "midi": 54,
          "time": 58.22835325000041,
          "velocity": 0.31496062992125984,
          "duration": 0.015225149414064276
        },
        {
          "name": "G#2",
          "midi": 44,
          "time": 58.34646350000041,
          "velocity": 0.47244094488188976,
          "duration": 0.015686517578124892
        },
        {
          "name": "F#3",
          "midi": 54,
          "time": 58.34646350000041,
          "velocity": 0.47244094488188976,
          "duration": 0.015225149414064276
        },
        {
          "name": "E2",
          "midi": 40,
          "time": 58.46457375000041,
          "velocity": 0.47244094488188976,
          "duration": 0.015686517578124892
        },
        {
          "name": "C2",
          "midi": 36,
          "time": 58.46457375000041,
          "velocity": 0.5511811023622047,
          "duration": 0.015686517578124892
        },
        {
          "name": "G#2",
          "midi": 44,
          "time": 58.46457375000041,
          "velocity": 0.3937007874015748,
          "duration": 0.015225149414064276
        },
        {
          "name": "D4",
          "midi": 62,
          "time": 58.46457375000041,
          "velocity": 0.3937007874015748,
          "duration": 0.015686517578124892
        },
        {
          "name": "F#3",
          "midi": 54,
          "time": 58.46457375000041,
          "velocity": 0.31496062992125984,
          "duration": 0.015225149414064276
        },
        {
          "name": "D2",
          "midi": 38,
          "time": 58.46457375000041,
          "velocity": 0.47244094488188976,
          "duration": 0.015686517578124892
        },
        {
          "name": "G3",
          "midi": 55,
          "time": 58.46457375000041,
          "velocity": 0.5511811023622047,
          "duration": 0.015686517578124892
        },
        {
          "name": "G#2",
          "midi": 44,
          "time": 58.58268400000041,
          "velocity": 0.47244094488188976,
          "duration": 0.015686517578124892
        },
        {
          "name": "F#3",
          "midi": 54,
          "time": 58.58268400000041,
          "velocity": 0.47244094488188976,
          "duration": 0.015225149414064276
        },
        {
          "name": "G#2",
          "midi": 44,
          "time": 58.70079425000041,
          "velocity": 0.47244094488188976,
          "duration": 0.015686517578124892
        },
        {
          "name": "F#3",
          "midi": 54,
          "time": 58.70079425000041,
          "velocity": 0.31496062992125984,
          "duration": 0.015225149414064276
        },
        {
          "name": "C2",
          "midi": 36,
          "time": 58.818904500000414,
          "velocity": 0.5511811023622047,
          "duration": 0.015686517578124892
        },
        {
          "name": "E2",
          "midi": 40,
          "time": 58.818904500000414,
          "velocity": 0.47244094488188976,
          "duration": 0.015686517578124892
        },
        {
          "name": "G#2",
          "midi": 44,
          "time": 58.818904500000414,
          "velocity": 0.47244094488188976,
          "duration": 0.015225149414064276
        },
        {
          "name": "F#3",
          "midi": 54,
          "time": 58.818904500000414,
          "velocity": 0.47244094488188976,
          "duration": 0.015225149414064276
        },
        {
          "name": "G3",
          "midi": 55,
          "time": 58.818904500000414,
          "velocity": 0.5511811023622047,
          "duration": 0.015686517578124892
        },
        {
          "name": "G#2",
          "midi": 44,
          "time": 58.937014750000415,
          "velocity": 0.3937007874015748,
          "duration": 0.015225149414064276
        },
        {
          "name": "F#3",
          "midi": 54,
          "time": 58.937014750000415,
          "velocity": 0.31496062992125984,
          "duration": 0.015225149414064276
        },
        {
          "name": "E2",
          "midi": 40,
          "time": 59.055125000000416,
          "velocity": 0.47244094488188976,
          "duration": 0.015686517578124892
        },
        {
          "name": "G#2",
          "midi": 44,
          "time": 59.055125000000416,
          "velocity": 0.47244094488188976,
          "duration": 0.015225149414064276
        },
        {
          "name": "D2",
          "midi": 38,
          "time": 59.055125000000416,
          "velocity": 0.47244094488188976,
          "duration": 0.015686517578124892
        },
        {
          "name": "F#3",
          "midi": 54,
          "time": 59.055125000000416,
          "velocity": 0.47244094488188976,
          "duration": 0.015225149414064276
        },
        {
          "name": "D4",
          "midi": 62,
          "time": 59.055125000000416,
          "velocity": 0.3937007874015748,
          "duration": 0.015686517578124892
        },
        {
          "name": "E2",
          "midi": 40,
          "time": 59.17323525000042,
          "velocity": 0.47244094488188976,
          "duration": 0.015686517578124892
        },
        {
          "name": "G#2",
          "midi": 44,
          "time": 59.17323525000042,
          "velocity": 0.3937007874015748,
          "duration": 0.015225149414064276
        },
        {
          "name": "D2",
          "midi": 38,
          "time": 59.17323525000042,
          "velocity": 0.47244094488188976,
          "duration": 0.015686517578124892
        },
        {
          "name": "F#3",
          "midi": 54,
          "time": 59.17323525000042,
          "velocity": 0.31496062992125984,
          "duration": 0.015225149414064276
        },
        {
          "name": "D4",
          "midi": 62,
          "time": 59.17323525000042,
          "velocity": 0.3937007874015748,
          "duration": 0.015686517578124892
        },
        {
          "name": "E2",
          "midi": 40,
          "time": 59.29134550000042,
          "velocity": 0.47244094488188976,
          "duration": 0.015686517578124892
        },
        {
          "name": "G#2",
          "midi": 44,
          "time": 59.29134550000042,
          "velocity": 0.47244094488188976,
          "duration": 0.015225149414064276
        },
        {
          "name": "D2",
          "midi": 38,
          "time": 59.29134550000042,
          "velocity": 0.47244094488188976,
          "duration": 0.015686517578124892
        },
        {
          "name": "F#3",
          "midi": 54,
          "time": 59.29134550000042,
          "velocity": 0.47244094488188976,
          "duration": 0.015225149414064276
        },
        {
          "name": "D4",
          "midi": 62,
          "time": 59.29134550000042,
          "velocity": 0.3937007874015748,
          "duration": 0.015686517578124892
        },
        {
          "name": "E2",
          "midi": 40,
          "time": 59.40945575000042,
          "velocity": 0.47244094488188976,
          "duration": 0.015686517578124892
        },
        {
          "name": "G#2",
          "midi": 44,
          "time": 59.40945575000042,
          "velocity": 0.3937007874015748,
          "duration": 0.015225149414064276
        },
        {
          "name": "D2",
          "midi": 38,
          "time": 59.40945575000042,
          "velocity": 0.47244094488188976,
          "duration": 0.015686517578124892
        },
        {
          "name": "F#3",
          "midi": 54,
          "time": 59.40945575000042,
          "velocity": 0.31496062992125984,
          "duration": 0.015225149414064276
        },
        {
          "name": "D4",
          "midi": 62,
          "time": 59.40945575000042,
          "velocity": 0.3937007874015748,
          "duration": 0.015686517578124892
        },
        {
          "name": "E2",
          "midi": 40,
          "time": 59.52756600000042,
          "velocity": 0.47244094488188976,
          "duration": 0.015686517578124892
        },
        {
          "name": "G#2",
          "midi": 44,
          "time": 59.52756600000042,
          "velocity": 0.3937007874015748,
          "duration": 0.015225149414064276
        },
        {
          "name": "C2",
          "midi": 36,
          "time": 59.52756600000042,
          "velocity": 0.5511811023622047,
          "duration": 0.015686517578124892
        },
        {
          "name": "F#3",
          "midi": 54,
          "time": 59.52756600000042,
          "velocity": 0.47244094488188976,
          "duration": 0.015225149414064276
        },
        {
          "name": "C#2",
          "midi": 37,
          "time": 59.64567625000042,
          "velocity": 0.31496062992125984,
          "duration": 0.015686517578124892
        },
        {
          "name": "F#3",
          "midi": 54,
          "time": 59.64567625000042,
          "velocity": 0.31496062992125984,
          "duration": 0.015225149414064276
        },
        {
          "name": "G#2",
          "midi": 44,
          "time": 59.64567625000042,
          "velocity": 0.3937007874015748,
          "duration": 0.015225149414064276
        },
        {
          "name": "G#2",
          "midi": 44,
          "time": 59.76378650000042,
          "velocity": 0.47244094488188976,
          "duration": 0.015686517578124892
        },
        {
          "name": "F#3",
          "midi": 54,
          "time": 59.76378650000042,
          "velocity": 0.47244094488188976,
          "duration": 0.015225149414064276
        },
        {
          "name": "D2",
          "midi": 38,
          "time": 59.88189675000042,
          "velocity": 0.47244094488188976,
          "duration": 0.015686517578124892
        },
        {
          "name": "E2",
          "midi": 40,
          "time": 59.88189675000042,
          "velocity": 0.47244094488188976,
          "duration": 0.015686517578124892
        },
        {
          "name": "A3",
          "midi": 57,
          "time": 59.88189675000042,
          "velocity": 0.5511811023622047,
          "duration": 0.015686517578124892
        },
        {
          "name": "D4",
          "midi": 62,
          "time": 59.88189675000042,
          "velocity": 0.3937007874015748,
          "duration": 0.015686517578124892
        },
        {
          "name": "F#3",
          "midi": 54,
          "time": 59.88189675000042,
          "velocity": 0.31496062992125984,
          "duration": 0.015225149414064276
        },
        {
          "name": "G#2",
          "midi": 44,
          "time": 59.88189675000042,
          "velocity": 0.47244094488188976,
          "duration": 0.015686517578124892
        },
        {
          "name": "C2",
          "midi": 36,
          "time": 59.88189675000042,
          "velocity": 0.5511811023622047,
          "duration": 0.015686517578124892
        },
        {
          "name": "G#2",
          "midi": 44,
          "time": 60.00000700000042,
          "velocity": 0.47244094488188976,
          "duration": 0.015686517578124892
        },
        {
          "name": "F#3",
          "midi": 54,
          "time": 60.00000700000042,
          "velocity": 0.47244094488188976,
          "duration": 0.015225149414064276
        },
        {
          "name": "G#2",
          "midi": 44,
          "time": 60.118117250000424,
          "velocity": 0.47244094488188976,
          "duration": 0.015686517578124892
        },
        {
          "name": "F#3",
          "midi": 54,
          "time": 60.118117250000424,
          "velocity": 0.31496062992125984,
          "duration": 0.015225149414064276
        },
        {
          "name": "E2",
          "midi": 40,
          "time": 60.236227500000425,
          "velocity": 0.47244094488188976,
          "duration": 0.015686517578124892
        },
        {
          "name": "C2",
          "midi": 36,
          "time": 60.236227500000425,
          "velocity": 0.5511811023622047,
          "duration": 0.015686517578124892
        },
        {
          "name": "G#2",
          "midi": 44,
          "time": 60.236227500000425,
          "velocity": 0.3937007874015748,
          "duration": 0.015225149414064276
        },
        {
          "name": "F#3",
          "midi": 54,
          "time": 60.236227500000425,
          "velocity": 0.47244094488188976,
          "duration": 0.015225149414064276
        },
        {
          "name": "G#2",
          "midi": 44,
          "time": 60.354337750000425,
          "velocity": 0.47244094488188976,
          "duration": 0.015686517578124892
        },
        {
          "name": "F#3",
          "midi": 54,
          "time": 60.354337750000425,
          "velocity": 0.31496062992125984,
          "duration": 0.015225149414064276
        },
        {
          "name": "E2",
          "midi": 40,
          "time": 60.472448000000426,
          "velocity": 0.47244094488188976,
          "duration": 0.015686517578124892
        },
        {
          "name": "G3",
          "midi": 55,
          "time": 60.472448000000426,
          "velocity": 0.5511811023622047,
          "duration": 0.015686517578124892
        },
        {
          "name": "G#2",
          "midi": 44,
          "time": 60.472448000000426,
          "velocity": 0.47244094488188976,
          "duration": 0.015686517578124892
        },
        {
          "name": "D4",
          "midi": 62,
          "time": 60.472448000000426,
          "velocity": 0.3937007874015748,
          "duration": 0.015686517578124892
        },
        {
          "name": "F#3",
          "midi": 54,
          "time": 60.472448000000426,
          "velocity": 0.47244094488188976,
          "duration": 0.015225149414064276
        },
        {
          "name": "D2",
          "midi": 38,
          "time": 60.472448000000426,
          "velocity": 0.47244094488188976,
          "duration": 0.015686517578124892
        },
        {
          "name": "C2",
          "midi": 36,
          "time": 60.472448000000426,
          "velocity": 0.5511811023622047,
          "duration": 0.015686517578124892
        },
        {
          "name": "A2",
          "midi": 45,
          "time": 60.59055825000043,
          "velocity": 0.3937007874015748,
          "duration": 0.015686517578124892
        },
        {
          "name": "F#3",
          "midi": 54,
          "time": 60.59055825000043,
          "velocity": 0.31496062992125984,
          "duration": 0.015225149414064276
        },
        {
          "name": "G#2",
          "midi": 44,
          "time": 60.59055825000043,
          "velocity": 0.47244094488188976,
          "duration": 0.015686517578124892
        },
        {
          "name": "E2",
          "midi": 40,
          "time": 60.70866850000043,
          "velocity": 0.47244094488188976,
          "duration": 0.015686517578124892
        },
        {
          "name": "G3",
          "midi": 55,
          "time": 60.70866850000043,
          "velocity": 0.5511811023622047,
          "duration": 0.015686517578124892
        },
        {
          "name": "G#2",
          "midi": 44,
          "time": 60.70866850000043,
          "velocity": 0.47244094488188976,
          "duration": 0.015686517578124892
        },
        {
          "name": "D4",
          "midi": 62,
          "time": 60.70866850000043,
          "velocity": 0.3937007874015748,
          "duration": 0.015686517578124892
        },
        {
          "name": "F#3",
          "midi": 54,
          "time": 60.70866850000043,
          "velocity": 0.47244094488188976,
          "duration": 0.015225149414064276
        },
        {
          "name": "D2",
          "midi": 38,
          "time": 60.70866850000043,
          "velocity": 0.47244094488188976,
          "duration": 0.015686517578124892
        },
        {
          "name": "C2",
          "midi": 36,
          "time": 60.70866850000043,
          "velocity": 0.5511811023622047,
          "duration": 0.015686517578124892
        },
        {
          "name": "A2",
          "midi": 45,
          "time": 60.82677875000043,
          "velocity": 0.3937007874015748,
          "duration": 0.015686517578124892
        },
        {
          "name": "F#3",
          "midi": 54,
          "time": 60.82677875000043,
          "velocity": 0.31496062992125984,
          "duration": 0.015225149414064276
        },
        {
          "name": "G#2",
          "midi": 44,
          "time": 60.82677875000043,
          "velocity": 0.47244094488188976,
          "duration": 0.015686517578124892
        },
        {
          "name": "E2",
          "midi": 40,
          "time": 60.94488900000043,
          "velocity": 0.6299212598425197,
          "duration": 0.015225149414064276
        },
        {
          "name": "G#2",
          "midi": 44,
          "time": 60.94488900000043,
          "velocity": 0.3937007874015748,
          "duration": 0.015225149414064276
        },
        {
          "name": "D4",
          "midi": 62,
          "time": 60.94488900000043,
          "velocity": 0.6299212598425197,
          "duration": 0.015225149414064276
        },
        {
          "name": "F#3",
          "midi": 54,
          "time": 60.94488900000043,
          "velocity": 0.47244094488188976,
          "duration": 0.015225149414064276
        },
        {
          "name": "E2",
          "midi": 40,
          "time": 61.06299925000043,
          "velocity": 0.3937007874015748,
          "duration": 0.015225149414064276
        },
        {
          "name": "G#2",
          "midi": 44,
          "time": 61.06299925000043,
          "velocity": 0.31496062992125984,
          "duration": 0.015225149414064276
        },
        {
          "name": "D4",
          "midi": 62,
          "time": 61.06299925000043,
          "velocity": 0.3937007874015748,
          "duration": 0.015225149414064276
        },
        {
          "name": "F#3",
          "midi": 54,
          "time": 61.06299925000043,
          "velocity": 0.31496062992125984,
          "duration": 0.015225149414064276
        },
        {
          "name": "D4",
          "midi": 62,
          "time": 61.106367857422306,
          "velocity": 0.3937007874015748,
          "duration": 0.015225149414064276
        },
        {
          "name": "E2",
          "midi": 40,
          "time": 61.106367857422306,
          "velocity": 0.3937007874015748,
          "duration": 0.015225149414064276
        },
        {
          "name": "D4",
          "midi": 62,
          "time": 61.14973646484418,
          "velocity": 0.3937007874015748,
          "duration": 0.015225149414064276
        },
        {
          "name": "E2",
          "midi": 40,
          "time": 61.14973646484418,
          "velocity": 0.3937007874015748,
          "duration": 0.015225149414064276
        },
        {
          "name": "E2",
          "midi": 40,
          "time": 61.18110950000043,
          "velocity": 0.6299212598425197,
          "duration": 0.015225149414064276
        },
        {
          "name": "G#2",
          "midi": 44,
          "time": 61.18110950000043,
          "velocity": 0.3937007874015748,
          "duration": 0.015225149414064276
        },
        {
          "name": "D4",
          "midi": 62,
          "time": 61.18110950000043,
          "velocity": 0.6299212598425197,
          "duration": 0.015225149414064276
        },
        {
          "name": "F#3",
          "midi": 54,
          "time": 61.18110950000043,
          "velocity": 0.47244094488188976,
          "duration": 0.015225149414064276
        },
        {
          "name": "E2",
          "midi": 40,
          "time": 61.29921975000043,
          "velocity": 0.6299212598425197,
          "duration": 0.015225149414064276
        },
        {
          "name": "G#2",
          "midi": 44,
          "time": 61.29921975000043,
          "velocity": 0.31496062992125984,
          "duration": 0.015225149414064276
        },
        {
          "name": "D4",
          "midi": 62,
          "time": 61.29921975000043,
          "velocity": 0.6299212598425197,
          "duration": 0.015225149414064276
        },
        {
          "name": "F#3",
          "midi": 54,
          "time": 61.29921975000043,
          "velocity": 0.31496062992125984,
          "duration": 0.015225149414064276
        },
        {
          "name": "F#3",
          "midi": 54,
          "time": 61.41733000000043,
          "velocity": 0.47244094488188976,
          "duration": 0.015225149414064276
        },
        {
          "name": "G#2",
          "midi": 44,
          "time": 61.41733000000043,
          "velocity": 0.3937007874015748,
          "duration": 0.015225149414064276
        },
        {
          "name": "E2",
          "midi": 40,
          "time": 61.535440250000434,
          "velocity": 0.6299212598425197,
          "duration": 0.015225149414064276
        },
        {
          "name": "G#2",
          "midi": 44,
          "time": 61.535440250000434,
          "velocity": 0.31496062992125984,
          "duration": 0.015225149414064276
        },
        {
          "name": "D4",
          "midi": 62,
          "time": 61.535440250000434,
          "velocity": 0.6299212598425197,
          "duration": 0.015225149414064276
        },
        {
          "name": "F#3",
          "midi": 54,
          "time": 61.535440250000434,
          "velocity": 0.31496062992125984,
          "duration": 0.015225149414064276
        },
        {
          "name": "E2",
          "midi": 40,
          "time": 61.653550500000435,
          "velocity": 0.6299212598425197,
          "duration": 0.015225149414064276
        },
        {
          "name": "D4",
          "midi": 62,
          "time": 61.653550500000435,
          "velocity": 0.6299212598425197,
          "duration": 0.015225149414064276
        },
        {
          "name": "G#2",
          "midi": 44,
          "time": 61.653550500000435,
          "velocity": 0.3937007874015748,
          "duration": 0.015225149414064276
        },
        {
          "name": "F#3",
          "midi": 54,
          "time": 61.653550500000435,
          "velocity": 0.47244094488188976,
          "duration": 0.015225149414064276
        },
        {
          "name": "E2",
          "midi": 40,
          "time": 61.771660750000436,
          "velocity": 0.23622047244094488,
          "duration": 0.015225149414064276
        },
        {
          "name": "G#2",
          "midi": 44,
          "time": 61.771660750000436,
          "velocity": 0.23622047244094488,
          "duration": 0.015225149414064276
        },
        {
          "name": "E2",
          "midi": 40,
          "time": 61.827947666016065,
          "velocity": 0.23622047244094488,
          "duration": 0.015225149414064276
        },
        {
          "name": "E2",
          "midi": 40,
          "time": 61.86670259179732,
          "velocity": 0.23622047244094488,
          "duration": 0.015225149414064276
        },
        {
          "name": "D4",
          "midi": 62,
          "time": 61.88977100000045,
          "velocity": 0.6299212598425197,
          "duration": 0.015225149414064276
        },
        {
          "name": "G#2",
          "midi": 44,
          "time": 61.88977100000045,
          "velocity": 0.3937007874015748,
          "duration": 0.015225149414064276
        },
        {
          "name": "E2",
          "midi": 40,
          "time": 61.88977100000045,
          "velocity": 0.6299212598425197,
          "duration": 0.015225149414064276
        },
        {
          "name": "G#2",
          "midi": 44,
          "time": 62.00788125000045,
          "velocity": 0.23622047244094488,
          "duration": 0.015225149414064276
        },
        {
          "name": "D4",
          "midi": 62,
          "time": 62.12599150000045,
          "velocity": 0.6299212598425197,
          "duration": 0.015225149414064276
        },
        {
          "name": "G#2",
          "midi": 44,
          "time": 62.12599150000045,
          "velocity": 0.3937007874015748,
          "duration": 0.015225149414064276
        },
        {
          "name": "E2",
          "midi": 40,
          "time": 62.12599150000045,
          "velocity": 0.6299212598425197,
          "duration": 0.015225149414064276
        },
        {
          "name": "G#2",
          "midi": 44,
          "time": 62.24410175000045,
          "velocity": 0.23622047244094488,
          "duration": 0.015225149414064276
        },
        {
          "name": "E2",
          "midi": 40,
          "time": 62.362212000000454,
          "velocity": 0.6299212598425197,
          "duration": 0.015225149414064276
        },
        {
          "name": "G#2",
          "midi": 44,
          "time": 62.362212000000454,
          "velocity": 0.3937007874015748,
          "duration": 0.015225149414064276
        },
        {
          "name": "D4",
          "midi": 62,
          "time": 62.362212000000454,
          "velocity": 0.6299212598425197,
          "duration": 0.015225149414064276
        },
        {
          "name": "F#3",
          "midi": 54,
          "time": 62.362212000000454,
          "velocity": 0.47244094488188976,
          "duration": 0.015225149414064276
        },
        {
          "name": "E2",
          "midi": 40,
          "time": 62.480322250000455,
          "velocity": 0.3937007874015748,
          "duration": 0.015225149414064276
        },
        {
          "name": "G#2",
          "midi": 44,
          "time": 62.480322250000455,
          "velocity": 0.31496062992125984,
          "duration": 0.015225149414064276
        },
        {
          "name": "D4",
          "midi": 62,
          "time": 62.480322250000455,
          "velocity": 0.3937007874015748,
          "duration": 0.015225149414064276
        },
        {
          "name": "F#3",
          "midi": 54,
          "time": 62.480322250000455,
          "velocity": 0.31496062992125984,
          "duration": 0.015225149414064276
        },
        {
          "name": "D4",
          "midi": 62,
          "time": 62.52369085742233,
          "velocity": 0.3937007874015748,
          "duration": 0.015225149414064276
        },
        {
          "name": "E2",
          "midi": 40,
          "time": 62.52369085742233,
          "velocity": 0.3937007874015748,
          "duration": 0.015225149414064276
        },
        {
          "name": "D4",
          "midi": 62,
          "time": 62.567059464844206,
          "velocity": 0.3937007874015748,
          "duration": 0.015225149414064276
        },
        {
          "name": "E2",
          "midi": 40,
          "time": 62.567059464844206,
          "velocity": 0.3937007874015748,
          "duration": 0.015225149414064276
        },
        {
          "name": "E2",
          "midi": 40,
          "time": 62.598432500000456,
          "velocity": 0.6299212598425197,
          "duration": 0.015225149414064276
        },
        {
          "name": "G#2",
          "midi": 44,
          "time": 62.598432500000456,
          "velocity": 0.3937007874015748,
          "duration": 0.015225149414064276
        },
        {
          "name": "D4",
          "midi": 62,
          "time": 62.598432500000456,
          "velocity": 0.6299212598425197,
          "duration": 0.015225149414064276
        },
        {
          "name": "F#3",
          "midi": 54,
          "time": 62.598432500000456,
          "velocity": 0.47244094488188976,
          "duration": 0.015225149414064276
        },
        {
          "name": "E2",
          "midi": 40,
          "time": 62.71654275000046,
          "velocity": 0.6299212598425197,
          "duration": 0.015225149414064276
        },
        {
          "name": "G#2",
          "midi": 44,
          "time": 62.71654275000046,
          "velocity": 0.31496062992125984,
          "duration": 0.015225149414064276
        },
        {
          "name": "D4",
          "midi": 62,
          "time": 62.71654275000046,
          "velocity": 0.6299212598425197,
          "duration": 0.015225149414064276
        },
        {
          "name": "F#3",
          "midi": 54,
          "time": 62.71654275000046,
          "velocity": 0.31496062992125984,
          "duration": 0.015225149414064276
        },
        {
          "name": "F#3",
          "midi": 54,
          "time": 62.83465300000046,
          "velocity": 0.47244094488188976,
          "duration": 0.015225149414064276
        },
        {
          "name": "G#2",
          "midi": 44,
          "time": 62.83465300000046,
          "velocity": 0.3937007874015748,
          "duration": 0.015225149414064276
        },
        {
          "name": "E2",
          "midi": 40,
          "time": 62.95276325000046,
          "velocity": 0.6299212598425197,
          "duration": 0.015225149414064276
        },
        {
          "name": "G#2",
          "midi": 44,
          "time": 62.95276325000046,
          "velocity": 0.31496062992125984,
          "duration": 0.015225149414064276
        },
        {
          "name": "D4",
          "midi": 62,
          "time": 62.95276325000046,
          "velocity": 0.6299212598425197,
          "duration": 0.015225149414064276
        },
        {
          "name": "F#3",
          "midi": 54,
          "time": 62.95276325000046,
          "velocity": 0.31496062992125984,
          "duration": 0.015225149414064276
        },
        {
          "name": "E2",
          "midi": 40,
          "time": 63.07087350000046,
          "velocity": 0.6299212598425197,
          "duration": 0.015225149414064276
        },
        {
          "name": "G#2",
          "midi": 44,
          "time": 63.07087350000046,
          "velocity": 0.3937007874015748,
          "duration": 0.015225149414064276
        },
        {
          "name": "D4",
          "midi": 62,
          "time": 63.07087350000046,
          "velocity": 0.6299212598425197,
          "duration": 0.015225149414064276
        },
        {
          "name": "F#3",
          "midi": 54,
          "time": 63.07087350000046,
          "velocity": 0.47244094488188976,
          "duration": 0.015225149414064276
        },
        {
          "name": "G#2",
          "midi": 44,
          "time": 63.18898375000046,
          "velocity": 0.23622047244094488,
          "duration": 0.015225149414064276
        },
        {
          "name": "E2",
          "midi": 40,
          "time": 63.18898375000046,
          "velocity": 0.23622047244094488,
          "duration": 0.015225149414064276
        },
        {
          "name": "E2",
          "midi": 40,
          "time": 63.24527066601609,
          "velocity": 0.23622047244094488,
          "duration": 0.015225149414064276
        },
        {
          "name": "E2",
          "midi": 40,
          "time": 63.284025591797345,
          "velocity": 0.23622047244094488,
          "duration": 0.015225149414064276
        },
        {
          "name": "E2",
          "midi": 40,
          "time": 63.307094000000475,
          "velocity": 0.6299212598425197,
          "duration": 0.015225149414064276
        },
        {
          "name": "G#2",
          "midi": 44,
          "time": 63.307094000000475,
          "velocity": 0.3937007874015748,
          "duration": 0.015225149414064276
        },
        {
          "name": "D4",
          "midi": 62,
          "time": 63.307094000000475,
          "velocity": 0.6299212598425197,
          "duration": 0.015225149414064276
        },
        {
          "name": "G#2",
          "midi": 44,
          "time": 63.425204250000476,
          "velocity": 0.23622047244094488,
          "duration": 0.015225149414064276
        },
        {
          "name": "E2",
          "midi": 40,
          "time": 63.54331450000048,
          "velocity": 0.6299212598425197,
          "duration": 0.015225149414064276
        },
        {
          "name": "G#2",
          "midi": 44,
          "time": 63.54331450000048,
          "velocity": 0.3937007874015748,
          "duration": 0.015225149414064276
        },
        {
          "name": "D4",
          "midi": 62,
          "time": 63.54331450000048,
          "velocity": 0.6299212598425197,
          "duration": 0.015225149414064276
        },
        {
          "name": "G#2",
          "midi": 44,
          "time": 63.66142475000048,
          "velocity": 0.23622047244094488,
          "duration": 0.015225149414064276
        },
        {
          "name": "E2",
          "midi": 40,
          "time": 63.77953500000048,
          "velocity": 0.6299212598425197,
          "duration": 0.015225149414064276
        },
        {
          "name": "G#2",
          "midi": 44,
          "time": 63.77953500000048,
          "velocity": 0.3937007874015748,
          "duration": 0.015225149414064276
        },
        {
          "name": "D4",
          "midi": 62,
          "time": 63.77953500000048,
          "velocity": 0.6299212598425197,
          "duration": 0.015225149414064276
        },
        {
          "name": "F#3",
          "midi": 54,
          "time": 63.77953500000048,
          "velocity": 0.47244094488188976,
          "duration": 0.015225149414064276
        },
        {
          "name": "E2",
          "midi": 40,
          "time": 63.89764525000048,
          "velocity": 0.3937007874015748,
          "duration": 0.015225149414064276
        },
        {
          "name": "G#2",
          "midi": 44,
          "time": 63.89764525000048,
          "velocity": 0.31496062992125984,
          "duration": 0.015225149414064276
        },
        {
          "name": "D4",
          "midi": 62,
          "time": 63.89764525000048,
          "velocity": 0.3937007874015748,
          "duration": 0.015225149414064276
        },
        {
          "name": "F#3",
          "midi": 54,
          "time": 63.89764525000048,
          "velocity": 0.31496062992125984,
          "duration": 0.015225149414064276
        },
        {
          "name": "D4",
          "midi": 62,
          "time": 63.941013857422355,
          "velocity": 0.3937007874015748,
          "duration": 0.015225149414064276
        },
        {
          "name": "E2",
          "midi": 40,
          "time": 63.941013857422355,
          "velocity": 0.3937007874015748,
          "duration": 0.015225149414064276
        },
        {
          "name": "D4",
          "midi": 62,
          "time": 63.98438246484423,
          "velocity": 0.3937007874015748,
          "duration": 0.015225149414064276
        },
        {
          "name": "E2",
          "midi": 40,
          "time": 63.98438246484423,
          "velocity": 0.3937007874015748,
          "duration": 0.015225149414064276
        },
        {
          "name": "E2",
          "midi": 40,
          "time": 64.01575550000048,
          "velocity": 0.6299212598425197,
          "duration": 0.015225149414064276
        },
        {
          "name": "G#2",
          "midi": 44,
          "time": 64.01575550000048,
          "velocity": 0.3937007874015748,
          "duration": 0.015225149414064276
        },
        {
          "name": "D4",
          "midi": 62,
          "time": 64.01575550000048,
          "velocity": 0.6299212598425197,
          "duration": 0.015225149414064276
        },
        {
          "name": "F#3",
          "midi": 54,
          "time": 64.01575550000048,
          "velocity": 0.47244094488188976,
          "duration": 0.015225149414064276
        },
        {
          "name": "E2",
          "midi": 40,
          "time": 64.13386575000048,
          "velocity": 0.6299212598425197,
          "duration": 0.015225149414064276
        },
        {
          "name": "G#2",
          "midi": 44,
          "time": 64.13386575000048,
          "velocity": 0.31496062992125984,
          "duration": 0.015225149414064276
        },
        {
          "name": "D4",
          "midi": 62,
          "time": 64.13386575000048,
          "velocity": 0.6299212598425197,
          "duration": 0.015225149414064276
        },
        {
          "name": "F#3",
          "midi": 54,
          "time": 64.13386575000048,
          "velocity": 0.31496062992125984,
          "duration": 0.015225149414064276
        },
        {
          "name": "F#3",
          "midi": 54,
          "time": 64.25197600000048,
          "velocity": 0.47244094488188976,
          "duration": 0.015225149414064276
        },
        {
          "name": "G#2",
          "midi": 44,
          "time": 64.25197600000048,
          "velocity": 0.3937007874015748,
          "duration": 0.015225149414064276
        },
        {
          "name": "E2",
          "midi": 40,
          "time": 64.37008625000048,
          "velocity": 0.6299212598425197,
          "duration": 0.015225149414064276
        },
        {
          "name": "G#2",
          "midi": 44,
          "time": 64.37008625000048,
          "velocity": 0.31496062992125984,
          "duration": 0.015225149414064276
        },
        {
          "name": "D4",
          "midi": 62,
          "time": 64.37008625000048,
          "velocity": 0.6299212598425197,
          "duration": 0.015225149414064276
        },
        {
          "name": "F#3",
          "midi": 54,
          "time": 64.37008625000048,
          "velocity": 0.31496062992125984,
          "duration": 0.015225149414064276
        },
        {
          "name": "E2",
          "midi": 40,
          "time": 64.48819650000048,
          "velocity": 0.6299212598425197,
          "duration": 0.015225149414064276
        },
        {
          "name": "G#2",
          "midi": 44,
          "time": 64.48819650000048,
          "velocity": 0.3937007874015748,
          "duration": 0.015225149414064276
        },
        {
          "name": "D4",
          "midi": 62,
          "time": 64.48819650000048,
          "velocity": 0.6299212598425197,
          "duration": 0.015225149414064276
        },
        {
          "name": "F#3",
          "midi": 54,
          "time": 64.48819650000048,
          "velocity": 0.47244094488188976,
          "duration": 0.015225149414064276
        },
        {
          "name": "E2",
          "midi": 40,
          "time": 64.60630675000048,
          "velocity": 0.3937007874015748,
          "duration": 0.015225149414064276
        },
        {
          "name": "G#2",
          "midi": 44,
          "time": 64.60630675000048,
          "velocity": 0.31496062992125984,
          "duration": 0.015225149414064276
        },
        {
          "name": "D4",
          "midi": 62,
          "time": 64.60630675000048,
          "velocity": 0.3937007874015748,
          "duration": 0.015225149414064276
        },
        {
          "name": "F#3",
          "midi": 54,
          "time": 64.60630675000048,
          "velocity": 0.31496062992125984,
          "duration": 0.015225149414064276
        },
        {
          "name": "D4",
          "midi": 62,
          "time": 64.66259366601611,
          "velocity": 0.3937007874015748,
          "duration": 0.015225149414064276
        },
        {
          "name": "E2",
          "midi": 40,
          "time": 64.66259366601611,
          "velocity": 0.3937007874015748,
          "duration": 0.015225149414064276
        },
        {
          "name": "D4",
          "midi": 62,
          "time": 64.70134859179736,
          "velocity": 0.3937007874015748,
          "duration": 0.015225149414064276
        },
        {
          "name": "E2",
          "midi": 40,
          "time": 64.70134859179736,
          "velocity": 0.3937007874015748,
          "duration": 0.015225149414064276
        },
        {
          "name": "E2",
          "midi": 40,
          "time": 64.72441700000049,
          "velocity": 0.6299212598425197,
          "duration": 0.015225149414064276
        },
        {
          "name": "G#2",
          "midi": 44,
          "time": 64.72441700000049,
          "velocity": 0.3937007874015748,
          "duration": 0.015225149414064276
        },
        {
          "name": "D4",
          "midi": 62,
          "time": 64.72441700000049,
          "velocity": 0.6299212598425197,
          "duration": 0.015225149414064276
        },
        {
          "name": "F#3",
          "midi": 54,
          "time": 64.72441700000049,
          "velocity": 0.47244094488188976,
          "duration": 0.015225149414064276
        },
        {
          "name": "F#3",
          "midi": 54,
          "time": 64.84252725000049,
          "velocity": 0.31496062992125984,
          "duration": 0.015225149414064276
        },
        {
          "name": "G#2",
          "midi": 44,
          "time": 64.84252725000049,
          "velocity": 0.31496062992125984,
          "duration": 0.015225149414064276
        },
        {
          "name": "E2",
          "midi": 40,
          "time": 64.96063750000049,
          "velocity": 0.6299212598425197,
          "duration": 0.015225149414064276
        },
        {
          "name": "G#2",
          "midi": 44,
          "time": 64.96063750000049,
          "velocity": 0.3937007874015748,
          "duration": 0.015225149414064276
        },
        {
          "name": "D4",
          "midi": 62,
          "time": 64.96063750000049,
          "velocity": 0.6299212598425197,
          "duration": 0.015225149414064276
        },
        {
          "name": "F#3",
          "midi": 54,
          "time": 64.96063750000049,
          "velocity": 0.47244094488188976,
          "duration": 0.015225149414064276
        },
        {
          "name": "F#3",
          "midi": 54,
          "time": 65.07874775000049,
          "velocity": 0.31496062992125984,
          "duration": 0.015225149414064276
        },
        {
          "name": "G#2",
          "midi": 44,
          "time": 65.07874775000049,
          "velocity": 0.31496062992125984,
          "duration": 0.015225149414064276
        },
        {
          "name": "E2",
          "midi": 40,
          "time": 65.19685800000049,
          "velocity": 0.6299212598425197,
          "duration": 0.015225149414064276
        },
        {
          "name": "G#2",
          "midi": 44,
          "time": 65.19685800000049,
          "velocity": 0.3937007874015748,
          "duration": 0.015225149414064276
        },
        {
          "name": "D4",
          "midi": 62,
          "time": 65.19685800000049,
          "velocity": 0.6299212598425197,
          "duration": 0.015225149414064276
        },
        {
          "name": "F#3",
          "midi": 54,
          "time": 65.19685800000049,
          "velocity": 0.47244094488188976,
          "duration": 0.015225149414064276
        },
        {
          "name": "E2",
          "midi": 40,
          "time": 65.31496825000049,
          "velocity": 0.3937007874015748,
          "duration": 0.015225149414064276
        },
        {
          "name": "G#2",
          "midi": 44,
          "time": 65.31496825000049,
          "velocity": 0.31496062992125984,
          "duration": 0.015225149414064276
        },
        {
          "name": "D4",
          "midi": 62,
          "time": 65.31496825000049,
          "velocity": 0.3937007874015748,
          "duration": 0.015225149414064276
        },
        {
          "name": "F#3",
          "midi": 54,
          "time": 65.31496825000049,
          "velocity": 0.31496062992125984,
          "duration": 0.015225149414064276
        },
        {
          "name": "D4",
          "midi": 62,
          "time": 65.35833685742237,
          "velocity": 0.3937007874015748,
          "duration": 0.015225149414064276
        },
        {
          "name": "E2",
          "midi": 40,
          "time": 65.35833685742237,
          "velocity": 0.3937007874015748,
          "duration": 0.015225149414064276
        },
        {
          "name": "D4",
          "midi": 62,
          "time": 65.40170546484426,
          "velocity": 0.3937007874015748,
          "duration": 0.015225149414064276
        },
        {
          "name": "E2",
          "midi": 40,
          "time": 65.40170546484426,
          "velocity": 0.3937007874015748,
          "duration": 0.015225149414064276
        },
        {
          "name": "E2",
          "midi": 40,
          "time": 65.4330785000005,
          "velocity": 0.6299212598425197,
          "duration": 0.015225149414064276
        },
        {
          "name": "G#2",
          "midi": 44,
          "time": 65.4330785000005,
          "velocity": 0.3937007874015748,
          "duration": 0.015225149414064276
        },
        {
          "name": "D4",
          "midi": 62,
          "time": 65.4330785000005,
          "velocity": 0.6299212598425197,
          "duration": 0.015225149414064276
        },
        {
          "name": "F#3",
          "midi": 54,
          "time": 65.4330785000005,
          "velocity": 0.47244094488188976,
          "duration": 0.015225149414064276
        },
        {
          "name": "E2",
          "midi": 40,
          "time": 65.5511887500005,
          "velocity": 0.6299212598425197,
          "duration": 0.015225149414064276
        },
        {
          "name": "G#2",
          "midi": 44,
          "time": 65.5511887500005,
          "velocity": 0.31496062992125984,
          "duration": 0.015225149414064276
        },
        {
          "name": "D4",
          "midi": 62,
          "time": 65.5511887500005,
          "velocity": 0.6299212598425197,
          "duration": 0.015225149414064276
        },
        {
          "name": "F#3",
          "midi": 54,
          "time": 65.5511887500005,
          "velocity": 0.31496062992125984,
          "duration": 0.015225149414064276
        },
        {
          "name": "F#3",
          "midi": 54,
          "time": 65.6692990000005,
          "velocity": 0.47244094488188976,
          "duration": 0.015225149414064276
        },
        {
          "name": "G#2",
          "midi": 44,
          "time": 65.6692990000005,
          "velocity": 0.3937007874015748,
          "duration": 0.015225149414064276
        },
        {
          "name": "E2",
          "midi": 40,
          "time": 65.78740925000051,
          "velocity": 0.6299212598425197,
          "duration": 0.015225149414064276
        },
        {
          "name": "G#2",
          "midi": 44,
          "time": 65.78740925000051,
          "velocity": 0.31496062992125984,
          "duration": 0.015225149414064276
        },
        {
          "name": "D4",
          "midi": 62,
          "time": 65.78740925000051,
          "velocity": 0.6299212598425197,
          "duration": 0.015225149414064276
        },
        {
          "name": "F#3",
          "midi": 54,
          "time": 65.78740925000051,
          "velocity": 0.31496062992125984,
          "duration": 0.015225149414064276
        },
        {
          "name": "E2",
          "midi": 40,
          "time": 65.90551950000051,
          "velocity": 0.6299212598425197,
          "duration": 0.015225149414064276
        },
        {
          "name": "G#2",
          "midi": 44,
          "time": 65.90551950000051,
          "velocity": 0.3937007874015748,
          "duration": 0.015225149414064276
        },
        {
          "name": "D4",
          "midi": 62,
          "time": 65.90551950000051,
          "velocity": 0.6299212598425197,
          "duration": 0.015225149414064276
        },
        {
          "name": "F#3",
          "midi": 54,
          "time": 65.90551950000051,
          "velocity": 0.47244094488188976,
          "duration": 0.015225149414064276
        },
        {
          "name": "E2",
          "midi": 40,
          "time": 66.02362975000051,
          "velocity": 0.3937007874015748,
          "duration": 0.015225149414064276
        },
        {
          "name": "G#2",
          "midi": 44,
          "time": 66.02362975000051,
          "velocity": 0.31496062992125984,
          "duration": 0.015225149414064276
        },
        {
          "name": "D4",
          "midi": 62,
          "time": 66.02362975000051,
          "velocity": 0.3937007874015748,
          "duration": 0.015225149414064276
        },
        {
          "name": "F#3",
          "midi": 54,
          "time": 66.02362975000051,
          "velocity": 0.31496062992125984,
          "duration": 0.015225149414064276
        },
        {
          "name": "D4",
          "midi": 62,
          "time": 66.07991666601613,
          "velocity": 0.3937007874015748,
          "duration": 0.015225149414064276
        },
        {
          "name": "E2",
          "midi": 40,
          "time": 66.07991666601613,
          "velocity": 0.3937007874015748,
          "duration": 0.015225149414064276
        },
        {
          "name": "D4",
          "midi": 62,
          "time": 66.11867159179738,
          "velocity": 0.3937007874015748,
          "duration": 0.015225149414064276
        },
        {
          "name": "E2",
          "midi": 40,
          "time": 66.11867159179738,
          "velocity": 0.3937007874015748,
          "duration": 0.015225149414064276
        },
        {
          "name": "E2",
          "midi": 40,
          "time": 66.14174000000051,
          "velocity": 0.6299212598425197,
          "duration": 0.015225149414064276
        },
        {
          "name": "G#2",
          "midi": 44,
          "time": 66.14174000000051,
          "velocity": 0.3937007874015748,
          "duration": 0.015225149414064276
        },
        {
          "name": "D4",
          "midi": 62,
          "time": 66.14174000000051,
          "velocity": 0.6299212598425197,
          "duration": 0.015225149414064276
        },
        {
          "name": "F#3",
          "midi": 54,
          "time": 66.14174000000051,
          "velocity": 0.47244094488188976,
          "duration": 0.015225149414064276
        },
        {
          "name": "F#3",
          "midi": 54,
          "time": 66.25985025000051,
          "velocity": 0.31496062992125984,
          "duration": 0.015225149414064276
        },
        {
          "name": "G#2",
          "midi": 44,
          "time": 66.25985025000051,
          "velocity": 0.31496062992125984,
          "duration": 0.015225149414064276
        },
        {
          "name": "E2",
          "midi": 40,
          "time": 66.37796050000051,
          "velocity": 0.6299212598425197,
          "duration": 0.015225149414064276
        },
        {
          "name": "G#2",
          "midi": 44,
          "time": 66.37796050000051,
          "velocity": 0.3937007874015748,
          "duration": 0.015225149414064276
        },
        {
          "name": "D4",
          "midi": 62,
          "time": 66.37796050000051,
          "velocity": 0.6299212598425197,
          "duration": 0.015225149414064276
        },
        {
          "name": "F#3",
          "midi": 54,
          "time": 66.37796050000051,
          "velocity": 0.47244094488188976,
          "duration": 0.015225149414064276
        },
        {
          "name": "F#3",
          "midi": 54,
          "time": 66.49607075000051,
          "velocity": 0.31496062992125984,
          "duration": 0.015225149414064276
        },
        {
          "name": "G#2",
          "midi": 44,
          "time": 66.49607075000051,
          "velocity": 0.31496062992125984,
          "duration": 0.015225149414064276
        },
        {
          "name": "E2",
          "midi": 40,
          "time": 66.61418100000051,
          "velocity": 0.6299212598425197,
          "duration": 0.015225149414064276
        },
        {
          "name": "G#2",
          "midi": 44,
          "time": 66.61418100000051,
          "velocity": 0.3937007874015748,
          "duration": 0.015225149414064276
        },
        {
          "name": "D4",
          "midi": 62,
          "time": 66.61418100000051,
          "velocity": 0.6299212598425197,
          "duration": 0.015225149414064276
        },
        {
          "name": "F#3",
          "midi": 54,
          "time": 66.61418100000051,
          "velocity": 0.47244094488188976,
          "duration": 0.015225149414064276
        },
        {
          "name": "E2",
          "midi": 40,
          "time": 66.73229125000051,
          "velocity": 0.3937007874015748,
          "duration": 0.015225149414064276
        },
        {
          "name": "G#2",
          "midi": 44,
          "time": 66.73229125000051,
          "velocity": 0.31496062992125984,
          "duration": 0.015225149414064276
        },
        {
          "name": "D4",
          "midi": 62,
          "time": 66.73229125000051,
          "velocity": 0.3937007874015748,
          "duration": 0.015225149414064276
        },
        {
          "name": "F#3",
          "midi": 54,
          "time": 66.73229125000051,
          "velocity": 0.31496062992125984,
          "duration": 0.015225149414064276
        },
        {
          "name": "D4",
          "midi": 62,
          "time": 66.7756598574224,
          "velocity": 0.3937007874015748,
          "duration": 0.015225149414064276
        },
        {
          "name": "E2",
          "midi": 40,
          "time": 66.7756598574224,
          "velocity": 0.3937007874015748,
          "duration": 0.015225149414064276
        },
        {
          "name": "D4",
          "midi": 62,
          "time": 66.81902846484428,
          "velocity": 0.3937007874015748,
          "duration": 0.015225149414064276
        },
        {
          "name": "E2",
          "midi": 40,
          "time": 66.81902846484428,
          "velocity": 0.3937007874015748,
          "duration": 0.015225149414064276
        },
        {
          "name": "E2",
          "midi": 40,
          "time": 66.85040150000053,
          "velocity": 0.6299212598425197,
          "duration": 0.015225149414064276
        },
        {
          "name": "G#2",
          "midi": 44,
          "time": 66.85040150000053,
          "velocity": 0.3937007874015748,
          "duration": 0.015225149414064276
        },
        {
          "name": "D4",
          "midi": 62,
          "time": 66.85040150000053,
          "velocity": 0.6299212598425197,
          "duration": 0.015225149414064276
        },
        {
          "name": "F#3",
          "midi": 54,
          "time": 66.85040150000053,
          "velocity": 0.47244094488188976,
          "duration": 0.015225149414064276
        },
        {
          "name": "E2",
          "midi": 40,
          "time": 66.96851175000053,
          "velocity": 0.6299212598425197,
          "duration": 0.015225149414064276
        },
        {
          "name": "G#2",
          "midi": 44,
          "time": 66.96851175000053,
          "velocity": 0.31496062992125984,
          "duration": 0.015225149414064276
        },
        {
          "name": "D4",
          "midi": 62,
          "time": 66.96851175000053,
          "velocity": 0.6299212598425197,
          "duration": 0.015225149414064276
        },
        {
          "name": "F#3",
          "midi": 54,
          "time": 66.96851175000053,
          "velocity": 0.31496062992125984,
          "duration": 0.015225149414064276
        },
        {
          "name": "F#3",
          "midi": 54,
          "time": 67.08662200000053,
          "velocity": 0.47244094488188976,
          "duration": 0.015225149414064276
        },
        {
          "name": "G#2",
          "midi": 44,
          "time": 67.08662200000053,
          "velocity": 0.3937007874015748,
          "duration": 0.015225149414064276
        },
        {
          "name": "E2",
          "midi": 40,
          "time": 67.20473225000053,
          "velocity": 0.6299212598425197,
          "duration": 0.015225149414064276
        },
        {
          "name": "G#2",
          "midi": 44,
          "time": 67.20473225000053,
          "velocity": 0.31496062992125984,
          "duration": 0.015225149414064276
        },
        {
          "name": "D4",
          "midi": 62,
          "time": 67.20473225000053,
          "velocity": 0.6299212598425197,
          "duration": 0.015225149414064276
        },
        {
          "name": "F#3",
          "midi": 54,
          "time": 67.20473225000053,
          "velocity": 0.31496062992125984,
          "duration": 0.015225149414064276
        },
        {
          "name": "E2",
          "midi": 40,
          "time": 67.32284250000053,
          "velocity": 0.6299212598425197,
          "duration": 0.015225149414064276
        },
        {
          "name": "G#2",
          "midi": 44,
          "time": 67.32284250000053,
          "velocity": 0.3937007874015748,
          "duration": 0.015225149414064276
        },
        {
          "name": "D4",
          "midi": 62,
          "time": 67.32284250000053,
          "velocity": 0.6299212598425197,
          "duration": 0.015225149414064276
        },
        {
          "name": "F#3",
          "midi": 54,
          "time": 67.32284250000053,
          "velocity": 0.47244094488188976,
          "duration": 0.015225149414064276
        },
        {
          "name": "E2",
          "midi": 40,
          "time": 67.44095275000053,
          "velocity": 0.23622047244094488,
          "duration": 0.015225149414064276
        },
        {
          "name": "G#2",
          "midi": 44,
          "time": 67.44095275000053,
          "velocity": 0.23622047244094488,
          "duration": 0.015225149414064276
        },
        {
          "name": "E2",
          "midi": 40,
          "time": 67.49723966601616,
          "velocity": 0.23622047244094488,
          "duration": 0.015225149414064276
        },
        {
          "name": "E2",
          "midi": 40,
          "time": 67.5359945917974,
          "velocity": 0.23622047244094488,
          "duration": 0.015225149414064276
        },
        {
          "name": "E2",
          "midi": 40,
          "time": 67.55906300000053,
          "velocity": 0.6299212598425197,
          "duration": 0.015225149414064276
        },
        {
          "name": "G#2",
          "midi": 44,
          "time": 67.55906300000053,
          "velocity": 0.3937007874015748,
          "duration": 0.015225149414064276
        },
        {
          "name": "D4",
          "midi": 62,
          "time": 67.55906300000053,
          "velocity": 0.6299212598425197,
          "duration": 0.015225149414064276
        },
        {
          "name": "G#2",
          "midi": 44,
          "time": 67.67717325000054,
          "velocity": 0.23622047244094488,
          "duration": 0.015225149414064276
        },
        {
          "name": "E2",
          "midi": 40,
          "time": 67.79528350000054,
          "velocity": 0.6299212598425197,
          "duration": 0.015225149414064276
        },
        {
          "name": "G#2",
          "midi": 44,
          "time": 67.79528350000054,
          "velocity": 0.3937007874015748,
          "duration": 0.015225149414064276
        },
        {
          "name": "D4",
          "midi": 62,
          "time": 67.79528350000054,
          "velocity": 0.6299212598425197,
          "duration": 0.015225149414064276
        },
        {
          "name": "G#2",
          "midi": 44,
          "time": 67.91339375000054,
          "velocity": 0.23622047244094488,
          "duration": 0.015225149414064276
        },
        {
          "name": "E2",
          "midi": 40,
          "time": 68.03150400000054,
          "velocity": 0.6299212598425197,
          "duration": 0.015225149414064276
        },
        {
          "name": "G#2",
          "midi": 44,
          "time": 68.03150400000054,
          "velocity": 0.3937007874015748,
          "duration": 0.015225149414064276
        },
        {
          "name": "D4",
          "midi": 62,
          "time": 68.03150400000054,
          "velocity": 0.6299212598425197,
          "duration": 0.015225149414064276
        },
        {
          "name": "F#3",
          "midi": 54,
          "time": 68.03150400000054,
          "velocity": 0.47244094488188976,
          "duration": 0.015225149414064276
        },
        {
          "name": "E2",
          "midi": 40,
          "time": 68.14961425000054,
          "velocity": 0.3937007874015748,
          "duration": 0.015225149414064276
        },
        {
          "name": "G#2",
          "midi": 44,
          "time": 68.14961425000054,
          "velocity": 0.31496062992125984,
          "duration": 0.015225149414064276
        },
        {
          "name": "D4",
          "midi": 62,
          "time": 68.14961425000054,
          "velocity": 0.3937007874015748,
          "duration": 0.015225149414064276
        },
        {
          "name": "F#3",
          "midi": 54,
          "time": 68.14961425000054,
          "velocity": 0.31496062992125984,
          "duration": 0.015225149414064276
        },
        {
          "name": "D4",
          "midi": 62,
          "time": 68.19298285742242,
          "velocity": 0.3937007874015748,
          "duration": 0.015225149414064276
        },
        {
          "name": "E2",
          "midi": 40,
          "time": 68.19298285742242,
          "velocity": 0.3937007874015748,
          "duration": 0.015225149414064276
        },
        {
          "name": "D4",
          "midi": 62,
          "time": 68.2363514648443,
          "velocity": 0.3937007874015748,
          "duration": 0.015225149414064276
        },
        {
          "name": "E2",
          "midi": 40,
          "time": 68.2363514648443,
          "velocity": 0.3937007874015748,
          "duration": 0.015225149414064276
        },
        {
          "name": "E2",
          "midi": 40,
          "time": 68.26772450000055,
          "velocity": 0.6299212598425197,
          "duration": 0.015225149414064276
        },
        {
          "name": "G#2",
          "midi": 44,
          "time": 68.26772450000055,
          "velocity": 0.3937007874015748,
          "duration": 0.015225149414064276
        },
        {
          "name": "D4",
          "midi": 62,
          "time": 68.26772450000055,
          "velocity": 0.6299212598425197,
          "duration": 0.015225149414064276
        },
        {
          "name": "F#3",
          "midi": 54,
          "time": 68.26772450000055,
          "velocity": 0.47244094488188976,
          "duration": 0.015225149414064276
        },
        {
          "name": "E2",
          "midi": 40,
          "time": 68.38583475000056,
          "velocity": 0.6299212598425197,
          "duration": 0.015225149414064276
        },
        {
          "name": "G#2",
          "midi": 44,
          "time": 68.38583475000056,
          "velocity": 0.31496062992125984,
          "duration": 0.015225149414064276
        },
        {
          "name": "D4",
          "midi": 62,
          "time": 68.38583475000056,
          "velocity": 0.6299212598425197,
          "duration": 0.015225149414064276
        },
        {
          "name": "F#3",
          "midi": 54,
          "time": 68.38583475000056,
          "velocity": 0.31496062992125984,
          "duration": 0.015225149414064276
        },
        {
          "name": "F#3",
          "midi": 54,
          "time": 68.50394500000056,
          "velocity": 0.47244094488188976,
          "duration": 0.015225149414064276
        },
        {
          "name": "G#2",
          "midi": 44,
          "time": 68.50394500000056,
          "velocity": 0.3937007874015748,
          "duration": 0.015225149414064276
        },
        {
          "name": "E2",
          "midi": 40,
          "time": 68.62205525000056,
          "velocity": 0.6299212598425197,
          "duration": 0.015225149414064276
        },
        {
          "name": "G#2",
          "midi": 44,
          "time": 68.62205525000056,
          "velocity": 0.31496062992125984,
          "duration": 0.015225149414064276
        },
        {
          "name": "D4",
          "midi": 62,
          "time": 68.62205525000056,
          "velocity": 0.6299212598425197,
          "duration": 0.015225149414064276
        },
        {
          "name": "F#3",
          "midi": 54,
          "time": 68.62205525000056,
          "velocity": 0.31496062992125984,
          "duration": 0.015225149414064276
        },
        {
          "name": "E2",
          "midi": 40,
          "time": 68.74016550000056,
          "velocity": 0.6299212598425197,
          "duration": 0.015225149414064276
        },
        {
          "name": "G#2",
          "midi": 44,
          "time": 68.74016550000056,
          "velocity": 0.3937007874015748,
          "duration": 0.015225149414064276
        },
        {
          "name": "D4",
          "midi": 62,
          "time": 68.74016550000056,
          "velocity": 0.6299212598425197,
          "duration": 0.015225149414064276
        },
        {
          "name": "F#3",
          "midi": 54,
          "time": 68.74016550000056,
          "velocity": 0.47244094488188976,
          "duration": 0.015225149414064276
        },
        {
          "name": "G#2",
          "midi": 44,
          "time": 68.85827575000056,
          "velocity": 0.23622047244094488,
          "duration": 0.015225149414064276
        },
        {
          "name": "E2",
          "midi": 40,
          "time": 68.85827575000056,
          "velocity": 0.23622047244094488,
          "duration": 0.015225149414064276
        },
        {
          "name": "E2",
          "midi": 40,
          "time": 68.91456266601618,
          "velocity": 0.23622047244094488,
          "duration": 0.015225149414064276
        },
        {
          "name": "E2",
          "midi": 40,
          "time": 68.95331759179743,
          "velocity": 0.23622047244094488,
          "duration": 0.015225149414064276
        },
        {
          "name": "E2",
          "midi": 40,
          "time": 68.97638600000056,
          "velocity": 0.6299212598425197,
          "duration": 0.015225149414064276
        },
        {
          "name": "G#2",
          "midi": 44,
          "time": 68.97638600000056,
          "velocity": 0.3937007874015748,
          "duration": 0.015225149414064276
        },
        {
          "name": "D4",
          "midi": 62,
          "time": 68.97638600000056,
          "velocity": 0.6299212598425197,
          "duration": 0.015225149414064276
        },
        {
          "name": "G#2",
          "midi": 44,
          "time": 69.09449625000056,
          "velocity": 0.23622047244094488,
          "duration": 0.015225149414064276
        },
        {
          "name": "E2",
          "midi": 40,
          "time": 69.21260650000056,
          "velocity": 0.6299212598425197,
          "duration": 0.015225149414064276
        },
        {
          "name": "G#2",
          "midi": 44,
          "time": 69.21260650000056,
          "velocity": 0.3937007874015748,
          "duration": 0.015225149414064276
        },
        {
          "name": "D4",
          "midi": 62,
          "time": 69.21260650000056,
          "velocity": 0.6299212598425197,
          "duration": 0.015225149414064276
        },
        {
          "name": "G#2",
          "midi": 44,
          "time": 69.33071675000056,
          "velocity": 0.23622047244094488,
          "duration": 0.015225149414064276
        },
        {
          "name": "E2",
          "midi": 40,
          "time": 69.44882700000056,
          "velocity": 0.6299212598425197,
          "duration": 0.015225149414064276
        },
        {
          "name": "G#2",
          "midi": 44,
          "time": 69.44882700000056,
          "velocity": 0.3937007874015748,
          "duration": 0.015225149414064276
        },
        {
          "name": "D4",
          "midi": 62,
          "time": 69.44882700000056,
          "velocity": 0.6299212598425197,
          "duration": 0.015225149414064276
        },
        {
          "name": "F#3",
          "midi": 54,
          "time": 69.44882700000056,
          "velocity": 0.47244094488188976,
          "duration": 0.015225149414064276
        },
        {
          "name": "E2",
          "midi": 40,
          "time": 69.56693725000056,
          "velocity": 0.3937007874015748,
          "duration": 0.015225149414064276
        },
        {
          "name": "G#2",
          "midi": 44,
          "time": 69.56693725000056,
          "velocity": 0.31496062992125984,
          "duration": 0.015225149414064276
        },
        {
          "name": "D4",
          "midi": 62,
          "time": 69.56693725000056,
          "velocity": 0.3937007874015748,
          "duration": 0.015225149414064276
        },
        {
          "name": "F#3",
          "midi": 54,
          "time": 69.56693725000056,
          "velocity": 0.31496062992125984,
          "duration": 0.015225149414064276
        },
        {
          "name": "D4",
          "midi": 62,
          "time": 69.61030585742245,
          "velocity": 0.3937007874015748,
          "duration": 0.015225149414064276
        },
        {
          "name": "E2",
          "midi": 40,
          "time": 69.61030585742245,
          "velocity": 0.3937007874015748,
          "duration": 0.015225149414064276
        },
        {
          "name": "D4",
          "midi": 62,
          "time": 69.65367446484433,
          "velocity": 0.3937007874015748,
          "duration": 0.015225149414064276
        },
        {
          "name": "E2",
          "midi": 40,
          "time": 69.65367446484433,
          "velocity": 0.3937007874015748,
          "duration": 0.015225149414064276
        },
        {
          "name": "E2",
          "midi": 40,
          "time": 69.68504750000058,
          "velocity": 0.6299212598425197,
          "duration": 0.015225149414064276
        },
        {
          "name": "G#2",
          "midi": 44,
          "time": 69.68504750000058,
          "velocity": 0.3937007874015748,
          "duration": 0.015225149414064276
        },
        {
          "name": "D4",
          "midi": 62,
          "time": 69.68504750000058,
          "velocity": 0.6299212598425197,
          "duration": 0.015225149414064276
        },
        {
          "name": "F#3",
          "midi": 54,
          "time": 69.68504750000058,
          "velocity": 0.47244094488188976,
          "duration": 0.015225149414064276
        },
        {
          "name": "E2",
          "midi": 40,
          "time": 69.80315775000058,
          "velocity": 0.6299212598425197,
          "duration": 0.015225149414064276
        },
        {
          "name": "G#2",
          "midi": 44,
          "time": 69.80315775000058,
          "velocity": 0.31496062992125984,
          "duration": 0.015225149414064276
        },
        {
          "name": "D4",
          "midi": 62,
          "time": 69.80315775000058,
          "velocity": 0.6299212598425197,
          "duration": 0.015225149414064276
        },
        {
          "name": "F#3",
          "midi": 54,
          "time": 69.80315775000058,
          "velocity": 0.31496062992125984,
          "duration": 0.015225149414064276
        },
        {
          "name": "F#3",
          "midi": 54,
          "time": 69.92126800000058,
          "velocity": 0.47244094488188976,
          "duration": 0.015225149414064276
        },
        {
          "name": "G#2",
          "midi": 44,
          "time": 69.92126800000058,
          "velocity": 0.3937007874015748,
          "duration": 0.015225149414064276
        },
        {
          "name": "E2",
          "midi": 40,
          "time": 70.03937825000058,
          "velocity": 0.6299212598425197,
          "duration": 0.015225149414064276
        },
        {
          "name": "G#2",
          "midi": 44,
          "time": 70.03937825000058,
          "velocity": 0.31496062992125984,
          "duration": 0.015225149414064276
        },
        {
          "name": "D4",
          "midi": 62,
          "time": 70.03937825000058,
          "velocity": 0.6299212598425197,
          "duration": 0.015225149414064276
        },
        {
          "name": "F#3",
          "midi": 54,
          "time": 70.03937825000058,
          "velocity": 0.31496062992125984,
          "duration": 0.015225149414064276
        },
        {
          "name": "E2",
          "midi": 40,
          "time": 70.15748850000058,
          "velocity": 0.6299212598425197,
          "duration": 0.015225149414064276
        },
        {
          "name": "G#2",
          "midi": 44,
          "time": 70.15748850000058,
          "velocity": 0.3937007874015748,
          "duration": 0.015225149414064276
        },
        {
          "name": "D4",
          "midi": 62,
          "time": 70.15748850000058,
          "velocity": 0.6299212598425197,
          "duration": 0.015225149414064276
        },
        {
          "name": "F#3",
          "midi": 54,
          "time": 70.15748850000058,
          "velocity": 0.47244094488188976,
          "duration": 0.015225149414064276
        },
        {
          "name": "E2",
          "midi": 40,
          "time": 70.27559875000058,
          "velocity": 0.3937007874015748,
          "duration": 0.015225149414064276
        },
        {
          "name": "G#2",
          "midi": 44,
          "time": 70.27559875000058,
          "velocity": 0.31496062992125984,
          "duration": 0.015225149414064276
        },
        {
          "name": "D4",
          "midi": 62,
          "time": 70.27559875000058,
          "velocity": 0.3937007874015748,
          "duration": 0.015225149414064276
        },
        {
          "name": "F#3",
          "midi": 54,
          "time": 70.27559875000058,
          "velocity": 0.31496062992125984,
          "duration": 0.015225149414064276
        },
        {
          "name": "D4",
          "midi": 62,
          "time": 70.3318856660162,
          "velocity": 0.3937007874015748,
          "duration": 0.015225149414064276
        },
        {
          "name": "E2",
          "midi": 40,
          "time": 70.3318856660162,
          "velocity": 0.3937007874015748,
          "duration": 0.015225149414064276
        },
        {
          "name": "D4",
          "midi": 62,
          "time": 70.37064059179745,
          "velocity": 0.3937007874015748,
          "duration": 0.015225149414064276
        },
        {
          "name": "E2",
          "midi": 40,
          "time": 70.37064059179745,
          "velocity": 0.3937007874015748,
          "duration": 0.015225149414064276
        },
        {
          "name": "E2",
          "midi": 40,
          "time": 70.39370900000058,
          "velocity": 0.6299212598425197,
          "duration": 0.015225149414064276
        },
        {
          "name": "G#2",
          "midi": 44,
          "time": 70.39370900000058,
          "velocity": 0.3937007874015748,
          "duration": 0.015225149414064276
        },
        {
          "name": "D4",
          "midi": 62,
          "time": 70.39370900000058,
          "velocity": 0.6299212598425197,
          "duration": 0.015225149414064276
        },
        {
          "name": "F#3",
          "midi": 54,
          "time": 70.39370900000058,
          "velocity": 0.47244094488188976,
          "duration": 0.015225149414064276
        },
        {
          "name": "F#3",
          "midi": 54,
          "time": 70.51181925000058,
          "velocity": 0.31496062992125984,
          "duration": 0.015225149414064276
        },
        {
          "name": "G#2",
          "midi": 44,
          "time": 70.51181925000058,
          "velocity": 0.31496062992125984,
          "duration": 0.015225149414064276
        },
        {
          "name": "E2",
          "midi": 40,
          "time": 70.62992950000059,
          "velocity": 0.6299212598425197,
          "duration": 0.015225149414064276
        },
        {
          "name": "G#2",
          "midi": 44,
          "time": 70.62992950000059,
          "velocity": 0.3937007874015748,
          "duration": 0.015225149414064276
        },
        {
          "name": "D4",
          "midi": 62,
          "time": 70.62992950000059,
          "velocity": 0.6299212598425197,
          "duration": 0.015225149414064276
        },
        {
          "name": "F#3",
          "midi": 54,
          "time": 70.62992950000059,
          "velocity": 0.47244094488188976,
          "duration": 0.015225149414064276
        },
        {
          "name": "F#3",
          "midi": 54,
          "time": 70.74803975000059,
          "velocity": 0.31496062992125984,
          "duration": 0.015225149414064276
        },
        {
          "name": "G#2",
          "midi": 44,
          "time": 70.74803975000059,
          "velocity": 0.31496062992125984,
          "duration": 0.015225149414064276
        },
        {
          "name": "E2",
          "midi": 40,
          "time": 70.86615000000059,
          "velocity": 0.6299212598425197,
          "duration": 0.015225149414064276
        },
        {
          "name": "G#2",
          "midi": 44,
          "time": 70.86615000000059,
          "velocity": 0.3937007874015748,
          "duration": 0.015225149414064276
        },
        {
          "name": "D4",
          "midi": 62,
          "time": 70.86615000000059,
          "velocity": 0.6299212598425197,
          "duration": 0.015225149414064276
        },
        {
          "name": "F#3",
          "midi": 54,
          "time": 70.86615000000059,
          "velocity": 0.47244094488188976,
          "duration": 0.015225149414064276
        },
        {
          "name": "E2",
          "midi": 40,
          "time": 70.98426025000059,
          "velocity": 0.3937007874015748,
          "duration": 0.015225149414064276
        },
        {
          "name": "G#2",
          "midi": 44,
          "time": 70.98426025000059,
          "velocity": 0.31496062992125984,
          "duration": 0.015225149414064276
        },
        {
          "name": "D4",
          "midi": 62,
          "time": 70.98426025000059,
          "velocity": 0.3937007874015748,
          "duration": 0.015225149414064276
        },
        {
          "name": "F#3",
          "midi": 54,
          "time": 70.98426025000059,
          "velocity": 0.31496062992125984,
          "duration": 0.015225149414064276
        },
        {
          "name": "D4",
          "midi": 62,
          "time": 71.02762885742247,
          "velocity": 0.3937007874015748,
          "duration": 0.015225149414064276
        },
        {
          "name": "E2",
          "midi": 40,
          "time": 71.02762885742247,
          "velocity": 0.3937007874015748,
          "duration": 0.015225149414064276
        },
        {
          "name": "D4",
          "midi": 62,
          "time": 71.07099746484435,
          "velocity": 0.3937007874015748,
          "duration": 0.015225149414064276
        },
        {
          "name": "E2",
          "midi": 40,
          "time": 71.07099746484435,
          "velocity": 0.3937007874015748,
          "duration": 0.015225149414064276
        },
        {
          "name": "E2",
          "midi": 40,
          "time": 71.1023705000006,
          "velocity": 0.6299212598425197,
          "duration": 0.015225149414064276
        },
        {
          "name": "G#2",
          "midi": 44,
          "time": 71.1023705000006,
          "velocity": 0.3937007874015748,
          "duration": 0.015225149414064276
        },
        {
          "name": "D4",
          "midi": 62,
          "time": 71.1023705000006,
          "velocity": 0.6299212598425197,
          "duration": 0.015225149414064276
        },
        {
          "name": "F#3",
          "midi": 54,
          "time": 71.1023705000006,
          "velocity": 0.47244094488188976,
          "duration": 0.015225149414064276
        },
        {
          "name": "E2",
          "midi": 40,
          "time": 71.2204807500006,
          "velocity": 0.6299212598425197,
          "duration": 0.015225149414064276
        },
        {
          "name": "G#2",
          "midi": 44,
          "time": 71.2204807500006,
          "velocity": 0.31496062992125984,
          "duration": 0.015225149414064276
        },
        {
          "name": "D4",
          "midi": 62,
          "time": 71.2204807500006,
          "velocity": 0.6299212598425197,
          "duration": 0.015225149414064276
        },
        {
          "name": "F#3",
          "midi": 54,
          "time": 71.2204807500006,
          "velocity": 0.31496062992125984,
          "duration": 0.015225149414064276
        },
        {
          "name": "F#3",
          "midi": 54,
          "time": 71.3385910000006,
          "velocity": 0.47244094488188976,
          "duration": 0.015225149414064276
        },
        {
          "name": "G#2",
          "midi": 44,
          "time": 71.3385910000006,
          "velocity": 0.3937007874015748,
          "duration": 0.015225149414064276
        },
        {
          "name": "E2",
          "midi": 40,
          "time": 71.4567012500006,
          "velocity": 0.6299212598425197,
          "duration": 0.015225149414064276
        },
        {
          "name": "G#2",
          "midi": 44,
          "time": 71.4567012500006,
          "velocity": 0.31496062992125984,
          "duration": 0.015225149414064276
        },
        {
          "name": "D4",
          "midi": 62,
          "time": 71.4567012500006,
          "velocity": 0.6299212598425197,
          "duration": 0.015225149414064276
        },
        {
          "name": "F#3",
          "midi": 54,
          "time": 71.4567012500006,
          "velocity": 0.31496062992125984,
          "duration": 0.015225149414064276
        },
        {
          "name": "F#3",
          "midi": 54,
          "time": 71.5748115000006,
          "velocity": 0.31496062992125984,
          "duration": 0.015225149414064276
        },
        {
          "name": "E2",
          "midi": 40,
          "time": 72.28347300000061,
          "velocity": 0.47244094488188976,
          "duration": 0.015686517578131998
        },
        {
          "name": "G#2",
          "midi": 44,
          "time": 72.28347300000061,
          "velocity": 0.3937007874015748,
          "duration": 0.015225149414064276
        },
        {
          "name": "A3",
          "midi": 57,
          "time": 72.28347300000061,
          "velocity": 0.5511811023622047,
          "duration": 0.015686517578131998
        },
        {
          "name": "F#3",
          "midi": 54,
          "time": 72.28347300000061,
          "velocity": 0.47244094488188976,
          "duration": 0.015225149414064276
        },
        {
          "name": "C2",
          "midi": 36,
          "time": 72.28347300000061,
          "velocity": 0.5511811023622047,
          "duration": 0.015686517578131998
        },
        {
          "name": "F#3",
          "midi": 54,
          "time": 72.40158325000061,
          "velocity": 0.31496062992125984,
          "duration": 0.015225149414064276
        },
        {
          "name": "G#2",
          "midi": 44,
          "time": 72.40158325000061,
          "velocity": 0.47244094488188976,
          "duration": 0.015686517578131998
        },
        {
          "name": "F#3",
          "midi": 54,
          "time": 72.51969350000061,
          "velocity": 0.47244094488188976,
          "duration": 0.015225149414064276
        },
        {
          "name": "G#2",
          "midi": 44,
          "time": 72.51969350000061,
          "velocity": 0.47244094488188976,
          "duration": 0.015686517578131998
        },
        {
          "name": "E2",
          "midi": 40,
          "time": 72.63780375000061,
          "velocity": 0.47244094488188976,
          "duration": 0.015686517578131998
        },
        {
          "name": "C2",
          "midi": 36,
          "time": 72.63780375000061,
          "velocity": 0.5511811023622047,
          "duration": 0.015686517578131998
        },
        {
          "name": "D4",
          "midi": 62,
          "time": 72.63780375000061,
          "velocity": 0.3937007874015748,
          "duration": 0.015686517578131998
        },
        {
          "name": "D2",
          "midi": 38,
          "time": 72.63780375000061,
          "velocity": 0.47244094488188976,
          "duration": 0.015686517578131998
        },
        {
          "name": "G3",
          "midi": 55,
          "time": 72.63780375000061,
          "velocity": 0.5511811023622047,
          "duration": 0.015686517578131998
        },
        {
          "name": "G#2",
          "midi": 44,
          "time": 72.63780375000061,
          "velocity": 0.3937007874015748,
          "duration": 0.015225149414064276
        },
        {
          "name": "F#3",
          "midi": 54,
          "time": 72.63780375000061,
          "velocity": 0.31496062992125984,
          "duration": 0.015225149414064276
        },
        {
          "name": "F#3",
          "midi": 54,
          "time": 72.75591400000062,
          "velocity": 0.47244094488188976,
          "duration": 0.015225149414064276
        },
        {
          "name": "G#2",
          "midi": 44,
          "time": 72.75591400000062,
          "velocity": 0.47244094488188976,
          "duration": 0.015686517578131998
        },
        {
          "name": "F#3",
          "midi": 54,
          "time": 72.87402425000062,
          "velocity": 0.31496062992125984,
          "duration": 0.015225149414064276
        },
        {
          "name": "G#2",
          "midi": 44,
          "time": 72.87402425000062,
          "velocity": 0.47244094488188976,
          "duration": 0.015686517578131998
        },
        {
          "name": "E2",
          "midi": 40,
          "time": 72.99213450000062,
          "velocity": 0.47244094488188976,
          "duration": 0.015686517578131998
        },
        {
          "name": "G#2",
          "midi": 44,
          "time": 72.99213450000062,
          "velocity": 0.47244094488188976,
          "duration": 0.015225149414064276
        },
        {
          "name": "G3",
          "midi": 55,
          "time": 72.99213450000062,
          "velocity": 0.5511811023622047,
          "duration": 0.015686517578131998
        },
        {
          "name": "F#3",
          "midi": 54,
          "time": 72.99213450000062,
          "velocity": 0.47244094488188976,
          "duration": 0.015225149414064276
        },
        {
          "name": "C2",
          "midi": 36,
          "time": 72.99213450000062,
          "velocity": 0.5511811023622047,
          "duration": 0.015686517578131998
        },
        {
          "name": "F#3",
          "midi": 54,
          "time": 73.11024475000062,
          "velocity": 0.31496062992125984,
          "duration": 0.015225149414064276
        },
        {
          "name": "G#2",
          "midi": 44,
          "time": 73.11024475000062,
          "velocity": 0.3937007874015748,
          "duration": 0.015225149414064276
        },
        {
          "name": "F#3",
          "midi": 54,
          "time": 73.22835500000062,
          "velocity": 0.47244094488188976,
          "duration": 0.015225149414064276
        },
        {
          "name": "G#2",
          "midi": 44,
          "time": 73.22835500000062,
          "velocity": 0.47244094488188976,
          "duration": 0.015225149414064276
        },
        {
          "name": "D2",
          "midi": 38,
          "time": 73.22835500000062,
          "velocity": 0.47244094488188976,
          "duration": 0.015686517578131998
        },
        {
          "name": "D4",
          "midi": 62,
          "time": 73.22835500000062,
          "velocity": 0.3937007874015748,
          "duration": 0.015686517578131998
        },
        {
          "name": "E2",
          "midi": 40,
          "time": 73.22835500000062,
          "velocity": 0.47244094488188976,
          "duration": 0.015686517578131998
        },
        {
          "name": "F#3",
          "midi": 54,
          "time": 73.34646525000062,
          "velocity": 0.31496062992125984,
          "duration": 0.015225149414064276
        },
        {
          "name": "G#2",
          "midi": 44,
          "time": 73.34646525000062,
          "velocity": 0.3937007874015748,
          "duration": 0.015225149414064276
        },
        {
          "name": "D2",
          "midi": 38,
          "time": 73.34646525000062,
          "velocity": 0.47244094488188976,
          "duration": 0.015686517578131998
        },
        {
          "name": "D4",
          "midi": 62,
          "time": 73.34646525000062,
          "velocity": 0.3937007874015748,
          "duration": 0.015686517578131998
        },
        {
          "name": "E2",
          "midi": 40,
          "time": 73.34646525000062,
          "velocity": 0.47244094488188976,
          "duration": 0.015686517578131998
        },
        {
          "name": "F#3",
          "midi": 54,
          "time": 73.46457550000062,
          "velocity": 0.47244094488188976,
          "duration": 0.015225149414064276
        },
        {
          "name": "G#2",
          "midi": 44,
          "time": 73.46457550000062,
          "velocity": 0.47244094488188976,
          "duration": 0.015225149414064276
        },
        {
          "name": "D2",
          "midi": 38,
          "time": 73.46457550000062,
          "velocity": 0.47244094488188976,
          "duration": 0.015686517578131998
        },
        {
          "name": "D4",
          "midi": 62,
          "time": 73.46457550000062,
          "velocity": 0.3937007874015748,
          "duration": 0.015686517578131998
        },
        {
          "name": "E2",
          "midi": 40,
          "time": 73.46457550000062,
          "velocity": 0.47244094488188976,
          "duration": 0.015686517578131998
        },
        {
          "name": "F#3",
          "midi": 54,
          "time": 73.58268575000062,
          "velocity": 0.31496062992125984,
          "duration": 0.015225149414064276
        },
        {
          "name": "G#2",
          "midi": 44,
          "time": 73.58268575000062,
          "velocity": 0.3937007874015748,
          "duration": 0.015225149414064276
        },
        {
          "name": "D2",
          "midi": 38,
          "time": 73.58268575000062,
          "velocity": 0.47244094488188976,
          "duration": 0.015686517578131998
        },
        {
          "name": "D4",
          "midi": 62,
          "time": 73.58268575000062,
          "velocity": 0.3937007874015748,
          "duration": 0.015686517578131998
        },
        {
          "name": "E2",
          "midi": 40,
          "time": 73.58268575000062,
          "velocity": 0.47244094488188976,
          "duration": 0.015686517578131998
        },
        {
          "name": "C2",
          "midi": 36,
          "time": 73.70079600000062,
          "velocity": 0.5511811023622047,
          "duration": 0.015686517578131998
        },
        {
          "name": "F#3",
          "midi": 54,
          "time": 73.70079600000062,
          "velocity": 0.47244094488188976,
          "duration": 0.015225149414064276
        },
        {
          "name": "E2",
          "midi": 40,
          "time": 73.70079600000062,
          "velocity": 0.47244094488188976,
          "duration": 0.015686517578131998
        },
        {
          "name": "G#2",
          "midi": 44,
          "time": 73.70079600000062,
          "velocity": 0.3937007874015748,
          "duration": 0.015225149414064276
        },
        {
          "name": "G#2",
          "midi": 44,
          "time": 73.81890625000062,
          "velocity": 0.3937007874015748,
          "duration": 0.015225149414064276
        },
        {
          "name": "F#3",
          "midi": 54,
          "time": 73.81890625000062,
          "velocity": 0.31496062992125984,
          "duration": 0.015225149414064276
        },
        {
          "name": "C#2",
          "midi": 37,
          "time": 73.81890625000062,
          "velocity": 0.31496062992125984,
          "duration": 0.015686517578131998
        },
        {
          "name": "F#3",
          "midi": 54,
          "time": 73.93701650000062,
          "velocity": 0.47244094488188976,
          "duration": 0.015225149414064276
        },
        {
          "name": "G#2",
          "midi": 44,
          "time": 73.93701650000062,
          "velocity": 0.47244094488188976,
          "duration": 0.015686517578131998
        },
        {
          "name": "E2",
          "midi": 40,
          "time": 74.05512675000062,
          "velocity": 0.47244094488188976,
          "duration": 0.015686517578131998
        },
        {
          "name": "A3",
          "midi": 57,
          "time": 74.05512675000062,
          "velocity": 0.5511811023622047,
          "duration": 0.015686517578131998
        },
        {
          "name": "D4",
          "midi": 62,
          "time": 74.05512675000062,
          "velocity": 0.3937007874015748,
          "duration": 0.015686517578131998
        },
        {
          "name": "F#3",
          "midi": 54,
          "time": 74.05512675000062,
          "velocity": 0.31496062992125984,
          "duration": 0.015225149414064276
        },
        {
          "name": "C2",
          "midi": 36,
          "time": 74.05512675000062,
          "velocity": 0.5511811023622047,
          "duration": 0.015686517578131998
        },
        {
          "name": "G#2",
          "midi": 44,
          "time": 74.05512675000062,
          "velocity": 0.47244094488188976,
          "duration": 0.015686517578131998
        },
        {
          "name": "D2",
          "midi": 38,
          "time": 74.05512675000062,
          "velocity": 0.47244094488188976,
          "duration": 0.015686517578131998
        },
        {
          "name": "F#3",
          "midi": 54,
          "time": 74.17323700000063,
          "velocity": 0.47244094488188976,
          "duration": 0.015225149414064276
        },
        {
          "name": "G#2",
          "midi": 44,
          "time": 74.17323700000063,
          "velocity": 0.47244094488188976,
          "duration": 0.015686517578131998
        },
        {
          "name": "F#3",
          "midi": 54,
          "time": 74.29134725000063,
          "velocity": 0.31496062992125984,
          "duration": 0.015225149414064276
        },
        {
          "name": "G#2",
          "midi": 44,
          "time": 74.29134725000063,
          "velocity": 0.47244094488188976,
          "duration": 0.015686517578131998
        },
        {
          "name": "C2",
          "midi": 36,
          "time": 74.40945750000063,
          "velocity": 0.5511811023622047,
          "duration": 0.015686517578131998
        },
        {
          "name": "F#3",
          "midi": 54,
          "time": 74.40945750000063,
          "velocity": 0.47244094488188976,
          "duration": 0.015225149414064276
        },
        {
          "name": "E2",
          "midi": 40,
          "time": 74.40945750000063,
          "velocity": 0.47244094488188976,
          "duration": 0.015686517578131998
        },
        {
          "name": "G#2",
          "midi": 44,
          "time": 74.40945750000063,
          "velocity": 0.3937007874015748,
          "duration": 0.015225149414064276
        },
        {
          "name": "F#3",
          "midi": 54,
          "time": 74.52756775000063,
          "velocity": 0.31496062992125984,
          "duration": 0.015225149414064276
        },
        {
          "name": "G#2",
          "midi": 44,
          "time": 74.52756775000063,
          "velocity": 0.47244094488188976,
          "duration": 0.015686517578131998
        },
        {
          "name": "G3",
          "midi": 55,
          "time": 74.64567800000063,
          "velocity": 0.5511811023622047,
          "duration": 0.015686517578131998
        },
        {
          "name": "F#3",
          "midi": 54,
          "time": 74.64567800000063,
          "velocity": 0.47244094488188976,
          "duration": 0.015225149414064276
        },
        {
          "name": "D4",
          "midi": 62,
          "time": 74.64567800000063,
          "velocity": 0.3937007874015748,
          "duration": 0.015686517578131998
        },
        {
          "name": "D2",
          "midi": 38,
          "time": 74.64567800000063,
          "velocity": 0.47244094488188976,
          "duration": 0.015686517578131998
        },
        {
          "name": "C2",
          "midi": 36,
          "time": 74.64567800000063,
          "velocity": 0.5511811023622047,
          "duration": 0.015686517578131998
        },
        {
          "name": "G#2",
          "midi": 44,
          "time": 74.64567800000063,
          "velocity": 0.47244094488188976,
          "duration": 0.015686517578131998
        },
        {
          "name": "E2",
          "midi": 40,
          "time": 74.64567800000063,
          "velocity": 0.47244094488188976,
          "duration": 0.015686517578131998
        },
        {
          "name": "G#2",
          "midi": 44,
          "time": 74.76378825000063,
          "velocity": 0.47244094488188976,
          "duration": 0.015686517578131998
        },
        {
          "name": "F#3",
          "midi": 54,
          "time": 74.76378825000063,
          "velocity": 0.31496062992125984,
          "duration": 0.015225149414064276
        },
        {
          "name": "A2",
          "midi": 45,
          "time": 74.76378825000063,
          "velocity": 0.3937007874015748,
          "duration": 0.015686517578131998
        },
        {
          "name": "G3",
          "midi": 55,
          "time": 74.88189850000063,
          "velocity": 0.5511811023622047,
          "duration": 0.015686517578131998
        },
        {
          "name": "F#3",
          "midi": 54,
          "time": 74.88189850000063,
          "velocity": 0.47244094488188976,
          "duration": 0.015225149414064276
        },
        {
          "name": "D4",
          "midi": 62,
          "time": 74.88189850000063,
          "velocity": 0.3937007874015748,
          "duration": 0.015686517578131998
        },
        {
          "name": "D2",
          "midi": 38,
          "time": 74.88189850000063,
          "velocity": 0.47244094488188976,
          "duration": 0.015686517578131998
        },
        {
          "name": "C2",
          "midi": 36,
          "time": 74.88189850000063,
          "velocity": 0.5511811023622047,
          "duration": 0.015686517578131998
        },
        {
          "name": "G#2",
          "midi": 44,
          "time": 74.88189850000063,
          "velocity": 0.47244094488188976,
          "duration": 0.015686517578131998
        },
        {
          "name": "E2",
          "midi": 40,
          "time": 74.88189850000063,
          "velocity": 0.47244094488188976,
          "duration": 0.015686517578131998
        },
        {
          "name": "G#2",
          "midi": 44,
          "time": 75.00000875000063,
          "velocity": 0.47244094488188976,
          "duration": 0.015686517578131998
        },
        {
          "name": "F#3",
          "midi": 54,
          "time": 75.00000875000063,
          "velocity": 0.31496062992125984,
          "duration": 0.015225149414064276
        },
        {
          "name": "A2",
          "midi": 45,
          "time": 75.00000875000063,
          "velocity": 0.3937007874015748,
          "duration": 0.015686517578131998
        },
        {
          "name": "C2",
          "midi": 36,
          "time": 75.11811900000063,
          "velocity": 0.5511811023622047,
          "duration": 0.015686517578131998
        },
        {
          "name": "G#2",
          "midi": 44,
          "time": 75.11811900000063,
          "velocity": 0.3937007874015748,
          "duration": 0.015225149414064276
        },
        {
          "name": "E2",
          "midi": 40,
          "time": 75.11811900000063,
          "velocity": 0.47244094488188976,
          "duration": 0.015686517578131998
        },
        {
          "name": "A3",
          "midi": 57,
          "time": 75.11811900000063,
          "velocity": 0.5511811023622047,
          "duration": 0.015686517578131998
        },
        {
          "name": "F#3",
          "midi": 54,
          "time": 75.11811900000063,
          "velocity": 0.47244094488188976,
          "duration": 0.015225149414064276
        },
        {
          "name": "F#3",
          "midi": 54,
          "time": 75.23622925000063,
          "velocity": 0.31496062992125984,
          "duration": 0.015225149414064276
        },
        {
          "name": "G#2",
          "midi": 44,
          "time": 75.23622925000063,
          "velocity": 0.47244094488188976,
          "duration": 0.015686517578131998
        },
        {
          "name": "F#3",
          "midi": 54,
          "time": 75.35433950000063,
          "velocity": 0.47244094488188976,
          "duration": 0.015225149414064276
        },
        {
          "name": "G#2",
          "midi": 44,
          "time": 75.35433950000063,
          "velocity": 0.47244094488188976,
          "duration": 0.015686517578131998
        },
        {
          "name": "E2",
          "midi": 40,
          "time": 75.47244975000064,
          "velocity": 0.47244094488188976,
          "duration": 0.015686517578131998
        },
        {
          "name": "C2",
          "midi": 36,
          "time": 75.47244975000064,
          "velocity": 0.5511811023622047,
          "duration": 0.015686517578131998
        },
        {
          "name": "D4",
          "midi": 62,
          "time": 75.47244975000064,
          "velocity": 0.3937007874015748,
          "duration": 0.015686517578131998
        },
        {
          "name": "D2",
          "midi": 38,
          "time": 75.47244975000064,
          "velocity": 0.47244094488188976,
          "duration": 0.015686517578131998
        },
        {
          "name": "F#3",
          "midi": 54,
          "time": 75.47244975000064,
          "velocity": 0.31496062992125984,
          "duration": 0.015225149414064276
        },
        {
          "name": "G#2",
          "midi": 44,
          "time": 75.47244975000064,
          "velocity": 0.3937007874015748,
          "duration": 0.015225149414064276
        },
        {
          "name": "G3",
          "midi": 55,
          "time": 75.47244975000064,
          "velocity": 0.5511811023622047,
          "duration": 0.015686517578131998
        },
        {
          "name": "F#3",
          "midi": 54,
          "time": 75.59056000000064,
          "velocity": 0.47244094488188976,
          "duration": 0.015225149414064276
        },
        {
          "name": "G#2",
          "midi": 44,
          "time": 75.59056000000064,
          "velocity": 0.47244094488188976,
          "duration": 0.015686517578131998
        },
        {
          "name": "F#3",
          "midi": 54,
          "time": 75.70867025000064,
          "velocity": 0.31496062992125984,
          "duration": 0.015225149414064276
        },
        {
          "name": "G#2",
          "midi": 44,
          "time": 75.70867025000064,
          "velocity": 0.47244094488188976,
          "duration": 0.015686517578131998
        },
        {
          "name": "E2",
          "midi": 40,
          "time": 75.82678050000064,
          "velocity": 0.47244094488188976,
          "duration": 0.015686517578131998
        },
        {
          "name": "G#2",
          "midi": 44,
          "time": 75.82678050000064,
          "velocity": 0.47244094488188976,
          "duration": 0.015225149414064276
        },
        {
          "name": "G3",
          "midi": 55,
          "time": 75.82678050000064,
          "velocity": 0.5511811023622047,
          "duration": 0.015686517578131998
        },
        {
          "name": "F#3",
          "midi": 54,
          "time": 75.82678050000064,
          "velocity": 0.47244094488188976,
          "duration": 0.015225149414064276
        },
        {
          "name": "C2",
          "midi": 36,
          "time": 75.82678050000064,
          "velocity": 0.5511811023622047,
          "duration": 0.015686517578131998
        },
        {
          "name": "F#3",
          "midi": 54,
          "time": 75.94489075000064,
          "velocity": 0.31496062992125984,
          "duration": 0.015225149414064276
        },
        {
          "name": "G#2",
          "midi": 44,
          "time": 75.94489075000064,
          "velocity": 0.3937007874015748,
          "duration": 0.015225149414064276
        },
        {
          "name": "F#3",
          "midi": 54,
          "time": 76.06300100000064,
          "velocity": 0.47244094488188976,
          "duration": 0.015225149414064276
        },
        {
          "name": "G#2",
          "midi": 44,
          "time": 76.06300100000064,
          "velocity": 0.47244094488188976,
          "duration": 0.015225149414064276
        },
        {
          "name": "D2",
          "midi": 38,
          "time": 76.06300100000064,
          "velocity": 0.47244094488188976,
          "duration": 0.015686517578131998
        },
        {
          "name": "D4",
          "midi": 62,
          "time": 76.06300100000064,
          "velocity": 0.3937007874015748,
          "duration": 0.015686517578131998
        },
        {
          "name": "E2",
          "midi": 40,
          "time": 76.06300100000064,
          "velocity": 0.47244094488188976,
          "duration": 0.015686517578131998
        },
        {
          "name": "F#3",
          "midi": 54,
          "time": 76.18111125000064,
          "velocity": 0.31496062992125984,
          "duration": 0.015225149414064276
        },
        {
          "name": "G#2",
          "midi": 44,
          "time": 76.18111125000064,
          "velocity": 0.3937007874015748,
          "duration": 0.015225149414064276
        },
        {
          "name": "D2",
          "midi": 38,
          "time": 76.18111125000064,
          "velocity": 0.47244094488188976,
          "duration": 0.015686517578131998
        },
        {
          "name": "D4",
          "midi": 62,
          "time": 76.18111125000064,
          "velocity": 0.3937007874015748,
          "duration": 0.015686517578131998
        },
        {
          "name": "E2",
          "midi": 40,
          "time": 76.18111125000064,
          "velocity": 0.47244094488188976,
          "duration": 0.015686517578131998
        },
        {
          "name": "F#3",
          "midi": 54,
          "time": 76.29922150000064,
          "velocity": 0.47244094488188976,
          "duration": 0.015225149414064276
        },
        {
          "name": "G#2",
          "midi": 44,
          "time": 76.29922150000064,
          "velocity": 0.47244094488188976,
          "duration": 0.015225149414064276
        },
        {
          "name": "D2",
          "midi": 38,
          "time": 76.29922150000064,
          "velocity": 0.47244094488188976,
          "duration": 0.015686517578131998
        },
        {
          "name": "D4",
          "midi": 62,
          "time": 76.29922150000064,
          "velocity": 0.3937007874015748,
          "duration": 0.015686517578131998
        },
        {
          "name": "E2",
          "midi": 40,
          "time": 76.29922150000064,
          "velocity": 0.47244094488188976,
          "duration": 0.015686517578131998
        },
        {
          "name": "F#3",
          "midi": 54,
          "time": 76.41733175000064,
          "velocity": 0.31496062992125984,
          "duration": 0.015225149414064276
        },
        {
          "name": "G#2",
          "midi": 44,
          "time": 76.41733175000064,
          "velocity": 0.3937007874015748,
          "duration": 0.015225149414064276
        },
        {
          "name": "D2",
          "midi": 38,
          "time": 76.41733175000064,
          "velocity": 0.47244094488188976,
          "duration": 0.015686517578131998
        },
        {
          "name": "D4",
          "midi": 62,
          "time": 76.41733175000064,
          "velocity": 0.3937007874015748,
          "duration": 0.015686517578131998
        },
        {
          "name": "E2",
          "midi": 40,
          "time": 76.41733175000064,
          "velocity": 0.47244094488188976,
          "duration": 0.015686517578131998
        },
        {
          "name": "F#3",
          "midi": 54,
          "time": 76.53544200000064,
          "velocity": 0.47244094488188976,
          "duration": 0.015225149414064276
        },
        {
          "name": "C2",
          "midi": 36,
          "time": 76.53544200000064,
          "velocity": 0.5511811023622047,
          "duration": 0.015686517578131998
        },
        {
          "name": "E2",
          "midi": 40,
          "time": 76.53544200000064,
          "velocity": 0.47244094488188976,
          "duration": 0.015686517578131998
        },
        {
          "name": "G#2",
          "midi": 44,
          "time": 76.53544200000064,
          "velocity": 0.3937007874015748,
          "duration": 0.015225149414064276
        },
        {
          "name": "G#2",
          "midi": 44,
          "time": 76.65355225000064,
          "velocity": 0.3937007874015748,
          "duration": 0.015225149414064276
        },
        {
          "name": "F#3",
          "midi": 54,
          "time": 76.65355225000064,
          "velocity": 0.31496062992125984,
          "duration": 0.015225149414064276
        },
        {
          "name": "C#2",
          "midi": 37,
          "time": 76.65355225000064,
          "velocity": 0.31496062992125984,
          "duration": 0.015686517578131998
        },
        {
          "name": "F#3",
          "midi": 54,
          "time": 76.77166250000064,
          "velocity": 0.47244094488188976,
          "duration": 0.015225149414064276
        },
        {
          "name": "G#2",
          "midi": 44,
          "time": 76.77166250000064,
          "velocity": 0.47244094488188976,
          "duration": 0.015686517578131998
        },
        {
          "name": "D2",
          "midi": 38,
          "time": 76.88977275000065,
          "velocity": 0.47244094488188976,
          "duration": 0.015686517578131998
        },
        {
          "name": "E2",
          "midi": 40,
          "time": 76.88977275000065,
          "velocity": 0.47244094488188976,
          "duration": 0.015686517578131998
        },
        {
          "name": "A3",
          "midi": 57,
          "time": 76.88977275000065,
          "velocity": 0.5511811023622047,
          "duration": 0.015686517578131998
        },
        {
          "name": "D4",
          "midi": 62,
          "time": 76.88977275000065,
          "velocity": 0.3937007874015748,
          "duration": 0.015686517578131998
        },
        {
          "name": "F#3",
          "midi": 54,
          "time": 76.88977275000065,
          "velocity": 0.31496062992125984,
          "duration": 0.015225149414064276
        },
        {
          "name": "G#2",
          "midi": 44,
          "time": 76.88977275000065,
          "velocity": 0.47244094488188976,
          "duration": 0.015686517578131998
        },
        {
          "name": "C2",
          "midi": 36,
          "time": 76.88977275000065,
          "velocity": 0.5511811023622047,
          "duration": 0.015686517578131998
        },
        {
          "name": "F#3",
          "midi": 54,
          "time": 77.00788300000065,
          "velocity": 0.47244094488188976,
          "duration": 0.015225149414064276
        },
        {
          "name": "G#2",
          "midi": 44,
          "time": 77.00788300000065,
          "velocity": 0.47244094488188976,
          "duration": 0.015686517578131998
        },
        {
          "name": "F#3",
          "midi": 54,
          "time": 77.12599325000065,
          "velocity": 0.31496062992125984,
          "duration": 0.015225149414064276
        },
        {
          "name": "G#2",
          "midi": 44,
          "time": 77.12599325000065,
          "velocity": 0.47244094488188976,
          "duration": 0.015686517578131998
        },
        {
          "name": "F#3",
          "midi": 54,
          "time": 77.24410350000065,
          "velocity": 0.47244094488188976,
          "duration": 0.015225149414064276
        },
        {
          "name": "C2",
          "midi": 36,
          "time": 77.24410350000065,
          "velocity": 0.5511811023622047,
          "duration": 0.015686517578131998
        },
        {
          "name": "E2",
          "midi": 40,
          "time": 77.24410350000065,
          "velocity": 0.47244094488188976,
          "duration": 0.015686517578131998
        },
        {
          "name": "G#2",
          "midi": 44,
          "time": 77.24410350000065,
          "velocity": 0.3937007874015748,
          "duration": 0.015225149414064276
        },
        {
          "name": "F#3",
          "midi": 54,
          "time": 77.36221375000065,
          "velocity": 0.31496062992125984,
          "duration": 0.015225149414064276
        },
        {
          "name": "G#2",
          "midi": 44,
          "time": 77.36221375000065,
          "velocity": 0.47244094488188976,
          "duration": 0.015686517578131998
        },
        {
          "name": "E2",
          "midi": 40,
          "time": 77.48032400000065,
          "velocity": 0.47244094488188976,
          "duration": 0.015686517578131998
        },
        {
          "name": "G3",
          "midi": 55,
          "time": 77.48032400000065,
          "velocity": 0.5511811023622047,
          "duration": 0.015686517578131998
        },
        {
          "name": "D4",
          "midi": 62,
          "time": 77.48032400000065,
          "velocity": 0.3937007874015748,
          "duration": 0.015686517578131998
        },
        {
          "name": "D2",
          "midi": 38,
          "time": 77.48032400000065,
          "velocity": 0.47244094488188976,
          "duration": 0.015686517578131998
        },
        {
          "name": "F#3",
          "midi": 54,
          "time": 77.48032400000065,
          "velocity": 0.47244094488188976,
          "duration": 0.015225149414064276
        },
        {
          "name": "G#2",
          "midi": 44,
          "time": 77.48032400000065,
          "velocity": 0.47244094488188976,
          "duration": 0.015686517578131998
        },
        {
          "name": "C2",
          "midi": 36,
          "time": 77.48032400000065,
          "velocity": 0.5511811023622047,
          "duration": 0.015686517578131998
        },
        {
          "name": "G#2",
          "midi": 44,
          "time": 77.59843425000065,
          "velocity": 0.47244094488188976,
          "duration": 0.015686517578131998
        },
        {
          "name": "F#3",
          "midi": 54,
          "time": 77.59843425000065,
          "velocity": 0.31496062992125984,
          "duration": 0.015225149414064276
        },
        {
          "name": "A2",
          "midi": 45,
          "time": 77.59843425000065,
          "velocity": 0.3937007874015748,
          "duration": 0.015686517578131998
        },
        {
          "name": "E2",
          "midi": 40,
          "time": 77.71654450000065,
          "velocity": 0.47244094488188976,
          "duration": 0.015686517578131998
        },
        {
          "name": "G3",
          "midi": 55,
          "time": 77.71654450000065,
          "velocity": 0.5511811023622047,
          "duration": 0.015686517578131998
        },
        {
          "name": "D4",
          "midi": 62,
          "time": 77.71654450000065,
          "velocity": 0.3937007874015748,
          "duration": 0.015686517578131998
        },
        {
          "name": "D2",
          "midi": 38,
          "time": 77.71654450000065,
          "velocity": 0.47244094488188976,
          "duration": 0.015686517578131998
        },
        {
          "name": "F#3",
          "midi": 54,
          "time": 77.71654450000065,
          "velocity": 0.47244094488188976,
          "duration": 0.015225149414064276
        },
        {
          "name": "G#2",
          "midi": 44,
          "time": 77.71654450000065,
          "velocity": 0.47244094488188976,
          "duration": 0.015686517578131998
        },
        {
          "name": "C2",
          "midi": 36,
          "time": 77.71654450000065,
          "velocity": 0.5511811023622047,
          "duration": 0.015686517578131998
        },
        {
          "name": "G#2",
          "midi": 44,
          "time": 77.83465475000065,
          "velocity": 0.47244094488188976,
          "duration": 0.015686517578131998
        },
        {
          "name": "F#3",
          "midi": 54,
          "time": 77.83465475000065,
          "velocity": 0.31496062992125984,
          "duration": 0.015225149414064276
        },
        {
          "name": "A2",
          "midi": 45,
          "time": 77.83465475000065,
          "velocity": 0.3937007874015748,
          "duration": 0.015686517578131998
        },
        {
          "name": "A3",
          "midi": 57,
          "time": 77.95276500000065,
          "velocity": 0.5511811023622047,
          "duration": 0.015686517578131998
        },
        {
          "name": "G#2",
          "midi": 44,
          "time": 77.95276500000065,
          "velocity": 0.3937007874015748,
          "duration": 0.015225149414064276
        },
        {
          "name": "F#3",
          "midi": 54,
          "time": 77.95276500000065,
          "velocity": 0.47244094488188976,
          "duration": 0.015225149414064276
        },
        {
          "name": "C2",
          "midi": 36,
          "time": 77.95276500000065,
          "velocity": 0.5511811023622047,
          "duration": 0.015686517578131998
        },
        {
          "name": "E2",
          "midi": 40,
          "time": 77.95276500000065,
          "velocity": 0.47244094488188976,
          "duration": 0.015686517578131998
        },
        {
          "name": "F#3",
          "midi": 54,
          "time": 78.07087525000065,
          "velocity": 0.31496062992125984,
          "duration": 0.015225149414064276
        },
        {
          "name": "G#2",
          "midi": 44,
          "time": 78.07087525000065,
          "velocity": 0.47244094488188976,
          "duration": 0.015686517578131998
        },
        {
          "name": "F#3",
          "midi": 54,
          "time": 78.18898550000065,
          "velocity": 0.47244094488188976,
          "duration": 0.015225149414064276
        },
        {
          "name": "G#2",
          "midi": 44,
          "time": 78.18898550000065,
          "velocity": 0.47244094488188976,
          "duration": 0.015686517578131998
        },
        {
          "name": "C2",
          "midi": 36,
          "time": 78.30709575000066,
          "velocity": 0.5511811023622047,
          "duration": 0.015686517578131998
        },
        {
          "name": "D4",
          "midi": 62,
          "time": 78.30709575000066,
          "velocity": 0.3937007874015748,
          "duration": 0.015686517578131998
        },
        {
          "name": "F#3",
          "midi": 54,
          "time": 78.30709575000066,
          "velocity": 0.31496062992125984,
          "duration": 0.015225149414064276
        },
        {
          "name": "D2",
          "midi": 38,
          "time": 78.30709575000066,
          "velocity": 0.47244094488188976,
          "duration": 0.015686517578131998
        },
        {
          "name": "G3",
          "midi": 55,
          "time": 78.30709575000066,
          "velocity": 0.5511811023622047,
          "duration": 0.015686517578131998
        },
        {
          "name": "G#2",
          "midi": 44,
          "time": 78.30709575000066,
          "velocity": 0.3937007874015748,
          "duration": 0.015225149414064276
        },
        {
          "name": "E2",
          "midi": 40,
          "time": 78.30709575000066,
          "velocity": 0.47244094488188976,
          "duration": 0.015686517578131998
        },
        {
          "name": "F#3",
          "midi": 54,
          "time": 78.42520600000066,
          "velocity": 0.47244094488188976,
          "duration": 0.015225149414064276
        },
        {
          "name": "G#2",
          "midi": 44,
          "time": 78.42520600000066,
          "velocity": 0.47244094488188976,
          "duration": 0.015686517578131998
        },
        {
          "name": "F#3",
          "midi": 54,
          "time": 78.54331625000066,
          "velocity": 0.31496062992125984,
          "duration": 0.015225149414064276
        },
        {
          "name": "G#2",
          "midi": 44,
          "time": 78.54331625000066,
          "velocity": 0.47244094488188976,
          "duration": 0.015686517578131998
        },
        {
          "name": "G3",
          "midi": 55,
          "time": 78.66142650000066,
          "velocity": 0.5511811023622047,
          "duration": 0.015686517578131998
        },
        {
          "name": "G#2",
          "midi": 44,
          "time": 78.66142650000066,
          "velocity": 0.47244094488188976,
          "duration": 0.015225149414064276
        },
        {
          "name": "F#3",
          "midi": 54,
          "time": 78.66142650000066,
          "velocity": 0.47244094488188976,
          "duration": 0.015225149414064276
        },
        {
          "name": "C2",
          "midi": 36,
          "time": 78.66142650000066,
          "velocity": 0.5511811023622047,
          "duration": 0.015686517578131998
        },
        {
          "name": "E2",
          "midi": 40,
          "time": 78.66142650000066,
          "velocity": 0.47244094488188976,
          "duration": 0.015686517578131998
        },
        {
          "name": "F#3",
          "midi": 54,
          "time": 78.77953675000066,
          "velocity": 0.31496062992125984,
          "duration": 0.015225149414064276
        },
        {
          "name": "G#2",
          "midi": 44,
          "time": 78.77953675000066,
          "velocity": 0.3937007874015748,
          "duration": 0.015225149414064276
        },
        {
          "name": "D2",
          "midi": 38,
          "time": 78.89764700000066,
          "velocity": 0.47244094488188976,
          "duration": 0.015686517578131998
        },
        {
          "name": "G#2",
          "midi": 44,
          "time": 78.89764700000066,
          "velocity": 0.47244094488188976,
          "duration": 0.015225149414064276
        },
        {
          "name": "F#3",
          "midi": 54,
          "time": 78.89764700000066,
          "velocity": 0.47244094488188976,
          "duration": 0.015225149414064276
        },
        {
          "name": "D4",
          "midi": 62,
          "time": 78.89764700000066,
          "velocity": 0.3937007874015748,
          "duration": 0.015686517578131998
        },
        {
          "name": "E2",
          "midi": 40,
          "time": 78.89764700000066,
          "velocity": 0.47244094488188976,
          "duration": 0.015686517578131998
        },
        {
          "name": "D2",
          "midi": 38,
          "time": 79.01575725000066,
          "velocity": 0.47244094488188976,
          "duration": 0.015686517578131998
        },
        {
          "name": "G#2",
          "midi": 44,
          "time": 79.01575725000066,
          "velocity": 0.3937007874015748,
          "duration": 0.015225149414064276
        },
        {
          "name": "F#3",
          "midi": 54,
          "time": 79.01575725000066,
          "velocity": 0.31496062992125984,
          "duration": 0.015225149414064276
        },
        {
          "name": "D4",
          "midi": 62,
          "time": 79.01575725000066,
          "velocity": 0.3937007874015748,
          "duration": 0.015686517578131998
        },
        {
          "name": "E2",
          "midi": 40,
          "time": 79.01575725000066,
          "velocity": 0.47244094488188976,
          "duration": 0.015686517578131998
        },
        {
          "name": "D2",
          "midi": 38,
          "time": 79.13386750000066,
          "velocity": 0.47244094488188976,
          "duration": 0.015686517578131998
        },
        {
          "name": "G#2",
          "midi": 44,
          "time": 79.13386750000066,
          "velocity": 0.47244094488188976,
          "duration": 0.015225149414064276
        },
        {
          "name": "F#3",
          "midi": 54,
          "time": 79.13386750000066,
          "velocity": 0.47244094488188976,
          "duration": 0.015225149414064276
        },
        {
          "name": "D4",
          "midi": 62,
          "time": 79.13386750000066,
          "velocity": 0.3937007874015748,
          "duration": 0.015686517578131998
        },
        {
          "name": "E2",
          "midi": 40,
          "time": 79.13386750000066,
          "velocity": 0.47244094488188976,
          "duration": 0.015686517578131998
        },
        {
          "name": "D2",
          "midi": 38,
          "time": 79.25197775000066,
          "velocity": 0.47244094488188976,
          "duration": 0.015686517578131998
        },
        {
          "name": "G#2",
          "midi": 44,
          "time": 79.25197775000066,
          "velocity": 0.3937007874015748,
          "duration": 0.015225149414064276
        },
        {
          "name": "F#3",
          "midi": 54,
          "time": 79.25197775000066,
          "velocity": 0.31496062992125984,
          "duration": 0.015225149414064276
        },
        {
          "name": "D4",
          "midi": 62,
          "time": 79.25197775000066,
          "velocity": 0.3937007874015748,
          "duration": 0.015686517578131998
        },
        {
          "name": "E2",
          "midi": 40,
          "time": 79.25197775000066,
          "velocity": 0.47244094488188976,
          "duration": 0.015686517578131998
        },
        {
          "name": "C2",
          "midi": 36,
          "time": 79.37008800000066,
          "velocity": 0.5511811023622047,
          "duration": 0.015686517578131998
        },
        {
          "name": "E2",
          "midi": 40,
          "time": 79.37008800000066,
          "velocity": 0.47244094488188976,
          "duration": 0.015686517578131998
        },
        {
          "name": "F#3",
          "midi": 54,
          "time": 79.37008800000066,
          "velocity": 0.47244094488188976,
          "duration": 0.015225149414064276
        },
        {
          "name": "G#2",
          "midi": 44,
          "time": 79.37008800000066,
          "velocity": 0.3937007874015748,
          "duration": 0.015225149414064276
        },
        {
          "name": "G#2",
          "midi": 44,
          "time": 79.48819825000066,
          "velocity": 0.3937007874015748,
          "duration": 0.015225149414064276
        },
        {
          "name": "C#2",
          "midi": 37,
          "time": 79.48819825000066,
          "velocity": 0.31496062992125984,
          "duration": 0.015686517578131998
        },
        {
          "name": "F#3",
          "midi": 54,
          "time": 79.48819825000066,
          "velocity": 0.31496062992125984,
          "duration": 0.015225149414064276
        },
        {
          "name": "F#3",
          "midi": 54,
          "time": 79.60630850000067,
          "velocity": 0.47244094488188976,
          "duration": 0.015225149414064276
        },
        {
          "name": "G#2",
          "midi": 44,
          "time": 79.60630850000067,
          "velocity": 0.47244094488188976,
          "duration": 0.015686517578131998
        },
        {
          "name": "A3",
          "midi": 57,
          "time": 79.72441875000067,
          "velocity": 0.5511811023622047,
          "duration": 0.015686517578131998
        },
        {
          "name": "D4",
          "midi": 62,
          "time": 79.72441875000067,
          "velocity": 0.3937007874015748,
          "duration": 0.015686517578131998
        },
        {
          "name": "F#3",
          "midi": 54,
          "time": 79.72441875000067,
          "velocity": 0.31496062992125984,
          "duration": 0.015225149414064276
        },
        {
          "name": "C2",
          "midi": 36,
          "time": 79.72441875000067,
          "velocity": 0.5511811023622047,
          "duration": 0.015686517578131998
        },
        {
          "name": "D2",
          "midi": 38,
          "time": 79.72441875000067,
          "velocity": 0.47244094488188976,
          "duration": 0.015686517578131998
        },
        {
          "name": "G#2",
          "midi": 44,
          "time": 79.72441875000067,
          "velocity": 0.47244094488188976,
          "duration": 0.015686517578131998
        },
        {
          "name": "E2",
          "midi": 40,
          "time": 79.72441875000067,
          "velocity": 0.47244094488188976,
          "duration": 0.015686517578131998
        },
        {
          "name": "F#3",
          "midi": 54,
          "time": 79.84252900000067,
          "velocity": 0.47244094488188976,
          "duration": 0.015225149414064276
        },
        {
          "name": "G#2",
          "midi": 44,
          "time": 79.84252900000067,
          "velocity": 0.47244094488188976,
          "duration": 0.015686517578131998
        },
        {
          "name": "F#3",
          "midi": 54,
          "time": 79.96063925000067,
          "velocity": 0.31496062992125984,
          "duration": 0.015225149414064276
        },
        {
          "name": "G#2",
          "midi": 44,
          "time": 79.96063925000067,
          "velocity": 0.47244094488188976,
          "duration": 0.015686517578131998
        },
        {
          "name": "E2",
          "midi": 40,
          "time": 80.07874950000067,
          "velocity": 0.47244094488188976,
          "duration": 0.015686517578131998
        },
        {
          "name": "F#3",
          "midi": 54,
          "time": 80.07874950000067,
          "velocity": 0.47244094488188976,
          "duration": 0.015225149414064276
        },
        {
          "name": "C2",
          "midi": 36,
          "time": 80.07874950000067,
          "velocity": 0.5511811023622047,
          "duration": 0.015686517578131998
        },
        {
          "name": "G#2",
          "midi": 44,
          "time": 80.07874950000067,
          "velocity": 0.3937007874015748,
          "duration": 0.015225149414064276
        },
        {
          "name": "F#3",
          "midi": 54,
          "time": 80.19685975000067,
          "velocity": 0.31496062992125984,
          "duration": 0.015225149414064276
        },
        {
          "name": "G#2",
          "midi": 44,
          "time": 80.19685975000067,
          "velocity": 0.47244094488188976,
          "duration": 0.015686517578131998
        },
        {
          "name": "D4",
          "midi": 62,
          "time": 80.31497000000067,
          "velocity": 0.3937007874015748,
          "duration": 0.015686517578131998
        },
        {
          "name": "D2",
          "midi": 38,
          "time": 80.31497000000067,
          "velocity": 0.47244094488188976,
          "duration": 0.015686517578131998
        },
        {
          "name": "F#3",
          "midi": 54,
          "time": 80.31497000000067,
          "velocity": 0.47244094488188976,
          "duration": 0.015225149414064276
        },
        {
          "name": "C2",
          "midi": 36,
          "time": 80.31497000000067,
          "velocity": 0.5511811023622047,
          "duration": 0.015686517578131998
        },
        {
          "name": "E2",
          "midi": 40,
          "time": 80.31497000000067,
          "velocity": 0.47244094488188976,
          "duration": 0.015686517578131998
        },
        {
          "name": "G#2",
          "midi": 44,
          "time": 80.31497000000067,
          "velocity": 0.47244094488188976,
          "duration": 0.015686517578131998
        },
        {
          "name": "G3",
          "midi": 55,
          "time": 80.31497000000067,
          "velocity": 0.5511811023622047,
          "duration": 0.015686517578131998
        },
        {
          "name": "G#2",
          "midi": 44,
          "time": 80.43308025000067,
          "velocity": 0.47244094488188976,
          "duration": 0.015686517578131998
        },
        {
          "name": "A2",
          "midi": 45,
          "time": 80.43308025000067,
          "velocity": 0.3937007874015748,
          "duration": 0.015686517578131998
        },
        {
          "name": "F#3",
          "midi": 54,
          "time": 80.43308025000067,
          "velocity": 0.31496062992125984,
          "duration": 0.015225149414064276
        },
        {
          "name": "D4",
          "midi": 62,
          "time": 80.55119050000067,
          "velocity": 0.3937007874015748,
          "duration": 0.015686517578131998
        },
        {
          "name": "D2",
          "midi": 38,
          "time": 80.55119050000067,
          "velocity": 0.47244094488188976,
          "duration": 0.015686517578131998
        },
        {
          "name": "F#3",
          "midi": 54,
          "time": 80.55119050000067,
          "velocity": 0.47244094488188976,
          "duration": 0.015225149414064276
        },
        {
          "name": "C2",
          "midi": 36,
          "time": 80.55119050000067,
          "velocity": 0.5511811023622047,
          "duration": 0.015686517578131998
        },
        {
          "name": "E2",
          "midi": 40,
          "time": 80.55119050000067,
          "velocity": 0.47244094488188976,
          "duration": 0.015686517578131998
        },
        {
          "name": "G#2",
          "midi": 44,
          "time": 80.55119050000067,
          "velocity": 0.47244094488188976,
          "duration": 0.015686517578131998
        },
        {
          "name": "G3",
          "midi": 55,
          "time": 80.55119050000067,
          "velocity": 0.5511811023622047,
          "duration": 0.015686517578131998
        },
        {
          "name": "G#2",
          "midi": 44,
          "time": 80.66930075000067,
          "velocity": 0.47244094488188976,
          "duration": 0.015686517578131998
        },
        {
          "name": "A2",
          "midi": 45,
          "time": 80.66930075000067,
          "velocity": 0.3937007874015748,
          "duration": 0.015686517578131998
        },
        {
          "name": "F#3",
          "midi": 54,
          "time": 80.66930075000067,
          "velocity": 0.31496062992125984,
          "duration": 0.015225149414064276
        },
        {
          "name": "E2",
          "midi": 40,
          "time": 80.78741100000067,
          "velocity": 0.47244094488188976,
          "duration": 0.015686517578131998
        },
        {
          "name": "G#2",
          "midi": 44,
          "time": 80.78741100000067,
          "velocity": 0.3937007874015748,
          "duration": 0.015225149414064276
        },
        {
          "name": "F#3",
          "midi": 54,
          "time": 80.78741100000067,
          "velocity": 0.47244094488188976,
          "duration": 0.015225149414064276
        },
        {
          "name": "A3",
          "midi": 57,
          "time": 80.78741100000067,
          "velocity": 0.5511811023622047,
          "duration": 0.015686517578131998
        },
        {
          "name": "C2",
          "midi": 36,
          "time": 80.78741100000067,
          "velocity": 0.5511811023622047,
          "duration": 0.015686517578131998
        },
        {
          "name": "F#3",
          "midi": 54,
          "time": 80.90552125000067,
          "velocity": 0.31496062992125984,
          "duration": 0.015225149414064276
        },
        {
          "name": "G#2",
          "midi": 44,
          "time": 80.90552125000067,
          "velocity": 0.47244094488188976,
          "duration": 0.015686517578131998
        },
        {
          "name": "F#3",
          "midi": 54,
          "time": 81.02363150000068,
          "velocity": 0.47244094488188976,
          "duration": 0.015225149414064276
        },
        {
          "name": "G#2",
          "midi": 44,
          "time": 81.02363150000068,
          "velocity": 0.47244094488188976,
          "duration": 0.015686517578131998
        },
        {
          "name": "C2",
          "midi": 36,
          "time": 81.14174175000068,
          "velocity": 0.5511811023622047,
          "duration": 0.015686517578131998
        },
        {
          "name": "D4",
          "midi": 62,
          "time": 81.14174175000068,
          "velocity": 0.3937007874015748,
          "duration": 0.015686517578131998
        },
        {
          "name": "F#3",
          "midi": 54,
          "time": 81.14174175000068,
          "velocity": 0.31496062992125984,
          "duration": 0.015225149414064276
        },
        {
          "name": "D2",
          "midi": 38,
          "time": 81.14174175000068,
          "velocity": 0.47244094488188976,
          "duration": 0.015686517578131998
        },
        {
          "name": "G3",
          "midi": 55,
          "time": 81.14174175000068,
          "velocity": 0.5511811023622047,
          "duration": 0.015686517578131998
        },
        {
          "name": "G#2",
          "midi": 44,
          "time": 81.14174175000068,
          "velocity": 0.3937007874015748,
          "duration": 0.015225149414064276
        },
        {
          "name": "E2",
          "midi": 40,
          "time": 81.14174175000068,
          "velocity": 0.47244094488188976,
          "duration": 0.015686517578131998
        },
        {
          "name": "F#3",
          "midi": 54,
          "time": 81.25985200000068,
          "velocity": 0.47244094488188976,
          "duration": 0.015225149414064276
        },
        {
          "name": "G#2",
          "midi": 44,
          "time": 81.25985200000068,
          "velocity": 0.47244094488188976,
          "duration": 0.015686517578131998
        },
        {
          "name": "F#3",
          "midi": 54,
          "time": 81.37796225000068,
          "velocity": 0.31496062992125984,
          "duration": 0.015225149414064276
        },
        {
          "name": "G#2",
          "midi": 44,
          "time": 81.37796225000068,
          "velocity": 0.47244094488188976,
          "duration": 0.015686517578131998
        },
        {
          "name": "E2",
          "midi": 40,
          "time": 81.49607250000068,
          "velocity": 0.47244094488188976,
          "duration": 0.015686517578131998
        },
        {
          "name": "G#2",
          "midi": 44,
          "time": 81.49607250000068,
          "velocity": 0.47244094488188976,
          "duration": 0.015225149414064276
        },
        {
          "name": "F#3",
          "midi": 54,
          "time": 81.49607250000068,
          "velocity": 0.47244094488188976,
          "duration": 0.015225149414064276
        },
        {
          "name": "G3",
          "midi": 55,
          "time": 81.49607250000068,
          "velocity": 0.5511811023622047,
          "duration": 0.015686517578131998
        },
        {
          "name": "C2",
          "midi": 36,
          "time": 81.49607250000068,
          "velocity": 0.5511811023622047,
          "duration": 0.015686517578131998
        },
        {
          "name": "F#3",
          "midi": 54,
          "time": 81.61418275000068,
          "velocity": 0.31496062992125984,
          "duration": 0.015225149414064276
        },
        {
          "name": "G#2",
          "midi": 44,
          "time": 81.61418275000068,
          "velocity": 0.3937007874015748,
          "duration": 0.015225149414064276
        },
        {
          "name": "D2",
          "midi": 38,
          "time": 81.73229300000068,
          "velocity": 0.47244094488188976,
          "duration": 0.015686517578131998
        },
        {
          "name": "G#2",
          "midi": 44,
          "time": 81.73229300000068,
          "velocity": 0.47244094488188976,
          "duration": 0.015225149414064276
        },
        {
          "name": "F#3",
          "midi": 54,
          "time": 81.73229300000068,
          "velocity": 0.47244094488188976,
          "duration": 0.015225149414064276
        },
        {
          "name": "D4",
          "midi": 62,
          "time": 81.73229300000068,
          "velocity": 0.3937007874015748,
          "duration": 0.015686517578131998
        },
        {
          "name": "E2",
          "midi": 40,
          "time": 81.73229300000068,
          "velocity": 0.47244094488188976,
          "duration": 0.015686517578131998
        },
        {
          "name": "D2",
          "midi": 38,
          "time": 81.85040325000068,
          "velocity": 0.47244094488188976,
          "duration": 0.015686517578131998
        },
        {
          "name": "G#2",
          "midi": 44,
          "time": 81.85040325000068,
          "velocity": 0.3937007874015748,
          "duration": 0.015225149414064276
        },
        {
          "name": "F#3",
          "midi": 54,
          "time": 81.85040325000068,
          "velocity": 0.31496062992125984,
          "duration": 0.015225149414064276
        },
        {
          "name": "D4",
          "midi": 62,
          "time": 81.85040325000068,
          "velocity": 0.3937007874015748,
          "duration": 0.015686517578131998
        },
        {
          "name": "E2",
          "midi": 40,
          "time": 81.85040325000068,
          "velocity": 0.47244094488188976,
          "duration": 0.015686517578131998
        },
        {
          "name": "D2",
          "midi": 38,
          "time": 81.96851350000068,
          "velocity": 0.47244094488188976,
          "duration": 0.015686517578131998
        },
        {
          "name": "G#2",
          "midi": 44,
          "time": 81.96851350000068,
          "velocity": 0.47244094488188976,
          "duration": 0.015225149414064276
        },
        {
          "name": "F#3",
          "midi": 54,
          "time": 81.96851350000068,
          "velocity": 0.47244094488188976,
          "duration": 0.015225149414064276
        },
        {
          "name": "D4",
          "midi": 62,
          "time": 81.96851350000068,
          "velocity": 0.3937007874015748,
          "duration": 0.015686517578131998
        },
        {
          "name": "E2",
          "midi": 40,
          "time": 81.96851350000068,
          "velocity": 0.47244094488188976,
          "duration": 0.015686517578131998
        },
        {
          "name": "D2",
          "midi": 38,
          "time": 82.08662375000068,
          "velocity": 0.47244094488188976,
          "duration": 0.015686517578131998
        },
        {
          "name": "G#2",
          "midi": 44,
          "time": 82.08662375000068,
          "velocity": 0.3937007874015748,
          "duration": 0.015225149414064276
        },
        {
          "name": "F#3",
          "midi": 54,
          "time": 82.08662375000068,
          "velocity": 0.31496062992125984,
          "duration": 0.015225149414064276
        },
        {
          "name": "D4",
          "midi": 62,
          "time": 82.08662375000068,
          "velocity": 0.3937007874015748,
          "duration": 0.015686517578131998
        },
        {
          "name": "E2",
          "midi": 40,
          "time": 82.08662375000068,
          "velocity": 0.47244094488188976,
          "duration": 0.015686517578131998
        },
        {
          "name": "C2",
          "midi": 36,
          "time": 82.20473400000068,
          "velocity": 0.5511811023622047,
          "duration": 0.015686517578131998
        },
        {
          "name": "F#3",
          "midi": 54,
          "time": 82.20473400000068,
          "velocity": 0.47244094488188976,
          "duration": 0.015225149414064276
        },
        {
          "name": "E2",
          "midi": 40,
          "time": 82.20473400000068,
          "velocity": 0.47244094488188976,
          "duration": 0.015686517578131998
        },
        {
          "name": "G#2",
          "midi": 44,
          "time": 82.20473400000068,
          "velocity": 0.3937007874015748,
          "duration": 0.015225149414064276
        },
        {
          "name": "G#2",
          "midi": 44,
          "time": 82.32284425000068,
          "velocity": 0.3937007874015748,
          "duration": 0.015225149414064276
        },
        {
          "name": "C#2",
          "midi": 37,
          "time": 82.32284425000068,
          "velocity": 0.31496062992125984,
          "duration": 0.015686517578131998
        },
        {
          "name": "F#3",
          "midi": 54,
          "time": 82.32284425000068,
          "velocity": 0.31496062992125984,
          "duration": 0.015225149414064276
        },
        {
          "name": "F#3",
          "midi": 54,
          "time": 82.44095450000069,
          "velocity": 0.47244094488188976,
          "duration": 0.015225149414064276
        },
        {
          "name": "G#2",
          "midi": 44,
          "time": 82.44095450000069,
          "velocity": 0.47244094488188976,
          "duration": 0.015686517578131998
        },
        {
          "name": "E2",
          "midi": 40,
          "time": 82.55906475000069,
          "velocity": 0.47244094488188976,
          "duration": 0.015686517578131998
        },
        {
          "name": "A3",
          "midi": 57,
          "time": 82.55906475000069,
          "velocity": 0.5511811023622047,
          "duration": 0.015686517578131998
        },
        {
          "name": "D4",
          "midi": 62,
          "time": 82.55906475000069,
          "velocity": 0.3937007874015748,
          "duration": 0.015686517578131998
        },
        {
          "name": "F#3",
          "midi": 54,
          "time": 82.55906475000069,
          "velocity": 0.31496062992125984,
          "duration": 0.015225149414064276
        },
        {
          "name": "C2",
          "midi": 36,
          "time": 82.55906475000069,
          "velocity": 0.5511811023622047,
          "duration": 0.015686517578131998
        },
        {
          "name": "G#2",
          "midi": 44,
          "time": 82.55906475000069,
          "velocity": 0.47244094488188976,
          "duration": 0.015686517578131998
        },
        {
          "name": "D2",
          "midi": 38,
          "time": 82.55906475000069,
          "velocity": 0.47244094488188976,
          "duration": 0.015686517578131998
        },
        {
          "name": "F#3",
          "midi": 54,
          "time": 82.67717500000069,
          "velocity": 0.47244094488188976,
          "duration": 0.015225149414064276
        },
        {
          "name": "G#2",
          "midi": 44,
          "time": 82.67717500000069,
          "velocity": 0.47244094488188976,
          "duration": 0.015686517578131998
        },
        {
          "name": "F#3",
          "midi": 54,
          "time": 82.79528525000069,
          "velocity": 0.31496062992125984,
          "duration": 0.015225149414064276
        },
        {
          "name": "G#2",
          "midi": 44,
          "time": 82.79528525000069,
          "velocity": 0.47244094488188976,
          "duration": 0.015686517578131998
        },
        {
          "name": "C2",
          "midi": 36,
          "time": 82.91339550000069,
          "velocity": 0.5511811023622047,
          "duration": 0.015686517578131998
        },
        {
          "name": "F#3",
          "midi": 54,
          "time": 82.91339550000069,
          "velocity": 0.47244094488188976,
          "duration": 0.015225149414064276
        },
        {
          "name": "E2",
          "midi": 40,
          "time": 82.91339550000069,
          "velocity": 0.47244094488188976,
          "duration": 0.015686517578131998
        },
        {
          "name": "G#2",
          "midi": 44,
          "time": 82.91339550000069,
          "velocity": 0.3937007874015748,
          "duration": 0.015225149414064276
        },
        {
          "name": "F#3",
          "midi": 54,
          "time": 83.03150575000069,
          "velocity": 0.31496062992125984,
          "duration": 0.015225149414064276
        },
        {
          "name": "G#2",
          "midi": 44,
          "time": 83.03150575000069,
          "velocity": 0.47244094488188976,
          "duration": 0.015686517578131998
        },
        {
          "name": "G3",
          "midi": 55,
          "time": 83.14961600000069,
          "velocity": 0.5511811023622047,
          "duration": 0.015686517578131998
        },
        {
          "name": "D4",
          "midi": 62,
          "time": 83.14961600000069,
          "velocity": 0.3937007874015748,
          "duration": 0.015686517578131998
        },
        {
          "name": "F#3",
          "midi": 54,
          "time": 83.14961600000069,
          "velocity": 0.47244094488188976,
          "duration": 0.015225149414064276
        },
        {
          "name": "D2",
          "midi": 38,
          "time": 83.14961600000069,
          "velocity": 0.47244094488188976,
          "duration": 0.015686517578131998
        },
        {
          "name": "C2",
          "midi": 36,
          "time": 83.14961600000069,
          "velocity": 0.5511811023622047,
          "duration": 0.015686517578131998
        },
        {
          "name": "G#2",
          "midi": 44,
          "time": 83.14961600000069,
          "velocity": 0.47244094488188976,
          "duration": 0.015686517578131998
        },
        {
          "name": "E2",
          "midi": 40,
          "time": 83.14961600000069,
          "velocity": 0.47244094488188976,
          "duration": 0.015686517578131998
        },
        {
          "name": "G#2",
          "midi": 44,
          "time": 83.26772625000069,
          "velocity": 0.47244094488188976,
          "duration": 0.015686517578131998
        },
        {
          "name": "A2",
          "midi": 45,
          "time": 83.26772625000069,
          "velocity": 0.3937007874015748,
          "duration": 0.015686517578131998
        },
        {
          "name": "F#3",
          "midi": 54,
          "time": 83.26772625000069,
          "velocity": 0.31496062992125984,
          "duration": 0.015225149414064276
        },
        {
          "name": "G3",
          "midi": 55,
          "time": 83.38583650000069,
          "velocity": 0.5511811023622047,
          "duration": 0.015686517578131998
        },
        {
          "name": "D4",
          "midi": 62,
          "time": 83.38583650000069,
          "velocity": 0.3937007874015748,
          "duration": 0.015686517578131998
        },
        {
          "name": "F#3",
          "midi": 54,
          "time": 83.38583650000069,
          "velocity": 0.47244094488188976,
          "duration": 0.015225149414064276
        },
        {
          "name": "D2",
          "midi": 38,
          "time": 83.38583650000069,
          "velocity": 0.47244094488188976,
          "duration": 0.015686517578131998
        },
        {
          "name": "C2",
          "midi": 36,
          "time": 83.38583650000069,
          "velocity": 0.5511811023622047,
          "duration": 0.015686517578131998
        },
        {
          "name": "G#2",
          "midi": 44,
          "time": 83.38583650000069,
          "velocity": 0.47244094488188976,
          "duration": 0.015686517578131998
        },
        {
          "name": "E2",
          "midi": 40,
          "time": 83.38583650000069,
          "velocity": 0.47244094488188976,
          "duration": 0.015686517578131998
        },
        {
          "name": "G#2",
          "midi": 44,
          "time": 83.5039467500007,
          "velocity": 0.47244094488188976,
          "duration": 0.015686517578131998
        },
        {
          "name": "A2",
          "midi": 45,
          "time": 83.5039467500007,
          "velocity": 0.3937007874015748,
          "duration": 0.015686517578131998
        },
        {
          "name": "F#3",
          "midi": 54,
          "time": 83.5039467500007,
          "velocity": 0.31496062992125984,
          "duration": 0.015225149414064276
        },
        {
          "name": "E2",
          "midi": 40,
          "time": 83.6220570000007,
          "velocity": 0.6299212598425197,
          "duration": 0.015225149414064276
        },
        {
          "name": "G#2",
          "midi": 44,
          "time": 83.6220570000007,
          "velocity": 0.3937007874015748,
          "duration": 0.015225149414064276
        },
        {
          "name": "D4",
          "midi": 62,
          "time": 83.6220570000007,
          "velocity": 0.6299212598425197,
          "duration": 0.015225149414064276
        },
        {
          "name": "F#3",
          "midi": 54,
          "time": 83.6220570000007,
          "velocity": 0.47244094488188976,
          "duration": 0.015225149414064276
        },
        {
          "name": "E2",
          "midi": 40,
          "time": 83.7401672500007,
          "velocity": 0.3937007874015748,
          "duration": 0.015225149414064276
        },
        {
          "name": "G#2",
          "midi": 44,
          "time": 83.7401672500007,
          "velocity": 0.31496062992125984,
          "duration": 0.015225149414064276
        },
        {
          "name": "D4",
          "midi": 62,
          "time": 83.7401672500007,
          "velocity": 0.3937007874015748,
          "duration": 0.015225149414064276
        },
        {
          "name": "F#3",
          "midi": 54,
          "time": 83.7401672500007,
          "velocity": 0.31496062992125984,
          "duration": 0.015225149414064276
        },
        {
          "name": "D4",
          "midi": 62,
          "time": 83.78353585742258,
          "velocity": 0.3937007874015748,
          "duration": 0.015225149414064276
        },
        {
          "name": "E2",
          "midi": 40,
          "time": 83.78353585742258,
          "velocity": 0.3937007874015748,
          "duration": 0.015225149414064276
        },
        {
          "name": "D4",
          "midi": 62,
          "time": 83.82690446484446,
          "velocity": 0.3937007874015748,
          "duration": 0.015225149414064276
        },
        {
          "name": "E2",
          "midi": 40,
          "time": 83.82690446484446,
          "velocity": 0.3937007874015748,
          "duration": 0.015225149414064276
        },
        {
          "name": "E2",
          "midi": 40,
          "time": 83.85827750000071,
          "velocity": 0.6299212598425197,
          "duration": 0.015225149414064276
        },
        {
          "name": "G#2",
          "midi": 44,
          "time": 83.85827750000071,
          "velocity": 0.3937007874015748,
          "duration": 0.015225149414064276
        },
        {
          "name": "D4",
          "midi": 62,
          "time": 83.85827750000071,
          "velocity": 0.6299212598425197,
          "duration": 0.015225149414064276
        },
        {
          "name": "F#3",
          "midi": 54,
          "time": 83.85827750000071,
          "velocity": 0.47244094488188976,
          "duration": 0.015225149414064276
        },
        {
          "name": "E2",
          "midi": 40,
          "time": 83.97638775000071,
          "velocity": 0.6299212598425197,
          "duration": 0.015225149414064276
        },
        {
          "name": "G#2",
          "midi": 44,
          "time": 83.97638775000071,
          "velocity": 0.31496062992125984,
          "duration": 0.015225149414064276
        },
        {
          "name": "D4",
          "midi": 62,
          "time": 83.97638775000071,
          "velocity": 0.6299212598425197,
          "duration": 0.015225149414064276
        },
        {
          "name": "F#3",
          "midi": 54,
          "time": 83.97638775000071,
          "velocity": 0.31496062992125984,
          "duration": 0.015225149414064276
        },
        {
          "name": "F#3",
          "midi": 54,
          "time": 84.09449800000071,
          "velocity": 0.47244094488188976,
          "duration": 0.015225149414064276
        },
        {
          "name": "G#2",
          "midi": 44,
          "time": 84.09449800000071,
          "velocity": 0.3937007874015748,
          "duration": 0.015225149414064276
        },
        {
          "name": "E2",
          "midi": 40,
          "time": 84.21260825000071,
          "velocity": 0.6299212598425197,
          "duration": 0.015225149414064276
        },
        {
          "name": "G#2",
          "midi": 44,
          "time": 84.21260825000071,
          "velocity": 0.31496062992125984,
          "duration": 0.015225149414064276
        },
        {
          "name": "D4",
          "midi": 62,
          "time": 84.21260825000071,
          "velocity": 0.6299212598425197,
          "duration": 0.015225149414064276
        },
        {
          "name": "F#3",
          "midi": 54,
          "time": 84.21260825000071,
          "velocity": 0.31496062992125984,
          "duration": 0.015225149414064276
        },
        {
          "name": "E2",
          "midi": 40,
          "time": 84.33071850000071,
          "velocity": 0.6299212598425197,
          "duration": 0.015225149414064276
        },
        {
          "name": "G#2",
          "midi": 44,
          "time": 84.33071850000071,
          "velocity": 0.3937007874015748,
          "duration": 0.015225149414064276
        },
        {
          "name": "D4",
          "midi": 62,
          "time": 84.33071850000071,
          "velocity": 0.6299212598425197,
          "duration": 0.015225149414064276
        },
        {
          "name": "F#3",
          "midi": 54,
          "time": 84.33071850000071,
          "velocity": 0.47244094488188976,
          "duration": 0.015225149414064276
        },
        {
          "name": "E2",
          "midi": 40,
          "time": 84.44882875000071,
          "velocity": 0.3937007874015748,
          "duration": 0.015225149414064276
        },
        {
          "name": "G#2",
          "midi": 44,
          "time": 84.44882875000071,
          "velocity": 0.31496062992125984,
          "duration": 0.015225149414064276
        },
        {
          "name": "D4",
          "midi": 62,
          "time": 84.44882875000071,
          "velocity": 0.3937007874015748,
          "duration": 0.015225149414064276
        },
        {
          "name": "F#3",
          "midi": 54,
          "time": 84.44882875000071,
          "velocity": 0.31496062992125984,
          "duration": 0.015225149414064276
        },
        {
          "name": "D4",
          "midi": 62,
          "time": 84.50511566601634,
          "velocity": 0.3937007874015748,
          "duration": 0.015225149414064276
        },
        {
          "name": "E2",
          "midi": 40,
          "time": 84.50511566601634,
          "velocity": 0.3937007874015748,
          "duration": 0.015225149414064276
        },
        {
          "name": "D4",
          "midi": 62,
          "time": 84.54387059179759,
          "velocity": 0.3937007874015748,
          "duration": 0.015225149414064276
        },
        {
          "name": "E2",
          "midi": 40,
          "time": 84.54387059179759,
          "velocity": 0.3937007874015748,
          "duration": 0.015225149414064276
        },
        {
          "name": "E2",
          "midi": 40,
          "time": 84.56693900000072,
          "velocity": 0.6299212598425197,
          "duration": 0.015225149414064276
        },
        {
          "name": "G#2",
          "midi": 44,
          "time": 84.56693900000072,
          "velocity": 0.3937007874015748,
          "duration": 0.015225149414064276
        },
        {
          "name": "D4",
          "midi": 62,
          "time": 84.56693900000072,
          "velocity": 0.6299212598425197,
          "duration": 0.015225149414064276
        },
        {
          "name": "F#3",
          "midi": 54,
          "time": 84.56693900000072,
          "velocity": 0.47244094488188976,
          "duration": 0.015225149414064276
        },
        {
          "name": "F#3",
          "midi": 54,
          "time": 84.68504925000072,
          "velocity": 0.31496062992125984,
          "duration": 0.015225149414064276
        },
        {
          "name": "G#2",
          "midi": 44,
          "time": 84.68504925000072,
          "velocity": 0.31496062992125984,
          "duration": 0.015225149414064276
        },
        {
          "name": "E2",
          "midi": 40,
          "time": 84.80315950000072,
          "velocity": 0.6299212598425197,
          "duration": 0.015225149414064276
        },
        {
          "name": "G#2",
          "midi": 44,
          "time": 84.80315950000072,
          "velocity": 0.3937007874015748,
          "duration": 0.015225149414064276
        },
        {
          "name": "D4",
          "midi": 62,
          "time": 84.80315950000072,
          "velocity": 0.6299212598425197,
          "duration": 0.015225149414064276
        },
        {
          "name": "F#3",
          "midi": 54,
          "time": 84.80315950000072,
          "velocity": 0.47244094488188976,
          "duration": 0.015225149414064276
        },
        {
          "name": "F#3",
          "midi": 54,
          "time": 84.92126975000072,
          "velocity": 0.31496062992125984,
          "duration": 0.015225149414064276
        },
        {
          "name": "G#2",
          "midi": 44,
          "time": 84.92126975000072,
          "velocity": 0.31496062992125984,
          "duration": 0.015225149414064276
        },
        {
          "name": "E2",
          "midi": 40,
          "time": 85.03938000000072,
          "velocity": 0.6299212598425197,
          "duration": 0.015225149414064276
        },
        {
          "name": "G#2",
          "midi": 44,
          "time": 85.03938000000072,
          "velocity": 0.3937007874015748,
          "duration": 0.015225149414064276
        },
        {
          "name": "D4",
          "midi": 62,
          "time": 85.03938000000072,
          "velocity": 0.6299212598425197,
          "duration": 0.015225149414064276
        },
        {
          "name": "F#3",
          "midi": 54,
          "time": 85.03938000000072,
          "velocity": 0.47244094488188976,
          "duration": 0.015225149414064276
        },
        {
          "name": "E2",
          "midi": 40,
          "time": 85.15749025000072,
          "velocity": 0.3937007874015748,
          "duration": 0.015225149414064276
        },
        {
          "name": "G#2",
          "midi": 44,
          "time": 85.15749025000072,
          "velocity": 0.31496062992125984,
          "duration": 0.015225149414064276
        },
        {
          "name": "D4",
          "midi": 62,
          "time": 85.15749025000072,
          "velocity": 0.3937007874015748,
          "duration": 0.015225149414064276
        },
        {
          "name": "F#3",
          "midi": 54,
          "time": 85.15749025000072,
          "velocity": 0.31496062992125984,
          "duration": 0.015225149414064276
        },
        {
          "name": "D4",
          "midi": 62,
          "time": 85.2008588574226,
          "velocity": 0.3937007874015748,
          "duration": 0.015225149414064276
        },
        {
          "name": "E2",
          "midi": 40,
          "time": 85.2008588574226,
          "velocity": 0.3937007874015748,
          "duration": 0.015225149414064276
        },
        {
          "name": "D4",
          "midi": 62,
          "time": 85.24422746484449,
          "velocity": 0.3937007874015748,
          "duration": 0.015225149414064276
        },
        {
          "name": "E2",
          "midi": 40,
          "time": 85.24422746484449,
          "velocity": 0.3937007874015748,
          "duration": 0.015225149414064276
        },
        {
          "name": "E2",
          "midi": 40,
          "time": 85.27560050000073,
          "velocity": 0.6299212598425197,
          "duration": 0.015225149414064276
        },
        {
          "name": "G#2",
          "midi": 44,
          "time": 85.27560050000073,
          "velocity": 0.3937007874015748,
          "duration": 0.015225149414064276
        },
        {
          "name": "D4",
          "midi": 62,
          "time": 85.27560050000073,
          "velocity": 0.6299212598425197,
          "duration": 0.015225149414064276
        },
        {
          "name": "F#3",
          "midi": 54,
          "time": 85.27560050000073,
          "velocity": 0.47244094488188976,
          "duration": 0.015225149414064276
        },
        {
          "name": "E2",
          "midi": 40,
          "time": 85.39371075000074,
          "velocity": 0.6299212598425197,
          "duration": 0.015225149414064276
        },
        {
          "name": "G#2",
          "midi": 44,
          "time": 85.39371075000074,
          "velocity": 0.31496062992125984,
          "duration": 0.015225149414064276
        },
        {
          "name": "D4",
          "midi": 62,
          "time": 85.39371075000074,
          "velocity": 0.6299212598425197,
          "duration": 0.015225149414064276
        },
        {
          "name": "F#3",
          "midi": 54,
          "time": 85.39371075000074,
          "velocity": 0.31496062992125984,
          "duration": 0.015225149414064276
        },
        {
          "name": "F#3",
          "midi": 54,
          "time": 85.51182100000074,
          "velocity": 0.47244094488188976,
          "duration": 0.015225149414064276
        },
        {
          "name": "G#2",
          "midi": 44,
          "time": 85.51182100000074,
          "velocity": 0.3937007874015748,
          "duration": 0.015225149414064276
        },
        {
          "name": "E2",
          "midi": 40,
          "time": 85.62993125000074,
          "velocity": 0.6299212598425197,
          "duration": 0.015225149414064276
        },
        {
          "name": "G#2",
          "midi": 44,
          "time": 85.62993125000074,
          "velocity": 0.31496062992125984,
          "duration": 0.015225149414064276
        },
        {
          "name": "D4",
          "midi": 62,
          "time": 85.62993125000074,
          "velocity": 0.6299212598425197,
          "duration": 0.015225149414064276
        },
        {
          "name": "F#3",
          "midi": 54,
          "time": 85.62993125000074,
          "velocity": 0.31496062992125984,
          "duration": 0.015225149414064276
        },
        {
          "name": "E2",
          "midi": 40,
          "time": 85.74804150000074,
          "velocity": 0.6299212598425197,
          "duration": 0.015225149414064276
        },
        {
          "name": "G#2",
          "midi": 44,
          "time": 85.74804150000074,
          "velocity": 0.3937007874015748,
          "duration": 0.015225149414064276
        },
        {
          "name": "D4",
          "midi": 62,
          "time": 85.74804150000074,
          "velocity": 0.6299212598425197,
          "duration": 0.015225149414064276
        },
        {
          "name": "F#3",
          "midi": 54,
          "time": 85.74804150000074,
          "velocity": 0.47244094488188976,
          "duration": 0.015225149414064276
        },
        {
          "name": "E2",
          "midi": 40,
          "time": 85.86615175000074,
          "velocity": 0.3937007874015748,
          "duration": 0.015225149414064276
        },
        {
          "name": "G#2",
          "midi": 44,
          "time": 85.86615175000074,
          "velocity": 0.31496062992125984,
          "duration": 0.015225149414064276
        },
        {
          "name": "D4",
          "midi": 62,
          "time": 85.86615175000074,
          "velocity": 0.3937007874015748,
          "duration": 0.015225149414064276
        },
        {
          "name": "F#3",
          "midi": 54,
          "time": 85.86615175000074,
          "velocity": 0.31496062992125984,
          "duration": 0.015225149414064276
        },
        {
          "name": "D4",
          "midi": 62,
          "time": 85.92243866601636,
          "velocity": 0.3937007874015748,
          "duration": 0.015225149414064276
        },
        {
          "name": "E2",
          "midi": 40,
          "time": 85.92243866601636,
          "velocity": 0.3937007874015748,
          "duration": 0.015225149414064276
        },
        {
          "name": "D4",
          "midi": 62,
          "time": 85.96119359179761,
          "velocity": 0.3937007874015748,
          "duration": 0.015225149414064276
        },
        {
          "name": "E2",
          "midi": 40,
          "time": 85.96119359179761,
          "velocity": 0.3937007874015748,
          "duration": 0.015225149414064276
        },
        {
          "name": "E2",
          "midi": 40,
          "time": 85.98426200000074,
          "velocity": 0.6299212598425197,
          "duration": 0.015225149414064276
        },
        {
          "name": "G#2",
          "midi": 44,
          "time": 85.98426200000074,
          "velocity": 0.3937007874015748,
          "duration": 0.015225149414064276
        },
        {
          "name": "D4",
          "midi": 62,
          "time": 85.98426200000074,
          "velocity": 0.6299212598425197,
          "duration": 0.015225149414064276
        },
        {
          "name": "F#3",
          "midi": 54,
          "time": 85.98426200000074,
          "velocity": 0.47244094488188976,
          "duration": 0.015225149414064276
        },
        {
          "name": "F#3",
          "midi": 54,
          "time": 86.10237225000074,
          "velocity": 0.31496062992125984,
          "duration": 0.015225149414064276
        },
        {
          "name": "G#2",
          "midi": 44,
          "time": 86.10237225000074,
          "velocity": 0.31496062992125984,
          "duration": 0.015225149414064276
        },
        {
          "name": "E2",
          "midi": 40,
          "time": 86.22048250000074,
          "velocity": 0.6299212598425197,
          "duration": 0.015225149414064276
        },
        {
          "name": "G#2",
          "midi": 44,
          "time": 86.22048250000074,
          "velocity": 0.3937007874015748,
          "duration": 0.015225149414064276
        },
        {
          "name": "D4",
          "midi": 62,
          "time": 86.22048250000074,
          "velocity": 0.6299212598425197,
          "duration": 0.015225149414064276
        },
        {
          "name": "F#3",
          "midi": 54,
          "time": 86.22048250000074,
          "velocity": 0.47244094488188976,
          "duration": 0.015225149414064276
        },
        {
          "name": "F#3",
          "midi": 54,
          "time": 86.33859275000074,
          "velocity": 0.31496062992125984,
          "duration": 0.015225149414064276
        },
        {
          "name": "G#2",
          "midi": 44,
          "time": 86.33859275000074,
          "velocity": 0.31496062992125984,
          "duration": 0.015225149414064276
        },
        {
          "name": "E2",
          "midi": 40,
          "time": 86.45670300000074,
          "velocity": 0.6299212598425197,
          "duration": 0.015225149414064276
        },
        {
          "name": "G#2",
          "midi": 44,
          "time": 86.45670300000074,
          "velocity": 0.3937007874015748,
          "duration": 0.015225149414064276
        },
        {
          "name": "D4",
          "midi": 62,
          "time": 86.45670300000074,
          "velocity": 0.6299212598425197,
          "duration": 0.015225149414064276
        },
        {
          "name": "F#3",
          "midi": 54,
          "time": 86.45670300000074,
          "velocity": 0.47244094488188976,
          "duration": 0.015225149414064276
        },
        {
          "name": "E2",
          "midi": 40,
          "time": 86.57481325000074,
          "velocity": 0.3937007874015748,
          "duration": 0.015225149414064276
        },
        {
          "name": "G#2",
          "midi": 44,
          "time": 86.57481325000074,
          "velocity": 0.31496062992125984,
          "duration": 0.015225149414064276
        },
        {
          "name": "D4",
          "midi": 62,
          "time": 86.57481325000074,
          "velocity": 0.3937007874015748,
          "duration": 0.015225149414064276
        },
        {
          "name": "F#3",
          "midi": 54,
          "time": 86.57481325000074,
          "velocity": 0.31496062992125984,
          "duration": 0.015225149414064276
        },
        {
          "name": "D4",
          "midi": 62,
          "time": 86.61818185742263,
          "velocity": 0.3937007874015748,
          "duration": 0.015225149414064276
        },
        {
          "name": "E2",
          "midi": 40,
          "time": 86.61818185742263,
          "velocity": 0.3937007874015748,
          "duration": 0.015225149414064276
        },
        {
          "name": "D4",
          "midi": 62,
          "time": 86.66155046484451,
          "velocity": 0.3937007874015748,
          "duration": 0.015225149414064276
        },
        {
          "name": "E2",
          "midi": 40,
          "time": 86.66155046484451,
          "velocity": 0.3937007874015748,
          "duration": 0.015225149414064276
        },
        {
          "name": "E2",
          "midi": 40,
          "time": 86.69292350000076,
          "velocity": 0.6299212598425197,
          "duration": 0.015225149414064276
        },
        {
          "name": "G#2",
          "midi": 44,
          "time": 86.69292350000076,
          "velocity": 0.3937007874015748,
          "duration": 0.015225149414064276
        },
        {
          "name": "D4",
          "midi": 62,
          "time": 86.69292350000076,
          "velocity": 0.6299212598425197,
          "duration": 0.015225149414064276
        },
        {
          "name": "F#3",
          "midi": 54,
          "time": 86.69292350000076,
          "velocity": 0.47244094488188976,
          "duration": 0.015225149414064276
        },
        {
          "name": "E2",
          "midi": 40,
          "time": 86.81103375000076,
          "velocity": 0.6299212598425197,
          "duration": 0.015225149414064276
        },
        {
          "name": "G#2",
          "midi": 44,
          "time": 86.81103375000076,
          "velocity": 0.31496062992125984,
          "duration": 0.015225149414064276
        },
        {
          "name": "D4",
          "midi": 62,
          "time": 86.81103375000076,
          "velocity": 0.6299212598425197,
          "duration": 0.015225149414064276
        },
        {
          "name": "F#3",
          "midi": 54,
          "time": 86.81103375000076,
          "velocity": 0.31496062992125984,
          "duration": 0.015225149414064276
        },
        {
          "name": "F#3",
          "midi": 54,
          "time": 86.92914400000076,
          "velocity": 0.47244094488188976,
          "duration": 0.015225149414064276
        },
        {
          "name": "G#2",
          "midi": 44,
          "time": 86.92914400000076,
          "velocity": 0.3937007874015748,
          "duration": 0.015225149414064276
        },
        {
          "name": "E2",
          "midi": 40,
          "time": 87.04725425000076,
          "velocity": 0.6299212598425197,
          "duration": 0.015225149414064276
        },
        {
          "name": "G#2",
          "midi": 44,
          "time": 87.04725425000076,
          "velocity": 0.31496062992125984,
          "duration": 0.015225149414064276
        },
        {
          "name": "D4",
          "midi": 62,
          "time": 87.04725425000076,
          "velocity": 0.6299212598425197,
          "duration": 0.015225149414064276
        },
        {
          "name": "F#3",
          "midi": 54,
          "time": 87.04725425000076,
          "velocity": 0.31496062992125984,
          "duration": 0.015225149414064276
        },
        {
          "name": "E2",
          "midi": 40,
          "time": 87.16536450000076,
          "velocity": 0.6299212598425197,
          "duration": 0.015225149414064276
        },
        {
          "name": "G#2",
          "midi": 44,
          "time": 87.16536450000076,
          "velocity": 0.3937007874015748,
          "duration": 0.015225149414064276
        },
        {
          "name": "D4",
          "midi": 62,
          "time": 87.16536450000076,
          "velocity": 0.6299212598425197,
          "duration": 0.015225149414064276
        },
        {
          "name": "F#3",
          "midi": 54,
          "time": 87.16536450000076,
          "velocity": 0.47244094488188976,
          "duration": 0.015225149414064276
        },
        {
          "name": "E2",
          "midi": 40,
          "time": 87.28347475000076,
          "velocity": 0.3937007874015748,
          "duration": 0.015225149414064276
        },
        {
          "name": "G#2",
          "midi": 44,
          "time": 87.28347475000076,
          "velocity": 0.31496062992125984,
          "duration": 0.015225149414064276
        },
        {
          "name": "D4",
          "midi": 62,
          "time": 87.28347475000076,
          "velocity": 0.3937007874015748,
          "duration": 0.015225149414064276
        },
        {
          "name": "F#3",
          "midi": 54,
          "time": 87.28347475000076,
          "velocity": 0.31496062992125984,
          "duration": 0.015225149414064276
        },
        {
          "name": "D4",
          "midi": 62,
          "time": 87.33976166601639,
          "velocity": 0.3937007874015748,
          "duration": 0.015225149414064276
        },
        {
          "name": "E2",
          "midi": 40,
          "time": 87.33976166601639,
          "velocity": 0.3937007874015748,
          "duration": 0.015225149414064276
        },
        {
          "name": "D4",
          "midi": 62,
          "time": 87.37851659179763,
          "velocity": 0.3937007874015748,
          "duration": 0.015225149414064276
        },
        {
          "name": "E2",
          "midi": 40,
          "time": 87.37851659179763,
          "velocity": 0.3937007874015748,
          "duration": 0.015225149414064276
        },
        {
          "name": "E2",
          "midi": 40,
          "time": 87.40158500000076,
          "velocity": 0.6299212598425197,
          "duration": 0.015225149414064276
        },
        {
          "name": "G#2",
          "midi": 44,
          "time": 87.40158500000076,
          "velocity": 0.3937007874015748,
          "duration": 0.015225149414064276
        },
        {
          "name": "D4",
          "midi": 62,
          "time": 87.40158500000076,
          "velocity": 0.6299212598425197,
          "duration": 0.015225149414064276
        },
        {
          "name": "F#3",
          "midi": 54,
          "time": 87.40158500000076,
          "velocity": 0.47244094488188976,
          "duration": 0.015225149414064276
        },
        {
          "name": "F#3",
          "midi": 54,
          "time": 87.51969525000077,
          "velocity": 0.31496062992125984,
          "duration": 0.015225149414064276
        },
        {
          "name": "G#2",
          "midi": 44,
          "time": 87.51969525000077,
          "velocity": 0.31496062992125984,
          "duration": 0.015225149414064276
        },
        {
          "name": "E2",
          "midi": 40,
          "time": 87.63780550000077,
          "velocity": 0.6299212598425197,
          "duration": 0.015225149414064276
        },
        {
          "name": "G#2",
          "midi": 44,
          "time": 87.63780550000077,
          "velocity": 0.3937007874015748,
          "duration": 0.015225149414064276
        },
        {
          "name": "D4",
          "midi": 62,
          "time": 87.63780550000077,
          "velocity": 0.6299212598425197,
          "duration": 0.015225149414064276
        },
        {
          "name": "F#3",
          "midi": 54,
          "time": 87.63780550000077,
          "velocity": 0.47244094488188976,
          "duration": 0.015225149414064276
        },
        {
          "name": "F#3",
          "midi": 54,
          "time": 87.75591575000077,
          "velocity": 0.31496062992125984,
          "duration": 0.015225149414064276
        },
        {
          "name": "G#2",
          "midi": 44,
          "time": 87.75591575000077,
          "velocity": 0.31496062992125984,
          "duration": 0.015225149414064276
        },
        {
          "name": "E2",
          "midi": 40,
          "time": 87.87402600000077,
          "velocity": 0.6299212598425197,
          "duration": 0.015225149414064276
        },
        {
          "name": "G#2",
          "midi": 44,
          "time": 87.87402600000077,
          "velocity": 0.3937007874015748,
          "duration": 0.015225149414064276
        },
        {
          "name": "D4",
          "midi": 62,
          "time": 87.87402600000077,
          "velocity": 0.6299212598425197,
          "duration": 0.015225149414064276
        },
        {
          "name": "F#3",
          "midi": 54,
          "time": 87.87402600000077,
          "velocity": 0.47244094488188976,
          "duration": 0.015225149414064276
        },
        {
          "name": "E2",
          "midi": 40,
          "time": 87.99213625000077,
          "velocity": 0.3937007874015748,
          "duration": 0.015225149414064276
        },
        {
          "name": "G#2",
          "midi": 44,
          "time": 87.99213625000077,
          "velocity": 0.31496062992125984,
          "duration": 0.015225149414064276
        },
        {
          "name": "D4",
          "midi": 62,
          "time": 87.99213625000077,
          "velocity": 0.3937007874015748,
          "duration": 0.015225149414064276
        },
        {
          "name": "F#3",
          "midi": 54,
          "time": 87.99213625000077,
          "velocity": 0.31496062992125984,
          "duration": 0.015225149414064276
        },
        {
          "name": "D4",
          "midi": 62,
          "time": 88.03550485742265,
          "velocity": 0.3937007874015748,
          "duration": 0.015225149414064276
        },
        {
          "name": "E2",
          "midi": 40,
          "time": 88.03550485742265,
          "velocity": 0.3937007874015748,
          "duration": 0.015225149414064276
        },
        {
          "name": "D4",
          "midi": 62,
          "time": 88.07887346484453,
          "velocity": 0.3937007874015748,
          "duration": 0.015225149414064276
        },
        {
          "name": "E2",
          "midi": 40,
          "time": 88.07887346484453,
          "velocity": 0.3937007874015748,
          "duration": 0.015225149414064276
        },
        {
          "name": "E2",
          "midi": 40,
          "time": 88.11024650000078,
          "velocity": 0.6299212598425197,
          "duration": 0.015225149414064276
        },
        {
          "name": "G#2",
          "midi": 44,
          "time": 88.11024650000078,
          "velocity": 0.3937007874015748,
          "duration": 0.015225149414064276
        },
        {
          "name": "D4",
          "midi": 62,
          "time": 88.11024650000078,
          "velocity": 0.6299212598425197,
          "duration": 0.015225149414064276
        },
        {
          "name": "F#3",
          "midi": 54,
          "time": 88.11024650000078,
          "velocity": 0.47244094488188976,
          "duration": 0.015225149414064276
        },
        {
          "name": "E2",
          "midi": 40,
          "time": 88.22835675000078,
          "velocity": 0.6299212598425197,
          "duration": 0.015225149414064276
        },
        {
          "name": "G#2",
          "midi": 44,
          "time": 88.22835675000078,
          "velocity": 0.31496062992125984,
          "duration": 0.015225149414064276
        },
        {
          "name": "D4",
          "midi": 62,
          "time": 88.22835675000078,
          "velocity": 0.6299212598425197,
          "duration": 0.015225149414064276
        },
        {
          "name": "F#3",
          "midi": 54,
          "time": 88.22835675000078,
          "velocity": 0.31496062992125984,
          "duration": 0.015225149414064276
        },
        {
          "name": "F#3",
          "midi": 54,
          "time": 88.34646700000079,
          "velocity": 0.47244094488188976,
          "duration": 0.015225149414064276
        },
        {
          "name": "G#2",
          "midi": 44,
          "time": 88.34646700000079,
          "velocity": 0.3937007874015748,
          "duration": 0.015225149414064276
        },
        {
          "name": "E2",
          "midi": 40,
          "time": 88.46457725000079,
          "velocity": 0.6299212598425197,
          "duration": 0.015225149414064276
        },
        {
          "name": "G#2",
          "midi": 44,
          "time": 88.46457725000079,
          "velocity": 0.31496062992125984,
          "duration": 0.015225149414064276
        },
        {
          "name": "D4",
          "midi": 62,
          "time": 88.46457725000079,
          "velocity": 0.6299212598425197,
          "duration": 0.015225149414064276
        },
        {
          "name": "F#3",
          "midi": 54,
          "time": 88.46457725000079,
          "velocity": 0.31496062992125984,
          "duration": 0.015225149414064276
        },
        {
          "name": "E2",
          "midi": 40,
          "time": 88.58268750000079,
          "velocity": 0.6299212598425197,
          "duration": 0.015225149414064276
        },
        {
          "name": "G#2",
          "midi": 44,
          "time": 88.58268750000079,
          "velocity": 0.3937007874015748,
          "duration": 0.015225149414064276
        },
        {
          "name": "D4",
          "midi": 62,
          "time": 88.58268750000079,
          "velocity": 0.6299212598425197,
          "duration": 0.015225149414064276
        },
        {
          "name": "F#3",
          "midi": 54,
          "time": 88.58268750000079,
          "velocity": 0.47244094488188976,
          "duration": 0.015225149414064276
        },
        {
          "name": "E2",
          "midi": 40,
          "time": 88.70079775000079,
          "velocity": 0.3937007874015748,
          "duration": 0.015225149414064276
        },
        {
          "name": "G#2",
          "midi": 44,
          "time": 88.70079775000079,
          "velocity": 0.31496062992125984,
          "duration": 0.015225149414064276
        },
        {
          "name": "D4",
          "midi": 62,
          "time": 88.70079775000079,
          "velocity": 0.3937007874015748,
          "duration": 0.015225149414064276
        },
        {
          "name": "F#3",
          "midi": 54,
          "time": 88.70079775000079,
          "velocity": 0.31496062992125984,
          "duration": 0.015225149414064276
        },
        {
          "name": "D4",
          "midi": 62,
          "time": 88.75708466601641,
          "velocity": 0.3937007874015748,
          "duration": 0.015225149414064276
        },
        {
          "name": "E2",
          "midi": 40,
          "time": 88.75708466601641,
          "velocity": 0.3937007874015748,
          "duration": 0.015225149414064276
        },
        {
          "name": "D4",
          "midi": 62,
          "time": 88.79583959179766,
          "velocity": 0.3937007874015748,
          "duration": 0.015225149414064276
        },
        {
          "name": "E2",
          "midi": 40,
          "time": 88.79583959179766,
          "velocity": 0.3937007874015748,
          "duration": 0.015225149414064276
        },
        {
          "name": "E2",
          "midi": 40,
          "time": 88.81890800000079,
          "velocity": 0.6299212598425197,
          "duration": 0.015225149414064276
        },
        {
          "name": "G#2",
          "midi": 44,
          "time": 88.81890800000079,
          "velocity": 0.3937007874015748,
          "duration": 0.015225149414064276
        },
        {
          "name": "D4",
          "midi": 62,
          "time": 88.81890800000079,
          "velocity": 0.6299212598425197,
          "duration": 0.015225149414064276
        },
        {
          "name": "F#3",
          "midi": 54,
          "time": 88.81890800000079,
          "velocity": 0.47244094488188976,
          "duration": 0.015225149414064276
        },
        {
          "name": "F#3",
          "midi": 54,
          "time": 88.93701825000079,
          "velocity": 0.31496062992125984,
          "duration": 0.015225149414064276
        },
        {
          "name": "G#2",
          "midi": 44,
          "time": 88.93701825000079,
          "velocity": 0.31496062992125984,
          "duration": 0.015225149414064276
        },
        {
          "name": "E2",
          "midi": 40,
          "time": 89.05512850000079,
          "velocity": 0.6299212598425197,
          "duration": 0.015225149414064276
        },
        {
          "name": "G#2",
          "midi": 44,
          "time": 89.05512850000079,
          "velocity": 0.3937007874015748,
          "duration": 0.015225149414064276
        },
        {
          "name": "D4",
          "midi": 62,
          "time": 89.05512850000079,
          "velocity": 0.6299212598425197,
          "duration": 0.015225149414064276
        },
        {
          "name": "F#3",
          "midi": 54,
          "time": 89.05512850000079,
          "velocity": 0.47244094488188976,
          "duration": 0.015225149414064276
        },
        {
          "name": "F#3",
          "midi": 54,
          "time": 89.17323875000079,
          "velocity": 0.31496062992125984,
          "duration": 0.015225149414064276
        },
        {
          "name": "G#2",
          "midi": 44,
          "time": 89.17323875000079,
          "velocity": 0.31496062992125984,
          "duration": 0.015225149414064276
        },
        {
          "name": "G#2",
          "midi": 44,
          "time": 89.29134900000079,
          "velocity": 0.3937007874015748,
          "duration": 0.015225149414064276
        },
        {
          "name": "E2",
          "midi": 40,
          "time": 89.29134900000079,
          "velocity": 0.6299212598425197,
          "duration": 0.015225149414064276
        },
        {
          "name": "D4",
          "midi": 62,
          "time": 89.29134900000079,
          "velocity": 0.6299212598425197,
          "duration": 0.015225149414064276
        },
        {
          "name": "F#3",
          "midi": 54,
          "time": 89.29134900000079,
          "velocity": 0.47244094488188976,
          "duration": 0.015225149414064276
        },
        {
          "name": "G#2",
          "midi": 44,
          "time": 89.4094592500008,
          "velocity": 0.31496062992125984,
          "duration": 0.015225149414064276
        },
        {
          "name": "E2",
          "midi": 40,
          "time": 89.4094592500008,
          "velocity": 0.3937007874015748,
          "duration": 0.015225149414064276
        },
        {
          "name": "D4",
          "midi": 62,
          "time": 89.4094592500008,
          "velocity": 0.3937007874015748,
          "duration": 0.015225149414064276
        },
        {
          "name": "F#3",
          "midi": 54,
          "time": 89.4094592500008,
          "velocity": 0.31496062992125984,
          "duration": 0.015225149414064276
        },
        {
          "name": "D4",
          "midi": 62,
          "time": 89.45282785742268,
          "velocity": 0.3937007874015748,
          "duration": 0.015225149414064276
        },
        {
          "name": "E2",
          "midi": 40,
          "time": 89.45282785742268,
          "velocity": 0.3937007874015748,
          "duration": 0.015225149414064276
        },
        {
          "name": "D4",
          "midi": 62,
          "time": 89.49619646484456,
          "velocity": 0.3937007874015748,
          "duration": 0.015225149414064276
        },
        {
          "name": "E2",
          "midi": 40,
          "time": 89.49619646484456,
          "velocity": 0.3937007874015748,
          "duration": 0.015225149414064276
        },
        {
          "name": "G#2",
          "midi": 44,
          "time": 89.52756950000081,
          "velocity": 0.3937007874015748,
          "duration": 0.015225149414064276
        },
        {
          "name": "E2",
          "midi": 40,
          "time": 89.52756950000081,
          "velocity": 0.6299212598425197,
          "duration": 0.015225149414064276
        },
        {
          "name": "D4",
          "midi": 62,
          "time": 89.52756950000081,
          "velocity": 0.6299212598425197,
          "duration": 0.015225149414064276
        },
        {
          "name": "F#3",
          "midi": 54,
          "time": 89.52756950000081,
          "velocity": 0.47244094488188976,
          "duration": 0.015225149414064276
        },
        {
          "name": "G#2",
          "midi": 44,
          "time": 89.64567975000081,
          "velocity": 0.31496062992125984,
          "duration": 0.015225149414064276
        },
        {
          "name": "E2",
          "midi": 40,
          "time": 89.64567975000081,
          "velocity": 0.6299212598425197,
          "duration": 0.015225149414064276
        },
        {
          "name": "D4",
          "midi": 62,
          "time": 89.64567975000081,
          "velocity": 0.6299212598425197,
          "duration": 0.015225149414064276
        },
        {
          "name": "F#3",
          "midi": 54,
          "time": 89.64567975000081,
          "velocity": 0.31496062992125984,
          "duration": 0.015225149414064276
        },
        {
          "name": "F#3",
          "midi": 54,
          "time": 89.76379000000081,
          "velocity": 0.47244094488188976,
          "duration": 0.015225149414064276
        },
        {
          "name": "G#2",
          "midi": 44,
          "time": 89.76379000000081,
          "velocity": 0.3937007874015748,
          "duration": 0.015225149414064276
        },
        {
          "name": "G#2",
          "midi": 44,
          "time": 89.88190025000081,
          "velocity": 0.31496062992125984,
          "duration": 0.015225149414064276
        },
        {
          "name": "E2",
          "midi": 40,
          "time": 89.88190025000081,
          "velocity": 0.6299212598425197,
          "duration": 0.015225149414064276
        },
        {
          "name": "D4",
          "midi": 62,
          "time": 89.88190025000081,
          "velocity": 0.6299212598425197,
          "duration": 0.015225149414064276
        },
        {
          "name": "F#3",
          "midi": 54,
          "time": 89.88190025000081,
          "velocity": 0.31496062992125984,
          "duration": 0.015225149414064276
        },
        {
          "name": "G#2",
          "midi": 44,
          "time": 90.00001050000081,
          "velocity": 0.3937007874015748,
          "duration": 0.015225149414064276
        },
        {
          "name": "E2",
          "midi": 40,
          "time": 90.00001050000081,
          "velocity": 0.6299212598425197,
          "duration": 0.015225149414064276
        },
        {
          "name": "D4",
          "midi": 62,
          "time": 90.00001050000081,
          "velocity": 0.6299212598425197,
          "duration": 0.015225149414064276
        },
        {
          "name": "F#3",
          "midi": 54,
          "time": 90.00001050000081,
          "velocity": 0.47244094488188976,
          "duration": 0.015225149414064276
        },
        {
          "name": "G#2",
          "midi": 44,
          "time": 90.11812075000081,
          "velocity": 0.31496062992125984,
          "duration": 0.015225149414064276
        },
        {
          "name": "E2",
          "midi": 40,
          "time": 90.11812075000081,
          "velocity": 0.3937007874015748,
          "duration": 0.015225149414064276
        },
        {
          "name": "D4",
          "midi": 62,
          "time": 90.11812075000081,
          "velocity": 0.3937007874015748,
          "duration": 0.015225149414064276
        },
        {
          "name": "F#3",
          "midi": 54,
          "time": 90.11812075000081,
          "velocity": 0.31496062992125984,
          "duration": 0.015225149414064276
        },
        {
          "name": "D4",
          "midi": 62,
          "time": 90.17440766601644,
          "velocity": 0.3937007874015748,
          "duration": 0.015225149414064276
        },
        {
          "name": "E2",
          "midi": 40,
          "time": 90.17440766601644,
          "velocity": 0.3937007874015748,
          "duration": 0.015225149414064276
        },
        {
          "name": "D4",
          "midi": 62,
          "time": 90.21316259179768,
          "velocity": 0.3937007874015748,
          "duration": 0.015225149414064276
        },
        {
          "name": "E2",
          "midi": 40,
          "time": 90.21316259179768,
          "velocity": 0.3937007874015748,
          "duration": 0.015225149414064276
        },
        {
          "name": "G#2",
          "midi": 44,
          "time": 90.23623100000081,
          "velocity": 0.3937007874015748,
          "duration": 0.015225149414064276
        },
        {
          "name": "E2",
          "midi": 40,
          "time": 90.23623100000081,
          "velocity": 0.6299212598425197,
          "duration": 0.015225149414064276
        },
        {
          "name": "D4",
          "midi": 62,
          "time": 90.23623100000081,
          "velocity": 0.6299212598425197,
          "duration": 0.015225149414064276
        },
        {
          "name": "F#3",
          "midi": 54,
          "time": 90.23623100000081,
          "velocity": 0.47244094488188976,
          "duration": 0.015225149414064276
        },
        {
          "name": "F#3",
          "midi": 54,
          "time": 90.35434125000081,
          "velocity": 0.31496062992125984,
          "duration": 0.015225149414064276
        },
        {
          "name": "G#2",
          "midi": 44,
          "time": 90.35434125000081,
          "velocity": 0.31496062992125984,
          "duration": 0.015225149414064276
        },
        {
          "name": "G#2",
          "midi": 44,
          "time": 90.47245150000082,
          "velocity": 0.3937007874015748,
          "duration": 0.015225149414064276
        },
        {
          "name": "E2",
          "midi": 40,
          "time": 90.47245150000082,
          "velocity": 0.6299212598425197,
          "duration": 0.015225149414064276
        },
        {
          "name": "D4",
          "midi": 62,
          "time": 90.47245150000082,
          "velocity": 0.6299212598425197,
          "duration": 0.015225149414064276
        },
        {
          "name": "F#3",
          "midi": 54,
          "time": 90.47245150000082,
          "velocity": 0.47244094488188976,
          "duration": 0.015225149414064276
        },
        {
          "name": "F#3",
          "midi": 54,
          "time": 90.59056175000082,
          "velocity": 0.31496062992125984,
          "duration": 0.015225149414064276
        },
        {
          "name": "G#2",
          "midi": 44,
          "time": 90.59056175000082,
          "velocity": 0.31496062992125984,
          "duration": 0.015225149414064276
        },
        {
          "name": "G#2",
          "midi": 44,
          "time": 90.70867200000082,
          "velocity": 0.3937007874015748,
          "duration": 0.015225149414064276
        },
        {
          "name": "E2",
          "midi": 40,
          "time": 90.70867200000082,
          "velocity": 0.6299212598425197,
          "duration": 0.015225149414064276
        },
        {
          "name": "D4",
          "midi": 62,
          "time": 90.70867200000082,
          "velocity": 0.6299212598425197,
          "duration": 0.015225149414064276
        },
        {
          "name": "F#3",
          "midi": 54,
          "time": 90.70867200000082,
          "velocity": 0.47244094488188976,
          "duration": 0.015225149414064276
        },
        {
          "name": "G#2",
          "midi": 44,
          "time": 90.82678225000082,
          "velocity": 0.31496062992125984,
          "duration": 0.015225149414064276
        },
        {
          "name": "E2",
          "midi": 40,
          "time": 90.82678225000082,
          "velocity": 0.3937007874015748,
          "duration": 0.015225149414064276
        },
        {
          "name": "D4",
          "midi": 62,
          "time": 90.82678225000082,
          "velocity": 0.3937007874015748,
          "duration": 0.015225149414064276
        },
        {
          "name": "F#3",
          "midi": 54,
          "time": 90.82678225000082,
          "velocity": 0.31496062992125984,
          "duration": 0.015225149414064276
        },
        {
          "name": "D4",
          "midi": 62,
          "time": 90.8701508574227,
          "velocity": 0.3937007874015748,
          "duration": 0.015225149414064276
        },
        {
          "name": "E2",
          "midi": 40,
          "time": 90.8701508574227,
          "velocity": 0.3937007874015748,
          "duration": 0.015225149414064276
        },
        {
          "name": "D4",
          "midi": 62,
          "time": 90.91351946484458,
          "velocity": 0.3937007874015748,
          "duration": 0.015225149414064276
        },
        {
          "name": "E2",
          "midi": 40,
          "time": 90.91351946484458,
          "velocity": 0.3937007874015748,
          "duration": 0.015225149414064276
        },
        {
          "name": "G#2",
          "midi": 44,
          "time": 90.94489250000083,
          "velocity": 0.3937007874015748,
          "duration": 0.015225149414064276
        },
        {
          "name": "E2",
          "midi": 40,
          "time": 90.94489250000083,
          "velocity": 0.6299212598425197,
          "duration": 0.015225149414064276
        },
        {
          "name": "D4",
          "midi": 62,
          "time": 90.94489250000083,
          "velocity": 0.6299212598425197,
          "duration": 0.015225149414064276
        },
        {
          "name": "F#3",
          "midi": 54,
          "time": 90.94489250000083,
          "velocity": 0.47244094488188976,
          "duration": 0.015225149414064276
        },
        {
          "name": "G#2",
          "midi": 44,
          "time": 91.06300275000083,
          "velocity": 0.31496062992125984,
          "duration": 0.015225149414064276
        },
        {
          "name": "E2",
          "midi": 40,
          "time": 91.06300275000083,
          "velocity": 0.6299212598425197,
          "duration": 0.015225149414064276
        },
        {
          "name": "D4",
          "midi": 62,
          "time": 91.06300275000083,
          "velocity": 0.6299212598425197,
          "duration": 0.015225149414064276
        },
        {
          "name": "F#3",
          "midi": 54,
          "time": 91.06300275000083,
          "velocity": 0.31496062992125984,
          "duration": 0.015225149414064276
        },
        {
          "name": "F#3",
          "midi": 54,
          "time": 91.18111300000083,
          "velocity": 0.47244094488188976,
          "duration": 0.015225149414064276
        },
        {
          "name": "G#2",
          "midi": 44,
          "time": 91.18111300000083,
          "velocity": 0.3937007874015748,
          "duration": 0.015225149414064276
        },
        {
          "name": "G#2",
          "midi": 44,
          "time": 91.29922325000084,
          "velocity": 0.31496062992125984,
          "duration": 0.015225149414064276
        },
        {
          "name": "E2",
          "midi": 40,
          "time": 91.29922325000084,
          "velocity": 0.6299212598425197,
          "duration": 0.015225149414064276
        },
        {
          "name": "D4",
          "midi": 62,
          "time": 91.29922325000084,
          "velocity": 0.6299212598425197,
          "duration": 0.015225149414064276
        },
        {
          "name": "F#3",
          "midi": 54,
          "time": 91.29922325000084,
          "velocity": 0.31496062992125984,
          "duration": 0.015225149414064276
        },
        {
          "name": "G#2",
          "midi": 44,
          "time": 91.41733350000084,
          "velocity": 0.3937007874015748,
          "duration": 0.015225149414064276
        },
        {
          "name": "E2",
          "midi": 40,
          "time": 91.41733350000084,
          "velocity": 0.6299212598425197,
          "duration": 0.015225149414064276
        },
        {
          "name": "D4",
          "midi": 62,
          "time": 91.41733350000084,
          "velocity": 0.6299212598425197,
          "duration": 0.015225149414064276
        },
        {
          "name": "F#3",
          "midi": 54,
          "time": 91.41733350000084,
          "velocity": 0.47244094488188976,
          "duration": 0.015225149414064276
        },
        {
          "name": "G#2",
          "midi": 44,
          "time": 91.53544375000084,
          "velocity": 0.31496062992125984,
          "duration": 0.015225149414064276
        },
        {
          "name": "E2",
          "midi": 40,
          "time": 91.53544375000084,
          "velocity": 0.3937007874015748,
          "duration": 0.015225149414064276
        },
        {
          "name": "D4",
          "midi": 62,
          "time": 91.53544375000084,
          "velocity": 0.3937007874015748,
          "duration": 0.015225149414064276
        },
        {
          "name": "F#3",
          "midi": 54,
          "time": 91.53544375000084,
          "velocity": 0.31496062992125984,
          "duration": 0.015225149414064276
        },
        {
          "name": "D4",
          "midi": 62,
          "time": 91.59173066601646,
          "velocity": 0.3937007874015748,
          "duration": 0.015225149414064276
        },
        {
          "name": "E2",
          "midi": 40,
          "time": 91.59173066601646,
          "velocity": 0.3937007874015748,
          "duration": 0.015225149414064276
        },
        {
          "name": "D4",
          "midi": 62,
          "time": 91.63048559179771,
          "velocity": 0.3937007874015748,
          "duration": 0.015225149414064276
        },
        {
          "name": "E2",
          "midi": 40,
          "time": 91.63048559179771,
          "velocity": 0.3937007874015748,
          "duration": 0.015225149414064276
        },
        {
          "name": "G#2",
          "midi": 44,
          "time": 91.65355400000084,
          "velocity": 0.3937007874015748,
          "duration": 0.015225149414064276
        },
        {
          "name": "E2",
          "midi": 40,
          "time": 91.65355400000084,
          "velocity": 0.6299212598425197,
          "duration": 0.015225149414064276
        },
        {
          "name": "D4",
          "midi": 62,
          "time": 91.65355400000084,
          "velocity": 0.6299212598425197,
          "duration": 0.015225149414064276
        },
        {
          "name": "F#3",
          "midi": 54,
          "time": 91.65355400000084,
          "velocity": 0.47244094488188976,
          "duration": 0.015225149414064276
        },
        {
          "name": "F#3",
          "midi": 54,
          "time": 91.77166425000084,
          "velocity": 0.31496062992125984,
          "duration": 0.015225149414064276
        },
        {
          "name": "G#2",
          "midi": 44,
          "time": 91.77166425000084,
          "velocity": 0.31496062992125984,
          "duration": 0.015225149414064276
        },
        {
          "name": "G#2",
          "midi": 44,
          "time": 91.88977450000084,
          "velocity": 0.3937007874015748,
          "duration": 0.015225149414064276
        },
        {
          "name": "E2",
          "midi": 40,
          "time": 91.88977450000084,
          "velocity": 0.6299212598425197,
          "duration": 0.015225149414064276
        },
        {
          "name": "D4",
          "midi": 62,
          "time": 91.88977450000084,
          "velocity": 0.6299212598425197,
          "duration": 0.015225149414064276
        },
        {
          "name": "F#3",
          "midi": 54,
          "time": 91.88977450000084,
          "velocity": 0.47244094488188976,
          "duration": 0.015225149414064276
        },
        {
          "name": "F#3",
          "midi": 54,
          "time": 92.00788475000084,
          "velocity": 0.31496062992125984,
          "duration": 0.015225149414064276
        },
        {
          "name": "G#2",
          "midi": 44,
          "time": 92.00788475000084,
          "velocity": 0.31496062992125984,
          "duration": 0.015225149414064276
        },
        {
          "name": "G#2",
          "midi": 44,
          "time": 92.12599500000084,
          "velocity": 0.3937007874015748,
          "duration": 0.015225149414064276
        },
        {
          "name": "E2",
          "midi": 40,
          "time": 92.12599500000084,
          "velocity": 0.6299212598425197,
          "duration": 0.015225149414064276
        },
        {
          "name": "D4",
          "midi": 62,
          "time": 92.12599500000084,
          "velocity": 0.6299212598425197,
          "duration": 0.015225149414064276
        },
        {
          "name": "F#3",
          "midi": 54,
          "time": 92.12599500000084,
          "velocity": 0.47244094488188976,
          "duration": 0.015225149414064276
        },
        {
          "name": "G#2",
          "midi": 44,
          "time": 92.24410525000084,
          "velocity": 0.31496062992125984,
          "duration": 0.015225149414064276
        },
        {
          "name": "E2",
          "midi": 40,
          "time": 92.24410525000084,
          "velocity": 0.3937007874015748,
          "duration": 0.015225149414064276
        },
        {
          "name": "D4",
          "midi": 62,
          "time": 92.24410525000084,
          "velocity": 0.3937007874015748,
          "duration": 0.015225149414064276
        },
        {
          "name": "F#3",
          "midi": 54,
          "time": 92.24410525000084,
          "velocity": 0.31496062992125984,
          "duration": 0.015225149414064276
        },
        {
          "name": "D4",
          "midi": 62,
          "time": 92.28747385742273,
          "velocity": 0.3937007874015748,
          "duration": 0.015225149414064276
        },
        {
          "name": "E2",
          "midi": 40,
          "time": 92.28747385742273,
          "velocity": 0.3937007874015748,
          "duration": 0.015225149414064276
        },
        {
          "name": "D4",
          "midi": 62,
          "time": 92.33084246484461,
          "velocity": 0.3937007874015748,
          "duration": 0.015225149414064276
        },
        {
          "name": "E2",
          "midi": 40,
          "time": 92.33084246484461,
          "velocity": 0.3937007874015748,
          "duration": 0.015225149414064276
        },
        {
          "name": "G#2",
          "midi": 44,
          "time": 92.36221550000086,
          "velocity": 0.3937007874015748,
          "duration": 0.015225149414064276
        },
        {
          "name": "E2",
          "midi": 40,
          "time": 92.36221550000086,
          "velocity": 0.6299212598425197,
          "duration": 0.015225149414064276
        },
        {
          "name": "D4",
          "midi": 62,
          "time": 92.36221550000086,
          "velocity": 0.6299212598425197,
          "duration": 0.015225149414064276
        },
        {
          "name": "F#3",
          "midi": 54,
          "time": 92.36221550000086,
          "velocity": 0.47244094488188976,
          "duration": 0.015225149414064276
        },
        {
          "name": "G#2",
          "midi": 44,
          "time": 92.48032575000086,
          "velocity": 0.31496062992125984,
          "duration": 0.015225149414064276
        },
        {
          "name": "E2",
          "midi": 40,
          "time": 92.48032575000086,
          "velocity": 0.6299212598425197,
          "duration": 0.015225149414064276
        },
        {
          "name": "D4",
          "midi": 62,
          "time": 92.48032575000086,
          "velocity": 0.6299212598425197,
          "duration": 0.015225149414064276
        },
        {
          "name": "F#3",
          "midi": 54,
          "time": 92.48032575000086,
          "velocity": 0.31496062992125984,
          "duration": 0.015225149414064276
        },
        {
          "name": "F#3",
          "midi": 54,
          "time": 92.59843600000086,
          "velocity": 0.47244094488188976,
          "duration": 0.015225149414064276
        },
        {
          "name": "G#2",
          "midi": 44,
          "time": 92.59843600000086,
          "velocity": 0.3937007874015748,
          "duration": 0.015225149414064276
        },
        {
          "name": "G#2",
          "midi": 44,
          "time": 92.71654625000086,
          "velocity": 0.31496062992125984,
          "duration": 0.015225149414064276
        },
        {
          "name": "E2",
          "midi": 40,
          "time": 92.71654625000086,
          "velocity": 0.6299212598425197,
          "duration": 0.015225149414064276
        },
        {
          "name": "D4",
          "midi": 62,
          "time": 92.71654625000086,
          "velocity": 0.6299212598425197,
          "duration": 0.015225149414064276
        },
        {
          "name": "F#3",
          "midi": 54,
          "time": 92.71654625000086,
          "velocity": 0.31496062992125984,
          "duration": 0.015225149414064276
        },
        {
          "name": "G#2",
          "midi": 44,
          "time": 92.83465650000086,
          "velocity": 0.3937007874015748,
          "duration": 0.015225149414064276
        },
        {
          "name": "E2",
          "midi": 40,
          "time": 92.83465650000086,
          "velocity": 0.6299212598425197,
          "duration": 0.015225149414064276
        },
        {
          "name": "D4",
          "midi": 62,
          "time": 92.83465650000086,
          "velocity": 0.6299212598425197,
          "duration": 0.015225149414064276
        },
        {
          "name": "F#3",
          "midi": 54,
          "time": 92.83465650000086,
          "velocity": 0.47244094488188976,
          "duration": 0.015225149414064276
        },
        {
          "name": "G#2",
          "midi": 44,
          "time": 92.95276675000086,
          "velocity": 0.31496062992125984,
          "duration": 0.015225149414064276
        },
        {
          "name": "E2",
          "midi": 40,
          "time": 92.95276675000086,
          "velocity": 0.3937007874015748,
          "duration": 0.015225149414064276
        },
        {
          "name": "D4",
          "midi": 62,
          "time": 92.95276675000086,
          "velocity": 0.3937007874015748,
          "duration": 0.015225149414064276
        },
        {
          "name": "F#3",
          "midi": 54,
          "time": 92.95276675000086,
          "velocity": 0.31496062992125984,
          "duration": 0.015225149414064276
        },
        {
          "name": "D4",
          "midi": 62,
          "time": 93.00905366601648,
          "velocity": 0.3937007874015748,
          "duration": 0.015225149414064276
        },
        {
          "name": "E2",
          "midi": 40,
          "time": 93.00905366601648,
          "velocity": 0.3937007874015748,
          "duration": 0.015225149414064276
        },
        {
          "name": "D4",
          "midi": 62,
          "time": 93.04780859179773,
          "velocity": 0.3937007874015748,
          "duration": 0.015225149414064276
        },
        {
          "name": "E2",
          "midi": 40,
          "time": 93.04780859179773,
          "velocity": 0.3937007874015748,
          "duration": 0.015225149414064276
        },
        {
          "name": "G#2",
          "midi": 44,
          "time": 93.07087700000086,
          "velocity": 0.3937007874015748,
          "duration": 0.015225149414064276
        },
        {
          "name": "E2",
          "midi": 40,
          "time": 93.07087700000086,
          "velocity": 0.6299212598425197,
          "duration": 0.015225149414064276
        },
        {
          "name": "D4",
          "midi": 62,
          "time": 93.07087700000086,
          "velocity": 0.6299212598425197,
          "duration": 0.015225149414064276
        },
        {
          "name": "F#3",
          "midi": 54,
          "time": 93.07087700000086,
          "velocity": 0.47244094488188976,
          "duration": 0.015225149414064276
        },
        {
          "name": "F#3",
          "midi": 54,
          "time": 93.18898725000086,
          "velocity": 0.31496062992125984,
          "duration": 0.015225149414064276
        },
        {
          "name": "G#2",
          "midi": 44,
          "time": 93.18898725000086,
          "velocity": 0.31496062992125984,
          "duration": 0.015225149414064276
        },
        {
          "name": "G#2",
          "midi": 44,
          "time": 93.30709750000086,
          "velocity": 0.3937007874015748,
          "duration": 0.015225149414064276
        },
        {
          "name": "E2",
          "midi": 40,
          "time": 93.30709750000086,
          "velocity": 0.6299212598425197,
          "duration": 0.015225149414064276
        },
        {
          "name": "D4",
          "midi": 62,
          "time": 93.30709750000086,
          "velocity": 0.6299212598425197,
          "duration": 0.015225149414064276
        },
        {
          "name": "F#3",
          "midi": 54,
          "time": 93.30709750000086,
          "velocity": 0.47244094488188976,
          "duration": 0.015225149414064276
        },
        {
          "name": "F#3",
          "midi": 54,
          "time": 93.42520775000087,
          "velocity": 0.31496062992125984,
          "duration": 0.015225149414064276
        },
        {
          "name": "G#2",
          "midi": 44,
          "time": 93.42520775000087,
          "velocity": 0.31496062992125984,
          "duration": 0.015225149414064276
        },
        {
          "name": "G#2",
          "midi": 44,
          "time": 93.54331800000087,
          "velocity": 0.3937007874015748,
          "duration": 0.015225149414064276
        },
        {
          "name": "E2",
          "midi": 40,
          "time": 93.54331800000087,
          "velocity": 0.6299212598425197,
          "duration": 0.015225149414064276
        },
        {
          "name": "D4",
          "midi": 62,
          "time": 93.54331800000087,
          "velocity": 0.6299212598425197,
          "duration": 0.015225149414064276
        },
        {
          "name": "F#3",
          "midi": 54,
          "time": 93.54331800000087,
          "velocity": 0.47244094488188976,
          "duration": 0.015225149414064276
        },
        {
          "name": "G#2",
          "midi": 44,
          "time": 93.66142825000087,
          "velocity": 0.31496062992125984,
          "duration": 0.015225149414064276
        },
        {
          "name": "E2",
          "midi": 40,
          "time": 93.66142825000087,
          "velocity": 0.3937007874015748,
          "duration": 0.015225149414064276
        },
        {
          "name": "D4",
          "midi": 62,
          "time": 93.66142825000087,
          "velocity": 0.3937007874015748,
          "duration": 0.015225149414064276
        },
        {
          "name": "F#3",
          "midi": 54,
          "time": 93.66142825000087,
          "velocity": 0.31496062992125984,
          "duration": 0.015225149414064276
        },
        {
          "name": "D4",
          "midi": 62,
          "time": 93.70479685742275,
          "velocity": 0.3937007874015748,
          "duration": 0.015225149414064276
        },
        {
          "name": "E2",
          "midi": 40,
          "time": 93.70479685742275,
          "velocity": 0.3937007874015748,
          "duration": 0.015225149414064276
        },
        {
          "name": "D4",
          "midi": 62,
          "time": 93.74816546484463,
          "velocity": 0.3937007874015748,
          "duration": 0.015225149414064276
        },
        {
          "name": "E2",
          "midi": 40,
          "time": 93.74816546484463,
          "velocity": 0.3937007874015748,
          "duration": 0.015225149414064276
        },
        {
          "name": "G#2",
          "midi": 44,
          "time": 93.77953850000088,
          "velocity": 0.3937007874015748,
          "duration": 0.015225149414064276
        },
        {
          "name": "E2",
          "midi": 40,
          "time": 93.77953850000088,
          "velocity": 0.6299212598425197,
          "duration": 0.015225149414064276
        },
        {
          "name": "D4",
          "midi": 62,
          "time": 93.77953850000088,
          "velocity": 0.6299212598425197,
          "duration": 0.015225149414064276
        },
        {
          "name": "F#3",
          "midi": 54,
          "time": 93.77953850000088,
          "velocity": 0.47244094488188976,
          "duration": 0.015225149414064276
        },
        {
          "name": "G#2",
          "midi": 44,
          "time": 93.89764875000088,
          "velocity": 0.31496062992125984,
          "duration": 0.015225149414064276
        },
        {
          "name": "E2",
          "midi": 40,
          "time": 93.89764875000088,
          "velocity": 0.6299212598425197,
          "duration": 0.015225149414064276
        },
        {
          "name": "D4",
          "midi": 62,
          "time": 93.89764875000088,
          "velocity": 0.6299212598425197,
          "duration": 0.015225149414064276
        },
        {
          "name": "F#3",
          "midi": 54,
          "time": 93.89764875000088,
          "velocity": 0.31496062992125984,
          "duration": 0.015225149414064276
        },
        {
          "name": "F#3",
          "midi": 54,
          "time": 94.01575900000088,
          "velocity": 0.47244094488188976,
          "duration": 0.015225149414064276
        },
        {
          "name": "G#2",
          "midi": 44,
          "time": 94.01575900000088,
          "velocity": 0.3937007874015748,
          "duration": 0.015225149414064276
        },
        {
          "name": "G#2",
          "midi": 44,
          "time": 94.13386925000088,
          "velocity": 0.31496062992125984,
          "duration": 0.015225149414064276
        },
        {
          "name": "E2",
          "midi": 40,
          "time": 94.13386925000088,
          "velocity": 0.6299212598425197,
          "duration": 0.015225149414064276
        },
        {
          "name": "D4",
          "midi": 62,
          "time": 94.13386925000088,
          "velocity": 0.6299212598425197,
          "duration": 0.015225149414064276
        },
        {
          "name": "F#3",
          "midi": 54,
          "time": 94.13386925000088,
          "velocity": 0.31496062992125984,
          "duration": 0.015225149414064276
        },
        {
          "name": "G#2",
          "midi": 44,
          "time": 94.25197950000089,
          "velocity": 0.3937007874015748,
          "duration": 0.015225149414064276
        },
        {
          "name": "E2",
          "midi": 40,
          "time": 94.25197950000089,
          "velocity": 0.6299212598425197,
          "duration": 0.015225149414064276
        },
        {
          "name": "D4",
          "midi": 62,
          "time": 94.25197950000089,
          "velocity": 0.6299212598425197,
          "duration": 0.015225149414064276
        },
        {
          "name": "F#3",
          "midi": 54,
          "time": 94.25197950000089,
          "velocity": 0.47244094488188976,
          "duration": 0.015225149414064276
        },
        {
          "name": "G#2",
          "midi": 44,
          "time": 94.37008975000089,
          "velocity": 0.31496062992125984,
          "duration": 0.015225149414064276
        },
        {
          "name": "E2",
          "midi": 40,
          "time": 94.37008975000089,
          "velocity": 0.3937007874015748,
          "duration": 0.015225149414064276
        },
        {
          "name": "D4",
          "midi": 62,
          "time": 94.37008975000089,
          "velocity": 0.3937007874015748,
          "duration": 0.015225149414064276
        },
        {
          "name": "F#3",
          "midi": 54,
          "time": 94.37008975000089,
          "velocity": 0.31496062992125984,
          "duration": 0.015225149414064276
        },
        {
          "name": "D4",
          "midi": 62,
          "time": 94.42637666601651,
          "velocity": 0.3937007874015748,
          "duration": 0.015225149414064276
        },
        {
          "name": "E2",
          "midi": 40,
          "time": 94.42637666601651,
          "velocity": 0.3937007874015748,
          "duration": 0.015225149414064276
        },
        {
          "name": "D4",
          "midi": 62,
          "time": 94.46513159179776,
          "velocity": 0.3937007874015748,
          "duration": 0.015225149414064276
        },
        {
          "name": "E2",
          "midi": 40,
          "time": 94.46513159179776,
          "velocity": 0.3937007874015748,
          "duration": 0.015225149414064276
        },
        {
          "name": "G#2",
          "midi": 44,
          "time": 94.48820000000089,
          "velocity": 0.3937007874015748,
          "duration": 0.015225149414064276
        },
        {
          "name": "E2",
          "midi": 40,
          "time": 94.48820000000089,
          "velocity": 0.6299212598425197,
          "duration": 0.015225149414064276
        },
        {
          "name": "D4",
          "midi": 62,
          "time": 94.48820000000089,
          "velocity": 0.6299212598425197,
          "duration": 0.015225149414064276
        },
        {
          "name": "F#3",
          "midi": 54,
          "time": 94.48820000000089,
          "velocity": 0.47244094488188976,
          "duration": 0.015225149414064276
        },
        {
          "name": "F#3",
          "midi": 54,
          "time": 94.60631025000089,
          "velocity": 0.31496062992125984,
          "duration": 0.015225149414064276
        },
        {
          "name": "G#2",
          "midi": 44,
          "time": 94.60631025000089,
          "velocity": 0.31496062992125984,
          "duration": 0.015225149414064276
        },
        {
          "name": "G#2",
          "midi": 44,
          "time": 94.72442050000089,
          "velocity": 0.3937007874015748,
          "duration": 0.015225149414064276
        },
        {
          "name": "E2",
          "midi": 40,
          "time": 94.72442050000089,
          "velocity": 0.6299212598425197,
          "duration": 0.015225149414064276
        },
        {
          "name": "D4",
          "midi": 62,
          "time": 94.72442050000089,
          "velocity": 0.6299212598425197,
          "duration": 0.015225149414064276
        },
        {
          "name": "F#3",
          "midi": 54,
          "time": 94.72442050000089,
          "velocity": 0.47244094488188976,
          "duration": 0.015225149414064276
        },
        {
          "name": "F#3",
          "midi": 54,
          "time": 94.84253075000089,
          "velocity": 0.31496062992125984,
          "duration": 0.015225149414064276
        },
        {
          "name": "G#2",
          "midi": 44,
          "time": 94.84253075000089,
          "velocity": 0.31496062992125984,
          "duration": 0.015225149414064276
        },
        {
          "name": "E2",
          "midi": 40,
          "time": 94.96064100000089,
          "velocity": 0.6299212598425197,
          "duration": 0.015225149414064276
        },
        {
          "name": "G#2",
          "midi": 44,
          "time": 94.96064100000089,
          "velocity": 0.3937007874015748,
          "duration": 0.015225149414064276
        },
        {
          "name": "D4",
          "midi": 62,
          "time": 94.96064100000089,
          "velocity": 0.6299212598425197,
          "duration": 0.015225149414064276
        },
        {
          "name": "F#3",
          "midi": 54,
          "time": 94.96064100000089,
          "velocity": 0.47244094488188976,
          "duration": 0.015225149414064276
        },
        {
          "name": "E2",
          "midi": 40,
          "time": 95.07875125000089,
          "velocity": 0.3937007874015748,
          "duration": 0.015225149414064276
        },
        {
          "name": "G#2",
          "midi": 44,
          "time": 95.07875125000089,
          "velocity": 0.31496062992125984,
          "duration": 0.015225149414064276
        },
        {
          "name": "D4",
          "midi": 62,
          "time": 95.07875125000089,
          "velocity": 0.3937007874015748,
          "duration": 0.015225149414064276
        },
        {
          "name": "F#3",
          "midi": 54,
          "time": 95.07875125000089,
          "velocity": 0.31496062992125984,
          "duration": 0.015225149414064276
        },
        {
          "name": "D4",
          "midi": 62,
          "time": 95.12211985742277,
          "velocity": 0.3937007874015748,
          "duration": 0.015225149414064276
        },
        {
          "name": "E2",
          "midi": 40,
          "time": 95.12211985742277,
          "velocity": 0.3937007874015748,
          "duration": 0.015225149414064276
        },
        {
          "name": "D4",
          "midi": 62,
          "time": 95.16548846484466,
          "velocity": 0.3937007874015748,
          "duration": 0.015225149414064276
        },
        {
          "name": "E2",
          "midi": 40,
          "time": 95.16548846484466,
          "velocity": 0.3937007874015748,
          "duration": 0.015225149414064276
        },
        {
          "name": "E2",
          "midi": 40,
          "time": 95.1968615000009,
          "velocity": 0.6299212598425197,
          "duration": 0.015225149414064276
        },
        {
          "name": "G#2",
          "midi": 44,
          "time": 95.1968615000009,
          "velocity": 0.3937007874015748,
          "duration": 0.015225149414064276
        },
        {
          "name": "D4",
          "midi": 62,
          "time": 95.1968615000009,
          "velocity": 0.6299212598425197,
          "duration": 0.015225149414064276
        },
        {
          "name": "F#3",
          "midi": 54,
          "time": 95.1968615000009,
          "velocity": 0.47244094488188976,
          "duration": 0.015225149414064276
        },
        {
          "name": "E2",
          "midi": 40,
          "time": 95.31497175000091,
          "velocity": 0.6299212598425197,
          "duration": 0.015225149414064276
        },
        {
          "name": "G#2",
          "midi": 44,
          "time": 95.31497175000091,
          "velocity": 0.31496062992125984,
          "duration": 0.015225149414064276
        },
        {
          "name": "D4",
          "midi": 62,
          "time": 95.31497175000091,
          "velocity": 0.6299212598425197,
          "duration": 0.015225149414064276
        },
        {
          "name": "F#3",
          "midi": 54,
          "time": 95.31497175000091,
          "velocity": 0.31496062992125984,
          "duration": 0.015225149414064276
        },
        {
          "name": "F#3",
          "midi": 54,
          "time": 95.43308200000091,
          "velocity": 0.47244094488188976,
          "duration": 0.015225149414064276
        },
        {
          "name": "G#2",
          "midi": 44,
          "time": 95.43308200000091,
          "velocity": 0.3937007874015748,
          "duration": 0.015225149414064276
        },
        {
          "name": "E2",
          "midi": 40,
          "time": 95.55119225000091,
          "velocity": 0.6299212598425197,
          "duration": 0.015225149414064276
        },
        {
          "name": "G#2",
          "midi": 44,
          "time": 95.55119225000091,
          "velocity": 0.31496062992125984,
          "duration": 0.015225149414064276
        },
        {
          "name": "D4",
          "midi": 62,
          "time": 95.55119225000091,
          "velocity": 0.6299212598425197,
          "duration": 0.015225149414064276
        },
        {
          "name": "F#3",
          "midi": 54,
          "time": 95.55119225000091,
          "velocity": 0.31496062992125984,
          "duration": 0.015225149414064276
        },
        {
          "name": "E2",
          "midi": 40,
          "time": 95.66930250000091,
          "velocity": 0.6299212598425197,
          "duration": 0.015225149414064276
        },
        {
          "name": "G#2",
          "midi": 44,
          "time": 95.66930250000091,
          "velocity": 0.3937007874015748,
          "duration": 0.015225149414064276
        },
        {
          "name": "D4",
          "midi": 62,
          "time": 95.66930250000091,
          "velocity": 0.6299212598425197,
          "duration": 0.015225149414064276
        },
        {
          "name": "F#3",
          "midi": 54,
          "time": 95.66930250000091,
          "velocity": 0.47244094488188976,
          "duration": 0.015225149414064276
        },
        {
          "name": "E2",
          "midi": 40,
          "time": 95.78741275000091,
          "velocity": 0.3937007874015748,
          "duration": 0.015225149414064276
        },
        {
          "name": "G#2",
          "midi": 44,
          "time": 95.78741275000091,
          "velocity": 0.31496062992125984,
          "duration": 0.015225149414064276
        },
        {
          "name": "D4",
          "midi": 62,
          "time": 95.78741275000091,
          "velocity": 0.3937007874015748,
          "duration": 0.015225149414064276
        },
        {
          "name": "F#3",
          "midi": 54,
          "time": 95.78741275000091,
          "velocity": 0.31496062992125984,
          "duration": 0.015225149414064276
        },
        {
          "name": "D4",
          "midi": 62,
          "time": 95.84369966601653,
          "velocity": 0.3937007874015748,
          "duration": 0.015225149414064276
        },
        {
          "name": "E2",
          "midi": 40,
          "time": 95.84369966601653,
          "velocity": 0.3937007874015748,
          "duration": 0.015225149414064276
        },
        {
          "name": "D4",
          "midi": 62,
          "time": 95.88245459179778,
          "velocity": 0.3937007874015748,
          "duration": 0.015225149414064276
        },
        {
          "name": "E2",
          "midi": 40,
          "time": 95.88245459179778,
          "velocity": 0.3937007874015748,
          "duration": 0.015225149414064276
        },
        {
          "name": "E2",
          "midi": 40,
          "time": 95.90552300000091,
          "velocity": 0.6299212598425197,
          "duration": 0.015225149414064276
        },
        {
          "name": "G#2",
          "midi": 44,
          "time": 95.90552300000091,
          "velocity": 0.3937007874015748,
          "duration": 0.015225149414064276
        },
        {
          "name": "D4",
          "midi": 62,
          "time": 95.90552300000091,
          "velocity": 0.6299212598425197,
          "duration": 0.015225149414064276
        },
        {
          "name": "F#3",
          "midi": 54,
          "time": 95.90552300000091,
          "velocity": 0.47244094488188976,
          "duration": 0.015225149414064276
        },
        {
          "name": "F#3",
          "midi": 54,
          "time": 96.02363325000091,
          "velocity": 0.31496062992125984,
          "duration": 0.015225149414064276
        },
        {
          "name": "G#2",
          "midi": 44,
          "time": 96.02363325000091,
          "velocity": 0.31496062992125984,
          "duration": 0.015225149414064276
        },
        {
          "name": "E2",
          "midi": 40,
          "time": 96.14174350000091,
          "velocity": 0.6299212598425197,
          "duration": 0.015225149414064276
        },
        {
          "name": "G#2",
          "midi": 44,
          "time": 96.14174350000091,
          "velocity": 0.3937007874015748,
          "duration": 0.015225149414064276
        },
        {
          "name": "D4",
          "midi": 62,
          "time": 96.14174350000091,
          "velocity": 0.6299212598425197,
          "duration": 0.015225149414064276
        },
        {
          "name": "F#3",
          "midi": 54,
          "time": 96.14174350000091,
          "velocity": 0.47244094488188976,
          "duration": 0.015225149414064276
        },
        {
          "name": "F#3",
          "midi": 54,
          "time": 96.25985375000091,
          "velocity": 0.31496062992125984,
          "duration": 0.015225149414064276
        },
        {
          "name": "G#2",
          "midi": 44,
          "time": 96.25985375000091,
          "velocity": 0.31496062992125984,
          "duration": 0.015225149414064276
        },
        {
          "name": "E2",
          "midi": 40,
          "time": 96.37796400000092,
          "velocity": 0.6299212598425197,
          "duration": 0.015225149414064276
        },
        {
          "name": "G#2",
          "midi": 44,
          "time": 96.37796400000092,
          "velocity": 0.3937007874015748,
          "duration": 0.015225149414064276
        },
        {
          "name": "D4",
          "midi": 62,
          "time": 96.37796400000092,
          "velocity": 0.6299212598425197,
          "duration": 0.015225149414064276
        },
        {
          "name": "F#3",
          "midi": 54,
          "time": 96.37796400000092,
          "velocity": 0.47244094488188976,
          "duration": 0.015225149414064276
        },
        {
          "name": "E2",
          "midi": 40,
          "time": 96.49607425000092,
          "velocity": 0.3937007874015748,
          "duration": 0.015225149414064276
        },
        {
          "name": "G#2",
          "midi": 44,
          "time": 96.49607425000092,
          "velocity": 0.31496062992125984,
          "duration": 0.015225149414064276
        },
        {
          "name": "D4",
          "midi": 62,
          "time": 96.49607425000092,
          "velocity": 0.3937007874015748,
          "duration": 0.015225149414064276
        },
        {
          "name": "F#3",
          "midi": 54,
          "time": 96.49607425000092,
          "velocity": 0.31496062992125984,
          "duration": 0.015225149414064276
        },
        {
          "name": "D4",
          "midi": 62,
          "time": 96.5394428574228,
          "velocity": 0.3937007874015748,
          "duration": 0.015225149414064276
        },
        {
          "name": "E2",
          "midi": 40,
          "time": 96.5394428574228,
          "velocity": 0.3937007874015748,
          "duration": 0.015225149414064276
        },
        {
          "name": "D4",
          "midi": 62,
          "time": 96.58281146484468,
          "velocity": 0.3937007874015748,
          "duration": 0.015225149414064276
        },
        {
          "name": "E2",
          "midi": 40,
          "time": 96.58281146484468,
          "velocity": 0.3937007874015748,
          "duration": 0.015225149414064276
        },
        {
          "name": "E2",
          "midi": 40,
          "time": 96.61418450000093,
          "velocity": 0.6299212598425197,
          "duration": 0.015225149414064276
        },
        {
          "name": "G#2",
          "midi": 44,
          "time": 96.61418450000093,
          "velocity": 0.3937007874015748,
          "duration": 0.015225149414064276
        },
        {
          "name": "D4",
          "midi": 62,
          "time": 96.61418450000093,
          "velocity": 0.6299212598425197,
          "duration": 0.015225149414064276
        },
        {
          "name": "F#3",
          "midi": 54,
          "time": 96.61418450000093,
          "velocity": 0.47244094488188976,
          "duration": 0.015225149414064276
        },
        {
          "name": "E2",
          "midi": 40,
          "time": 96.73229475000093,
          "velocity": 0.6299212598425197,
          "duration": 0.015225149414064276
        },
        {
          "name": "G#2",
          "midi": 44,
          "time": 96.73229475000093,
          "velocity": 0.31496062992125984,
          "duration": 0.015225149414064276
        },
        {
          "name": "D4",
          "midi": 62,
          "time": 96.73229475000093,
          "velocity": 0.6299212598425197,
          "duration": 0.015225149414064276
        },
        {
          "name": "F#3",
          "midi": 54,
          "time": 96.73229475000093,
          "velocity": 0.31496062992125984,
          "duration": 0.015225149414064276
        },
        {
          "name": "F#3",
          "midi": 54,
          "time": 96.85040500000093,
          "velocity": 0.47244094488188976,
          "duration": 0.015225149414064276
        },
        {
          "name": "G#2",
          "midi": 44,
          "time": 96.85040500000093,
          "velocity": 0.3937007874015748,
          "duration": 0.015225149414064276
        },
        {
          "name": "E2",
          "midi": 40,
          "time": 96.96851525000093,
          "velocity": 0.6299212598425197,
          "duration": 0.015225149414064276
        },
        {
          "name": "G#2",
          "midi": 44,
          "time": 96.96851525000093,
          "velocity": 0.31496062992125984,
          "duration": 0.015225149414064276
        },
        {
          "name": "D4",
          "midi": 62,
          "time": 96.96851525000093,
          "velocity": 0.6299212598425197,
          "duration": 0.015225149414064276
        },
        {
          "name": "F#3",
          "midi": 54,
          "time": 96.96851525000093,
          "velocity": 0.31496062992125984,
          "duration": 0.015225149414064276
        },
        {
          "name": "E2",
          "midi": 40,
          "time": 97.08662550000093,
          "velocity": 0.6299212598425197,
          "duration": 0.015225149414064276
        },
        {
          "name": "G#2",
          "midi": 44,
          "time": 97.08662550000093,
          "velocity": 0.3937007874015748,
          "duration": 0.015225149414064276
        },
        {
          "name": "D4",
          "midi": 62,
          "time": 97.08662550000093,
          "velocity": 0.6299212598425197,
          "duration": 0.015225149414064276
        },
        {
          "name": "F#3",
          "midi": 54,
          "time": 97.08662550000093,
          "velocity": 0.47244094488188976,
          "duration": 0.015225149414064276
        },
        {
          "name": "E2",
          "midi": 40,
          "time": 97.20473575000094,
          "velocity": 0.3937007874015748,
          "duration": 0.015225149414064276
        },
        {
          "name": "G#2",
          "midi": 44,
          "time": 97.20473575000094,
          "velocity": 0.31496062992125984,
          "duration": 0.015225149414064276
        },
        {
          "name": "D4",
          "midi": 62,
          "time": 97.20473575000094,
          "velocity": 0.3937007874015748,
          "duration": 0.015225149414064276
        },
        {
          "name": "F#3",
          "midi": 54,
          "time": 97.20473575000094,
          "velocity": 0.31496062992125984,
          "duration": 0.015225149414064276
        },
        {
          "name": "D4",
          "midi": 62,
          "time": 97.26102266601656,
          "velocity": 0.3937007874015748,
          "duration": 0.015225149414064276
        },
        {
          "name": "E2",
          "midi": 40,
          "time": 97.26102266601656,
          "velocity": 0.3937007874015748,
          "duration": 0.015225149414064276
        },
        {
          "name": "D4",
          "midi": 62,
          "time": 97.2997775917978,
          "velocity": 0.3937007874015748,
          "duration": 0.015225149414064276
        },
        {
          "name": "E2",
          "midi": 40,
          "time": 97.2997775917978,
          "velocity": 0.3937007874015748,
          "duration": 0.015225149414064276
        },
        {
          "name": "E2",
          "midi": 40,
          "time": 97.32284600000094,
          "velocity": 0.6299212598425197,
          "duration": 0.015225149414064276
        },
        {
          "name": "G#2",
          "midi": 44,
          "time": 97.32284600000094,
          "velocity": 0.3937007874015748,
          "duration": 0.015225149414064276
        },
        {
          "name": "D4",
          "midi": 62,
          "time": 97.32284600000094,
          "velocity": 0.6299212598425197,
          "duration": 0.015225149414064276
        },
        {
          "name": "F#3",
          "midi": 54,
          "time": 97.32284600000094,
          "velocity": 0.47244094488188976,
          "duration": 0.015225149414064276
        },
        {
          "name": "F#3",
          "midi": 54,
          "time": 97.44095625000094,
          "velocity": 0.31496062992125984,
          "duration": 0.015225149414064276
        },
        {
          "name": "G#2",
          "midi": 44,
          "time": 97.44095625000094,
          "velocity": 0.31496062992125984,
          "duration": 0.015225149414064276
        },
        {
          "name": "E2",
          "midi": 40,
          "time": 97.55906650000094,
          "velocity": 0.6299212598425197,
          "duration": 0.015225149414064276
        },
        {
          "name": "G#2",
          "midi": 44,
          "time": 97.55906650000094,
          "velocity": 0.3937007874015748,
          "duration": 0.015225149414064276
        },
        {
          "name": "D4",
          "midi": 62,
          "time": 97.55906650000094,
          "velocity": 0.6299212598425197,
          "duration": 0.015225149414064276
        },
        {
          "name": "F#3",
          "midi": 54,
          "time": 97.55906650000094,
          "velocity": 0.47244094488188976,
          "duration": 0.015225149414064276
        },
        {
          "name": "F#3",
          "midi": 54,
          "time": 97.67717675000094,
          "velocity": 0.31496062992125984,
          "duration": 0.015225149414064276
        },
        {
          "name": "G#2",
          "midi": 44,
          "time": 97.67717675000094,
          "velocity": 0.31496062992125984,
          "duration": 0.015225149414064276
        },
        {
          "name": "E2",
          "midi": 40,
          "time": 97.79528700000094,
          "velocity": 0.6299212598425197,
          "duration": 0.015225149414064276
        },
        {
          "name": "G#2",
          "midi": 44,
          "time": 97.79528700000094,
          "velocity": 0.3937007874015748,
          "duration": 0.015225149414064276
        },
        {
          "name": "D4",
          "midi": 62,
          "time": 97.79528700000094,
          "velocity": 0.6299212598425197,
          "duration": 0.015225149414064276
        },
        {
          "name": "F#3",
          "midi": 54,
          "time": 97.79528700000094,
          "velocity": 0.47244094488188976,
          "duration": 0.015225149414064276
        },
        {
          "name": "E2",
          "midi": 40,
          "time": 97.91339725000094,
          "velocity": 0.3937007874015748,
          "duration": 0.015225149414064276
        },
        {
          "name": "G#2",
          "midi": 44,
          "time": 97.91339725000094,
          "velocity": 0.31496062992125984,
          "duration": 0.015225149414064276
        },
        {
          "name": "D4",
          "midi": 62,
          "time": 97.91339725000094,
          "velocity": 0.3937007874015748,
          "duration": 0.015225149414064276
        },
        {
          "name": "F#3",
          "midi": 54,
          "time": 97.91339725000094,
          "velocity": 0.31496062992125984,
          "duration": 0.015225149414064276
        },
        {
          "name": "D4",
          "midi": 62,
          "time": 97.95676585742282,
          "velocity": 0.3937007874015748,
          "duration": 0.015225149414064276
        },
        {
          "name": "E2",
          "midi": 40,
          "time": 97.95676585742282,
          "velocity": 0.3937007874015748,
          "duration": 0.015225149414064276
        },
        {
          "name": "D4",
          "midi": 62,
          "time": 98.0001344648447,
          "velocity": 0.3937007874015748,
          "duration": 0.015225149414064276
        },
        {
          "name": "E2",
          "midi": 40,
          "time": 98.0001344648447,
          "velocity": 0.3937007874015748,
          "duration": 0.015225149414064276
        },
        {
          "name": "E2",
          "midi": 40,
          "time": 98.03150750000096,
          "velocity": 0.6299212598425197,
          "duration": 0.015225149414064276
        },
        {
          "name": "G#2",
          "midi": 44,
          "time": 98.03150750000096,
          "velocity": 0.3937007874015748,
          "duration": 0.015225149414064276
        },
        {
          "name": "D4",
          "midi": 62,
          "time": 98.03150750000096,
          "velocity": 0.6299212598425197,
          "duration": 0.015225149414064276
        },
        {
          "name": "F#3",
          "midi": 54,
          "time": 98.03150750000096,
          "velocity": 0.47244094488188976,
          "duration": 0.015225149414064276
        },
        {
          "name": "E2",
          "midi": 40,
          "time": 98.14961775000096,
          "velocity": 0.6299212598425197,
          "duration": 0.015225149414064276
        },
        {
          "name": "G#2",
          "midi": 44,
          "time": 98.14961775000096,
          "velocity": 0.31496062992125984,
          "duration": 0.015225149414064276
        },
        {
          "name": "D4",
          "midi": 62,
          "time": 98.14961775000096,
          "velocity": 0.6299212598425197,
          "duration": 0.015225149414064276
        },
        {
          "name": "F#3",
          "midi": 54,
          "time": 98.14961775000096,
          "velocity": 0.31496062992125984,
          "duration": 0.015225149414064276
        },
        {
          "name": "F#3",
          "midi": 54,
          "time": 98.26772800000096,
          "velocity": 0.47244094488188976,
          "duration": 0.015225149414064276
        },
        {
          "name": "G#2",
          "midi": 44,
          "time": 98.26772800000096,
          "velocity": 0.3937007874015748,
          "duration": 0.015225149414064276
        },
        {
          "name": "E2",
          "midi": 40,
          "time": 98.38583825000096,
          "velocity": 0.6299212598425197,
          "duration": 0.015225149414064276
        },
        {
          "name": "G#2",
          "midi": 44,
          "time": 98.38583825000096,
          "velocity": 0.31496062992125984,
          "duration": 0.015225149414064276
        },
        {
          "name": "D4",
          "midi": 62,
          "time": 98.38583825000096,
          "velocity": 0.6299212598425197,
          "duration": 0.015225149414064276
        },
        {
          "name": "F#3",
          "midi": 54,
          "time": 98.38583825000096,
          "velocity": 0.31496062992125984,
          "duration": 0.015225149414064276
        },
        {
          "name": "E2",
          "midi": 40,
          "time": 98.50394850000096,
          "velocity": 0.6299212598425197,
          "duration": 0.015225149414064276
        },
        {
          "name": "G#2",
          "midi": 44,
          "time": 98.50394850000096,
          "velocity": 0.3937007874015748,
          "duration": 0.015225149414064276
        },
        {
          "name": "D4",
          "midi": 62,
          "time": 98.50394850000096,
          "velocity": 0.6299212598425197,
          "duration": 0.015225149414064276
        },
        {
          "name": "F#3",
          "midi": 54,
          "time": 98.50394850000096,
          "velocity": 0.47244094488188976,
          "duration": 0.015225149414064276
        },
        {
          "name": "E2",
          "midi": 40,
          "time": 98.62205875000096,
          "velocity": 0.3937007874015748,
          "duration": 0.015225149414064276
        },
        {
          "name": "G#2",
          "midi": 44,
          "time": 98.62205875000096,
          "velocity": 0.31496062992125984,
          "duration": 0.015225149414064276
        },
        {
          "name": "D4",
          "midi": 62,
          "time": 98.62205875000096,
          "velocity": 0.3937007874015748,
          "duration": 0.015225149414064276
        },
        {
          "name": "F#3",
          "midi": 54,
          "time": 98.62205875000096,
          "velocity": 0.31496062992125984,
          "duration": 0.015225149414064276
        },
        {
          "name": "D4",
          "midi": 62,
          "time": 98.67834566601658,
          "velocity": 0.3937007874015748,
          "duration": 0.015225149414064276
        },
        {
          "name": "E2",
          "midi": 40,
          "time": 98.67834566601658,
          "velocity": 0.3937007874015748,
          "duration": 0.015225149414064276
        },
        {
          "name": "D4",
          "midi": 62,
          "time": 98.71710059179783,
          "velocity": 0.3937007874015748,
          "duration": 0.015225149414064276
        },
        {
          "name": "E2",
          "midi": 40,
          "time": 98.71710059179783,
          "velocity": 0.3937007874015748,
          "duration": 0.015225149414064276
        },
        {
          "name": "E2",
          "midi": 40,
          "time": 98.74016900000096,
          "velocity": 0.6299212598425197,
          "duration": 0.015225149414064276
        },
        {
          "name": "G#2",
          "midi": 44,
          "time": 98.74016900000096,
          "velocity": 0.3937007874015748,
          "duration": 0.015225149414064276
        },
        {
          "name": "D4",
          "midi": 62,
          "time": 98.74016900000096,
          "velocity": 0.6299212598425197,
          "duration": 0.015225149414064276
        },
        {
          "name": "F#3",
          "midi": 54,
          "time": 98.74016900000096,
          "velocity": 0.47244094488188976,
          "duration": 0.015225149414064276
        },
        {
          "name": "F#3",
          "midi": 54,
          "time": 98.85827925000096,
          "velocity": 0.31496062992125984,
          "duration": 0.015225149414064276
        },
        {
          "name": "G#2",
          "midi": 44,
          "time": 98.85827925000096,
          "velocity": 0.31496062992125984,
          "duration": 0.015225149414064276
        },
        {
          "name": "E2",
          "midi": 40,
          "time": 98.97638950000096,
          "velocity": 0.6299212598425197,
          "duration": 0.015225149414064276
        },
        {
          "name": "G#2",
          "midi": 44,
          "time": 98.97638950000096,
          "velocity": 0.3937007874015748,
          "duration": 0.015225149414064276
        },
        {
          "name": "D4",
          "midi": 62,
          "time": 98.97638950000096,
          "velocity": 0.6299212598425197,
          "duration": 0.015225149414064276
        },
        {
          "name": "F#3",
          "midi": 54,
          "time": 98.97638950000096,
          "velocity": 0.47244094488188976,
          "duration": 0.015225149414064276
        },
        {
          "name": "F#3",
          "midi": 54,
          "time": 99.09449975000096,
          "velocity": 0.31496062992125984,
          "duration": 0.015225149414064276
        },
        {
          "name": "G#2",
          "midi": 44,
          "time": 99.09449975000096,
          "velocity": 0.31496062992125984,
          "duration": 0.015225149414064276
        },
        {
          "name": "E2",
          "midi": 40,
          "time": 99.21261000000096,
          "velocity": 0.6299212598425197,
          "duration": 0.015225149414064276
        },
        {
          "name": "G#2",
          "midi": 44,
          "time": 99.21261000000096,
          "velocity": 0.3937007874015748,
          "duration": 0.015225149414064276
        },
        {
          "name": "D4",
          "midi": 62,
          "time": 99.21261000000096,
          "velocity": 0.6299212598425197,
          "duration": 0.015225149414064276
        },
        {
          "name": "F#3",
          "midi": 54,
          "time": 99.21261000000096,
          "velocity": 0.47244094488188976,
          "duration": 0.015225149414064276
        },
        {
          "name": "E2",
          "midi": 40,
          "time": 99.33072025000097,
          "velocity": 0.3937007874015748,
          "duration": 0.015225149414064276
        },
        {
          "name": "G#2",
          "midi": 44,
          "time": 99.33072025000097,
          "velocity": 0.31496062992125984,
          "duration": 0.015225149414064276
        },
        {
          "name": "D4",
          "midi": 62,
          "time": 99.33072025000097,
          "velocity": 0.3937007874015748,
          "duration": 0.015225149414064276
        },
        {
          "name": "F#3",
          "midi": 54,
          "time": 99.33072025000097,
          "velocity": 0.31496062992125984,
          "duration": 0.015225149414064276
        },
        {
          "name": "D4",
          "midi": 62,
          "time": 99.37408885742285,
          "velocity": 0.3937007874015748,
          "duration": 0.015225149414064276
        },
        {
          "name": "E2",
          "midi": 40,
          "time": 99.37408885742285,
          "velocity": 0.3937007874015748,
          "duration": 0.015225149414064276
        },
        {
          "name": "D4",
          "midi": 62,
          "time": 99.41745746484473,
          "velocity": 0.3937007874015748,
          "duration": 0.015225149414064276
        },
        {
          "name": "E2",
          "midi": 40,
          "time": 99.41745746484473,
          "velocity": 0.3937007874015748,
          "duration": 0.015225149414064276
        },
        {
          "name": "E2",
          "midi": 40,
          "time": 99.44883050000098,
          "velocity": 0.6299212598425197,
          "duration": 0.015225149414064276
        },
        {
          "name": "G#2",
          "midi": 44,
          "time": 99.44883050000098,
          "velocity": 0.3937007874015748,
          "duration": 0.015225149414064276
        },
        {
          "name": "D4",
          "midi": 62,
          "time": 99.44883050000098,
          "velocity": 0.6299212598425197,
          "duration": 0.015225149414064276
        },
        {
          "name": "F#3",
          "midi": 54,
          "time": 99.44883050000098,
          "velocity": 0.47244094488188976,
          "duration": 0.015225149414064276
        },
        {
          "name": "E2",
          "midi": 40,
          "time": 99.56694075000098,
          "velocity": 0.6299212598425197,
          "duration": 0.015225149414064276
        },
        {
          "name": "G#2",
          "midi": 44,
          "time": 99.56694075000098,
          "velocity": 0.31496062992125984,
          "duration": 0.015225149414064276
        },
        {
          "name": "D4",
          "midi": 62,
          "time": 99.56694075000098,
          "velocity": 0.6299212598425197,
          "duration": 0.015225149414064276
        },
        {
          "name": "F#3",
          "midi": 54,
          "time": 99.56694075000098,
          "velocity": 0.31496062992125984,
          "duration": 0.015225149414064276
        },
        {
          "name": "F#3",
          "midi": 54,
          "time": 99.68505100000098,
          "velocity": 0.47244094488188976,
          "duration": 0.015225149414064276
        },
        {
          "name": "G#2",
          "midi": 44,
          "time": 99.68505100000098,
          "velocity": 0.3937007874015748,
          "duration": 0.015225149414064276
        },
        {
          "name": "E2",
          "midi": 40,
          "time": 99.80316125000098,
          "velocity": 0.6299212598425197,
          "duration": 0.015225149414064276
        },
        {
          "name": "G#2",
          "midi": 44,
          "time": 99.80316125000098,
          "velocity": 0.31496062992125984,
          "duration": 0.015225149414064276
        },
        {
          "name": "D4",
          "midi": 62,
          "time": 99.80316125000098,
          "velocity": 0.6299212598425197,
          "duration": 0.015225149414064276
        },
        {
          "name": "F#3",
          "midi": 54,
          "time": 99.80316125000098,
          "velocity": 0.31496062992125984,
          "duration": 0.015225149414064276
        },
        {
          "name": "E2",
          "midi": 40,
          "time": 99.92127150000098,
          "velocity": 0.6299212598425197,
          "duration": 0.015225149414064276
        },
        {
          "name": "G#2",
          "midi": 44,
          "time": 99.92127150000098,
          "velocity": 0.3937007874015748,
          "duration": 0.015225149414064276
        },
        {
          "name": "D4",
          "midi": 62,
          "time": 99.92127150000098,
          "velocity": 0.6299212598425197,
          "duration": 0.015225149414064276
        },
        {
          "name": "F#3",
          "midi": 54,
          "time": 99.92127150000098,
          "velocity": 0.47244094488188976,
          "duration": 0.015225149414064276
        },
        {
          "name": "E2",
          "midi": 40,
          "time": 100.03938175000098,
          "velocity": 0.3937007874015748,
          "duration": 0.015225149414064276
        },
        {
          "name": "G#2",
          "midi": 44,
          "time": 100.03938175000098,
          "velocity": 0.31496062992125984,
          "duration": 0.015225149414064276
        },
        {
          "name": "D4",
          "midi": 62,
          "time": 100.03938175000098,
          "velocity": 0.3937007874015748,
          "duration": 0.015225149414064276
        },
        {
          "name": "F#3",
          "midi": 54,
          "time": 100.03938175000098,
          "velocity": 0.31496062992125984,
          "duration": 0.015225149414064276
        },
        {
          "name": "D4",
          "midi": 62,
          "time": 100.0956686660166,
          "velocity": 0.3937007874015748,
          "duration": 0.015225149414064276
        },
        {
          "name": "E2",
          "midi": 40,
          "time": 100.0956686660166,
          "velocity": 0.3937007874015748,
          "duration": 0.015225149414064276
        },
        {
          "name": "D4",
          "midi": 62,
          "time": 100.13442359179786,
          "velocity": 0.3937007874015748,
          "duration": 0.015225149414064276
        },
        {
          "name": "E2",
          "midi": 40,
          "time": 100.13442359179786,
          "velocity": 0.3937007874015748,
          "duration": 0.015225149414064276
        },
        {
          "name": "E2",
          "midi": 40,
          "time": 100.15749200000099,
          "velocity": 0.6299212598425197,
          "duration": 0.015225149414064276
        },
        {
          "name": "G#2",
          "midi": 44,
          "time": 100.15749200000099,
          "velocity": 0.3937007874015748,
          "duration": 0.015225149414064276
        },
        {
          "name": "D4",
          "midi": 62,
          "time": 100.15749200000099,
          "velocity": 0.6299212598425197,
          "duration": 0.015225149414064276
        },
        {
          "name": "F#3",
          "midi": 54,
          "time": 100.15749200000099,
          "velocity": 0.47244094488188976,
          "duration": 0.015225149414064276
        },
        {
          "name": "F#3",
          "midi": 54,
          "time": 100.27560225000099,
          "velocity": 0.31496062992125984,
          "duration": 0.015225149414064276
        },
        {
          "name": "G#2",
          "midi": 44,
          "time": 100.27560225000099,
          "velocity": 0.31496062992125984,
          "duration": 0.015225149414064276
        },
        {
          "name": "E2",
          "midi": 40,
          "time": 100.39371250000099,
          "velocity": 0.6299212598425197,
          "duration": 0.015225149414064276
        },
        {
          "name": "G#2",
          "midi": 44,
          "time": 100.39371250000099,
          "velocity": 0.3937007874015748,
          "duration": 0.015225149414064276
        },
        {
          "name": "D4",
          "midi": 62,
          "time": 100.39371250000099,
          "velocity": 0.6299212598425197,
          "duration": 0.015225149414064276
        },
        {
          "name": "F#3",
          "midi": 54,
          "time": 100.39371250000099,
          "velocity": 0.47244094488188976,
          "duration": 0.015225149414064276
        },
        {
          "name": "F#3",
          "midi": 54,
          "time": 100.51182275000099,
          "velocity": 0.31496062992125984,
          "duration": 0.015225149414064276
        },
        {
          "name": "G#2",
          "midi": 44,
          "time": 100.51182275000099,
          "velocity": 0.31496062992125984,
          "duration": 0.015225149414064276
        },
        {
          "name": "E2",
          "midi": 40,
          "time": 100.62993300000099,
          "velocity": 0.6299212598425197,
          "duration": 0.015225149414064276
        },
        {
          "name": "G#2",
          "midi": 44,
          "time": 100.62993300000099,
          "velocity": 0.3937007874015748,
          "duration": 0.015225149414064276
        },
        {
          "name": "D4",
          "midi": 62,
          "time": 100.62993300000099,
          "velocity": 0.6299212598425197,
          "duration": 0.015225149414064276
        },
        {
          "name": "F#3",
          "midi": 54,
          "time": 100.62993300000099,
          "velocity": 0.47244094488188976,
          "duration": 0.015225149414064276
        },
        {
          "name": "E2",
          "midi": 40,
          "time": 100.74804325000099,
          "velocity": 0.3937007874015748,
          "duration": 0.015225149414064276
        },
        {
          "name": "G#2",
          "midi": 44,
          "time": 100.74804325000099,
          "velocity": 0.31496062992125984,
          "duration": 0.015225149414064276
        },
        {
          "name": "D4",
          "midi": 62,
          "time": 100.74804325000099,
          "velocity": 0.3937007874015748,
          "duration": 0.015225149414064276
        },
        {
          "name": "F#3",
          "midi": 54,
          "time": 100.74804325000099,
          "velocity": 0.31496062992125984,
          "duration": 0.015225149414064276
        },
        {
          "name": "D4",
          "midi": 62,
          "time": 100.79141185742287,
          "velocity": 0.3937007874015748,
          "duration": 0.015225149414064276
        },
        {
          "name": "E2",
          "midi": 40,
          "time": 100.79141185742287,
          "velocity": 0.3937007874015748,
          "duration": 0.015225149414064276
        },
        {
          "name": "D4",
          "midi": 62,
          "time": 100.83478046484475,
          "velocity": 0.3937007874015748,
          "duration": 0.015225149414064276
        },
        {
          "name": "E2",
          "midi": 40,
          "time": 100.83478046484475,
          "velocity": 0.3937007874015748,
          "duration": 0.015225149414064276
        },
        {
          "name": "E2",
          "midi": 40,
          "time": 100.866153500001,
          "velocity": 0.6299212598425197,
          "duration": 0.015225149414064276
        },
        {
          "name": "G#2",
          "midi": 44,
          "time": 100.866153500001,
          "velocity": 0.3937007874015748,
          "duration": 0.015225149414064276
        },
        {
          "name": "D4",
          "midi": 62,
          "time": 100.866153500001,
          "velocity": 0.6299212598425197,
          "duration": 0.015225149414064276
        },
        {
          "name": "F#3",
          "midi": 54,
          "time": 100.866153500001,
          "velocity": 0.47244094488188976,
          "duration": 0.015225149414064276
        },
        {
          "name": "E2",
          "midi": 40,
          "time": 100.984263750001,
          "velocity": 0.6299212598425197,
          "duration": 0.015225149414064276
        },
        {
          "name": "G#2",
          "midi": 44,
          "time": 100.984263750001,
          "velocity": 0.31496062992125984,
          "duration": 0.015225149414064276
        },
        {
          "name": "D4",
          "midi": 62,
          "time": 100.984263750001,
          "velocity": 0.6299212598425197,
          "duration": 0.015225149414064276
        },
        {
          "name": "F#3",
          "midi": 54,
          "time": 100.984263750001,
          "velocity": 0.31496062992125984,
          "duration": 0.015225149414064276
        },
        {
          "name": "F#3",
          "midi": 54,
          "time": 101.102374000001,
          "velocity": 0.47244094488188976,
          "duration": 0.015225149414064276
        },
        {
          "name": "G#2",
          "midi": 44,
          "time": 101.102374000001,
          "velocity": 0.3937007874015748,
          "duration": 0.015225149414064276
        },
        {
          "name": "E2",
          "midi": 40,
          "time": 101.22048425000101,
          "velocity": 0.6299212598425197,
          "duration": 0.015225149414064276
        },
        {
          "name": "G#2",
          "midi": 44,
          "time": 101.22048425000101,
          "velocity": 0.31496062992125984,
          "duration": 0.015225149414064276
        },
        {
          "name": "D4",
          "midi": 62,
          "time": 101.22048425000101,
          "velocity": 0.6299212598425197,
          "duration": 0.015225149414064276
        },
        {
          "name": "F#3",
          "midi": 54,
          "time": 101.22048425000101,
          "velocity": 0.31496062992125984,
          "duration": 0.015225149414064276
        },
        {
          "name": "E2",
          "midi": 40,
          "time": 101.33859450000101,
          "velocity": 0.6299212598425197,
          "duration": 0.015225149414064276
        },
        {
          "name": "G#2",
          "midi": 44,
          "time": 101.33859450000101,
          "velocity": 0.3937007874015748,
          "duration": 0.015225149414064276
        },
        {
          "name": "D4",
          "midi": 62,
          "time": 101.33859450000101,
          "velocity": 0.6299212598425197,
          "duration": 0.015225149414064276
        },
        {
          "name": "F#3",
          "midi": 54,
          "time": 101.33859450000101,
          "velocity": 0.47244094488188976,
          "duration": 0.015225149414064276
        },
        {
          "name": "E2",
          "midi": 40,
          "time": 101.45670475000101,
          "velocity": 0.3937007874015748,
          "duration": 0.015225149414064276
        },
        {
          "name": "G#2",
          "midi": 44,
          "time": 101.45670475000101,
          "velocity": 0.31496062992125984,
          "duration": 0.015225149414064276
        },
        {
          "name": "D4",
          "midi": 62,
          "time": 101.45670475000101,
          "velocity": 0.3937007874015748,
          "duration": 0.015225149414064276
        },
        {
          "name": "F#3",
          "midi": 54,
          "time": 101.45670475000101,
          "velocity": 0.31496062992125984,
          "duration": 0.015225149414064276
        },
        {
          "name": "D4",
          "midi": 62,
          "time": 101.51299166601663,
          "velocity": 0.3937007874015748,
          "duration": 0.015225149414064276
        },
        {
          "name": "E2",
          "midi": 40,
          "time": 101.51299166601663,
          "velocity": 0.3937007874015748,
          "duration": 0.015225149414064276
        },
        {
          "name": "D4",
          "midi": 62,
          "time": 101.55174659179788,
          "velocity": 0.3937007874015748,
          "duration": 0.015225149414064276
        },
        {
          "name": "E2",
          "midi": 40,
          "time": 101.55174659179788,
          "velocity": 0.3937007874015748,
          "duration": 0.015225149414064276
        },
        {
          "name": "E2",
          "midi": 40,
          "time": 101.57481500000101,
          "velocity": 0.6299212598425197,
          "duration": 0.015225149414064276
        },
        {
          "name": "G#2",
          "midi": 44,
          "time": 101.57481500000101,
          "velocity": 0.3937007874015748,
          "duration": 0.015225149414064276
        },
        {
          "name": "D4",
          "midi": 62,
          "time": 101.57481500000101,
          "velocity": 0.6299212598425197,
          "duration": 0.015225149414064276
        },
        {
          "name": "F#3",
          "midi": 54,
          "time": 101.57481500000101,
          "velocity": 0.47244094488188976,
          "duration": 0.015225149414064276
        },
        {
          "name": "F#3",
          "midi": 54,
          "time": 101.69292525000101,
          "velocity": 0.31496062992125984,
          "duration": 0.015225149414064276
        },
        {
          "name": "G#2",
          "midi": 44,
          "time": 101.69292525000101,
          "velocity": 0.31496062992125984,
          "duration": 0.015225149414064276
        },
        {
          "name": "E2",
          "midi": 40,
          "time": 101.81103550000101,
          "velocity": 0.6299212598425197,
          "duration": 0.015225149414064276
        },
        {
          "name": "G#2",
          "midi": 44,
          "time": 101.81103550000101,
          "velocity": 0.3937007874015748,
          "duration": 0.015225149414064276
        },
        {
          "name": "D4",
          "midi": 62,
          "time": 101.81103550000101,
          "velocity": 0.6299212598425197,
          "duration": 0.015225149414064276
        },
        {
          "name": "F#3",
          "midi": 54,
          "time": 101.81103550000101,
          "velocity": 0.47244094488188976,
          "duration": 0.015225149414064276
        },
        {
          "name": "F#3",
          "midi": 54,
          "time": 101.92914575000101,
          "velocity": 0.31496062992125984,
          "duration": 0.015225149414064276
        },
        {
          "name": "G#2",
          "midi": 44,
          "time": 101.92914575000101,
          "velocity": 0.31496062992125984,
          "duration": 0.015225149414064276
        },
        {
          "name": "E2",
          "midi": 40,
          "time": 102.04725600000101,
          "velocity": 0.6299212598425197,
          "duration": 0.015225149414064276
        },
        {
          "name": "G#2",
          "midi": 44,
          "time": 102.04725600000101,
          "velocity": 0.3937007874015748,
          "duration": 0.015225149414064276
        },
        {
          "name": "D4",
          "midi": 62,
          "time": 102.04725600000101,
          "velocity": 0.6299212598425197,
          "duration": 0.015225149414064276
        },
        {
          "name": "F#3",
          "midi": 54,
          "time": 102.04725600000101,
          "velocity": 0.47244094488188976,
          "duration": 0.015225149414064276
        },
        {
          "name": "E2",
          "midi": 40,
          "time": 102.16536625000101,
          "velocity": 0.3937007874015748,
          "duration": 0.015225149414064276
        },
        {
          "name": "G#2",
          "midi": 44,
          "time": 102.16536625000101,
          "velocity": 0.31496062992125984,
          "duration": 0.015225149414064276
        },
        {
          "name": "D4",
          "midi": 62,
          "time": 102.16536625000101,
          "velocity": 0.3937007874015748,
          "duration": 0.015225149414064276
        },
        {
          "name": "F#3",
          "midi": 54,
          "time": 102.16536625000101,
          "velocity": 0.31496062992125984,
          "duration": 0.015225149414064276
        },
        {
          "name": "D4",
          "midi": 62,
          "time": 102.2087348574229,
          "velocity": 0.3937007874015748,
          "duration": 0.015225149414064276
        },
        {
          "name": "E2",
          "midi": 40,
          "time": 102.2087348574229,
          "velocity": 0.3937007874015748,
          "duration": 0.015225149414064276
        },
        {
          "name": "D4",
          "midi": 62,
          "time": 102.25210346484478,
          "velocity": 0.3937007874015748,
          "duration": 0.015225149414064276
        },
        {
          "name": "E2",
          "midi": 40,
          "time": 102.25210346484478,
          "velocity": 0.3937007874015748,
          "duration": 0.015225149414064276
        },
        {
          "name": "E2",
          "midi": 40,
          "time": 102.28347650000103,
          "velocity": 0.6299212598425197,
          "duration": 0.015225149414064276
        },
        {
          "name": "G#2",
          "midi": 44,
          "time": 102.28347650000103,
          "velocity": 0.3937007874015748,
          "duration": 0.015225149414064276
        },
        {
          "name": "D4",
          "midi": 62,
          "time": 102.28347650000103,
          "velocity": 0.6299212598425197,
          "duration": 0.015225149414064276
        },
        {
          "name": "F#3",
          "midi": 54,
          "time": 102.28347650000103,
          "velocity": 0.47244094488188976,
          "duration": 0.015225149414064276
        },
        {
          "name": "E2",
          "midi": 40,
          "time": 102.40158675000103,
          "velocity": 0.6299212598425197,
          "duration": 0.015225149414064276
        },
        {
          "name": "G#2",
          "midi": 44,
          "time": 102.40158675000103,
          "velocity": 0.31496062992125984,
          "duration": 0.015225149414064276
        },
        {
          "name": "D4",
          "midi": 62,
          "time": 102.40158675000103,
          "velocity": 0.6299212598425197,
          "duration": 0.015225149414064276
        },
        {
          "name": "F#3",
          "midi": 54,
          "time": 102.40158675000103,
          "velocity": 0.31496062992125984,
          "duration": 0.015225149414064276
        },
        {
          "name": "F#3",
          "midi": 54,
          "time": 102.51969700000103,
          "velocity": 0.47244094488188976,
          "duration": 0.015225149414064276
        },
        {
          "name": "G#2",
          "midi": 44,
          "time": 102.51969700000103,
          "velocity": 0.3937007874015748,
          "duration": 0.015225149414064276
        },
        {
          "name": "E2",
          "midi": 40,
          "time": 102.63780725000103,
          "velocity": 0.6299212598425197,
          "duration": 0.015225149414064276
        },
        {
          "name": "G#2",
          "midi": 44,
          "time": 102.63780725000103,
          "velocity": 0.31496062992125984,
          "duration": 0.015225149414064276
        },
        {
          "name": "D4",
          "midi": 62,
          "time": 102.63780725000103,
          "velocity": 0.6299212598425197,
          "duration": 0.015225149414064276
        },
        {
          "name": "F#3",
          "midi": 54,
          "time": 102.63780725000103,
          "velocity": 0.31496062992125984,
          "duration": 0.015225149414064276
        },
        {
          "name": "E2",
          "midi": 40,
          "time": 102.75591750000103,
          "velocity": 0.6299212598425197,
          "duration": 0.015225149414064276
        },
        {
          "name": "G#2",
          "midi": 44,
          "time": 102.75591750000103,
          "velocity": 0.3937007874015748,
          "duration": 0.015225149414064276
        },
        {
          "name": "D4",
          "midi": 62,
          "time": 102.75591750000103,
          "velocity": 0.6299212598425197,
          "duration": 0.015225149414064276
        },
        {
          "name": "F#3",
          "midi": 54,
          "time": 102.75591750000103,
          "velocity": 0.47244094488188976,
          "duration": 0.015225149414064276
        },
        {
          "name": "E2",
          "midi": 40,
          "time": 102.87402775000103,
          "velocity": 0.3937007874015748,
          "duration": 0.015225149414064276
        },
        {
          "name": "G#2",
          "midi": 44,
          "time": 102.87402775000103,
          "velocity": 0.31496062992125984,
          "duration": 0.015225149414064276
        },
        {
          "name": "D4",
          "midi": 62,
          "time": 102.87402775000103,
          "velocity": 0.3937007874015748,
          "duration": 0.015225149414064276
        },
        {
          "name": "F#3",
          "midi": 54,
          "time": 102.87402775000103,
          "velocity": 0.31496062992125984,
          "duration": 0.015225149414064276
        },
        {
          "name": "D4",
          "midi": 62,
          "time": 102.93031466601666,
          "velocity": 0.3937007874015748,
          "duration": 0.015225149414064276
        },
        {
          "name": "E2",
          "midi": 40,
          "time": 102.93031466601666,
          "velocity": 0.3937007874015748,
          "duration": 0.015225149414064276
        },
        {
          "name": "D4",
          "midi": 62,
          "time": 102.9690695917979,
          "velocity": 0.3937007874015748,
          "duration": 0.015225149414064276
        },
        {
          "name": "E2",
          "midi": 40,
          "time": 102.9690695917979,
          "velocity": 0.3937007874015748,
          "duration": 0.015225149414064276
        },
        {
          "name": "E2",
          "midi": 40,
          "time": 102.99213800000103,
          "velocity": 0.6299212598425197,
          "duration": 0.015225149414064276
        },
        {
          "name": "G#2",
          "midi": 44,
          "time": 102.99213800000103,
          "velocity": 0.3937007874015748,
          "duration": 0.015225149414064276
        },
        {
          "name": "D4",
          "midi": 62,
          "time": 102.99213800000103,
          "velocity": 0.6299212598425197,
          "duration": 0.015225149414064276
        },
        {
          "name": "F#3",
          "midi": 54,
          "time": 102.99213800000103,
          "velocity": 0.47244094488188976,
          "duration": 0.015225149414064276
        },
        {
          "name": "F#3",
          "midi": 54,
          "time": 103.11024825000104,
          "velocity": 0.31496062992125984,
          "duration": 0.015225149414064276
        },
        {
          "name": "G#2",
          "midi": 44,
          "time": 103.11024825000104,
          "velocity": 0.31496062992125984,
          "duration": 0.015225149414064276
        },
        {
          "name": "E2",
          "midi": 40,
          "time": 103.22835850000104,
          "velocity": 0.6299212598425197,
          "duration": 0.015225149414064276
        },
        {
          "name": "G#2",
          "midi": 44,
          "time": 103.22835850000104,
          "velocity": 0.3937007874015748,
          "duration": 0.015225149414064276
        },
        {
          "name": "D4",
          "midi": 62,
          "time": 103.22835850000104,
          "velocity": 0.6299212598425197,
          "duration": 0.015225149414064276
        },
        {
          "name": "F#3",
          "midi": 54,
          "time": 103.22835850000104,
          "velocity": 0.47244094488188976,
          "duration": 0.015225149414064276
        },
        {
          "name": "F#3",
          "midi": 54,
          "time": 103.34646875000104,
          "velocity": 0.31496062992125984,
          "duration": 0.015225149414064276
        },
        {
          "name": "G#2",
          "midi": 44,
          "time": 103.34646875000104,
          "velocity": 0.31496062992125984,
          "duration": 0.015225149414064276
        },
        {
          "name": "E2",
          "midi": 40,
          "time": 103.46457900000104,
          "velocity": 0.6299212598425197,
          "duration": 0.015225149414064276
        },
        {
          "name": "G#2",
          "midi": 44,
          "time": 103.46457900000104,
          "velocity": 0.3937007874015748,
          "duration": 0.015225149414064276
        },
        {
          "name": "D4",
          "midi": 62,
          "time": 103.46457900000104,
          "velocity": 0.6299212598425197,
          "duration": 0.015225149414064276
        },
        {
          "name": "F#3",
          "midi": 54,
          "time": 103.46457900000104,
          "velocity": 0.47244094488188976,
          "duration": 0.015225149414064276
        },
        {
          "name": "E2",
          "midi": 40,
          "time": 103.58268925000104,
          "velocity": 0.3937007874015748,
          "duration": 0.015225149414064276
        },
        {
          "name": "G#2",
          "midi": 44,
          "time": 103.58268925000104,
          "velocity": 0.31496062992125984,
          "duration": 0.015225149414064276
        },
        {
          "name": "D4",
          "midi": 62,
          "time": 103.58268925000104,
          "velocity": 0.3937007874015748,
          "duration": 0.015225149414064276
        },
        {
          "name": "F#3",
          "midi": 54,
          "time": 103.58268925000104,
          "velocity": 0.31496062992125984,
          "duration": 0.015225149414064276
        },
        {
          "name": "D4",
          "midi": 62,
          "time": 103.62605785742292,
          "velocity": 0.3937007874015748,
          "duration": 0.015225149414064276
        },
        {
          "name": "E2",
          "midi": 40,
          "time": 103.62605785742292,
          "velocity": 0.3937007874015748,
          "duration": 0.015225149414064276
        },
        {
          "name": "D4",
          "midi": 62,
          "time": 103.6694264648448,
          "velocity": 0.3937007874015748,
          "duration": 0.015225149414064276
        },
        {
          "name": "E2",
          "midi": 40,
          "time": 103.6694264648448,
          "velocity": 0.3937007874015748,
          "duration": 0.015225149414064276
        },
        {
          "name": "E2",
          "midi": 40,
          "time": 103.70079950000105,
          "velocity": 0.6299212598425197,
          "duration": 0.015225149414064276
        },
        {
          "name": "G#2",
          "midi": 44,
          "time": 103.70079950000105,
          "velocity": 0.3937007874015748,
          "duration": 0.015225149414064276
        },
        {
          "name": "D4",
          "midi": 62,
          "time": 103.70079950000105,
          "velocity": 0.6299212598425197,
          "duration": 0.015225149414064276
        },
        {
          "name": "F#3",
          "midi": 54,
          "time": 103.70079950000105,
          "velocity": 0.47244094488188976,
          "duration": 0.015225149414064276
        },
        {
          "name": "E2",
          "midi": 40,
          "time": 103.81890975000105,
          "velocity": 0.6299212598425197,
          "duration": 0.015225149414064276
        },
        {
          "name": "G#2",
          "midi": 44,
          "time": 103.81890975000105,
          "velocity": 0.31496062992125984,
          "duration": 0.015225149414064276
        },
        {
          "name": "D4",
          "midi": 62,
          "time": 103.81890975000105,
          "velocity": 0.6299212598425197,
          "duration": 0.015225149414064276
        },
        {
          "name": "F#3",
          "midi": 54,
          "time": 103.81890975000105,
          "velocity": 0.31496062992125984,
          "duration": 0.015225149414064276
        },
        {
          "name": "F#3",
          "midi": 54,
          "time": 103.93702000000106,
          "velocity": 0.47244094488188976,
          "duration": 0.015225149414064276
        },
        {
          "name": "G#2",
          "midi": 44,
          "time": 103.93702000000106,
          "velocity": 0.3937007874015748,
          "duration": 0.015225149414064276
        },
        {
          "name": "E2",
          "midi": 40,
          "time": 104.05513025000106,
          "velocity": 0.6299212598425197,
          "duration": 0.015225149414064276
        },
        {
          "name": "G#2",
          "midi": 44,
          "time": 104.05513025000106,
          "velocity": 0.31496062992125984,
          "duration": 0.015225149414064276
        },
        {
          "name": "D4",
          "midi": 62,
          "time": 104.05513025000106,
          "velocity": 0.6299212598425197,
          "duration": 0.015225149414064276
        },
        {
          "name": "F#3",
          "midi": 54,
          "time": 104.05513025000106,
          "velocity": 0.31496062992125984,
          "duration": 0.015225149414064276
        },
        {
          "name": "E2",
          "midi": 40,
          "time": 104.17324050000106,
          "velocity": 0.6299212598425197,
          "duration": 0.015225149414064276
        },
        {
          "name": "G#2",
          "midi": 44,
          "time": 104.17324050000106,
          "velocity": 0.3937007874015748,
          "duration": 0.015225149414064276
        },
        {
          "name": "D4",
          "midi": 62,
          "time": 104.17324050000106,
          "velocity": 0.6299212598425197,
          "duration": 0.015225149414064276
        },
        {
          "name": "F#3",
          "midi": 54,
          "time": 104.17324050000106,
          "velocity": 0.47244094488188976,
          "duration": 0.015225149414064276
        },
        {
          "name": "E2",
          "midi": 40,
          "time": 104.29135075000106,
          "velocity": 0.3937007874015748,
          "duration": 0.015225149414064276
        },
        {
          "name": "G#2",
          "midi": 44,
          "time": 104.29135075000106,
          "velocity": 0.31496062992125984,
          "duration": 0.015225149414064276
        },
        {
          "name": "D4",
          "midi": 62,
          "time": 104.29135075000106,
          "velocity": 0.3937007874015748,
          "duration": 0.015225149414064276
        },
        {
          "name": "F#3",
          "midi": 54,
          "time": 104.29135075000106,
          "velocity": 0.31496062992125984,
          "duration": 0.015225149414064276
        },
        {
          "name": "D4",
          "midi": 62,
          "time": 104.34763766601668,
          "velocity": 0.3937007874015748,
          "duration": 0.015225149414064276
        },
        {
          "name": "E2",
          "midi": 40,
          "time": 104.34763766601668,
          "velocity": 0.3937007874015748,
          "duration": 0.015225149414064276
        },
        {
          "name": "D4",
          "midi": 62,
          "time": 104.38639259179793,
          "velocity": 0.3937007874015748,
          "duration": 0.015225149414064276
        },
        {
          "name": "E2",
          "midi": 40,
          "time": 104.38639259179793,
          "velocity": 0.3937007874015748,
          "duration": 0.015225149414064276
        },
        {
          "name": "E2",
          "midi": 40,
          "time": 104.40946100000106,
          "velocity": 0.6299212598425197,
          "duration": 0.015225149414064276
        },
        {
          "name": "G#2",
          "midi": 44,
          "time": 104.40946100000106,
          "velocity": 0.3937007874015748,
          "duration": 0.015225149414064276
        },
        {
          "name": "D4",
          "midi": 62,
          "time": 104.40946100000106,
          "velocity": 0.6299212598425197,
          "duration": 0.015225149414064276
        },
        {
          "name": "F#3",
          "midi": 54,
          "time": 104.40946100000106,
          "velocity": 0.47244094488188976,
          "duration": 0.015225149414064276
        },
        {
          "name": "F#3",
          "midi": 54,
          "time": 104.52757125000106,
          "velocity": 0.31496062992125984,
          "duration": 0.015225149414064276
        },
        {
          "name": "G#2",
          "midi": 44,
          "time": 104.52757125000106,
          "velocity": 0.31496062992125984,
          "duration": 0.015225149414064276
        },
        {
          "name": "E2",
          "midi": 40,
          "time": 104.64568150000106,
          "velocity": 0.6299212598425197,
          "duration": 0.015225149414064276
        },
        {
          "name": "G#2",
          "midi": 44,
          "time": 104.64568150000106,
          "velocity": 0.3937007874015748,
          "duration": 0.015225149414064276
        },
        {
          "name": "D4",
          "midi": 62,
          "time": 104.64568150000106,
          "velocity": 0.6299212598425197,
          "duration": 0.015225149414064276
        },
        {
          "name": "F#3",
          "midi": 54,
          "time": 104.64568150000106,
          "velocity": 0.47244094488188976,
          "duration": 0.015225149414064276
        },
        {
          "name": "F#3",
          "midi": 54,
          "time": 104.76379175000106,
          "velocity": 0.31496062992125984,
          "duration": 0.015225149414064276
        },
        {
          "name": "G#2",
          "midi": 44,
          "time": 104.76379175000106,
          "velocity": 0.31496062992125984,
          "duration": 0.015225149414064276
        },
        {
          "name": "E2",
          "midi": 40,
          "time": 104.88190200000106,
          "velocity": 0.6299212598425197,
          "duration": 0.015225149414064276
        },
        {
          "name": "G#2",
          "midi": 44,
          "time": 104.88190200000106,
          "velocity": 0.3937007874015748,
          "duration": 0.015225149414064276
        },
        {
          "name": "D4",
          "midi": 62,
          "time": 104.88190200000106,
          "velocity": 0.6299212598425197,
          "duration": 0.015225149414064276
        },
        {
          "name": "F#3",
          "midi": 54,
          "time": 104.88190200000106,
          "velocity": 0.47244094488188976,
          "duration": 0.015225149414064276
        },
        {
          "name": "E2",
          "midi": 40,
          "time": 105.00001225000106,
          "velocity": 0.3937007874015748,
          "duration": 0.015225149414064276
        },
        {
          "name": "G#2",
          "midi": 44,
          "time": 105.00001225000106,
          "velocity": 0.31496062992125984,
          "duration": 0.015225149414064276
        },
        {
          "name": "D4",
          "midi": 62,
          "time": 105.00001225000106,
          "velocity": 0.3937007874015748,
          "duration": 0.015225149414064276
        },
        {
          "name": "F#3",
          "midi": 54,
          "time": 105.00001225000106,
          "velocity": 0.31496062992125984,
          "duration": 0.015225149414064276
        },
        {
          "name": "D4",
          "midi": 62,
          "time": 105.04338085742295,
          "velocity": 0.3937007874015748,
          "duration": 0.015225149414064276
        },
        {
          "name": "E2",
          "midi": 40,
          "time": 105.04338085742295,
          "velocity": 0.3937007874015748,
          "duration": 0.015225149414064276
        },
        {
          "name": "D4",
          "midi": 62,
          "time": 105.08674946484483,
          "velocity": 0.3937007874015748,
          "duration": 0.015225149414064276
        },
        {
          "name": "E2",
          "midi": 40,
          "time": 105.08674946484483,
          "velocity": 0.3937007874015748,
          "duration": 0.015225149414064276
        },
        {
          "name": "E2",
          "midi": 40,
          "time": 105.11812250000108,
          "velocity": 0.6299212598425197,
          "duration": 0.015225149414064276
        },
        {
          "name": "G#2",
          "midi": 44,
          "time": 105.11812250000108,
          "velocity": 0.3937007874015748,
          "duration": 0.015225149414064276
        },
        {
          "name": "D4",
          "midi": 62,
          "time": 105.11812250000108,
          "velocity": 0.6299212598425197,
          "duration": 0.015225149414064276
        },
        {
          "name": "F#3",
          "midi": 54,
          "time": 105.11812250000108,
          "velocity": 0.47244094488188976,
          "duration": 0.015225149414064276
        },
        {
          "name": "E2",
          "midi": 40,
          "time": 105.23623275000108,
          "velocity": 0.6299212598425197,
          "duration": 0.015225149414064276
        },
        {
          "name": "G#2",
          "midi": 44,
          "time": 105.23623275000108,
          "velocity": 0.31496062992125984,
          "duration": 0.015225149414064276
        },
        {
          "name": "D4",
          "midi": 62,
          "time": 105.23623275000108,
          "velocity": 0.6299212598425197,
          "duration": 0.015225149414064276
        },
        {
          "name": "F#3",
          "midi": 54,
          "time": 105.23623275000108,
          "velocity": 0.31496062992125984,
          "duration": 0.015225149414064276
        },
        {
          "name": "F#3",
          "midi": 54,
          "time": 105.35434300000108,
          "velocity": 0.47244094488188976,
          "duration": 0.015225149414064276
        },
        {
          "name": "G#2",
          "midi": 44,
          "time": 105.35434300000108,
          "velocity": 0.3937007874015748,
          "duration": 0.015225149414064276
        },
        {
          "name": "E2",
          "midi": 40,
          "time": 105.47245325000108,
          "velocity": 0.6299212598425197,
          "duration": 0.015225149414064276
        },
        {
          "name": "G#2",
          "midi": 44,
          "time": 105.47245325000108,
          "velocity": 0.31496062992125984,
          "duration": 0.015225149414064276
        },
        {
          "name": "D4",
          "midi": 62,
          "time": 105.47245325000108,
          "velocity": 0.6299212598425197,
          "duration": 0.015225149414064276
        },
        {
          "name": "F#3",
          "midi": 54,
          "time": 105.47245325000108,
          "velocity": 0.31496062992125984,
          "duration": 0.015225149414064276
        },
        {
          "name": "E2",
          "midi": 40,
          "time": 105.59056350000108,
          "velocity": 0.6299212598425197,
          "duration": 0.015225149414064276
        },
        {
          "name": "G#2",
          "midi": 44,
          "time": 105.59056350000108,
          "velocity": 0.3937007874015748,
          "duration": 0.015225149414064276
        },
        {
          "name": "D4",
          "midi": 62,
          "time": 105.59056350000108,
          "velocity": 0.6299212598425197,
          "duration": 0.015225149414064276
        },
        {
          "name": "F#3",
          "midi": 54,
          "time": 105.59056350000108,
          "velocity": 0.47244094488188976,
          "duration": 0.015225149414064276
        },
        {
          "name": "E2",
          "midi": 40,
          "time": 105.70867375000108,
          "velocity": 0.3937007874015748,
          "duration": 0.015225149414064276
        },
        {
          "name": "G#2",
          "midi": 44,
          "time": 105.70867375000108,
          "velocity": 0.31496062992125984,
          "duration": 0.015225149414064276
        },
        {
          "name": "D4",
          "midi": 62,
          "time": 105.70867375000108,
          "velocity": 0.3937007874015748,
          "duration": 0.015225149414064276
        },
        {
          "name": "F#3",
          "midi": 54,
          "time": 105.70867375000108,
          "velocity": 0.31496062992125984,
          "duration": 0.015225149414064276
        },
        {
          "name": "D4",
          "midi": 62,
          "time": 105.7649606660167,
          "velocity": 0.3937007874015748,
          "duration": 0.015225149414064276
        },
        {
          "name": "E2",
          "midi": 40,
          "time": 105.7649606660167,
          "velocity": 0.3937007874015748,
          "duration": 0.015225149414064276
        },
        {
          "name": "D4",
          "midi": 62,
          "time": 105.80371559179795,
          "velocity": 0.3937007874015748,
          "duration": 0.015225149414064276
        },
        {
          "name": "E2",
          "midi": 40,
          "time": 105.80371559179795,
          "velocity": 0.3937007874015748,
          "duration": 0.015225149414064276
        },
        {
          "name": "E2",
          "midi": 40,
          "time": 105.82678400000108,
          "velocity": 0.6299212598425197,
          "duration": 0.015225149414064276
        },
        {
          "name": "G#2",
          "midi": 44,
          "time": 105.82678400000108,
          "velocity": 0.3937007874015748,
          "duration": 0.015225149414064276
        },
        {
          "name": "D4",
          "midi": 62,
          "time": 105.82678400000108,
          "velocity": 0.6299212598425197,
          "duration": 0.015225149414064276
        },
        {
          "name": "F#3",
          "midi": 54,
          "time": 105.82678400000108,
          "velocity": 0.47244094488188976,
          "duration": 0.015225149414064276
        },
        {
          "name": "F#3",
          "midi": 54,
          "time": 105.94489425000108,
          "velocity": 0.31496062992125984,
          "duration": 0.015225149414064276
        },
        {
          "name": "G#2",
          "midi": 44,
          "time": 105.94489425000108,
          "velocity": 0.31496062992125984,
          "duration": 0.015225149414064276
        },
        {
          "name": "E2",
          "midi": 40,
          "time": 106.06300450000109,
          "velocity": 0.6299212598425197,
          "duration": 0.015225149414064276
        },
        {
          "name": "G#2",
          "midi": 44,
          "time": 106.06300450000109,
          "velocity": 0.3937007874015748,
          "duration": 0.015225149414064276
        },
        {
          "name": "D4",
          "midi": 62,
          "time": 106.06300450000109,
          "velocity": 0.6299212598425197,
          "duration": 0.015225149414064276
        },
        {
          "name": "F#3",
          "midi": 54,
          "time": 106.06300450000109,
          "velocity": 0.47244094488188976,
          "duration": 0.015225149414064276
        },
        {
          "name": "F#3",
          "midi": 54,
          "time": 106.18111475000109,
          "velocity": 0.31496062992125984,
          "duration": 0.015225149414064276
        },
        {
          "name": "G#2",
          "midi": 44,
          "time": 106.18111475000109,
          "velocity": 0.31496062992125984,
          "duration": 0.015225149414064276
        },
        {
          "name": "G#2",
          "midi": 44,
          "time": 106.29922500000109,
          "velocity": 0.3937007874015748,
          "duration": 0.015225149414064276
        },
        {
          "name": "E2",
          "midi": 40,
          "time": 106.29922500000109,
          "velocity": 0.6299212598425197,
          "duration": 0.015225149414064276
        },
        {
          "name": "D4",
          "midi": 62,
          "time": 106.29922500000109,
          "velocity": 0.6299212598425197,
          "duration": 0.015225149414064276
        },
        {
          "name": "F#3",
          "midi": 54,
          "time": 106.29922500000109,
          "velocity": 0.47244094488188976,
          "duration": 0.015225149414064276
        },
        {
          "name": "G#2",
          "midi": 44,
          "time": 106.41733525000109,
          "velocity": 0.31496062992125984,
          "duration": 0.015225149414064276
        },
        {
          "name": "E2",
          "midi": 40,
          "time": 106.41733525000109,
          "velocity": 0.3937007874015748,
          "duration": 0.015225149414064276
        },
        {
          "name": "D4",
          "midi": 62,
          "time": 106.41733525000109,
          "velocity": 0.3937007874015748,
          "duration": 0.015225149414064276
        },
        {
          "name": "F#3",
          "midi": 54,
          "time": 106.41733525000109,
          "velocity": 0.31496062992125984,
          "duration": 0.015225149414064276
        },
        {
          "name": "D4",
          "midi": 62,
          "time": 106.46070385742297,
          "velocity": 0.3937007874015748,
          "duration": 0.015225149414064276
        },
        {
          "name": "E2",
          "midi": 40,
          "time": 106.46070385742297,
          "velocity": 0.3937007874015748,
          "duration": 0.015225149414064276
        },
        {
          "name": "D4",
          "midi": 62,
          "time": 106.50407246484485,
          "velocity": 0.3937007874015748,
          "duration": 0.015225149414064276
        },
        {
          "name": "E2",
          "midi": 40,
          "time": 106.50407246484485,
          "velocity": 0.3937007874015748,
          "duration": 0.015225149414064276
        },
        {
          "name": "G#2",
          "midi": 44,
          "time": 106.5354455000011,
          "velocity": 0.3937007874015748,
          "duration": 0.015225149414064276
        },
        {
          "name": "E2",
          "midi": 40,
          "time": 106.5354455000011,
          "velocity": 0.6299212598425197,
          "duration": 0.015225149414064276
        },
        {
          "name": "D4",
          "midi": 62,
          "time": 106.5354455000011,
          "velocity": 0.6299212598425197,
          "duration": 0.015225149414064276
        },
        {
          "name": "F#3",
          "midi": 54,
          "time": 106.5354455000011,
          "velocity": 0.47244094488188976,
          "duration": 0.015225149414064276
        },
        {
          "name": "G#2",
          "midi": 44,
          "time": 106.6535557500011,
          "velocity": 0.31496062992125984,
          "duration": 0.015225149414064276
        },
        {
          "name": "E2",
          "midi": 40,
          "time": 106.6535557500011,
          "velocity": 0.6299212598425197,
          "duration": 0.015225149414064276
        },
        {
          "name": "D4",
          "midi": 62,
          "time": 106.6535557500011,
          "velocity": 0.6299212598425197,
          "duration": 0.015225149414064276
        },
        {
          "name": "F#3",
          "midi": 54,
          "time": 106.6535557500011,
          "velocity": 0.31496062992125984,
          "duration": 0.015225149414064276
        },
        {
          "name": "F#3",
          "midi": 54,
          "time": 106.7716660000011,
          "velocity": 0.47244094488188976,
          "duration": 0.015225149414064276
        },
        {
          "name": "G#2",
          "midi": 44,
          "time": 106.7716660000011,
          "velocity": 0.3937007874015748,
          "duration": 0.015225149414064276
        },
        {
          "name": "G#2",
          "midi": 44,
          "time": 106.8897762500011,
          "velocity": 0.31496062992125984,
          "duration": 0.015225149414064276
        },
        {
          "name": "E2",
          "midi": 40,
          "time": 106.8897762500011,
          "velocity": 0.6299212598425197,
          "duration": 0.015225149414064276
        },
        {
          "name": "D4",
          "midi": 62,
          "time": 106.8897762500011,
          "velocity": 0.6299212598425197,
          "duration": 0.015225149414064276
        },
        {
          "name": "F#3",
          "midi": 54,
          "time": 106.8897762500011,
          "velocity": 0.31496062992125984,
          "duration": 0.015225149414064276
        },
        {
          "name": "G#2",
          "midi": 44,
          "time": 107.0078865000011,
          "velocity": 0.3937007874015748,
          "duration": 0.015225149414064276
        },
        {
          "name": "E2",
          "midi": 40,
          "time": 107.0078865000011,
          "velocity": 0.6299212598425197,
          "duration": 0.015225149414064276
        },
        {
          "name": "D4",
          "midi": 62,
          "time": 107.0078865000011,
          "velocity": 0.6299212598425197,
          "duration": 0.015225149414064276
        },
        {
          "name": "F#3",
          "midi": 54,
          "time": 107.0078865000011,
          "velocity": 0.47244094488188976,
          "duration": 0.015225149414064276
        },
        {
          "name": "G#2",
          "midi": 44,
          "time": 107.12599675000111,
          "velocity": 0.31496062992125984,
          "duration": 0.015225149414064276
        },
        {
          "name": "E2",
          "midi": 40,
          "time": 107.12599675000111,
          "velocity": 0.3937007874015748,
          "duration": 0.015225149414064276
        },
        {
          "name": "D4",
          "midi": 62,
          "time": 107.12599675000111,
          "velocity": 0.3937007874015748,
          "duration": 0.015225149414064276
        },
        {
          "name": "F#3",
          "midi": 54,
          "time": 107.12599675000111,
          "velocity": 0.31496062992125984,
          "duration": 0.015225149414064276
        },
        {
          "name": "D4",
          "midi": 62,
          "time": 107.18228366601673,
          "velocity": 0.3937007874015748,
          "duration": 0.015225149414064276
        },
        {
          "name": "E2",
          "midi": 40,
          "time": 107.18228366601673,
          "velocity": 0.3937007874015748,
          "duration": 0.015225149414064276
        },
        {
          "name": "D4",
          "midi": 62,
          "time": 107.22103859179798,
          "velocity": 0.3937007874015748,
          "duration": 0.015225149414064276
        },
        {
          "name": "E2",
          "midi": 40,
          "time": 107.22103859179798,
          "velocity": 0.3937007874015748,
          "duration": 0.015225149414064276
        },
        {
          "name": "G#2",
          "midi": 44,
          "time": 107.24410700000111,
          "velocity": 0.3937007874015748,
          "duration": 0.015225149414064276
        },
        {
          "name": "E2",
          "midi": 40,
          "time": 107.24410700000111,
          "velocity": 0.6299212598425197,
          "duration": 0.015225149414064276
        },
        {
          "name": "D4",
          "midi": 62,
          "time": 107.24410700000111,
          "velocity": 0.6299212598425197,
          "duration": 0.015225149414064276
        },
        {
          "name": "F#3",
          "midi": 54,
          "time": 107.24410700000111,
          "velocity": 0.47244094488188976,
          "duration": 0.015225149414064276
        },
        {
          "name": "F#3",
          "midi": 54,
          "time": 107.36221725000111,
          "velocity": 0.31496062992125984,
          "duration": 0.015225149414064276
        },
        {
          "name": "G#2",
          "midi": 44,
          "time": 107.36221725000111,
          "velocity": 0.31496062992125984,
          "duration": 0.015225149414064276
        },
        {
          "name": "G#2",
          "midi": 44,
          "time": 107.48032750000111,
          "velocity": 0.3937007874015748,
          "duration": 0.015225149414064276
        },
        {
          "name": "E2",
          "midi": 40,
          "time": 107.48032750000111,
          "velocity": 0.6299212598425197,
          "duration": 0.015225149414064276
        },
        {
          "name": "D4",
          "midi": 62,
          "time": 107.48032750000111,
          "velocity": 0.6299212598425197,
          "duration": 0.015225149414064276
        },
        {
          "name": "F#3",
          "midi": 54,
          "time": 107.48032750000111,
          "velocity": 0.47244094488188976,
          "duration": 0.015225149414064276
        },
        {
          "name": "F#3",
          "midi": 54,
          "time": 107.59843775000111,
          "velocity": 0.31496062992125984,
          "duration": 0.015225149414064276
        },
        {
          "name": "G#2",
          "midi": 44,
          "time": 107.59843775000111,
          "velocity": 0.31496062992125984,
          "duration": 0.015225149414064276
        },
        {
          "name": "G#2",
          "midi": 44,
          "time": 107.71654800000111,
          "velocity": 0.3937007874015748,
          "duration": 0.015225149414064276
        },
        {
          "name": "E2",
          "midi": 40,
          "time": 107.71654800000111,
          "velocity": 0.6299212598425197,
          "duration": 0.015225149414064276
        },
        {
          "name": "D4",
          "midi": 62,
          "time": 107.71654800000111,
          "velocity": 0.6299212598425197,
          "duration": 0.015225149414064276
        },
        {
          "name": "F#3",
          "midi": 54,
          "time": 107.71654800000111,
          "velocity": 0.47244094488188976,
          "duration": 0.015225149414064276
        },
        {
          "name": "G#2",
          "midi": 44,
          "time": 107.83465825000111,
          "velocity": 0.31496062992125984,
          "duration": 0.015225149414064276
        },
        {
          "name": "E2",
          "midi": 40,
          "time": 107.83465825000111,
          "velocity": 0.3937007874015748,
          "duration": 0.015225149414064276
        },
        {
          "name": "D4",
          "midi": 62,
          "time": 107.83465825000111,
          "velocity": 0.3937007874015748,
          "duration": 0.015225149414064276
        },
        {
          "name": "F#3",
          "midi": 54,
          "time": 107.83465825000111,
          "velocity": 0.31496062992125984,
          "duration": 0.015225149414064276
        },
        {
          "name": "D4",
          "midi": 62,
          "time": 107.878026857423,
          "velocity": 0.3937007874015748,
          "duration": 0.015225149414064276
        },
        {
          "name": "E2",
          "midi": 40,
          "time": 107.878026857423,
          "velocity": 0.3937007874015748,
          "duration": 0.015225149414064276
        },
        {
          "name": "D4",
          "midi": 62,
          "time": 107.92139546484488,
          "velocity": 0.3937007874015748,
          "duration": 0.015225149414064276
        },
        {
          "name": "E2",
          "midi": 40,
          "time": 107.92139546484488,
          "velocity": 0.3937007874015748,
          "duration": 0.015225149414064276
        },
        {
          "name": "G#2",
          "midi": 44,
          "time": 107.95276850000113,
          "velocity": 0.3937007874015748,
          "duration": 0.015225149414064276
        },
        {
          "name": "E2",
          "midi": 40,
          "time": 107.95276850000113,
          "velocity": 0.6299212598425197,
          "duration": 0.015225149414064276
        },
        {
          "name": "D4",
          "midi": 62,
          "time": 107.95276850000113,
          "velocity": 0.6299212598425197,
          "duration": 0.015225149414064276
        },
        {
          "name": "F#3",
          "midi": 54,
          "time": 107.95276850000113,
          "velocity": 0.47244094488188976,
          "duration": 0.015225149414064276
        },
        {
          "name": "G#2",
          "midi": 44,
          "time": 108.07087875000113,
          "velocity": 0.31496062992125984,
          "duration": 0.015225149414064276
        },
        {
          "name": "E2",
          "midi": 40,
          "time": 108.07087875000113,
          "velocity": 0.6299212598425197,
          "duration": 0.015225149414064276
        },
        {
          "name": "D4",
          "midi": 62,
          "time": 108.07087875000113,
          "velocity": 0.6299212598425197,
          "duration": 0.015225149414064276
        },
        {
          "name": "F#3",
          "midi": 54,
          "time": 108.07087875000113,
          "velocity": 0.31496062992125984,
          "duration": 0.015225149414064276
        },
        {
          "name": "F#3",
          "midi": 54,
          "time": 108.18898900000113,
          "velocity": 0.47244094488188976,
          "duration": 0.015225149414064276
        },
        {
          "name": "G#2",
          "midi": 44,
          "time": 108.18898900000113,
          "velocity": 0.3937007874015748,
          "duration": 0.015225149414064276
        },
        {
          "name": "G#2",
          "midi": 44,
          "time": 108.30709925000113,
          "velocity": 0.31496062992125984,
          "duration": 0.015225149414064276
        },
        {
          "name": "E2",
          "midi": 40,
          "time": 108.30709925000113,
          "velocity": 0.6299212598425197,
          "duration": 0.015225149414064276
        },
        {
          "name": "D4",
          "midi": 62,
          "time": 108.30709925000113,
          "velocity": 0.6299212598425197,
          "duration": 0.015225149414064276
        },
        {
          "name": "F#3",
          "midi": 54,
          "time": 108.30709925000113,
          "velocity": 0.31496062992125984,
          "duration": 0.015225149414064276
        },
        {
          "name": "G#2",
          "midi": 44,
          "time": 108.42520950000113,
          "velocity": 0.3937007874015748,
          "duration": 0.015225149414064276
        },
        {
          "name": "E2",
          "midi": 40,
          "time": 108.42520950000113,
          "velocity": 0.6299212598425197,
          "duration": 0.015225149414064276
        },
        {
          "name": "D4",
          "midi": 62,
          "time": 108.42520950000113,
          "velocity": 0.6299212598425197,
          "duration": 0.015225149414064276
        },
        {
          "name": "F#3",
          "midi": 54,
          "time": 108.42520950000113,
          "velocity": 0.47244094488188976,
          "duration": 0.015225149414064276
        },
        {
          "name": "G#2",
          "midi": 44,
          "time": 108.54331975000113,
          "velocity": 0.31496062992125984,
          "duration": 0.015225149414064276
        },
        {
          "name": "E2",
          "midi": 40,
          "time": 108.54331975000113,
          "velocity": 0.3937007874015748,
          "duration": 0.015225149414064276
        },
        {
          "name": "D4",
          "midi": 62,
          "time": 108.54331975000113,
          "velocity": 0.3937007874015748,
          "duration": 0.015225149414064276
        },
        {
          "name": "F#3",
          "midi": 54,
          "time": 108.54331975000113,
          "velocity": 0.31496062992125984,
          "duration": 0.015225149414064276
        },
        {
          "name": "D4",
          "midi": 62,
          "time": 108.59960666601675,
          "velocity": 0.3937007874015748,
          "duration": 0.015225149414064276
        },
        {
          "name": "E2",
          "midi": 40,
          "time": 108.59960666601675,
          "velocity": 0.3937007874015748,
          "duration": 0.015225149414064276
        },
        {
          "name": "D4",
          "midi": 62,
          "time": 108.638361591798,
          "velocity": 0.3937007874015748,
          "duration": 0.015225149414064276
        },
        {
          "name": "E2",
          "midi": 40,
          "time": 108.638361591798,
          "velocity": 0.3937007874015748,
          "duration": 0.015225149414064276
        },
        {
          "name": "G#2",
          "midi": 44,
          "time": 108.66143000000113,
          "velocity": 0.3937007874015748,
          "duration": 0.015225149414064276
        },
        {
          "name": "E2",
          "midi": 40,
          "time": 108.66143000000113,
          "velocity": 0.6299212598425197,
          "duration": 0.015225149414064276
        },
        {
          "name": "D4",
          "midi": 62,
          "time": 108.66143000000113,
          "velocity": 0.6299212598425197,
          "duration": 0.015225149414064276
        },
        {
          "name": "F#3",
          "midi": 54,
          "time": 108.66143000000113,
          "velocity": 0.47244094488188976,
          "duration": 0.015225149414064276
        },
        {
          "name": "F#3",
          "midi": 54,
          "time": 108.77954025000113,
          "velocity": 0.31496062992125984,
          "duration": 0.015225149414064276
        },
        {
          "name": "G#2",
          "midi": 44,
          "time": 108.77954025000113,
          "velocity": 0.31496062992125984,
          "duration": 0.015225149414064276
        },
        {
          "name": "G#2",
          "midi": 44,
          "time": 108.89765050000113,
          "velocity": 0.3937007874015748,
          "duration": 0.015225149414064276
        },
        {
          "name": "E2",
          "midi": 40,
          "time": 108.89765050000113,
          "velocity": 0.6299212598425197,
          "duration": 0.015225149414064276
        },
        {
          "name": "D4",
          "midi": 62,
          "time": 108.89765050000113,
          "velocity": 0.6299212598425197,
          "duration": 0.015225149414064276
        },
        {
          "name": "F#3",
          "midi": 54,
          "time": 108.89765050000113,
          "velocity": 0.47244094488188976,
          "duration": 0.015225149414064276
        },
        {
          "name": "F#3",
          "midi": 54,
          "time": 109.01576075000114,
          "velocity": 0.31496062992125984,
          "duration": 0.015225149414064276
        },
        {
          "name": "G#2",
          "midi": 44,
          "time": 109.01576075000114,
          "velocity": 0.31496062992125984,
          "duration": 0.015225149414064276
        },
        {
          "name": "G#2",
          "midi": 44,
          "time": 109.13387100000114,
          "velocity": 0.3937007874015748,
          "duration": 0.015225149414064276
        },
        {
          "name": "E2",
          "midi": 40,
          "time": 109.13387100000114,
          "velocity": 0.6299212598425197,
          "duration": 0.015225149414064276
        },
        {
          "name": "D4",
          "midi": 62,
          "time": 109.13387100000114,
          "velocity": 0.6299212598425197,
          "duration": 0.015225149414064276
        },
        {
          "name": "F#3",
          "midi": 54,
          "time": 109.13387100000114,
          "velocity": 0.47244094488188976,
          "duration": 0.015225149414064276
        },
        {
          "name": "G#2",
          "midi": 44,
          "time": 109.25198125000114,
          "velocity": 0.31496062992125984,
          "duration": 0.015225149414064276
        },
        {
          "name": "E2",
          "midi": 40,
          "time": 109.25198125000114,
          "velocity": 0.3937007874015748,
          "duration": 0.015225149414064276
        },
        {
          "name": "D4",
          "midi": 62,
          "time": 109.25198125000114,
          "velocity": 0.3937007874015748,
          "duration": 0.015225149414064276
        },
        {
          "name": "F#3",
          "midi": 54,
          "time": 109.25198125000114,
          "velocity": 0.31496062992125984,
          "duration": 0.015225149414064276
        },
        {
          "name": "D4",
          "midi": 62,
          "time": 109.29534985742302,
          "velocity": 0.3937007874015748,
          "duration": 0.015225149414064276
        },
        {
          "name": "E2",
          "midi": 40,
          "time": 109.29534985742302,
          "velocity": 0.3937007874015748,
          "duration": 0.015225149414064276
        },
        {
          "name": "D4",
          "midi": 62,
          "time": 109.3387184648449,
          "velocity": 0.3937007874015748,
          "duration": 0.015225149414064276
        },
        {
          "name": "E2",
          "midi": 40,
          "time": 109.3387184648449,
          "velocity": 0.3937007874015748,
          "duration": 0.015225149414064276
        },
        {
          "name": "G#2",
          "midi": 44,
          "time": 109.37009150000115,
          "velocity": 0.3937007874015748,
          "duration": 0.015225149414064276
        },
        {
          "name": "E2",
          "midi": 40,
          "time": 109.37009150000115,
          "velocity": 0.6299212598425197,
          "duration": 0.015225149414064276
        },
        {
          "name": "D4",
          "midi": 62,
          "time": 109.37009150000115,
          "velocity": 0.6299212598425197,
          "duration": 0.015225149414064276
        },
        {
          "name": "F#3",
          "midi": 54,
          "time": 109.37009150000115,
          "velocity": 0.47244094488188976,
          "duration": 0.015225149414064276
        },
        {
          "name": "G#2",
          "midi": 44,
          "time": 109.48820175000115,
          "velocity": 0.31496062992125984,
          "duration": 0.015225149414064276
        },
        {
          "name": "E2",
          "midi": 40,
          "time": 109.48820175000115,
          "velocity": 0.6299212598425197,
          "duration": 0.015225149414064276
        },
        {
          "name": "D4",
          "midi": 62,
          "time": 109.48820175000115,
          "velocity": 0.6299212598425197,
          "duration": 0.015225149414064276
        },
        {
          "name": "F#3",
          "midi": 54,
          "time": 109.48820175000115,
          "velocity": 0.31496062992125984,
          "duration": 0.015225149414064276
        },
        {
          "name": "F#3",
          "midi": 54,
          "time": 109.60631200000115,
          "velocity": 0.47244094488188976,
          "duration": 0.015225149414064276
        },
        {
          "name": "G#2",
          "midi": 44,
          "time": 109.60631200000115,
          "velocity": 0.3937007874015748,
          "duration": 0.015225149414064276
        },
        {
          "name": "G#2",
          "midi": 44,
          "time": 109.72442225000115,
          "velocity": 0.31496062992125984,
          "duration": 0.015225149414064276
        },
        {
          "name": "E2",
          "midi": 40,
          "time": 109.72442225000115,
          "velocity": 0.6299212598425197,
          "duration": 0.015225149414064276
        },
        {
          "name": "D4",
          "midi": 62,
          "time": 109.72442225000115,
          "velocity": 0.6299212598425197,
          "duration": 0.015225149414064276
        },
        {
          "name": "F#3",
          "midi": 54,
          "time": 109.72442225000115,
          "velocity": 0.31496062992125984,
          "duration": 0.015225149414064276
        },
        {
          "name": "G#2",
          "midi": 44,
          "time": 109.84253250000116,
          "velocity": 0.3937007874015748,
          "duration": 0.015225149414064276
        },
        {
          "name": "E2",
          "midi": 40,
          "time": 109.84253250000116,
          "velocity": 0.6299212598425197,
          "duration": 0.015225149414064276
        },
        {
          "name": "D4",
          "midi": 62,
          "time": 109.84253250000116,
          "velocity": 0.6299212598425197,
          "duration": 0.015225149414064276
        },
        {
          "name": "F#3",
          "midi": 54,
          "time": 109.84253250000116,
          "velocity": 0.47244094488188976,
          "duration": 0.015225149414064276
        },
        {
          "name": "G#2",
          "midi": 44,
          "time": 109.96064275000116,
          "velocity": 0.31496062992125984,
          "duration": 0.015225149414064276
        },
        {
          "name": "E2",
          "midi": 40,
          "time": 109.96064275000116,
          "velocity": 0.3937007874015748,
          "duration": 0.015225149414064276
        },
        {
          "name": "D4",
          "midi": 62,
          "time": 109.96064275000116,
          "velocity": 0.3937007874015748,
          "duration": 0.015225149414064276
        },
        {
          "name": "F#3",
          "midi": 54,
          "time": 109.96064275000116,
          "velocity": 0.31496062992125984,
          "duration": 0.015225149414064276
        },
        {
          "name": "D4",
          "midi": 62,
          "time": 110.01692966601678,
          "velocity": 0.3937007874015748,
          "duration": 0.015225149414064276
        },
        {
          "name": "E2",
          "midi": 40,
          "time": 110.01692966601678,
          "velocity": 0.3937007874015748,
          "duration": 0.015225149414064276
        },
        {
          "name": "D4",
          "midi": 62,
          "time": 110.05568459179803,
          "velocity": 0.3937007874015748,
          "duration": 0.015225149414064276
        },
        {
          "name": "E2",
          "midi": 40,
          "time": 110.05568459179803,
          "velocity": 0.3937007874015748,
          "duration": 0.015225149414064276
        },
        {
          "name": "G#2",
          "midi": 44,
          "time": 110.07875300000116,
          "velocity": 0.3937007874015748,
          "duration": 0.015225149414064276
        },
        {
          "name": "E2",
          "midi": 40,
          "time": 110.07875300000116,
          "velocity": 0.6299212598425197,
          "duration": 0.015225149414064276
        },
        {
          "name": "D4",
          "midi": 62,
          "time": 110.07875300000116,
          "velocity": 0.6299212598425197,
          "duration": 0.015225149414064276
        },
        {
          "name": "F#3",
          "midi": 54,
          "time": 110.07875300000116,
          "velocity": 0.47244094488188976,
          "duration": 0.015225149414064276
        },
        {
          "name": "F#3",
          "midi": 54,
          "time": 110.19686325000116,
          "velocity": 0.31496062992125984,
          "duration": 0.015225149414064276
        },
        {
          "name": "G#2",
          "midi": 44,
          "time": 110.19686325000116,
          "velocity": 0.31496062992125984,
          "duration": 0.015225149414064276
        },
        {
          "name": "G#2",
          "midi": 44,
          "time": 110.31497350000116,
          "velocity": 0.3937007874015748,
          "duration": 0.015225149414064276
        },
        {
          "name": "E2",
          "midi": 40,
          "time": 110.31497350000116,
          "velocity": 0.6299212598425197,
          "duration": 0.015225149414064276
        },
        {
          "name": "D4",
          "midi": 62,
          "time": 110.31497350000116,
          "velocity": 0.6299212598425197,
          "duration": 0.015225149414064276
        },
        {
          "name": "F#3",
          "midi": 54,
          "time": 110.31497350000116,
          "velocity": 0.47244094488188976,
          "duration": 0.015225149414064276
        },
        {
          "name": "F#3",
          "midi": 54,
          "time": 110.43308375000116,
          "velocity": 0.31496062992125984,
          "duration": 0.015225149414064276
        },
        {
          "name": "G#2",
          "midi": 44,
          "time": 110.43308375000116,
          "velocity": 0.31496062992125984,
          "duration": 0.015225149414064276
        },
        {
          "name": "G#2",
          "midi": 44,
          "time": 110.55119400000116,
          "velocity": 0.3937007874015748,
          "duration": 0.015225149414064276
        },
        {
          "name": "E2",
          "midi": 40,
          "time": 110.55119400000116,
          "velocity": 0.6299212598425197,
          "duration": 0.015225149414064276
        },
        {
          "name": "D4",
          "midi": 62,
          "time": 110.55119400000116,
          "velocity": 0.6299212598425197,
          "duration": 0.015225149414064276
        },
        {
          "name": "F#3",
          "midi": 54,
          "time": 110.55119400000116,
          "velocity": 0.47244094488188976,
          "duration": 0.015225149414064276
        },
        {
          "name": "G#2",
          "midi": 44,
          "time": 110.66930425000116,
          "velocity": 0.31496062992125984,
          "duration": 0.015225149414064276
        },
        {
          "name": "E2",
          "midi": 40,
          "time": 110.66930425000116,
          "velocity": 0.3937007874015748,
          "duration": 0.015225149414064276
        },
        {
          "name": "D4",
          "midi": 62,
          "time": 110.66930425000116,
          "velocity": 0.3937007874015748,
          "duration": 0.015225149414064276
        },
        {
          "name": "F#3",
          "midi": 54,
          "time": 110.66930425000116,
          "velocity": 0.31496062992125984,
          "duration": 0.015225149414064276
        },
        {
          "name": "D4",
          "midi": 62,
          "time": 110.71267285742304,
          "velocity": 0.3937007874015748,
          "duration": 0.015225149414064276
        },
        {
          "name": "E2",
          "midi": 40,
          "time": 110.71267285742304,
          "velocity": 0.3937007874015748,
          "duration": 0.015225149414064276
        },
        {
          "name": "D4",
          "midi": 62,
          "time": 110.75604146484493,
          "velocity": 0.3937007874015748,
          "duration": 0.015225149414064276
        },
        {
          "name": "E2",
          "midi": 40,
          "time": 110.75604146484493,
          "velocity": 0.3937007874015748,
          "duration": 0.015225149414064276
        },
        {
          "name": "G#2",
          "midi": 44,
          "time": 110.78741450000118,
          "velocity": 0.3937007874015748,
          "duration": 0.015225149414064276
        },
        {
          "name": "E2",
          "midi": 40,
          "time": 110.78741450000118,
          "velocity": 0.6299212598425197,
          "duration": 0.015225149414064276
        },
        {
          "name": "D4",
          "midi": 62,
          "time": 110.78741450000118,
          "velocity": 0.6299212598425197,
          "duration": 0.015225149414064276
        },
        {
          "name": "F#3",
          "midi": 54,
          "time": 110.78741450000118,
          "velocity": 0.47244094488188976,
          "duration": 0.015225149414064276
        },
        {
          "name": "G#2",
          "midi": 44,
          "time": 110.90552475000118,
          "velocity": 0.31496062992125984,
          "duration": 0.015225149414064276
        },
        {
          "name": "E2",
          "midi": 40,
          "time": 110.90552475000118,
          "velocity": 0.6299212598425197,
          "duration": 0.015225149414064276
        },
        {
          "name": "D4",
          "midi": 62,
          "time": 110.90552475000118,
          "velocity": 0.6299212598425197,
          "duration": 0.015225149414064276
        },
        {
          "name": "F#3",
          "midi": 54,
          "time": 110.90552475000118,
          "velocity": 0.31496062992125984,
          "duration": 0.015225149414064276
        },
        {
          "name": "F#3",
          "midi": 54,
          "time": 111.02363500000118,
          "velocity": 0.47244094488188976,
          "duration": 0.015225149414064276
        },
        {
          "name": "G#2",
          "midi": 44,
          "time": 111.02363500000118,
          "velocity": 0.3937007874015748,
          "duration": 0.015225149414064276
        },
        {
          "name": "G#2",
          "midi": 44,
          "time": 111.14174525000118,
          "velocity": 0.31496062992125984,
          "duration": 0.015225149414064276
        },
        {
          "name": "E2",
          "midi": 40,
          "time": 111.14174525000118,
          "velocity": 0.6299212598425197,
          "duration": 0.015225149414064276
        },
        {
          "name": "D4",
          "midi": 62,
          "time": 111.14174525000118,
          "velocity": 0.6299212598425197,
          "duration": 0.015225149414064276
        },
        {
          "name": "F#3",
          "midi": 54,
          "time": 111.14174525000118,
          "velocity": 0.31496062992125984,
          "duration": 0.015225149414064276
        },
        {
          "name": "G#2",
          "midi": 44,
          "time": 111.25985550000118,
          "velocity": 0.3937007874015748,
          "duration": 0.015225149414064276
        },
        {
          "name": "E2",
          "midi": 40,
          "time": 111.25985550000118,
          "velocity": 0.6299212598425197,
          "duration": 0.015225149414064276
        },
        {
          "name": "D4",
          "midi": 62,
          "time": 111.25985550000118,
          "velocity": 0.6299212598425197,
          "duration": 0.015225149414064276
        },
        {
          "name": "F#3",
          "midi": 54,
          "time": 111.25985550000118,
          "velocity": 0.47244094488188976,
          "duration": 0.015225149414064276
        },
        {
          "name": "G#2",
          "midi": 44,
          "time": 111.37796575000118,
          "velocity": 0.31496062992125984,
          "duration": 0.015225149414064276
        },
        {
          "name": "E2",
          "midi": 40,
          "time": 111.37796575000118,
          "velocity": 0.3937007874015748,
          "duration": 0.015225149414064276
        },
        {
          "name": "D4",
          "midi": 62,
          "time": 111.37796575000118,
          "velocity": 0.3937007874015748,
          "duration": 0.015225149414064276
        },
        {
          "name": "F#3",
          "midi": 54,
          "time": 111.37796575000118,
          "velocity": 0.31496062992125984,
          "duration": 0.015225149414064276
        },
        {
          "name": "D4",
          "midi": 62,
          "time": 111.4342526660168,
          "velocity": 0.3937007874015748,
          "duration": 0.015225149414064276
        },
        {
          "name": "E2",
          "midi": 40,
          "time": 111.4342526660168,
          "velocity": 0.3937007874015748,
          "duration": 0.015225149414064276
        },
        {
          "name": "D4",
          "midi": 62,
          "time": 111.47300759179805,
          "velocity": 0.3937007874015748,
          "duration": 0.015225149414064276
        },
        {
          "name": "E2",
          "midi": 40,
          "time": 111.47300759179805,
          "velocity": 0.3937007874015748,
          "duration": 0.015225149414064276
        },
        {
          "name": "G#2",
          "midi": 44,
          "time": 111.49607600000118,
          "velocity": 0.3937007874015748,
          "duration": 0.015225149414064276
        },
        {
          "name": "E2",
          "midi": 40,
          "time": 111.49607600000118,
          "velocity": 0.6299212598425197,
          "duration": 0.015225149414064276
        },
        {
          "name": "D4",
          "midi": 62,
          "time": 111.49607600000118,
          "velocity": 0.6299212598425197,
          "duration": 0.015225149414064276
        },
        {
          "name": "F#3",
          "midi": 54,
          "time": 111.49607600000118,
          "velocity": 0.47244094488188976,
          "duration": 0.015225149414064276
        },
        {
          "name": "F#3",
          "midi": 54,
          "time": 111.61418625000118,
          "velocity": 0.31496062992125984,
          "duration": 0.015225149414064276
        },
        {
          "name": "G#2",
          "midi": 44,
          "time": 111.61418625000118,
          "velocity": 0.31496062992125984,
          "duration": 0.015225149414064276
        },
        {
          "name": "G#2",
          "midi": 44,
          "time": 111.73229650000118,
          "velocity": 0.3937007874015748,
          "duration": 0.015225149414064276
        },
        {
          "name": "E2",
          "midi": 40,
          "time": 111.73229650000118,
          "velocity": 0.6299212598425197,
          "duration": 0.015225149414064276
        },
        {
          "name": "D4",
          "midi": 62,
          "time": 111.73229650000118,
          "velocity": 0.6299212598425197,
          "duration": 0.015225149414064276
        },
        {
          "name": "F#3",
          "midi": 54,
          "time": 111.73229650000118,
          "velocity": 0.47244094488188976,
          "duration": 0.015225149414064276
        },
        {
          "name": "F#3",
          "midi": 54,
          "time": 111.85040675000118,
          "velocity": 0.31496062992125984,
          "duration": 0.015225149414064276
        },
        {
          "name": "G#2",
          "midi": 44,
          "time": 111.85040675000118,
          "velocity": 0.31496062992125984,
          "duration": 0.015225149414064276
        },
        {
          "name": "G#2",
          "midi": 44,
          "time": 111.96851700000119,
          "velocity": 0.3937007874015748,
          "duration": 0.015225149414064276
        },
        {
          "name": "E2",
          "midi": 40,
          "time": 111.96851700000119,
          "velocity": 0.6299212598425197,
          "duration": 0.015225149414064276
        },
        {
          "name": "D4",
          "midi": 62,
          "time": 111.96851700000119,
          "velocity": 0.6299212598425197,
          "duration": 0.015225149414064276
        },
        {
          "name": "F#3",
          "midi": 54,
          "time": 111.96851700000119,
          "velocity": 0.47244094488188976,
          "duration": 0.015225149414064276
        },
        {
          "name": "G#2",
          "midi": 44,
          "time": 112.08662725000119,
          "velocity": 0.31496062992125984,
          "duration": 0.015225149414064276
        },
        {
          "name": "E2",
          "midi": 40,
          "time": 112.08662725000119,
          "velocity": 0.3937007874015748,
          "duration": 0.015225149414064276
        },
        {
          "name": "D4",
          "midi": 62,
          "time": 112.08662725000119,
          "velocity": 0.3937007874015748,
          "duration": 0.015225149414064276
        },
        {
          "name": "F#3",
          "midi": 54,
          "time": 112.08662725000119,
          "velocity": 0.31496062992125984,
          "duration": 0.015225149414064276
        },
        {
          "name": "D4",
          "midi": 62,
          "time": 112.12999585742307,
          "velocity": 0.3937007874015748,
          "duration": 0.015225149414064276
        },
        {
          "name": "E2",
          "midi": 40,
          "time": 112.12999585742307,
          "velocity": 0.3937007874015748,
          "duration": 0.015225149414064276
        },
        {
          "name": "D4",
          "midi": 62,
          "time": 112.17336446484495,
          "velocity": 0.3937007874015748,
          "duration": 0.015225149414064276
        },
        {
          "name": "E2",
          "midi": 40,
          "time": 112.17336446484495,
          "velocity": 0.3937007874015748,
          "duration": 0.015225149414064276
        },
        {
          "name": "G#2",
          "midi": 44,
          "time": 112.2047375000012,
          "velocity": 0.3937007874015748,
          "duration": 0.015225149414064276
        },
        {
          "name": "E2",
          "midi": 40,
          "time": 112.2047375000012,
          "velocity": 0.6299212598425197,
          "duration": 0.015225149414064276
        },
        {
          "name": "D4",
          "midi": 62,
          "time": 112.2047375000012,
          "velocity": 0.6299212598425197,
          "duration": 0.015225149414064276
        },
        {
          "name": "F#3",
          "midi": 54,
          "time": 112.2047375000012,
          "velocity": 0.47244094488188976,
          "duration": 0.015225149414064276
        },
        {
          "name": "G#2",
          "midi": 44,
          "time": 112.3228477500012,
          "velocity": 0.31496062992125984,
          "duration": 0.015225149414064276
        },
        {
          "name": "E2",
          "midi": 40,
          "time": 112.3228477500012,
          "velocity": 0.6299212598425197,
          "duration": 0.015225149414064276
        },
        {
          "name": "D4",
          "midi": 62,
          "time": 112.3228477500012,
          "velocity": 0.6299212598425197,
          "duration": 0.015225149414064276
        },
        {
          "name": "F#3",
          "midi": 54,
          "time": 112.3228477500012,
          "velocity": 0.31496062992125984,
          "duration": 0.015225149414064276
        },
        {
          "name": "F#3",
          "midi": 54,
          "time": 112.4409580000012,
          "velocity": 0.47244094488188976,
          "duration": 0.015225149414064276
        },
        {
          "name": "G#2",
          "midi": 44,
          "time": 112.4409580000012,
          "velocity": 0.3937007874015748,
          "duration": 0.015225149414064276
        },
        {
          "name": "G#2",
          "midi": 44,
          "time": 112.5590682500012,
          "velocity": 0.31496062992125984,
          "duration": 0.015225149414064276
        },
        {
          "name": "E2",
          "midi": 40,
          "time": 112.5590682500012,
          "velocity": 0.6299212598425197,
          "duration": 0.015225149414064276
        },
        {
          "name": "D4",
          "midi": 62,
          "time": 112.5590682500012,
          "velocity": 0.6299212598425197,
          "duration": 0.015225149414064276
        },
        {
          "name": "F#3",
          "midi": 54,
          "time": 112.5590682500012,
          "velocity": 0.31496062992125984,
          "duration": 0.015225149414064276
        },
        {
          "name": "G#2",
          "midi": 44,
          "time": 112.6771785000012,
          "velocity": 0.3937007874015748,
          "duration": 0.015225149414064276
        },
        {
          "name": "E2",
          "midi": 40,
          "time": 112.6771785000012,
          "velocity": 0.6299212598425197,
          "duration": 0.015225149414064276
        },
        {
          "name": "D4",
          "midi": 62,
          "time": 112.6771785000012,
          "velocity": 0.6299212598425197,
          "duration": 0.015225149414064276
        },
        {
          "name": "F#3",
          "midi": 54,
          "time": 112.6771785000012,
          "velocity": 0.47244094488188976,
          "duration": 0.015225149414064276
        },
        {
          "name": "G#2",
          "midi": 44,
          "time": 112.7952887500012,
          "velocity": 0.31496062992125984,
          "duration": 0.015225149414064276
        },
        {
          "name": "E2",
          "midi": 40,
          "time": 112.7952887500012,
          "velocity": 0.3937007874015748,
          "duration": 0.015225149414064276
        },
        {
          "name": "D4",
          "midi": 62,
          "time": 112.7952887500012,
          "velocity": 0.3937007874015748,
          "duration": 0.015225149414064276
        },
        {
          "name": "F#3",
          "midi": 54,
          "time": 112.7952887500012,
          "velocity": 0.31496062992125984,
          "duration": 0.015225149414064276
        },
        {
          "name": "D4",
          "midi": 62,
          "time": 112.85157566601683,
          "velocity": 0.3937007874015748,
          "duration": 0.015225149414064276
        },
        {
          "name": "E2",
          "midi": 40,
          "time": 112.85157566601683,
          "velocity": 0.3937007874015748,
          "duration": 0.015225149414064276
        },
        {
          "name": "D4",
          "midi": 62,
          "time": 112.89033059179808,
          "velocity": 0.3937007874015748,
          "duration": 0.015225149414064276
        },
        {
          "name": "E2",
          "midi": 40,
          "time": 112.89033059179808,
          "velocity": 0.3937007874015748,
          "duration": 0.015225149414064276
        },
        {
          "name": "G#2",
          "midi": 44,
          "time": 112.9133990000012,
          "velocity": 0.3937007874015748,
          "duration": 0.015225149414064276
        },
        {
          "name": "E2",
          "midi": 40,
          "time": 112.9133990000012,
          "velocity": 0.6299212598425197,
          "duration": 0.015225149414064276
        },
        {
          "name": "D4",
          "midi": 62,
          "time": 112.9133990000012,
          "velocity": 0.6299212598425197,
          "duration": 0.015225149414064276
        },
        {
          "name": "F#3",
          "midi": 54,
          "time": 112.9133990000012,
          "velocity": 0.47244094488188976,
          "duration": 0.015225149414064276
        },
        {
          "name": "F#3",
          "midi": 54,
          "time": 113.0315092500012,
          "velocity": 0.31496062992125984,
          "duration": 0.015225149414064276
        },
        {
          "name": "G#2",
          "midi": 44,
          "time": 113.0315092500012,
          "velocity": 0.31496062992125984,
          "duration": 0.015225149414064276
        },
        {
          "name": "G#2",
          "midi": 44,
          "time": 113.14961950000121,
          "velocity": 0.3937007874015748,
          "duration": 0.015225149414064276
        },
        {
          "name": "E2",
          "midi": 40,
          "time": 113.14961950000121,
          "velocity": 0.6299212598425197,
          "duration": 0.015225149414064276
        },
        {
          "name": "D4",
          "midi": 62,
          "time": 113.14961950000121,
          "velocity": 0.6299212598425197,
          "duration": 0.015225149414064276
        },
        {
          "name": "F#3",
          "midi": 54,
          "time": 113.14961950000121,
          "velocity": 0.47244094488188976,
          "duration": 0.015225149414064276
        },
        {
          "name": "F#3",
          "midi": 54,
          "time": 113.26772975000121,
          "velocity": 0.31496062992125984,
          "duration": 0.015225149414064276
        },
        {
          "name": "G#2",
          "midi": 44,
          "time": 113.26772975000121,
          "velocity": 0.31496062992125984,
          "duration": 0.015225149414064276
        },
        {
          "name": "G#2",
          "midi": 44,
          "time": 113.38584000000121,
          "velocity": 0.3937007874015748,
          "duration": 0.015225149414064276
        },
        {
          "name": "E2",
          "midi": 40,
          "time": 113.38584000000121,
          "velocity": 0.6299212598425197,
          "duration": 0.015225149414064276
        },
        {
          "name": "D4",
          "midi": 62,
          "time": 113.38584000000121,
          "velocity": 0.6299212598425197,
          "duration": 0.015225149414064276
        },
        {
          "name": "F#3",
          "midi": 54,
          "time": 113.38584000000121,
          "velocity": 0.47244094488188976,
          "duration": 0.015225149414064276
        },
        {
          "name": "G#2",
          "midi": 44,
          "time": 113.50395025000121,
          "velocity": 0.31496062992125984,
          "duration": 0.015225149414064276
        },
        {
          "name": "E2",
          "midi": 40,
          "time": 113.50395025000121,
          "velocity": 0.3937007874015748,
          "duration": 0.015225149414064276
        },
        {
          "name": "D4",
          "midi": 62,
          "time": 113.50395025000121,
          "velocity": 0.3937007874015748,
          "duration": 0.015225149414064276
        },
        {
          "name": "F#3",
          "midi": 54,
          "time": 113.50395025000121,
          "velocity": 0.31496062992125984,
          "duration": 0.015225149414064276
        },
        {
          "name": "D4",
          "midi": 62,
          "time": 113.5473188574231,
          "velocity": 0.3937007874015748,
          "duration": 0.015225149414064276
        },
        {
          "name": "E2",
          "midi": 40,
          "time": 113.5473188574231,
          "velocity": 0.3937007874015748,
          "duration": 0.015225149414064276
        },
        {
          "name": "D4",
          "midi": 62,
          "time": 113.59068746484498,
          "velocity": 0.3937007874015748,
          "duration": 0.015225149414064276
        },
        {
          "name": "E2",
          "midi": 40,
          "time": 113.59068746484498,
          "velocity": 0.3937007874015748,
          "duration": 0.015225149414064276
        },
        {
          "name": "G#2",
          "midi": 44,
          "time": 113.62206050000123,
          "velocity": 0.3937007874015748,
          "duration": 0.015225149414064276
        },
        {
          "name": "E2",
          "midi": 40,
          "time": 113.62206050000123,
          "velocity": 0.6299212598425197,
          "duration": 0.015225149414064276
        },
        {
          "name": "D4",
          "midi": 62,
          "time": 113.62206050000123,
          "velocity": 0.6299212598425197,
          "duration": 0.015225149414064276
        },
        {
          "name": "F#3",
          "midi": 54,
          "time": 113.62206050000123,
          "velocity": 0.47244094488188976,
          "duration": 0.015225149414064276
        },
        {
          "name": "G#2",
          "midi": 44,
          "time": 113.74017075000123,
          "velocity": 0.31496062992125984,
          "duration": 0.015225149414064276
        },
        {
          "name": "E2",
          "midi": 40,
          "time": 113.74017075000123,
          "velocity": 0.6299212598425197,
          "duration": 0.015225149414064276
        },
        {
          "name": "D4",
          "midi": 62,
          "time": 113.74017075000123,
          "velocity": 0.6299212598425197,
          "duration": 0.015225149414064276
        },
        {
          "name": "F#3",
          "midi": 54,
          "time": 113.74017075000123,
          "velocity": 0.31496062992125984,
          "duration": 0.015225149414064276
        },
        {
          "name": "F#3",
          "midi": 54,
          "time": 113.85828100000123,
          "velocity": 0.47244094488188976,
          "duration": 0.015225149414064276
        },
        {
          "name": "G#2",
          "midi": 44,
          "time": 113.85828100000123,
          "velocity": 0.3937007874015748,
          "duration": 0.015225149414064276
        },
        {
          "name": "G#2",
          "midi": 44,
          "time": 113.97639125000123,
          "velocity": 0.31496062992125984,
          "duration": 0.015225149414064276
        },
        {
          "name": "E2",
          "midi": 40,
          "time": 113.97639125000123,
          "velocity": 0.6299212598425197,
          "duration": 0.015225149414064276
        },
        {
          "name": "D4",
          "midi": 62,
          "time": 113.97639125000123,
          "velocity": 0.6299212598425197,
          "duration": 0.015225149414064276
        },
        {
          "name": "F#3",
          "midi": 54,
          "time": 113.97639125000123,
          "velocity": 0.31496062992125984,
          "duration": 0.015225149414064276
        },
        {
          "name": "G#2",
          "midi": 44,
          "time": 114.09450150000123,
          "velocity": 0.3937007874015748,
          "duration": 0.015225149414064276
        },
        {
          "name": "E2",
          "midi": 40,
          "time": 114.09450150000123,
          "velocity": 0.6299212598425197,
          "duration": 0.015225149414064276
        },
        {
          "name": "D4",
          "midi": 62,
          "time": 114.09450150000123,
          "velocity": 0.6299212598425197,
          "duration": 0.015225149414064276
        },
        {
          "name": "F#3",
          "midi": 54,
          "time": 114.09450150000123,
          "velocity": 0.47244094488188976,
          "duration": 0.015225149414064276
        },
        {
          "name": "G#2",
          "midi": 44,
          "time": 114.21261175000123,
          "velocity": 0.31496062992125984,
          "duration": 0.015225149414064276
        },
        {
          "name": "E2",
          "midi": 40,
          "time": 114.21261175000123,
          "velocity": 0.3937007874015748,
          "duration": 0.015225149414064276
        },
        {
          "name": "D4",
          "midi": 62,
          "time": 114.21261175000123,
          "velocity": 0.3937007874015748,
          "duration": 0.015225149414064276
        },
        {
          "name": "F#3",
          "midi": 54,
          "time": 114.21261175000123,
          "velocity": 0.31496062992125984,
          "duration": 0.015225149414064276
        },
        {
          "name": "D4",
          "midi": 62,
          "time": 114.26889866601685,
          "velocity": 0.3937007874015748,
          "duration": 0.015225149414064276
        },
        {
          "name": "E2",
          "midi": 40,
          "time": 114.26889866601685,
          "velocity": 0.3937007874015748,
          "duration": 0.015225149414064276
        },
        {
          "name": "D4",
          "midi": 62,
          "time": 114.3076535917981,
          "velocity": 0.3937007874015748,
          "duration": 0.015225149414064276
        },
        {
          "name": "E2",
          "midi": 40,
          "time": 114.3076535917981,
          "velocity": 0.3937007874015748,
          "duration": 0.015225149414064276
        },
        {
          "name": "G#2",
          "midi": 44,
          "time": 114.33072200000123,
          "velocity": 0.3937007874015748,
          "duration": 0.015225149414064276
        },
        {
          "name": "E2",
          "midi": 40,
          "time": 114.33072200000123,
          "velocity": 0.6299212598425197,
          "duration": 0.015225149414064276
        },
        {
          "name": "D4",
          "midi": 62,
          "time": 114.33072200000123,
          "velocity": 0.6299212598425197,
          "duration": 0.015225149414064276
        },
        {
          "name": "F#3",
          "midi": 54,
          "time": 114.33072200000123,
          "velocity": 0.47244094488188976,
          "duration": 0.015225149414064276
        },
        {
          "name": "F#3",
          "midi": 54,
          "time": 114.44883225000123,
          "velocity": 0.31496062992125984,
          "duration": 0.015225149414064276
        },
        {
          "name": "G#2",
          "midi": 44,
          "time": 114.44883225000123,
          "velocity": 0.31496062992125984,
          "duration": 0.015225149414064276
        },
        {
          "name": "G#2",
          "midi": 44,
          "time": 114.56694250000123,
          "velocity": 0.3937007874015748,
          "duration": 0.015225149414064276
        },
        {
          "name": "E2",
          "midi": 40,
          "time": 114.56694250000123,
          "velocity": 0.6299212598425197,
          "duration": 0.015225149414064276
        },
        {
          "name": "D4",
          "midi": 62,
          "time": 114.56694250000123,
          "velocity": 0.6299212598425197,
          "duration": 0.015225149414064276
        },
        {
          "name": "F#3",
          "midi": 54,
          "time": 114.56694250000123,
          "velocity": 0.47244094488188976,
          "duration": 0.015225149414064276
        },
        {
          "name": "F#3",
          "midi": 54,
          "time": 114.68505275000123,
          "velocity": 0.31496062992125984,
          "duration": 0.015225149414064276
        },
        {
          "name": "G#2",
          "midi": 44,
          "time": 114.68505275000123,
          "velocity": 0.31496062992125984,
          "duration": 0.015225149414064276
        },
        {
          "name": "G#2",
          "midi": 44,
          "time": 114.80316300000123,
          "velocity": 0.3937007874015748,
          "duration": 0.015225149414064276
        },
        {
          "name": "E2",
          "midi": 40,
          "time": 114.80316300000123,
          "velocity": 0.6299212598425197,
          "duration": 0.015225149414064276
        },
        {
          "name": "D4",
          "midi": 62,
          "time": 114.80316300000123,
          "velocity": 0.6299212598425197,
          "duration": 0.015225149414064276
        },
        {
          "name": "F#3",
          "midi": 54,
          "time": 114.80316300000123,
          "velocity": 0.47244094488188976,
          "duration": 0.015225149414064276
        },
        {
          "name": "G#2",
          "midi": 44,
          "time": 114.92127325000124,
          "velocity": 0.31496062992125984,
          "duration": 0.015225149414064276
        },
        {
          "name": "E2",
          "midi": 40,
          "time": 114.92127325000124,
          "velocity": 0.3937007874015748,
          "duration": 0.015225149414064276
        },
        {
          "name": "D4",
          "midi": 62,
          "time": 114.92127325000124,
          "velocity": 0.3937007874015748,
          "duration": 0.015225149414064276
        },
        {
          "name": "F#3",
          "midi": 54,
          "time": 114.92127325000124,
          "velocity": 0.31496062992125984,
          "duration": 0.015225149414064276
        },
        {
          "name": "D4",
          "midi": 62,
          "time": 114.96464185742312,
          "velocity": 0.3937007874015748,
          "duration": 0.015225149414064276
        },
        {
          "name": "E2",
          "midi": 40,
          "time": 114.96464185742312,
          "velocity": 0.3937007874015748,
          "duration": 0.015225149414064276
        },
        {
          "name": "D4",
          "midi": 62,
          "time": 115.008010464845,
          "velocity": 0.3937007874015748,
          "duration": 0.015225149414064276
        },
        {
          "name": "E2",
          "midi": 40,
          "time": 115.008010464845,
          "velocity": 0.3937007874015748,
          "duration": 0.015225149414064276
        },
        {
          "name": "G#2",
          "midi": 44,
          "time": 115.03938350000125,
          "velocity": 0.3937007874015748,
          "duration": 0.015225149414064276
        },
        {
          "name": "E2",
          "midi": 40,
          "time": 115.03938350000125,
          "velocity": 0.6299212598425197,
          "duration": 0.015225149414064276
        },
        {
          "name": "D4",
          "midi": 62,
          "time": 115.03938350000125,
          "velocity": 0.6299212598425197,
          "duration": 0.015225149414064276
        },
        {
          "name": "F#3",
          "midi": 54,
          "time": 115.03938350000125,
          "velocity": 0.47244094488188976,
          "duration": 0.015225149414064276
        },
        {
          "name": "G#2",
          "midi": 44,
          "time": 115.15749375000125,
          "velocity": 0.31496062992125984,
          "duration": 0.015225149414064276
        },
        {
          "name": "E2",
          "midi": 40,
          "time": 115.15749375000125,
          "velocity": 0.6299212598425197,
          "duration": 0.015225149414064276
        },
        {
          "name": "D4",
          "midi": 62,
          "time": 115.15749375000125,
          "velocity": 0.6299212598425197,
          "duration": 0.015225149414064276
        },
        {
          "name": "F#3",
          "midi": 54,
          "time": 115.15749375000125,
          "velocity": 0.31496062992125984,
          "duration": 0.015225149414064276
        },
        {
          "name": "F#3",
          "midi": 54,
          "time": 115.27560400000125,
          "velocity": 0.47244094488188976,
          "duration": 0.015225149414064276
        },
        {
          "name": "G#2",
          "midi": 44,
          "time": 115.27560400000125,
          "velocity": 0.3937007874015748,
          "duration": 0.015225149414064276
        },
        {
          "name": "G#2",
          "midi": 44,
          "time": 115.39371425000125,
          "velocity": 0.31496062992125984,
          "duration": 0.015225149414064276
        },
        {
          "name": "E2",
          "midi": 40,
          "time": 115.39371425000125,
          "velocity": 0.6299212598425197,
          "duration": 0.015225149414064276
        },
        {
          "name": "D4",
          "midi": 62,
          "time": 115.39371425000125,
          "velocity": 0.6299212598425197,
          "duration": 0.015225149414064276
        },
        {
          "name": "F#3",
          "midi": 54,
          "time": 115.39371425000125,
          "velocity": 0.31496062992125984,
          "duration": 0.015225149414064276
        },
        {
          "name": "G#2",
          "midi": 44,
          "time": 115.51182450000125,
          "velocity": 0.3937007874015748,
          "duration": 0.015225149414064276
        },
        {
          "name": "E2",
          "midi": 40,
          "time": 115.51182450000125,
          "velocity": 0.6299212598425197,
          "duration": 0.015225149414064276
        },
        {
          "name": "D4",
          "midi": 62,
          "time": 115.51182450000125,
          "velocity": 0.6299212598425197,
          "duration": 0.015225149414064276
        },
        {
          "name": "F#3",
          "midi": 54,
          "time": 115.51182450000125,
          "velocity": 0.47244094488188976,
          "duration": 0.015225149414064276
        },
        {
          "name": "G#2",
          "midi": 44,
          "time": 115.62993475000125,
          "velocity": 0.31496062992125984,
          "duration": 0.015225149414064276
        },
        {
          "name": "E2",
          "midi": 40,
          "time": 115.62993475000125,
          "velocity": 0.3937007874015748,
          "duration": 0.015225149414064276
        },
        {
          "name": "D4",
          "midi": 62,
          "time": 115.62993475000125,
          "velocity": 0.3937007874015748,
          "duration": 0.015225149414064276
        },
        {
          "name": "F#3",
          "midi": 54,
          "time": 115.62993475000125,
          "velocity": 0.31496062992125984,
          "duration": 0.015225149414064276
        },
        {
          "name": "D4",
          "midi": 62,
          "time": 115.68622166601688,
          "velocity": 0.3937007874015748,
          "duration": 0.015225149414064276
        },
        {
          "name": "E2",
          "midi": 40,
          "time": 115.68622166601688,
          "velocity": 0.3937007874015748,
          "duration": 0.015225149414064276
        },
        {
          "name": "D4",
          "midi": 62,
          "time": 115.72497659179813,
          "velocity": 0.3937007874015748,
          "duration": 0.015225149414064276
        },
        {
          "name": "E2",
          "midi": 40,
          "time": 115.72497659179813,
          "velocity": 0.3937007874015748,
          "duration": 0.015225149414064276
        },
        {
          "name": "G#2",
          "midi": 44,
          "time": 115.74804500000126,
          "velocity": 0.3937007874015748,
          "duration": 0.015225149414064276
        },
        {
          "name": "E2",
          "midi": 40,
          "time": 115.74804500000126,
          "velocity": 0.6299212598425197,
          "duration": 0.015225149414064276
        },
        {
          "name": "D4",
          "midi": 62,
          "time": 115.74804500000126,
          "velocity": 0.6299212598425197,
          "duration": 0.015225149414064276
        },
        {
          "name": "F#3",
          "midi": 54,
          "time": 115.74804500000126,
          "velocity": 0.47244094488188976,
          "duration": 0.015225149414064276
        },
        {
          "name": "F#3",
          "midi": 54,
          "time": 115.86615525000126,
          "velocity": 0.31496062992125984,
          "duration": 0.015225149414064276
        },
        {
          "name": "G#2",
          "midi": 44,
          "time": 115.86615525000126,
          "velocity": 0.31496062992125984,
          "duration": 0.015225149414064276
        },
        {
          "name": "G#2",
          "midi": 44,
          "time": 115.98426550000126,
          "velocity": 0.3937007874015748,
          "duration": 0.015225149414064276
        },
        {
          "name": "E2",
          "midi": 40,
          "time": 115.98426550000126,
          "velocity": 0.6299212598425197,
          "duration": 0.015225149414064276
        },
        {
          "name": "D4",
          "midi": 62,
          "time": 115.98426550000126,
          "velocity": 0.6299212598425197,
          "duration": 0.015225149414064276
        },
        {
          "name": "F#3",
          "midi": 54,
          "time": 115.98426550000126,
          "velocity": 0.47244094488188976,
          "duration": 0.015225149414064276
        },
        {
          "name": "F#3",
          "midi": 54,
          "time": 116.10237575000126,
          "velocity": 0.31496062992125984,
          "duration": 0.015225149414064276
        },
        {
          "name": "G#2",
          "midi": 44,
          "time": 116.10237575000126,
          "velocity": 0.31496062992125984,
          "duration": 0.015225149414064276
        },
        {
          "name": "G#2",
          "midi": 44,
          "time": 116.22048600000126,
          "velocity": 0.3937007874015748,
          "duration": 0.015225149414064276
        },
        {
          "name": "E2",
          "midi": 40,
          "time": 116.22048600000126,
          "velocity": 0.6299212598425197,
          "duration": 0.015225149414064276
        },
        {
          "name": "D4",
          "midi": 62,
          "time": 116.22048600000126,
          "velocity": 0.6299212598425197,
          "duration": 0.015225149414064276
        },
        {
          "name": "F#3",
          "midi": 54,
          "time": 116.22048600000126,
          "velocity": 0.47244094488188976,
          "duration": 0.015225149414064276
        },
        {
          "name": "G#2",
          "midi": 44,
          "time": 116.33859625000126,
          "velocity": 0.31496062992125984,
          "duration": 0.015225149414064276
        },
        {
          "name": "E2",
          "midi": 40,
          "time": 116.33859625000126,
          "velocity": 0.3937007874015748,
          "duration": 0.015225149414064276
        },
        {
          "name": "D4",
          "midi": 62,
          "time": 116.33859625000126,
          "velocity": 0.3937007874015748,
          "duration": 0.015225149414064276
        },
        {
          "name": "F#3",
          "midi": 54,
          "time": 116.33859625000126,
          "velocity": 0.31496062992125984,
          "duration": 0.015225149414064276
        },
        {
          "name": "D4",
          "midi": 62,
          "time": 116.38196485742314,
          "velocity": 0.3937007874015748,
          "duration": 0.015225149414064276
        },
        {
          "name": "E2",
          "midi": 40,
          "time": 116.38196485742314,
          "velocity": 0.3937007874015748,
          "duration": 0.015225149414064276
        },
        {
          "name": "D4",
          "midi": 62,
          "time": 116.42533346484502,
          "velocity": 0.3937007874015748,
          "duration": 0.015225149414064276
        },
        {
          "name": "E2",
          "midi": 40,
          "time": 116.42533346484502,
          "velocity": 0.3937007874015748,
          "duration": 0.015225149414064276
        },
        {
          "name": "G#2",
          "midi": 44,
          "time": 116.45670650000127,
          "velocity": 0.3937007874015748,
          "duration": 0.015225149414064276
        },
        {
          "name": "E2",
          "midi": 40,
          "time": 116.45670650000127,
          "velocity": 0.6299212598425197,
          "duration": 0.015225149414064276
        },
        {
          "name": "D4",
          "midi": 62,
          "time": 116.45670650000127,
          "velocity": 0.6299212598425197,
          "duration": 0.015225149414064276
        },
        {
          "name": "F#3",
          "midi": 54,
          "time": 116.45670650000127,
          "velocity": 0.47244094488188976,
          "duration": 0.015225149414064276
        },
        {
          "name": "G#2",
          "midi": 44,
          "time": 116.57481675000128,
          "velocity": 0.31496062992125984,
          "duration": 0.015225149414064276
        },
        {
          "name": "E2",
          "midi": 40,
          "time": 116.57481675000128,
          "velocity": 0.6299212598425197,
          "duration": 0.015225149414064276
        },
        {
          "name": "D4",
          "midi": 62,
          "time": 116.57481675000128,
          "velocity": 0.6299212598425197,
          "duration": 0.015225149414064276
        },
        {
          "name": "F#3",
          "midi": 54,
          "time": 116.57481675000128,
          "velocity": 0.31496062992125984,
          "duration": 0.015225149414064276
        },
        {
          "name": "F#3",
          "midi": 54,
          "time": 116.69292700000128,
          "velocity": 0.47244094488188976,
          "duration": 0.015225149414064276
        },
        {
          "name": "G#2",
          "midi": 44,
          "time": 116.69292700000128,
          "velocity": 0.3937007874015748,
          "duration": 0.015225149414064276
        },
        {
          "name": "G#2",
          "midi": 44,
          "time": 116.81103725000128,
          "velocity": 0.31496062992125984,
          "duration": 0.015225149414064276
        },
        {
          "name": "E2",
          "midi": 40,
          "time": 116.81103725000128,
          "velocity": 0.6299212598425197,
          "duration": 0.015225149414064276
        },
        {
          "name": "D4",
          "midi": 62,
          "time": 116.81103725000128,
          "velocity": 0.6299212598425197,
          "duration": 0.015225149414064276
        },
        {
          "name": "F#3",
          "midi": 54,
          "time": 116.81103725000128,
          "velocity": 0.31496062992125984,
          "duration": 0.015225149414064276
        },
        {
          "name": "G#2",
          "midi": 44,
          "time": 116.92914750000128,
          "velocity": 0.3937007874015748,
          "duration": 0.015225149414064276
        },
        {
          "name": "E2",
          "midi": 40,
          "time": 116.92914750000128,
          "velocity": 0.6299212598425197,
          "duration": 0.015225149414064276
        },
        {
          "name": "D4",
          "midi": 62,
          "time": 116.92914750000128,
          "velocity": 0.6299212598425197,
          "duration": 0.015225149414064276
        },
        {
          "name": "F#3",
          "midi": 54,
          "time": 116.92914750000128,
          "velocity": 0.47244094488188976,
          "duration": 0.015225149414064276
        },
        {
          "name": "D4",
          "midi": 62,
          "time": 117.04725775000128,
          "velocity": 0.3937007874015748,
          "duration": 0.015225149414064276
        },
        {
          "name": "E2",
          "midi": 40,
          "time": 117.04725775000128,
          "velocity": 0.3937007874015748,
          "duration": 0.015225149414064276
        },
        {
          "name": "D4",
          "midi": 62,
          "time": 117.1035446660169,
          "velocity": 0.3937007874015748,
          "duration": 0.015225149414064276
        },
        {
          "name": "E2",
          "midi": 40,
          "time": 117.1035446660169,
          "velocity": 0.3937007874015748,
          "duration": 0.015225149414064276
        },
        {
          "name": "D4",
          "midi": 62,
          "time": 117.14229959179815,
          "velocity": 0.3937007874015748,
          "duration": 0.015225149414064276
        },
        {
          "name": "E2",
          "midi": 40,
          "time": 117.14229959179815,
          "velocity": 0.3937007874015748,
          "duration": 0.015225149414064276
        },
        {
          "name": "D4",
          "midi": 62,
          "time": 117.16536800000128,
          "velocity": 0.6299212598425197,
          "duration": 0.015225149414064276
        },
        {
          "name": "E2",
          "midi": 40,
          "time": 117.16536800000128,
          "velocity": 0.6299212598425197,
          "duration": 0.015225149414064276
        },
        {
          "name": "D4",
          "midi": 62,
          "time": 117.40158850000128,
          "velocity": 0.6299212598425197,
          "duration": 0.015225149414064276
        },
        {
          "name": "E2",
          "midi": 40,
          "time": 117.40158850000128,
          "velocity": 0.6299212598425197,
          "duration": 0.015225149414064276
        }
      ],
      "controlChanges": {
        "7": [
          {
            "number": 7,
            "time": 0,
            "value": 1
          },
          {
            "number": 7,
            "time": 0,
            "value": 1
          },
          {
            "number": 7,
            "time": 0,
            "value": 0.7874015748031497
          },
          {
            "number": 7,
            "time": 0,
            "value": 1
          },
          {
            "number": 7,
            "time": 0,
            "value": 1
          },
          {
            "number": 7,
            "time": 38.267721000000165,
            "value": 0.8661417322834646
          },
          {
            "number": 7,
            "time": 60.94488900000043,
            "value": 0.8661417322834646
          }
        ],
        "32": [
          {
            "number": 32,
            "time": 0,
            "value": 0
          },
          {
            "number": 32,
            "time": 0,
            "value": 0
          },
          {
            "number": 32,
            "time": 0,
            "value": 0
          },
          {
            "number": 32,
            "time": 0,
            "value": 0
          }
        ]
      },
      "id": 9,
      "name": "Untitled",
      "instrumentNumber": 0,
      "instrument": "standard kit",
      "instrumentFamily": "drums",
      "channelNumber": 9,
      "isPercussion": true
    },
    {
      "startTime": 0,
      "duration": 117.5196987500004,
      "length": 180,
      "notes": [
        {
          "name": "G2",
          "midi": 43,
          "time": 0,
          "velocity": 0.6299212598425197,
          "duration": 0.2362205
        },
        {
          "name": "G2",
          "midi": 43,
          "time": 1.4173229999999999,
          "velocity": 0.6299212598425197,
          "duration": 0.23622049999999994
        },
        {
          "name": "G2",
          "midi": 43,
          "time": 2.8346459999999998,
          "velocity": 0.6299212598425197,
          "duration": 0.23622049999999994
        },
        {
          "name": "D#2",
          "midi": 39,
          "time": 4.251969,
          "velocity": 0.6299212598425197,
          "duration": 0.23622049999999994
        },
        {
          "name": "D2",
          "midi": 38,
          "time": 4.9606305,
          "velocity": 0.6299212598425197,
          "duration": 0.23622049999999994
        },
        {
          "name": "G2",
          "midi": 43,
          "time": 5.6692919999999996,
          "velocity": 0.6299212598425197,
          "duration": 0.23622049999999994
        },
        {
          "name": "G2",
          "midi": 43,
          "time": 7.086614999999999,
          "velocity": 0.6299212598425197,
          "duration": 0.23622049999999994
        },
        {
          "name": "G2",
          "midi": 43,
          "time": 8.503938,
          "velocity": 0.6299212598425197,
          "duration": 0.23622049999999994
        },
        {
          "name": "D#2",
          "midi": 39,
          "time": 9.921261,
          "velocity": 0.6299212598425197,
          "duration": 0.23622049999999994
        },
        {
          "name": "D2",
          "midi": 38,
          "time": 10.6299225,
          "velocity": 0.6299212598425197,
          "duration": 0.23622049999999994
        },
        {
          "name": "G2",
          "midi": 43,
          "time": 11.338583999999999,
          "velocity": 0.6299212598425197,
          "duration": 0.23622049999999994
        },
        {
          "name": "G2",
          "midi": 43,
          "time": 12.755906999999999,
          "velocity": 0.6299212598425197,
          "duration": 0.23622049999999994
        },
        {
          "name": "G2",
          "midi": 43,
          "time": 14.173229999999998,
          "velocity": 0.6299212598425197,
          "duration": 0.23622049999999994
        },
        {
          "name": "D#2",
          "midi": 39,
          "time": 15.590552999999998,
          "velocity": 0.6299212598425197,
          "duration": 0.23622049999999994
        },
        {
          "name": "D2",
          "midi": 38,
          "time": 16.299214499999998,
          "velocity": 0.6299212598425197,
          "duration": 0.23622050000000172
        },
        {
          "name": "G2",
          "midi": 43,
          "time": 17.007876,
          "velocity": 0.6299212598425197,
          "duration": 0.23622050000000172
        },
        {
          "name": "G2",
          "midi": 43,
          "time": 18.425199000000003,
          "velocity": 0.6299212598425197,
          "duration": 0.23622050000000172
        },
        {
          "name": "G2",
          "midi": 43,
          "time": 19.842522000000006,
          "velocity": 0.6299212598425197,
          "duration": 0.23622050000000172
        },
        {
          "name": "D#2",
          "midi": 39,
          "time": 21.25984500000001,
          "velocity": 0.6299212598425197,
          "duration": 0.23622050000000172
        },
        {
          "name": "D2",
          "midi": 38,
          "time": 21.96850650000001,
          "velocity": 0.6299212598425197,
          "duration": 0.23622050000000172
        },
        {
          "name": "G#2",
          "midi": 44,
          "time": 22.677168000000012,
          "velocity": 0.6299212598425197,
          "duration": 0.23622050000000172
        },
        {
          "name": "G#2",
          "midi": 44,
          "time": 24.094491000000016,
          "velocity": 0.6299212598425197,
          "duration": 0.23622050000000172
        },
        {
          "name": "G#2",
          "midi": 44,
          "time": 25.51181400000002,
          "velocity": 0.6299212598425197,
          "duration": 0.23622050000000172
        },
        {
          "name": "E2",
          "midi": 40,
          "time": 26.929137000000022,
          "velocity": 0.6299212598425197,
          "duration": 0.23622050000000172
        },
        {
          "name": "D#2",
          "midi": 39,
          "time": 27.637798500000024,
          "velocity": 0.6299212598425197,
          "duration": 0.23622050000000172
        },
        {
          "name": "G#2",
          "midi": 44,
          "time": 28.346460000000025,
          "velocity": 0.6299212598425197,
          "duration": 0.23622050000000172
        },
        {
          "name": "G#2",
          "midi": 44,
          "time": 29.76378300000003,
          "velocity": 0.6299212598425197,
          "duration": 0.23622050000000172
        },
        {
          "name": "G#2",
          "midi": 44,
          "time": 31.18110600000003,
          "velocity": 0.6299212598425197,
          "duration": 0.23622050000000172
        },
        {
          "name": "E2",
          "midi": 40,
          "time": 32.59842900000003,
          "velocity": 0.6299212598425197,
          "duration": 0.23622050000000172
        },
        {
          "name": "D#2",
          "midi": 39,
          "time": 33.30709050000004,
          "velocity": 0.6299212598425197,
          "duration": 0.23622050000000172
        },
        {
          "name": "C#2",
          "midi": 37,
          "time": 34.01575200000004,
          "velocity": 0.6299212598425197,
          "duration": 0.23622050000000172
        },
        {
          "name": "D#2",
          "midi": 39,
          "time": 34.72441350000005,
          "velocity": 0.6299212598425197,
          "duration": 0.23622050000000172
        },
        {
          "name": "C#2",
          "midi": 37,
          "time": 35.43307500000005,
          "velocity": 0.6299212598425197,
          "duration": 0.23622050000000172
        },
        {
          "name": "D#2",
          "midi": 39,
          "time": 36.14173650000006,
          "velocity": 0.6299212598425197,
          "duration": 0.23622050000000172
        },
        {
          "name": "C#2",
          "midi": 37,
          "time": 36.85039800000006,
          "velocity": 0.6299212598425197,
          "duration": 0.23622050000000172
        },
        {
          "name": "D#2",
          "midi": 39,
          "time": 37.55905950000007,
          "velocity": 0.6299212598425197,
          "duration": 0.23622050000000172
        },
        {
          "name": "G#2",
          "midi": 44,
          "time": 49.60630500000007,
          "velocity": 0.5511811023622047,
          "duration": 0.23622050000000172
        },
        {
          "name": "G#2",
          "midi": 44,
          "time": 49.96063575000007,
          "velocity": 0.5511811023622047,
          "duration": 0.23622050000000172
        },
        {
          "name": "D#2",
          "midi": 39,
          "time": 50.314966500000075,
          "velocity": 0.5511811023622047,
          "duration": 0.23622050000000172
        },
        {
          "name": "E2",
          "midi": 40,
          "time": 51.02362800000008,
          "velocity": 0.5511811023622047,
          "duration": 0.23622050000000172
        },
        {
          "name": "E2",
          "midi": 40,
          "time": 51.37795875000008,
          "velocity": 0.5511811023622047,
          "duration": 0.23622050000000172
        },
        {
          "name": "F#2",
          "midi": 42,
          "time": 51.732289500000086,
          "velocity": 0.5511811023622047,
          "duration": 0.23622050000000172
        },
        {
          "name": "F#2",
          "midi": 42,
          "time": 51.96851000000009,
          "velocity": 0.5511811023622047,
          "duration": 0.23622050000000172
        },
        {
          "name": "F#2",
          "midi": 42,
          "time": 52.20473050000009,
          "velocity": 0.5511811023622047,
          "duration": 0.23622050000000172
        },
        {
          "name": "G#2",
          "midi": 44,
          "time": 52.44095100000009,
          "velocity": 0.5511811023622047,
          "duration": 0.23622050000000172
        },
        {
          "name": "G#2",
          "midi": 44,
          "time": 52.79528175000009,
          "velocity": 0.5511811023622047,
          "duration": 0.23622050000000172
        },
        {
          "name": "D#2",
          "midi": 39,
          "time": 53.149612500000096,
          "velocity": 0.5511811023622047,
          "duration": 0.23622050000000172
        },
        {
          "name": "E2",
          "midi": 40,
          "time": 53.8582740000001,
          "velocity": 0.5511811023622047,
          "duration": 0.23622050000000172
        },
        {
          "name": "E2",
          "midi": 40,
          "time": 54.212604750000104,
          "velocity": 0.5511811023622047,
          "duration": 0.23622050000000172
        },
        {
          "name": "F#2",
          "midi": 42,
          "time": 54.566935500000106,
          "velocity": 0.5511811023622047,
          "duration": 0.23622050000000172
        },
        {
          "name": "F#2",
          "midi": 42,
          "time": 54.80315600000011,
          "velocity": 0.5511811023622047,
          "duration": 0.23622050000000172
        },
        {
          "name": "F#2",
          "midi": 42,
          "time": 55.03937650000011,
          "velocity": 0.5511811023622047,
          "duration": 0.23622050000000172
        },
        {
          "name": "G#2",
          "midi": 44,
          "time": 55.27559700000011,
          "velocity": 0.5511811023622047,
          "duration": 0.23622050000000172
        },
        {
          "name": "G#2",
          "midi": 44,
          "time": 55.629927750000114,
          "velocity": 0.5511811023622047,
          "duration": 0.23622050000000172
        },
        {
          "name": "D#2",
          "midi": 39,
          "time": 55.98425850000012,
          "velocity": 0.5511811023622047,
          "duration": 0.23622050000000172
        },
        {
          "name": "E2",
          "midi": 40,
          "time": 56.69292000000012,
          "velocity": 0.5511811023622047,
          "duration": 0.23622050000000172
        },
        {
          "name": "E2",
          "midi": 40,
          "time": 57.047250750000124,
          "velocity": 0.5511811023622047,
          "duration": 0.23622050000000172
        },
        {
          "name": "F#2",
          "midi": 42,
          "time": 57.40158150000013,
          "velocity": 0.5511811023622047,
          "duration": 0.23622050000000172
        },
        {
          "name": "F#2",
          "midi": 42,
          "time": 57.63780200000013,
          "velocity": 0.5511811023622047,
          "duration": 0.23622050000000172
        },
        {
          "name": "F#2",
          "midi": 42,
          "time": 57.87402250000013,
          "velocity": 0.5511811023622047,
          "duration": 0.23622050000000172
        },
        {
          "name": "G#2",
          "midi": 44,
          "time": 58.11024300000013,
          "velocity": 0.5511811023622047,
          "duration": 0.23622050000000172
        },
        {
          "name": "G#2",
          "midi": 44,
          "time": 58.464573750000135,
          "velocity": 0.5511811023622047,
          "duration": 0.23622050000000172
        },
        {
          "name": "D#2",
          "midi": 39,
          "time": 58.81890450000014,
          "velocity": 0.5511811023622047,
          "duration": 0.23622050000000172
        },
        {
          "name": "E2",
          "midi": 40,
          "time": 59.52756600000014,
          "velocity": 0.5511811023622047,
          "duration": 0.23622050000000172
        },
        {
          "name": "E2",
          "midi": 40,
          "time": 59.881896750000145,
          "velocity": 0.5511811023622047,
          "duration": 0.23622050000000172
        },
        {
          "name": "D#2",
          "midi": 39,
          "time": 60.23622750000015,
          "velocity": 0.5511811023622047,
          "duration": 0.23622050000000172
        },
        {
          "name": "D#2",
          "midi": 39,
          "time": 60.47244800000015,
          "velocity": 0.47244094488188976,
          "duration": 0.23622050000000172
        },
        {
          "name": "D#2",
          "midi": 39,
          "time": 60.70866850000015,
          "velocity": 0.47244094488188976,
          "duration": 0.23622050000000172
        },
        {
          "name": "G#2",
          "midi": 44,
          "time": 72.28347300000016,
          "velocity": 0.5511811023622047,
          "duration": 0.23622050000000172
        },
        {
          "name": "G#2",
          "midi": 44,
          "time": 72.63780375000016,
          "velocity": 0.5511811023622047,
          "duration": 0.23622050000000172
        },
        {
          "name": "D#2",
          "midi": 39,
          "time": 72.99213450000016,
          "velocity": 0.5511811023622047,
          "duration": 0.23622050000000172
        },
        {
          "name": "E2",
          "midi": 40,
          "time": 73.70079600000017,
          "velocity": 0.5511811023622047,
          "duration": 0.23622050000000172
        },
        {
          "name": "E2",
          "midi": 40,
          "time": 74.05512675000017,
          "velocity": 0.5511811023622047,
          "duration": 0.23622050000000172
        },
        {
          "name": "F#2",
          "midi": 42,
          "time": 74.40945750000017,
          "velocity": 0.5511811023622047,
          "duration": 0.23622050000000172
        },
        {
          "name": "F#2",
          "midi": 42,
          "time": 74.64567800000017,
          "velocity": 0.5511811023622047,
          "duration": 0.23622050000000172
        },
        {
          "name": "F#2",
          "midi": 42,
          "time": 74.88189850000018,
          "velocity": 0.5511811023622047,
          "duration": 0.23622050000000172
        },
        {
          "name": "G#2",
          "midi": 44,
          "time": 75.11811900000018,
          "velocity": 0.5511811023622047,
          "duration": 0.23622050000000172
        },
        {
          "name": "G#2",
          "midi": 44,
          "time": 75.47244975000018,
          "velocity": 0.5511811023622047,
          "duration": 0.23622050000000172
        },
        {
          "name": "D#2",
          "midi": 39,
          "time": 75.82678050000018,
          "velocity": 0.5511811023622047,
          "duration": 0.23622050000000172
        },
        {
          "name": "E2",
          "midi": 40,
          "time": 76.53544200000019,
          "velocity": 0.5511811023622047,
          "duration": 0.23622050000000172
        },
        {
          "name": "E2",
          "midi": 40,
          "time": 76.88977275000019,
          "velocity": 0.5511811023622047,
          "duration": 0.23622050000000172
        },
        {
          "name": "F#2",
          "midi": 42,
          "time": 77.2441035000002,
          "velocity": 0.5511811023622047,
          "duration": 0.23622050000000172
        },
        {
          "name": "F#2",
          "midi": 42,
          "time": 77.4803240000002,
          "velocity": 0.5511811023622047,
          "duration": 0.23622050000000172
        },
        {
          "name": "F#2",
          "midi": 42,
          "time": 77.7165445000002,
          "velocity": 0.5511811023622047,
          "duration": 0.23622050000000172
        },
        {
          "name": "G#2",
          "midi": 44,
          "time": 77.9527650000002,
          "velocity": 0.5511811023622047,
          "duration": 0.23622050000000172
        },
        {
          "name": "G#2",
          "midi": 44,
          "time": 78.3070957500002,
          "velocity": 0.5511811023622047,
          "duration": 0.23622050000000172
        },
        {
          "name": "D#2",
          "midi": 39,
          "time": 78.6614265000002,
          "velocity": 0.5511811023622047,
          "duration": 0.23622050000000172
        },
        {
          "name": "E2",
          "midi": 40,
          "time": 79.37008800000021,
          "velocity": 0.5511811023622047,
          "duration": 0.23622050000000172
        },
        {
          "name": "E2",
          "midi": 40,
          "time": 79.72441875000021,
          "velocity": 0.5511811023622047,
          "duration": 0.23622050000000172
        },
        {
          "name": "F#2",
          "midi": 42,
          "time": 80.07874950000021,
          "velocity": 0.5511811023622047,
          "duration": 0.23622050000000172
        },
        {
          "name": "F#2",
          "midi": 42,
          "time": 80.31497000000022,
          "velocity": 0.5511811023622047,
          "duration": 0.23622050000000172
        },
        {
          "name": "F#2",
          "midi": 42,
          "time": 80.55119050000022,
          "velocity": 0.5511811023622047,
          "duration": 0.23622050000000172
        },
        {
          "name": "G#2",
          "midi": 44,
          "time": 80.78741100000022,
          "velocity": 0.5511811023622047,
          "duration": 0.23622050000000172
        },
        {
          "name": "G#2",
          "midi": 44,
          "time": 81.14174175000022,
          "velocity": 0.5511811023622047,
          "duration": 0.23622050000000172
        },
        {
          "name": "D#2",
          "midi": 39,
          "time": 81.49607250000022,
          "velocity": 0.5511811023622047,
          "duration": 0.23622050000000172
        },
        {
          "name": "E2",
          "midi": 40,
          "time": 82.20473400000023,
          "velocity": 0.5511811023622047,
          "duration": 0.23622050000000172
        },
        {
          "name": "E2",
          "midi": 40,
          "time": 82.55906475000023,
          "velocity": 0.5511811023622047,
          "duration": 0.23622050000000172
        },
        {
          "name": "D#2",
          "midi": 39,
          "time": 82.91339550000023,
          "velocity": 0.5511811023622047,
          "duration": 0.23622050000000172
        },
        {
          "name": "D#2",
          "midi": 39,
          "time": 83.14961600000024,
          "velocity": 0.47244094488188976,
          "duration": 0.23622050000000172
        },
        {
          "name": "D#2",
          "midi": 39,
          "time": 83.38583650000024,
          "velocity": 0.47244094488188976,
          "duration": 0.23622050000000172
        },
        {
          "name": "D#2",
          "midi": 39,
          "time": 94.96064100000024,
          "velocity": 0.6299212598425197,
          "duration": 0.11811025000000086
        },
        {
          "name": "D#2",
          "midi": 39,
          "time": 95.31497175000024,
          "velocity": 0.6299212598425197,
          "duration": 0.11811025000000086
        },
        {
          "name": "D#2",
          "midi": 39,
          "time": 95.66930250000024,
          "velocity": 0.6299212598425197,
          "duration": 0.11811025000000086
        },
        {
          "name": "D#2",
          "midi": 39,
          "time": 95.90552300000024,
          "velocity": 0.6299212598425197,
          "duration": 0.11811025000000086
        },
        {
          "name": "D#2",
          "midi": 39,
          "time": 96.14174350000025,
          "velocity": 0.6299212598425197,
          "duration": 0.11811025000000086
        },
        {
          "name": "F2",
          "midi": 41,
          "time": 96.37796400000025,
          "velocity": 0.6299212598425197,
          "duration": 0.11811025000000086
        },
        {
          "name": "F2",
          "midi": 41,
          "time": 96.73229475000025,
          "velocity": 0.6299212598425197,
          "duration": 0.11811025000000086
        },
        {
          "name": "F2",
          "midi": 41,
          "time": 97.08662550000025,
          "velocity": 0.6299212598425197,
          "duration": 0.11811025000000086
        },
        {
          "name": "F2",
          "midi": 41,
          "time": 97.32284600000025,
          "velocity": 0.6299212598425197,
          "duration": 0.11811025000000086
        },
        {
          "name": "F2",
          "midi": 41,
          "time": 97.55906650000026,
          "velocity": 0.6299212598425197,
          "duration": 0.11811025000000086
        },
        {
          "name": "G2",
          "midi": 43,
          "time": 97.79528700000026,
          "velocity": 0.6299212598425197,
          "duration": 0.11811025000000086
        },
        {
          "name": "G2",
          "midi": 43,
          "time": 98.14961775000026,
          "velocity": 0.6299212598425197,
          "duration": 0.11811025000000086
        },
        {
          "name": "G2",
          "midi": 43,
          "time": 98.50394850000026,
          "velocity": 0.6299212598425197,
          "duration": 0.11811025000000086
        },
        {
          "name": "G2",
          "midi": 43,
          "time": 98.74016900000026,
          "velocity": 0.6299212598425197,
          "duration": 0.11811025000000086
        },
        {
          "name": "G2",
          "midi": 43,
          "time": 98.97638950000027,
          "velocity": 0.6299212598425197,
          "duration": 0.11811025000000086
        },
        {
          "name": "D2",
          "midi": 38,
          "time": 99.21261000000027,
          "velocity": 0.6299212598425197,
          "duration": 0.11811025000000086
        },
        {
          "name": "D2",
          "midi": 38,
          "time": 99.56694075000027,
          "velocity": 0.6299212598425197,
          "duration": 0.11811025000000086
        },
        {
          "name": "F2",
          "midi": 41,
          "time": 99.92127150000027,
          "velocity": 0.6299212598425197,
          "duration": 0.11811025000000086
        },
        {
          "name": "F2",
          "midi": 41,
          "time": 100.15749200000027,
          "velocity": 0.6299212598425197,
          "duration": 0.11811025000000086
        },
        {
          "name": "F2",
          "midi": 41,
          "time": 100.39371250000028,
          "velocity": 0.6299212598425197,
          "duration": 0.11811025000000086
        },
        {
          "name": "D#2",
          "midi": 39,
          "time": 100.62993300000028,
          "velocity": 0.6299212598425197,
          "duration": 0.11811025000000086
        },
        {
          "name": "D#2",
          "midi": 39,
          "time": 100.98426375000028,
          "velocity": 0.6299212598425197,
          "duration": 0.11811025000000086
        },
        {
          "name": "D#2",
          "midi": 39,
          "time": 101.33859450000028,
          "velocity": 0.6299212598425197,
          "duration": 0.11811025000000086
        },
        {
          "name": "D#2",
          "midi": 39,
          "time": 101.57481500000029,
          "velocity": 0.6299212598425197,
          "duration": 0.11811025000000086
        },
        {
          "name": "D#2",
          "midi": 39,
          "time": 101.81103550000029,
          "velocity": 0.6299212598425197,
          "duration": 0.11811025000000086
        },
        {
          "name": "F2",
          "midi": 41,
          "time": 102.04725600000029,
          "velocity": 0.6299212598425197,
          "duration": 0.11811025000000086
        },
        {
          "name": "F2",
          "midi": 41,
          "time": 102.40158675000029,
          "velocity": 0.6299212598425197,
          "duration": 0.11811025000000086
        },
        {
          "name": "F2",
          "midi": 41,
          "time": 102.7559175000003,
          "velocity": 0.6299212598425197,
          "duration": 0.11811025000000086
        },
        {
          "name": "F2",
          "midi": 41,
          "time": 102.9921380000003,
          "velocity": 0.6299212598425197,
          "duration": 0.11811025000000086
        },
        {
          "name": "F2",
          "midi": 41,
          "time": 103.2283585000003,
          "velocity": 0.6299212598425197,
          "duration": 0.11811025000000086
        },
        {
          "name": "G2",
          "midi": 43,
          "time": 103.4645790000003,
          "velocity": 0.6299212598425197,
          "duration": 0.11811025000000086
        },
        {
          "name": "G2",
          "midi": 43,
          "time": 103.8189097500003,
          "velocity": 0.6299212598425197,
          "duration": 0.11811025000000086
        },
        {
          "name": "G2",
          "midi": 43,
          "time": 104.1732405000003,
          "velocity": 0.6299212598425197,
          "duration": 0.11811025000000086
        },
        {
          "name": "G2",
          "midi": 43,
          "time": 104.4094610000003,
          "velocity": 0.6299212598425197,
          "duration": 0.11811025000000086
        },
        {
          "name": "G2",
          "midi": 43,
          "time": 104.64568150000031,
          "velocity": 0.6299212598425197,
          "duration": 0.11811025000000086
        },
        {
          "name": "G2",
          "midi": 43,
          "time": 104.88190200000031,
          "velocity": 0.6299212598425197,
          "duration": 0.11811025000000086
        },
        {
          "name": "F2",
          "midi": 41,
          "time": 105.23623275000031,
          "velocity": 0.6299212598425197,
          "duration": 0.11811025000000086
        },
        {
          "name": "G2",
          "midi": 43,
          "time": 105.59056350000031,
          "velocity": 0.6299212598425197,
          "duration": 0.11811025000000086
        },
        {
          "name": "G2",
          "midi": 43,
          "time": 105.82678400000032,
          "velocity": 0.6299212598425197,
          "duration": 0.11811025000000086
        },
        {
          "name": "G2",
          "midi": 43,
          "time": 106.06300450000032,
          "velocity": 0.6299212598425197,
          "duration": 0.11811025000000086
        },
        {
          "name": "D#2",
          "midi": 39,
          "time": 106.29922500000032,
          "velocity": 0.6299212598425197,
          "duration": 0.11811025000000086
        },
        {
          "name": "D#2",
          "midi": 39,
          "time": 106.65355575000032,
          "velocity": 0.6299212598425197,
          "duration": 0.11811025000000086
        },
        {
          "name": "D#2",
          "midi": 39,
          "time": 107.00788650000032,
          "velocity": 0.6299212598425197,
          "duration": 0.11811025000000086
        },
        {
          "name": "D#2",
          "midi": 39,
          "time": 107.24410700000033,
          "velocity": 0.6299212598425197,
          "duration": 0.11811025000000086
        },
        {
          "name": "D#2",
          "midi": 39,
          "time": 107.48032750000033,
          "velocity": 0.6299212598425197,
          "duration": 0.11811025000000086
        },
        {
          "name": "F2",
          "midi": 41,
          "time": 107.71654800000033,
          "velocity": 0.6299212598425197,
          "duration": 0.11811025000000086
        },
        {
          "name": "F2",
          "midi": 41,
          "time": 108.07087875000033,
          "velocity": 0.6299212598425197,
          "duration": 0.11811025000000086
        },
        {
          "name": "F2",
          "midi": 41,
          "time": 108.42520950000034,
          "velocity": 0.6299212598425197,
          "duration": 0.11811025000000086
        },
        {
          "name": "F2",
          "midi": 41,
          "time": 108.66143000000034,
          "velocity": 0.6299212598425197,
          "duration": 0.11811025000000086
        },
        {
          "name": "F2",
          "midi": 41,
          "time": 108.89765050000034,
          "velocity": 0.6299212598425197,
          "duration": 0.11811025000000086
        },
        {
          "name": "G2",
          "midi": 43,
          "time": 109.13387100000034,
          "velocity": 0.6299212598425197,
          "duration": 0.11811025000000086
        },
        {
          "name": "G2",
          "midi": 43,
          "time": 109.48820175000034,
          "velocity": 0.6299212598425197,
          "duration": 0.11811025000000086
        },
        {
          "name": "G2",
          "midi": 43,
          "time": 109.84253250000035,
          "velocity": 0.6299212598425197,
          "duration": 0.11811025000000086
        },
        {
          "name": "G2",
          "midi": 43,
          "time": 110.07875300000035,
          "velocity": 0.6299212598425197,
          "duration": 0.11811025000000086
        },
        {
          "name": "G2",
          "midi": 43,
          "time": 110.31497350000035,
          "velocity": 0.6299212598425197,
          "duration": 0.11811025000000086
        },
        {
          "name": "D2",
          "midi": 38,
          "time": 110.55119400000035,
          "velocity": 0.6299212598425197,
          "duration": 0.11811025000000086
        },
        {
          "name": "D2",
          "midi": 38,
          "time": 110.90552475000035,
          "velocity": 0.6299212598425197,
          "duration": 0.11811025000000086
        },
        {
          "name": "F2",
          "midi": 41,
          "time": 111.25985550000036,
          "velocity": 0.6299212598425197,
          "duration": 0.11811025000000086
        },
        {
          "name": "F2",
          "midi": 41,
          "time": 111.49607600000036,
          "velocity": 0.6299212598425197,
          "duration": 0.11811025000000086
        },
        {
          "name": "F2",
          "midi": 41,
          "time": 111.73229650000036,
          "velocity": 0.6299212598425197,
          "duration": 0.11811025000000086
        },
        {
          "name": "D#2",
          "midi": 39,
          "time": 111.96851700000036,
          "velocity": 0.6299212598425197,
          "duration": 0.11811025000000086
        },
        {
          "name": "D#2",
          "midi": 39,
          "time": 112.32284775000036,
          "velocity": 0.6299212598425197,
          "duration": 0.11811025000000086
        },
        {
          "name": "D#2",
          "midi": 39,
          "time": 112.67717850000037,
          "velocity": 0.6299212598425197,
          "duration": 0.11811025000000086
        },
        {
          "name": "D#2",
          "midi": 39,
          "time": 112.91339900000037,
          "velocity": 0.6299212598425197,
          "duration": 0.11811025000000086
        },
        {
          "name": "D#2",
          "midi": 39,
          "time": 113.14961950000037,
          "velocity": 0.6299212598425197,
          "duration": 0.11811025000000086
        },
        {
          "name": "F2",
          "midi": 41,
          "time": 113.38584000000037,
          "velocity": 0.6299212598425197,
          "duration": 0.11811025000000086
        },
        {
          "name": "F2",
          "midi": 41,
          "time": 113.74017075000037,
          "velocity": 0.6299212598425197,
          "duration": 0.11811025000000086
        },
        {
          "name": "F2",
          "midi": 41,
          "time": 114.09450150000038,
          "velocity": 0.6299212598425197,
          "duration": 0.11811025000000086
        },
        {
          "name": "F2",
          "midi": 41,
          "time": 114.33072200000038,
          "velocity": 0.6299212598425197,
          "duration": 0.11811025000000086
        },
        {
          "name": "F2",
          "midi": 41,
          "time": 114.56694250000038,
          "velocity": 0.6299212598425197,
          "duration": 0.11811025000000086
        },
        {
          "name": "G2",
          "midi": 43,
          "time": 114.80316300000038,
          "velocity": 0.6299212598425197,
          "duration": 0.11811025000000086
        },
        {
          "name": "G2",
          "midi": 43,
          "time": 115.15749375000038,
          "velocity": 0.6299212598425197,
          "duration": 0.11811025000000086
        },
        {
          "name": "G2",
          "midi": 43,
          "time": 115.51182450000039,
          "velocity": 0.6299212598425197,
          "duration": 0.11811025000000086
        },
        {
          "name": "G2",
          "midi": 43,
          "time": 115.74804500000039,
          "velocity": 0.6299212598425197,
          "duration": 0.11811025000000086
        },
        {
          "name": "G2",
          "midi": 43,
          "time": 115.98426550000039,
          "velocity": 0.6299212598425197,
          "duration": 0.11811025000000086
        },
        {
          "name": "G2",
          "midi": 43,
          "time": 116.22048600000039,
          "velocity": 0.6299212598425197,
          "duration": 0.11811025000000086
        },
        {
          "name": "F2",
          "midi": 41,
          "time": 116.5748167500004,
          "velocity": 0.6299212598425197,
          "duration": 0.11811025000000086
        },
        {
          "name": "G2",
          "midi": 43,
          "time": 116.9291475000004,
          "velocity": 0.6299212598425197,
          "duration": 0.11811025000000086
        },
        {
          "name": "G2",
          "midi": 43,
          "time": 117.1653680000004,
          "velocity": 0.6299212598425197,
          "duration": 0.11811025000000086
        },
        {
          "name": "G2",
          "midi": 43,
          "time": 117.4015885000004,
          "velocity": 0.6299212598425197,
          "duration": 0.11811025000000086
        }
      ],
      "controlChanges": {
        "7": [
          {
            "number": 7,
            "time": 0,
            "value": 1
          },
          {
            "number": 7,
            "time": 0,
            "value": 1
          },
          {
            "number": 7,
            "time": 0,
            "value": 1
          },
          {
            "number": 7,
            "time": 0,
            "value": 1
          }
        ],
        "32": [
          {
            "number": 32,
            "time": 0,
            "value": 0
          },
          {
            "number": 32,
            "time": 0,
            "value": 0
          },
          {
            "number": 32,
            "time": 0,
            "value": 0
          },
          {
            "number": 32,
            "time": 0,
            "value": 0
          }
        ]
      },
      "id": 10,
      "name": "Untitled",
      "instrumentNumber": 47,
      "instrument": "timpani",
      "instrumentFamily": "strings",
      "channelNumber": 8,
      "isPercussion": false
    },
    {
      "startTime": 0,
      "duration": 81.73229300000013,
      "length": 96,
      "notes": [
        {
          "name": "G5",
          "midi": 79,
          "time": 0,
          "velocity": 0.7480314960629921,
          "duration": 0.2362205
        },
        {
          "name": "G4",
          "midi": 67,
          "time": 0,
          "velocity": 0.3937007874015748,
          "duration": 0.2362205
        },
        {
          "name": "C6",
          "midi": 84,
          "time": 1.4173229999999999,
          "velocity": 0.7480314960629921,
          "duration": 0.23622049999999994
        },
        {
          "name": "G4",
          "midi": 67,
          "time": 1.4173229999999999,
          "velocity": 0.3937007874015748,
          "duration": 0.23622049999999994
        },
        {
          "name": "G5",
          "midi": 79,
          "time": 2.8346459999999998,
          "velocity": 0.7480314960629921,
          "duration": 0.23622049999999994
        },
        {
          "name": "G4",
          "midi": 67,
          "time": 2.8346459999999998,
          "velocity": 0.3937007874015748,
          "duration": 0.23622049999999994
        },
        {
          "name": "G5",
          "midi": 79,
          "time": 4.251969,
          "velocity": 0.7480314960629921,
          "duration": 0.23622049999999994
        },
        {
          "name": "G4",
          "midi": 67,
          "time": 4.251969,
          "velocity": 0.3937007874015748,
          "duration": 0.23622049999999994
        },
        {
          "name": "A5",
          "midi": 81,
          "time": 4.9606305,
          "velocity": 0.7480314960629921,
          "duration": 0.23622049999999994
        },
        {
          "name": "A4",
          "midi": 69,
          "time": 4.9606305,
          "velocity": 0.3937007874015748,
          "duration": 0.23622049999999994
        },
        {
          "name": "G5",
          "midi": 79,
          "time": 5.6692919999999996,
          "velocity": 0.7480314960629921,
          "duration": 0.23622049999999994
        },
        {
          "name": "G4",
          "midi": 67,
          "time": 5.6692919999999996,
          "velocity": 0.3937007874015748,
          "duration": 0.23622049999999994
        },
        {
          "name": "C6",
          "midi": 84,
          "time": 7.086614999999999,
          "velocity": 0.7480314960629921,
          "duration": 0.23622049999999994
        },
        {
          "name": "G4",
          "midi": 67,
          "time": 7.086614999999999,
          "velocity": 0.3937007874015748,
          "duration": 0.23622049999999994
        },
        {
          "name": "G5",
          "midi": 79,
          "time": 8.503938,
          "velocity": 0.7480314960629921,
          "duration": 0.23622049999999994
        },
        {
          "name": "G4",
          "midi": 67,
          "time": 8.503938,
          "velocity": 0.3937007874015748,
          "duration": 0.23622049999999994
        },
        {
          "name": "G5",
          "midi": 79,
          "time": 9.921261,
          "velocity": 0.7480314960629921,
          "duration": 0.23622049999999994
        },
        {
          "name": "G4",
          "midi": 67,
          "time": 9.921261,
          "velocity": 0.3937007874015748,
          "duration": 0.23622049999999994
        },
        {
          "name": "A5",
          "midi": 81,
          "time": 10.6299225,
          "velocity": 0.7480314960629921,
          "duration": 0.23622049999999994
        },
        {
          "name": "A4",
          "midi": 69,
          "time": 10.6299225,
          "velocity": 0.3937007874015748,
          "duration": 0.23622049999999994
        },
        {
          "name": "G4",
          "midi": 67,
          "time": 11.338583999999999,
          "velocity": 0.3937007874015748,
          "duration": 0.23622049999999994
        },
        {
          "name": "G5",
          "midi": 79,
          "time": 11.338583999999999,
          "velocity": 0.7480314960629921,
          "duration": 0.23622049999999994
        },
        {
          "name": "G4",
          "midi": 67,
          "time": 12.755906999999999,
          "velocity": 0.3937007874015748,
          "duration": 0.23622049999999994
        },
        {
          "name": "C6",
          "midi": 84,
          "time": 12.755906999999999,
          "velocity": 0.7480314960629921,
          "duration": 0.23622049999999994
        },
        {
          "name": "G4",
          "midi": 67,
          "time": 14.173229999999998,
          "velocity": 0.3937007874015748,
          "duration": 0.23622049999999994
        },
        {
          "name": "G5",
          "midi": 79,
          "time": 14.173229999999998,
          "velocity": 0.7480314960629921,
          "duration": 0.23622049999999994
        },
        {
          "name": "G4",
          "midi": 67,
          "time": 15.590552999999998,
          "velocity": 0.3937007874015748,
          "duration": 0.23622049999999994
        },
        {
          "name": "G5",
          "midi": 79,
          "time": 15.590552999999998,
          "velocity": 0.7480314960629921,
          "duration": 0.23622049999999994
        },
        {
          "name": "A4",
          "midi": 69,
          "time": 16.299214499999998,
          "velocity": 0.3937007874015748,
          "duration": 0.23622050000000172
        },
        {
          "name": "A5",
          "midi": 81,
          "time": 16.299214499999998,
          "velocity": 0.7480314960629921,
          "duration": 0.23622050000000172
        },
        {
          "name": "G4",
          "midi": 67,
          "time": 17.007876,
          "velocity": 0.3937007874015748,
          "duration": 0.23622050000000172
        },
        {
          "name": "G5",
          "midi": 79,
          "time": 17.007876,
          "velocity": 0.7480314960629921,
          "duration": 0.23622050000000172
        },
        {
          "name": "G4",
          "midi": 67,
          "time": 18.425199000000003,
          "velocity": 0.3937007874015748,
          "duration": 0.23622050000000172
        },
        {
          "name": "C6",
          "midi": 84,
          "time": 18.425199000000003,
          "velocity": 0.7480314960629921,
          "duration": 0.23622050000000172
        },
        {
          "name": "G4",
          "midi": 67,
          "time": 19.842522000000006,
          "velocity": 0.3937007874015748,
          "duration": 0.23622050000000172
        },
        {
          "name": "G5",
          "midi": 79,
          "time": 19.842522000000006,
          "velocity": 0.7480314960629921,
          "duration": 0.23622050000000172
        },
        {
          "name": "G4",
          "midi": 67,
          "time": 21.25984500000001,
          "velocity": 0.3937007874015748,
          "duration": 0.23622050000000172
        },
        {
          "name": "G5",
          "midi": 79,
          "time": 21.25984500000001,
          "velocity": 0.7480314960629921,
          "duration": 0.23622050000000172
        },
        {
          "name": "A4",
          "midi": 69,
          "time": 21.96850650000001,
          "velocity": 0.3937007874015748,
          "duration": 0.23622050000000172
        },
        {
          "name": "A5",
          "midi": 81,
          "time": 21.96850650000001,
          "velocity": 0.7480314960629921,
          "duration": 0.23622050000000172
        },
        {
          "name": "G#5",
          "midi": 80,
          "time": 22.677168000000012,
          "velocity": 0.7480314960629921,
          "duration": 0.23622050000000172
        },
        {
          "name": "G#4",
          "midi": 68,
          "time": 22.677168000000012,
          "velocity": 0.3937007874015748,
          "duration": 0.23622050000000172
        },
        {
          "name": "C#6",
          "midi": 85,
          "time": 24.094491000000016,
          "velocity": 0.7480314960629921,
          "duration": 0.23622050000000172
        },
        {
          "name": "G#4",
          "midi": 68,
          "time": 24.094491000000016,
          "velocity": 0.3937007874015748,
          "duration": 0.23622050000000172
        },
        {
          "name": "G#5",
          "midi": 80,
          "time": 25.51181400000002,
          "velocity": 0.7480314960629921,
          "duration": 0.23622050000000172
        },
        {
          "name": "G#4",
          "midi": 68,
          "time": 25.51181400000002,
          "velocity": 0.3937007874015748,
          "duration": 0.23622050000000172
        },
        {
          "name": "G#5",
          "midi": 80,
          "time": 26.929137000000022,
          "velocity": 0.7480314960629921,
          "duration": 0.23622050000000172
        },
        {
          "name": "G#4",
          "midi": 68,
          "time": 26.929137000000022,
          "velocity": 0.3937007874015748,
          "duration": 0.23622050000000172
        },
        {
          "name": "A#5",
          "midi": 82,
          "time": 27.637798500000024,
          "velocity": 0.7480314960629921,
          "duration": 0.23622050000000172
        },
        {
          "name": "A#4",
          "midi": 70,
          "time": 27.637798500000024,
          "velocity": 0.3937007874015748,
          "duration": 0.23622050000000172
        },
        {
          "name": "G#5",
          "midi": 80,
          "time": 28.346460000000025,
          "velocity": 0.7480314960629921,
          "duration": 0.23622050000000172
        },
        {
          "name": "G#4",
          "midi": 68,
          "time": 28.346460000000025,
          "velocity": 0.3937007874015748,
          "duration": 0.23622050000000172
        },
        {
          "name": "C#6",
          "midi": 85,
          "time": 29.76378300000003,
          "velocity": 0.7480314960629921,
          "duration": 0.23622050000000172
        },
        {
          "name": "G#4",
          "midi": 68,
          "time": 29.76378300000003,
          "velocity": 0.3937007874015748,
          "duration": 0.23622050000000172
        },
        {
          "name": "G#5",
          "midi": 80,
          "time": 31.18110600000003,
          "velocity": 0.7480314960629921,
          "duration": 0.23622050000000172
        },
        {
          "name": "G#4",
          "midi": 68,
          "time": 31.18110600000003,
          "velocity": 0.3937007874015748,
          "duration": 0.23622050000000172
        },
        {
          "name": "G#4",
          "midi": 68,
          "time": 32.59842900000003,
          "velocity": 0.3937007874015748,
          "duration": 0.23622050000000172
        },
        {
          "name": "A#4",
          "midi": 70,
          "time": 33.30709050000004,
          "velocity": 0.3937007874015748,
          "duration": 0.23622050000000172
        },
        {
          "name": "G#4",
          "midi": 68,
          "time": 34.01575200000004,
          "velocity": 0.3937007874015748,
          "duration": 0.23622050000000172
        },
        {
          "name": "A#4",
          "midi": 70,
          "time": 34.72441350000005,
          "velocity": 0.3937007874015748,
          "duration": 0.23622050000000172
        },
        {
          "name": "G#4",
          "midi": 68,
          "time": 35.43307500000005,
          "velocity": 0.3937007874015748,
          "duration": 0.23622050000000172
        },
        {
          "name": "A#4",
          "midi": 70,
          "time": 36.14173650000006,
          "velocity": 0.3937007874015748,
          "duration": 0.23622050000000172
        },
        {
          "name": "G#4",
          "midi": 68,
          "time": 36.85039800000006,
          "velocity": 0.3937007874015748,
          "duration": 0.23622050000000172
        },
        {
          "name": "A#4",
          "midi": 70,
          "time": 37.55905950000007,
          "velocity": 0.23622047244094488,
          "duration": 0.23622050000000172
        },
        {
          "name": "G#5",
          "midi": 80,
          "time": 49.60630500000007,
          "velocity": 0.5511811023622047,
          "duration": 0.23622050000000172
        },
        {
          "name": "B5",
          "midi": 83,
          "time": 49.60630500000007,
          "velocity": 0.47244094488188976,
          "duration": 0.23622050000000172
        },
        {
          "name": "B5",
          "midi": 83,
          "time": 49.96063575000007,
          "velocity": 0.5511811023622047,
          "duration": 0.23622050000000172
        },
        {
          "name": "A#5",
          "midi": 82,
          "time": 50.314966500000075,
          "velocity": 0.5511811023622047,
          "duration": 0.23622050000000172
        },
        {
          "name": "G#5",
          "midi": 80,
          "time": 52.44095100000008,
          "velocity": 0.5511811023622047,
          "duration": 0.23622050000000172
        },
        {
          "name": "B5",
          "midi": 83,
          "time": 52.44095100000008,
          "velocity": 0.47244094488188976,
          "duration": 0.23622050000000172
        },
        {
          "name": "B5",
          "midi": 83,
          "time": 52.79528175000008,
          "velocity": 0.5511811023622047,
          "duration": 0.23622050000000172
        },
        {
          "name": "A#5",
          "midi": 82,
          "time": 53.14961250000008,
          "velocity": 0.5511811023622047,
          "duration": 0.23622050000000172
        },
        {
          "name": "B5",
          "midi": 83,
          "time": 55.27559700000008,
          "velocity": 0.47244094488188976,
          "duration": 0.23622050000000172
        },
        {
          "name": "G#5",
          "midi": 80,
          "time": 55.27559700000008,
          "velocity": 0.5511811023622047,
          "duration": 0.23622050000000172
        },
        {
          "name": "B5",
          "midi": 83,
          "time": 55.629927750000085,
          "velocity": 0.5511811023622047,
          "duration": 0.23622050000000172
        },
        {
          "name": "A#5",
          "midi": 82,
          "time": 55.98425850000009,
          "velocity": 0.5511811023622047,
          "duration": 0.23622050000000172
        },
        {
          "name": "G#5",
          "midi": 80,
          "time": 58.11024300000009,
          "velocity": 0.5511811023622047,
          "duration": 0.23622050000000172
        },
        {
          "name": "B5",
          "midi": 83,
          "time": 58.11024300000009,
          "velocity": 0.47244094488188976,
          "duration": 0.23622050000000172
        },
        {
          "name": "B5",
          "midi": 83,
          "time": 58.46457375000009,
          "velocity": 0.5511811023622047,
          "duration": 0.23622050000000172
        },
        {
          "name": "A#5",
          "midi": 82,
          "time": 58.818904500000095,
          "velocity": 0.5511811023622047,
          "duration": 0.23622050000000172
        },
        {
          "name": "B5",
          "midi": 83,
          "time": 72.2834730000001,
          "velocity": 0.47244094488188976,
          "duration": 0.23622050000000172
        },
        {
          "name": "G#5",
          "midi": 80,
          "time": 72.2834730000001,
          "velocity": 0.5511811023622047,
          "duration": 0.23622050000000172
        },
        {
          "name": "B5",
          "midi": 83,
          "time": 72.6378037500001,
          "velocity": 0.5511811023622047,
          "duration": 0.23622050000000172
        },
        {
          "name": "A#5",
          "midi": 82,
          "time": 72.9921345000001,
          "velocity": 0.5511811023622047,
          "duration": 0.23622050000000172
        },
        {
          "name": "B5",
          "midi": 83,
          "time": 75.1181190000001,
          "velocity": 0.47244094488188976,
          "duration": 0.23622050000000172
        },
        {
          "name": "G#5",
          "midi": 80,
          "time": 75.1181190000001,
          "velocity": 0.5511811023622047,
          "duration": 0.23622050000000172
        },
        {
          "name": "B5",
          "midi": 83,
          "time": 75.47244975000011,
          "velocity": 0.5511811023622047,
          "duration": 0.23622050000000172
        },
        {
          "name": "A#5",
          "midi": 82,
          "time": 75.82678050000011,
          "velocity": 0.5511811023622047,
          "duration": 0.23622050000000172
        },
        {
          "name": "G#5",
          "midi": 80,
          "time": 77.95276500000011,
          "velocity": 0.5511811023622047,
          "duration": 0.23622050000000172
        },
        {
          "name": "B5",
          "midi": 83,
          "time": 77.95276500000011,
          "velocity": 0.47244094488188976,
          "duration": 0.23622050000000172
        },
        {
          "name": "B5",
          "midi": 83,
          "time": 78.30709575000012,
          "velocity": 0.5511811023622047,
          "duration": 0.23622050000000172
        },
        {
          "name": "A#5",
          "midi": 82,
          "time": 78.66142650000012,
          "velocity": 0.5511811023622047,
          "duration": 0.23622050000000172
        },
        {
          "name": "B5",
          "midi": 83,
          "time": 80.78741100000012,
          "velocity": 0.47244094488188976,
          "duration": 0.23622050000000172
        },
        {
          "name": "G#5",
          "midi": 80,
          "time": 80.78741100000012,
          "velocity": 0.5511811023622047,
          "duration": 0.23622050000000172
        },
        {
          "name": "B5",
          "midi": 83,
          "time": 81.14174175000012,
          "velocity": 0.5511811023622047,
          "duration": 0.23622050000000172
        },
        {
          "name": "A#5",
          "midi": 82,
          "time": 81.49607250000012,
          "velocity": 0.5511811023622047,
          "duration": 0.23622050000000172
        }
      ],
      "controlChanges": {
        "7": [
          {
            "number": 7,
            "time": 0,
            "value": 1
          },
          {
            "number": 7,
            "time": 0,
            "value": 1
          },
          {
            "number": 7,
            "time": 0,
            "value": 0.7874015748031497
          },
          {
            "number": 7,
            "time": 0,
            "value": 1
          },
          {
            "number": 7,
            "time": 0,
            "value": 1
          }
        ],
        "32": [
          {
            "number": 32,
            "time": 0,
            "value": 0
          },
          {
            "number": 32,
            "time": 0,
            "value": 0
          },
          {
            "number": 32,
            "time": 0,
            "value": 0
          },
          {
            "number": 32,
            "time": 0,
            "value": 0
          }
        ]
      },
      "id": 11,
      "name": "Untitled",
      "instrumentNumber": 55,
      "instrumentFamily": "drums",
      "channelNumber": 10,
      "isPercussion": true
    }
  ]
}